<svg width="36" height="36" viewBox="0 0 36 36" fill="none" xmlns="http://www.w3.org/2000/svg">
<path d="M22.9207 33.6997L23.3415 34.4455L24.0253 33.9301L31.083 28.6108L31.7114 28.1372L31.2081 27.5322L24.9253 19.9804L34.1747 17.765L34.9516 17.5789L34.7169 16.8153L32.0703 8.20317L31.822 7.39515L31.0493 7.73791L22.1882 11.6685L23.0381 1.56286L23.1065 0.75H22.2907H13.6291H12.8093L12.882 1.56652L13.7774 11.621L4.9541 7.65498L4.17712 7.30573L3.92911 8.12069L1.28249 16.8173L1.05082 17.5785L1.82442 17.7648L11.2392 20.0318L4.9488 27.7053L4.45623 28.3061L5.07412 28.7772L12.0516 34.0964L12.7352 34.6176L13.1588 33.8697L18.0979 25.151L22.9207 33.6997Z" stroke="#030027" stroke-width="1.5"/>
</svg>
