<svg width="28" height="28" viewBox="0 0 28 28" fill="none" xmlns="http://www.w3.org/2000/svg">
<path d="M23.8984 0H4.10156C2.7446 0 1.64062 1.10398 1.64062 2.46094V25.5391C1.64062 26.896 2.7446 28 4.10156 28H23.8984C25.2554 28 26.3594 26.896 26.3594 25.5391V2.46094C26.3594 1.10398 25.2554 0 23.8984 0ZM24.7188 2.46094V6.56255H11.9219V1.64062H23.8984C24.3508 1.64062 24.7188 2.00862 24.7188 2.46094ZM4.10156 1.64062H10.2813V6.56255H3.28125V2.46094C3.28125 2.00862 3.64924 1.64062 4.10156 1.64062ZM23.8984 26.3594H4.10156C3.64924 26.3594 3.28125 25.9914 3.28125 25.5391V8.20318H24.7188V25.5391C24.7188 25.9914 24.3508 26.3594 23.8984 26.3594Z" fill="currentColor"/>
<path d="M22.2578 4.92188C22.7109 4.92188 23.0781 4.55461 23.0781 4.10156C23.0781 3.64852 22.7109 3.28125 22.2578 3.28125C21.8048 3.28125 21.4375 3.64852 21.4375 4.10156C21.4375 4.55461 21.8048 4.92188 22.2578 4.92188Z" fill="currentColor"/>
<path d="M18.9766 4.92188C19.4296 4.92188 19.7969 4.55461 19.7969 4.10156C19.7969 3.64852 19.4296 3.28125 18.9766 3.28125C18.5235 3.28125 18.1562 3.64852 18.1562 4.10156C18.1562 4.55461 18.5235 4.92188 18.9766 4.92188Z" fill="currentColor"/>
<path d="M15.6953 4.92188C16.1471 4.92188 16.5156 4.55339 16.5156 4.10156C16.5156 3.64979 16.1471 3.28125 15.6953 3.28125C15.2435 3.28125 14.875 3.64973 14.875 4.10156C14.875 4.55334 15.2435 4.92188 15.6953 4.92188Z" fill="currentColor"/>
<path d="M14 10.1172C10.0498 10.1172 6.83594 13.331 6.83594 17.2812C6.83594 21.2315 10.0498 24.4453 14 24.4453C17.9502 24.4453 21.1641 21.2315 21.1641 17.2812C21.1641 13.331 17.9502 10.1172 14 10.1172ZM14 11.7578C16.1692 11.7578 18.0501 13.015 18.9531 14.8389C18.0137 14.9524 17.236 15.5967 16.9296 16.4625C16.9178 16.4622 16.9065 16.4609 16.8946 16.4609C16.1887 16.4609 15.7868 16.9824 15.5209 17.3274C15.4988 17.3561 15.4731 17.3895 15.4468 17.4228C15.4204 17.3895 15.3947 17.3561 15.3725 17.3274C15.1066 16.9823 14.7048 16.4609 13.9989 16.4609C13.2929 16.4609 12.8912 16.9823 12.6252 17.3274C12.6031 17.3561 12.5774 17.3895 12.5511 17.4228C12.5247 17.3895 12.499 17.3561 12.4768 17.3274C12.2109 16.9823 11.8091 16.4609 11.1032 16.4609C10.3973 16.4609 9.99545 16.9823 9.72956 17.3274C9.68931 17.3796 9.63741 17.4469 9.59115 17.5019C9.4932 17.4206 9.35922 17.2733 9.26997 17.1751C9.10777 16.9967 8.92391 16.7944 8.70198 16.6267C8.64724 16.5854 8.58867 16.5528 8.52824 16.5271C8.89716 13.837 11.2102 11.7578 14 11.7578ZM19.5234 17.2812C19.5234 17.5599 19.5025 17.8338 19.4625 18.1015C19.4137 18.0964 19.364 18.0951 19.3134 18.0992C19.2925 18.1008 19.2712 18.1016 19.25 18.1016C18.7977 18.1016 18.4297 17.7336 18.4297 17.2813C18.4297 16.829 18.7977 16.461 19.25 16.461C19.3221 16.461 19.3917 16.4508 19.4584 16.4333C19.5011 16.7097 19.5234 16.9929 19.5234 17.2812ZM14 22.8047C11.5149 22.8047 9.40816 21.1549 8.71675 18.8932C8.97356 19.0682 9.2803 19.1953 9.65535 19.1953C10.3612 19.1953 10.7631 18.6739 11.029 18.3289C11.0511 18.3001 11.0768 18.2668 11.1032 18.2335C11.1295 18.2668 11.1552 18.3001 11.1774 18.3288C11.4433 18.6739 11.8451 19.1953 12.551 19.1953C13.2569 19.1953 13.6587 18.6739 13.9246 18.3289C13.9468 18.3001 13.9725 18.2668 13.9988 18.2334C14.0252 18.2668 14.0509 18.3001 14.073 18.3289C14.3389 18.6739 14.7408 19.1953 15.4466 19.1953C16.1525 19.1953 16.5543 18.6739 16.8202 18.3289C16.8438 18.2983 16.8713 18.2627 16.8994 18.2272C16.937 18.2625 16.9774 18.2935 17.0198 18.3204C17.3723 19.0738 18.0953 19.62 18.953 19.7236C18.0501 21.5475 16.1692 22.8047 14 22.8047Z" fill="currentColor"/>
</svg>
