<svg width="84" height="96" viewBox="0 0 84 96" fill="none" xmlns="http://www.w3.org/2000/svg">
<path d="M83.3097 34.5329C83.559 34.3888 83.7118 34.1245 83.7118 33.8363V24.4285C83.7118 24.4285 83.7118 24.4124 83.7118 24.4044C83.7118 24.1162 83.559 23.852 83.3097 23.7079L75.1074 18.9839L66.897 14.268L58.6866 9.54405L50.4763 4.82812L42.2579 0.104184C42.0086 -0.0399363 41.703 -0.0399363 41.4537 0.104184L33.2433 4.82812C33.1951 4.85214 33.1549 4.89217 33.1147 4.9242C33.0986 4.93221 33.0825 4.94021 33.0745 4.95623C32.9297 5.10835 32.8413 5.30852 32.8413 5.5247V32.4511L9.41637 18.9839C9.16708 18.8398 8.8615 18.8398 8.61222 18.9839L0.401846 23.7079C0.345555 23.7399 0.297306 23.7799 0.257099 23.8199C0.257099 23.8199 0.241016 23.828 0.241016 23.836C0.232974 23.844 0.224933 23.86 0.216891 23.868C0.0882275 24.0121 0.0078125 24.2043 0.0078125 24.4044V71.5957C0.0078125 71.884 0.160601 72.1482 0.409887 72.2923L8.62026 77.0163C8.86954 77.1604 9.17512 77.1604 9.42441 77.0163C9.42441 77.0163 9.44049 77.0083 9.44853 77.0003L32.8493 63.549V90.4835C32.8493 90.7717 33.0021 91.0359 33.2514 91.1801L41.4617 95.904C41.5824 95.9761 41.7271 96.0081 41.8638 96.0081C42.0005 96.0081 42.1453 95.9761 42.2659 95.904C42.2659 95.904 42.282 95.896 42.29 95.888L83.3177 72.3003C83.567 72.1562 83.7198 71.892 83.7198 71.6038V62.1639C83.7198 61.8757 83.567 61.6114 83.3177 61.4673L59.8929 48.0001L66.897 43.9727L83.3177 34.5329H83.3097ZM34.4496 33.3719V6.90985L41.4537 10.9292L49.6641 15.6531L57.8744 20.3691L64.8786 24.3964L57.8744 28.4158L53.5562 30.9058L41.8638 37.6315L41.711 37.5434L34.4576 33.3639L34.4496 33.3719ZM9.01429 20.6013L41.4537 39.2488C41.5743 39.3209 41.7191 39.3529 41.8558 39.3529C41.9925 39.3529 42.1372 39.3209 42.2579 39.2488L50.4682 34.5329L54.682 32.1068L66.8809 25.093C67.1302 24.9489 67.283 24.6847 67.283 24.3964C67.283 24.1082 67.1302 23.844 66.8809 23.6998L58.6705 18.9759L50.4602 14.26L42.2498 9.53604L35.2457 5.51669L41.8477 1.72153L49.656 6.21327L57.8664 10.9292L66.0768 15.6531L74.2871 20.3691L81.2913 24.3964L74.2871 28.4238L66.0768 33.1397L57.8664 37.8556L49.656 42.5796L41.8477 47.0633L40.7219 46.4148L25.8291 37.8556L17.6187 33.1397L9.40833 28.4158L2.41222 24.4044L9.01429 20.6093V20.6013ZM32.8413 61.6915L9.81844 74.9265V39.9454L16.7904 43.9567C16.7904 43.9567 16.8065 43.9727 16.8226 43.9727L22.0094 46.9512L25.0249 48.6887L32.8332 53.1804V61.6915H32.8413ZM34.0475 52.0194L23.8267 46.1506L17.683 42.6196C17.683 42.6196 17.6428 42.5956 17.6267 42.5796L9.41637 37.8636C9.29574 37.7916 9.151 37.7596 9.01429 37.7596C8.87759 37.7596 8.73284 37.7916 8.61222 37.8636C8.36293 38.0078 8.21014 38.272 8.21014 38.5602V74.9345L1.60807 71.1394V25.7896L16.8226 34.5329L28.9009 41.4747L33.2433 43.9727L40.6254 48.2163L41.0436 48.4565V93.8063L34.4415 90.0111V52.716C34.4415 52.4278 34.2887 52.1636 34.0394 52.0194H34.0475ZM58.2765 48.9209L81.2993 62.1559L74.2952 66.1832L69.3979 68.9936L66.0848 70.8992L61.7424 73.3973L57.8744 75.6231L50.8703 79.6505V53.1804L58.2765 48.9209ZM66.0848 42.5796L49.6641 52.0194C49.4148 52.1636 49.262 52.4278 49.262 52.716V81.0356C49.262 81.0356 49.262 81.0676 49.262 81.0837C49.262 81.1157 49.262 81.1397 49.27 81.1717C49.2781 81.2198 49.2942 81.2678 49.3102 81.3158C49.3102 81.3319 49.3102 81.3479 49.3263 81.3639C49.3344 81.3879 49.3505 81.4119 49.3665 81.436C49.3987 81.5 49.4469 81.5561 49.4952 81.6041C49.5193 81.6281 49.5595 81.6521 49.5837 81.6762C49.6078 81.6922 49.6319 81.7162 49.656 81.7322C49.656 81.7322 49.7284 81.7642 49.7686 81.7802C49.8892 81.8283 50.0099 81.8443 50.1305 81.8283C50.1707 81.8283 50.2189 81.8283 50.2591 81.8123C50.3235 81.7962 50.3959 81.7642 50.4521 81.7322L58.6625 77.0163L62.5305 74.7904L66.8729 72.2923L82.0874 63.549V71.1394L42.6438 93.8143V48.4645L82.0874 25.7976V33.3879L66.0687 42.5956L66.0848 42.5796Z" fill="white"/>
</svg>
