<svg width="96" height="96" viewBox="0 0 96 96" fill="none" xmlns="http://www.w3.org/2000/svg">
<g opacity="0.5">
<path d="M9.81055 89.7321C10.9212 89.7321 12.0874 89.7321 13.198 89.6219C13.3646 89.6219 13.5868 89.6219 13.7534 89.5668H13.9755C14.5308 89.5668 15.0862 89.5668 15.697 89.5668C15.8081 89.5668 15.8636 89.5668 15.9747 89.5668C16.3079 89.5668 16.6411 89.6219 16.9743 89.677C17.9183 89.677 18.9179 89.677 19.862 89.677C20.5839 89.8422 21.2503 89.677 21.9722 89.677C21.9722 89.677 22.4165 89.677 22.6386 89.677C23.5827 89.8422 24.4712 89.9524 25.3597 89.677C26.1927 89.8973 26.9702 89.8973 27.7476 89.677C28.0808 89.677 28.414 89.677 28.8028 89.677C29.0804 89.677 29.3026 89.677 29.5802 89.677C31.0241 89.677 32.4679 89.8422 33.9118 89.7321C36.022 90.1728 38.1878 89.7872 40.4091 89.7321C42.5749 89.4567 44.7962 89.7321 47.073 89.7321C49.2388 89.8973 51.4046 89.8422 53.6259 89.7321C54.681 89.7321 55.9027 89.7321 56.5136 89.7321C57.9575 89.7321 59.4568 89.8422 60.9007 89.7321C61.2894 89.7321 61.6782 89.7321 62.1224 89.7321C63.0109 89.677 63.8995 89.8973 64.788 89.7321C65.8431 89.7321 66.9538 89.7321 68.0089 89.7321H68.12C68.4532 89.7321 68.8419 89.7321 69.1751 89.7321C70.6745 89.7321 72.1183 89.7321 73.6177 89.7321C74.3396 89.8422 75.1171 89.8973 75.839 89.7321C76.1167 89.7321 76.3943 89.7321 76.672 89.7321C76.9497 89.7321 77.1718 89.7321 77.4495 89.7321C77.9493 89.7321 78.4491 89.7321 78.8933 89.7321C79.5042 89.7321 80.115 89.7321 80.7259 89.7321C81.67 89.7321 82.614 89.7321 83.5581 89.7321C83.5581 89.1262 83.5581 88.5753 83.5581 87.9694V87.3635C83.7247 86.4821 83.3915 85.7109 83.5581 84.9398C83.6691 84.1686 83.7802 83.4525 83.5581 82.6813C83.5581 82.461 83.5581 82.2406 83.6136 81.9652V81.8C83.6136 81.8 83.6136 81.5245 83.6136 81.4144C83.5025 78.9907 83.6136 76.622 83.6136 74.1983C83.5581 71.8297 83.6136 69.4611 83.6136 67.1476C83.2804 64.834 83.6136 62.5205 83.6136 60.207C83.6136 57.9485 83.7247 55.6901 83.6136 53.4316C83.6136 51.2283 83.6691 49.0249 83.6136 46.8215C83.7802 44.6732 83.7247 42.525 83.6136 40.3767V37.5123C82.9472 37.5123 82.2808 37.5123 81.67 37.5123C81.2812 37.5123 80.948 37.5123 80.5593 37.5123C79.8374 37.5123 79.1154 37.5123 78.4491 37.5123C76.3943 37.5674 74.3396 37.4572 72.396 37.5123C70.3968 37.6225 68.4532 37.8428 66.565 37.5123C64.6769 37.5123 62.7888 37.7326 60.9562 37.5123C59.1236 37.6776 57.3466 37.7326 55.5696 37.5123C53.7925 37.6225 52.1265 37.347 50.4605 37.5123C48.7946 37.6225 47.1841 37.5123 45.5737 37.5123C44.0187 37.5123 42.4638 37.2369 41.02 37.5123C39.5206 37.4021 38.1323 37.5123 36.7439 37.5123C35.3556 37.292 34.0228 37.5123 32.7456 37.5123C26.3593 37.5674 21.3614 37.6776 17.8628 37.7877C16.1413 37.7877 14.8085 37.8979 13.92 37.953C13.0314 37.953 12.5872 38.0631 12.5872 38.1182C12.5872 38.2284 14.0866 38.2835 16.9187 38.3936C19.7509 38.4487 23.8603 38.5589 29.0804 38.614C30.2466 38.614 31.4683 38.614 32.7456 38.614C34.0228 38.614 35.3556 38.9445 36.7439 38.614C38.1323 38.3386 39.5761 38.7242 41.02 38.614C42.5194 38.1733 44.0187 38.7242 45.5737 38.614C47.1286 38.5038 48.7946 38.614 50.4605 38.614C52.1265 38.8343 53.848 38.614 55.5696 38.614C57.3466 38.614 59.1236 38.3386 60.9562 38.614C62.7888 38.614 64.6769 38.614 66.565 38.614C68.4532 38.4487 70.4523 38.8343 72.396 38.614C74.3952 38.7792 76.3943 38.614 78.4491 38.614C79.171 38.5589 79.8929 38.5589 80.5593 38.614H81.8366C81.8366 38.614 81.8366 38.8343 81.8366 38.8894V39.7708C81.8366 41.8639 82.0032 44.0122 81.8366 46.2156C81.9476 48.3639 81.3923 50.5672 81.8366 52.8257C81.7255 55.0291 81.781 57.2875 81.8366 59.601C82.0032 61.8595 81.8366 64.173 81.8366 66.5416C81.7255 68.8552 82.1142 71.2238 81.8366 73.5924C81.8366 75.0797 81.8366 76.567 81.781 77.9991C81.67 77.8339 81.5589 77.6686 81.4478 77.4483C80.948 76.8975 80.7259 76.1814 80.3372 75.6305C79.6708 75.1899 79.282 74.639 79.282 73.8678C78.7822 73.3721 78.338 72.8763 78.2825 72.2153C77.9493 71.6645 77.3939 71.2789 77.3384 70.6179C77.0607 70.067 76.7831 69.5713 76.4499 69.1306C75.839 68.8552 76.1167 68.0289 75.6169 67.7535C75.2281 67.3679 75.1171 66.8722 74.8394 66.4866C74.5618 66.101 74.2841 65.7154 74.1175 65.3298C74.1175 64.834 73.5066 64.6688 73.4511 64.2281C73.2845 63.8976 73.0624 63.5671 72.8402 63.2917C72.6181 63.0163 72.4515 62.6858 72.2849 62.4654C71.2853 60.9781 70.73 60.1519 70.5634 60.1519C70.5634 60.1519 69.064 62.0798 67.0093 65.3298C66.7872 65.7154 66.5095 66.101 66.2874 66.4866C66.0097 66.9272 65.5099 67.2027 65.5099 67.7535C65.5099 68.3594 64.8435 68.6348 64.6769 69.1306C64.788 69.8467 64.0105 70.067 63.7884 70.6179C63.6218 71.2238 63.1775 71.6645 62.8443 72.2153C62.3445 72.656 62.178 73.317 61.8448 73.8678C61.5116 74.4738 61.4005 75.1899 60.7896 75.6305C60.4009 76.2365 60.0677 76.8424 59.679 77.4483C59.4568 78.1644 58.7349 78.6051 58.5128 79.3763C58.013 79.9271 57.7353 80.6983 57.3466 81.3593C57.1245 82.1305 56.4581 82.6813 56.1249 83.3974C55.6806 84.0584 55.4585 84.8847 54.8476 85.5457C54.8476 85.6558 54.7366 85.7109 54.681 85.8211L54.4589 86.1516C54.4589 86.1516 54.0702 86.7024 53.848 86.9779C53.2372 85.9864 52.071 84.3338 50.4605 82.1305C50.1829 81.7449 49.8497 81.3042 49.5165 80.8635C49.1833 80.4229 49.0722 79.7618 48.5169 79.4864C47.906 79.211 47.8505 78.4398 47.4062 77.9991C46.6843 77.7788 46.6843 76.8975 46.24 76.4017C45.7403 75.961 45.4071 75.3 45.0183 74.7492C44.7407 74.0331 44.1298 73.5924 43.6855 72.9865C43.1857 72.3806 42.5194 71.9399 42.2972 71.1136C41.853 70.4526 41.3532 69.8467 40.8534 69.1857C40.2425 68.6348 40.0204 67.6984 39.354 67.2027C39.1319 66.8171 38.9097 66.4866 38.6321 66.1561C38.4655 65.9908 38.3544 65.8256 38.1878 65.6603L37.9657 65.3849L37.8546 65.2747L37.688 65.0544C37.2437 64.5586 36.855 64.0629 36.4663 63.512C36.1331 63.7874 35.7999 64.1179 35.4667 64.3934C35.3001 64.5586 35.1335 64.7239 34.9669 64.8891L34.8558 64.9993H34.8003L34.6892 65.2196C34.0228 65.8256 33.4675 66.6518 32.6901 67.1476C32.0792 67.8637 31.0241 68.1942 30.6353 69.1306C29.8579 69.7365 29.1915 70.4526 28.5251 71.1687C27.9142 71.995 27.0812 72.5458 26.4148 73.2619C25.6374 73.9229 25.1376 74.8594 24.2491 75.4102C23.5827 76.1814 22.6386 76.7322 22.0278 77.6136C21.4169 78.4949 20.5839 79.1559 19.8064 79.872C18.9735 80.533 18.3626 81.4144 17.5851 82.1305C16.9743 83.0118 16.0858 83.5627 15.3638 84.3338C14.9196 84.6643 14.5308 84.9398 14.1421 85.3253H14.0866L13.9755 85.4906L13.6978 85.766C13.3646 83.9482 13.3091 82.2406 13.6978 80.533C13.4757 78.7703 13.3646 77.1178 13.6978 75.4653C13.6978 73.8128 13.4202 72.2153 13.6978 70.6179C13.6978 69.0755 13.6978 67.5332 13.6978 66.101C13.3091 64.6137 13.9755 63.2366 13.6978 61.8595C13.5312 60.4824 13.6978 59.1604 13.6978 57.8934C13.6978 56.6265 13.5868 55.4147 13.6978 54.2579C13.92 53.1011 13.4757 51.9994 13.6978 50.9528C13.6978 49.9062 13.6978 48.9147 13.6978 47.9783C13.6978 47.0419 13.6978 46.1605 13.6978 45.3893C13.6978 42.9656 13.5868 41.0928 13.5312 39.8258C13.4757 38.5589 13.4202 37.8979 13.3646 37.8979C13.3091 37.8979 13.2536 38.5589 13.198 39.8258C13.1425 41.0928 13.087 42.9656 13.0314 45.3893V47.9783C12.9204 48.9147 12.8648 49.9062 12.9204 50.9528C12.9204 51.9994 13.0314 53.1011 12.9204 54.2579C12.9759 55.4147 12.6427 56.6265 12.9204 57.8934C12.7538 59.1604 12.9204 60.4824 12.9204 61.8595C12.8093 63.2366 12.5317 64.6688 12.9204 66.101C12.5872 67.5882 12.9204 69.0755 12.9204 70.6179C12.9204 72.1602 12.4761 73.8128 12.9204 75.4653C12.8648 77.1178 12.9204 78.8254 12.9204 80.533C13.1425 82.2957 12.6983 84.0584 12.9204 85.8762C12.9204 86.2618 12.9204 86.5923 12.9204 86.9779V87.5287C12.3095 88.0245 11.7542 88.5753 11.2544 89.0711L9.81055 89.7321ZM55.6251 87.5287V87.3635L55.7917 87.088C56.347 86.427 56.7357 85.7109 57.0134 84.9398C57.4577 84.2787 57.7353 83.5076 58.1796 82.8466C58.5128 82.1305 59.0126 81.5245 59.3458 80.8084C59.6234 80.0923 59.8456 79.3763 60.4564 78.8805C60.8452 78.2746 61.0118 77.5034 61.5116 77.0076C61.7337 76.2915 62.0114 75.6856 62.5112 75.1899C62.7333 74.5288 63.2886 74.1433 63.4552 73.4823C63.6773 72.8763 64.0661 72.3806 64.3437 71.8297C64.6769 71.334 65.1767 70.9484 65.1767 70.2874C65.5654 69.8467 65.6765 69.2959 65.9542 68.8552C66.3984 68.5247 66.454 67.9188 66.6761 67.5332C68.6753 63.8425 69.897 61.4188 70.0636 60.8129C70.1747 61.1434 70.5634 62.0247 71.2298 63.2917C71.3964 63.5671 71.5075 63.8425 71.6741 64.173C71.7851 64.5035 71.9517 64.8891 72.2294 65.1645C72.396 65.5501 72.7292 65.8256 72.8402 66.2662C73.1179 66.5967 73.0624 67.2027 73.5066 67.4781C73.6177 67.9738 74.062 68.3043 74.2286 68.8001C74.3952 69.2959 74.4507 69.9018 75.006 70.2323C75.006 70.8933 75.6169 71.2238 75.839 71.7746C76.1167 72.3255 76.0611 73.0416 76.7275 73.3721C77.0052 73.978 77.3939 74.4738 77.6716 75.0797C78.1714 75.5754 78.1714 76.3466 78.6712 76.8975C79.0599 77.5034 79.2265 78.2195 79.7263 78.7703C80.2261 79.3212 80.5038 80.0373 80.837 80.6983C81.0036 80.9737 81.1702 81.194 81.3368 81.4695C81.3923 81.5796 81.5034 81.6898 81.5589 81.7449C81.5589 82.3508 81.6144 82.9567 81.6144 83.5626C81.6144 83.9482 81.5034 84.3338 81.6144 84.7194C81.1702 85.5457 81.5589 86.3719 81.6144 87.1982V87.3635V87.5838H80.837C80.2261 87.4736 79.6152 87.4736 79.0044 87.5838H78.8378C78.338 87.5838 77.8937 87.5838 77.3939 87.5838C76.9497 87.5838 76.4499 87.5287 76.0056 87.5838C75.8945 87.5838 75.839 87.5838 75.728 87.5838C75.5613 87.5838 75.3392 87.5838 75.1726 87.5838H75.006C74.4507 87.5838 73.8954 87.5287 73.2845 87.5838C72.3404 87.5838 71.4519 87.5838 70.5079 87.5838C69.5638 87.5838 68.6198 87.4736 67.6757 87.5838H67.5646C65.3989 87.4736 63.2886 87.3635 61.1784 87.5838C60.7896 87.5838 60.4564 87.5838 60.0677 87.5838C58.6239 87.5287 57.1245 87.5838 55.6806 87.5838C55.6806 87.5838 55.6251 87.5838 55.5696 87.5838H55.4585L55.5696 87.4736L55.6251 87.5287ZM14.753 87.5287C14.753 87.5287 14.753 87.5287 14.753 87.4736H14.864V87.3635C15.3083 87.0329 15.697 86.7024 16.0302 86.3169C16.7521 85.6008 17.5296 84.8847 18.2515 84.1135C19.029 83.3974 19.8064 82.6813 20.4728 81.855C21.1392 81.0288 21.7501 80.1474 22.6942 79.5966C23.3605 78.7703 24.138 78.1093 24.9155 77.3932C25.5819 76.622 26.4148 75.961 27.0812 75.2449C27.581 74.3085 28.5251 73.8678 29.1915 73.0967C29.8579 72.3806 30.6353 71.7746 31.2462 71.0035C31.9126 70.3425 32.6901 69.6814 33.2454 68.9654C34.0228 68.4145 34.6337 67.7535 35.189 66.9823L35.4112 66.762L35.5222 66.5416C35.5222 66.5416 35.6333 66.6518 35.6888 66.7069L35.7999 66.8722C35.7999 66.8722 35.911 67.0374 36.022 67.1476C36.1331 67.3128 36.2997 67.4781 36.4107 67.6984C36.6884 68.0289 36.9105 68.4145 37.2437 68.6899C37.8546 69.2959 38.521 69.8467 38.7987 70.673C39.2985 71.334 39.9648 71.8297 40.298 72.5458C40.9089 73.0416 41.4087 73.6475 41.7419 74.3636C42.2972 74.8594 42.5194 75.6305 43.1302 76.0712C43.6855 76.567 44.0187 77.1729 44.463 77.7237C44.8517 78.2746 45.0739 78.9356 45.6847 79.2661C45.9624 79.872 46.4622 80.2025 46.8509 80.6983C47.073 81.3042 47.5728 81.5796 47.906 82.0203C50.0718 84.7194 51.7378 86.6474 52.6818 87.694C50.6827 87.8041 48.739 87.694 46.7954 87.6389C44.5741 87.6389 42.3528 87.6389 40.1314 87.6389C37.9657 87.4185 35.7999 87.8041 33.6341 87.6389C31.5239 87.4736 29.4136 87.3635 27.3589 87.6389C25.6374 87.4736 23.9714 87.4185 22.3054 87.5838C21.4169 87.1982 20.4728 87.5287 19.5843 87.5838C19.4177 87.5838 19.1956 87.6389 19.029 87.694C18.7513 87.694 18.4181 87.694 18.1405 87.694C17.6962 87.694 17.1964 87.5838 16.7521 87.5838C16.2523 87.5287 15.7526 87.4736 15.3083 87.4736H14.8085L14.6974 87.5838H14.5308C14.6419 87.5287 14.6974 87.4736 14.6419 87.4736L14.753 87.5287Z" fill="currentColor"/>
<path d="M89.8326 52.385C89.8326 49.6859 89.8881 47.0419 89.8326 44.3978C89.9992 41.7538 89.9436 39.1648 89.8326 36.631C89.8326 35.9149 89.8326 35.1437 89.8326 34.4276V31.3429C88.9996 31.3429 88.1666 31.3429 87.3336 31.3429C86.8338 31.3429 86.2785 31.3429 85.7787 31.3429C83.2797 31.398 80.8362 31.2878 78.4483 31.3429C76.5602 31.453 74.6721 31.5632 72.8395 31.5081C72.5619 31.1776 72.2842 30.9022 71.951 30.5717L71.4512 30.131L71.2291 29.9107L71.118 29.8005H71.0625C71.0625 29.8005 70.6738 29.4149 70.5071 29.2497C70.174 28.9192 69.8408 28.5336 69.6186 28.0929C69.0078 27.3768 68.1748 26.826 67.7305 26.0548C67.0086 25.504 66.3422 24.898 65.8979 24.1269C65.2315 23.576 64.8428 22.7498 64.1764 22.254C63.51 21.7032 63.0658 21.0421 62.5104 20.4913C62.0106 19.8854 61.6774 19.1693 60.9555 18.8388C60.5668 18.2329 59.9559 17.7922 59.5117 17.2964C59.1785 16.6354 58.5676 16.3049 58.1233 15.8642C55.902 13.6058 54.1805 11.788 52.9588 10.5762C52.459 10.0804 52.0703 9.69481 51.7371 9.41939L51.8481 9.30922L52.0703 9.14397C52.0703 9.14397 52.1813 9.0338 52.2369 8.97871C52.2369 8.92363 52.3479 8.81346 52.3479 8.75838C52.459 8.59313 52.5701 8.48296 52.6811 8.37279C52.7922 8.20754 52.8477 8.09737 52.9033 7.93212C53.0699 7.82195 53.1809 7.6567 53.2365 7.49144C53.2365 7.32619 53.292 7.16094 53.292 6.99569C53.4031 6.66518 53.403 6.33468 53.4586 6.05926C53.4586 6.00417 53.4586 5.894 53.4586 5.83892C53.4586 5.78383 53.4586 5.67367 53.4586 5.61858C53.4586 5.45333 53.4586 5.28808 53.4586 5.17791C53.403 5.01266 53.292 4.90249 53.292 4.73724C53.292 4.57198 53.292 4.46182 53.3475 4.29656C53.3475 4.24148 53.3475 4.13131 53.292 4.07623L53.1809 3.85589C53.1809 3.85589 53.0699 3.58047 53.1254 3.41522C52.8477 3.19488 52.7367 2.97454 52.7922 2.69912C52.5701 2.53387 52.6811 2.14828 52.4035 2.03811C52.2924 1.98303 52.1813 1.87286 52.1258 1.76269C52.0703 1.65252 52.0147 1.54236 51.9037 1.48727C51.8481 1.3771 51.7926 1.26694 51.7371 1.15677C51.6815 1.0466 51.5705 0.991515 51.4039 1.0466C51.4039 0.93643 51.2928 0.881346 51.1817 0.826262C51.0707 0.826262 50.9596 0.771178 50.9041 0.716094C50.9041 0.440673 50.5709 0.495757 50.4043 0.440673C49.4047 0 48.6272 0 48.183 0C47.9608 0 47.7387 0.0550841 47.6276 0.110168C47.5166 0.110168 47.4611 0.220337 47.4611 0.220337C47.4611 0.330505 47.6832 0.385589 48.0164 0.495757C48.3496 0.605926 48.8494 0.771178 49.3492 1.10168C49.4602 1.15677 49.5713 1.26694 49.6824 1.32202C49.7934 1.43219 49.7934 1.70761 50.0711 1.59744C50.2377 1.54236 50.2932 1.59744 50.2932 1.70761C50.2932 1.81778 50.2932 1.92795 50.4043 1.92795C50.6264 1.81778 50.6819 1.92795 50.6819 2.03811C50.6819 2.14828 50.6819 2.31353 50.7375 2.36862C50.8485 2.36862 50.9041 2.47879 50.9596 2.53387C50.9596 2.64404 51.0151 2.69912 51.0707 2.80929C50.9596 3.08471 51.2928 3.1398 51.3483 3.30505C51.3483 3.41522 51.5149 3.4703 51.5705 3.52539C51.626 3.63555 51.6815 3.69064 51.5705 3.85589C51.5705 3.96606 51.5705 4.07623 51.5705 4.13131V4.46182C51.5705 4.46182 51.6815 4.68215 51.626 4.79232C51.626 4.90249 51.5149 5.01266 51.626 5.12283C51.5705 5.23299 51.5149 5.34316 51.5705 5.45333V5.61858C51.5705 5.61858 51.5705 5.72875 51.5705 5.78383C51.626 5.894 51.5705 6.00417 51.5705 6.11434C51.5149 6.22451 51.4039 6.33468 51.4594 6.44484C51.4039 6.55501 51.4039 6.66518 51.4039 6.77535C51.4039 6.88552 51.3483 6.99569 51.1817 7.05077C51.1817 7.16094 51.0151 7.21602 50.9041 7.27111C50.793 7.32619 50.6819 7.38128 50.793 7.60161C50.7375 7.60161 50.6819 7.6567 50.6264 7.71178C50.6264 7.71178 50.5154 7.76686 50.5154 7.82195C50.5154 7.82195 50.4598 7.93212 50.4043 7.9872L50.2932 8.15245C50.2932 8.15245 50.1822 8.37279 50.0156 8.42787C49.9045 8.42787 49.7934 8.53804 49.6824 8.59313C49.5713 8.59313 49.4602 8.75838 49.4047 8.81346C49.2936 8.92363 49.1826 8.97871 49.016 8.92363C48.9049 8.97871 48.7938 9.0338 48.6272 8.97871C48.5162 8.97871 48.3496 8.97871 48.2385 9.08888C48.1274 9.19905 48.0164 9.25414 47.8498 9.25414C47.7387 9.25414 47.5721 9.25414 47.4611 9.19905C47.35 9.14397 47.1834 9.14397 47.0723 9.19905C46.9613 9.19905 46.7947 9.19905 46.6836 9.19905C46.517 9.25414 46.4059 9.19905 46.2949 9.19905C46.1838 9.14397 46.0727 9.0338 45.9617 9.0338C45.7951 8.81346 45.6285 8.59313 45.2953 8.70329C45.2397 8.59313 45.1287 8.48296 45.0176 8.42787L44.6844 8.26262C44.6844 8.26262 44.5178 8.26262 44.4623 8.26262C44.4067 8.26262 44.3512 8.20754 44.2957 8.15245C44.2957 8.15245 44.2402 8.04229 44.1846 7.9872C44.1846 7.93212 44.1846 7.87703 44.1846 7.76686C44.1846 7.6567 44.0736 7.54653 43.9625 7.49144C43.907 7.38128 43.7959 7.32619 43.7959 7.21602C43.7959 7.05077 43.7959 6.99569 43.6848 6.88552C43.5738 6.77535 43.5182 6.72027 43.5182 6.55501C43.5738 6.27959 43.6293 6.05926 43.3516 5.894C43.3516 5.83892 43.4072 5.78383 43.4627 5.72875C43.4627 5.67367 43.4627 5.61858 43.4627 5.5635C43.4627 5.45333 43.3516 5.34316 43.2406 5.23299C43.2406 5.12283 43.2406 5.01266 43.2406 4.90249C43.2406 4.79232 43.2406 4.68215 43.2406 4.57198C43.2406 4.5169 43.2406 4.46182 43.2406 4.40673C43.2406 4.40673 43.2406 4.29656 43.2406 4.24148C43.2406 4.13131 43.3516 4.07623 43.3516 3.96606C43.2406 3.80081 43.1295 3.69064 43.185 3.58047C43.185 3.4703 43.3516 3.41522 43.5738 3.41522C43.4627 3.1398 43.5182 2.91946 43.8514 2.91946C43.8514 2.80929 43.8514 2.69912 43.907 2.64404C43.907 2.53387 44.018 2.47879 44.1291 2.47879C44.2401 2.36862 44.4067 2.25845 44.4623 2.0932C44.4067 1.87286 44.4623 1.87286 44.6289 1.87286C44.7399 1.87286 44.851 1.87286 44.851 1.70761C44.851 1.48727 45.1287 1.54236 45.2397 1.43219C45.3508 1.32202 45.4619 1.21185 45.5729 1.21185C45.7951 1.3771 45.7395 0.93643 45.9061 1.0466C45.9617 1.0466 46.0172 1.0466 46.0727 0.991515C46.0727 0.991515 46.1838 0.991515 46.2393 0.881346C46.3504 0.881346 46.4615 0.771178 46.517 0.771178C46.6836 0.771178 46.7947 0.66101 46.9057 0.605926C47.0168 0.605926 47.1279 0.550842 47.1834 0.495757C47.35 0.440673 47.4055 0.385589 47.4055 0.330505C47.4055 0.275421 47.2944 0.220337 47.1279 0.165252C47.0168 0.165252 46.9057 0.165252 46.7947 0.110168C46.6836 0.110168 46.517 0.110168 46.3504 0.110168C46.2393 0.110168 46.1283 0.110168 45.9617 0.110168C45.9061 0.110168 45.7951 0.110168 45.7395 0.110168C45.684 0.110168 45.6285 0.110168 45.5174 0.220337C45.3508 0.220337 45.2397 0.385589 45.0731 0.330505C45.0176 0.385589 44.9065 0.330505 44.7955 0.330505C44.6844 0.330505 44.5733 0.330505 44.5733 0.495757C44.2957 0.440673 44.2957 0.716094 44.0735 0.771178C43.9625 0.771178 43.8514 0.771178 43.7404 0.771178C43.6293 0.771178 43.5738 0.881346 43.5738 1.10168C43.4072 1.10168 43.2961 1.10168 43.2406 1.26694C43.2406 1.3771 43.185 1.48727 43.074 1.59744C42.9629 1.65252 42.7963 1.70761 42.6852 1.76269C42.5742 1.81778 42.4631 1.92794 42.5742 2.14828C42.4076 2.31353 42.2965 2.58895 42.1854 2.80929C42.1854 2.97454 42.1299 3.08471 42.0188 3.19488C41.9078 3.30505 41.7967 3.41522 41.8522 3.58047C41.8522 3.69064 41.7412 3.85589 41.6856 3.96606C41.6856 4.02114 41.6301 4.07623 41.6301 4.18639C41.6301 4.24148 41.6301 4.35165 41.6301 4.40673C41.6301 4.57198 41.6301 4.68215 41.6301 4.8474C41.6301 5.01266 41.5746 5.12283 41.519 5.28808C41.519 5.45333 41.5746 5.5635 41.6301 5.72875C41.6301 5.78383 41.6301 5.894 41.6301 5.94909C41.6301 6.00417 41.6301 6.11434 41.519 6.16942C41.6301 6.33468 41.6301 6.44485 41.6301 6.6101C41.6301 6.77535 41.6301 6.9406 41.7412 7.10585C41.5746 7.32619 41.6301 7.49144 41.7412 7.6567C41.8522 7.82195 42.0188 7.93212 42.1299 8.04228C42.2965 8.15245 42.4076 8.26262 42.4631 8.42787C42.4631 8.59313 42.5742 8.75838 42.6852 8.92363C42.6852 9.0338 42.6852 9.08888 42.7963 9.19905C42.7963 9.25414 42.9074 9.3643 42.9629 9.41939H43.0184C43.0184 9.41939 42.9074 9.58464 42.8518 9.63973C42.7408 9.74989 42.6297 9.80498 42.5186 9.91515C42.2965 10.0804 42.0188 10.3007 41.9078 10.6312C41.3524 10.9617 41.0748 11.6228 40.5195 12.0634C39.9641 12.5041 39.2977 12.8346 39.0201 13.6058C38.2981 13.9363 38.0205 14.7075 37.4651 15.2583C36.9098 15.8091 36.0213 16.1397 35.7992 17.021C35.1883 17.5718 34.6885 18.2329 34.0776 18.8939C33.6334 19.665 32.7449 20.0506 32.2451 20.8218C31.6897 21.5379 30.8567 22.0337 30.357 22.8599C29.8016 23.6311 29.0797 24.2921 28.3578 25.0082C27.6914 25.7243 27.2471 26.6607 26.3031 27.2116C25.7477 28.0929 24.8037 28.6438 24.1928 29.47C24.0817 29.5251 23.9707 29.5802 23.8596 29.6904C23.7486 29.8005 23.693 29.8005 23.4709 30.0209C23.0822 30.4064 22.749 30.792 22.4158 31.1776C22.1936 31.453 21.9715 31.7285 21.7494 31.9488C18.0287 31.9488 14.9188 32.059 12.4754 32.1141C10.3652 32.1141 8.81023 32.2242 7.69958 32.2793C6.64445 32.2793 6.03359 32.3895 6.03359 32.4446C6.03359 32.4446 6.47786 32.5547 7.36638 32.5547C8.2549 32.5547 9.53216 32.6649 11.2537 32.6649C13.6971 32.72 16.9735 32.7751 20.9719 32.8302C20.8608 32.9954 20.6942 33.1607 20.5832 33.3259C21.2496 33.2708 21.7494 33.2157 22.2492 33.2157C22.749 33.2157 23.1932 33.2157 23.6375 33.2157C24.1373 33.2157 24.5815 33.2157 25.0813 33.2708H25.5256C25.5256 33.2708 25.8033 33.2708 25.9699 33.2708C27.0805 33.4361 28.2467 33.381 29.3574 33.2708C30.5236 33.1607 31.6897 33.4361 32.8559 33.2708C34.0221 33.1607 35.1883 33.381 36.41 33.2708C37.5762 33.2708 38.7979 33.2708 40.0197 33.2708C41.2414 33.2708 42.4631 33.381 43.6848 33.2708C44.9065 33.1607 46.1283 32.9403 47.35 33.2708C48.5717 33.1607 49.7934 33.2708 50.9596 33.2708C52.1258 33.2157 53.3475 33.2708 54.5137 33.2708C55.6799 32.9403 56.8461 33.2708 58.0123 33.2708C59.1785 33.2708 60.2891 33.381 61.3998 33.2708C62.5104 33.2708 63.6211 33.3259 64.7317 33.2708C65.8424 33.4361 66.8975 33.381 67.9526 33.2708C68.508 33.2708 69.0078 33.2708 69.5076 33.2708H70.7848C71.2291 33.2708 71.6733 33.2708 72.1731 33.2708C72.784 33.2708 73.4504 33.2708 74.1168 33.2708C75.5051 33.2708 76.949 33.3259 78.3373 33.2708C80.7252 33.4361 83.1686 33.2708 85.6676 33.2708C86.1674 33.2708 86.7227 33.2708 87.2225 33.2157H87.7778C87.7778 33.2157 87.9445 33.2157 88 33.2157C88 33.3259 88 33.4361 88 33.4912C88 33.8767 88 34.2073 88 34.5928C88 35.3089 88 36.0801 88 36.7962C88 39.3301 88.1666 41.919 88 44.5631C88.111 47.2071 87.5557 49.8512 88 52.5503C87.8889 55.2494 87.9445 57.9485 88 60.7027C88.1666 63.4569 88 66.2662 88 69.0755C87.8889 71.8848 88.2776 74.7492 88 77.6136C88.0555 80.4779 87.7778 83.3974 88 86.3169C88.111 87.749 88.111 89.2363 88.111 90.7236C88.111 91.4397 88.111 92.2109 88.111 92.927V94.1939H87.8889C87.5002 94.1939 87.167 94.1939 86.7783 94.1939C86.0563 94.1939 85.2789 94.1939 84.5569 94.1939C83.0576 94.1939 81.6137 94.249 80.1143 94.1939C77.1711 94.3591 74.2279 94.1939 71.3401 94.1939C68.4524 94.0286 65.5647 93.9185 62.7326 94.1939C59.9004 94.0286 57.0682 94.1388 54.2916 94.1939C51.5149 94.4693 48.7383 94.3041 46.0727 94.1939C43.3516 94.1939 40.686 94.1939 38.0205 94.1939C35.3549 93.9735 32.7449 94.3591 30.1904 94.1939C27.6358 94.0286 25.0813 93.9185 22.5824 94.1939C20.0834 93.9735 17.6399 93.9735 15.252 94.1939C12.8641 94.1388 10.4762 94.1939 8.19937 94.1939H7.25531C7.25531 94.1939 7.03318 94.249 6.86659 94.249V93.7532C6.86659 93.3676 6.86659 92.982 6.86659 92.5414C6.86659 91.7702 6.86659 90.9439 6.86659 90.1727C6.47786 87.9694 6.42232 85.8211 6.86659 83.7279C6.64445 81.6347 6.53339 79.5966 6.86659 77.5585C6.86659 75.5754 6.58892 73.5924 6.86659 71.7196C6.86659 69.8467 6.86659 68.0289 6.86659 66.2111C6.47786 64.4484 7.14425 62.7408 6.86659 61.0883C6.69999 59.4358 6.86659 57.8384 6.86659 56.296C6.86659 54.7536 6.75552 53.3214 6.86659 51.8893C7.08872 50.5122 6.64445 49.1351 6.86659 47.9232C6.86659 46.6563 6.86659 45.4444 6.86659 44.3427C6.86659 43.2411 6.86659 42.1945 6.86659 41.2029C6.86659 38.2835 6.75552 36.025 6.69999 34.4827C6.64445 32.9403 6.58892 32.1691 6.53339 32.1691C6.47786 32.1691 6.42232 32.9954 6.36679 34.4827C6.31126 36.025 6.25572 38.2835 6.20019 41.2029C6.20019 42.1945 6.20019 43.2411 6.20019 44.3427C6.14466 45.4444 6.08913 46.6563 6.20019 47.9232C6.20019 49.1901 6.31126 50.5122 6.20019 51.8893C6.25572 53.2664 5.92253 54.7536 6.20019 56.296C6.03359 57.8384 6.20019 59.4358 6.20019 61.0883C6.08913 62.7408 5.81146 64.4484 6.20019 66.2111C5.867 67.9738 6.20019 69.7916 6.20019 71.7196C6.20019 73.5924 5.75593 75.5754 6.20019 77.5585C6.14466 79.5415 6.20019 81.5796 6.20019 83.7279C6.42232 85.8211 5.97806 87.9694 6.20019 90.1727C6.20019 90.9439 6.20019 91.7151 6.20019 92.5414V93.7532C6.20019 94.0837 6.20019 94.4142 6.20019 94.7447C6.20019 95.0752 6.20019 95.4608 6.20019 95.7913C6.81105 95.7913 7.42191 95.7913 8.03277 95.7913H9.14343C11.4758 95.6261 13.8082 95.7362 16.1961 95.7913C18.584 95.7913 21.0274 95.5159 23.5264 95.7913C26.0254 95.6261 28.5244 95.9015 31.1344 95.7913C33.6889 96.232 36.299 95.8464 38.9645 95.7913C41.6301 95.5159 44.2957 95.7913 47.0168 95.7913C49.7379 95.9566 52.459 95.9015 55.2356 95.7913C58.0123 95.6812 60.8444 95.9566 63.6766 95.7913C66.5088 95.6812 69.3965 95.9015 72.2842 95.7913C75.1719 95.7913 78.1151 95.7913 81.0584 95.7913C82.5578 95.7913 84.0016 95.7913 85.501 95.7913C86.2229 95.7913 87.0004 95.7913 87.7223 95.7913C88.7774 95.7913 88.8338 95.7913 89.8889 95.7913C89.8889 95.0752 89.8889 94.4142 89.8889 93.6981C89.8889 93.3125 89.8889 92.982 89.8889 92.5964C89.8889 91.8803 89.8334 91.1092 89.8334 90.3931C89.8334 88.9058 89.8334 87.4736 90 85.9864C89.8889 83.0669 90 80.1474 90 77.2831C89.9445 74.4187 90 71.5543 90 68.745C89.6668 65.9357 90 63.1264 90 60.3722C90 57.618 89.9436 55.0291 89.8326 52.385ZM24.6926 31.3429C24.6926 31.3429 24.9147 31.2327 24.9147 31.1776C24.9147 31.1776 24.9147 31.1776 24.9147 31.0675C24.9147 31.0675 24.9147 30.9573 24.9147 30.9022C24.9147 30.9022 25.0258 30.792 25.1369 30.6819C25.2479 30.5717 25.3035 30.5166 25.4145 30.4064C26.2475 29.7454 27.025 29.0293 27.5248 28.0929C28.3578 27.487 29.0797 26.7709 29.524 25.8345C30.2459 25.1735 30.8567 24.4023 31.4676 23.6862C31.9674 22.8599 32.7449 22.3091 33.3557 21.593C33.6889 20.6566 34.2442 19.9955 35.1328 19.61C35.577 18.8388 36.0768 18.1227 36.7988 17.7371C37.3541 17.0761 37.6873 16.36 38.4092 15.9193C38.9645 15.3685 39.4643 14.8176 39.9086 14.2117C40.1307 13.4405 41.0748 13.3304 41.2969 12.6143C41.6301 12.0083 42.1854 11.6228 42.5742 11.127C42.7408 10.8516 42.9629 10.6312 43.1295 10.4109C43.2406 10.3007 43.3516 10.1906 43.4072 10.0804L43.5738 9.91515H43.6293C43.6293 9.91515 43.8514 10.1906 44.0735 10.1906C44.2401 10.1906 44.4067 10.3558 44.5733 10.466C44.7399 10.5762 44.9065 10.6863 45.0731 10.6863C45.2397 10.7414 45.4063 10.8516 45.5729 10.9067C45.7395 10.9067 45.9617 11.0168 46.1283 11.0168C46.2949 11.0168 46.517 11.127 46.6836 11.127C46.8502 11.127 47.0723 11.127 47.2389 11.127C47.4055 11.0719 47.6276 10.9617 47.7942 10.9617C47.9608 10.9617 48.183 10.9617 48.4051 11.0168C48.5717 10.9617 48.7383 10.8516 48.9604 10.8516C49.127 10.8516 49.3492 10.7414 49.5158 10.6863C49.849 10.466 50.2377 10.4109 50.5154 10.1906C50.5709 9.97023 50.7375 9.86006 50.9041 9.80498C51.0151 9.80498 51.1262 9.69481 51.2373 9.63973C52.0147 10.6312 53.5696 12.5592 55.902 15.2032C56.2908 15.6439 56.6795 16.0846 57.1237 16.5803C57.568 17.0761 57.7346 17.7371 58.401 18.0676C59.0674 18.3981 59.234 19.1693 59.7893 19.665C60.6223 19.8854 60.7334 20.8218 61.2887 21.3726C61.8996 21.8684 62.3438 22.5294 62.8992 23.1904C63.2879 23.9616 64.0098 24.4023 64.5651 25.0633C65.176 25.6692 65.9535 26.165 66.3422 27.0463C66.8975 27.7624 67.5639 28.4234 68.2303 29.1395C68.619 29.4149 68.8967 29.8556 69.1744 30.2412C69.341 30.4615 69.452 30.6268 69.6186 30.792H69.6742V30.9022H69.8408C69.8408 30.9022 69.8408 31.0675 69.8408 31.1225C69.8408 31.1225 69.9518 31.2327 70.0074 31.2878C70.0074 31.2878 69.8963 31.2878 69.7852 31.2878C69.7852 31.2878 69.7852 31.2878 69.7297 31.2878H69.341C68.8412 31.2327 68.2858 31.1776 67.786 31.2327C66.7309 31.2327 65.6758 31.398 64.5651 31.2327C63.4545 31.3429 62.3438 30.792 61.2332 31.2327C60.1225 31.1225 58.9563 31.1776 57.8457 31.2327C56.6795 31.398 55.5688 31.2327 54.3471 31.2327C53.1809 31.1225 52.0147 31.5081 50.793 31.2327C49.6268 31.2878 48.4051 31.0124 47.1834 31.2327C45.9617 31.398 44.7399 31.3429 43.5182 31.2327C42.2965 31.1225 41.0748 31.2327 39.8531 31.2327C38.6313 31.398 37.4096 31.2327 36.2434 31.2327C35.0772 31.0675 33.8555 30.9573 32.6893 31.2327C31.5231 31.0675 30.357 31.1776 29.1908 31.2327C28.0246 31.5081 26.9139 31.3429 25.8033 31.2327H24.8592C24.8592 31.2327 24.6371 31.2327 24.526 31.2327L24.6926 31.3429Z" fill="currentColor"/>
<path d="M44.9629 65.9906C44.9629 65.9906 44.9629 66.3211 45.1295 66.4864C45.1295 66.4864 45.1295 66.8169 45.1295 66.9821C45.1295 67.0372 45.1295 67.1474 45.1295 67.2025C45.1295 67.2025 45.1295 67.2576 45.1295 67.3127C45.2406 67.4779 45.2406 67.6432 45.2406 67.8084C45.2406 67.9737 45.2406 68.194 45.3516 68.3592C45.185 68.5796 45.2406 68.7999 45.3516 68.9652C45.4627 69.1304 45.6293 69.2406 45.7404 69.4058C45.9625 69.516 46.018 69.6813 46.1291 69.8465C46.1846 70.0118 46.2401 70.2321 46.3512 70.3974C46.3512 70.5075 46.4067 70.6177 46.4623 70.6728C46.4623 70.7829 46.5733 70.838 46.6289 70.8931C46.6844 70.9482 46.7955 71.0584 46.851 71.1135C46.9065 71.1685 47.0176 71.2236 47.1287 71.2787C47.2953 71.3889 47.4619 71.5541 47.5729 71.6643C47.7395 71.8295 47.8506 71.9948 48.0727 71.9948C48.2949 71.9948 48.4615 72.1601 48.6281 72.2702C48.7947 72.3804 48.9613 72.5456 49.1834 72.5456C49.4055 72.6007 49.5721 72.7109 49.7942 72.766C50.0164 72.766 50.183 72.8761 50.4051 72.8761C50.6272 72.8761 50.8494 72.9863 51.016 73.0414C51.2381 73.0414 51.4602 73.0414 51.6824 73.0414C51.9045 72.9863 52.1266 72.8761 52.2932 72.8211C52.5153 72.8211 52.6819 72.8211 52.9596 72.8761C53.1817 72.8211 53.3483 72.7109 53.5705 72.6558C53.7926 72.6558 53.9592 72.5456 54.1813 72.4906C54.5701 72.2702 54.9588 72.1601 55.292 71.9397C55.4031 71.7194 55.5141 71.6092 55.7362 71.499C55.9028 71.444 56.125 71.3338 56.236 71.1685C56.2916 71.1135 56.4026 71.0584 56.4582 70.9482L56.6803 70.7279C56.6803 70.7279 56.8469 70.5626 56.9024 70.5075C56.958 70.4524 57.0135 70.3423 57.069 70.2321C57.1801 70.0669 57.3467 69.9567 57.4022 69.7914C57.5133 69.6262 57.6244 69.4609 57.6244 69.2957C57.791 69.1855 57.902 69.0203 57.9576 68.7999C58.0131 68.6347 58.0131 68.4143 58.0131 68.2491C58.1797 67.9186 58.1242 67.533 58.2352 67.2025C58.2352 67.0923 58.2352 67.0372 58.2352 66.9271C58.2352 66.8169 58.2352 66.7618 58.2352 66.6516C58.2352 66.6516 58.2352 66.3211 58.2352 66.211C58.2352 66.1008 58.2352 65.9906 58.2352 65.8254V65.55C58.2352 65.55 58.1242 65.3847 58.1242 65.2745C58.1242 65.2745 58.1242 65.1644 58.1242 65.1093C58.1242 65.1093 58.1242 64.944 58.1242 64.8889V64.7237C58.1242 64.7237 58.1242 64.3381 58.0131 64.1728C58.0131 64.0076 57.8465 63.8423 57.791 63.6771C57.6799 63.5118 57.6244 63.3466 57.6244 63.1263C57.5133 62.961 57.5133 62.7407 57.4578 62.5754C57.4578 62.3551 57.2912 62.1898 57.0135 62.1347C57.0135 62.0246 56.958 61.9695 56.9024 61.8593C56.8469 61.8042 56.7914 61.6941 56.7358 61.639C56.6803 61.5839 56.5692 61.4737 56.5137 61.4186C56.4582 61.3636 56.3471 61.3085 56.2916 61.2534C56.0694 61.1983 55.9584 61.0331 55.7918 60.9229C55.6252 60.8127 55.5141 60.6475 55.3475 60.5373C55.292 60.4822 55.1809 60.4271 55.0699 60.372H54.9033L54.7367 60.2619C54.7367 60.2619 54.3479 60.1517 54.1813 59.9314C53.9592 59.9314 53.7926 59.7661 53.626 59.656C53.4039 59.5458 53.2373 59.4907 53.0151 59.5458C52.793 59.5458 52.5709 59.5458 52.3488 59.5458C52.1266 59.5458 51.9045 59.4907 51.7379 59.4356C51.5158 59.3805 51.2936 59.4356 51.0715 59.4356C50.8494 59.4356 50.6272 59.5458 50.4606 59.5458C50.2385 59.656 50.0719 59.711 49.8498 59.7661C49.6276 59.7661 49.4055 59.8212 49.2389 59.9314C48.7947 59.9314 48.3504 60.0415 48.1283 60.4822C47.9061 60.4822 47.7395 60.6475 47.5729 60.7576C47.4063 60.8678 47.2953 61.0331 47.1842 61.1983C47.1842 61.3085 47.1287 61.4186 47.0731 61.4737C47.0731 61.5839 46.9621 61.639 46.9065 61.6941C46.851 61.7491 46.7399 61.8042 46.6844 61.8593L46.4623 62.0246C46.4623 62.0246 46.2401 62.3 46.1291 62.5203C46.018 62.6856 45.9625 62.8508 45.8514 63.0161C45.6848 63.1263 45.6293 63.3466 45.5738 63.5118C45.5738 63.7322 45.5738 63.8974 45.4072 64.0627C45.185 64.3381 44.9629 64.7237 45.185 65.1093C45.1295 65.1644 45.074 65.2745 45.0184 65.3296C45.0184 65.4398 45.0184 65.4949 44.9629 65.605V65.9906ZM52.2377 61.5288C52.2377 61.5288 52.5709 61.5288 52.6819 61.7491C52.8485 61.7491 53.0151 61.7492 53.1262 61.8042C53.2928 61.8042 53.4039 61.9144 53.5149 61.9695C53.7926 62.0246 54.0147 62.2449 54.2924 62.3551C54.5145 62.3 54.6256 62.3551 54.7367 62.5203C54.8477 62.6305 54.9033 62.7957 55.0143 62.8508C55.0699 62.8508 55.1254 62.961 55.1809 63.0161L55.292 63.1813C55.292 63.1813 55.4031 63.2915 55.4031 63.3466C55.4031 63.3466 55.5141 63.4568 55.5697 63.5118C55.6807 63.622 55.7362 63.7322 55.7918 63.8423C55.8473 63.9525 55.9584 64.0627 56.0139 64.1728C56.0139 64.3381 56.0139 64.4483 56.0694 64.5584C56.0694 64.6686 56.236 64.7788 56.3471 64.8889C56.3471 65.1644 56.5692 65.3847 56.5137 65.6601C56.5137 65.7152 56.5137 65.7703 56.5137 65.8254C56.5137 65.8805 56.5137 65.9355 56.5137 66.0457C56.5137 66.0457 56.5137 66.2661 56.5137 66.3762C56.5137 66.4864 56.5137 66.5415 56.5137 66.6516V66.872C56.5137 66.872 56.5137 66.9821 56.5137 67.0923C56.5137 67.0923 56.5137 67.1474 56.5137 67.2025C56.5137 67.2025 56.5137 67.3126 56.5137 67.3677C56.5137 67.3677 56.5137 67.4779 56.5137 67.533C56.4582 67.6432 56.3471 67.7533 56.3471 67.9186C56.2916 68.0287 56.2916 68.194 56.236 68.3042C56.236 68.4143 56.125 68.5796 56.0139 68.6347C56.0139 68.7999 55.7918 68.855 55.6807 68.9101C55.5696 69.0203 55.4586 69.0753 55.5141 69.2957C55.4586 69.2957 55.4031 69.4058 55.3475 69.4058C55.292 69.4058 55.2365 69.516 55.1809 69.5711C55.1809 69.5711 55.0699 69.6813 55.0699 69.7364C55.0699 69.7914 54.9588 69.8465 54.9588 69.9016C54.9033 70.0669 54.7922 70.177 54.6256 70.2321C54.5145 70.2872 54.3479 70.3423 54.2369 70.4524C54.1813 70.4524 54.1258 70.5075 54.0703 70.5626V70.6728H53.9037C53.9037 70.6728 53.6815 70.9482 53.4594 70.8931C53.3483 70.9482 53.1817 71.0033 53.0151 71.0033C52.8485 71.0033 52.7375 71.0033 52.5709 71.1685C52.4598 71.2787 52.2932 71.3338 52.1266 71.3338C51.96 71.3338 51.7934 71.3338 51.6824 71.2787C51.5158 71.2236 51.4047 71.2236 51.2381 71.2787C51.0715 71.2787 50.9049 71.2787 50.7938 71.2787C50.6272 71.3338 50.4606 71.2787 50.3496 71.2236C50.183 71.1685 50.0719 71.0584 49.9608 71.0584C49.7387 70.7829 49.5721 70.5626 49.1834 70.6728C49.0723 70.5626 49.0168 70.4524 48.8502 70.3423L48.4615 70.1219C48.4615 70.1219 48.2949 70.1219 48.2393 70.0669C48.1838 70.0669 48.1283 69.9567 48.0727 69.9016C48.0727 69.8465 48.0172 69.7914 47.9617 69.6813C47.9617 69.6262 47.9617 69.516 47.9061 69.4609C47.8506 69.3508 47.7395 69.2406 47.684 69.1304C47.6285 69.0203 47.5174 68.9101 47.4619 68.7999C47.4619 68.6347 47.4063 68.5245 47.2953 68.4143C47.1842 68.3042 47.0731 68.194 47.1287 68.0287C47.1842 67.6982 47.2397 67.4779 46.9065 67.2576C46.9065 67.2025 46.9621 67.0923 47.0176 67.0372C47.0176 66.9821 47.0176 66.9271 47.0176 66.872C47.0176 66.7618 46.9065 66.6516 46.7955 66.4864C46.7955 66.4864 46.7955 66.211 46.7955 66.1008C46.7955 66.0457 46.7955 65.9906 46.7955 65.9355C46.7955 65.9355 46.7955 65.9355 46.851 65.8805C46.7955 65.7152 46.851 65.605 46.851 65.4949C46.9065 65.3847 47.0176 65.2745 47.0176 65.1093C47.2953 65.0542 47.3508 64.944 47.3508 64.7788C47.3508 64.6686 47.3508 64.5034 47.3508 64.3381C47.2953 64.1729 47.3508 64.0627 47.4619 63.9525C47.5729 63.8423 47.684 63.7873 47.7951 63.6771C47.8506 63.6771 47.9061 63.622 47.9617 63.5669C48.0172 63.5669 48.0727 63.4568 48.1283 63.4017C48.1283 63.4017 48.2393 63.2915 48.2393 63.2364C48.2393 63.1813 48.2949 63.1263 48.3504 63.0712C48.4059 62.9059 48.517 62.8508 48.6836 62.7957C48.8502 62.7957 48.9613 62.6856 49.0168 62.5754C49.1834 62.3 49.5721 62.3551 49.7942 62.1898C49.9608 62.1898 50.0719 62.0797 50.2385 62.0797C50.4051 62.0797 50.5162 62.0246 50.6828 61.9695C50.8494 61.9695 50.9604 61.9695 51.127 61.9695C51.2936 61.9695 51.4047 61.9695 51.5713 61.9144C51.7379 61.9144 51.9045 61.8042 52.0711 61.7491L52.2377 61.5288Z" fill="currentColor"/>
</g>
</svg>
