<svg width="40" height="40" viewBox="0 0 40 40" fill="none" xmlns="http://www.w3.org/2000/svg">
<g clip-path="url(#clip0_1_25163)">
<path d="M39.843 14.6553L37.5011 10.599C36.5327 8.92148 34.3798 8.3446 32.7061 9.31093L16.3935 18.6477V12.1998C16.3935 11.7871 16.6144 11.4006 16.9699 11.191L24.7273 6.61913C26.1336 5.79023 26.7133 4.08632 26.1058 2.56749C25.5395 1.15203 24.0202 0.309839 22.4934 0.564839C21.0118 0.812339 19.6554 1.03117 18.3436 1.24289C12.6698 2.15835 8.92133 2.76328 6.40945 3.87023C3.59641 5.11007 2.34195 7.04007 2.34195 10.1282V27.8941C0.978984 28.3776 0 29.6791 0 31.2057V33.5477C0 34.1944 0.524297 34.7186 1.17094 34.7186H17.5645C18.2113 34.7186 18.7355 34.1943 18.7355 33.5477V31.2057C18.7355 30.2318 18.3369 29.3493 17.6944 28.7124L28.241 22.6634L28.8448 23.7093C29.8132 25.3868 31.9661 25.9637 33.6436 24.9952L37.7 22.6532C39.3774 21.6847 39.9543 19.5319 38.9858 17.8544L38.3987 16.8375L39.4116 16.2566C39.9734 15.9343 40.167 15.2163 39.843 14.6553ZM4.68391 10.1282C4.68391 5.97734 7.36375 5.38687 18.7168 3.55476C20.0317 3.34257 21.3915 3.12312 22.8793 2.8746C23.3287 2.7996 23.7711 3.03617 23.9316 3.4371C24.1064 3.87437 23.9411 4.36406 23.5384 4.60132L15.781 9.17328C14.7144 9.80195 14.0517 10.9616 14.0517 12.1996V13.6411H4.68391V10.1282ZM4.68391 15.9831H14.0516V27.6928H4.68391V15.9831ZM16.3936 32.3766H2.34195V31.2057C2.34195 30.56 2.86727 30.0348 3.51289 30.0348C4.17383 30.0348 14.6752 30.0348 15.2226 30.0348C15.8683 30.0348 16.3935 30.5601 16.3935 31.2057L16.3936 32.3766ZM36.5289 20.625L32.4725 22.9669C31.9133 23.2898 31.1959 23.0975 30.873 22.5383L30.2875 21.5241L36.372 18.0112L36.9575 19.0254C37.2804 19.5845 37.0881 20.3021 36.5289 20.625ZM16.3936 26.7587V21.346L33.8733 11.3413C34.4324 11.0183 35.15 11.2107 35.4729 11.7699L37.2277 14.8093L16.3936 26.7587Z" fill="currentColor"/>
<path d="M39.3692 32.5018L36.3443 26.0997C36.1508 25.6901 35.7384 25.429 35.2855 25.429C34.8326 25.429 34.4203 25.6901 34.2267 26.0997L31.2016 32.5018C30.8089 33.1996 30.6016 33.9918 30.6016 34.7967C30.6016 37.3793 32.7027 39.4806 35.2855 39.4806C37.8681 39.4806 39.9694 37.3794 39.9694 34.7967C39.9693 33.9918 39.762 33.1996 39.3692 32.5018ZM35.2855 37.1386C33.9942 37.1386 32.9436 36.088 32.9436 34.7967C32.9436 34.3852 33.0514 33.9812 33.2552 33.6283C33.2713 33.6004 33.2862 33.5719 33.3001 33.5428L35.2855 29.3409L37.271 33.5429C37.2848 33.572 37.2998 33.6004 37.3159 33.6283C37.5197 33.9813 37.6275 34.3854 37.6275 34.7968C37.6275 36.0881 36.5769 37.1386 35.2855 37.1386Z" fill="currentColor"/>
</g>
<defs>
<clipPath id="clip0_1_25163">
<rect width="40" height="40" fill="currentColor"/>
</clipPath>
</defs>
</svg>
