<svg width="64" height="64" viewBox="0 0 64 64" fill="none" xmlns="http://www.w3.org/2000/svg">
<path d="M62.3996 60.7999H57.5997V35.2H60.7996C62.0935 35.2 63.2604 34.4203 63.7564 33.2245C64.2513 32.0288 63.9783 30.6528 63.063 29.7366L34.2632 0.936739C33.6382 0.312742 32.8191 0.000244141 31.9998 0.000244141C31.1806 0.000244141 30.3615 0.312742 29.7375 0.937864L20.7999 9.87431V6.40021C20.7999 4.63272 19.3674 3.20023 17.5999 3.20023H14.3999C12.6324 3.20023 11.1999 4.63272 11.1999 6.40021V19.4743L0.93762 29.7366C0.0223749 30.6518 -0.251749 32.0278 0.244249 33.2245C0.739121 34.4203 1.90611 35.2 3.19998 35.2H6.39996V60.7999H1.59999C0.715746 60.7999 0 61.5156 0 62.3999C0 63.2841 0.715746 63.9999 1.59999 63.9999H62.3996C63.2839 63.9999 63.9996 63.2841 63.9996 62.3999C63.9996 61.5156 63.2839 60.7999 62.3996 60.7999ZM14.3999 6.40021H17.5999V13.0743L14.3999 16.2743V6.40021ZM36.7998 60.7999H27.1998V38.4H36.7998V60.7999ZM54.3997 60.7999H39.9998V38.4C39.9998 36.6325 38.5673 35.2 36.7998 35.2H27.1998C25.4324 35.2 23.9999 36.6325 23.9999 38.4V60.7999H9.59995V32.0001H3.19998L31.9998 3.20023L60.7996 32.0001H54.3997V60.7999Z" fill="#030027"/>
</svg>
