<svg width="48" height="48" viewBox="0 0 48 48" fill="none" xmlns="http://www.w3.org/2000/svg">
<g clip-path="url(#clip0_1_28150)">
<path d="M15.8703 21.4125C15.4859 21.0282 14.8672 21.0282 14.4828 21.4125L11.7453 24.15C11.3609 24.5344 11.3609 25.1532 11.7453 25.5375C12.1297 25.9219 12.7484 25.9219 13.1328 25.5375L15.8703 22.8C16.2547 22.4157 16.2547 21.7969 15.8703 21.4125Z" fill="#FF6600"/>
<path d="M17.4008 24.3281L14.6633 27.0656C14.2789 27.45 14.2789 28.0687 14.6633 28.4531C15.0477 28.8375 15.6664 28.8375 16.0508 28.4531L18.7883 25.7156C19.1727 25.3312 19.1727 24.7125 18.7883 24.3281C18.4039 23.9437 17.7852 23.9437 17.4008 24.3281Z" fill="#FF6600"/>
<path d="M45.1856 27.2625C44.8012 26.8781 44.1824 26.8781 43.798 27.2625L43.5355 27.525L38.3043 22.2937C38.773 21.8156 39.0637 21.1875 39.1105 20.5125C39.1762 19.6687 38.8762 18.8437 38.2762 18.2437L37.7043 17.6718C41.2387 13.4437 41.0231 7.11559 37.048 3.14997C33.0731 -0.825031 26.7543 -1.04066 22.5168 2.49372L21.9449 1.92184C21.3449 1.32184 20.5105 1.02184 19.6762 1.08747C18.8324 1.15309 18.0637 1.59372 17.5668 2.27809C15.1012 5.70934 14.3137 9.87184 15.1293 13.7531L7.07617 21.8062C5.83867 23.0437 5.65117 24.8718 6.3918 26.2875L3.64492 29.0343C2.1543 30.525 2.14492 32.9437 3.64492 34.4437L4.1418 34.9406C3.7293 35.6718 3.5043 36.5062 3.5043 37.3687C3.5043 38.7 4.01992 39.9562 4.9668 40.8937L11.7824 47.7093C12.1668 48.0937 12.7856 48.0937 13.1699 47.7093C13.5543 47.325 13.5543 46.7062 13.1699 46.3218L6.3543 39.5062C5.78242 38.9343 5.46367 38.175 5.46367 37.3687C5.46367 37.0406 5.5293 36.7312 5.62305 36.4312L5.74492 36.5531C7.23555 38.0437 9.66367 38.0437 11.1543 36.5531L13.9105 33.7968C15.3262 34.5375 17.1543 34.35 18.3918 33.1125L26.4449 25.0593C28.198 25.425 29.848 25.4531 31.4981 25.2187L38.6605 32.3812L38.398 32.6437C38.0137 33.0281 38.0137 33.6468 38.398 34.0312C38.7824 34.4156 39.4012 34.4156 39.7855 34.0312L45.1762 28.6406C45.5699 28.2656 45.5699 27.6468 45.1856 27.2625ZM35.6699 4.53747C38.8762 7.74372 39.0824 12.8156 36.3074 16.275L33.6543 13.6218C34.9668 11.6812 34.8074 8.95309 33.0355 7.17184C31.2543 5.39059 28.5262 5.24059 26.5856 6.54372L23.9324 3.89059C27.4949 1.04059 32.5387 1.40622 35.6699 4.53747ZM31.6387 12.9937C30.4293 14.2125 28.4324 14.2218 27.2043 12.9937C25.9855 11.775 25.9762 9.78747 27.2043 8.55934C28.4043 7.35934 30.4105 7.32184 31.6387 8.55934C32.8762 9.79684 32.848 11.7843 31.6387 12.9937ZM9.77618 35.1656C9.04493 35.8968 7.86367 35.8968 7.1418 35.1656L5.0418 33.0562C4.31992 32.3343 4.31055 31.1531 5.0418 30.4218L7.6668 27.7968L12.4105 32.5406L9.77618 35.1656ZM17.0043 31.7343C16.3012 32.4375 15.073 32.4375 14.3699 31.7343L8.47305 25.8375C7.7418 25.1062 7.7418 23.925 8.47305 23.2031L15.7668 15.9093C16.4793 17.8031 17.6043 19.575 19.1231 21.0937C20.6418 22.6125 22.4137 23.7375 24.3074 24.45L17.0043 31.7343ZM20.5012 19.6968C16.1137 15.3093 15.5512 8.46559 19.1605 3.43122C19.3293 3.20622 19.5637 3.06559 19.8449 3.04684H19.9199C20.0887 3.04684 20.3418 3.09372 20.5668 3.30934L25.1887 7.94059C25.1418 8.01559 25.0949 8.09059 25.048 8.16559C25.6856 7.09684 22.6012 11.175 25.8168 14.3906C27.5512 16.125 30.1668 16.3125 32.1074 15.1125C32.0793 15.1312 32.0605 15.1406 32.0418 15.1593C32.1168 15.1218 32.1918 15.075 32.2668 15.0187L36.898 19.6406C37.1605 19.9031 37.1699 20.2031 37.1605 20.3625C37.1324 20.6343 37.0012 20.8781 36.7762 21.0468C31.7418 24.6562 24.8981 24.0937 20.5012 19.6968ZM40.0574 31.0031L33.7668 24.7125C34.7699 24.4031 35.7355 23.9718 36.673 23.4281L42.148 28.9125L40.0574 31.0031Z" fill="#FF6600"/>
</g>
<defs>
<clipPath id="clip0_1_28150">
<rect width="48" height="48" fill="white"/>
</clipPath>
</defs>
</svg>
