<svg width="64" height="64" viewBox="0 0 64 64" fill="none" xmlns="http://www.w3.org/2000/svg">
<g clip-path="url(#clip0_1_27362)">
<path d="M45.4225 36.46L51.3784 30.5041C54.8106 31.5598 58.5744 30.6448 61.1423 28.077C63.8846 25.3348 64.742 21.2294 63.327 17.6178C63.1906 17.2704 62.8885 17.0149 62.5234 16.9386C62.1578 16.8624 61.7791 16.9753 61.515 17.2391L56.1854 22.5688L52.8586 19.2419L58.188 13.9124C58.4521 13.6484 58.565 13.2693 58.4885 12.904C58.4124 12.5386 58.1569 12.2364 57.8094 12.1004C54.1982 10.6851 50.0928 11.5426 47.3504 14.2848C44.7825 16.8526 43.8672 20.6155 44.9229 24.0488L38.9671 30.0046L27.6987 18.7363L28.4809 17.9541C28.6924 17.7425 28.8092 17.4545 28.805 17.1555C28.8043 17.1106 28.7553 12.6454 30.2388 9.87225C31.7773 6.99575 36.3281 2.42813 36.3737 2.38238C36.687 2.06925 36.7831 1.59938 36.6181 1.18838C36.4531 0.777379 36.0591 0.504379 35.6162 0.494504C35.4753 0.491254 32.1032 0.437004 28.7686 2.10425C25.517 3.73 20.1065 9.12188 19.8778 9.35063L9.70988 19.5185C9.27775 19.9505 9.27775 20.6508 9.70988 21.0828L10.4919 21.865L6.581 25.7758L5.799 24.9938C5.36687 24.562 4.66638 24.562 4.23488 24.9938L0.324125 28.904C0.116625 29.1115 0 29.3929 0 29.6863C0 29.9796 0.116625 30.2609 0.324125 30.4685L7.3635 37.5079C7.57088 37.7153 7.85225 37.8318 8.1455 37.8318C8.43875 37.8318 8.72013 37.7153 8.9275 37.5079L12.8381 33.5971C13.2703 33.165 13.2703 32.4649 12.8381 32.0329L12.0561 31.2506L15.967 27.3399L16.749 28.1219C17.1805 28.5536 17.8816 28.5536 18.3131 28.1219L21.4417 24.9933L32.71 36.2616L24.542 44.4294C21.1084 43.3736 17.3455 44.289 14.7781 46.8565C12.0357 49.5988 11.1784 53.7043 12.5934 57.3159C12.7298 57.6633 13.0319 57.9188 13.397 57.995C13.7626 58.0713 14.1415 57.9584 14.4054 57.6945L19.735 52.365L23.0618 55.6919L17.7324 61.0213C17.4685 61.2853 17.3554 61.6644 17.4319 62.0296C17.508 62.395 17.7635 62.6973 18.111 62.8333C19.2671 63.2864 20.4734 63.5065 21.6696 63.5064C24.2105 63.5063 26.7055 62.5131 28.5699 60.6488C31.1378 58.081 32.053 54.3181 30.9974 50.8848L39.1652 42.717L55.079 58.6308C55.9394 59.491 57.0695 59.921 58.2005 59.921C59.3339 59.921 60.4679 59.489 61.3315 58.6258C63.056 56.9006 63.0581 54.096 61.3361 52.3736L45.4225 36.46ZM46.9776 25.1225C47.2888 24.8115 47.386 24.346 47.2255 23.9368C46.131 21.1441 46.794 17.9696 48.9144 15.849C50.6038 14.1594 52.9605 13.3954 55.2637 13.7078L50.512 18.4595C50.0799 18.8916 50.0799 19.5918 50.512 20.0239L55.4031 24.915C55.8346 25.3468 56.5358 25.3468 56.9673 24.915L61.719 20.1633C62.0315 22.4646 61.2673 24.8231 59.578 26.5124C57.4574 28.633 54.2826 29.2959 51.4902 28.2015C51.0806 28.0411 50.615 28.1385 50.3045 28.4491L43.8581 34.8955L40.5312 31.5686L46.9776 25.1225ZM17.531 25.7755L16.749 24.9935C16.3175 24.5618 15.6164 24.5618 15.1849 24.9935L9.70988 30.4685C9.27775 30.9005 9.27775 31.6008 9.70988 32.0328L10.4919 32.815L8.14538 35.1615L2.67038 29.6864L5.01687 27.34L5.79887 28.122C6.23037 28.5538 6.9315 28.5538 7.363 28.122L12.838 22.647C13.2701 22.215 13.2701 21.5148 12.838 21.0828L12.056 20.3005L21.4417 10.9149C21.4952 10.8613 26.8239 5.54963 29.7579 4.08275C30.767 3.57813 31.7919 3.25825 32.6941 3.05563C31.1833 4.72575 29.2556 7.0195 28.2878 8.82875C26.8346 11.5458 26.624 15.372 26.5959 16.7104L17.531 25.7755ZM28.9428 49.8109C28.6316 50.1219 28.5344 50.5873 28.6949 50.9966C29.7894 53.7894 29.1264 56.9639 27.006 59.0844C25.3169 60.7735 22.9588 61.5381 20.6566 61.2258L25.4084 56.4741C25.6157 56.2666 25.7324 55.9854 25.7324 55.6919C25.7324 55.3985 25.6157 55.1173 25.4084 54.9096L20.5173 50.0185C20.0851 49.5868 19.3846 49.5868 18.9531 50.0185L14.2014 54.7703C13.8889 52.4688 14.6531 50.1101 16.3424 48.4209C18.4629 46.3003 21.638 45.6378 24.4304 46.7318C24.8395 46.8928 25.3054 46.7948 25.6159 46.4841L34.2744 37.8259L37.6012 41.1528L28.9428 49.8109ZM59.7671 57.0615C58.9044 57.9239 57.5034 57.9264 56.6432 57.0664L23.0063 23.4293L26.1348 20.3008L59.772 53.9379C60.6316 54.7976 60.6294 56.199 59.7671 57.0615Z" fill="currentColor"/>
</g>
<defs>
<clipPath id="clip0_1_27362">
<rect width="64" height="64" fill="currentColor"/>
</clipPath>
</defs>
</svg>
