<svg width="48" height="48" viewBox="0 0 48 48" fill="none" xmlns="http://www.w3.org/2000/svg">
<path d="M13.6892 9.55877C14.4322 9.55877 15.0346 8.9564 15.0346 8.21335C15.0346 7.4703 14.4322 6.86792 13.6892 6.86792C12.9461 6.86792 12.3438 7.4703 12.3438 8.21335C12.3438 8.9564 12.9461 9.55877 13.6892 9.55877Z" fill="#FF6600" stroke="#FF6600"/>
<path d="M45.1698 24.8165L36.2831 4.23064C36.1705 3.96973 35.9134 3.80054 35.6287 3.80054C35.3436 3.80054 35.086 3.9702 34.9738 4.23206L26.1399 24.796C26.0453 25.0161 26.0677 25.2694 26.1993 25.4695C26.331 25.6695 26.5543 25.7903 26.7939 25.7907L34.5067 25.8007C34.5242 25.8021 34.5418 25.8026 34.5594 25.8026L34.8773 25.8031V31.4129L33.1223 31.4105C33.1223 31.4105 33.1218 31.4105 33.1213 31.4105C32.7278 31.4105 32.4089 31.7289 32.4084 32.1225L32.3932 43.4343C32.3928 43.8278 32.7112 44.1472 33.1052 44.1481L38.1532 44.1567H38.1547C38.3433 44.1567 38.5244 44.0816 38.6584 43.9485C38.792 43.815 38.8675 43.6334 38.8675 43.4443L38.8789 32.1305C38.8794 31.737 38.5605 31.4177 38.167 31.4172L36.3036 31.4148V25.8045L44.5149 25.8126H44.5158C44.7558 25.8126 44.9797 25.6919 45.1113 25.4918C45.2425 25.2903 45.2648 25.037 45.1698 24.8165ZM37.4418 42.729L33.8195 42.7228L33.8328 32.8363L37.4513 32.841L37.4418 42.729ZM36.3026 24.3778V16.2863C36.3026 15.8923 35.9833 15.5734 35.5897 15.5734C35.1962 15.5734 34.8769 15.8923 34.8769 16.2863V24.3764H34.6697C34.6526 24.3754 34.635 24.3745 34.6174 24.3745L27.876 24.3659L35.6297 6.31604L43.4304 24.3854L36.3026 24.3778Z" fill="#FF6600" stroke="#FF6600"/>
<path d="M24.3669 21.3375H19.2314C17.8094 21.3375 16.6531 20.1812 16.6531 18.7598C16.6531 17.6577 17.2249 15.3855 17.7776 13.188C18.2229 11.4191 18.643 9.74814 18.7989 8.58045C18.9624 7.37095 18.5831 6.16715 17.7305 5.19242C16.7325 4.05089 15.2222 3.36938 13.69 3.36938C12.1549 3.36938 10.6422 4.05184 9.64467 5.19479C8.7935 6.16952 8.41568 7.37285 8.58059 8.58093C8.74028 9.76525 9.18511 11.4581 9.65655 13.2502C10.2283 15.424 10.819 17.6715 10.819 18.7603C10.819 20.1817 9.66226 21.338 8.24079 21.338H3.01307C2.61909 21.338 2.3002 21.6569 2.3002 22.0509V28.2077C2.29973 28.2196 2.29688 28.2305 2.29688 28.2424C2.29688 28.2543 2.29973 28.2652 2.3002 28.2771V43.3225C2.3002 43.7165 2.61909 44.0353 3.01307 44.0353H24.3664C24.7604 44.0353 25.0793 43.7165 25.0793 43.3225V22.0513C25.0798 21.6564 24.7609 21.3375 24.3669 21.3375ZM8.24127 22.7633C10.4493 22.7633 12.2452 20.9673 12.2452 18.7598C12.2452 17.4871 11.6578 15.2529 11.0357 12.8876C10.5961 11.2157 10.1418 9.48723 9.9935 8.38893C9.88467 7.59384 10.1423 6.79257 10.7187 6.13198C11.4387 5.30743 12.5774 4.79511 13.69 4.79511C14.8002 4.79511 15.9374 5.30695 16.6574 6.13103C17.2349 6.79162 17.4939 7.59384 17.386 8.39083C17.2406 9.47962 16.8109 11.1881 16.3951 12.8406C15.7944 15.2273 15.2274 17.4814 15.2274 18.7603C15.2274 20.9678 17.0238 22.7637 19.2314 22.7637H23.654V27.5295H3.72642V22.7637L8.24127 22.7633ZM3.72642 42.6087V28.9548H23.654V42.6087H3.72642Z" fill="#FF6600" stroke="#FF6600"/>
</svg>
