<svg width="44" height="44" viewBox="0 0 44 44" fill="none" xmlns="http://www.w3.org/2000/svg">
<g clip-path="url(#clip0_0_2553)">
<path d="M18.1739 30.6091H14.2217L17.0567 26.3566C17.3494 25.9185 17.2308 25.3236 16.7908 25.0309C16.3489 24.7382 15.7559 24.8568 15.4651 25.2967L11.6392 31.0357C11.444 31.3284 11.4249 31.7071 11.5914 32.0189C11.7578 32.327 12.0811 32.5221 12.435 32.5221H16.3872L13.5522 36.7746C13.2595 37.2127 13.3781 37.8076 13.8181 38.1003C13.9806 38.2094 14.1643 38.261 14.3479 38.261C14.6578 38.261 14.9601 38.1118 15.1456 37.8344L18.9716 32.0955C19.1649 31.8028 19.184 31.4259 19.0175 31.1141C18.8511 30.8042 18.5279 30.6091 18.1739 30.6091Z" fill="#9FE870"/>
<path d="M38.1075 18.1748C38.1075 17.6468 37.679 17.2182 37.151 17.2182H27.8922C27.3642 17.2182 26.9357 17.6468 26.9357 18.1748C26.9357 23.3111 26.2948 28.3843 25.1279 32.8148C23.9935 28.2982 23.2819 23.357 23.0466 18.2034C23.0466 18.1939 23.0523 18.1843 23.0523 18.1748C23.0523 18.1614 23.0447 18.1518 23.0447 18.1384C22.9892 16.8873 22.9567 15.6229 22.9567 14.3489C22.9567 13.8209 22.5282 13.3923 22.0002 13.3923H8.60939C8.0814 13.3923 7.65287 13.8209 7.65287 14.3489C7.65287 15.6248 7.62032 16.8893 7.56293 18.1442C7.56293 18.1557 7.55719 18.1633 7.55719 18.1748C7.55719 18.1843 7.56104 18.1901 7.56293 18.1996C7.14013 27.4354 5.20808 35.9979 2.00952 42.6284C1.86604 42.9229 1.88514 43.273 2.06117 43.5505C2.23522 43.8298 2.54135 44 2.87036 44H27.7391C27.7524 44 27.7639 43.9981 27.7773 44C28.3053 44 28.7339 43.5714 28.7339 43.0435C28.7339 42.8024 28.6459 42.5843 28.4986 42.416C28.1561 41.6968 27.8424 40.9354 27.5306 40.174H41.13C41.4552 40.174 41.7574 40.0094 41.9334 39.7359C42.1095 39.4624 42.1343 39.12 42.0004 38.8216C39.4886 33.2891 38.1075 25.9568 38.1075 18.1748ZM28.841 19.1312H36.2002C36.2098 19.7739 36.2385 20.4091 36.2652 21.0441H28.7434C28.7722 20.4052 28.8314 19.7739 28.841 19.1312ZM9.56205 15.3053H21.0495C21.0571 15.948 21.0897 16.5812 21.1126 17.2182H9.49892C9.5199 16.5812 9.55434 15.948 9.56205 15.3053ZM4.36445 42.0869C7.20137 35.6555 8.95372 27.6822 9.43005 19.1312H21.1777C21.654 27.6822 23.4063 35.6555 26.2433 42.0869H4.36445ZM26.8018 38.261C26.5608 37.5934 26.314 36.9335 26.094 36.2409C27.4255 32.3251 28.2921 27.7397 28.646 22.9572H36.3782C36.7895 28.6081 37.9163 33.8899 39.6781 38.261H26.8018Z" fill="#9FE870"/>
<path d="M12.6492 11.4793C12.7353 11.4793 12.8252 11.4678 12.9113 11.441C13.4202 11.2976 13.7148 10.7677 13.5694 10.2607C12.94 8.04932 14.0534 5.44384 16.1577 4.19849C17.8009 3.22673 20.0219 3.06218 21.8144 3.77569C22.4151 4.01484 22.9985 4.34958 23.6164 4.70352C24.8675 5.42277 26.1626 6.16694 27.7618 6.18228C29.1947 6.12489 30.5452 5.55288 31.4749 4.41657C32.3511 3.34339 32.703 2.01007 32.4352 0.755126C32.3243 0.238621 31.8115 -0.0827591 31.3008 0.0186587C30.7843 0.129582 30.4553 0.636581 30.5643 1.15497C30.7096 1.8379 30.503 2.58585 29.9961 3.20565C29.4376 3.88859 28.6494 4.30179 27.7848 4.26924C26.6848 4.25776 25.6595 3.66853 24.5728 3.04299C23.9243 2.67184 23.2529 2.28545 22.524 1.99465C20.1635 1.05534 17.3533 1.26768 15.1878 2.54747C12.3087 4.25193 10.8549 7.7144 11.7291 10.7847C11.8495 11.2038 12.2321 11.4793 12.6492 11.4793Z" fill="#9FE870"/>
<path d="M30.7692 14.6702C30.9088 15.0605 31.2781 15.3053 31.6721 15.3053C31.7792 15.3053 31.8863 15.2881 31.9916 15.2498C32.489 15.0738 32.7491 14.5267 32.5731 14.0293C32.3665 13.4458 32.8045 12.7266 33.5927 12.3554C34.3312 12.0072 35.3316 11.9499 36.1427 12.2062C36.4373 12.2999 36.7166 12.43 36.9959 12.5602C37.6311 12.851 38.3484 13.1818 39.2265 13.1876C40.0969 13.1532 41.0783 12.7859 41.6196 12.0896C42.0367 11.5462 42.1839 10.8863 42.0214 10.2761C41.8855 9.7653 41.3288 9.54336 40.8162 9.67159C40.3054 9.80744 39.9687 10.4062 40.1046 10.9151C39.9726 11.0834 39.6569 11.2307 39.238 11.2747C38.7693 11.2709 38.3179 11.0643 37.7918 10.8232C37.4417 10.6607 37.0897 10.5019 36.7186 10.3852C35.4522 9.98347 33.9409 10.0753 32.7721 10.6281C31.0657 11.4353 30.2221 13.136 30.7692 14.6702Z" fill="#9FE870"/>
<path d="M19.9364 6.98186C20.4013 6.72935 20.5753 6.14971 20.3248 5.68486C20.0742 5.21812 19.4908 5.05169 19.0297 5.29649C16.8718 6.46338 15.7891 8.86038 16.4548 10.9971C16.5829 11.4085 16.9598 11.6705 17.3692 11.6705C17.4629 11.6705 17.5585 11.6571 17.6542 11.6284C18.1592 11.4716 18.4405 10.9359 18.2836 10.4309C17.8934 9.18373 18.605 7.7012 19.9364 6.98186Z" fill="#9FE870"/>
</g>
<defs>
<clipPath id="clip0_0_2553">
<rect width="44" height="44" fill="white"/>
</clipPath>
</defs>
</svg>
