<svg width="96" height="90" viewBox="0 0 96 90" fill="none" xmlns="http://www.w3.org/2000/svg">
<path d="M95.9174 51.6099C95.932 51.5807 95.9466 51.5516 95.9587 51.52C95.9611 51.5103 95.9636 51.503 95.966 51.4933C95.9757 51.4617 95.983 51.4326 95.9879 51.3986C95.9879 51.3864 95.9903 51.3743 95.9927 51.3597C95.9927 51.3379 96 51.3184 96 51.2966V39.4624C96 39.4624 96 39.4527 96 39.4454C96 39.4332 96 39.4187 96 39.4065C96 39.3871 95.9951 39.3701 95.9927 39.3531C95.9927 39.341 95.9879 39.3288 95.9854 39.3167C95.983 39.3045 95.9806 39.2924 95.9757 39.2827C95.9708 39.2657 95.9636 39.2511 95.9587 39.2341C95.9538 39.2195 95.949 39.2074 95.9417 39.1928C95.9393 39.1855 95.9368 39.1807 95.9344 39.1734C95.9344 39.1685 95.9295 39.1661 95.9271 39.1612C95.9198 39.1467 95.9101 39.1345 95.9028 39.12C95.8955 39.1078 95.8858 39.0932 95.8785 39.0811C95.8712 39.0714 95.8639 39.0617 95.8567 39.052C95.8469 39.0398 95.8372 39.0301 95.8275 39.0204C95.8178 39.0082 95.8056 38.9961 95.7935 38.9864C95.7838 38.9767 95.7765 38.9694 95.7643 38.9597C95.7546 38.9524 95.7425 38.9451 95.7327 38.9354C95.7182 38.9257 95.7036 38.916 95.689 38.9062C95.6793 38.899 95.6672 38.8941 95.6574 38.8868C95.6526 38.8844 95.6501 38.8795 95.6453 38.8771L78.2499 29.8721V24.1554L77.973 6.54128C77.973 6.54128 77.9705 6.52671 77.9705 6.51943C77.9705 6.47814 77.9632 6.43686 77.9535 6.39557C77.9535 6.38586 77.9511 6.37614 77.9462 6.36643C77.9317 6.31786 77.9122 6.26929 77.8855 6.22315C77.8855 6.22072 77.8807 6.21829 77.8807 6.21586C77.8564 6.17457 77.8272 6.13815 77.7956 6.10415C77.7859 6.09443 77.7762 6.08472 77.7665 6.07501C77.7397 6.05072 77.7106 6.02643 77.679 6.00701C77.6693 6.00215 77.6644 5.99243 77.6547 5.98758C77.6498 5.98515 77.6426 5.98272 77.6377 5.98029C77.6304 5.97544 77.6231 5.97058 77.6158 5.96572L66.0513 0.0716894C65.8667 -0.0205946 65.6505 -0.0254516 65.461 0.0668324L48 8.63953L30.5366 0.0668324C30.522 0.0595468 30.5075 0.0571183 30.4905 0.0498327C30.471 0.0425471 30.4492 0.032833 30.4297 0.027976C30.4103 0.0231189 30.3908 0.0182618 30.3714 0.0158333C30.3495 0.0109763 30.3253 0.00854775 30.3034 0.00611922C30.2839 0.00611922 30.2669 0.00611922 30.2475 0.00611922C30.2232 0.00611922 30.1989 0.00611922 30.1746 0.00854775C30.1576 0.00854775 30.1406 0.0134048 30.1212 0.0182618C30.0969 0.0231189 30.0726 0.027976 30.0483 0.0352615C30.0313 0.0401186 30.0143 0.0474042 29.9973 0.0546897C29.9803 0.0619753 29.9633 0.0668324 29.9462 0.0741179L18.3842 5.97301C18.3842 5.97301 18.3696 5.98272 18.3623 5.98758C18.3574 5.99001 18.3502 5.99243 18.3453 5.99486C18.3356 5.99972 18.3307 6.00943 18.321 6.01429C18.2894 6.03615 18.2603 6.05801 18.2335 6.08472C18.2238 6.09443 18.2141 6.10415 18.2044 6.11386C18.1728 6.14786 18.1436 6.18672 18.1193 6.22557C18.1193 6.228 18.1145 6.23043 18.1145 6.23286C18.0878 6.279 18.0683 6.32514 18.0538 6.37614C18.0513 6.38586 18.0489 6.39557 18.0465 6.40528C18.0367 6.44657 18.0319 6.48543 18.0295 6.52914C18.0295 6.53642 18.027 6.54371 18.027 6.551L17.7501 24.1602V29.8818L0.35471 38.8795C0.35471 38.8795 0.342562 38.8892 0.335274 38.8941C0.293972 38.916 0.257529 38.9427 0.223516 38.9742C0.216227 38.9815 0.208939 38.9864 0.20165 38.9912C0.162778 39.0277 0.128764 39.069 0.10204 39.1151C0.0947512 39.1248 0.0898922 39.137 0.0850332 39.1467C0.0631675 39.1831 0.0461609 39.2244 0.0340133 39.2657C0.0291542 39.2778 0.0242952 39.2924 0.0218657 39.3045C0.00971808 39.3555 0 39.4089 0 39.4624V51.2966C0 51.3111 0.00242952 51.3257 0.00485904 51.3403C0.00485904 51.3622 0.00728856 51.384 0.0121476 51.4083C0.0170066 51.4326 0.0218657 51.4544 0.0291542 51.4763C0.0340133 51.4933 0.0388723 51.5127 0.0461609 51.5297C0.0558789 51.554 0.065597 51.5759 0.0777446 51.5977C0.0850332 51.6123 0.0923217 51.6293 0.10204 51.6439C0.114187 51.6657 0.128764 51.6851 0.145771 51.7046C0.157919 51.7191 0.167637 51.7337 0.179784 51.7459C0.196791 51.7629 0.213798 51.7799 0.233234 51.7969C0.247811 51.809 0.259959 51.8211 0.274536 51.8309C0.296401 51.8454 0.318267 51.8576 0.340133 51.8721C0.35228 51.8794 0.361998 51.8867 0.371716 51.8916L17.7549 60.4133V83.4211C17.7549 83.4357 17.7574 83.4478 17.7598 83.4624C17.7598 83.4843 17.7622 83.5061 17.7671 83.528C17.7719 83.5498 17.7768 83.5717 17.7816 83.5936C17.7865 83.613 17.7914 83.63 17.7987 83.6494C17.8059 83.6713 17.8157 83.6931 17.8278 83.715C17.8351 83.732 17.8448 83.749 17.8545 83.7635C17.8667 83.783 17.8813 83.8024 17.8934 83.8218C17.9056 83.8364 17.9177 83.851 17.9298 83.8655C17.9469 83.8825 17.9639 83.8995 17.9809 83.9141C17.9954 83.9263 18.01 83.9384 18.0246 83.9505C18.044 83.9651 18.0659 83.9773 18.0878 83.9894C18.0999 83.9967 18.1072 84.004 18.1193 84.0088L29.9584 89.932C29.99 89.9466 30.0216 89.9563 30.0556 89.966C30.0677 89.9709 30.0799 89.9757 30.092 89.9781C30.1455 89.9927 30.1989 90 30.2524 90C30.3107 90 30.369 89.9927 30.4273 89.9757C30.4394 89.9733 30.4492 89.966 30.4613 89.9611C30.5026 89.9466 30.5439 89.932 30.5828 89.9101L48.0024 79.7613L65.4221 89.9101C65.5241 89.9709 65.6383 90 65.7549 90H65.7574C65.8108 90 65.8667 89.9927 65.9201 89.9781C65.9274 89.9781 65.9347 89.9733 65.9396 89.9709C65.9784 89.9611 66.0149 89.949 66.0513 89.9296L77.8904 84.0064C77.9074 83.9967 77.922 83.987 77.939 83.9772C77.9511 83.97 77.9632 83.9627 77.9754 83.9554C78.0021 83.9384 78.024 83.9165 78.0459 83.8971C78.0531 83.8898 78.0604 83.8825 78.0677 83.8753C78.092 83.851 78.1115 83.8267 78.1309 83.7975C78.1357 83.7903 78.1406 83.783 78.1455 83.7781C78.1649 83.749 78.1819 83.7174 78.1941 83.6858C78.1965 83.6786 78.2013 83.6737 78.2038 83.6664C78.2184 83.6324 78.2281 83.596 78.2378 83.5595C78.2378 83.5547 78.2402 83.5498 78.2402 83.545C78.2475 83.5037 78.2524 83.4624 78.2524 83.4211V83.409C78.2524 83.3944 78.2524 83.3823 78.2524 83.3677V60.4084L95.6356 51.8867C95.6356 51.8867 95.6526 51.877 95.6599 51.8721C95.6866 51.8576 95.7133 51.843 95.7376 51.8236C95.7473 51.8163 95.757 51.809 95.7668 51.7993C95.7911 51.7799 95.8129 51.758 95.8348 51.7361C95.8421 51.7289 95.8494 51.7191 95.8567 51.7119C95.8761 51.6876 95.8955 51.6609 95.9125 51.6341C95.9174 51.6269 95.9223 51.6171 95.9247 51.6099H95.9174ZM77.2976 59.4079C77.2854 59.4127 77.2757 59.4224 77.2635 59.4297C77.2417 59.4419 77.2198 59.454 77.2004 59.4686C77.1858 59.4807 77.1712 59.4929 77.1567 59.505C77.1372 59.522 77.1202 59.5366 77.1032 59.5536C77.0911 59.5681 77.0789 59.5803 77.0692 59.5949C77.0546 59.6143 77.04 59.6337 77.0279 59.6556C77.0182 59.6701 77.0109 59.6847 77.0036 59.7017C76.9914 59.7236 76.9817 59.7454 76.972 59.7697C76.9647 59.7867 76.9599 59.8037 76.955 59.8231C76.9477 59.845 76.9429 59.8668 76.938 59.8911C76.9331 59.913 76.9331 59.9348 76.9307 59.9591C76.9307 59.9737 76.9258 59.9858 76.9258 60.0004V83.0131L66.4036 88.2782V65.8192C66.4036 65.8192 66.4036 65.8094 66.4036 65.8022C66.4036 65.7779 66.3987 65.7536 66.3963 65.7269C66.3939 65.7075 66.3915 65.688 66.3866 65.671C66.3817 65.6492 66.3744 65.6297 66.3672 65.6103C66.3599 65.5885 66.3526 65.5666 66.3429 65.5447C66.3429 65.5399 66.3404 65.535 66.338 65.5277C66.3307 65.5156 66.3234 65.5035 66.3161 65.4913C66.304 65.4719 66.2943 65.45 66.2797 65.433C66.2676 65.416 66.253 65.399 66.2384 65.382C66.2238 65.3675 66.2117 65.3505 66.1947 65.3359C66.1801 65.3213 66.1631 65.3092 66.1461 65.297C66.1291 65.2825 66.1096 65.2703 66.0902 65.2582C66.0756 65.2485 66.061 65.2412 66.044 65.2339C66.0197 65.2217 65.9979 65.212 65.9736 65.2023C65.959 65.1975 65.9444 65.1926 65.9298 65.1878C65.9031 65.1805 65.8764 65.1732 65.8497 65.1683C65.8327 65.1659 65.8181 65.1659 65.8011 65.1635C65.7816 65.1635 65.7646 65.1586 65.7452 65.1586C65.7379 65.1586 65.7306 65.1586 65.7209 65.1586C65.7039 65.1586 65.6869 65.161 65.6699 65.1635C65.6432 65.1659 65.6189 65.1683 65.5921 65.1756C65.5751 65.1805 65.5606 65.1853 65.5436 65.1902C65.5193 65.1975 65.495 65.2072 65.4707 65.2169C65.4658 65.2169 65.4609 65.2193 65.4561 65.2218L48.6535 73.4593V63.1041L66.0368 54.5702C66.0368 54.5702 66.0537 54.5581 66.0635 54.5532C66.0975 54.5338 66.1291 54.5119 66.1606 54.4877C66.1728 54.4779 66.185 54.4682 66.1971 54.4585C66.2335 54.4245 66.2676 54.3857 66.2967 54.342C66.3016 54.3322 66.3064 54.3225 66.3113 54.3152C66.3332 54.2788 66.3502 54.24 66.3647 54.2011C66.3696 54.1865 66.3745 54.1695 66.3793 54.1525C66.389 54.1137 66.3963 54.0724 66.3987 54.0311C66.3987 54.0214 66.4036 54.0117 66.4036 53.9995C66.4036 53.9971 66.4036 53.9922 66.4036 53.9898C66.4036 53.9874 66.4036 53.9825 66.4036 53.9801V30.6881L76.9283 25.5275V48.1808C76.9283 48.4091 77.0449 48.6179 77.2393 48.7393C77.3462 48.8049 77.4676 48.8389 77.5867 48.8389C77.6863 48.8389 77.7859 48.8171 77.8782 48.7709L94.6808 40.5212V50.8862L77.2951 59.4079H77.2976ZM30.5342 65.2266C30.5342 65.2266 30.5245 65.2242 30.5196 65.2218C30.4977 65.212 30.4735 65.2048 30.4516 65.1975C30.4346 65.1926 30.4151 65.1853 30.3981 65.1805C30.3738 65.1756 30.3495 65.1732 30.3253 65.1683C30.3058 65.1683 30.2888 65.1635 30.2694 65.1635C30.2621 65.1635 30.2548 65.1635 30.2451 65.1635C30.2256 65.1635 30.2062 65.1683 30.1892 65.1683C30.1746 65.1683 30.16 65.1683 30.143 65.1732C30.1139 65.178 30.0847 65.1853 30.0556 65.195C30.0434 65.1975 30.0337 65.2023 30.0216 65.2048C29.9924 65.2145 29.9657 65.2266 29.939 65.2412C29.9268 65.246 29.9171 65.2533 29.9049 65.2606C29.8806 65.2752 29.8588 65.2922 29.8369 65.3092C29.8248 65.3189 29.8126 65.3286 29.8005 65.3408C29.781 65.3577 29.764 65.3772 29.7495 65.3942C29.7373 65.4087 29.7252 65.4209 29.7154 65.4355C29.7009 65.4549 29.6887 65.4767 29.6741 65.501C29.6669 65.5132 29.6596 65.5229 29.6547 65.5326C29.6523 65.5375 29.6523 65.5423 29.6498 65.5472C29.6401 65.569 29.6328 65.5909 29.6255 65.6152C29.6183 65.6346 29.611 65.654 29.6061 65.6735C29.6013 65.6929 29.5988 65.7123 29.5964 65.7317C29.594 65.756 29.5891 65.7803 29.5891 65.8022C29.5891 65.807 29.5891 65.8143 29.5891 65.8192V88.2782L19.0669 83.0131V60.0004C19.0669 59.9858 19.0644 59.9713 19.062 59.9591C19.062 59.9373 19.0596 59.913 19.0547 59.8911C19.0499 59.8668 19.045 59.845 19.0377 59.8231C19.0329 59.8061 19.028 59.7867 19.0207 59.7697C19.011 59.7454 19.0013 59.7236 18.9891 59.7017C18.9818 59.6871 18.9745 59.6701 18.9648 59.6556C18.9527 59.6337 18.9381 59.6143 18.9235 59.5949C18.9114 59.5803 18.9017 59.5657 18.8895 59.5536C18.8725 59.5366 18.8555 59.5196 18.8361 59.505C18.8215 59.4929 18.8093 59.4807 18.7923 59.4686C18.7729 59.454 18.751 59.4419 18.7292 59.4297C18.717 59.4224 18.7073 59.4151 18.6951 59.4079L1.31437 50.8886V40.5236L18.1169 48.7733C18.1169 48.7733 18.1291 48.7758 18.1339 48.7806C18.1655 48.7952 18.1971 48.8049 18.2311 48.8146C18.2433 48.8171 18.253 48.8219 18.2651 48.8243C18.3113 48.8341 18.3574 48.8413 18.406 48.8413C18.4619 48.8413 18.5154 48.8316 18.5688 48.8195C18.5834 48.8171 18.5955 48.8122 18.6101 48.8073C18.6514 48.7928 18.6903 48.7758 18.7267 48.7563C18.7389 48.7491 18.7486 48.7442 18.7607 48.7393C18.8045 48.7102 18.8458 48.6786 18.8822 48.6398C18.8919 48.6301 18.8992 48.6179 18.9089 48.6082C18.9381 48.5742 18.9624 48.5378 18.9818 48.4989C18.9867 48.4892 18.994 48.4843 18.9988 48.4746C19.0013 48.4674 19.0037 48.4625 19.0061 48.4552C19.0134 48.4358 19.0207 48.4164 19.028 48.3993C19.0353 48.3775 19.0426 48.3556 19.0499 48.3314C19.0547 48.3144 19.0547 48.2949 19.0571 48.2779C19.062 48.2512 19.0644 48.2269 19.0644 48.2002C19.0644 48.1954 19.0644 48.1905 19.0644 48.1856V25.5251L29.5867 30.6857V53.9825C29.5867 53.9825 29.5867 53.9898 29.5867 53.9922C29.5867 53.9947 29.5867 53.9995 29.5867 54.002C29.5867 54.0117 29.5915 54.0214 29.5915 54.0311C29.594 54.0724 29.6013 54.1137 29.6134 54.1525C29.6183 54.1695 29.6231 54.1841 29.628 54.1987C29.6426 54.24 29.6596 54.2788 29.6814 54.3152C29.6863 54.325 29.6911 54.3322 29.696 54.342C29.7252 54.3857 29.7592 54.4221 29.7956 54.4585C29.8078 54.4682 29.8199 54.4779 29.8321 54.4877C29.8636 54.5119 29.8952 54.5338 29.9292 54.5532C29.939 54.5581 29.9462 54.5654 29.956 54.5702L47.3392 63.1041V73.4593L30.5366 65.2218L30.5342 65.2266ZM19.3268 7.61955L34.6911 15.454L19.0839 23.116L19.3268 7.61955ZM65.0917 30.676V52.8484L48.6584 43.4403V22.2951L65.0917 30.6784V30.676ZM48 61.9627L31.6518 53.9364L48 44.5769L64.3482 53.9364L48 61.9627ZM47.3416 43.4379L30.9083 52.846V30.6784L47.3416 22.2927V43.4379ZM76.9161 23.116L61.3089 15.454L76.6732 7.61955L76.9161 23.116ZM93.879 39.4478L78.2499 47.1219V31.3584L93.879 39.4502V39.4478ZM47.9976 10.0286C48.0972 10.0286 48.1968 10.0068 48.2891 9.96065L65.7452 1.39281L75.8641 6.55342L59.5378 14.8784C59.3167 14.9926 59.1782 15.2208 59.1782 15.4685C59.1782 15.7187 59.3216 15.9445 59.5451 16.0538L76.3889 24.3205L65.7549 29.5346L48.2964 20.6267C48.2964 20.6267 48.2843 20.6219 48.2794 20.6194C48.2454 20.6024 48.2089 20.5903 48.1725 20.5806C48.1628 20.5782 48.1531 20.5733 48.1458 20.5709C48.0972 20.5612 48.0486 20.5539 47.9976 20.5539C47.9466 20.5539 47.898 20.5612 47.8494 20.5709C47.8397 20.5709 47.8324 20.5757 47.8226 20.5782C47.7862 20.5879 47.7498 20.6 47.7157 20.617C47.7109 20.6194 47.7036 20.6194 47.6987 20.6243L30.2402 29.5321L19.6062 24.3181L36.4501 16.0514C36.6736 15.9397 36.8169 15.7138 36.8169 15.4661C36.8169 15.216 36.6784 14.9877 36.4574 14.876L20.1334 6.55585L30.2524 1.39281L47.7085 9.96307C47.8008 10.0092 47.9004 10.0311 48 10.0311L47.9976 10.0286ZM17.7476 31.356V47.1195L2.11854 39.4502L17.7501 31.3584L17.7476 31.356ZM48.328 78.4281C48.1215 78.3066 47.8712 78.3066 47.6647 78.4281L30.9035 88.1932V66.8707L47.706 75.1083C47.7279 75.1204 47.7522 75.1253 47.7765 75.1326C47.7935 75.1399 47.8129 75.1471 47.8299 75.152C47.8834 75.1666 47.9344 75.1738 47.9879 75.1738H47.9951C47.9951 75.1738 47.9976 75.1738 48 75.1738C48.0535 75.1738 48.1069 75.1666 48.1579 75.152C48.1774 75.1471 48.1944 75.1399 48.2138 75.1326C48.2357 75.1253 48.26 75.118 48.2818 75.1083L65.0844 66.8707V88.1932L48.3256 78.4281H48.328Z" fill="#FF6600"/>
</svg>
