<svg width="64" height="64" viewBox="0 0 64 64" fill="none" xmlns="http://www.w3.org/2000/svg">
<path d="M19.8532 17.7303C19.85 17.7303 19.8468 17.7303 19.8436 17.7303C19.3898 17.7252 19.0262 17.3532 19.0313 16.8994C19.1003 10.7786 23.5127 5.48973 29.523 4.32342C29.9685 4.23836 30.3999 4.52786 30.4862 4.97333C30.5725 5.4188 30.2817 5.85016 29.8363 5.93649C24.5875 6.95485 20.7346 11.5733 20.6745 16.918C20.6694 17.3686 20.3026 17.7303 19.8532 17.7303Z" fill="#FF6600"/>
<path d="M44.1481 17.7301C43.6988 17.7301 43.3319 17.3684 43.3268 16.9178C43.2668 11.5731 39.4138 6.95468 34.1651 5.93631C33.7196 5.84998 33.4288 5.41863 33.5152 4.97316C33.6018 4.52768 34.0348 4.23883 34.4783 4.32324C40.4887 5.48956 44.9011 10.7784 44.9701 16.8992C44.9752 17.353 44.6116 17.725 44.1577 17.7301C44.1545 17.7301 44.1513 17.7301 44.1481 17.7301Z" fill="#FF6600"/>
<path d="M32.0014 37.4359C25.5067 37.4359 20.2227 32.1519 20.2227 25.6572C20.2227 25.2034 20.5905 24.8125 21.0443 24.8125C21.4981 24.8125 21.8659 25.1572 21.8659 25.611C21.8659 31.2459 26.4127 35.7927 32.0014 35.7927C37.59 35.7927 42.1368 31.2459 42.1368 25.6572C42.1368 25.2034 42.5046 24.8125 42.9585 24.8125C43.4123 24.8125 43.7801 25.1572 43.7801 25.611V25.6572C43.7801 32.1519 38.496 37.4359 32.0014 37.4359Z" fill="#FF6600"/>
<path d="M45.1871 22.4876H18.815C18.0614 22.4876 17.3643 22.1117 16.9503 21.482C16.536 20.8527 16.467 20.0635 16.7651 19.3715L17.0138 18.7941C17.8477 16.8595 19.7477 15.6094 21.8544 15.6094H42.1478C44.2544 15.6094 46.1544 16.8595 46.9883 18.7941L47.237 19.3715C47.5352 20.0635 47.4662 20.8527 47.0518 21.482C46.6378 22.1117 45.9407 22.4876 45.1871 22.4876ZM21.8544 17.2526C20.4046 17.2526 19.0968 18.1131 18.5229 19.4444L18.2742 20.0217C18.1606 20.2852 18.2703 20.4993 18.323 20.5789C18.3756 20.6588 18.5284 20.8443 18.815 20.8443H45.1871C45.4737 20.8443 45.6265 20.6588 45.6791 20.5789C45.7318 20.4993 45.8415 20.2852 45.7279 20.0217L45.4792 19.4444C44.9053 18.1131 43.5975 17.2526 42.1478 17.2526H21.8544Z" fill="#FF6600"/>
<path d="M31.9982 10.0894C30.2654 10.0894 28.8555 8.67952 28.8555 6.94674V4.7428C28.8555 3.01001 30.2654 1.6001 31.9982 1.6001C33.731 1.6001 35.1409 3.01001 35.1409 4.7428V6.94674C35.1409 8.67952 33.731 10.0894 31.9982 10.0894ZM31.9982 3.24334C31.1714 3.24334 30.4987 3.91604 30.4987 4.7428V6.94674C30.4987 7.77349 31.1714 8.4462 31.9982 8.4462C32.8249 8.4462 33.4976 7.77349 33.4976 6.94674V4.7428C33.4976 3.91604 32.8249 3.24334 31.9982 3.24334Z" fill="#FF6600"/>
<path d="M42.8215 12.3517H39.6419C39.1881 12.3517 38.8203 11.9839 38.8203 11.5301C38.8203 11.0763 39.1881 10.7085 39.6419 10.7085H42.8215C43.2754 10.7085 43.6432 11.0763 43.6432 11.5301C43.6432 11.9839 43.2754 12.3517 42.8215 12.3517Z" fill="#FF6600"/>
<path d="M24.3567 12.3517H21.1771C20.7233 12.3517 20.3555 11.9839 20.3555 11.5301C20.3555 11.0763 20.7233 10.7085 21.1771 10.7085H24.3567C24.8105 10.7085 25.1783 11.0763 25.1783 11.5301C25.1783 11.9839 24.8105 12.3517 24.3567 12.3517Z" fill="#FF6600"/>
<path d="M50.6858 40.8306C50.6239 40.8306 50.5613 40.8235 50.4984 40.8087C50.0564 40.7054 49.7817 40.2635 49.885 39.8218L51.2548 33.9591C51.3579 33.5172 51.7995 33.2415 52.2417 33.3458C52.6837 33.4491 52.9584 33.8911 52.8551 34.3327L51.4853 40.1954C51.3967 40.5745 51.0591 40.8306 50.6858 40.8306Z" fill="#FF6600"/>
<path d="M55.2713 46.829C55.1972 46.829 55.1221 46.8187 55.0473 46.7976C54.6105 46.674 54.3569 46.2199 54.4805 45.7834L56.7483 37.771C56.8722 37.3341 57.3266 37.0819 57.7625 37.2042C58.1993 37.3277 58.4528 37.7819 58.3293 38.2184L56.0615 46.2308C55.9591 46.5928 55.6298 46.829 55.2713 46.829Z" fill="#FF6600"/>
<path d="M8.73378 46.8287C8.37528 46.8287 8.04599 46.5924 7.94361 46.2304L5.67581 38.218C5.55224 37.7815 5.80579 37.3274 6.2426 37.2038C6.67941 37.0783 7.13322 37.3341 7.25679 37.7706L9.52459 45.783C9.64816 46.2195 9.39461 46.6736 8.9578 46.7972C8.88302 46.8184 8.8076 46.8287 8.73378 46.8287Z" fill="#FF6600"/>
<path d="M48.4774 62.3999H15.5208C13.7482 62.3999 12.1769 61.2098 11.6993 59.5059L10.6877 55.9396C10.5638 55.5027 10.8173 55.0486 11.2538 54.9247C11.6922 54.8021 12.1448 55.0547 12.2686 55.4909L13.2809 59.0598C13.5611 60.0599 14.4819 60.7566 15.5208 60.7566H48.4774C49.5163 60.7566 50.4371 60.0599 50.7167 59.0624L51.7296 55.4909C51.8535 55.0547 52.3067 54.8015 52.7444 54.9247C53.1809 55.0486 53.4345 55.5027 53.3106 55.9396L52.2983 59.5085C51.8214 61.2098 50.25 62.3999 48.4774 62.3999Z" fill="#FF6600"/>
<path d="M54.4325 40.8304H9.5694C7.71626 40.8304 6.05215 39.5902 5.52291 37.8141L4.98758 36.0197C4.36109 33.9197 5.54923 31.6674 7.63634 30.9985C9.43781 30.4205 11.4354 31.1907 12.3841 32.8285C12.8196 33.5812 12.896 34.4804 12.5937 35.2956C12.291 36.1112 11.6469 36.7431 10.8256 37.0294L9.79824 37.3876C9.36849 37.5378 8.90119 37.3105 8.75195 36.8824C8.60239 36.4539 8.82866 35.9854 9.25712 35.8361L10.2845 35.4779C10.6414 35.3534 10.9215 35.0787 11.0528 34.7244C11.1844 34.3697 11.151 33.9791 10.9617 33.6521C10.3978 32.6777 9.2109 32.2213 8.13766 32.5634C6.89624 32.9611 6.18952 34.301 6.56214 35.5498L7.09748 37.3446C7.42099 38.4294 8.43743 39.1871 9.5694 39.1871H54.4325C55.5645 39.1871 56.5809 38.4294 56.9044 37.3449L57.4398 35.5498C57.8124 34.301 57.1057 32.9611 55.8643 32.5634C54.792 32.2213 53.6045 32.6777 53.0402 33.6521C52.8509 33.9791 52.8175 34.3697 52.9491 34.7244C53.0804 35.0787 53.3605 35.3534 53.7174 35.4779L54.7448 35.8361C55.1733 35.9854 55.3995 36.4539 55.25 36.8824C55.1007 37.3109 54.6315 37.5381 54.2037 37.3876L53.1763 37.0294C52.355 36.7431 51.7109 36.1112 51.4082 35.2956C51.1059 34.4804 51.1823 33.5812 51.6178 32.8285C52.5665 31.1907 54.5635 30.4205 56.3656 30.9985C58.4527 31.6674 59.6408 33.9197 59.0143 36.0197L58.479 37.8144C57.9498 39.5902 56.2857 40.8304 54.4325 40.8304Z" fill="#FF6600"/>
<path d="M13.3199 40.8304C12.9467 40.8304 12.609 40.5743 12.5205 40.1953L11.1507 34.3326C11.0473 33.8909 11.322 33.449 11.764 33.3457C12.2047 33.2433 12.6479 33.5174 12.7509 33.959L14.1207 39.8217C14.224 40.2633 13.9493 40.7053 13.5074 40.8086C13.4448 40.8234 13.3819 40.8304 13.3199 40.8304Z" fill="#FF6600"/>
<path d="M53.5881 56.6922C53.3346 56.6922 53.0791 56.6714 52.824 56.6293C50.3061 56.2134 48.5958 53.8262 49.0115 51.3081L49.4207 48.8323C49.6222 47.6127 50.2869 46.5443 51.2918 45.8241C52.297 45.1038 53.5236 44.8185 54.7419 45.0201C57.2601 45.4363 58.9701 47.8235 58.5541 50.3414L58.1453 52.8171C57.9437 54.0371 57.279 55.1052 56.2738 55.8254C55.4792 56.3947 54.5468 56.6922 53.5881 56.6922ZM53.9858 46.6011C52.5518 46.6011 51.2831 47.64 51.0421 49.1003L50.6329 51.576C50.3646 53.2 51.4676 54.7396 53.0916 55.0079C53.8776 55.1385 54.6688 54.9537 55.3171 54.4896C55.9654 54.0252 56.3938 53.3361 56.5238 52.5495L56.9327 50.0737C57.0627 49.2867 56.8785 48.4966 56.4144 47.8483C55.95 47.1999 55.2609 46.7715 54.4743 46.6415C54.3103 46.6142 54.1469 46.6011 53.9858 46.6011Z" fill="#FF6600"/>
<path d="M10.415 56.6921C9.45638 56.6921 8.52403 56.3946 7.72937 55.8252C6.72417 55.105 6.05949 54.0369 5.85793 52.817L5.44905 50.3412C5.0331 47.8234 6.7431 45.4362 9.26124 45.02C10.4796 44.8187 11.7062 45.1037 12.7114 45.8239C13.7163 46.5441 14.381 47.6126 14.5825 48.8325L14.9917 51.3076C15.4074 53.8261 13.697 56.2133 11.1792 56.6292C10.9241 56.6713 10.6686 56.6921 10.415 56.6921ZM10.0174 46.6009C9.85628 46.6009 9.69292 46.6141 9.52891 46.6414C8.74227 46.7714 8.0532 47.1998 7.58879 47.8481C7.12471 48.4964 6.94048 49.2866 7.07047 50.0736L7.47935 52.5493C7.60933 53.336 8.0378 54.0251 8.68611 54.4895C9.33442 54.9536 10.1239 55.1384 10.9115 55.0078C12.5355 54.7395 13.6386 53.1999 13.3703 51.5756L12.9611 49.1005C12.7201 47.6402 11.4511 46.6009 10.0174 46.6009Z" fill="#FF6600"/>
</svg>
