<svg width="40" height="40" viewBox="0 0 40 40" fill="none" xmlns="http://www.w3.org/2000/svg">
<path d="M31.9758 20.6045L22.0321 23.919C21.5536 24.0785 21.2308 24.5263 21.2308 25.0307C21.2308 25.5351 21.5536 25.9829 22.0321 26.1424L26.448 27.6145L27.92 32.0304C28.0795 32.5089 28.5273 32.8317 29.0317 32.8317C29.5361 32.8317 29.9839 32.5089 30.1434 32.0304L33.458 22.0867C33.5984 21.6656 33.4888 21.2013 33.1749 20.8875C32.8611 20.5737 32.3967 20.4641 31.9758 20.6045ZM29.0317 27.9541L28.4862 26.3175C28.3696 25.9676 28.095 25.693 27.7451 25.5763L26.1084 25.0308L30.4935 23.5691L29.0317 27.9541ZM28.2031 14.1406C27.4007 14.1406 26.6169 14.2219 25.8594 14.3763V3.59375C25.8594 2.94656 25.3347 2.42188 24.6875 2.42188H1.17188C0.524687 2.42188 0 2.94656 0 3.59375V27.0312C0 27.6784 0.524687 28.2031 1.17188 28.2031H16.72C17.8088 33.5456 22.5438 37.5781 28.2031 37.5781C34.708 37.5781 40 32.3211 40 25.8594C40 19.3977 34.708 14.1406 28.2031 14.1406ZM11.7969 4.76562H14.1406V7.10938H11.7969V4.76562ZM16.4844 25.8594H2.34375V4.76562H9.45312V8.28125C9.45312 8.92844 9.97781 9.45312 10.625 9.45312H15.3125C15.9597 9.45312 16.4844 8.92844 16.4844 8.28125V4.76562H23.5156V15.1202C19.3807 16.932 16.4844 21.0635 16.4844 25.8594ZM28.2031 35.2344C23.0338 35.2344 18.8281 31.0287 18.8281 25.8594C18.8281 20.69 23.0338 16.4844 28.2031 16.4844C33.4156 16.4844 37.6562 20.69 37.6562 25.8594C37.6562 31.0287 33.4156 35.2344 28.2031 35.2344ZM8.28125 21.1719H5.85938C5.21219 21.1719 4.6875 21.6966 4.6875 22.3438C4.6875 22.9909 5.21219 23.5156 5.85938 23.5156H8.28125C8.92844 23.5156 9.45312 22.9909 9.45312 22.3438C9.45312 21.6966 8.92844 21.1719 8.28125 21.1719Z" fill="currentColor"/>
</svg>
