<svg width="40" height="40" viewBox="0 0 40 40" fill="none" xmlns="http://www.w3.org/2000/svg">
<g clip-path="url(#clip0_1_24016)">
<path d="M20 0C11.5998 0 4.76562 5.81773 4.76562 12.9688C4.76562 13.1727 4.82086 13.3849 4.93266 13.5716L11.7969 25.0121V38.8281C11.7969 39.4753 12.3216 40 12.9688 40H27.0312C27.6784 40 28.2031 39.4753 28.2031 38.8281V25.0121L35.0673 13.5717C35.0689 13.5691 35.0701 13.5663 35.0716 13.5637C35.181 13.3782 35.2344 13.171 35.2344 12.9688C35.2344 5.43688 27.8538 0 20 0ZM7.57688 13.4234C8.71555 12.8801 9.84609 12.6976 11.988 13.7777L14.9094 23.5156H13.6323L7.57688 13.4234ZM14.3648 13.5443C15.5568 12.9304 16.6611 12.6373 18.8281 13.6831V23.5156H17.3563L14.3648 13.5443ZM25.8594 37.6562H14.1406V25.8594H18.8281V29.375C18.8281 30.0222 19.3528 30.5469 20 30.5469C20.6472 30.5469 21.1719 30.0222 21.1719 29.375V25.8594H25.8594V37.6562ZM21.1719 23.5156V13.6626C22.4105 12.9959 23.4811 12.5997 25.6262 13.5738L22.6437 23.5156H21.1719ZM26.3677 23.5156H25.0906L28.016 13.7643C29.2861 13.0672 30.322 12.5895 32.4002 13.4614L26.3677 23.5156ZM27.0154 11.6403C23.5318 9.92953 21.5547 10.788 19.9841 11.6403C18.5128 10.9178 17.3104 10.6535 16.2937 10.6535C14.9031 10.6535 13.8601 11.148 12.9529 11.6403C10.428 10.4004 8.69461 10.51 7.33375 10.9888C8.4625 6.0732 13.7129 2.34375 20 2.34375C26.2027 2.34375 31.551 6.1775 32.6741 11.0674C30.0191 10.1686 28.3669 10.9068 27.0154 11.6403Z" fill="currentColor"/>
</g>
<defs>
<clipPath id="clip0_1_24016">
<rect width="40" height="40" fill="currentColor"/>
</clipPath>
</defs>
</svg>
