<svg width="49" height="49" viewBox="0 0 49 49" fill="none" xmlns="http://www.w3.org/2000/svg">
<path d="M40.4264 8.32027H37.0498V5.11424C37.0498 4.72026 36.7309 4.40137 36.3369 4.40137H8.09959C7.70561 4.40137 7.38672 4.72026 7.38672 5.11424V12.9511C7.38672 13.3451 7.70561 13.664 8.09959 13.664H36.3369C36.7309 13.664 37.0498 13.3451 37.0498 12.9511V9.74601H39.7135V17.3785L22.5376 21.5226C22.2178 21.6001 21.992 21.8862 21.992 22.2156V25.7766H20.1733C19.7793 25.7766 19.4604 26.0955 19.4604 26.4895V43.4111C19.4604 43.8051 19.7793 44.124 20.1733 44.124H25.2365C25.6305 44.124 25.9494 43.8051 25.9494 43.4111V26.4895C25.9494 26.0955 25.6305 25.7766 25.2365 25.7766H23.4178V22.7768L40.5937 18.6327C40.9135 18.5552 41.1393 18.2691 41.1393 17.9398V9.03314C41.1393 8.63963 40.8204 8.32027 40.4264 8.32027ZM35.6245 12.2382H8.81294V5.82712H35.6245V12.2382ZM24.5241 42.6982H20.8866V27.2023H24.5241V42.6982Z" fill="#FF6600" stroke="#FF6600"/>
</svg>
