<svg width="44" height="44" viewBox="0 0 44 44" fill="none" xmlns="http://www.w3.org/2000/svg">
<g clip-path="url(#clip0_0_2570)">
<path d="M35.6712 31.1612C35.6364 30.855 35.453 30.5892 35.1799 30.4462C34.2284 29.953 33.3814 29.6487 32.5106 29.491C31.9386 29.3865 31.3556 29.3333 30.7763 29.3333C27.5606 29.3333 24.6951 30.9521 22.9168 33.4656V27.4064C27.0308 26.9444 30.2501 23.4849 30.2501 19.2499V14.6666H31.1668C31.6728 14.6666 32.0835 14.2559 32.0835 13.7499V10.0832C32.0835 9.57722 31.6728 9.16652 31.1668 9.16652H28.4168V0.916524C28.4167 0.410695 28.0061 0 27.5001 0C26.9941 0 26.5834 0.410695 26.5834 0.916695V9.1667H17.4167V0.916695C17.4167 0.410695 17.0061 0 16.5001 0C15.9941 0 15.5834 0.410695 15.5834 0.916695V9.1667H12.8334C12.3274 9.1667 11.9167 9.57739 11.9167 10.0834V13.75C11.9167 14.256 12.3274 14.6667 12.8334 14.6667H13.7501V19.25C13.7501 23.485 16.9694 26.9445 21.0834 27.4065V33.4657C19.3051 30.9522 16.4396 29.3334 13.2239 29.3334C12.6464 29.3334 12.0616 29.3866 11.4896 29.4911C10.6188 29.6506 9.76987 29.9549 8.82026 30.4463C8.54896 30.5875 8.36376 30.8551 8.32896 31.1595C8.20976 32.2412 8.22446 33.1523 8.38026 34.025C9.21257 38.744 13.235 42.1668 17.943 42.1668C18.5205 42.1668 19.1053 42.1136 19.6773 42.0091C20.1448 41.9229 20.6086 41.7873 21.0835 41.6113V43.0835C21.0835 43.5895 21.4942 44.0002 22.0002 44.0002C22.5062 44.0002 22.9168 43.5895 22.9168 43.0835V41.6113C23.3917 41.7873 23.8555 41.923 24.323 42.0091C24.895 42.1136 25.478 42.1668 26.0574 42.1668C30.7654 42.1668 34.7877 38.744 35.62 34.0286C35.7757 33.1522 35.7922 32.241 35.6712 31.1612ZM21.0596 39.6422C20.4546 39.9227 19.9009 40.1042 19.3473 40.205C18.8835 40.2912 18.4105 40.3333 17.943 40.3333C14.126 40.3333 10.8645 37.5448 10.1862 33.7058C10.0853 33.1393 10.0597 32.5435 10.1073 31.8578C10.7123 31.5773 11.266 31.3958 11.8197 31.295C16.0895 30.5048 20.2218 33.4803 20.9827 37.7942C21.0816 38.3607 21.1091 38.9565 21.0596 39.6422ZM13.7501 12.8333V11H30.2501V12.8333H29.3334H14.6667H13.7501ZM22.0001 25.6667C18.4618 25.6667 15.5834 22.7884 15.5834 19.25V14.6667H28.4167V19.25C28.4167 22.7883 25.5384 25.6667 22.0001 25.6667ZM33.8141 33.7077C33.1358 37.5467 29.8743 40.3334 26.0573 40.3334C25.5898 40.3334 25.1168 40.2912 24.6511 40.2051C24.0974 40.1043 23.5438 39.9246 22.9388 39.6423C22.8911 38.9566 22.9168 38.3608 23.0176 37.7925C23.6978 33.9535 26.9593 31.1668 30.7763 31.1668C31.2438 31.1668 31.7168 31.209 32.1825 31.2951C32.7362 31.3959 33.2898 31.5756 33.8948 31.8579C33.9424 32.5435 33.9149 33.1393 33.8141 33.7077Z" fill="#9FE870"/>
</g>
<defs>
<clipPath id="clip0_0_2570">
<rect width="44" height="44" fill="white"/>
</clipPath>
</defs>
</svg>
