<svg width="64" height="64" viewBox="0 0 64 64" fill="none" xmlns="http://www.w3.org/2000/svg">
<g clip-path="url(#clip0_1_27375)">
<path d="M62.8902 28.2857H58.4361L56.3618 26.3719L58.0897 23.767C58.2615 23.5085 58.3174 23.1898 58.2431 22.8884C58.1688 22.5865 57.9721 22.3301 57.7 22.1806L54.9607 20.6738L56.0111 17.7285C56.1152 17.4364 56.0924 17.1139 55.9477 16.8391C55.8035 16.5649 55.551 16.3632 55.2507 16.283L52.2301 15.4787L52.5445 12.3692C52.5759 12.0608 52.4767 11.7535 52.2708 11.5215C52.0654 11.2895 51.7721 11.154 51.4626 11.1481L48.3375 11.0874L47.9028 7.99254C47.8594 7.68522 47.6898 7.41043 47.435 7.23373C47.1797 7.05758 46.8627 6.9958 46.5597 7.06409L43.5098 7.75026L42.3462 4.84838C42.2302 4.56003 41.9998 4.33402 41.7093 4.22399C41.4193 4.11342 41.0963 4.13023 40.8188 4.26898L38.0226 5.66897L36.1944 3.13186C36.0128 2.88037 35.7343 2.71614 35.4264 2.67928C35.1185 2.64243 34.8096 2.73565 34.5733 2.93673L32.1955 4.96491L29.8178 2.93673C29.582 2.73565 29.2725 2.64243 28.9646 2.67928C28.6568 2.71614 28.3782 2.88037 28.1972 3.13186L26.3684 5.66897L23.5728 4.26844C23.2953 4.12968 22.9723 4.11342 22.6823 4.22345C22.3918 4.33348 22.1609 4.56003 22.0454 4.84784L20.8818 7.75026L17.8324 7.06355C17.5295 6.99525 17.2124 7.05704 16.9571 7.23373C16.7018 7.40989 16.5322 7.68522 16.4894 7.992L16.0541 11.0868L12.9295 11.1475C12.62 11.1535 12.3268 11.289 12.1214 11.521C11.9154 11.753 11.8162 12.0603 11.8476 12.3687L12.1609 15.4787L9.14034 16.2836C8.84061 16.3632 8.58804 16.5649 8.44386 16.8397C8.29915 17.1139 8.27639 17.4364 8.38045 17.7291L9.43031 20.6738L6.69157 22.1806C6.41948 22.3301 6.22274 22.5865 6.14848 22.8879C6.07477 23.1892 6.13005 23.5079 6.30133 23.7665L8.02977 26.3719L5.95499 28.2857H1.11002C0.497017 28.2857 0 28.7827 0 29.3957C0.00216801 33.6 0.857991 37.7599 2.51652 41.6233C4.13548 45.4222 6.46013 48.8796 9.36798 51.8124C15.4731 57.9923 23.5105 61.3956 31.9999 61.3956C40.4898 61.3956 48.5272 57.9923 54.6323 51.8124C57.5396 48.8796 59.8648 45.4222 61.4837 41.6233C63.1417 37.7599 63.9981 33.6 64.0003 29.3957C64.0003 28.7827 63.5032 28.2857 62.8902 28.2857ZM10.4021 25.9328L8.81785 23.5448L11.3289 22.1627C11.8065 21.9003 12.0227 21.3302 11.8395 20.8169L10.8764 18.1177L13.646 17.3806C14.1728 17.2402 14.5197 16.7383 14.465 16.1963L14.1766 13.3432L17.0433 13.2879C17.5885 13.2771 18.0449 12.8722 18.1208 12.3324L18.5197 9.49335L21.3159 10.1226C21.8476 10.2424 22.3874 9.95893 22.5901 9.45324L23.6568 6.79309L26.2189 8.07601C26.7056 8.31991 27.298 8.17465 27.6161 7.73292L29.2926 5.40718L31.4747 7.26842C31.8898 7.62235 32.5001 7.62235 32.9153 7.26842L35.0974 5.40718L36.7738 7.73292C37.092 8.17465 37.6844 8.31991 38.1711 8.07655L40.7337 6.79363L41.8004 9.45324C42.0031 9.95893 42.5429 10.2429 43.0746 10.1232L45.8713 9.49389L46.2703 12.3329C46.3461 12.8727 46.8025 13.2776 47.3478 13.2885L50.2144 13.3437L49.9261 16.1963C49.8713 16.7388 50.2182 17.2407 50.7445 17.3811L53.5141 18.1182L52.5515 20.8174C52.3689 21.3307 52.5851 21.9003 53.0621 22.1627L55.5727 23.5442L53.9884 25.9323C53.687 26.3865 53.7602 26.9919 54.1607 27.3616L55.1618 28.2857H49.5423C49.0366 19.1611 41.4497 11.882 32.1955 11.882C22.9414 11.882 15.3544 19.1611 14.8482 28.2857H9.22869L10.2298 27.3621C10.6303 26.9925 10.7035 26.387 10.4021 25.9328ZM38.9028 28.2857C38.2389 24.8841 35.2584 22.4293 31.7923 22.4293C28.3267 22.4293 25.3462 24.8841 24.6817 28.2857H17.0731C17.5772 20.4071 24.1668 14.102 32.1955 14.102C40.2242 14.102 46.8139 20.4071 47.3185 28.2857H38.9028ZM36.6204 28.2857H26.9647C27.5825 26.1323 29.5522 24.6483 31.7928 24.6483C34.0329 24.6483 36.0026 26.1323 36.6204 28.2857ZM59.4415 40.7528C57.9314 44.2948 55.764 47.5181 53.0529 50.2525C47.3684 56.0064 39.892 59.1755 32.0004 59.1755C24.1088 59.1755 16.6319 56.0064 10.9474 50.2525C8.23628 47.5181 6.06881 44.2948 4.55879 40.7528C3.16638 37.5079 2.38102 34.0342 2.24118 30.5057H61.7585C61.6192 34.0342 60.8339 37.5079 59.4415 40.7528Z" fill="currentColor"/>
</g>
<defs>
<clipPath id="clip0_1_27375">
<rect width="64" height="64" fill="currentColor"/>
</clipPath>
</defs>
</svg>
