<svg width="40" height="40" viewBox="0 0 40 40" fill="none" xmlns="http://www.w3.org/2000/svg">
<g clip-path="url(#clip0_1_25200)">
<path d="M36.5726 3.16446C35.2923 1.88422 33.6888 0.901568 31.9354 0.32274C31.1769 0.0725838 30.3959 0.638678 30.3959 1.43571V9.10797H26.0984V1.43571C26.0984 0.637037 25.3157 0.0730525 24.559 0.32274C22.8555 0.885006 21.3208 1.84118 19.9975 3.16446C16.7042 6.45774 15.6758 11.4105 17.3721 15.7348L1.37419 31.7328C-0.45792 33.5648 -0.458232 36.5306 1.37427 38.3629C3.20638 40.1951 6.17185 40.1952 8.00427 38.3629C8.0881 38.2791 23.4533 22.9138 24.0022 22.3649C28.3135 24.0561 33.2695 23.0427 36.5726 19.7395C41.1424 15.1698 41.1424 7.73422 36.5726 3.16446ZM21.6551 4.82196C22.2979 4.17915 23.0002 3.64516 23.7544 3.22477V9.1079H19.2086C19.6183 7.52055 20.444 6.03305 21.6551 4.82196ZM6.34677 36.7053C5.43067 37.6214 3.94794 37.6216 3.03177 36.7053C2.1156 35.7891 2.11552 34.3065 3.03169 33.3903L9.56989 26.8521L12.885 30.1672L6.34677 36.7053ZM34.9151 18.082C32.1095 20.8877 27.8204 21.6244 24.2422 19.9151C23.7941 19.701 23.2594 19.7927 22.9083 20.1438L14.5425 28.5097L11.2274 25.1946L19.5932 16.8289C19.9444 16.4777 20.0361 15.9431 19.822 15.4949C19.2059 14.2053 18.9076 12.8236 18.9093 11.452H31.5679C32.2152 11.452 32.74 10.9273 32.74 10.28V3.21071C33.5438 3.64305 34.28 4.18688 34.9151 4.82204C38.571 8.47782 38.571 14.4263 34.9151 18.082Z" fill="currentColor"/>
<path d="M27.1369 13.7705C26.4896 13.7705 25.9648 14.2953 25.9648 14.9425V17.2866C25.9648 17.9339 26.4896 18.4586 27.1369 18.4586C27.7841 18.4586 28.3089 17.9339 28.3089 17.2866V14.9425C28.3089 14.2953 27.7842 13.7705 27.1369 13.7705Z" fill="currentColor"/>
<path d="M31.8283 13.7705C31.181 13.7705 30.6562 14.2953 30.6562 14.9425V17.2866C30.6562 17.9339 31.181 18.4586 31.8283 18.4586C32.4755 18.4586 33.0003 17.9339 33.0003 17.2866V14.9425C33.0003 14.2953 32.4756 13.7705 31.8283 13.7705Z" fill="currentColor"/>
</g>
<defs>
<clipPath id="clip0_1_25200">
<rect width="40" height="40" fill="currentColor"/>
</clipPath>
</defs>
</svg>
