<svg width="96" height="96" viewBox="0 0 96 96" fill="none" xmlns="http://www.w3.org/2000/svg">
<g opacity="0.5">
<path d="M94.28 90.4676C94.0977 90.4561 93.8927 90.4332 93.6762 90.4103C93.4598 90.3302 93.232 90.3074 92.9928 90.3646C92.7536 90.3188 92.4916 90.4676 92.2296 90.3188C91.9562 90.3989 91.6828 90.0441 91.3866 90.273C91.0905 90.0899 90.7829 90.3188 90.4754 90.2272C90.1564 90.1357 89.8261 89.8496 89.4843 90.1815C89.1426 89.8496 88.7895 90.2044 88.425 90.1357C88.0605 90.1014 87.6846 89.6665 87.3087 90.0899C86.9214 90.0213 86.5341 90.0899 86.124 90.0556C85.7253 90.2616 85.3038 89.8382 84.8824 90.0213C84.4609 90.067 84.028 89.8382 83.5838 89.9869C83.1395 90.1243 82.6953 90.0213 82.2283 89.9526C82.1257 89.9526 82.0118 89.964 81.9093 89.9869C81.9093 89.8839 81.9093 89.758 81.9093 89.6321C81.9093 89.5063 81.8979 89.3689 81.8865 89.2087C81.8865 89.06 81.8524 88.8997 81.8296 88.7281C81.8068 88.6136 81.7954 88.4992 81.7726 88.3733C81.7498 88.2589 81.7157 88.133 81.6815 87.9957C81.6815 87.8583 81.6587 87.721 81.6132 87.5837C81.5676 87.4463 81.5106 87.309 81.4195 87.1946C81.3739 87.0458 81.2828 86.9199 81.2031 86.7826C81.1119 86.6452 81.0436 86.5079 81.0208 86.3248C80.7816 86.0845 80.8841 85.5924 80.474 85.4322C80.4399 85.2262 80.3032 85.1003 80.1665 84.963C80.0298 84.8256 79.8703 84.7226 79.7678 84.5395C79.6653 84.3679 79.5855 84.1619 79.4602 83.9902C79.3349 83.8186 79.1641 83.6927 78.9021 83.6812C78.8451 83.418 78.6629 83.2921 78.4692 83.2006C78.2756 83.0976 78.0478 83.0404 77.8883 82.8916C77.7174 82.7542 77.5807 82.5368 77.4099 82.3652C77.239 82.2049 77.034 82.0791 76.7264 82.1706C76.3391 81.9074 75.8721 81.7586 75.4392 81.5412C75.2 81.5412 75.0064 81.4267 74.8241 81.3123L74.8469 81.278L74.9152 81.1864L75.0519 80.9919C75.1317 80.866 75.2114 80.7287 75.2683 80.5799C75.5076 80.0077 75.8835 79.5156 76.0315 78.9205C76.2822 78.3712 76.6125 77.8676 76.772 77.2954C77.1707 76.8377 77.3643 76.2883 77.4896 75.7161C77.7744 75.224 77.8997 74.6633 78.1844 74.1826C78.3553 73.6562 78.7198 73.2328 78.8565 72.6949C78.9818 72.1685 79.016 71.6077 79.4944 71.2644C79.7222 70.8066 79.7222 70.2459 80.1095 69.8911C80.1551 69.3647 80.3146 68.9184 80.6905 68.575C80.7702 68.0944 81.2145 67.7968 81.2373 67.3162C81.317 66.8584 81.5904 66.5036 81.7498 66.126C81.9435 65.7483 82.3422 65.4966 82.2283 65.0045C82.5244 64.7069 82.513 64.2835 82.6725 63.9516C83.0142 63.7113 82.9573 63.2879 83.0826 62.9674C83.8458 61.1249 84.3925 59.7402 84.6773 58.8704C84.7115 58.8704 84.7571 58.8704 84.8026 58.8704C85.0988 58.8132 85.3722 58.7331 85.6684 58.7102C85.9417 58.5729 86.2151 58.5042 86.4999 58.4585C86.648 58.4356 86.7847 58.4012 86.9214 58.3669C87.0581 58.3211 87.1947 58.2753 87.3314 58.2181C87.9238 58.1495 88.5275 57.9892 88.8464 57.4285C89.1312 57.3484 89.359 57.1767 89.5755 57.0051C89.8033 56.8334 89.9742 56.6045 90.1564 56.3985C90.2134 56.2612 90.2931 56.1353 90.3614 56.0209C90.4412 55.9064 90.5209 55.8034 90.6234 55.7119C90.7146 55.6203 90.8171 55.5288 90.931 55.4487L91.2386 55.174C91.4208 54.968 91.5803 54.7506 91.6942 54.5102C91.7512 54.3958 91.8195 54.2814 91.8878 54.1555L91.9904 53.9838L92.0815 53.8121C92.2865 53.629 92.3777 53.3658 92.4232 53.1026C92.4688 52.8394 92.4916 52.5762 92.651 52.3702C92.7877 52.1528 92.913 51.9124 92.9928 51.6721C93.0042 51.6149 93.0269 51.5462 93.0383 51.489C93.0383 51.4203 93.0383 51.3631 93.0383 51.2944C93.0383 51.1686 93.0042 51.0312 92.9472 50.9053C93.0156 50.7909 93.0839 50.6765 93.1295 50.562C93.1636 50.4361 93.1864 50.3217 93.1864 50.1958C93.1864 50.0699 93.1864 49.9555 93.1522 49.8296C93.1295 49.7037 93.0839 49.5893 93.0155 49.4748C93.0383 49.2345 93.0156 49.0056 93.0042 48.7767C92.97 48.5479 92.9016 48.319 92.8561 48.1015C92.7991 47.9985 92.7536 47.8956 92.7308 47.7811C92.6966 47.6781 92.6738 47.5637 92.651 47.4607C92.6055 47.2432 92.5941 47.0144 92.5257 46.8198C92.2751 46.671 92.1043 46.5223 92.0245 46.3277C91.9904 46.2362 91.9562 46.1332 91.9562 46.0187C91.9562 45.9043 91.9676 45.7898 92.0131 45.6525C91.6714 45.355 91.3525 45.1146 91.3866 44.6225C91.2613 44.4738 91.0905 44.3593 90.9538 44.2334C90.8171 44.1076 90.7146 43.9588 90.669 43.7413C90.5551 43.604 90.4412 43.4552 90.3159 43.3294C90.1906 43.192 90.0425 43.1005 89.8944 43.0089C89.6324 43.0433 89.5641 42.8716 89.4843 42.7114C89.4046 42.5512 89.3249 42.3795 89.097 42.4138C88.7667 42.3337 88.5844 42.0591 88.3111 41.9561C88.2427 41.9332 88.1744 41.8988 88.106 41.876C88.0377 41.8531 87.9693 41.8302 87.901 41.8073C87.7643 41.7615 87.6504 41.7043 87.5479 41.6127C87.4112 41.258 86.9897 41.6127 86.8302 41.3724C86.7163 41.3266 86.6138 41.2923 86.4999 41.258C86.386 41.2351 86.2835 41.2236 86.1696 41.2122C85.9645 41.1779 85.7709 41.1435 85.5886 41.1207C85.3152 41.1092 85.0646 41.0978 84.8596 41.0978C84.6546 41.0978 84.4723 41.1321 84.3356 41.1435C84.0508 41.1893 83.9027 41.2351 83.9027 41.3038C83.9027 41.3724 84.0508 41.4296 84.3128 41.4983C84.4495 41.5326 84.609 41.567 84.8026 41.6127C84.9963 41.67 85.2127 41.7272 85.4519 41.7959C85.6114 41.8416 85.7823 41.9103 85.9645 41.979C86.0443 42.0476 86.1354 42.0934 86.2265 42.1277C86.3176 42.1735 86.4202 42.1964 86.5227 42.2078C86.7049 42.3223 86.9783 42.2536 87.1264 42.5054C87.2517 42.5168 87.3314 42.6427 87.4112 42.7343C87.4567 42.78 87.5023 42.8258 87.5593 42.8602C87.6162 42.8945 87.6732 42.9059 87.7643 42.8945C87.8782 43.192 88.2427 43.1119 88.4022 43.3637C88.4819 43.4781 88.5389 43.6384 88.63 43.7528C88.7097 43.8672 88.8237 43.9588 89.0401 43.9359C89.0401 44.1533 89.154 44.2449 89.2793 44.325C89.4046 44.4051 89.5641 44.4738 89.6438 44.6111C89.7463 44.737 89.7349 44.943 89.7805 45.1032C89.8261 45.2634 89.9172 45.3893 90.1906 45.4007C90.2931 45.7212 90.5551 45.9615 90.6462 46.2934C90.726 46.3506 90.7829 46.4193 90.8057 46.4994C90.8399 46.5795 90.8513 46.671 90.8513 46.7626C90.8513 46.9457 90.8513 47.1288 91.0107 47.2661C91.1019 47.4263 91.0791 47.6209 91.1019 47.804C91.1019 47.8956 91.1132 47.9871 91.136 48.0787C91.1474 48.1702 91.1816 48.2618 91.2272 48.3419C91.3183 48.5135 91.3639 48.7081 91.3639 48.8912C91.3639 49.0857 91.3183 49.2803 91.3069 49.4748C91.3069 49.5664 91.3183 49.6694 91.3411 49.7609C91.3525 49.8639 91.3752 49.9555 91.3866 50.0585C91.3866 50.1615 91.398 50.2645 91.3866 50.356C91.3525 50.4476 91.2955 50.5506 91.2044 50.6307C91.2386 50.7337 91.2385 50.8367 91.2158 50.9397C91.2158 50.9855 91.193 51.0427 91.1816 51.0885C91.1588 51.1342 91.136 51.18 91.1133 51.2258C91.0221 51.4089 90.9196 51.592 90.9196 51.8094C90.6348 51.9353 90.5551 52.107 90.5209 52.313C90.4868 52.519 90.4753 52.7364 90.4184 52.9424C90.4184 52.9996 90.4184 53.0683 90.4184 53.1255C90.4184 53.1827 90.3842 53.2285 90.3614 53.2743C90.3159 53.3658 90.2475 53.4574 90.1792 53.5375C90.0425 53.7091 89.8489 53.835 89.7235 54.0067C89.6324 54.0639 89.5413 54.144 89.4729 54.2127C89.3932 54.2814 89.3135 54.35 89.2451 54.4416C89.1768 54.5217 89.1084 54.6132 89.0515 54.7048C88.9831 54.7963 88.9262 54.8764 88.8578 54.968C88.7439 55.1625 88.5617 55.2999 88.3566 55.3914C88.1516 55.4944 87.9693 55.6089 87.8099 55.7691C87.4909 56.1239 86.9897 56.1239 86.6138 56.3756L86.2949 56.4786C86.1923 56.513 86.0784 56.5587 85.9645 56.5816C85.7367 56.6274 85.5203 56.7075 85.3038 56.7647C85.076 56.7647 84.8368 56.7991 84.609 56.8105C84.3812 56.8105 84.1533 56.8334 83.9141 56.9021C83.6749 56.9478 83.4357 57.0165 83.1965 57.0279C82.9573 57.0279 82.7295 56.9478 82.5244 56.7647C82.2852 56.7647 82.0688 56.7075 81.841 56.6503C81.7271 56.6274 81.6245 56.5702 81.522 56.5244L81.2145 56.3871C80.7702 56.2726 80.4057 55.9865 80.0184 55.7805C79.7336 55.8149 79.5628 55.6432 79.4147 55.483C79.2552 55.3228 79.1527 55.1053 78.9704 54.9795C78.8793 54.9108 78.7996 54.8421 78.7312 54.7506L78.5262 54.4988C78.4578 54.4187 78.3895 54.3271 78.3098 54.2585C78.2414 54.1784 78.1731 54.0982 78.0819 54.0296C77.9566 53.8579 77.8313 53.6748 77.7402 53.4917C77.6833 53.4002 77.6377 53.3086 77.5807 53.2285C77.5466 53.1827 77.5124 53.1369 77.4896 53.1026C77.4554 53.0568 77.4326 53.0111 77.3985 52.9767C77.3871 52.7479 77.3073 52.5533 77.2276 52.3702C77.1479 52.1871 77.034 52.004 76.8973 51.8438C76.8631 51.6378 76.8061 51.4547 76.7264 51.2601L76.6808 51.1228C76.6808 51.1228 76.6581 51.0198 76.6467 50.974C76.6239 50.871 76.6125 50.7795 76.6125 50.6765C76.5783 50.5849 76.5555 50.4819 76.5442 50.3904C76.5442 50.2874 76.5442 50.1958 76.5442 50.0928C76.5442 49.9898 76.5442 49.8983 76.5442 49.8067C76.5442 49.7152 76.5214 49.6122 76.4986 49.5206C76.453 49.3261 76.3847 49.1315 76.3619 48.937C76.3505 48.7424 76.4075 48.5479 76.5783 48.3876C76.5897 48.2961 76.5897 48.2045 76.5897 48.113C76.5897 48.0214 76.5897 47.9299 76.6011 47.8269C76.6239 47.6438 76.6467 47.4607 76.7948 47.3119C76.772 47.1174 76.7834 46.9228 76.8289 46.7511C76.8517 46.6596 76.8973 46.5909 76.9542 46.5108C77.0112 46.4422 77.0795 46.3735 77.1593 46.3163C77.1593 46.1561 77.2504 46.0531 77.3415 45.9386L77.3757 45.9844V46.0073H77.4099L77.5124 45.9043L77.6377 45.7669C77.9794 45.4007 78.3097 45.0231 78.6515 44.6569L79.0388 44.222C79.1185 44.1419 79.1982 44.0618 79.2894 43.9817C79.3691 43.9016 79.4489 43.81 79.5286 43.7185L79.7906 43.4781C79.9614 43.3065 80.1551 43.1806 80.3487 43.0547L80.4968 42.9632C80.4968 42.9632 80.5993 42.9174 80.6563 42.8945L80.8955 42.7915L80.998 42.7572C81.2259 42.6656 81.4765 42.6198 81.7271 42.5741C81.9777 42.5168 82.251 42.4711 82.5472 42.4253C82.9915 42.2765 83.4243 42.1506 83.8686 42.0247C83.8458 41.9904 83.823 41.9675 83.7888 41.9332L83.5154 41.6242L83.4357 41.5326C83.4357 41.5326 83.5496 41.4983 83.5952 41.4869C83.7774 41.4296 83.88 41.3724 83.88 41.3266C83.88 41.2465 83.5952 41.1779 83.0712 41.1321C82.8548 40.8918 82.6497 40.6514 82.4333 40.4111C82.1941 40.1365 81.9663 39.8618 81.7271 39.5986L81.3398 39.1294C80.6107 38.4084 80.007 37.5959 79.3122 36.8749C78.4123 36.337 78.0136 35.3528 77.3187 34.6662C76.6467 33.9566 76.0885 33.1441 75.3709 32.5032C74.733 31.7937 74.152 31.027 73.4686 30.3975C72.9674 29.585 72.3181 28.9327 71.6118 28.349C71.0423 27.6395 70.3588 27.0559 69.8121 26.3692C69.1742 25.7627 68.7071 25.0188 68.0692 24.458C67.4199 23.9087 66.7137 23.4166 66.3834 22.6155C65.848 21.9976 65.1417 21.5512 64.7658 20.8417C64.1166 20.3725 63.5698 19.8346 63.2053 19.148C62.6129 18.6788 62.3282 17.9464 61.7244 17.5458C61.1549 17.0995 60.779 16.5158 60.312 16.0238C59.8791 15.5088 59.6285 14.8565 58.9792 14.5932C58.6603 14.0325 58.1249 13.7006 57.7262 13.2543C57.487 12.6706 56.9402 12.4074 56.5643 12.0183C54.6962 10.0385 53.204 8.49354 52.156 7.46357C51.8826 7.18891 51.632 6.96003 51.427 6.75404C51.3131 6.6396 51.2105 6.54804 51.1194 6.46793C51.0625 6.41071 50.9827 6.34205 50.9371 6.29627C50.8005 6.17039 50.6752 6.09028 50.584 6.0445C50.5385 5.93006 50.4473 5.78129 50.2879 5.58674C49.9917 5.25486 49.4905 4.80854 48.7045 4.46522C48.5336 4.38511 48.34 4.31644 48.1463 4.25922C47.9527 4.19056 47.7704 3.85868 47.5085 4.09901C47.3832 4.22489 47.2692 4.19056 47.1553 4.13334C47.0414 4.06467 46.9275 3.97312 46.8022 4.00745C46.6769 4.23634 46.563 4.22489 46.4377 4.15623C46.3694 4.1219 46.3124 4.07612 46.2441 4.04179C46.1757 4.0189 46.1074 3.99601 46.0504 4.0189C45.9251 4.11045 45.7998 4.1219 45.6631 4.1219C45.5264 4.1219 45.3783 4.1219 45.2416 4.14478C45.0708 4.06467 44.9341 4.11045 44.8088 4.17912C44.6721 4.25922 44.5582 4.33933 44.4101 4.38511C44.2734 4.45377 44.1709 4.5911 44.057 4.68266C43.9431 4.78565 43.8064 4.84287 43.5899 4.78565C43.4419 4.84287 43.3052 4.93443 43.1799 5.02598C43.0546 5.11753 42.9179 5.22053 42.7926 5.33497C42.7242 5.50663 42.5534 5.56385 42.4053 5.64396C42.2686 5.71262 42.1319 5.78129 42.0977 5.96439C41.7674 6.05595 41.6763 6.39927 41.437 6.58238C41.3459 6.9257 40.9244 6.94859 40.7536 7.23469C40.6283 7.32624 40.5372 7.47501 40.446 7.6009C40.3435 7.72678 40.2182 7.84123 40.0929 7.95567C39.9676 7.887 39.8423 7.80689 39.717 7.74967C39.4664 7.63523 39.2158 7.53224 38.9424 7.45213C38.7146 7.30335 38.4868 7.16602 38.2589 7.0287C38.0197 6.90281 37.7805 6.78837 37.5527 6.66248L37.1996 6.49082L36.8351 6.34205C36.5959 6.23905 36.3567 6.13606 36.1174 6.03306C35.0922 5.79273 34.2151 5.27775 33.2469 5.01453C32.1875 5.07176 31.2649 4.93443 30.4105 4.37367C29.4423 4.41944 28.531 4.43089 27.6539 4.09901C27.4261 4.09901 27.2097 4.11045 26.9818 4.1219C26.754 4.13334 26.5376 4.16767 26.3212 4.19056C26.1047 4.21345 25.8883 4.21345 25.6719 4.21345C25.4555 4.21345 25.239 4.202 25.0226 4.15623C24.8062 4.15623 24.6011 4.15623 24.3961 4.19056C24.191 4.21345 23.9746 4.23634 23.7696 4.25922C23.3595 4.305 22.9608 4.38511 22.5735 4.49955C22.2204 4.75132 21.8331 4.77421 21.4344 4.78565C21.2408 4.78565 21.0471 4.78565 20.8535 4.83143C20.6712 4.87721 20.489 4.94587 20.3295 5.07176C20.1586 5.16331 19.9878 5.23197 19.8169 5.27775C19.646 5.33497 19.4752 5.39219 19.3043 5.44941C19.1334 5.50663 18.9626 5.55241 18.8031 5.59818C18.7234 5.62107 18.6322 5.6554 18.5525 5.68974C18.4728 5.72407 18.393 5.7584 18.3133 5.79273C18.0057 5.95295 17.7096 6.10172 17.4134 6.23905C17.1286 6.38783 16.8325 6.52516 16.5363 6.62815C16.1946 6.65104 15.9553 6.84559 15.7275 7.04014C15.4997 7.24613 15.2833 7.44068 14.9985 7.50935C14.7593 7.64668 14.5315 7.79545 14.3036 7.95567C14.1897 8.03578 14.0872 8.10444 13.9847 8.18455C13.8822 8.26466 13.7797 8.34477 13.6885 8.42487C13.4949 8.57365 13.3012 8.72242 13.1076 8.85975C13.0165 8.92841 12.9253 8.99708 12.8342 9.06574C12.7431 9.13441 12.6633 9.21452 12.5836 9.28318C12.333 9.50062 12.1052 9.69517 11.8888 9.87827C11.6723 10.0614 11.4787 10.2559 11.3078 10.4276C11.1256 10.5993 10.9661 10.7595 10.818 10.9082C10.6699 11.057 10.5446 11.2058 10.4307 11.3317C10.0092 11.8009 9.8042 12.0755 9.81559 12.1442V12.1671C9.75864 12.3616 11.8546 14.6962 15.5681 18.6445C15.9895 19.0908 16.4338 19.56 16.8894 20.0406C17.2311 20.3954 17.4704 20.8875 17.8576 21.2423C17.7665 21.3338 17.6754 21.4483 17.5615 21.5741C17.4476 21.7115 17.3337 21.8831 17.2084 22.0777C17.0831 22.2608 16.935 22.4668 16.8097 22.6957C16.6844 22.936 16.5477 23.1878 16.411 23.4624C16.3313 23.5997 16.2743 23.7485 16.2173 23.8973C16.1604 24.0461 16.092 24.2063 16.0351 24.3665C15.9781 24.5153 15.9098 24.6526 15.8642 24.8128C15.8187 24.9616 15.7731 25.1218 15.7275 25.282C15.682 25.4422 15.5681 25.591 15.4769 25.7627C15.3972 25.9229 15.363 26.106 15.4769 26.312C15.6022 26.518 15.5453 26.6896 15.4541 26.8728C15.363 27.0559 15.2833 27.239 15.3061 27.445C15.5225 27.6509 15.4769 27.8455 15.3972 28.0515C15.3175 28.246 15.2035 28.4635 15.2263 28.6695C15.2947 28.8755 15.3061 29.0929 15.2833 29.3103C15.2833 29.5278 15.2605 29.7452 15.2833 29.9741C15.2035 30.2144 15.2035 30.4433 15.2833 30.6607C15.3516 30.8896 15.4428 31.1071 15.4655 31.3359C15.4997 31.4504 15.5339 31.5648 15.5908 31.6678C15.6478 31.7708 15.7047 31.8853 15.7503 31.9997C15.8414 32.2171 15.8984 32.4575 15.8073 32.7436C15.8642 32.9839 15.9553 33.2242 16.0465 33.4531C16.1376 33.6934 16.2287 33.9338 16.3426 34.1626C16.5249 34.3572 16.5819 34.6204 16.6616 34.8836C16.6844 34.9523 16.6958 35.0209 16.7185 35.0782C16.7413 35.1354 16.7755 35.2041 16.8097 35.2613C16.878 35.3757 16.9578 35.4902 17.0717 35.5703C17.1058 35.7076 17.1628 35.8335 17.2311 35.9594C17.2653 36.0166 17.2995 36.0738 17.3337 36.131C17.3792 36.1882 17.4134 36.234 17.459 36.2912C17.6412 36.4972 17.8349 36.7032 17.9829 36.9321C18.0399 36.9779 18.0969 37.0237 18.1424 37.0694C18.1994 37.1152 18.2449 37.161 18.2905 37.2182C18.3816 37.3212 18.4614 37.4356 18.5411 37.5501C18.6208 37.6645 18.7006 37.7904 18.7917 37.9049C18.8373 37.9621 18.8828 38.0193 18.9284 38.0651C18.9854 38.1109 19.0423 38.1566 19.0993 38.2024C19.2929 38.4198 19.5321 38.5801 19.7713 38.7632C19.8852 38.8547 20.0105 38.9348 20.1245 39.0378C20.2384 39.1294 20.3409 39.2324 20.432 39.3697C20.5687 39.4384 20.6712 39.5414 20.7737 39.6558C20.8763 39.7702 20.9788 39.8847 21.0927 39.9991C21.3091 40.2166 21.5597 40.4111 21.9356 40.3768C22.1748 40.5713 22.4482 40.7201 22.733 40.8574L22.9494 40.9604C23.0178 40.9833 23.0975 41.0062 23.1772 41.0405C23.3253 41.0863 23.4734 41.1321 23.6215 41.1779C23.781 41.2008 23.9291 41.2465 24.0771 41.2923C24.2252 41.3381 24.3733 41.3839 24.5214 41.4525C24.6695 41.5098 24.8176 41.567 24.9656 41.6242C25.1137 41.6814 25.2618 41.7386 25.4213 41.7615C25.7288 41.876 26.0592 41.876 26.3781 41.8874C26.7085 41.8874 27.0274 41.8874 27.335 42.0705C27.6653 42.0705 27.9843 42.1163 28.3146 42.1621C28.4855 42.185 28.6449 42.1964 28.8158 42.1964C28.9867 42.1849 29.1461 42.1506 29.3056 42.0934C29.9549 41.8988 30.6156 41.876 31.299 41.8416C31.6408 41.8302 31.9711 41.7386 32.2901 41.6356C32.609 41.5212 32.9052 41.3724 33.2355 41.2923C33.3039 41.2465 33.3836 41.2008 33.4519 41.1664C33.5203 41.1321 33.6 41.0863 33.6684 41.052C33.8165 40.9833 33.9759 40.9261 34.124 40.8689C34.2835 40.8117 34.4316 40.7544 34.591 40.7087C34.7391 40.64 34.8872 40.5599 35.0239 40.4683L35.2631 40.3997L35.3884 40.3653C35.3884 40.3653 35.434 40.3424 35.4682 40.331L35.5593 40.2852C35.6846 40.228 35.8213 40.1593 35.9466 40.0907C36.0263 40.0449 36.0947 39.9991 36.1744 39.9534C36.8806 40.6629 37.7008 41.2923 38.3159 42.1392C39.193 42.883 39.6259 44.0961 40.765 44.634C41.1409 45.0918 41.551 45.5266 41.9724 45.9501C42.1889 46.156 42.4053 46.362 42.6217 46.568C42.8609 46.7855 43.0887 47.0029 43.3279 47.2318C43.738 47.598 44.1253 47.9528 44.5012 48.3304L44.6493 48.4678L44.7177 48.5364C44.7177 48.5364 44.7632 48.5021 44.786 48.4792L45.0366 48.216L45.5492 47.6896L46.0846 47.1631L46.358 46.8999L46.4719 46.7855L46.5516 46.6939C46.768 46.465 46.9845 46.2247 47.1781 45.9729C47.4059 45.7555 47.5996 45.4923 47.7818 45.2291C47.9641 44.9659 48.1464 44.6912 48.3172 44.4166C48.6476 43.8558 49.0121 43.3294 49.4563 42.8373C49.7753 42.2651 50.1284 41.7157 50.4701 41.1435C50.641 40.8574 50.7891 40.5599 50.9258 40.2623C50.9941 40.1136 51.0625 39.9648 51.1194 39.8046C51.1764 39.6444 51.2219 39.4841 51.2675 39.3239C51.3131 39.1637 51.3586 39.0035 51.4042 38.8433L51.4839 38.6029L51.5523 38.3626C51.6434 38.0422 51.7573 37.7217 51.8712 37.4128C52.0649 36.7719 52.3041 36.131 52.4863 35.4787C52.9078 34.1741 52.9192 32.8008 53.0103 31.4733C52.885 30.1343 53.0331 28.8068 52.8167 27.5022C52.8167 26.1747 52.6458 24.8471 51.9965 23.6913C51.894 23.0504 51.689 22.4439 51.4611 21.8488C51.3358 21.5512 51.1991 21.2651 51.0738 20.979C50.9485 20.6929 50.7891 20.4183 50.641 20.1322C49.9006 19.148 49.4449 18.0494 48.8982 16.9851C49.0576 16.8592 49.2057 16.6646 49.3082 16.5158C49.388 16.3671 49.4563 16.2069 49.6158 16.1496C49.9461 16.0238 50.2423 15.8864 50.2651 15.463C50.4018 15.4401 50.5043 15.3943 50.6068 15.3371C50.6296 15.36 50.6524 15.3943 50.6638 15.4172C50.9941 15.9208 51.1877 16.5616 51.8484 16.8134C52.0193 17.5 52.7141 17.7518 53.1242 18.3011C53.5457 18.8276 53.6824 19.6286 54.4684 19.8804C54.8898 20.4526 55.4252 20.9562 55.8922 21.5398C56.5415 21.9632 56.7352 22.8215 57.3959 23.2793C57.954 23.8286 58.3071 24.5839 58.9678 25.0875C59.6171 25.6025 60.0955 26.3005 60.6081 26.9757C61.1663 27.6166 61.9637 28.0629 62.3168 28.9327C63.0458 29.4591 63.3989 30.3403 64.0824 30.9468C64.3558 31.9196 65.2329 32.3659 65.9049 33.0182C66.7251 33.5332 67.1466 34.4373 67.7845 35.1468C68.3084 35.9708 68.9919 36.6575 69.7095 37.3327C70.4613 37.9735 70.917 38.9005 71.6802 39.5643C72.4434 40.228 72.9446 41.1321 73.6964 41.8302C74.3571 42.6084 75.0291 43.3866 75.7468 44.1419L75.8037 44.222L75.8949 44.3364L76.1341 44.6225L76.2935 44.8056C76.0315 45.046 75.9632 45.4122 75.8037 45.7212C75.7696 45.8127 75.7354 45.9157 75.7126 46.0187C75.6898 46.1217 75.667 46.2247 75.6556 46.3277C75.6101 46.5337 75.5303 46.7283 75.2911 46.877C75.2 47.0716 75.1431 47.289 75.0861 47.5065C75.0633 47.6095 75.0291 47.7239 75.0064 47.8269C74.995 47.9413 74.9722 48.0443 74.9494 48.1588C74.995 48.3991 74.8925 48.6051 74.8127 48.834C74.7444 49.0629 74.6874 49.3032 74.7899 49.5321C74.733 49.6465 74.7216 49.7724 74.7216 49.8868C74.7216 50.0127 74.7216 50.1272 74.7444 50.253C74.7558 50.3675 74.7785 50.4934 74.7899 50.6078C74.8127 50.7337 74.8355 50.8481 74.8469 50.974C74.9038 51.0885 74.938 51.2029 74.9608 51.3288C74.9608 51.386 74.9722 51.4547 74.9836 51.5119C74.9836 51.5691 74.995 51.6378 75.0064 51.695C75.0291 51.9468 75.0405 52.21 75.1544 52.4389C75.2114 52.6906 75.3367 52.9081 75.4506 53.1484C75.5645 53.3773 75.6898 53.6062 75.724 53.8808C75.7582 53.938 75.7923 53.9953 75.8151 54.0525C75.8379 54.1097 75.8721 54.1784 75.8835 54.2356C75.929 54.3615 75.9518 54.4988 75.9974 54.6361C76.0657 54.9108 76.2138 55.1511 76.5555 55.2312C76.6125 55.3571 76.6808 55.483 76.7492 55.5974C76.8289 55.7119 76.9201 55.8149 77.0112 55.9064C77.1023 56.0094 77.2048 56.101 77.3073 56.1925C77.4099 56.2841 77.5238 56.3642 77.6377 56.4443C77.8883 56.5702 78.0819 56.7762 78.2984 56.9478C78.3439 56.9822 78.3781 57.0279 78.4237 57.0623L78.2528 57.2912L78.1844 57.3941C78.1844 57.3941 78.1503 57.4399 78.1389 57.4514C78.0136 57.6116 77.9452 57.7832 78.0136 58.035C77.5466 58.2525 77.6946 58.7674 77.4554 59.1222C77.239 59.4884 76.6694 59.6944 76.8631 60.2781C76.6125 60.6557 76.4872 61.102 76.248 61.5026C76.2366 62.0176 75.6443 62.2693 75.5987 62.7958C75.4392 63.265 75.0064 63.6197 74.9266 64.1462C74.8355 64.6726 74.5165 65.096 74.2318 65.5538C73.9926 66.0344 74.0381 66.6524 73.5141 67.0186C73.4458 67.6023 72.9218 67.9685 72.7737 68.5293C72.1358 68.8611 72.2156 69.5363 72.0219 70.0856C72.0219 70.7265 71.4979 71.1385 71.2473 71.6878C70.8486 72.1685 70.6322 72.7407 70.4613 73.3358C70.3133 73.9538 69.8007 74.3886 69.6526 75.0181C69.5045 75.636 69.0261 76.1167 68.8324 76.7347C68.5363 77.3069 68.2515 77.8791 68.0009 78.4856L67.7617 78.9205L67.7047 79.0235V79.0464L67.6705 79.1036L67.625 79.2066L67.4313 79.63L67.2605 80.0191C66.7365 79.8246 66.2125 80.1336 65.6999 80.248C65.1303 80.5799 64.4811 80.3853 63.866 80.5227C63.2167 80.4883 62.6015 80.7058 62.0092 80.9804C61.7244 81.1406 61.4055 81.2093 61.0865 81.2894C60.7676 81.381 60.4486 81.4611 60.1639 81.6671C59.6171 82.0562 58.8995 82.1592 58.3641 82.6169C57.7718 82.9717 57.1908 83.3837 56.6896 83.8872C56.1315 84.3335 55.5961 84.8485 55.243 85.5123C55.1632 85.6839 55.0949 85.8556 55.0265 86.0273C54.9582 86.1989 54.8898 86.3706 54.8101 86.5308C54.662 86.8627 54.4798 87.1717 54.2064 87.4578C54.1836 87.5493 54.1608 87.6409 54.138 87.721L54.0697 87.9842C54.0241 88.1559 53.9672 88.3275 53.933 88.5106C53.8874 88.6823 53.8305 88.854 53.7963 89.0371L53.7393 89.3003V89.3689L53.7052 89.4605C53.6938 89.5292 53.6824 89.5978 53.671 89.6665C53.671 89.8038 53.6596 89.9526 53.6482 90.0899C53.3407 90.17 53.0217 90.2044 52.7255 90.0098C52.2813 90.0098 51.8484 90.2272 51.427 90.0441C51.0055 90.2272 50.5954 90.273 50.1853 90.0785C49.7753 90.2044 49.388 89.9297 49.0007 90.1128C48.6134 90.2387 48.2375 90.1357 47.8844 90.1586C47.5198 90.1471 47.1667 89.8839 46.825 90.2044C46.4833 90.067 46.1529 90.2501 45.834 90.2501C45.515 90.0441 45.2075 90.2845 44.9113 90.2959C41.9724 90.4561 40.2638 90.6392 40.2638 90.8452C40.2638 91.0283 41.6535 91.2 44.0684 91.3488C44.3418 91.3602 44.6151 91.3831 44.9113 91.3945C45.2075 91.406 45.515 91.715 45.834 91.4403C46.1529 91.1428 46.4833 91.5662 46.825 91.4861C47.1667 91.0398 47.5198 91.5777 47.8844 91.5319C48.2489 91.3945 48.6248 91.5433 49.0007 91.5777C49.388 91.8065 49.7753 91.5776 50.1853 91.612C50.5954 91.5891 51.0055 91.303 51.427 91.6463C51.8484 91.6921 52.2813 91.6806 52.7255 91.6806C53.0103 91.5891 53.2837 91.7035 53.5799 91.7493V91.818C53.5799 91.818 53.614 91.818 53.6254 91.818H54.0583C54.3431 91.8409 54.6392 91.8409 54.924 91.8409C55.243 91.7722 55.5163 91.7379 55.7783 91.7264C55.9606 91.7264 56.0973 91.7264 56.2568 91.7493C56.5643 91.7951 56.8719 91.8752 57.1794 91.8409C57.7604 91.8065 58.3413 91.921 58.9109 91.8409C59.2298 91.9324 59.5374 92.0583 59.8563 91.8523C59.9702 91.8523 60.0841 91.8409 60.198 91.8409C60.46 91.8752 60.722 91.8752 60.9954 91.8637C61.4966 91.9553 61.9864 91.9095 62.4762 91.7951C62.6927 91.818 62.9091 91.8409 63.1255 91.8294C63.4103 91.8866 63.6951 91.8065 63.9799 91.7607C64.0368 91.7607 64.0938 91.7607 64.1507 91.7607C64.2532 91.7493 64.3444 91.7493 64.4469 91.7493C64.5494 91.7608 64.6633 91.7722 64.7658 91.8294C65.324 91.7493 65.8708 92.024 66.4403 91.8294C66.9985 91.6578 67.568 91.7379 68.1376 91.8294C68.7071 91.9668 69.2767 91.7836 69.8348 91.8294C70.393 91.6578 70.9512 91.8752 71.5093 91.8294C72.0561 91.9896 72.6029 92.1155 73.1496 91.8294C73.685 91.9782 74.2318 91.8866 74.7558 91.818C75.2797 91.5548 75.8037 91.6806 76.3277 91.8065C76.8403 91.8523 77.3529 91.7722 77.8655 91.7836C78.3667 92.0125 78.8679 91.6005 79.3577 91.7607C79.8475 91.9095 80.3373 92.024 80.8044 91.7379C81.2828 91.9668 81.7498 91.9782 82.2055 91.715C82.6611 91.7837 83.1168 91.715 83.561 91.6806C84.0053 91.509 84.4381 91.6578 84.8596 91.6463C85.2811 91.2801 85.7025 91.2114 86.1012 91.612C86.4999 91.4174 86.8986 91.2915 87.2859 91.5777C87.6732 91.5319 88.0377 91.303 88.4022 91.5319C88.7667 91.5548 89.1198 91.5777 89.4616 91.4861C89.8033 91.097 90.1336 91.7493 90.4526 91.4403C90.7715 91.2915 91.0791 91.4403 91.3639 91.3945C91.66 91.3373 91.9334 91.2801 92.2068 91.3488C92.4802 91.6005 92.7308 91.1428 92.97 91.303C93.2092 91.3144 93.437 91.2801 93.6535 91.2458C93.8699 91.2229 94.0749 91.2114 94.2572 91.1886C95.3849 91.0856 96 90.9597 96 90.8452C96 90.7308 95.3849 90.6049 94.2572 90.5019L94.28 90.4676ZM34.4771 38.5228H34.4316C34.4316 38.5228 34.3974 38.5228 34.386 38.5228H34.3518L34.2607 38.5915C34.2038 38.6258 34.1468 38.6716 34.0898 38.7059L33.7139 38.9005L33.3266 39.0607C33.2013 39.1179 33.0646 39.1752 32.9393 39.2324C32.871 39.2667 32.814 39.2896 32.7457 39.3239L32.5521 39.404C32.2673 39.4727 31.9939 39.5528 31.7319 39.6215C31.4471 39.6787 31.1737 39.7588 30.9117 39.8732C30.3764 40.0907 29.8068 40.3882 29.2145 40.0907C29.0778 40.125 28.9297 40.1479 28.793 40.1593C28.6449 40.1593 28.5082 40.1593 28.3602 40.1593C28.0754 40.1365 27.7906 40.1365 27.5172 40.0678C27.2325 40.0678 26.9591 40.0335 26.6857 39.9762C26.4123 39.9076 26.1503 39.8389 25.8769 39.8046C25.7174 39.8618 25.5808 39.8504 25.4441 39.8275C25.3074 39.8046 25.1821 39.7474 25.0568 39.6901C24.9315 39.6329 24.8062 39.5643 24.6923 39.4956C24.567 39.4269 24.453 39.3697 24.3163 39.3239C24.191 39.2781 24.0657 39.2324 23.9404 39.1752C23.8835 39.1523 23.8151 39.1179 23.7582 39.095L23.5873 38.992C23.3595 38.8547 23.1203 38.7403 22.8583 38.6716C22.6305 38.5343 22.4254 38.3855 22.209 38.2367C22.1065 38.1681 21.9812 38.0994 21.8787 38.0307C21.7762 37.9621 21.6622 37.8934 21.5483 37.8362C21.4686 37.7218 21.3889 37.6302 21.2977 37.5386C21.2066 37.4471 21.1041 37.367 21.013 37.2869C20.8193 37.1267 20.6029 36.9893 20.3751 36.8749C20.3295 36.8291 20.2839 36.7833 20.2498 36.7376L20.1245 36.6002C20.0333 36.5087 19.9536 36.4286 19.8625 36.337C19.7713 36.2569 19.6802 36.1654 19.6005 36.0738C19.5549 36.028 19.5207 35.9823 19.4752 35.9365C19.441 35.8907 19.4068 35.8335 19.3727 35.7877C19.2018 35.616 19.0651 35.41 18.9398 35.2041L18.8373 35.0553C18.8373 35.0553 18.7803 34.9523 18.7461 34.9065C18.6778 34.8035 18.6095 34.712 18.5297 34.6204C18.4386 34.5403 18.3475 34.4487 18.2677 34.3686C18.2222 34.3229 18.1766 34.2771 18.1424 34.2427C18.1082 34.197 18.0741 34.1512 18.0399 34.1054C17.9146 33.9109 17.8235 33.682 17.8576 33.4188C17.7551 33.2242 17.6298 33.0297 17.5159 32.8237C17.4134 32.6291 17.3109 32.4231 17.3223 32.1828C17.1742 31.9997 17.0603 31.8052 16.9919 31.5992C16.9578 31.4962 16.935 31.3932 16.9236 31.2787C16.9236 31.1643 16.9236 31.0613 16.9578 30.9468C16.8552 30.7523 16.8552 30.5463 16.8438 30.3403C16.8325 30.1343 16.8438 29.9283 16.7299 29.7452C16.6502 29.5507 16.616 29.3561 16.6046 29.1616C16.6046 28.967 16.6274 28.7725 16.6046 28.5894C16.6046 28.3948 16.6616 28.2117 16.7072 28.0286C16.7413 27.8455 16.7413 27.6738 16.5932 27.4793C16.673 27.3076 16.6616 27.136 16.6616 26.9643C16.6616 26.7926 16.6388 26.621 16.6616 26.4493C16.7869 26.3005 16.7983 26.1403 16.7983 25.9801C16.7983 25.8199 16.7755 25.6482 16.7983 25.4995C16.8325 25.3049 16.8666 25.1218 16.9008 24.9387C16.9464 24.767 16.9919 24.5954 17.0375 24.4237C17.0831 24.2521 17.1286 24.0918 17.1742 23.9316C17.2311 23.7714 17.2881 23.6226 17.3337 23.4853C17.3792 23.3365 17.4362 23.1992 17.4817 23.0619C17.5045 22.9932 17.5273 22.9245 17.5501 22.8673C17.5729 22.8101 17.607 22.7414 17.6298 22.6842C17.7323 22.4439 17.8349 22.2265 17.9146 22.0319C17.9943 21.8259 18.0855 21.6657 18.1538 21.5169C18.1766 21.4826 18.1766 21.4597 18.1994 21.4254C18.2449 21.4483 18.2791 21.494 18.3361 21.5169C19.0651 21.8145 19.2929 22.6499 19.8966 23.142C20.0447 23.1763 20.1586 23.245 20.2725 23.3251C20.3181 23.3709 20.3637 23.4166 20.4206 23.4624C20.489 23.554 20.5687 23.6226 20.6598 23.6913C20.9674 24.0689 21.1838 24.5496 21.5597 24.8815C21.8331 25.076 22.0723 25.3049 22.3001 25.5567C22.471 25.8542 22.5394 26.2548 22.9836 26.3234C23.0064 26.3463 23.0292 26.3692 23.0519 26.3921C23.0975 26.6553 23.2798 26.7926 23.4848 26.9071C23.6329 27.1245 23.8151 27.3305 23.9974 27.5136C24.1113 27.7768 24.2366 28.0515 24.6125 28.0744C24.7036 28.1545 24.7948 28.246 24.8859 28.3376C25.1023 28.5665 25.3415 28.7839 25.558 29.0357C26.0136 29.2073 26.0364 29.8253 26.492 30.0313C26.8565 30.3289 27.0274 30.8324 27.4717 31.0613C27.5514 31.1071 27.6197 31.1643 27.6881 31.2215C27.859 31.4046 28.0298 31.5877 28.2121 31.7708C28.3032 31.8967 28.4057 32.0226 28.4969 32.1485C28.6108 32.2744 28.7588 32.3774 28.9069 32.4689C29.0208 32.5834 29.1234 32.6863 29.2373 32.8008C29.3056 32.858 29.374 32.9267 29.4423 32.9839C29.4879 33.064 29.5448 33.1441 29.5676 33.2471C30.0688 33.4874 30.2169 34.094 30.6725 34.3915C30.7409 35.0896 31.3788 35.2155 31.8116 35.5703C31.8572 35.5817 31.8914 35.616 31.9255 35.6389C32.142 35.8678 32.3812 36.0967 32.6204 36.3141C32.7343 36.4743 32.8482 36.646 32.9963 36.7833C33.2925 37.2983 33.7253 37.676 34.2038 38.0193C34.2721 38.0651 34.3291 38.0994 34.386 38.1566C34.4088 38.1795 34.443 38.2024 34.4657 38.2367C34.4885 38.2482 34.4771 38.2482 34.4885 38.2596C34.4999 38.2825 34.4999 38.3054 34.4885 38.3283C34.4885 38.3741 34.443 38.3741 34.5569 38.4084C34.6138 38.4427 34.5227 38.4771 34.4657 38.4771L34.4771 38.5228ZM49.2968 21.7C49.3994 21.9747 49.4905 22.2493 49.5816 22.5354C49.7411 23.1076 49.912 23.6684 50.1398 24.2177C50.1967 24.3551 50.2537 24.4924 50.2992 24.6412C50.3448 24.7785 50.379 24.9273 50.4132 25.076C50.4815 25.3621 50.5499 25.6597 50.5954 25.9572C50.641 26.2548 50.6865 26.5523 50.7321 26.8499C50.7663 27.1474 50.8118 27.445 50.8802 27.7425C51.0169 28.9441 51.0511 30.1572 51.0397 31.3817C50.9485 32.6062 50.7321 33.8079 50.5612 35.0438C50.4929 35.6618 50.3904 36.2798 50.2423 36.8863C50.1512 37.1839 50.0487 37.4814 49.9234 37.7561C49.8892 37.8247 49.855 37.8934 49.8208 37.9621C49.7867 38.0307 49.7411 38.0994 49.7069 38.1681C49.6272 38.3054 49.5361 38.4313 49.4449 38.5572L49.2968 38.992C49.2399 39.1294 49.1829 39.2781 49.1146 39.4155C48.9893 39.6901 48.864 39.9762 48.7273 40.2395C48.4311 40.7773 48.135 41.3038 47.7818 41.7959C47.4971 42.3337 47.1325 42.8144 46.7908 43.3065C46.6086 43.5468 46.4149 43.7757 46.2327 44.016C46.0504 44.2449 45.8681 44.4967 45.6859 44.7141C45.5492 44.9888 45.3897 45.2405 45.2075 45.4808L45.105 45.6182H45.0936C45.0936 45.6182 45.048 45.6754 45.0252 45.6983C44.9796 45.7326 44.9341 45.7669 44.8885 45.8013C44.843 45.8242 44.7974 45.8585 44.7632 45.8814L44.7063 45.9157H44.6835V45.8814C44.6379 45.8242 44.6151 45.7898 44.581 45.7669C44.5924 45.7784 44.524 45.7097 44.4671 45.6525L43.9886 45.1719C43.7836 44.9544 43.5786 44.737 43.3735 44.5195C42.9634 44.0847 42.542 43.6612 42.0863 43.2836C41.2548 42.4482 40.4802 41.567 39.6145 40.8231C39.0221 40.022 38.3045 39.3583 37.5641 38.7403L37.5299 38.6945L37.416 38.5457C37.3363 38.4427 37.2452 38.3512 37.154 38.2482C36.9718 38.0422 36.7781 37.8476 36.5731 37.6531C36.368 37.4585 36.163 37.264 35.958 37.0809L35.8099 36.955L35.7188 36.8863L35.5479 36.749C35.5479 36.749 35.4568 36.7032 35.4112 36.6689C35.2175 36.4858 35.0239 36.3027 34.853 36.1081C34.7163 35.9822 34.591 35.8564 34.4544 35.7305C34.4088 35.6618 34.3632 35.5931 34.3177 35.5245C33.9531 35.0896 33.4975 34.7463 33.1102 34.3457C32.8824 33.785 32.2103 33.6934 31.9369 33.2013C31.6636 32.7092 31.3674 32.2629 30.7978 32.0913C30.5814 31.5648 30.2283 31.1872 29.6929 31.0155C29.3854 30.6035 28.9867 30.306 28.6222 29.9855C28.5652 29.9627 28.531 29.9283 28.4855 29.894C28.4171 29.8139 28.3488 29.7338 28.2804 29.6422C28.1665 29.5621 28.064 29.482 27.9501 29.4019C27.8362 29.2646 27.7223 29.1158 27.5856 28.9899C27.5172 28.9899 27.4603 28.9556 27.3919 28.9441C27.1071 28.6924 26.8452 28.4291 26.6173 28.143C26.6173 28.1087 26.5946 28.0744 26.5946 28.0401C26.5718 28.0401 26.5376 28.0172 26.5148 28.0057C26.4237 27.8913 26.3326 27.7768 26.2528 27.6509C25.5124 27.0902 25.0682 26.2548 24.3277 25.7627C23.6215 25.2362 23.0975 24.561 22.4938 23.9774C21.9242 23.3823 21.5369 22.627 20.7737 22.3066C20.3181 21.6542 19.6688 21.2537 19.1562 20.7387C18.7917 20.075 18.131 19.7545 17.6526 19.2853C15.2377 16.9622 13.3126 15.154 11.9685 13.9295C10.8066 12.8766 10.089 12.2701 9.86115 12.1671C9.97506 12.1213 10.2371 11.9268 10.6585 11.5949C10.7952 11.4919 10.9319 11.366 11.0914 11.2401C11.2509 11.1142 11.4331 10.9769 11.6268 10.8281C11.8204 10.6794 12.0254 10.5077 12.2533 10.3475C12.4811 10.1873 12.7317 10.0156 12.9823 9.82105C13.0734 9.76383 13.1532 9.69517 13.2443 9.63795C13.3354 9.58073 13.4265 9.52351 13.5291 9.45484C13.7227 9.32896 13.9164 9.20307 14.1214 9.07719C14.2353 9.03141 14.3378 8.96275 14.4517 8.90553C14.5656 8.84831 14.6796 8.79108 14.7821 8.72242C15.0099 8.59654 15.2263 8.44776 15.4428 8.28755C15.682 8.16166 15.9212 8.01289 16.1604 7.86411C16.411 7.71534 16.6616 7.56657 16.9691 7.52079C17.2197 7.36057 17.5273 7.28046 17.8349 7.20036C18.1424 7.13169 18.45 7.04014 18.7006 6.79981C18.7803 6.79981 18.8601 6.77693 18.9398 6.75404C19.0195 6.74259 19.0993 6.7197 19.179 6.69682C19.3385 6.65104 19.498 6.58238 19.646 6.51371C19.8055 6.44505 19.9536 6.37638 20.1245 6.31916C20.2839 6.26194 20.4548 6.21616 20.6371 6.19328C20.8079 6.17039 20.9902 6.1475 21.1724 6.13606C21.3547 6.12461 21.5369 6.12461 21.7192 6.10172C22.0837 6.05595 22.4368 5.96439 22.7786 5.74696C23.1772 5.84995 23.5418 5.76984 23.9291 5.70118C24.1227 5.6554 24.305 5.60963 24.4986 5.56385C24.6923 5.51807 24.8859 5.50663 25.0909 5.50663C25.296 5.50663 25.4896 5.52952 25.6947 5.55241C25.8997 5.58674 26.1047 5.63252 26.3098 5.6554C26.5148 5.68974 26.7199 5.68974 26.9249 5.67829C27.1299 5.67829 27.3464 5.62107 27.5514 5.52952C28.3943 5.63252 29.26 5.67829 30.1258 5.84995C30.3536 5.84995 30.57 5.87284 30.7978 5.93006C31.0143 5.98728 31.2307 6.0445 31.4471 6.13606C31.88 6.30772 32.3014 6.46793 32.7685 6.52516C33.6798 6.73115 34.4885 7.30335 35.434 7.53224C35.6732 7.6009 35.901 7.68101 36.1288 7.78401C36.2427 7.82978 36.3567 7.87556 36.4706 7.93278C36.5845 7.99 36.687 8.04722 36.8009 8.11588C37.0173 8.24177 37.2338 8.36765 37.4502 8.49354C37.6552 8.63087 37.8717 8.7682 38.0767 8.91697C38.2248 9.00852 38.3843 9.08863 38.5437 9.16874C38.5096 9.21452 38.4754 9.24885 38.4754 9.28318C38.5779 9.32896 38.7032 9.36329 38.8399 9.39762C38.9994 9.58073 39.2386 9.77528 39.5006 9.95838C39.7626 10.1415 40.0473 10.3131 40.3093 10.4734C40.3891 10.5077 40.4574 10.542 40.5258 10.5764L40.6055 10.6221C40.6055 10.6221 40.6283 10.6336 40.6283 10.645C40.6625 10.6679 40.6966 10.6908 40.7422 10.7137C40.7878 10.748 40.8333 10.7938 40.8789 10.8396C40.9928 10.9655 41.1067 11.1028 41.2434 11.1943C41.3459 11.3431 41.5168 11.3889 41.6876 11.469C41.7332 11.4919 41.7788 11.5262 41.8243 11.5606C41.8471 11.5834 41.8699 11.5949 41.8927 11.6178C41.9041 11.6292 41.9155 11.6407 41.9383 11.6636C41.9838 11.7208 42.0294 11.778 42.0408 11.8695C42.2002 11.9497 42.2914 12.1099 42.4053 12.2472C42.5192 12.3845 42.6331 12.5219 42.8154 12.5676C42.8723 12.5791 42.9179 12.6134 42.9634 12.6363C42.9976 12.6706 43.0318 12.6935 43.066 12.7279C43.1799 13.0025 43.3393 13.2199 43.5102 13.4374C43.6811 13.6548 43.8633 13.8494 44.0684 14.0325C44.2734 14.2156 44.4784 14.3987 44.6835 14.5818C44.7974 14.6848 44.8999 14.7878 45.0138 14.9022C45.0594 15.0739 45.1163 15.2341 45.2075 15.36C45.2986 15.5088 45.4353 15.6118 45.6631 15.6461C45.7087 15.8292 45.7998 15.9665 45.9137 16.0924C45.9707 16.1496 46.039 16.2183 46.096 16.2641C46.1188 16.2755 46.1871 16.3556 46.2327 16.4129L46.3921 16.5845C46.4605 16.6303 46.5174 16.6761 46.5744 16.7218C46.6541 16.8706 46.7453 17.0079 46.825 17.1567C46.9617 17.4085 47.1098 17.6488 47.2579 17.8891C47.7477 18.9306 48.3286 19.9147 48.8982 20.9333C49.0462 21.185 49.1829 21.4483 49.2855 21.7229L49.2968 21.7ZM49.0235 14.1927C48.9437 14.5475 48.4881 14.536 48.34 14.845C48.078 14.7992 47.9413 14.9022 47.8616 15.0396V15.0624L47.8844 15.0853C47.8844 15.0853 47.9071 15.1197 47.9071 15.1311C47.9185 15.1654 47.9299 15.2112 47.9299 15.2341C47.9641 15.3943 47.9071 15.4401 47.8844 15.4172C47.873 15.4172 47.8502 15.3829 47.8388 15.36C47.8388 15.36 47.8388 15.3371 47.8274 15.3371C47.8274 15.3257 47.8274 15.3142 47.816 15.3028C47.816 15.1654 47.816 15.1311 47.816 15.1197C47.816 15.1197 47.7818 15.1311 47.7249 15.1426C47.7135 15.1426 47.6907 15.1426 47.6907 15.1426C47.6907 15.1426 47.6907 15.1426 47.6451 15.0968C47.5996 15.0281 47.554 14.9366 47.5085 14.8565C47.4287 14.6962 47.349 14.5246 47.1781 14.4216C47.0186 14.3186 46.9275 14.1584 46.8364 13.9981C46.7453 13.8379 46.6427 13.6777 46.4947 13.5633C46.2668 13.2772 46.0504 12.9682 45.7542 12.7164C45.5264 12.4074 45.2986 12.0984 44.9683 11.8924C44.843 11.8238 44.7063 11.7665 44.581 11.6979C44.4898 11.5949 44.3759 11.5148 44.2962 11.4003C44.2734 11.366 44.2392 11.3317 44.2051 11.2973C44.1823 11.2401 44.1481 11.1829 44.1367 11.1028C44.0228 11.0341 43.9317 10.954 43.8292 10.8739C43.271 10.2559 42.6445 9.70661 41.9041 9.3404C41.8699 9.28318 41.8243 9.2374 41.7902 9.18018L41.7674 9.1573H41.756V9.12296C41.756 9.12296 41.7446 9.12296 41.7332 9.12296C41.699 9.12296 41.699 9.07719 41.6876 9.06574C41.6876 9.04286 41.6876 9.03141 41.5737 9.03141C41.5737 9.03141 41.5737 9.03141 41.5623 9.01997H41.5851L41.6307 8.98563C41.6307 8.98563 41.6649 8.96275 41.6307 8.91697C41.7332 8.91697 41.756 8.9513 41.7674 8.91697C41.8699 8.80253 41.9496 8.65376 42.018 8.49354C42.28 8.29899 42.4053 7.99 42.6673 7.80689C42.8381 7.53224 43.1571 7.42924 43.2938 7.14314C43.3507 6.99436 43.4077 6.83415 43.4874 6.70826C43.5672 6.59382 43.6697 6.52515 43.8633 6.55949C43.9545 6.47938 44.0228 6.36494 44.0912 6.27339C44.1709 6.18183 44.262 6.09028 44.4101 6.11317C44.4671 5.97584 44.5354 5.8614 44.6379 5.80418C44.7404 5.74696 44.8657 5.72407 45.0024 5.76984C45.0822 5.6554 45.2075 5.66685 45.31 5.6554C45.4239 5.6554 45.5264 5.63252 45.6062 5.51807C45.6973 5.42652 45.7998 5.40363 45.9023 5.38075C46.0048 5.38075 46.1188 5.38075 46.2099 5.35786C46.2554 5.35786 46.3124 5.35786 46.3694 5.38075C46.4149 5.40363 46.4719 5.42652 46.5174 5.42652C46.62 5.44941 46.7111 5.42652 46.8022 5.2663C46.8933 5.33497 46.9959 5.33497 47.087 5.31208C47.1781 5.28919 47.2806 5.24342 47.3718 5.2663C47.5198 5.49519 47.7249 5.27775 47.8957 5.31208C48.7501 5.42652 49.3994 5.71262 49.8322 5.93006C50.06 6.03306 50.2195 6.13606 50.3562 6.18183C50.4018 6.20472 50.4473 6.21616 50.4815 6.21616C50.5271 6.27339 50.5726 6.34205 50.6296 6.4336C50.641 6.46793 50.6524 6.50227 50.6638 6.5366C50.7549 6.70826 50.8688 6.96003 51.0169 7.26902C51.0624 7.37202 51.108 7.48646 51.1536 7.61234C51.1536 7.76112 51.1764 7.89845 51.2903 8.00144C51.3131 8.13877 51.4953 8.24177 51.4042 8.43632C51.4611 8.49354 51.4384 8.59654 51.4042 8.68809C51.37 8.77964 51.3586 8.87119 51.4953 8.92841C51.3586 9.12296 51.6092 9.26029 51.5409 9.45484C51.5181 9.5464 51.427 9.64939 51.3814 9.74094C51.3472 9.8325 51.3586 9.92405 51.5295 10.0156C51.3586 10.1072 51.3586 10.1987 51.3928 10.3017C51.4042 10.3475 51.4384 10.4047 51.4497 10.4505C51.4497 10.4963 51.4611 10.5535 51.4497 10.5993C51.4156 10.7022 51.2903 10.7824 51.2105 10.8739C51.1308 10.9655 51.108 11.057 51.2903 11.2172C51.2333 11.3202 51.1991 11.4118 51.165 11.5262C51.1308 11.6292 51.108 11.7437 51.0397 11.8352C51.0852 11.9725 50.9941 12.0641 50.8916 12.1442C50.7891 12.2243 50.6752 12.2815 50.6979 12.4303C50.6638 12.5447 50.5499 12.6134 50.4587 12.6935C50.3562 12.7622 50.2879 12.8537 50.2537 12.9911C50.2195 13.1284 50.1512 13.2199 50.0486 13.3115C49.9347 13.4031 49.798 13.4717 49.6727 13.5633C49.4563 13.7693 49.4563 14.1927 49.0121 14.1813L49.0235 14.1927ZM75.1431 40.4683C74.5849 39.5986 74.0039 38.7517 73.1154 38.2138C72.5573 37.367 71.8283 36.6918 71.122 36.0051C70.2791 35.4444 69.7323 34.6318 69.1742 33.8422C68.5704 33.0983 67.8756 32.446 67.2719 31.7365C66.8162 30.8896 65.9049 30.4776 65.4151 29.688C64.9139 28.9098 64.4013 28.1774 63.6153 27.7082C63.1939 26.9071 62.6243 26.2548 61.8725 25.797C61.3599 25.1218 60.7448 24.5496 60.1866 23.9545C59.5146 23.4624 59.0931 22.7643 58.5691 22.1807C57.7718 21.8374 57.225 21.3109 57.02 20.4869C56.3707 20.0635 55.7897 19.6058 55.5391 18.8848C55.0379 18.3812 54.4 18.0265 54.1266 17.3627C53.6938 16.8477 53.2837 16.3442 52.7939 15.9322C52.0876 15.7262 52.1674 14.8336 51.5409 14.5932C51.4384 14.5246 51.4156 14.5131 51.37 14.4788C51.3358 14.4559 51.313 14.4216 51.2789 14.3987C51.3586 14.2957 51.4384 14.1813 51.5067 14.0783C51.5523 13.9066 51.6434 13.7693 51.7459 13.6434C51.8484 13.5289 51.9737 13.4145 52.0421 13.2772C51.9623 13.0483 51.951 12.8652 52.0079 12.7393C52.0649 12.602 52.1902 12.5104 52.4294 12.4532C52.4066 12.2815 52.361 12.1099 52.3952 11.9725C52.418 11.8352 52.5091 11.7208 52.68 11.6178C52.6914 11.4804 52.6572 11.3317 52.6572 11.1829C52.6458 11.0456 52.6572 10.9197 52.7939 10.8052C52.8053 10.7366 52.8167 10.6794 52.8394 10.6107C52.8394 10.542 52.8508 10.4848 52.8508 10.4161C52.8508 10.2903 52.8508 10.1644 52.8053 10.0385C52.6116 9.91261 52.6686 9.79816 52.7369 9.67228C52.8053 9.54639 52.885 9.42051 52.7141 9.32896C52.6002 9.20307 52.6116 9.06574 52.6116 8.92841C53.2154 9.68372 53.933 10.542 54.7645 11.5491C55.0835 11.9268 55.4138 12.3273 55.7669 12.7507C56.1201 13.1627 56.2681 13.7922 56.8605 14.0439C57.4756 14.2728 57.5667 15.0281 58.0451 15.4401C58.7969 15.6003 58.8311 16.4586 59.3209 16.9278C59.8677 17.3398 60.2208 17.9578 60.6765 18.5071C60.984 19.1938 61.6333 19.5829 62.1003 20.1665C62.6129 20.7044 63.3306 21.0935 63.604 21.906C64.0938 22.524 64.6292 23.1076 65.1759 23.7142C65.8366 24.2177 66.0986 25.1104 66.8162 25.6025C67.2605 26.3463 67.9667 26.8728 68.5249 27.5594C69.2425 28.0973 69.6298 28.9556 70.2905 29.5736C70.86 30.2831 71.6232 30.8324 72.113 31.6449C72.8079 32.2744 73.0243 33.3501 73.9926 33.7735C74.5393 34.5746 75.2228 35.2613 75.9176 35.9594C76.6808 36.5888 77.2048 37.4585 77.8883 38.191C78.4806 39.0035 79.4261 39.507 79.9045 40.4569C79.9728 40.5256 80.0412 40.5942 80.1095 40.6629L80.2121 40.7659L80.2576 40.8231C80.2576 40.8231 80.2918 40.8689 80.2918 40.8574C80.3146 40.8803 80.3146 40.9147 80.3146 40.9375C80.3146 40.9833 80.3032 41.0062 80.3146 41.0291C80.3032 41.0291 80.3146 41.052 80.326 41.0863C80.326 41.1092 80.326 41.1321 80.3146 41.1435C80.3146 41.1664 80.2804 41.1893 80.269 41.1893H80.2462L80.2007 41.2236L80.0981 41.2694L79.7108 41.4525L79.5286 41.5555C79.278 41.6929 79.016 41.8187 78.7654 41.979L78.3895 42.2078C78.2642 42.2879 78.1503 42.3795 78.025 42.4596C77.8997 42.5397 77.7744 42.6198 77.6605 42.7228L77.5124 42.8487H77.4896C77.4896 42.8487 77.4554 42.9174 77.4326 42.9517V42.9746H77.3985C77.3985 42.9746 77.3757 42.9631 77.3529 42.9517C77.3415 42.9517 77.3187 42.9288 77.3073 42.9174L77.1934 42.78C76.3733 42.1163 75.8493 41.2008 75.1317 40.4798L75.1431 40.4683ZM69.4362 80.0649C69.5273 79.9733 69.5159 79.9733 69.5159 79.939C69.5159 79.939 69.5159 79.9161 69.5159 79.9047V79.8589L69.5728 79.7445C69.6298 79.5957 69.6982 79.4469 69.7779 79.2981C69.9032 78.6344 70.3702 78.1423 70.598 77.5357C71.0195 77.0208 71.4068 76.5058 71.3954 75.8077C71.7941 75.3042 71.9763 74.6976 72.1814 74.114C72.2042 73.4502 72.5801 72.9467 72.9446 72.4546C73.2408 71.9281 73.423 71.3559 73.685 70.8295C74.1406 70.3946 74.0153 69.6965 74.4026 69.2502C74.7785 68.7925 75.1203 68.3347 75.0975 67.7167C75.5303 67.3162 75.781 66.8241 75.7696 66.2404C76.0543 65.7827 76.2138 65.2791 76.4075 64.8099C76.4644 64.2721 76.8175 63.8829 77.0226 63.4366C76.8973 62.8301 77.0453 62.3723 77.6035 62.1206C77.6263 61.6056 77.706 61.1478 78.1503 60.8617C78.2984 60.4383 78.2756 59.9462 78.6743 59.6715C78.8679 59.2939 79.0616 58.9391 79.1527 58.55C79.0616 58.2868 79.1983 58.138 79.3577 58.0007C79.3805 57.9892 79.4033 57.9664 79.4147 57.9549L79.4489 57.932C79.4489 57.932 79.4944 57.9091 79.5058 57.8977C79.5286 57.8748 79.5286 57.829 79.5058 57.7489L79.7108 57.8176C79.8475 57.8634 79.9842 57.9091 80.1095 57.9778C80.2348 58.0465 80.3487 58.138 80.4627 58.241C80.5993 58.2753 80.736 58.3326 80.8727 58.3898C81.0094 58.447 81.1347 58.5271 81.2714 58.5729C81.5448 58.6759 81.8296 58.7789 82.1371 58.7445C82.4447 58.6988 82.7295 58.7331 83.0142 58.7789C83.299 58.8018 83.5952 58.8704 83.8914 58.9277C83.9597 58.9391 84.0167 58.9277 84.085 58.9391C83.6977 59.58 83.1737 60.5069 82.5472 61.6857C82.3991 61.9603 82.251 62.2464 82.0916 62.5554C81.9435 62.8644 81.4992 63.0475 81.6018 63.5053C81.7157 63.9745 81.1689 64.1347 81.0778 64.5238C81.317 65.0731 80.6563 65.2105 80.5196 65.611C80.4627 66.0459 80.1437 66.3778 79.9273 66.7669C79.5286 67.0759 79.54 67.5794 79.3122 67.9914C79.1299 68.4263 79.1755 68.9756 78.6629 69.2846C78.4123 69.708 78.2072 70.1658 77.9908 70.635C77.9111 71.1614 77.3301 71.4704 77.296 72.0426C76.9201 72.4546 76.8517 73.0153 76.5783 73.5074C76.4986 74.0796 76.0088 74.4687 75.8379 75.0181C75.5531 75.5101 75.4962 76.1281 75.0861 76.5745C74.9152 77.1467 74.1748 77.4442 74.3115 78.1766C73.947 78.6687 73.742 79.2409 73.5255 79.8246C73.4913 79.9848 73.4458 80.1221 73.3774 80.2709C73.3433 80.3396 73.3091 80.4082 73.2749 80.4769L73.218 80.5799C73.218 80.5799 73.2066 80.5913 73.1952 80.6028C73.1724 80.6256 73.1496 80.6371 73.1268 80.6485C73.1268 80.6485 73.1041 80.66 73.1041 80.6714C73.1041 80.6714 73.0927 80.6714 73.0927 80.6829C73.0585 80.6485 73.0357 80.6485 73.0129 80.66L72.9674 80.6829H72.956C72.956 80.6829 72.956 80.6943 72.9218 80.6829H72.7965C72.4662 80.6256 72.1358 80.6028 71.8283 80.4082C71.6574 80.4082 71.4979 80.3624 71.3271 80.3281L71.0765 80.2594C70.9967 80.2366 70.917 80.2251 70.8259 80.2022C70.4955 80.1336 70.1538 80.0763 69.8121 80.145L69.6868 80.1679H69.6412V80.1908C69.6412 80.1908 69.5956 80.2137 69.5728 80.2251C69.5273 80.2366 69.4931 80.2366 69.4589 80.2251C69.4248 80.2251 69.402 80.2022 69.3906 80.1793C69.3678 80.1793 69.4248 80.0992 69.4475 80.0649H69.4362ZM55.6302 89.655V89.5749C55.653 89.5063 55.6644 89.4376 55.6872 89.3689C55.7214 89.2316 55.7783 89.0943 55.8239 88.9684C55.8695 88.8311 55.9264 88.7052 55.972 88.5679C55.9948 88.4992 56.0061 88.4305 56.0175 88.3619C56.0289 88.2932 56.0403 88.2245 56.0403 88.1444C56.0859 87.5493 56.4504 87.0458 56.8491 86.6224C57.2819 86.2218 57.5439 85.6839 58.011 85.3177C58.3413 84.7913 58.945 84.6082 59.4121 84.2534C59.993 84.0703 60.5512 83.933 60.9612 83.418C61.5536 83.315 62.0548 83.0289 62.5902 82.7886C63.0686 82.3652 63.6723 82.3423 64.2532 82.3423C64.8228 82.2736 65.3582 82.1019 65.9163 82.0562C66.4859 82.2164 67.0099 81.7815 67.5566 81.9188C68.1034 82.0562 68.616 82.1592 69.1514 81.9188C69.3109 81.9989 69.4703 82.0447 69.6298 82.0905H69.6412C69.6412 82.0905 69.664 82.0905 69.6754 82.0905C69.8804 82.1363 70.0968 82.1477 70.3019 82.1134C70.393 82.1134 70.4727 82.1134 70.5639 82.1134C70.6436 82.1134 70.7119 82.1248 70.7917 82.1477L71.0195 82.1935L71.4638 82.2965C71.7713 82.3194 72.0675 82.3652 72.3522 82.4567L72.4548 82.491L72.6484 82.5483L73.0813 82.6627C73.3661 82.7314 73.6508 82.8 73.9356 82.8572C73.9926 82.8572 74.0609 82.8572 74.1179 82.8572C74.152 82.8 74.1634 82.7085 74.1976 82.6398C74.2204 82.5826 74.2318 82.5368 74.2545 82.491C74.5051 82.5368 74.7216 82.697 74.8697 82.9831C75.3595 82.9603 75.8151 83.0404 76.0657 83.4867C76.2594 83.5668 76.4758 83.6011 76.6694 83.6698C76.8631 83.7499 77.034 83.8529 77.1365 84.0589C77.4554 84.2992 77.7516 84.5281 78.0933 84.6997C78.3553 84.6654 78.4692 84.8371 78.5376 85.0202C78.6173 85.2033 78.6857 85.375 78.9135 85.3978C79.0843 85.4665 79.1982 85.5924 79.3008 85.7297C79.4033 85.8671 79.483 86.0044 79.5969 86.1188C79.8361 86.3363 80.064 86.5651 80.1551 86.8512C80.1209 87.0344 80.2348 87.1373 80.3601 87.2289C80.474 87.3204 80.5993 87.4234 80.588 87.5722C80.6449 87.6981 80.6791 87.8125 80.7474 87.927C80.8044 88.0414 80.8613 88.1444 80.9183 88.2589C80.9639 88.3733 81.0094 88.4763 81.0436 88.5793C81.0778 88.6823 81.1119 88.7853 81.1461 88.8883C81.2031 89.0371 81.2486 89.1744 81.2714 89.3117C81.3056 89.4491 81.3512 89.5749 81.3739 89.6894C81.4081 89.8267 81.4309 89.9297 81.4537 90.0441C81.2372 90.067 81.0208 90.0556 80.8044 89.9068C80.326 90.0899 79.8475 89.7695 79.3577 89.8839C78.8679 89.449 78.3667 89.8038 77.8655 89.861C77.3643 90.1357 76.8517 89.8382 76.3277 89.8382C75.8037 89.6779 75.2797 89.7352 74.7558 89.8267C74.2318 89.964 73.685 89.6779 73.1496 89.8153C72.6029 89.9411 72.0561 89.7123 71.5093 89.8153C70.9625 89.7924 70.4044 89.7809 69.8348 89.8153C69.2767 89.7695 68.7071 89.7237 68.1376 89.8153C67.568 89.9411 66.9985 90.1357 66.4403 89.8153C65.8822 89.9068 65.324 89.861 64.7658 89.8153C64.2191 89.8725 63.6723 89.7809 63.1255 89.8153C63.023 89.8725 62.9319 89.8839 62.8294 89.9068C62.7155 89.9068 62.5902 89.8954 62.4762 89.9068C62.4079 89.9068 62.3509 89.9068 62.2826 89.9068C62.0206 89.861 61.77 89.7924 61.508 89.8153C61.041 89.8382 60.5739 89.758 60.1183 89.8153C59.7766 89.7237 59.4235 89.6207 59.0703 89.8153C58.9564 89.8153 58.8539 89.8267 58.74 89.8382C58.535 89.8153 58.3413 89.7924 58.1363 89.8038C57.7262 89.7237 57.3161 89.7695 56.906 89.8839C56.6782 89.861 56.439 89.8839 56.2112 89.8954C56.0745 89.8839 55.9264 89.8725 55.7897 89.861C55.7669 89.861 55.7442 89.8382 55.71 89.861C55.6986 89.8382 55.6758 89.8382 55.6416 89.861L55.5733 89.8954C55.5733 89.8954 55.5391 89.8954 55.5277 89.8954C55.4822 89.8725 55.4708 89.7466 55.6189 89.6894C55.6189 89.6894 55.6189 89.6665 55.6189 89.655H55.6302Z" fill="currentColor"/>
<path d="M47.0756 31.5534C47.0756 31.5534 47.0414 31.6221 47.0186 31.6564C46.9389 31.6907 46.9161 31.7365 46.9731 31.7708C46.9275 31.8166 47.0756 31.8509 46.9275 31.8967C47.0072 31.9425 46.6541 31.9883 46.8819 32.0455C46.6997 32.0913 46.9275 32.1485 46.8364 32.2057C46.7452 32.2629 46.4719 32.3087 46.7908 32.3659C46.4605 32.4117 46.8022 32.4804 46.7339 32.5376C46.6883 32.5948 46.2554 32.6291 46.6769 32.7207C46.6086 32.7779 46.6769 32.8466 46.6313 32.9152C46.825 32.9953 46.4035 33.0297 46.5858 33.1212C46.6313 33.2013 46.3921 33.2471 46.5402 33.3387C46.6769 33.4302 46.5402 33.4874 46.4719 33.5561C46.4491 33.6248 46.7339 33.7507 46.4035 33.785C46.5744 33.888 46.244 33.9223 46.3466 34.0139C45.9023 34.0139 46.244 34.1626 46.2896 34.2542C46.5402 34.3915 46.2554 34.4144 46.2327 34.4945C46.0618 34.5403 46.0846 34.6319 46.1529 34.7463C46.2554 34.8607 45.9707 34.8836 46.0732 34.9981C46.1757 35.1125 45.9365 35.1468 45.9934 35.2613C45.9479 35.3414 45.9137 35.4329 45.9251 35.5245C45.8454 35.6046 45.777 35.6733 45.834 35.7877C45.9251 35.9136 46.0732 36.0738 45.7428 36.0509C45.7998 36.1654 45.7314 36.2455 45.6631 36.3141C45.6859 36.4171 45.572 36.4743 45.5834 36.5773C45.8454 36.7833 45.4695 36.7261 45.4922 36.8291C45.4922 36.9207 45.3328 36.9436 45.4011 37.0694C45.3669 37.1496 45.2644 37.1953 45.31 37.3098C45.1277 37.3098 45.1391 37.4128 45.2302 37.5501C45.1505 37.5959 45.2302 37.7332 45.1505 37.779C45.1733 37.882 45.0024 37.882 45.0594 37.9964C45.1277 38.1223 45.2644 38.2825 44.9796 38.2139C44.9341 38.2711 45.1049 38.4542 44.8999 38.4198C45.0138 38.5686 45.0252 38.6602 44.8316 38.6144C44.9113 38.7403 44.6379 38.6602 44.7632 38.8089C44.8429 38.9348 44.729 38.9348 44.7063 38.9921C44.6607 39.0378 44.4101 38.9463 44.6379 39.1637C44.4898 39.1408 44.6151 39.2782 44.581 39.3239C44.3759 39.2553 44.5468 39.4269 44.5354 39.4841C44.3873 39.9877 44.3645 40.3539 44.5354 40.4683C44.6835 40.5713 44.9569 40.4683 45.3214 40.1822C45.3669 40.1479 45.4011 40.1136 45.4467 40.0792C45.4808 40.0449 45.777 40.1708 45.5834 39.9648C45.3669 39.7588 45.7542 39.9305 45.7201 39.8389C45.3783 39.5414 45.8681 39.7817 45.8568 39.7016C45.777 39.5757 45.9365 39.5871 45.9934 39.5414C46.2213 39.5986 46.0618 39.4155 46.1301 39.3697C46.1529 39.2896 45.9365 39.0836 46.2668 39.1866C46.3466 39.1408 46.3693 39.0607 46.4149 38.9921C46.3238 38.8547 46.7111 38.9692 46.563 38.7861C46.7566 38.7861 46.6427 38.6258 46.7111 38.5686C46.5972 38.4084 46.8819 38.4542 46.8478 38.3283C46.9275 38.2711 46.7794 38.088 46.9845 38.088C46.9389 37.9621 47.4743 38.0994 47.1212 37.8362C47.2692 37.7904 47.2692 37.6874 47.2578 37.573C47.1553 37.4242 47.3831 37.4013 47.3945 37.2983C47.5198 37.2411 47.2123 37.0008 47.5084 37.0122C47.4743 36.8863 47.7704 36.8863 47.6224 36.7147C47.4857 36.5545 47.611 36.4858 47.7249 36.4171C47.8843 36.3599 47.7477 36.1997 47.8274 36.1081C47.6907 35.9594 47.9185 35.9136 47.9071 35.7991C48.0894 35.7419 48.2375 35.6733 47.9755 35.4902C48.1463 35.4329 48.078 35.3071 48.0438 35.1926C47.816 35.0324 47.9641 34.9752 48.1008 34.8951C48.1691 34.8035 48.1008 34.7005 48.135 34.609C48.3742 34.5517 47.9983 34.3915 48.1577 34.3229C48.3172 34.2542 48.4425 34.1855 48.1805 34.0482C48.4197 33.991 48.4425 33.8994 48.1919 33.785C48.2716 33.7049 48.2147 33.6133 48.1919 33.5332C48.0324 33.4302 48.1919 33.373 48.1805 33.2815C47.816 33.167 47.7704 33.0869 48.1577 33.0411C47.9641 32.9496 47.8502 32.8695 48.135 32.8122C48.1008 32.7436 47.873 32.6635 48.1122 32.6062C48.135 32.5376 48.1691 32.4804 48.0894 32.4117C47.7021 32.3316 48.3514 32.2973 48.0438 32.2286C47.8957 32.1714 48.0438 32.1142 47.9983 32.0569C47.9413 31.9997 47.873 31.9539 47.9527 31.8967C48.2033 31.8509 47.7477 31.8052 47.9071 31.7594C47.9185 31.7136 47.8843 31.6678 47.8502 31.6335C47.8274 31.5992 47.816 31.5534 47.7932 31.5191C47.6793 31.3131 47.5654 31.2101 47.4515 31.2215C47.3262 31.2215 47.2123 31.3474 47.1098 31.5419L47.0756 31.5534Z" fill="currentColor"/>
<path d="M83.356 44.7142C82.9915 44.6799 82.4333 44.6913 81.7726 44.9202C81.6245 44.9774 81.4651 45.0232 81.317 45.1033C81.1689 45.1834 80.8272 45.0118 80.8386 45.3551C80.8499 45.5382 80.7588 45.5611 80.6449 45.5725C80.531 45.584 80.4057 45.5954 80.3601 45.687C80.4399 45.9273 80.3487 45.9616 80.2234 45.996C80.1095 46.0188 79.9387 46.0188 79.8817 46.1104C79.8589 46.2363 79.7906 46.3164 79.7108 46.3965C79.6311 46.4766 79.5172 46.5338 79.4489 46.6254C79.1299 46.7055 79.1869 47.0259 79.0616 47.2319C79.016 47.3464 79.0274 47.4837 79.016 47.621C79.0046 47.7469 78.9476 47.8613 78.7426 47.93C78.6743 48.0445 78.6401 48.1703 78.6059 48.3077C78.5945 48.3763 78.5717 48.4336 78.5604 48.5022C78.549 48.5709 78.5376 48.6395 78.5262 48.7082C78.5831 48.857 78.492 48.9829 78.435 49.1088C78.3781 49.2461 78.3211 49.3834 78.4237 49.5322C78.3325 49.6695 78.3553 49.8183 78.3781 49.9671C78.3895 50.0357 78.4123 50.1158 78.4237 50.1845C78.4464 50.2532 78.4578 50.3333 78.4578 50.4019C78.5717 50.5393 78.549 50.688 78.5604 50.8368C78.5604 50.9856 78.5603 51.1572 78.6287 51.2946C78.6629 51.4433 78.754 51.5807 78.8223 51.718C78.9021 51.8553 78.9818 51.9812 78.9704 52.1758C79.0729 52.3017 79.0615 52.4848 79.0957 52.6679C79.1185 52.851 79.1982 52.9997 79.4716 52.9997C79.4944 53.0799 79.5286 53.16 79.5742 53.2401C79.6197 53.3087 79.6767 53.3774 79.7336 53.4346C79.8475 53.5605 79.9842 53.6635 80.1209 53.7551C80.2918 53.8123 80.4057 53.9382 80.531 54.0526C80.6449 54.167 80.7588 54.3158 80.9183 54.3845C81.0436 54.5104 81.2145 54.5561 81.3967 54.5905C81.579 54.6248 81.7271 54.682 81.841 54.8766C82.0232 54.8995 82.1599 55.0139 82.3308 55.094C82.4902 55.1741 82.6611 55.2428 82.8662 55.1856C83.0598 55.1283 83.2307 55.1398 83.4015 55.1627C83.5724 55.1856 83.7546 55.2428 83.9255 55.2886C84.1078 55.3458 84.29 55.3229 84.4723 55.2886C84.6545 55.2428 84.814 55.1856 84.9963 55.1741C85.1557 55.0597 85.3266 55.0139 85.4975 55.0025C85.6797 54.9796 85.8506 54.9567 86.0101 54.8651C86.386 54.888 86.7961 54.8194 86.9327 54.3845C87.1264 54.3616 87.2745 54.2586 87.3998 54.1556C87.5365 54.0412 87.6276 53.8924 87.7301 53.7551C87.7529 53.6521 87.7871 53.5719 87.8212 53.4918C87.8554 53.4117 87.9124 53.3545 87.9693 53.2973C88.0263 53.2401 88.0946 53.1943 88.1744 53.1485C88.2427 53.1027 88.3111 53.057 88.3794 53.0112C88.4933 52.8967 88.5844 52.7594 88.6642 52.6106C88.7325 52.4619 88.8123 52.3245 88.8806 52.1872C89.0515 52.0957 89.0856 51.924 89.097 51.7638C89.097 51.5921 89.097 51.4319 89.2223 51.306C89.4388 51.0542 89.6324 50.7567 89.3932 50.4134C89.4615 50.3447 89.5071 50.276 89.5527 50.2074C89.5868 50.1387 89.5982 50.0586 89.6096 49.9899C89.6096 49.8412 89.5641 49.681 89.4274 49.5436C89.4615 49.4063 89.4501 49.2575 89.4274 49.1202C89.4046 48.9829 89.359 48.8455 89.3249 48.7197C89.2679 48.6624 89.2451 48.5938 89.2223 48.5365C89.1996 48.4793 89.1882 48.4107 89.1768 48.342C89.154 48.2161 89.1654 48.0673 89.1198 47.9529C88.687 47.8156 88.5617 47.6554 88.8009 47.2663C88.5161 47.1289 88.2997 47.0145 88.4136 46.6597C88.3338 46.5682 88.2085 46.5224 88.1174 46.4537C88.0263 46.3851 87.9693 46.305 87.9807 46.1447C87.8554 45.9731 87.7187 45.79 87.5137 45.7213C87.3086 45.8014 87.2859 45.687 87.2631 45.5611C87.2403 45.4466 87.2061 45.3093 87.0353 45.378C86.8074 45.378 86.7391 45.1605 86.5568 45.1148C86.386 45.069 86.2037 45.069 86.1012 44.9317C86.0556 44.6341 85.7367 45.0118 85.6683 44.8058C85.6114 44.7714 85.543 44.76 85.4747 44.7486C85.4063 44.7486 85.338 44.7486 85.281 44.7486C85.1557 44.7371 85.0418 44.7142 84.9393 44.7142C84.7798 44.7142 84.6318 44.7142 84.5178 44.7371C84.3925 44.7371 84.29 44.7829 84.2103 44.8058C84.0508 44.8516 83.9711 44.9088 83.9711 44.9774C83.9711 45.0461 84.0508 45.1033 84.1989 45.1605C84.2673 45.1949 84.3584 45.2178 84.4609 45.2635C84.5634 45.3093 84.6773 45.3551 84.814 45.4009C84.9051 45.4352 84.9849 45.481 85.0874 45.5268C85.1216 45.584 85.1671 45.6183 85.2241 45.6412C85.2697 45.6641 85.3266 45.6755 85.3836 45.6755C85.4747 45.7556 85.6456 45.6526 85.7025 45.8586C85.8506 45.8586 85.805 46.2134 86.0329 46.0875C86.0556 46.3164 86.2948 46.1791 86.3632 46.3622C86.3974 46.4423 86.3974 46.5567 86.4315 46.6368C86.4657 46.7169 86.5227 46.7513 86.6821 46.6826C86.6252 46.8543 86.6821 46.9 86.7619 46.9229C86.8416 46.9573 86.9441 46.9687 86.9783 47.0488C87.0239 47.1175 86.9783 47.2663 86.9783 47.3578C86.9783 47.4608 87.0239 47.518 87.2517 47.4608C87.2859 47.6439 87.4453 47.7469 87.4795 47.9415C87.6048 47.9758 87.6048 48.0788 87.582 48.1932C87.5592 48.2962 87.5365 48.3992 87.6504 48.4564C87.7073 48.5365 87.6732 48.6395 87.6732 48.7425C87.6732 48.7883 87.6732 48.8455 87.6732 48.8799C87.6732 48.9256 87.6959 48.9714 87.7415 49.0058C87.8212 49.0859 87.8554 49.1889 87.844 49.2919C87.8326 49.3949 87.7985 49.4979 87.7643 49.5894C87.7643 49.6924 87.8212 49.784 87.8554 49.8984C87.8668 49.9442 87.8782 50.0014 87.8554 50.0586C87.8326 50.1044 87.7871 50.1502 87.6959 50.1959C87.7643 50.3104 87.7301 50.4134 87.6618 50.5049C87.5934 50.5965 87.5251 50.6766 87.5479 50.791C87.2973 50.8254 87.2517 50.894 87.2517 51.0085C87.2517 51.1115 87.2973 51.2488 87.2859 51.3632C87.3656 51.5235 87.2859 51.615 87.2061 51.6951C87.1264 51.7752 87.0011 51.821 86.9327 51.9011C86.8758 51.924 86.8188 51.9469 86.7733 51.9812C86.7277 52.0156 86.6821 52.0499 86.648 52.0842C86.6138 52.13 86.591 52.1758 86.5568 52.2215C86.5341 52.2673 86.4999 52.3245 86.4771 52.3703C86.4429 52.4962 86.329 52.5534 86.2151 52.5763C86.1012 52.6106 85.9987 52.6564 85.9303 52.7709C85.805 53.0112 85.4975 52.9082 85.3266 53.0799C85.2127 53.1027 85.1102 53.1485 84.9963 53.1714C84.8824 53.1943 84.7798 53.2286 84.6659 53.2744C84.552 53.2744 84.4267 53.2744 84.3128 53.2744C84.1989 53.2744 84.085 53.2858 83.9711 53.3431C83.8572 53.4003 83.7319 53.469 83.6066 53.4918C83.4813 53.4918 83.3674 53.4461 83.2762 53.2744C83.1509 53.2973 83.037 53.2744 82.9231 53.2401C82.8092 53.2057 82.7067 53.1371 82.6155 53.0799C82.3763 53.0455 82.2169 52.8624 82.0118 52.7709C81.8296 52.851 81.7384 52.7709 81.6701 52.6564C81.6017 52.5534 81.579 52.4161 81.4764 52.3703C81.3853 52.3131 81.3284 52.2101 81.26 52.1185C81.2258 52.0728 81.1917 52.027 81.1575 51.9927C81.1233 51.9469 81.0778 51.9126 81.0208 51.8897C80.9525 51.7981 80.9069 51.7066 80.8613 51.615C80.8158 51.5235 80.7474 51.4319 80.6677 51.3632C80.7019 51.2259 80.6677 51.1344 80.6335 51.0428C80.588 50.9513 80.5082 50.8711 80.4171 50.791C80.4171 50.5736 80.2234 50.4134 80.2576 50.1959C80.2348 50.1502 80.2234 50.1044 80.212 50.0472C80.212 50.0014 80.2121 49.9442 80.2234 49.8984C80.2348 49.7954 80.2234 49.7038 80.1893 49.6008C80.1437 49.4979 80.064 49.3949 80.0412 49.2919C80.0184 49.1889 80.064 49.0859 80.2234 49.0172C80.2234 48.9714 80.2234 48.9256 80.2234 48.8684C80.2234 48.8227 80.212 48.7654 80.2006 48.7197C80.2006 48.6167 80.2007 48.5251 80.326 48.4564C80.2234 48.2276 80.2348 48.0101 80.4968 47.9415C80.4513 47.7126 80.793 47.7126 80.7246 47.4722C80.7246 47.3693 80.7702 47.2891 80.8272 47.2319C80.8841 47.1633 80.9525 47.1175 80.998 47.0488C81.055 46.9916 81.1689 46.9802 81.2372 46.9458C81.3056 46.9 81.3511 46.8543 81.3056 46.6826C81.4081 46.6826 81.4537 46.6139 81.4878 46.5567C81.5334 46.4881 81.5562 46.4079 81.6245 46.3622C81.8523 46.4423 81.841 46.1791 81.9549 46.0875C82.5016 45.6755 83.037 45.4581 83.4015 45.3208C83.5838 45.2407 83.7433 45.1949 83.8458 45.1377C83.9483 45.0804 84.0053 45.0347 84.0053 44.9774C84.0053 44.8859 83.823 44.8058 83.4585 44.7486L83.356 44.7142Z" fill="currentColor"/>
<path d="M15.2946 42.7344C15.1693 42.6085 14.8846 42.6543 14.4859 42.8374C14.4403 42.8603 14.3947 42.8831 14.3492 42.906C14.3036 42.9289 14.053 42.7458 14.2125 42.9861C14.3834 43.2379 14.0416 42.9861 14.0644 43.0777C14.3378 43.4325 13.9163 43.1006 13.9049 43.1807C13.9619 43.318 13.8024 43.2608 13.7455 43.2837C13.5404 43.1693 13.6543 43.3752 13.5746 43.3981C13.5404 43.4668 13.6885 43.7071 13.4037 43.524C13.324 43.5469 13.2784 43.6041 13.2215 43.6613C13.2784 43.8216 12.9367 43.5927 13.0392 43.7987C12.8683 43.7415 12.9367 43.9131 12.8456 43.9474C12.9139 44.1306 12.6519 43.9932 12.6519 44.1077C12.5608 44.1306 12.6519 44.348 12.4583 44.2793C12.4583 44.4052 12.014 44.0848 12.2646 44.451C12.1165 44.4281 12.0938 44.5311 12.0596 44.6341C12.1051 44.8058 11.9001 44.7371 11.8545 44.8172C11.7179 44.8172 11.9229 45.1376 11.6495 45.0117C11.6381 45.1262 11.3761 45.0117 11.4445 45.2063C11.5014 45.4008 11.3761 45.4009 11.2394 45.4123C11.08 45.3894 11.1369 45.584 11.0344 45.6183C11.08 45.8014 10.8635 45.7213 10.8407 45.8243C10.6585 45.7785 10.499 45.7556 10.6471 46.0303C10.4762 45.9845 10.4762 46.1218 10.4648 46.2363C10.5901 46.488 10.4307 46.4537 10.2826 46.4423C10.1915 46.4766 10.1801 46.591 10.1117 46.6368C9.89529 46.5338 10.1117 46.8886 9.94086 46.8314C9.78138 46.7856 9.64469 46.7627 9.78138 47.0259C9.56495 46.9229 9.49661 46.9687 9.6333 47.2205C9.53078 47.2205 9.53078 47.3349 9.49661 47.4036C9.56495 47.5752 9.40548 47.5294 9.35991 47.5867C9.56495 47.8957 9.56495 47.9872 9.23461 47.7583C9.32574 47.9529 9.37131 48.0788 9.1207 47.93C9.10931 48.0101 9.22322 48.2161 9.01818 48.0902C8.96123 48.1245 8.90427 48.1474 8.91567 48.2504C9.15488 48.5709 8.64228 48.1474 8.82454 48.3992C8.89288 48.548 8.7448 48.4679 8.7448 48.548C8.7448 48.6166 8.75619 48.7082 8.67645 48.6853C8.47142 48.548 8.75619 48.8913 8.6195 48.8112C8.57394 48.8341 8.57393 48.8799 8.57393 48.9256C8.56254 48.96 8.55115 49.0057 8.53976 49.0401C8.48281 49.2575 8.48281 49.4063 8.57393 49.4978C8.65367 49.5894 8.81315 49.5894 9.02958 49.5322C9.06375 49.5322 9.09792 49.5093 9.14349 49.4978C9.23461 49.5322 9.26879 49.5207 9.2574 49.4521C9.31435 49.4521 9.24601 49.3147 9.3827 49.3948C9.35991 49.3033 9.64469 49.5322 9.51939 49.3262C9.69025 49.4177 9.55356 49.2232 9.66747 49.2461C9.76999 49.269 10.0092 49.4292 9.81555 49.1545C10.0889 49.3491 9.8839 49.063 9.97503 49.063C10.0434 49.0401 10.3965 49.3033 10.1345 48.96C10.2256 48.96 10.2256 48.857 10.3054 48.8455C10.2142 48.651 10.556 48.9027 10.4762 48.7196C10.4876 48.6281 10.7154 48.7425 10.6585 48.5823C10.6129 48.4335 10.7496 48.4564 10.8407 48.445C10.8977 48.3992 10.7496 48.1245 11.023 48.2962C10.9433 48.1017 11.228 48.2733 11.2167 48.136C11.5812 48.3878 11.3989 48.0788 11.4103 47.9758C11.285 47.724 11.547 47.8613 11.6039 47.8041C11.7748 47.8499 11.809 47.7583 11.809 47.621C11.7748 47.4608 12.0368 47.5981 12.014 47.4379C11.9912 47.2777 12.2191 47.3807 12.2191 47.2433C12.2988 47.1861 12.3785 47.1404 12.4241 47.0488C12.5266 47.0145 12.6291 46.9801 12.6291 46.8428C12.6064 46.6826 12.538 46.4766 12.8342 46.6368C12.8342 46.5109 12.9367 46.4652 13.0278 46.4308C13.0506 46.3164 13.1873 46.3164 13.2215 46.2248C13.062 45.9387 13.3809 46.1333 13.4037 46.0188C13.4493 45.9273 13.5974 45.9616 13.586 45.8128C13.6429 45.7556 13.7682 45.7442 13.7568 45.6183C13.9391 45.6755 13.9619 45.5725 13.9277 45.4237C14.0188 45.4008 13.9847 45.2521 14.0872 45.2292C14.0872 45.1262 14.2581 45.172 14.2353 45.0461C14.2125 44.9088 14.1214 44.7142 14.3834 44.863C14.4403 44.8172 14.3378 44.5998 14.52 44.6799C14.4517 44.4968 14.4631 44.4167 14.6453 44.5082C14.5998 44.3709 14.839 44.5082 14.7593 44.3365C14.7137 44.1992 14.839 44.2221 14.8618 44.1763C14.9187 44.142 15.1352 44.2793 14.9643 44.0161C15.101 44.0733 15.0099 43.9017 15.0554 43.8673C15.2377 43.9703 15.1124 43.7643 15.1352 43.73C15.3744 43.2608 15.4541 42.9175 15.306 42.7802L15.2946 42.7344Z" fill="currentColor"/>
<path d="M8.75618 36.2913C8.79035 36.154 8.87009 36.2341 8.92704 36.1998C8.99539 36.1998 9.1093 36.4287 9.08652 36.1082C9.17764 36.2227 9.18904 36.0396 9.2346 36.0167C9.33712 36.1998 9.32573 35.9595 9.37129 35.9251C9.81554 35.639 10.0434 35.3873 9.9978 35.1927C9.95223 35.021 9.67885 34.918 9.24599 34.8837C9.20043 34.8837 9.14347 34.8837 9.09791 34.8837C9.04095 34.8837 8.91565 34.5976 8.93843 34.8837C8.96122 35.1927 8.80174 34.7922 8.76757 34.8837C8.82452 35.33 8.63088 34.8265 8.58531 34.8837C8.56253 35.0325 8.46001 34.9066 8.39166 34.8837C8.26636 34.6777 8.26636 34.918 8.18663 34.8952C8.12967 34.9295 8.12967 35.227 7.9702 34.918C7.89046 34.8952 7.82211 34.918 7.75377 34.9409C7.7196 35.1012 7.54873 34.7464 7.52595 34.9753C7.41204 34.8379 7.37786 35.021 7.28674 35.0096C7.25256 35.2041 7.10448 34.9524 7.04752 35.0554C6.9564 35.0325 6.92222 35.2499 6.79692 35.1012C6.73997 35.2156 6.51215 34.7121 6.53493 35.1469C6.42102 35.0554 6.34128 35.124 6.27294 35.2041C6.22737 35.3758 6.09068 35.2041 5.99955 35.2614C5.88564 35.1927 5.89703 35.5704 5.72617 35.33C5.65782 35.4216 5.48696 35.1927 5.45278 35.3987C5.40722 35.5933 5.29331 35.536 5.16801 35.4674C5.04271 35.3644 4.99714 35.5704 4.88323 35.5475C4.83767 35.742 4.68959 35.5475 4.60985 35.6276C4.47316 35.5017 4.35925 35.3987 4.33646 35.7077C4.21116 35.5818 4.14282 35.7077 4.07447 35.7878C4.05169 36.0625 3.93778 35.9595 3.82387 35.8679C3.72135 35.845 3.66439 35.948 3.57327 35.948C3.43657 35.7535 3.45936 36.1655 3.33406 36.0396C3.22014 35.9251 3.10623 35.8336 3.10623 36.1311C2.96954 35.9366 2.88981 35.948 2.87841 36.2227C2.78729 36.1769 2.73033 36.2684 2.66199 36.3142C2.6392 36.4973 2.52529 36.3714 2.45695 36.4058C2.47973 36.7834 2.43417 36.8635 2.2633 36.4973C2.25191 36.7033 2.21774 36.8521 2.08104 36.5889C2.02409 36.6461 2.02409 36.8864 1.91018 36.6804C1.84183 36.6804 1.78488 36.6804 1.7507 36.772C1.79627 37.1611 1.56845 36.5431 1.60262 36.8635C1.59123 37.0238 1.5001 36.8864 1.46593 36.9436C1.43176 37.0123 1.39758 37.081 1.34063 37.0238C1.23811 36.7949 1.30645 37.2526 1.22672 37.1039C1.18115 37.1039 1.15837 37.1382 1.1242 37.184C1.09003 37.2069 1.06724 37.2412 1.03307 37.2641C0.873596 37.4129 0.80525 37.5616 0.839423 37.6761C0.873596 37.7905 0.998898 37.8821 1.21533 37.9278C1.2495 37.9278 1.29506 37.9393 1.32924 37.9507C1.38619 38.0194 1.43176 38.0308 1.45454 37.9736C1.5001 37.9965 1.51149 37.8477 1.59123 37.9851C1.61401 37.8935 1.7507 38.2254 1.73931 37.9851C1.83044 38.1567 1.81905 37.905 1.89879 37.9851C1.97852 38.0537 2.10383 38.3169 2.06965 37.9851C2.20634 38.2826 2.18356 37.9393 2.25191 37.9851C2.32026 38.0079 2.49112 38.4085 2.44556 37.9851C2.52529 38.0308 2.57086 37.9507 2.65059 37.9736C2.66199 37.7562 2.84424 38.1453 2.86702 37.9507C2.92398 37.8821 3.06067 38.0881 3.09484 37.9278C3.12902 37.7676 3.23154 37.8592 3.32266 37.8935C3.4024 37.8935 3.4024 37.5616 3.56188 37.8592C3.59605 37.6532 3.75552 37.9507 3.81248 37.8134C4.00612 38.2139 3.99473 37.8477 4.06308 37.7676C4.07447 37.4815 4.23394 37.7447 4.32507 37.7219C4.45037 37.8477 4.51872 37.7791 4.58707 37.6646C4.64402 37.5159 4.8035 37.7562 4.84906 37.6074C4.90601 37.4586 5.0541 37.6532 5.12244 37.5387C5.21357 37.5387 5.31609 37.5273 5.39583 37.4701C5.49835 37.493 5.61226 37.5044 5.6806 37.4014C5.73756 37.2526 5.78312 37.0466 5.95399 37.3213C6.02233 37.2069 6.12485 37.2298 6.22737 37.2412C6.30711 37.1611 6.42102 37.2183 6.50076 37.1611C6.50076 36.8292 6.6944 37.1611 6.76275 37.081C6.84249 37.0352 6.96779 37.1268 7.01335 37.0009C7.10448 36.978 7.207 37.0238 7.26395 36.9208C7.38926 37.0581 7.4576 36.9894 7.50317 36.8292C7.59429 36.8521 7.63986 36.7033 7.73099 36.7377C7.78794 36.6461 7.90185 36.772 7.95881 36.6461C8.00437 36.5088 8.02715 36.2913 8.17524 36.5546C8.25497 36.5431 8.26636 36.3028 8.38027 36.463C8.40306 36.2684 8.46001 36.1998 8.57392 36.3714C8.60809 36.2341 8.74479 36.4744 8.75618 36.2799V36.2913Z" fill="currentColor"/>
<path d="M0.90774 24.4581C0.873567 24.79 1.02165 24.4581 1.06721 24.5497C1.11278 24.6069 1.06721 25.0418 1.23808 24.6412C1.28364 24.7213 1.36338 24.6755 1.42034 24.7328C1.54564 24.5497 1.50007 24.9845 1.61398 24.8243C1.69372 24.79 1.70511 25.0418 1.81902 24.9159C1.93293 24.8014 1.9785 24.9159 2.03545 25.0074C2.1038 25.0418 2.26327 24.7671 2.26327 25.099C2.38857 24.9388 2.38857 25.2706 2.49109 25.1905C2.45692 25.6369 2.62778 25.3164 2.7303 25.2821C2.87839 25.0418 2.88978 25.3393 2.9809 25.3736C3.02647 25.5453 3.12899 25.5224 3.23151 25.4537C3.35681 25.3507 3.3682 25.6369 3.4935 25.5339C3.6188 25.4309 3.64158 25.6826 3.76688 25.614C3.85801 25.6597 3.93775 25.6941 4.04027 25.6941C4.12001 25.7627 4.19974 25.8314 4.31365 25.7742C4.43895 25.6826 4.58704 25.5224 4.59843 25.8428C4.71234 25.7856 4.79208 25.8428 4.87181 25.9115C4.97433 25.8772 5.04268 25.9916 5.1452 25.9802C5.31606 25.6941 5.31606 26.0717 5.41858 26.0374C5.50971 26.0374 5.56666 26.1747 5.68057 26.0946C5.7717 26.1175 5.82866 26.2091 5.94257 26.1404C5.98813 26.3235 6.07926 26.3006 6.19317 26.1862C6.26152 26.2548 6.37543 26.1518 6.43238 26.2319C6.5349 26.1862 6.56907 26.3464 6.67159 26.2663C6.77411 26.1747 6.89941 25.9916 6.89941 26.3006C6.96776 26.3235 7.10445 26.1289 7.11584 26.3235C7.22975 26.1747 7.30949 26.1404 7.33227 26.3464C7.43479 26.2434 7.4234 26.518 7.53731 26.3578C7.62844 26.2548 7.674 26.3578 7.73096 26.3578C7.78791 26.3922 7.77652 26.6554 7.91321 26.3578C7.936 26.5066 8.03851 26.3464 8.08408 26.3578C8.08408 26.5753 8.19799 26.3578 8.24355 26.3578C8.76754 26.3349 9.09788 26.2319 9.15483 26.0374C9.2004 25.8657 9.01814 25.6369 8.65363 25.3851C8.60806 25.3622 8.57389 25.3279 8.52833 25.305C8.48276 25.2821 8.51694 24.9616 8.39164 25.2249C8.26633 25.4995 8.32329 25.0761 8.24355 25.1333C8.07269 25.5567 8.15242 25.0189 8.08408 25.0418C7.99295 25.1562 7.97017 24.996 7.91321 24.9502C7.91321 24.7099 7.78791 24.9159 7.73096 24.8587C7.66261 24.8587 7.51453 25.1104 7.53731 24.7671C7.48035 24.7099 7.40062 24.6984 7.33227 24.6755C7.21836 24.8014 7.25253 24.4009 7.11584 24.584C7.08167 24.4009 6.96776 24.5497 6.88802 24.4924C6.76272 24.6412 6.75133 24.3437 6.6602 24.4009C6.59186 24.3322 6.45516 24.5153 6.42099 24.3093C6.31847 24.378 6.37543 23.8287 6.17039 24.2292C6.11343 24.0919 6.01091 24.1148 5.91979 24.1377C5.79448 24.2636 5.74892 24.0461 5.65779 24.0576C5.60084 23.9317 5.40719 24.275 5.38441 23.9775C5.2705 24.0232 5.24772 23.7371 5.11102 23.8973C4.97433 24.0461 4.90599 23.9317 4.82625 23.8172C4.76929 23.6685 4.6326 23.8172 4.54147 23.7486C4.40478 23.8859 4.37061 23.657 4.26809 23.6799C4.22253 23.5082 4.16557 23.348 3.9947 23.6112C3.94914 23.4396 3.83523 23.5082 3.72132 23.554C3.56185 23.7829 3.51628 23.6341 3.45933 23.4968C3.39098 23.4281 3.27707 23.4968 3.20872 23.451C3.18594 23.2107 2.9923 23.5769 2.95812 23.4053C2.91256 23.245 2.86699 23.1077 2.71891 23.3595C2.69613 23.1192 2.62778 23.0848 2.4797 23.3251C2.42274 23.2336 2.33162 23.2908 2.25188 23.2908C2.13797 23.4396 2.1038 23.2679 2.03545 23.2679C1.86459 23.6112 1.78485 23.6456 1.81902 23.245C1.70511 23.4167 1.60259 23.5197 1.61398 23.2336C1.54564 23.2565 1.42034 23.4625 1.42034 23.2336C1.36338 23.1993 1.31782 23.1649 1.23808 23.2336C1.07861 23.5884 1.19252 22.9475 1.06721 23.2336C0.976086 23.3595 0.964695 23.1993 0.90774 23.2336C0.850785 23.2679 0.782439 23.3251 0.759657 23.2336C0.782439 22.9818 0.622965 23.4167 0.622965 23.245C0.588792 23.2221 0.543228 23.245 0.497664 23.2679C0.4521 23.2679 0.417927 23.2794 0.383754 23.2908C0.167324 23.348 0.0420231 23.4281 0.00785008 23.5426C-0.026323 23.657 0.0534141 23.7944 0.201497 23.9546C0.224279 23.9775 0.258452 24.0003 0.292625 24.0347C0.304016 24.1262 0.338189 24.1606 0.395145 24.1148C0.429318 24.1606 0.509055 24.0347 0.509055 24.1949C0.577401 24.1262 0.531837 24.4924 0.634356 24.275C0.634356 24.4696 0.748266 24.2521 0.771048 24.3551C0.805221 24.4581 0.771048 24.7442 0.919131 24.4467L0.90774 24.4581Z" fill="currentColor"/>
<path d="M23.9404 47.6668C24.1568 47.6668 23.9404 47.5523 23.9404 47.5066C23.9176 46.9801 23.8151 46.6483 23.6214 46.591C23.4506 46.5453 23.2227 46.7284 22.9721 47.0946C22.9494 47.1404 22.9152 47.1747 22.8924 47.2205C22.8696 47.2662 22.5507 47.2319 22.8127 47.3578C23.0861 47.4837 22.6646 47.4379 22.7215 47.5066C23.143 47.6782 22.6076 47.5981 22.6304 47.6668C22.7443 47.7583 22.5849 47.7812 22.5393 47.8384C22.3001 47.8384 22.5051 47.9643 22.4482 48.0215C22.4482 48.0902 22.6988 48.239 22.357 48.2161C22.3001 48.2733 22.2887 48.3534 22.2659 48.4221C22.3912 48.5365 21.9925 48.5022 22.1748 48.6395C21.9925 48.6739 22.1406 48.7998 22.0836 48.8684C22.2317 48.9943 21.9356 48.9943 21.9925 49.0973C21.9242 49.166 22.1064 49.3033 21.9014 49.3376C21.9697 49.4406 21.423 49.3834 21.8103 49.5894C21.6736 49.6466 21.6964 49.7496 21.7305 49.8412C21.8558 49.967 21.6394 50.0128 21.6508 50.1044C21.5255 50.173 21.8672 50.3561 21.5711 50.379C21.6166 50.4935 21.3318 50.5164 21.4913 50.6537C21.6394 50.791 21.5255 50.8597 21.4116 50.9398C21.2635 50.997 21.4116 51.1343 21.3432 51.2259C21.4799 51.3632 21.2521 51.3976 21.2749 51.5006C21.0926 51.5463 20.9445 51.6035 21.2065 51.7752C21.0357 51.821 21.104 51.9354 21.1496 52.0499C21.3774 52.2101 21.2293 52.2559 21.0926 52.3131C21.0243 52.3817 21.0812 52.4962 21.0471 52.5763C20.8079 52.5992 21.1724 52.7937 21.0015 52.8281C20.842 52.8738 20.7053 52.9196 20.9559 53.0684C20.7167 53.0913 20.6826 53.1599 20.9218 53.3087C20.8306 53.3659 20.8876 53.4575 20.8876 53.5376C21.0357 53.652 20.8648 53.6864 20.8648 53.7665C21.2065 53.9267 21.2407 54.0183 20.842 53.9839C21.0129 54.0984 21.1154 54.2014 20.8306 54.1899C20.8534 54.27 21.0585 54.3845 20.8192 54.3845C20.7851 54.4417 20.7509 54.4875 20.8192 54.5676C21.1724 54.7278 20.5345 54.6133 20.8192 54.7392C20.9445 54.8308 20.7851 54.8422 20.8192 54.8995C20.8534 54.9567 20.9104 55.0253 20.8192 55.0482C20.5686 55.0253 21.0015 55.1856 20.8306 55.1856C20.8079 55.2199 20.8306 55.2657 20.8534 55.3114C20.8534 55.3572 20.8648 55.3915 20.8762 55.4259C20.9332 55.6433 21.0129 55.7692 21.1268 55.8035C21.2407 55.8379 21.3774 55.7578 21.5369 55.609C21.5597 55.5861 21.5824 55.5518 21.6166 55.5174C21.7077 55.506 21.7419 55.4717 21.6964 55.4144C21.7419 55.3801 21.6166 55.3 21.7761 55.3C21.7077 55.2313 22.0723 55.2771 21.8558 55.1741C22.0495 55.1741 21.833 55.0597 21.947 55.0368C22.0495 55.0024 22.3342 55.0368 22.0381 54.888C22.3684 54.9223 22.0381 54.7736 22.1292 54.7278C22.1862 54.682 22.619 54.7278 22.2203 54.5561C22.3001 54.5103 22.2545 54.4302 22.3115 54.373C22.1292 54.2586 22.5621 54.2929 22.4026 54.1785C22.3684 54.0984 22.619 54.0869 22.4937 53.9725C22.3798 53.858 22.4937 53.8123 22.5849 53.755C22.619 53.6864 22.3456 53.5262 22.676 53.5262C22.5165 53.4003 22.8468 53.4003 22.7671 53.2973C23.2114 53.3316 22.8924 53.16 22.8468 53.057C22.6076 52.9082 22.9152 52.8967 22.938 52.8052C23.1088 52.7594 23.0861 52.6564 23.0291 52.5534C22.9266 52.4275 23.2227 52.4161 23.1088 52.2902C23.0063 52.1643 23.2569 52.1414 23.1886 52.0155C23.2341 51.924 23.2683 51.8439 23.2683 51.7409C23.3367 51.6608 23.405 51.5807 23.348 51.4548C23.2569 51.3289 23.0974 51.1801 23.4164 51.1687C23.3594 51.0542 23.4164 50.9741 23.4847 50.894C23.4506 50.791 23.5645 50.7224 23.5531 50.6194C23.2683 50.4477 23.6442 50.4591 23.61 50.3447C23.61 50.2531 23.7467 50.1959 23.667 50.0815C23.6898 49.9899 23.7809 49.9327 23.7126 49.8183C23.8948 49.7725 23.872 49.6809 23.7581 49.5665C23.8265 49.4978 23.724 49.3834 23.8037 49.3262C23.7581 49.2232 23.9176 49.1888 23.8379 49.0858C23.7467 48.9829 23.5645 48.857 23.872 48.857C23.8948 48.7883 23.7012 48.651 23.8948 48.6281C23.7467 48.5136 23.7126 48.4335 23.9176 48.4106C23.8151 48.3077 24.0885 48.3191 23.929 48.2047C23.8265 48.1131 23.929 48.0673 23.9404 48.0101C23.9746 47.9529 24.2365 47.9643 23.9404 47.827C24.0885 47.8041 23.929 47.7011 23.9404 47.6553V47.6668Z" fill="currentColor"/>
<path d="M35.5137 53.3659C35.5592 53.2857 35.4795 53.24 35.4909 53.1599C35.2745 53.1484 35.6618 52.9653 35.4681 52.9424C35.3998 52.8852 35.6048 52.7479 35.4453 52.7135C35.2972 52.6792 35.377 52.5762 35.4112 52.4847C35.4112 52.4045 35.0922 52.4045 35.377 52.2443C35.1719 52.21 35.4681 52.0498 35.3314 51.9926C35.7301 51.798 35.3656 51.8095 35.2859 51.7408C35.0011 51.7293 35.2631 51.5691 35.2403 51.4776C35.3656 51.3517 35.2972 51.283 35.1833 51.2144C35.0353 51.1571 35.2745 50.9969 35.1264 50.9397C34.9783 50.8825 35.172 50.7337 35.058 50.665C35.058 50.5735 35.0466 50.4705 34.9897 50.3904C35.0125 50.2874 35.0239 50.1844 34.91 50.1043C34.7733 50.0471 34.5568 50.0013 34.8302 49.8182C34.7163 49.7495 34.7391 49.6465 34.7505 49.5435C34.6707 49.4634 34.7391 49.349 34.6707 49.2689C34.3404 49.2689 34.6707 49.0743 34.591 49.0056C34.534 48.9255 34.6366 48.8111 34.5113 48.7539C34.4885 48.6623 34.534 48.5593 34.4201 48.5021C34.5568 48.3762 34.4885 48.3076 34.329 48.2618C34.3518 48.1702 34.2151 48.1245 34.2379 48.0329C34.1468 47.9757 34.2721 47.8612 34.1468 47.804C34.0101 47.7582 33.805 47.7354 34.0556 47.5866C34.0442 47.5065 33.805 47.495 33.9645 47.3806C33.7709 47.3577 33.7025 47.3005 33.8734 47.186C33.7367 47.1517 33.9759 47.0144 33.7822 47.0029C33.6456 46.9686 33.7253 46.8885 33.6911 46.8313C33.6911 46.7626 33.9189 46.6482 33.6114 46.6711C33.7253 46.5795 33.5316 46.5681 33.5203 46.5223C33.7025 46.4193 33.4633 46.4307 33.4405 46.385C33.1557 45.9386 32.9051 45.6983 32.7115 45.7555C32.5406 45.8013 32.4381 46.076 32.4039 46.5108C32.4039 46.5566 32.4039 46.6138 32.4039 46.6596C32.4039 46.7054 32.1192 46.8427 32.4039 46.8198C32.7115 46.7969 32.3128 46.9572 32.4039 46.9915C32.8482 46.9343 32.347 47.1288 32.4039 47.1746C32.552 47.1975 32.4267 47.3005 32.4039 47.3691C32.1989 47.495 32.4381 47.495 32.4267 47.5751C32.4609 47.6324 32.7571 47.6324 32.4495 47.7926C32.4267 47.8727 32.4495 47.9414 32.4723 48.0215C32.6318 48.0558 32.2786 48.2275 32.5065 48.2503C32.3698 48.3762 32.552 48.3991 32.5406 48.4907C32.7343 48.525 32.4837 48.6738 32.5862 48.7424C32.5634 48.834 32.7798 48.8683 32.6318 48.9942C32.7457 49.0514 32.2445 49.2803 32.6773 49.2574C32.5862 49.3719 32.6659 49.452 32.7343 49.5206C32.9051 49.5664 32.7343 49.7037 32.7912 49.7953C32.7229 49.9097 33.0988 49.9097 32.8596 50.07C32.9507 50.1386 32.7229 50.3103 32.9279 50.3446C33.1216 50.3904 33.0646 50.5048 32.9963 50.6307C32.8937 50.7566 33.0988 50.8024 33.076 50.9168C33.2696 50.9626 33.076 51.1114 33.1557 51.1915C33.0304 51.3288 32.9279 51.4547 33.2355 51.4661C33.1102 51.592 33.2355 51.6607 33.3152 51.7293C33.5886 51.7522 33.4861 51.8667 33.395 51.9811C33.3722 52.0841 33.4747 52.1413 33.4861 52.2329C33.2924 52.3702 33.7025 52.3473 33.5772 52.4732C33.4633 52.5877 33.3722 52.7021 33.6683 52.7021C33.4747 52.8394 33.4861 52.9195 33.7595 52.931C33.7139 53.0225 33.805 53.0797 33.8506 53.1484C34.0328 53.1827 33.9075 53.2857 33.9417 53.3544C34.3176 53.3315 34.3974 53.3887 34.0328 53.549C34.2379 53.5604 34.3746 53.5947 34.124 53.7321C34.1809 53.7893 34.4201 53.7893 34.2151 53.9037C34.2151 53.9724 34.2151 54.0296 34.3062 54.0639C34.6935 54.0182 34.0784 54.247 34.3974 54.2127C34.5568 54.2242 34.4088 54.3157 34.4771 54.35C34.5454 54.3844 34.6138 54.4187 34.5568 54.4759C34.329 54.5789 34.7847 54.5103 34.6366 54.5904C34.6366 54.6361 34.6821 54.659 34.7163 54.6934C34.7391 54.7277 34.7733 54.7506 34.796 54.7849C34.9441 54.9451 35.0922 55.0138 35.2061 54.9795C35.32 54.9451 35.4112 54.8192 35.4567 54.6018C35.4567 54.5675 35.4681 54.5217 35.4795 54.4874C35.5479 54.4301 35.5592 54.3844 35.5023 54.3615C35.5251 54.3157 35.377 54.3043 35.5137 54.2242C35.4226 54.2013 35.7529 54.0639 35.5137 54.0754C35.6732 53.9838 35.4339 53.9838 35.5137 53.9152C35.582 53.8351 35.844 53.7092 35.5137 53.7435C35.8098 53.6062 35.4681 53.6291 35.5137 53.5604C35.5365 53.4917 35.9351 53.3201 35.5137 53.3659Z" fill="currentColor"/>
</g>
</svg>
