<svg width="32" height="32" viewBox="0 0 32 32" fill="none" xmlns="http://www.w3.org/2000/svg">
<path d="M14.0013 30.3327C10.7303 30.3327 7.59327 29.0333 5.28032 26.7204C2.96737 24.4074 1.66797 21.2704 1.66797 17.9994C1.66797 14.7284 2.96737 11.5913 5.28032 9.27839C7.59327 6.96544 10.7303 5.66604 14.0013 5.66604C14.6979 5.66466 15.3934 5.7231 16.08 5.84071C16.3413 5.8865 16.5737 6.03423 16.7261 6.2514C16.8785 6.46856 16.9384 6.73738 16.8926 6.99871C16.8468 7.26003 16.6991 7.49246 16.4819 7.64487C16.2648 7.79727 15.996 7.85717 15.7346 7.81137C15.162 7.71372 14.5822 7.6651 14.0013 7.66604C11.9576 7.66604 9.95972 8.27208 8.26041 9.40752C6.5611 10.543 5.23665 12.1568 4.45455 14.045C3.67244 15.9331 3.46781 18.0108 3.86652 20.0153C4.26523 22.0198 5.24939 23.861 6.69453 25.3061C8.13967 26.7513 9.9809 27.7354 11.9854 28.1342C13.9898 28.5329 16.0675 28.3282 17.9557 27.5461C19.8439 26.764 21.4577 25.4396 22.5932 23.7403C23.7286 22.041 24.3346 20.0431 24.3346 17.9994C24.338 17.227 24.2485 16.457 24.068 15.706C24.0343 15.5779 24.0265 15.4443 24.0449 15.313C24.0633 15.1818 24.1077 15.0555 24.1753 14.9415C24.243 14.8276 24.3326 14.7282 24.4391 14.6492C24.5455 14.5702 24.6665 14.5131 24.7952 14.4813C24.9238 14.4495 25.0575 14.4436 25.1885 14.4639C25.3194 14.4842 25.4451 14.5304 25.558 14.5997C25.671 14.669 25.7691 14.76 25.8465 14.8676C25.924 14.9751 25.9793 15.0969 26.0093 15.226C26.2277 16.1342 26.336 17.0653 26.332 17.9994C26.3284 21.2688 25.0283 24.4034 22.7167 26.7155C20.4051 29.0276 17.2708 30.3285 14.0013 30.3327Z" fill="currentColor"/>
<path d="M14 25.0002C12.1435 25.0002 10.363 24.2627 9.05025 22.9499C7.7375 21.6372 7 19.8567 7 18.0002C7 16.1437 7.7375 14.3632 9.05025 13.0504C10.363 11.7377 12.1435 11.0002 14 11.0002C14.3265 10.9977 14.6527 11.0191 14.976 11.0642C15.2384 11.1038 15.4743 11.246 15.6318 11.4596C15.7894 11.6731 15.8556 11.9405 15.816 12.2029C15.7764 12.4652 15.6342 12.7012 15.4206 12.8587C15.2071 13.0162 14.9397 13.0825 14.6773 13.0429C14.4529 13.0117 14.2265 12.9975 14 13.0002C13.0111 13.0002 12.0444 13.2934 11.2221 13.8428C10.3999 14.3922 9.75904 15.1731 9.3806 16.0868C9.00216 17.0004 8.90315 18.0057 9.09607 18.9756C9.289 19.9455 9.7652 20.8365 10.4645 21.5357C11.1637 22.235 12.0546 22.7112 13.0245 22.9041C13.9945 23.097 14.9998 22.998 15.9134 22.6196C16.827 22.2411 17.6079 21.6003 18.1573 20.778C18.7068 19.9558 19 18.9891 19 18.0002C19.0022 17.5861 18.947 17.1738 18.836 16.7749C18.7951 16.6259 18.789 16.4696 18.8182 16.3179C18.8473 16.1663 18.9109 16.0233 19.0041 15.9001C19.0973 15.777 19.2175 15.6768 19.3555 15.6075C19.4935 15.5381 19.6456 15.5014 19.8 15.5002C20.0333 15.499 20.2596 15.5798 20.4394 15.7285C20.6193 15.8771 20.7412 16.0842 20.784 16.3135C20.9295 16.8639 21.0022 17.4309 21 18.0002C20.9979 19.8561 20.2597 21.6353 18.9474 22.9476C17.6351 24.2599 15.8559 24.9981 14 25.0002Z" fill="currentColor"/>
<path d="M14.0013 18.9996C13.8082 18.9999 13.6191 18.9442 13.4569 18.8393C13.2947 18.7344 13.1664 18.5847 13.0874 18.4085C13.0084 18.2322 12.9822 18.0368 13.0119 17.846C13.0416 17.6551 13.1259 17.4769 13.2546 17.333L19.4146 10.4183C19.5022 10.3202 19.6082 10.2404 19.7266 10.1833C19.845 10.1262 19.9735 10.093 20.1047 10.0856C20.236 10.0782 20.3674 10.0966 20.4915 10.14C20.6156 10.1834 20.7299 10.2507 20.828 10.3383C20.926 10.4258 21.0059 10.5318 21.063 10.6503C21.1201 10.7687 21.1533 10.8972 21.1607 11.0284C21.1681 11.1596 21.1496 11.2911 21.1063 11.4151C21.0629 11.5392 20.9955 11.6536 20.908 11.7516L14.748 18.6663C14.6541 18.7714 14.539 18.8554 14.4103 18.9129C14.2816 18.9703 14.1422 18.9999 14.0013 18.9996Z" fill="currentColor"/>
<path d="M24.8754 13.0278C24.8096 13.0282 24.744 13.0219 24.6794 13.0091L19.9661 12.0664C19.7722 12.0278 19.5942 11.9326 19.4544 11.7928C19.3146 11.653 19.2194 11.475 19.1808 11.2811L18.2381 6.56777C18.2059 6.40643 18.214 6.23964 18.2617 6.08219C18.3093 5.92473 18.3951 5.78147 18.5114 5.6651L23.2261 0.950434C23.3541 0.822365 23.5144 0.731434 23.69 0.687341C23.8655 0.643247 24.0498 0.647647 24.2231 0.700069C24.3964 0.752491 24.5522 0.85097 24.6739 0.984999C24.7956 1.11903 24.8786 1.28358 24.9141 1.4611L25.7248 5.52243L29.7861 6.3331C29.9636 6.36861 30.1282 6.45164 30.2622 6.57334C30.3962 6.69503 30.4947 6.85083 30.5471 7.02411C30.5996 7.19739 30.604 7.38165 30.5599 7.55724C30.5158 7.73282 30.4248 7.89315 30.2968 8.0211L25.5834 12.7358C25.3953 12.9228 25.1407 13.0278 24.8754 13.0278ZM21.0088 10.2358L24.5448 10.9438L27.5581 7.92777L24.6768 7.35177C24.4832 7.31333 24.3053 7.21832 24.1658 7.07875C24.0262 6.93919 23.9312 6.76136 23.8928 6.56777L23.3168 3.68643L20.3021 6.69977L21.0088 10.2358Z" fill="currentColor"/>
</svg>
