<svg width="96" height="96" viewBox="0 0 96 96" fill="none" xmlns="http://www.w3.org/2000/svg">
<g opacity="0.5">
<path d="M92.0645 94.7216C92.0645 94.7216 91.9531 94.116 91.8863 92.9722C91.8194 91.8284 91.7749 90.1238 91.7303 87.9483C91.7303 87.2081 91.7081 86.4232 91.6858 85.5933C91.6635 84.7635 91.619 83.8663 91.6412 82.9244C91.7972 81.9824 91.3517 80.9955 91.5967 79.9414C91.6635 78.8873 91.5967 77.8107 91.5521 76.6669C91.5076 75.523 91.6413 74.3344 91.5076 73.1008C91.1958 71.8672 91.8417 70.5888 91.4631 69.2656C91.374 67.9423 91.3962 66.5742 91.4185 65.1612C91.6412 63.7482 91.4185 62.2904 91.3739 60.8101C91.6635 59.3074 91.5299 57.7823 91.3294 56.2123C91.7081 54.6424 91.6635 53.0275 91.2848 51.3903C91.2848 49.753 91.4185 48.0709 91.2626 46.3439C91.2403 44.617 91.1735 42.8676 91.2403 41.0957C90.973 39.3239 90.9953 37.5072 91.218 35.6457C91.0844 34.8383 91.0398 34.0084 91.0398 33.1786C91.0398 32.7749 91.0398 32.3487 91.0621 31.9226V31.7207C91.0621 31.7207 91.1066 31.6534 91.1289 31.5862C91.1066 31.5862 91.0844 31.5637 91.0398 31.5413C91.0175 31.5413 90.9953 31.5413 90.973 31.5413H90.6834C90.4384 31.5413 90.2157 31.5413 89.9706 31.5413C89.5029 31.5413 89.0128 31.5862 88.545 31.6086C87.5872 31.6534 86.6071 31.6983 85.6493 31.6086C83.6891 31.6086 81.729 31.6759 79.7242 31.6086C77.7195 31.4964 75.6925 31.3619 73.6432 31.6086C71.5939 31.6759 69.5223 31.7656 67.4285 31.6086C65.3347 31.9002 63.2186 31.7656 61.1025 31.6086C58.9641 31.6534 56.8257 31.4516 54.6428 31.6086C52.4821 31.5637 50.2992 31.7432 48.094 31.6086C45.8888 31.5189 43.7058 31.4292 41.5452 31.6086C39.3845 31.788 37.2239 31.5413 35.0855 31.6086C32.9471 31.3395 30.831 31.6983 28.7372 31.6086C26.6433 31.631 24.5718 31.4516 22.5225 31.6086C20.4732 31.6534 18.4462 31.7207 16.4415 31.6086C14.4367 32.0347 12.4543 31.4964 10.5164 31.6086C9.53627 31.5189 8.57845 31.5189 7.62063 31.5413C7.13059 31.5413 6.66282 31.5637 6.17277 31.5862C5.92775 31.5862 5.705 31.5862 5.45998 31.5862H5.1704C5.1704 31.5862 5.12585 31.5862 5.10358 31.5862C5.05903 31.5862 5.01448 31.5862 4.96993 31.5862C4.96993 31.631 4.96993 31.6759 4.96993 31.7207V31.9674C4.92538 32.3936 4.92538 32.7973 4.90311 33.2234C4.88083 34.0533 4.85856 34.8831 4.94766 35.6905C4.90311 37.5296 5.0813 39.3463 4.92538 41.1406C5.12585 42.9348 4.74718 44.6842 4.90311 46.3888C4.90311 48.1158 4.90311 49.7979 4.88083 51.4351C4.54671 53.0724 4.81401 54.6872 4.83628 56.2572C4.79173 57.8272 5.01448 59.3523 4.79173 60.855C4.76946 62.3577 4.61353 63.7931 4.74718 65.2061C4.79173 66.619 4.25714 67.9872 4.70263 69.3104C4.79173 70.6337 4.36851 71.9121 4.65808 73.1456C4.92538 74.3792 4.61353 75.5679 4.61353 76.7117C4.61353 77.8556 4.59126 78.9546 4.56898 79.9863C4.50216 84.6962 4.41306 88.3968 4.34624 90.9088C4.25714 93.4432 4.16804 94.7889 4.07894 94.7889C3.98984 94.7889 3.87846 93.1292 3.78937 90.0341C3.70027 86.939 3.61117 82.4309 3.54434 76.7117C3.54434 75.5679 3.29932 74.3792 3.49979 73.1456C3.49979 71.9121 3.32159 70.6337 3.45524 69.3104C3.1434 67.9872 3.38842 66.619 3.41069 65.2061C3.41069 63.7931 3.49979 62.3352 3.36614 60.855C3.18795 59.3523 3.45524 57.8272 3.32159 56.2572C3.49979 54.6872 3.45524 53.0724 3.27704 51.4351C3.45524 49.7979 3.23249 48.1158 3.25477 46.3888C3.54434 44.6618 3.34387 42.9124 3.23249 41.1406C3.12112 39.3463 3.27704 37.5296 3.21022 35.6905C3.23249 34.8831 3.21022 34.0533 3.21022 33.2234C3.21022 32.7973 3.21022 32.3936 3.18795 31.9674C3.18795 31.631 3.18795 31.2946 3.18795 30.9357V29.7919H5.28178L5.45998 29.747C5.705 29.747 5.92775 29.7246 6.17277 29.7022C6.64054 29.7022 7.13059 29.6573 7.62063 29.6573C8.57845 29.6573 9.55854 29.6573 10.5164 29.747C12.4543 29.6573 14.4367 29.747 16.4415 29.747C18.4462 29.6349 20.4732 29.747 22.5225 29.747C24.5718 29.6798 26.6433 30.0386 28.7372 29.747C30.831 29.7022 32.9471 29.7919 35.0855 29.747C37.2239 29.7919 39.3623 29.8368 41.5452 29.747C43.7058 30.061 45.911 29.8592 48.094 29.747C50.2992 29.6573 52.4821 29.7022 54.6428 29.747C56.8034 29.7246 58.9641 29.747 61.1025 29.747C63.2408 29.6573 65.357 29.8816 67.4285 29.747C69.5223 29.6125 71.5939 29.8816 73.6432 29.747C75.6925 29.6573 77.7195 29.6125 79.7242 29.747C81.729 29.747 83.6891 30.0386 85.6493 29.747C86.6294 29.7246 87.5872 29.6125 88.545 29.5676C89.0351 29.5676 89.5029 29.5452 89.9706 29.5676C90.2157 29.5676 90.4384 29.6125 90.6834 29.6349H90.8616C90.8616 29.6349 90.9062 29.6798 90.9507 29.6798H91.1289C91.3517 29.7246 91.5521 29.747 91.7749 29.7695C92.1758 29.7695 92.5768 29.7695 92.9777 29.747C92.9777 30.1283 92.9777 30.5096 92.9777 30.8909V31.9226C92.9332 32.3487 92.9332 32.7524 92.9109 33.1786C92.8886 34.0084 92.8664 34.8383 92.9332 35.6457C92.6213 37.4848 92.9332 39.3015 92.9109 41.0957C92.8441 42.89 92.755 44.6394 92.8886 46.3439C93.0446 48.0709 92.7995 49.753 92.8664 51.3903C93.0446 53.0275 92.6213 54.6424 92.8218 56.2123C92.7773 57.7823 92.8441 59.3299 92.7773 60.8101C93.2005 62.3128 92.7773 63.7482 92.7327 65.1612C92.6659 66.5742 93.0223 67.9423 92.6882 69.2656C93 70.5888 92.7327 71.8672 92.6436 73.1008C92.5545 74.3344 92.7773 75.523 92.5991 76.6669C92.8218 77.8107 92.4654 78.9097 92.5545 79.9414C92.3986 80.9955 92.5545 81.9824 92.51 82.9244C92.5545 83.8663 92.5322 84.7635 92.4654 85.5933C92.4654 86.4232 92.4209 87.2306 92.4209 87.9483C92.3763 90.1462 92.3095 91.8284 92.2649 92.9722C92.1981 94.116 92.1536 94.7216 92.0867 94.7216H92.0645Z" fill="currentColor"/>
<path d="M50.767 30.6217C50.767 30.6217 50.8783 31.2049 50.9452 32.3263C51.012 33.4477 51.0565 35.1074 51.1011 37.2381C51.1011 37.9558 51.1234 38.7183 51.1456 39.5257C51.1679 40.3332 51.2124 41.2079 51.1902 42.1274C51.0343 43.047 51.4797 44.0114 51.2347 45.0431C51.1679 46.0524 51.2347 47.1289 51.2793 48.2503C51.3238 49.3717 51.1902 50.5156 51.3238 51.7267C51.6357 52.9378 50.9897 54.1714 51.3684 55.4722C51.4575 56.773 51.4352 58.0963 51.4129 59.4869C51.1902 60.855 51.4129 62.2904 51.4575 63.7258C51.1679 65.1836 51.3015 66.6863 51.502 68.2114C51.1233 69.7366 51.1679 71.3065 51.5466 72.9214C51.5466 74.5362 51.4129 76.1735 51.5688 77.8331C51.5911 79.5153 51.6579 81.2198 51.5911 82.9468C51.8584 84.6962 51.8361 86.4456 51.6134 88.2623C51.747 89.1594 51.7916 90.079 51.7916 90.9761C51.7916 91.4247 51.7693 91.8956 51.747 92.3442C51.747 92.5685 51.7248 92.8152 51.7025 93.0395V93.3983L51.6579 93.5778C51.6579 93.5778 51.6579 93.6002 51.6579 93.6226C51.6579 93.6226 51.6134 93.802 51.6134 93.8917C51.6579 93.8917 51.7248 93.8917 51.7693 93.8917H51.8807C51.8807 93.8917 51.8807 93.8917 51.9475 93.8693C52.3262 93.8693 52.7271 93.8245 53.1058 93.802C53.8854 93.7572 54.665 93.7572 55.4447 93.8469C57.338 93.8469 59.2759 93.7796 61.2138 93.8469C63.174 93.959 65.1342 94.0936 67.1389 93.8469C69.1437 93.7796 71.1484 93.6899 73.1977 93.8469C75.247 93.5553 77.2963 93.6899 79.3678 93.8469C81.4394 93.802 83.5332 94.0039 85.6493 93.8469C86.6962 93.8693 87.7654 93.8469 88.8346 93.8245C89.3692 93.8245 89.9038 93.8245 90.4384 93.8245H90.973C90.973 93.8245 91.0398 93.8469 91.1066 93.8693C91.1066 93.8693 91.1066 93.802 91.1289 93.7572V93.1965C91.1735 92.6582 91.1735 92.1199 91.1735 91.5816C91.1735 90.5051 91.1735 89.451 91.0844 88.3744C90.9062 86.2437 91.1512 84.1355 91.0844 82.0496C91.3517 79.9638 90.9953 77.878 91.0844 75.837C91.0621 73.7736 91.2403 71.7551 91.0844 69.7365C91.0398 67.718 90.973 65.7443 91.0844 63.7707C90.6611 61.797 91.1957 59.8681 91.0844 57.9617C91.2626 56.0553 91.0621 54.1714 91.0844 52.3098C90.9953 50.4483 91.2848 48.6092 91.1066 46.8149C91.1512 45.0207 90.973 43.2488 91.1289 41.4994C90.9284 39.75 91.3071 38.0455 91.1512 36.3858C91.1512 35.556 91.1512 34.7261 91.1512 33.8963C91.1512 33.4926 91.1512 33.0889 91.1512 32.6627C91.1512 32.4609 91.1512 32.259 91.1512 32.0572V31.7207C91.1512 31.7207 91.2403 31.4965 91.2626 31.3843C91.1512 31.3395 90.9953 31.3395 90.8393 31.3395H90.3939C90.2379 31.3395 90.0597 31.3395 89.9038 31.3619C89.2356 31.4067 88.5896 31.4516 87.9436 31.4516C86.4289 31.4067 84.9365 31.631 83.4886 31.4067C82.0408 31.3843 80.6375 31.2273 79.2787 31.3619C77.9199 31.4067 76.5835 30.8685 75.3138 31.317C74.0219 31.4067 72.7968 30.9806 71.5939 31.2722C70.3911 31.5413 69.255 31.2273 68.1413 31.2273C67.0276 31.2273 65.9807 31.2049 64.956 31.1825C60.4119 31.1152 56.8257 31.0255 54.3755 30.9582C51.9252 30.8685 50.6333 30.7787 50.6333 30.689C50.6333 30.5993 52.2371 30.4872 55.2442 30.3975C58.229 30.3078 62.6171 30.218 68.1413 30.1508C69.255 30.1508 70.3911 29.904 71.5939 30.1059C72.7968 30.1059 74.0219 29.9265 75.3138 30.061C76.6057 29.747 77.9199 29.9938 79.2787 30.0162C80.6375 30.0162 82.0631 30.1059 83.4886 29.9713C84.9365 29.7919 86.4289 30.061 87.9436 29.9265C88.5896 30.0162 89.2356 30.0386 89.9038 30.0386H90.3939C90.5721 30.0386 90.7725 30.0386 90.9507 30.0386C91.4853 30.0386 92.0199 29.9938 92.5991 29.9713C92.6213 30.3526 92.6436 30.7563 92.6659 31.16L92.6213 32.0347C92.6213 32.2366 92.6213 32.4384 92.6213 32.6403C92.6213 33.044 92.6213 33.4477 92.6213 33.8738C92.6436 34.7037 92.7104 35.5111 92.7104 36.3634C92.4209 38.0455 92.6213 39.75 92.7327 41.477C92.8441 43.2264 92.6881 44.9982 92.755 46.7925C92.7104 48.5867 92.8218 50.4259 92.7773 52.2874C92.9109 54.1489 92.9555 56.0329 92.7773 57.9393C92.8663 59.8457 92.7773 61.797 92.7773 63.7482C92.8886 65.6995 92.7773 67.6956 92.7773 69.7141C92.8441 71.7327 92.4654 73.7512 92.7773 75.8146C92.8218 77.878 92.7327 79.9414 92.7773 82.0272C92.7327 84.113 92.6882 86.2437 92.7773 88.352C92.6213 89.4061 92.5991 90.4827 92.6213 91.5592C92.6213 92.0975 92.6659 92.6358 92.6881 93.174V93.6899L92.7327 93.8693V94.2506C92.755 94.7665 92.7772 95.2823 92.7995 95.7981C91.9308 95.7981 91.0844 95.8206 90.2156 95.843C89.681 95.843 89.1465 95.843 88.6119 95.843C87.5427 95.843 86.4958 95.8206 85.4266 95.7981C83.3105 95.8206 81.2166 95.7981 79.1451 95.7981C77.0735 95.8879 75.002 95.6636 72.9749 95.7981C70.9257 95.9327 68.9209 95.6636 66.9162 95.7981C64.9115 95.8879 62.9513 95.9327 60.9911 95.7981C59.0309 95.7981 57.1153 95.5066 55.2219 95.7981C54.4423 95.8206 53.6627 95.8879 52.8831 95.9551C52.5044 95.9776 52.1034 96 51.7248 96H50.611C50.2324 96 49.8537 95.9776 49.4973 95.9551C49.5196 95.2823 49.5864 94.6319 49.6532 94.0487V93.2413C49.6309 93.017 49.6532 92.7703 49.6532 92.5461C49.6532 92.0751 49.6978 91.6265 49.72 91.1779C49.7646 90.2584 49.7869 89.3612 49.72 88.4641C50.0319 86.6699 49.72 84.898 49.7423 83.1486C49.8091 81.3992 49.9205 79.6947 49.7646 78.035C49.6087 76.3529 49.8537 74.7156 49.7869 73.1232C49.6087 71.5084 50.0319 69.9384 49.8314 68.4133C49.876 66.8882 49.8091 65.3855 49.876 63.9276C49.4527 62.4698 49.876 61.0568 49.9205 59.6887C49.9873 58.3206 49.6309 56.9749 49.9651 55.6741C49.6532 54.3732 49.9205 53.1397 50.0096 51.9286C50.0987 50.7174 49.876 49.5736 50.0542 48.4522C49.8314 47.3308 50.1878 46.2766 50.0987 45.2449C50.2546 44.2357 50.0987 43.2488 50.1433 42.3293C50.0987 41.4097 50.121 40.535 50.1878 39.7276C50.1878 38.8978 50.2324 38.1352 50.2324 37.4399C50.2769 35.3092 50.3437 33.6496 50.3883 32.5281C50.4551 31.4067 50.4997 30.8236 50.5665 30.8236L50.767 30.6217Z" fill="currentColor"/>
<path d="M50.767 30.6217C50.8783 30.6217 50.9897 32.1244 51.1011 34.8607C51.1011 35.3092 51.1234 35.8027 51.1456 36.3409C51.1679 36.8568 51.2124 37.4175 51.1902 38.0231C51.0343 38.6062 51.4797 39.2342 51.2347 39.8846C51.1679 40.535 51.2347 41.2303 51.2793 41.948C51.3238 42.6657 51.1902 43.4058 51.3238 44.1908C51.6357 44.9758 50.9897 45.7608 51.3684 46.5906C51.4575 47.4205 51.4352 48.2728 51.4129 49.1699C51.1902 50.0446 51.4129 50.9641 51.4575 51.9061C51.1679 52.8481 51.3015 53.7901 51.502 54.7769C51.4352 54.9564 51.3684 55.1358 51.3461 55.2928C51.3461 55.3825 51.3015 55.4722 51.3015 55.5619V55.6965C51.3015 55.6965 51.2793 55.7862 51.2793 55.8086C51.257 56.0105 51.2793 56.2348 51.3238 56.3693C51.5243 56.3245 51.7248 56.2348 51.8361 56.1451H52.4598L53.2395 56.1899C53.7518 56.1899 54.2864 56.1899 54.821 56.1226C55.8902 56.1002 56.9816 56.0329 58.0731 56.1002C59.1868 55.8311 60.3006 55.8535 61.4589 56.0778C62.6171 55.8086 63.7754 55.9208 64.956 56.0553C66.1366 56.2123 67.3394 55.8086 68.5645 56.0553C69.7896 56.0553 71.0148 55.9881 72.2621 56.0553C73.5095 56.1675 74.7792 56.3021 76.0711 56.0553C77.3631 55.9881 78.655 55.8983 79.947 56.0553C81.2612 55.7638 82.5754 55.8983 83.9119 56.0553C85.2484 56.0105 86.5848 56.2123 87.9436 56.0553C88.6119 56.0778 89.3024 56.0553 89.9929 56.0329H90.9507C90.9507 56.0329 91.0175 56.0329 91.1066 56.0553C91.1066 56.0553 91.1512 55.9881 91.1735 55.8983V54.9339C91.218 54.2387 91.1957 53.5658 91.1066 52.8705C90.9284 51.5024 91.1735 50.1567 91.1066 48.811C91.3739 47.4653 91.0175 46.1421 91.1066 44.8188C91.0844 43.4955 91.2626 42.1947 91.1066 40.9163C91.0621 39.6155 90.9953 38.3595 91.1066 37.0811C90.6834 35.8251 91.218 34.5691 91.1066 33.358C91.1735 32.9319 91.1957 32.4833 91.1735 32.0572V31.7656L91.1289 31.631C91.1289 31.631 90.973 31.631 90.9062 31.631C90.9062 31.631 90.8171 31.631 90.7502 31.631H90.5275C90.3716 31.631 90.2379 31.631 90.082 31.631C89.7924 31.631 89.5029 31.6086 89.2133 31.5862C88.6341 31.5413 88.055 31.5189 87.4758 31.6086C86.3398 31.5637 85.2038 31.7432 84.0901 31.5862C82.9763 31.788 81.8849 31.4067 80.8157 31.5637C79.7465 31.5637 78.6996 31.5637 77.6749 31.5413C76.6503 31.2049 75.6479 31.474 74.6678 31.4965C73.6877 31.4516 72.7299 31.6759 71.8167 31.4516C70.8811 31.4292 69.9901 31.2722 69.0991 31.4067C68.2304 31.4516 67.3617 30.9133 66.5375 31.3619C65.7133 31.4516 64.9115 31.0255 64.1541 31.317C63.3745 31.5862 62.6394 31.2722 61.9266 31.2722C61.2138 31.2722 60.5456 31.2497 59.8773 31.2273C56.9594 31.16 54.665 31.0703 53.0835 31.003C51.5243 30.9133 50.6779 30.8236 50.6779 30.7339C50.6779 30.6442 51.7025 30.532 53.6404 30.4423C55.556 30.3526 58.3627 30.2629 61.9266 30.1956C62.6394 30.1956 63.3745 29.9489 64.1541 30.1508C64.9115 30.1508 65.7133 29.9713 66.5375 30.1059C67.3617 29.7919 68.2081 30.0386 69.0991 30.061C69.9678 30.061 70.8811 30.1508 71.8167 30.0162C72.7522 29.8368 73.6877 30.1059 74.6678 29.9713C75.6479 30.1508 76.6503 30.1059 77.6749 29.9265C78.6996 30.1059 79.7465 29.8816 80.8157 29.904C81.8849 30.1956 82.9763 29.9938 84.0901 29.8816C85.2038 29.7695 86.3176 29.9265 87.4758 29.8592C88.055 29.8816 88.6341 29.8592 89.2133 29.8592C89.5029 29.8592 89.7924 29.8592 90.082 29.8368H91.0175C91.6412 29.8143 92.3095 29.7695 92.9777 29.747C92.9777 30.1283 93 30.532 93 30.9582V32.0347C93 32.4609 92.9554 32.9094 92.9109 33.3356C93 34.5691 92.9109 35.8027 92.9109 37.0586C93.0223 38.3146 92.9109 39.593 92.9109 40.8939C92.9777 42.1947 92.5991 43.4955 92.9109 44.7964C92.9554 46.1196 92.8663 47.4429 92.9109 48.7886C92.8663 50.1343 92.8218 51.48 92.9109 52.8481C92.755 53.521 92.7327 54.2162 92.755 54.9115C92.755 55.0909 92.755 55.2479 92.7773 55.4274V55.8086L92.8218 55.8759V55.9881C92.8663 56.6385 92.8886 57.2889 92.9109 57.9393C92.2872 57.9617 91.6412 57.9842 90.973 57.9842H89.8815C89.191 57.9842 88.5228 57.9842 87.8322 57.9393C86.4735 57.9617 85.137 57.9393 83.8005 57.9393C82.464 58.029 81.1498 57.8047 79.8356 57.9393C78.5214 58.0739 77.2294 57.8047 75.9598 57.9393C74.6678 58.029 73.4204 58.0739 72.1508 57.9393C70.9034 57.9393 69.656 57.6478 68.4532 57.9393C67.228 58.0066 66.0252 58.343 64.8446 57.9393C63.6641 58.0515 62.4835 57.7375 61.3475 57.9169C60.1892 57.6029 59.0755 57.9169 57.9617 57.8945C56.848 57.8272 55.7565 57.715 54.7096 57.872C54.175 57.9393 53.6404 57.9169 53.1281 57.872C52.8608 57.872 52.6158 57.8496 52.3485 57.8272C52.2148 57.8272 52.0812 57.8272 51.9698 57.8272H51.4352C50.9229 57.8945 50.3883 57.8945 49.8982 57.872C49.8982 57.2216 49.9651 56.5712 50.0096 55.9881C50.0096 55.8983 50.0096 55.7862 50.0096 55.6965C50.0096 55.6068 50.0096 55.5171 50.0096 55.4274C50.0096 55.2479 50.0096 55.0685 49.9651 54.9115C50.0096 53.9247 49.9428 52.9603 50.0096 52.0407C49.5864 51.0987 50.0096 50.2016 50.0542 49.3045C50.121 48.4298 49.7646 47.555 50.0987 46.7252C49.7869 45.8954 50.0542 45.0879 50.1433 44.3254C50.2324 43.5628 50.0096 42.8003 50.1878 42.0826C49.9651 41.3649 50.3215 40.692 50.2324 40.0192C50.3883 39.3688 50.2324 38.7408 50.2769 38.1576C50.2324 37.5745 50.2546 37.0138 50.3215 36.4755C50.3215 35.9597 50.366 35.4662 50.366 34.9953C50.4774 32.259 50.5888 30.7563 50.7001 30.7563L50.767 30.6217Z" fill="currentColor"/>
<path d="M50.767 30.6217C50.8783 30.6217 50.9897 32.6851 51.1011 36.4307C51.1011 37.0586 51.1234 37.7315 51.1456 38.4492C51.1679 39.1669 51.2124 39.9295 51.1902 40.7369C51.0343 41.5443 51.4797 42.3966 51.2347 43.2937C51.1679 44.1908 51.2347 45.1328 51.2793 46.1196C51.3238 47.1065 51.1902 48.1158 51.3238 49.1923C51.6357 50.2464 50.9897 51.3454 51.3684 52.4893C51.4575 53.6331 51.4352 54.7994 51.4129 56.0105C51.1902 57.2216 51.4129 58.4776 51.4575 59.756C51.1679 61.0344 51.3015 62.3577 51.502 63.7034C51.1233 65.0491 51.1679 66.4396 51.5466 67.8526C51.5466 69.2656 51.4129 70.701 51.5688 72.1812C51.5688 72.8989 51.5911 73.6391 51.6134 74.3792C51.6134 74.7605 51.6134 75.1193 51.6134 75.5006C51.6134 76.1286 51.6134 76.8239 51.5911 77.4519H51.502C51.2124 77.4743 50.8783 77.5191 50.5442 77.5416L49.5641 77.6089C49.1854 77.6313 48.7845 77.6537 48.4058 77.6537C47.6262 77.6537 46.8466 77.6089 46.067 77.4967C44.4855 77.7659 42.8817 77.6537 41.2556 77.5191C39.6295 77.3622 37.9812 77.7659 36.3106 77.5191C34.64 77.5191 32.9471 77.5864 31.2319 77.5191C29.5168 77.407 27.7793 77.2724 26.0196 77.5191C24.2599 77.5864 22.4779 77.6761 20.6959 77.5191C18.8917 77.8107 17.0874 77.6761 15.2609 77.5191C13.4344 77.564 11.5856 77.3622 9.71447 77.5191C8.77892 77.4967 7.84338 77.5191 6.90784 77.5416C6.44007 77.5416 5.9723 77.5416 5.50453 77.5416C5.14813 77.5416 4.79173 77.5416 4.43533 77.5416C3.98984 77.5416 3.56662 77.5416 3.1434 77.4967H3.16567C3.16567 77.0482 3.18795 76.5996 3.18795 76.151V75.0969C3.23249 74.6259 3.25477 74.1549 3.25477 73.6839C3.25477 72.7419 3.25477 71.7999 3.16567 70.858C2.98747 68.974 3.25477 67.1125 3.16567 65.2733C3.43297 63.4342 3.07657 61.5951 3.16567 59.8009C3.1434 57.9842 3.32159 56.2123 3.16567 54.4405C3.12112 52.6687 3.0543 50.9193 3.16567 49.1923C2.74245 47.4653 3.27704 45.7608 3.16567 44.0787C3.34387 42.3966 3.1434 40.7369 3.16567 39.0996C3.07657 37.4624 3.36614 35.8475 3.18795 34.2551C3.18795 33.6271 3.18795 32.9991 3.18795 32.3711V31.2946C3.16567 30.7339 3.16567 30.1732 3.18795 29.6349C3.74482 29.6349 4.30169 29.6573 4.83628 29.7022C5.23723 29.6798 5.3486 29.6573 5.54908 29.6573C5.72727 29.6573 5.92775 29.6573 6.10595 29.6573C6.48462 29.6573 6.86329 29.6798 7.24196 29.7022C7.99931 29.747 8.73438 29.8143 9.46944 29.747C10.9396 29.747 12.3652 29.747 13.7685 29.7695C15.1718 30.1059 16.5528 29.8368 17.8893 29.8143C19.2258 29.8592 20.54 29.6349 21.8097 29.8592C23.0794 29.8816 24.3267 30.0386 25.5296 29.904C26.7324 29.8592 27.8907 30.3975 29.0267 29.9489C30.1627 29.8592 31.2542 30.2853 32.3011 29.9938C33.348 29.7246 34.3727 30.0162 35.3528 30.0386C36.3329 30.0386 37.2684 30.061 38.1594 30.0835C42.1689 30.1508 45.3319 30.2405 47.4703 30.3078C49.6087 30.375 50.767 30.4872 50.767 30.5545C50.767 30.6442 49.3414 30.7563 46.7129 30.846C44.0845 30.9357 40.231 31.0255 35.3528 31.0927C34.3727 31.0927 33.3703 31.3395 32.3011 31.1376C31.2542 31.1376 30.1627 31.317 29.0267 31.1825C27.8907 31.4965 26.7324 31.2497 25.5296 31.2273C24.3267 31.2273 23.0794 31.1376 21.8097 31.2722C20.54 31.4516 19.2258 31.1825 17.8893 31.317C16.5528 31.1376 15.1718 31.1825 13.7685 31.3619C12.3652 31.1825 10.9396 31.4067 9.46944 31.3843C8.73438 31.2497 7.99931 31.2273 7.24196 31.2497C6.86329 31.2497 6.48462 31.2946 6.10595 31.317C5.92775 31.317 5.72727 31.3395 5.54908 31.3619C5.37088 31.3619 5.10358 31.3843 5.12585 31.4067C5.05903 31.4067 5.01448 31.4292 4.94766 31.4516C4.94766 31.5189 4.94766 31.5862 4.94766 31.631V32.416C4.92538 33.044 4.92538 33.672 4.94766 34.3C4.90311 35.8924 5.01448 37.5072 4.96993 39.1445C5.10358 40.7817 5.14813 42.4414 4.96993 44.1235C5.05903 45.8056 4.96993 47.5102 4.96993 49.2372C5.0813 50.9641 4.96993 52.7135 4.96993 54.4854C5.03675 56.2572 4.65808 58.0515 4.96993 59.8457C5.01448 61.6624 4.92538 63.4791 4.96993 65.3182C4.92538 67.1573 4.88083 69.0189 4.96993 70.9028C4.81401 71.8448 4.79173 72.7868 4.81401 73.7288C4.81401 74.1998 4.85856 74.6708 4.88083 75.1418V75.4557H4.90311C4.90311 75.4557 4.90311 75.5006 4.92538 75.523C4.92538 75.5455 4.94766 75.5679 4.96993 75.5903H5.05903V75.5455H5.39315C5.86092 75.5455 6.32869 75.5455 6.79647 75.5455C7.73201 75.5455 8.66755 75.5679 9.60309 75.5903C11.4742 75.5679 13.323 75.5903 15.1495 75.5903C16.9761 75.5006 18.8026 75.7249 20.5846 75.5903C22.3888 75.4558 24.1485 75.7249 25.9083 75.5903C27.668 75.5006 29.4054 75.4558 31.1206 75.5903C32.8357 75.5903 34.5286 75.8819 36.1992 75.5903C37.8698 75.523 39.5182 75.1866 41.1442 75.5903C42.7703 75.4782 44.3741 75.7922 45.9556 75.6127C46.7352 75.7697 47.5148 75.7698 48.2944 75.7473C48.6731 75.7473 49.0741 75.7025 49.4527 75.68H49.6532C49.6532 75.68 49.7423 75.6352 49.7869 75.6352C49.7869 75.6352 49.8091 75.4782 49.8314 75.366C49.8314 74.9848 49.8537 74.6259 49.876 74.2446C49.876 73.5045 49.876 72.7644 49.8091 72.0467C49.6532 70.5664 49.8982 69.131 49.8314 67.718C49.6532 66.305 50.0764 64.9145 49.876 63.5688C49.9205 62.2231 49.8537 60.8998 49.9205 59.6214C49.4973 58.343 49.9205 57.087 49.9651 55.8759C50.0319 54.6648 49.6755 53.4985 50.0096 52.3547C49.6978 51.2109 49.9651 50.1119 50.0542 49.0577C50.1433 48.0036 49.9205 46.9719 50.0987 45.9851C49.876 44.9982 50.2324 44.0562 50.1433 43.1591C50.2992 42.262 50.1433 41.4097 50.1878 40.6023C50.1433 39.7949 50.1655 39.0323 50.2324 38.3146C50.2324 37.5969 50.2769 36.9241 50.2769 36.2961C50.3883 32.5281 50.4997 30.4872 50.611 30.4872L50.767 30.6217Z" fill="currentColor"/>
<path d="M71.4157 39.8173C71.4157 39.8173 71.3489 39.9295 71.2375 39.9967C71.1707 40.0192 71.1039 40.064 71.0148 40.0865C70.9257 40.1313 70.8366 40.1762 70.7252 40.221C70.6584 40.2435 70.5693 40.2883 70.5024 40.3332C70.4579 40.3556 70.4356 40.378 70.3911 40.4004C70.3465 40.4229 70.302 40.4453 70.2574 40.4677C70.1015 40.3556 70.1906 40.8042 69.9901 40.6247C69.8787 40.6247 69.7896 40.7144 69.7228 40.8266C69.656 40.9387 69.4778 40.849 69.4555 41.0509C69.5001 41.2079 69.411 41.1854 69.2996 41.163C69.2105 41.163 69.1214 41.163 69.1882 41.32C69.1437 41.4546 69.0546 41.5443 68.9432 41.634C68.8095 41.6116 68.765 41.6564 68.7427 41.7461C68.7427 41.8134 68.7427 41.9256 68.7205 41.9929C68.4086 41.9704 68.4309 42.1723 68.5423 42.3741C68.119 42.3293 68.119 42.5536 68.4086 42.8003C68.4086 42.8676 68.3418 42.9348 68.2972 43.0021C68.2972 43.047 68.275 43.0694 68.275 43.1143C68.275 43.1591 68.275 43.204 68.3418 43.2488C68.3418 43.3385 68.3418 43.4058 68.3418 43.4955C68.3418 43.5853 68.3418 43.6525 68.3195 43.7423C68.4309 43.832 68.52 43.8993 68.52 43.9665C68.52 44.0114 68.52 44.0338 68.4754 44.0787C68.4754 44.1235 68.4086 44.1684 68.3641 44.2132C68.6536 44.3254 68.5868 44.4824 68.4977 44.6842C68.4532 44.7964 68.5423 44.8412 68.6091 44.9085C68.6982 44.9758 68.765 45.0207 68.6982 45.1552C68.7205 45.2449 68.7873 45.3122 68.8541 45.3795C68.8987 45.4468 68.9655 45.5141 69.01 45.6038C69.01 45.6487 69.01 45.7159 69.01 45.7608C69.01 45.8056 69.0323 45.8505 69.0769 45.8954C69.1214 45.9851 69.2105 46.0299 69.3664 45.9851C69.4555 46.0299 69.5446 46.0524 69.6337 46.0972C69.7228 46.1421 69.7674 46.2094 69.8119 46.3215C70.1238 46.1645 70.1906 46.3439 70.302 46.5682C70.3911 46.5682 70.4579 46.6579 70.547 46.7028C70.6361 46.7476 70.7252 46.7925 70.8366 46.7028C70.9257 46.7476 71.0148 46.7028 71.1261 46.7028C71.2152 46.7028 71.3043 46.6804 71.4157 46.7476C71.5048 46.7925 71.6162 46.8149 71.7053 46.8373C71.7944 46.8373 71.9058 46.7925 71.9726 46.7028C72.0394 46.5906 72.1285 46.5906 72.2399 46.5906C72.329 46.5906 72.4403 46.5906 72.5072 46.5458C72.6408 46.6579 72.7299 46.5682 72.7967 46.5009C72.8636 46.4336 72.9081 46.3215 72.9972 46.2991C73.064 46.2542 73.1531 46.2094 73.2422 46.1869C73.3313 46.1645 73.3982 46.0972 73.4204 45.9851C73.465 45.9178 73.5095 45.8281 73.5764 45.7608C73.5986 45.7384 73.6432 45.6935 73.6655 45.6711C73.71 45.6487 73.7323 45.6262 73.7991 45.6038C73.6877 45.4019 73.7546 45.3571 73.8437 45.3347C73.9328 45.2898 74.0887 45.2898 74.0887 45.1777C74.2001 45.1328 74.2446 45.0655 74.2446 44.9758C74.2446 44.8861 74.2446 44.7964 74.2892 44.7291C74.2892 44.6394 74.3337 44.5721 74.4005 44.5048C74.4674 44.4375 74.4896 44.3478 74.4005 44.2581C74.4005 44.2132 74.4005 44.1684 74.4005 44.146C74.4005 44.1011 74.4005 44.0562 74.3783 44.0114C74.3783 43.9217 74.3783 43.8544 74.4451 43.7647C74.3337 43.6974 74.3783 43.6077 74.4451 43.518C74.4896 43.4283 74.5342 43.3385 74.4451 43.2713V43.1591L74.4005 43.047C74.4005 43.047 74.3783 42.89 74.3783 42.8227C74.5119 42.7106 74.4896 42.6208 74.4451 42.5536C74.4005 42.4863 74.2892 42.4638 74.2446 42.3966C74.2223 42.2396 73.955 42.2396 74.0664 42.0153C74.0441 41.948 74.0219 41.8807 73.9996 41.791C73.9996 41.7237 73.9328 41.6564 73.8437 41.6564C73.7768 41.634 73.8437 41.4994 73.8437 41.3873C73.8437 41.2751 73.7991 41.2303 73.6209 41.3424C73.5541 41.3424 73.5541 41.2303 73.5541 41.1406C73.5541 41.0509 73.5095 40.9836 73.3759 41.0733C73.1309 41.2303 73.1977 40.9163 73.1086 40.849C73.0195 40.7817 72.9304 40.7144 72.8413 40.6472C72.0394 40.1313 71.4157 40.0416 71.4157 39.8397C71.4157 39.7949 71.4603 39.75 71.5494 39.7052C71.6385 39.6603 71.7944 39.6155 71.9726 39.593C72.3512 39.5482 72.9527 39.593 73.6209 39.907C73.7546 39.9743 74.0219 39.8622 74.0219 40.1313C74.0887 40.1762 74.1778 40.1986 74.2669 40.221C74.356 40.2435 74.4228 40.3107 74.4451 40.4229C74.7792 40.3107 74.7347 40.6472 74.846 40.7817C74.9129 40.849 74.9574 40.9387 75.002 41.0284C75.0465 41.1181 75.1133 41.1854 75.2247 41.2303C75.4697 41.32 75.3584 41.6116 75.5588 41.7461C75.492 42.0153 75.6034 42.1723 75.8261 42.3517C75.7816 42.4863 75.8261 42.5984 75.8707 42.6881L75.9598 42.8451C75.9598 42.8451 76.0043 42.9573 76.0043 43.0246C75.8707 43.1591 75.8929 43.2713 75.9152 43.3834C75.9598 43.4955 76.0266 43.6077 76.0934 43.7423C76.1602 43.8544 76.1157 43.989 76.0934 44.1235C76.0934 44.1908 76.0711 44.2581 76.0711 44.303C76.0711 44.3702 76.0711 44.4375 76.0711 44.5048C75.982 44.7515 76.0489 45.0207 75.9152 45.2674C75.9152 45.4244 75.9152 45.5589 75.8929 45.6935C75.8484 45.8281 75.7593 45.9402 75.6256 46.0299C75.6256 46.1869 75.5365 46.2991 75.4474 46.4112C75.3806 46.5233 75.2692 46.6355 75.1801 46.7476C75.1801 46.8149 75.1356 46.8822 75.091 46.9495C75.0465 46.9943 75.0019 47.0616 74.9351 47.1065C74.8237 47.1962 74.7124 47.2859 74.6233 47.3981C74.5342 47.5102 74.3783 47.555 74.2446 47.5999C74.111 47.6448 73.9996 47.7345 73.955 47.9363C73.7323 48.1382 73.4204 48.183 73.1531 48.3625C72.9972 48.4073 72.8636 48.4297 72.7076 48.4746C72.5517 48.497 72.4181 48.5643 72.2621 48.6316C72.0839 48.497 71.928 48.497 71.7944 48.5419C71.6385 48.5643 71.5048 48.654 71.3489 48.7213C71.193 48.7662 71.037 48.7662 70.8811 48.7437C70.7252 48.7213 70.5693 48.6765 70.4356 48.6316C70.2797 48.6316 70.1238 48.5867 69.9901 48.5419C69.8342 48.497 69.7006 48.4298 69.5669 48.3625C69.411 48.3625 69.2773 48.2503 69.166 48.1606C69.0323 48.0709 68.9432 47.9588 68.765 47.9363C68.6091 47.9363 68.4977 47.7793 68.4086 47.6672C68.3195 47.555 68.2304 47.4205 68.0745 47.3756C67.9408 47.3083 67.8072 47.2186 67.7181 47.1289C67.6735 47.0841 67.629 47.0168 67.5844 46.9495C67.5622 46.8822 67.5399 46.8149 67.5176 46.7252C67.4285 46.6131 67.4062 46.4561 67.3617 46.3215C67.3171 46.1869 67.2503 46.0748 67.0721 46.0075C66.983 45.8954 66.8271 45.8056 66.738 45.6935C66.6489 45.5814 66.6266 45.4244 66.7825 45.2449C66.6934 45.1328 66.7157 44.9982 66.7157 44.8637C66.7157 44.7291 66.738 44.5945 66.6266 44.4824C66.6934 44.4151 66.7157 44.3478 66.738 44.2805C66.738 44.2132 66.738 44.146 66.738 44.1011C66.6934 43.989 66.6043 43.8544 66.6266 43.7423C66.6712 43.6301 66.7157 43.4955 66.738 43.3834C66.7603 43.2713 66.7825 43.1591 66.738 43.0246C66.7157 42.9573 66.7157 42.89 66.7157 42.8451C66.7157 42.7778 66.7603 42.733 66.7825 42.6881C66.8494 42.576 66.9162 42.4863 66.9162 42.3741C66.8716 42.2396 66.9607 42.1498 67.0498 42.0601C67.1389 41.9704 67.2503 41.9031 67.1835 41.7686C67.2949 41.5891 67.3617 41.3873 67.5176 41.2527C67.4062 41.0509 67.4731 40.9612 67.5622 40.9163C67.6735 40.8714 67.8072 40.8714 67.8963 40.8042C67.9854 40.7593 67.9854 40.6472 68.0299 40.535C68.0745 40.4453 68.1413 40.378 68.2972 40.4229C68.2527 40.2435 68.2972 40.1762 68.4086 40.1537C68.4977 40.1537 68.6314 40.1537 68.7205 40.1537C68.8987 40.1313 68.9209 39.8622 69.1214 39.9295C69.1214 39.6379 69.4333 39.907 69.5223 39.7725C69.7005 39.8397 69.7674 39.6827 69.901 39.6827C69.9456 39.6379 70.0124 39.6155 70.0569 39.593C70.1238 39.593 70.1683 39.593 70.2351 39.6155C70.3465 39.6155 70.4356 39.6155 70.5247 39.6155C70.6584 39.6155 70.792 39.6155 70.8811 39.6379C70.9925 39.6379 71.0816 39.6827 71.1484 39.7052C71.2821 39.75 71.3489 39.8173 71.3489 39.8622L71.4157 39.8173Z" fill="currentColor"/>
<path d="M62.283 71.5308C62.283 71.5308 62.2162 71.643 62.1048 71.7102C62.038 71.7327 61.9712 71.7775 61.8821 71.7999C61.793 71.8448 61.7039 71.8897 61.5925 71.9345C61.5257 71.9794 61.4589 72.0018 61.3698 72.0467C61.3252 72.0691 61.3029 72.0915 61.2584 72.1139C61.2138 72.1364 61.1693 72.1588 61.1247 72.1812C60.9688 72.0691 61.0579 72.5177 60.8574 72.3382C60.7461 72.3382 60.657 72.4279 60.5901 72.5401C60.5233 72.6522 60.3451 72.5625 60.3228 72.7644C60.3674 72.9214 60.2783 72.8989 60.1669 72.8765C60.0778 72.8765 59.9887 72.8765 60.0555 73.0335C60.011 73.1681 59.9219 73.2578 59.8105 73.3475C59.6769 73.3251 59.6323 73.3699 59.6101 73.4596C59.6101 73.5269 59.6101 73.6391 59.5878 73.7064C59.2759 73.6839 59.2982 73.8858 59.4096 74.0876C58.9864 74.0428 58.9864 74.2671 59.2759 74.5138C59.2759 74.5811 59.2091 74.6483 59.1646 74.7156C59.1646 74.7605 59.1423 74.7829 59.1423 74.8278C59.1423 74.8726 59.1423 74.9175 59.2091 74.9623C59.2091 75.052 59.2091 75.1193 59.2091 75.209C59.2091 75.2988 59.2091 75.366 59.1868 75.4557C59.2982 75.5455 59.3873 75.6127 59.3873 75.68C59.3873 75.7249 59.3873 75.7473 59.3428 75.7922C59.3428 75.837 59.2759 75.8819 59.2314 75.9267C59.521 76.0389 59.4541 76.1959 59.365 76.3977C59.3205 76.5099 59.4096 76.5547 59.4764 76.622C59.5655 76.6893 59.6323 76.7342 59.5655 76.8687C59.5878 76.9584 59.6546 77.0033 59.7214 77.093C59.766 77.1603 59.8328 77.2276 59.8774 77.3173C59.8774 77.3622 59.8774 77.4294 59.8774 77.4743C59.8774 77.5192 59.8996 77.564 59.9442 77.6089C59.9887 77.6986 60.0778 77.7434 60.2337 77.6986C60.3228 77.7434 60.4119 77.7659 60.501 77.8107C60.5901 77.8556 60.6347 77.9229 60.6792 78.035C60.9911 77.878 61.0579 78.0574 61.1693 78.2817C61.2584 78.2817 61.3252 78.3714 61.4143 78.4163C61.5034 78.4611 61.5925 78.506 61.7039 78.4163C61.793 78.4611 61.8821 78.4163 61.9935 78.4163C62.0826 78.4163 62.1717 78.3939 62.283 78.4611C62.3721 78.506 62.4835 78.5284 62.5726 78.5508C62.6617 78.5508 62.7731 78.506 62.8399 78.4163C62.9067 78.3041 62.9958 78.3041 63.1072 78.3041C63.1963 78.3041 63.3077 78.3041 63.3745 78.2593C63.5081 78.349 63.5972 78.2817 63.6641 78.2144C63.7309 78.1471 63.7754 78.035 63.8645 78.0126C63.9314 77.9677 64.0205 77.9229 64.1096 77.9004C64.1987 77.878 64.2655 77.8107 64.2878 77.6986C64.3323 77.6313 64.3769 77.5416 64.4437 77.4743C64.466 77.4294 64.5105 77.407 64.5328 77.3846C64.5773 77.3622 64.5996 77.3397 64.6664 77.3173C64.5551 77.1154 64.6219 77.0706 64.711 77.0481C64.8001 77.0033 64.956 77.0033 64.956 76.8912C65.0674 76.8463 65.1119 76.779 65.1119 76.6893C65.1119 76.5996 65.1119 76.5099 65.1565 76.4426C65.1565 76.3529 65.201 76.2856 65.2679 76.2183C65.3347 76.151 65.357 76.0613 65.2679 75.9716C65.2679 75.9267 65.2679 75.8819 65.2679 75.8595C65.2679 75.8146 65.2679 75.7697 65.2456 75.7249C65.2456 75.6352 65.2456 75.5679 65.3124 75.4782C65.201 75.4109 65.2456 75.3212 65.3124 75.2315C65.357 75.1418 65.4015 75.0521 65.3124 74.9848V74.8726L65.2679 74.7605C65.2679 74.7605 65.2456 74.6035 65.2456 74.5362C65.3792 74.4241 65.357 74.3344 65.3124 74.2671C65.2679 74.1998 65.1565 74.1774 65.1119 74.1101C65.0897 73.9531 64.8224 73.9531 64.9337 73.7288C64.9115 73.6615 64.8892 73.5942 64.8669 73.5045C64.8446 73.4372 64.8001 73.3699 64.711 73.3699C64.6442 73.3475 64.711 73.2129 64.711 73.1008C64.711 72.9887 64.6664 72.9438 64.4882 73.0559C64.4214 73.0559 64.4214 72.9438 64.4214 72.8541C64.4214 72.7644 64.3769 72.6971 64.2432 72.7868C63.9982 72.9438 64.065 72.6298 63.9759 72.5625C63.8868 72.4952 63.7977 72.4279 63.7086 72.3607C62.9067 71.8448 62.283 71.7551 62.283 71.5532C62.283 71.5084 62.3276 71.4635 62.4167 71.4187C62.5058 71.3738 62.6617 71.329 62.8399 71.3065C63.2186 71.2617 63.82 71.3065 64.4882 71.6205C64.6219 71.6878 64.8892 71.5757 64.8892 71.8448C64.956 71.8897 65.0451 71.9121 65.1342 71.9345C65.2233 71.957 65.2901 72.0242 65.3124 72.1364C65.4906 72.0915 65.5574 72.1364 65.602 72.2261C65.6465 72.3158 65.6688 72.4279 65.7134 72.4952C65.7802 72.5625 65.8247 72.6522 65.8693 72.7419C65.9138 72.8316 65.9807 72.8989 66.092 72.9438C66.337 73.0335 66.2257 73.3251 66.4261 73.4596C66.3593 73.7288 66.4707 73.8858 66.6934 74.0652C66.6489 74.1998 66.6934 74.3119 66.738 74.4016L66.8271 74.5586C66.8271 74.5586 66.8716 74.6708 66.8716 74.7381C66.738 74.8726 66.738 74.9848 66.7825 75.0969C66.8271 75.209 66.8939 75.3212 66.9607 75.4557C67.0276 75.5679 66.983 75.7025 66.9607 75.837C66.9607 75.9043 66.9385 75.9716 66.9385 76.0165C66.9385 76.0837 66.9385 76.151 66.9385 76.2183C66.8494 76.465 66.9162 76.7342 66.7825 76.9809C66.7825 77.1154 66.7825 77.2724 66.7603 77.407C66.7157 77.5416 66.6266 77.6537 66.493 77.7434C66.493 77.9004 66.4039 78.0126 66.3148 78.1247C66.2479 78.2368 66.1366 78.349 66.0475 78.4611C66.0475 78.5284 66.0029 78.5957 65.9584 78.663C65.9138 78.7303 65.8693 78.7751 65.8025 78.82C65.6911 78.9097 65.5797 78.9994 65.4906 79.1115C65.4015 79.2237 65.2456 79.2686 65.1119 79.3134C64.9783 79.3583 64.8669 79.448 64.8224 79.6498C64.5996 79.8517 64.2878 79.8965 64.0205 80.076C63.8645 80.1208 63.7309 80.1432 63.575 80.1881C63.4191 80.2105 63.2854 80.2778 63.1295 80.3451C62.9513 80.2105 62.7954 80.2105 62.6617 80.2554C62.5058 80.2778 62.3721 80.3675 62.2162 80.4348C62.0603 80.4797 61.9044 80.4797 61.7484 80.4572C61.5925 80.4348 61.4366 80.39 61.3029 80.3451C61.147 80.3451 60.9911 80.3002 60.8574 80.2554C60.7015 80.2105 60.5679 80.1433 60.4342 80.076C60.2783 80.076 60.1446 79.9638 60.0333 79.8741C59.8996 79.7844 59.8105 79.6723 59.6323 79.6498C59.4764 79.6498 59.365 79.4928 59.2759 79.3807C59.1868 79.2686 59.0977 79.134 58.9418 79.0891C58.8082 79.0218 58.6745 78.9321 58.5854 78.8424C58.5409 78.7976 58.4963 78.7303 58.4518 78.663C58.4295 78.5957 58.3849 78.5284 58.3849 78.4387C58.2958 78.3266 58.2736 78.1696 58.229 78.035C58.1845 77.9004 58.1176 77.7883 57.9394 77.721C57.8503 77.6089 57.6944 77.5191 57.6053 77.407C57.5162 77.2949 57.4939 77.1379 57.6499 76.9584C57.5608 76.8463 57.583 76.6893 57.583 76.5547C57.583 76.4202 57.6053 76.2856 57.4939 76.1735C57.5608 76.1062 57.583 76.0389 57.6053 75.9716C57.6053 75.9043 57.6053 75.8595 57.6053 75.7922C57.5608 75.68 57.4717 75.5455 57.4939 75.4333C57.5385 75.3212 57.583 75.1866 57.6053 75.0745C57.6276 74.9623 57.6499 74.8502 57.6053 74.7156C57.583 74.6483 57.583 74.5811 57.6053 74.5362C57.6053 74.4689 57.6499 74.4241 57.6721 74.3792C57.739 74.2671 57.8058 74.1773 57.8058 74.0652C57.7612 73.9306 57.8503 73.8409 57.9394 73.7512C58.0285 73.6615 58.1176 73.5942 58.0731 73.4596C58.1845 73.2802 58.2513 73.0784 58.4072 72.9438C58.2958 72.7419 58.3627 72.6522 58.4518 72.6074C58.5631 72.5625 58.6968 72.5625 58.7859 72.4952C58.875 72.4504 58.875 72.3382 58.9195 72.2261C58.9418 72.1364 59.0309 72.0691 59.1868 72.1139C59.1423 71.9345 59.1868 71.8672 59.2982 71.8448C59.3873 71.8448 59.521 71.8448 59.6101 71.8448C59.7883 71.8448 59.8105 71.5532 60.011 71.6205C60.011 71.329 60.3228 71.5981 60.4119 71.4635C60.5901 71.5308 60.657 71.3738 60.7906 71.3738C60.8352 71.329 60.8797 71.3065 60.9465 71.2841C61.0134 71.2841 61.0579 71.2841 61.1247 71.3065C61.2361 71.3065 61.3252 71.3065 61.4143 71.3065C61.548 71.3065 61.6816 71.3065 61.7707 71.329C61.8821 71.329 61.9712 71.3738 62.038 71.3962C62.1717 71.4411 62.2385 71.5084 62.2385 71.5532L62.283 71.5308Z" fill="currentColor"/>
<path d="M19.9832 19.8786C20.0945 19.8786 20.2059 19.9908 20.3173 20.2151C20.3173 20.2599 20.3618 20.2823 20.3618 20.3272C20.3841 20.3721 20.4287 20.4169 20.4064 20.4618C20.2505 20.5066 20.696 20.5515 20.4509 20.6188C20.3841 20.6636 20.4509 20.7309 20.4955 20.7758C20.54 20.843 20.4064 20.8879 20.54 20.9552C20.8519 21.0225 20.2059 21.0898 20.5846 21.1346C20.6737 21.2019 20.6514 21.2692 20.6291 21.3365C20.4064 21.4038 20.6291 21.471 20.6737 21.5607C20.3841 21.628 20.5178 21.7177 20.7182 21.785C20.3396 21.8523 20.3841 21.942 20.7628 22.0317C20.7628 22.1215 20.6291 22.1887 20.785 22.2785C20.8073 22.3682 20.8741 22.4579 20.8073 22.5476C21.0523 22.6373 21.0523 22.727 20.8296 22.8167C21.0969 22.9064 20.9855 22.9962 20.8519 23.0859C20.696 23.1756 21.0969 23.2877 20.8519 23.3774C20.8519 23.4671 20.9187 23.5793 20.8519 23.669C20.7405 23.7587 20.6069 23.8709 20.8519 23.983C20.9187 24.0951 21.0078 24.1849 20.8519 24.297C21.1414 24.4091 21.0078 24.4988 20.8519 24.611C20.8964 24.7231 20.696 24.8353 20.8519 24.925C20.8073 25.0371 20.9855 25.1493 20.8519 25.2614C20.7628 25.3735 20.6737 25.4857 20.8519 25.5978C21.0301 25.71 20.7628 25.8221 20.8519 25.9118C20.5846 26.024 20.941 26.1137 20.8519 26.2258C20.8741 26.338 20.696 26.4277 20.8519 26.5398C20.8964 26.652 20.9632 26.7417 20.8519 26.8314C21.2751 26.9211 20.7405 27.0332 20.8519 27.1229C20.6737 27.2127 20.8741 27.3248 20.8519 27.4145C20.941 27.5042 20.6514 27.5939 20.8296 27.6837C20.785 27.7734 20.9632 27.8631 20.8073 27.9528C21.0078 28.0425 20.6291 28.1322 20.785 28.2219C20.785 28.3116 20.785 28.4014 20.7628 28.4686C20.4287 28.5584 20.696 28.6256 20.7182 28.7153C20.6737 28.7826 20.8964 28.8723 20.6737 28.9396C20.6514 29.0069 20.4955 29.0966 20.6291 29.1639C20.6737 29.2312 20.1391 29.2985 20.5846 29.3658C20.6737 29.4331 20.2505 29.5003 20.54 29.5676C20.8073 29.6349 20.5178 29.6798 20.4955 29.747L20.4509 29.904C20.3173 30.375 20.1391 30.6442 19.9609 30.6442C19.7604 30.6442 19.5822 30.3078 19.4263 29.747C19.4263 29.6798 19.1813 29.6349 19.3817 29.5676C19.3817 29.5003 19.2035 29.4331 19.3372 29.3658C19.0253 29.2985 19.2926 29.2312 19.2926 29.1639C19.2926 29.0966 19.3817 29.0293 19.2481 28.9396C19.0699 28.8723 19.3372 28.7826 19.2035 28.7153C19.404 28.6481 19.3372 28.5584 19.159 28.4686C19.3372 28.3789 19.1144 28.3116 19.1367 28.2219C19.4263 28.1322 19.2258 28.0425 19.1144 27.9528C19.0031 27.8631 19.159 27.7734 19.0922 27.6837C19.1367 27.5939 19.0253 27.5042 19.0699 27.4145C18.9362 27.3248 18.8917 27.2351 19.0476 27.1229C18.9585 27.0332 19.0476 26.9211 19.0476 26.8314C18.9362 26.7417 19.0476 26.6295 19.0476 26.5398C18.9808 26.4277 19.3372 26.338 19.0476 26.2258C19.0031 26.1137 19.0922 26.024 19.0476 25.9118C19.0922 25.7997 19.1367 25.6875 19.0476 25.5978C19.3595 25.4857 19.159 25.3735 19.0476 25.2614C18.9585 25.1493 19.0031 25.0371 19.0476 24.925C19.0253 24.8128 19.0476 24.7007 19.0476 24.611C18.9585 24.4988 19.1813 24.4091 19.0476 24.297C18.914 24.1849 19.1813 24.0951 19.0476 23.983C18.9585 23.8709 18.914 23.7811 19.0476 23.669C19.0476 23.5793 19.3372 23.4671 19.0476 23.3774C18.9808 23.2877 18.6467 23.1756 19.0699 23.0859C18.9585 22.9962 19.2704 22.9064 19.0922 22.8167C19.404 22.727 19.0922 22.6373 19.1144 22.5476C19.1813 22.4579 19.2926 22.3682 19.1367 22.2785C18.9808 22.1887 19.2258 22.099 19.159 22.0317C18.9808 21.942 19.404 21.8747 19.2035 21.785C19.2481 21.7177 19.1813 21.628 19.2481 21.5607C18.8249 21.4935 19.2481 21.4038 19.2926 21.3365C19.3595 21.2692 19.0031 21.2019 19.3372 21.1346C19.0253 21.0673 19.2926 21 19.3817 20.9552C19.4708 20.8879 19.2481 20.843 19.4263 20.7758C19.2035 20.7085 19.5599 20.6636 19.4708 20.6188C19.6268 20.5739 19.4708 20.5291 19.5154 20.4618C19.4708 20.4169 19.4931 20.3721 19.5599 20.3272C19.5599 20.2823 19.6045 20.2375 19.6045 20.2151C19.7159 19.9908 19.8272 19.8786 19.9386 19.8786H19.9832Z" fill="currentColor"/>
<path d="M14.3476 0.0072344C14.3476 0.0072344 14.1249 0.43337 13.5903 0.904363C13.5012 0.994076 13.4121 1.08379 13.323 1.19593C13.2339 1.30807 13.1448 1.42021 13.0111 1.50992C12.7884 1.4875 12.9666 1.93606 12.6993 1.86878C12.5211 1.93606 12.4543 2.11549 12.3652 2.27248C12.2761 2.42948 12.0533 2.47434 12.031 2.72105C12.1424 3.05747 11.5187 2.81076 11.6747 3.21447C11.6301 3.43875 11.4742 3.59575 11.3405 3.77517C11.1846 3.7976 11.1178 3.88732 11.0732 4.02188C11.051 4.13403 11.0732 4.2686 11.0064 4.38074C10.8282 4.42559 10.7391 4.49288 10.6946 4.62745C10.65 4.73959 10.6723 4.89659 10.6946 5.05358C10.2491 5.12087 10.2045 5.39001 10.4273 5.74886C10.3604 5.99557 10.1377 6.19742 10.2045 6.51142C10.1377 6.78056 10.1822 7.04969 10.0486 7.31883C10.1377 7.47583 10.16 7.63283 10.16 7.7674C10.16 7.90197 10.0709 8.03654 9.93721 8.1711C10.0486 8.3281 10.0931 8.46267 10.0486 8.61967C10.0486 8.75424 9.95949 8.91124 9.89266 9.0458C9.80357 9.18038 9.87039 9.33737 9.91494 9.49437C9.95949 9.65137 10.0263 9.78594 9.91494 9.94293C9.91494 10.2569 10.004 10.5485 10.0263 10.8401C9.98176 11.1541 9.89266 11.5129 10.2268 11.7596C10.3827 12.0512 10.5386 12.3203 10.5164 12.6567C10.9173 12.8586 10.8728 13.195 10.895 13.5539C10.9841 13.6884 11.0287 13.8454 11.0732 14.0249C11.1178 14.1819 11.2069 14.3389 11.3628 14.4286C11.5187 14.7426 11.8083 14.922 11.9419 15.2584C12.0756 15.5724 12.2315 15.9088 12.5879 16.021C12.7661 16.0658 12.8775 16.2004 12.9666 16.335C13.0111 16.4023 13.0557 16.4695 13.1225 16.5368C13.1671 16.6041 13.2339 16.649 13.323 16.6938C13.3675 16.8957 13.5012 16.9854 13.6571 17.0751C13.813 17.1424 13.9912 17.1648 14.0803 17.2994C14.214 17.3891 14.3254 17.5012 14.4367 17.6134C14.5481 17.7255 14.704 17.7928 14.8599 17.8152C15.0159 17.8601 15.1495 17.9274 15.2832 17.9947C15.4168 18.0619 15.5505 18.1292 15.6841 18.2414C15.9069 18.1068 16.0405 18.1965 16.1519 18.3087C16.2633 18.4208 16.3746 18.5778 16.5306 18.5778C16.6419 18.7124 16.7979 18.7572 16.9315 18.7797C17.0874 18.8021 17.2434 18.7797 17.377 18.8469C17.6666 18.8469 17.9116 19.1834 18.2234 19.0264C18.3571 19.0488 18.513 19.0264 18.6467 19.0264C18.7135 19.0264 18.7803 19.0264 18.8471 19.0264C18.914 19.0264 18.9808 19.0488 19.0476 19.0936C19.3149 18.8918 19.5822 19.2955 19.8495 19.1385C20.1168 19.1385 20.3618 19.0936 20.6291 19.1161C20.785 19.2731 20.8964 19.2506 21.0301 19.2058C21.1414 19.1609 21.2528 19.0488 21.3865 19.0264C21.5201 19.0264 21.6092 18.9591 21.7206 18.9142C21.832 18.8694 21.9433 18.8245 22.077 18.9142C22.2997 18.8694 22.567 18.9591 22.7452 18.7572C22.9234 18.6227 23.3244 19.0488 23.3689 18.5554C23.458 18.4881 23.5694 18.5329 23.7031 18.5554C23.8144 18.5554 23.9258 18.5554 23.9481 18.3535C23.9926 18.0171 24.3045 18.2189 24.4604 18.1292C24.6386 18.0619 24.7722 17.9722 24.9282 17.9049C25.2623 17.748 25.5519 17.5685 25.8192 17.4115C26.0642 17.2545 26.2869 17.12 26.4651 17.0078C26.8215 16.7835 27.0443 16.6938 27.1111 16.7611C27.1779 16.8284 27.0443 17.0975 26.7102 17.5237C26.376 17.9274 25.7969 18.5105 24.9727 19.0488C24.7945 19.1609 24.7277 19.4525 24.4381 19.3852C24.349 19.4301 24.2599 19.5198 24.1708 19.6095C24.0817 19.6768 23.9704 19.7216 23.8367 19.7216C23.7253 20.1029 23.4135 19.9459 23.1685 20.0356C22.9457 20.1253 22.6561 20.1029 22.4334 20.2823C22.322 20.3945 22.1884 20.4169 22.0547 20.4393C21.9211 20.4393 21.7651 20.4393 21.6538 20.5066C21.4978 20.4393 21.3642 20.4169 21.2083 20.4618C21.0746 20.4842 20.941 20.5739 20.8073 20.686C20.4955 20.5291 20.2282 20.7758 19.9163 20.7758C19.6045 20.5066 19.2926 20.686 18.9808 20.7758C18.8917 20.7982 18.8249 20.8206 18.7358 20.7982C18.6467 20.7982 18.5798 20.7982 18.4907 20.7533C18.3348 20.7085 18.1789 20.686 18.0007 20.686C17.6888 20.5963 17.3325 20.6412 16.9983 20.5291C16.8201 20.5515 16.6197 20.5739 16.4637 20.5291C16.2855 20.4842 16.1296 20.3945 15.996 20.2599C15.8178 20.2599 15.6396 20.1926 15.4836 20.1253C15.3277 20.0581 15.1495 19.9683 14.9936 19.8786C14.8154 19.8562 14.6372 19.7889 14.4813 19.6992C14.3254 19.5871 14.1694 19.4974 13.9912 19.4076C13.813 19.3404 13.6794 19.1834 13.5457 19.0488C13.4121 18.9142 13.2562 18.7797 13.0111 18.8021C12.8329 18.7124 12.677 18.6002 12.5434 18.4657C12.4097 18.3311 12.2538 18.1965 12.0979 18.1068L11.8974 17.9049C11.8974 17.9049 11.7638 17.7704 11.6969 17.7031C11.5633 17.5685 11.4074 17.434 11.2514 17.3218C11.1846 16.8284 10.8282 16.649 10.4718 16.4023C10.1377 16.1555 9.98176 15.7743 9.78129 15.4154C9.53627 15.1014 9.38034 14.7201 9.22442 14.3837C8.95712 14.0697 9.04622 13.6212 8.77892 13.3072C8.51163 12.9932 8.68982 12.5446 8.4448 12.2082C8.24433 11.8718 8.15523 11.4905 8.24433 11.1092C8.1775 10.7503 8.42253 10.3691 8.13295 10.0326C8.08841 9.85322 7.95476 9.67379 7.93248 9.49437C7.88793 9.31494 7.93248 9.13552 8.13295 8.97852C8.08841 8.79909 8.13295 8.6421 8.1775 8.46267C8.24433 8.30567 8.28888 8.12625 8.22205 7.94682C8.40025 7.78982 8.42253 7.63283 8.40025 7.47583C8.40025 7.31883 8.3557 7.13941 8.40025 6.98241C8.46708 6.82541 8.5339 6.69084 8.57845 6.53385C8.623 6.37685 8.66755 6.24228 8.64528 6.06285C8.60073 5.72643 8.91257 5.50215 8.95712 5.21058C8.91257 4.87416 9.40262 4.76202 9.33579 4.42559C9.40262 4.31345 9.46944 4.17888 9.53627 4.06674C9.60309 3.9546 9.66992 3.82003 9.75902 3.73032C9.64764 3.50604 9.71447 3.39389 9.82584 3.30418C9.93721 3.21447 10.1154 3.16961 10.2045 3.0799C10.405 2.90047 10.2491 2.49677 10.65 2.49677C10.5386 2.11549 10.9173 2.11549 11.1178 2.00335C11.3183 1.8912 11.296 1.57721 11.5633 1.55478C11.5633 1.26321 11.9419 1.37536 12.0088 1.1735C12.2315 1.1735 12.2761 0.926791 12.432 0.859507C12.5211 0.724937 12.6547 0.635224 12.8329 0.612796C12.9666 0.545512 13.078 0.455799 13.1893 0.388514C13.8799 0.0520908 14.2808 -0.0600503 14.3254 0.0296626L14.3476 0.0072344Z" fill="currentColor"/>
<path d="M19.5822 2.25006C19.5822 2.25006 19.6936 2.13791 19.9386 2.09306C20.05 2.09306 20.2059 2.0482 20.3841 2.0482C20.5623 2.0482 20.7628 2.0482 20.9855 2.0482C21.1414 2.0482 21.2974 2.09306 21.4756 2.11549C21.5647 2.11549 21.6538 2.11549 21.7429 2.13791C21.832 2.16034 21.9211 2.18277 22.0102 2.22763C22.1438 2.45191 22.5002 2.09306 22.6116 2.40705C22.7675 2.56405 23.0125 2.58648 23.2576 2.67619C23.5026 2.7659 23.6362 3.01262 23.9035 3.05747C24.104 3.01262 24.1485 3.16961 24.2154 3.30418C24.2822 3.43875 24.3267 3.59575 24.5495 3.55089C24.6831 3.61818 24.7945 3.70789 24.9059 3.82003C25.0173 3.93217 25.1064 4.04431 25.1955 4.15645C25.1955 4.33588 25.3068 4.47045 25.4182 4.56016C25.5296 4.6723 25.6855 4.73959 25.7969 4.87416C25.7301 5.30029 25.9974 5.50215 26.3092 5.72643C26.1978 5.97314 26.2201 6.15257 26.2869 6.30956C26.3538 6.46656 26.5097 6.5787 26.7547 6.69084C26.8215 6.87027 26.8215 7.04969 26.8661 7.22912C26.8661 7.31883 26.9106 7.40855 26.9329 7.49826C26.9552 7.58797 26.9997 7.67768 27.0443 7.7674C27.0888 7.94682 27.1556 8.12625 27.1779 8.3281C27.2002 8.52996 27.2225 8.70938 27.1779 8.91124C27.3116 9.11309 27.3561 9.31494 27.3561 9.5168C27.3561 9.62894 27.3338 9.71865 27.2893 9.83079C27.2447 9.92051 27.2002 10.0326 27.1111 10.1224C27.3338 10.5709 27.1111 10.9971 26.8661 11.3559C26.7324 11.5353 26.7101 11.7596 26.6879 11.9839C26.6656 12.2082 26.5988 12.4325 26.3983 12.567C26.376 12.6119 26.3538 12.6567 26.3315 12.724L26.2424 12.8586L26.0865 13.1502C25.9974 13.352 25.8637 13.5314 25.7078 13.7109L25.4405 13.9352C25.4405 13.9352 25.2623 14.0697 25.1732 14.1594C25.0841 14.2492 25.0173 14.3164 24.9504 14.4286C24.8836 14.5183 24.8391 14.6304 24.7945 14.765C24.6386 14.9444 24.5049 15.1463 24.3267 15.2808C24.1485 15.4378 23.9481 15.5724 23.7031 15.6173C23.458 16.1331 22.9457 16.2453 22.4334 16.2901C22.2106 16.4023 21.9879 16.4471 21.7429 16.492C21.4978 16.5144 21.2751 16.5817 21.0523 16.7163C20.8073 16.7163 20.5623 16.806 20.3173 16.8508C20.0723 16.8957 19.8272 16.9181 19.5822 16.8508C19.3372 16.806 19.0922 16.7387 18.8471 16.7163C18.6021 16.6714 18.3571 16.649 18.1121 16.7163C17.8448 16.7611 17.622 16.6714 17.3993 16.5817C17.1765 16.492 16.9761 16.335 16.731 16.2901C16.6419 16.178 16.5528 16.1107 16.4415 16.0434C16.3301 15.9761 16.2187 15.9537 16.1073 15.9088L15.9291 15.864C15.9291 15.864 15.8178 15.8191 15.7509 15.7967C15.6396 15.7518 15.5505 15.6846 15.4614 15.6173C15.2386 15.5051 15.0827 15.3257 14.9268 15.1687C14.7486 15.0117 14.5927 14.8547 14.3699 14.7426C14.2808 14.6753 14.1694 14.608 14.1026 14.5407C14.0135 14.4734 13.9244 14.3837 13.8576 14.294C13.7685 14.2043 13.7017 14.1146 13.6348 14.0249C13.568 13.9352 13.5235 13.823 13.4789 13.7109C13.1671 13.666 13.0557 13.4417 13.0111 13.2175C12.9666 12.9932 12.922 12.7465 12.7884 12.567C12.7884 12.3203 12.677 12.1409 12.5656 11.9615C12.4765 11.7596 12.3652 11.5802 12.3206 11.3783C12.2315 11.1765 12.2315 10.9746 12.2092 10.7503C12.2092 10.7055 12.2092 10.6382 12.2092 10.5934C12.2092 10.5485 12.2092 10.4812 12.2092 10.4364C12.2092 10.3242 12.1647 10.2345 12.0979 10.1448C12.0979 10.0326 12.0756 9.94293 12.0533 9.85322C12.0533 9.74108 12.031 9.65137 12.0088 9.56165C11.9865 9.3598 11.9642 9.15795 12.0533 8.95609C11.9642 8.75424 12.0088 8.55238 12.0533 8.37296C12.1201 8.19353 12.2092 8.01411 12.1647 7.81225C12.1647 7.72254 12.187 7.63283 12.2092 7.54312C12.2315 7.4534 12.2538 7.36369 12.2761 7.27398C12.3206 7.09455 12.3652 6.91512 12.4543 6.75813C12.677 6.64599 12.7438 6.48899 12.7661 6.30956C12.7884 6.13014 12.8107 5.95071 12.8775 5.79371C13.0334 5.50215 13.0557 5.09844 13.3898 4.94144C13.4789 4.80687 13.6348 4.71716 13.7239 4.60502C13.8353 4.49288 13.9244 4.38074 13.9912 4.22374C14.0803 4.08917 14.2585 4.06674 14.4145 3.99946C14.5704 3.93217 14.6817 3.86489 14.6372 3.61818C14.7263 3.48361 14.8822 3.46118 15.0159 3.41632C15.1495 3.37147 15.2832 3.32661 15.3054 3.12476C15.35 2.74348 15.7509 2.85562 15.9514 2.74348C16.1519 2.63134 16.3746 2.54162 16.5751 2.47434C17.5107 2.11549 18.2903 2.07063 18.8026 2.09306C19.3149 2.13791 19.5822 2.22763 19.5822 2.29491C19.5822 2.33977 19.4931 2.40705 19.3595 2.45191C19.2926 2.47434 19.1813 2.51919 19.0699 2.54162C19.0253 2.54162 18.9585 2.56405 18.8917 2.58648L18.6912 2.65376C18.1343 2.81076 17.3325 3.0799 16.4637 3.68546C16.2855 3.82003 16.241 4.1116 15.9514 4.06674C15.8623 4.13403 15.7955 4.24617 15.7287 4.33588C15.6618 4.42559 15.5727 4.51531 15.4614 4.53773C15.4614 4.73959 15.3945 4.80687 15.3054 4.87416C15.2163 4.94144 15.0827 4.9863 14.9936 5.07601C14.9045 5.16572 14.8154 5.25544 14.7486 5.36758C14.6595 5.45729 14.5926 5.56943 14.5704 5.72643C14.5704 6.04042 14.214 6.13014 14.214 6.44413C14.0803 6.53385 13.969 6.64599 13.9244 6.78056C13.8799 6.91512 13.8799 7.07212 13.9244 7.22912C13.7908 7.34126 13.7685 7.47583 13.7685 7.63283C13.7685 7.70011 13.7685 7.78983 13.7685 7.85711C13.7685 7.92439 13.7685 8.01411 13.7685 8.08139C13.6126 8.21596 13.5457 8.35053 13.568 8.50753C13.5903 8.66453 13.6571 8.82152 13.7017 8.97852C13.7462 9.13552 13.7462 9.29252 13.7462 9.44951C13.7462 9.5168 13.7462 9.60651 13.7462 9.69622C13.7462 9.76351 13.7685 9.85322 13.7908 9.9205C13.7908 10.2569 13.9912 10.5261 14.0135 10.8625C14.1249 10.9971 14.2363 11.1316 14.3031 11.2886C14.3699 11.4456 14.4145 11.5802 14.4145 11.782C14.5258 11.9166 14.6149 12.0512 14.704 12.2082C14.7708 12.3652 14.8599 12.4998 14.9713 12.6343C15.0381 12.6792 15.105 12.7465 15.1495 12.8137C15.2163 12.881 15.2609 12.9483 15.3277 13.0156L15.4836 13.2175C15.4836 13.2175 15.6173 13.352 15.6841 13.3969C15.84 13.4866 15.9069 13.666 16.0182 13.8006C16.1296 13.9352 16.2633 14.0697 16.5083 14.0249C16.8201 14.1819 17.1097 14.4286 17.4661 14.5183C17.622 14.5856 17.8002 14.6977 17.9561 14.7426C18.1343 14.7874 18.3125 14.8323 18.4907 14.8323C18.6467 15.0117 18.8249 15.079 19.0253 15.079C19.2258 15.079 19.404 14.9893 19.6045 14.9444C19.7827 14.8996 19.9609 14.8771 20.1614 14.8771C20.3396 14.8771 20.5178 14.8547 20.7182 14.8547C20.8964 14.8099 21.0746 14.7426 21.2528 14.6977C21.431 14.6529 21.5869 14.5856 21.7651 14.5407C22.0547 14.3164 22.4779 14.3613 22.723 14.0473C22.8566 13.9127 22.9903 13.823 23.1685 13.7557C23.3467 13.6884 23.4803 13.5763 23.5694 13.4193C23.614 13.352 23.6808 13.2847 23.7253 13.195C23.7699 13.1277 23.8144 13.038 23.8812 12.9932C23.9258 12.9259 23.9926 12.8586 24.0594 12.8137C24.1263 12.7465 24.1931 12.7016 24.2822 12.6567C24.3936 12.5222 24.5495 12.4325 24.6609 12.2979C24.7277 12.2306 24.7722 12.1633 24.8168 12.096C24.8168 12.0512 24.8391 12.0063 24.8613 11.9615C24.8613 11.9166 24.8613 11.8718 24.8613 11.8045C24.9059 11.6475 24.8836 11.4456 24.9059 11.2886C24.9059 11.1316 24.995 10.9971 25.2623 10.9073C25.2623 10.7279 25.3514 10.5934 25.4182 10.4364C25.5073 10.3018 25.5519 10.1224 25.485 9.96536C25.5741 9.89808 25.6187 9.83079 25.6632 9.74108C25.6632 9.65137 25.6632 9.58408 25.6632 9.49437C25.641 9.33737 25.5741 9.18037 25.5741 9.02338C25.5964 8.86638 25.641 8.70938 25.641 8.55238C25.641 8.39539 25.5964 8.23839 25.5296 8.10382C25.485 8.03654 25.4628 7.96925 25.4405 7.90197C25.4405 7.83468 25.4182 7.7674 25.4182 7.67768C25.4182 7.52069 25.4182 7.36369 25.3514 7.25155C25.2177 7.13941 25.2177 7.00484 25.24 6.84784C25.24 6.69084 25.24 6.55627 25.0841 6.46656C25.0173 6.19742 24.7945 5.99557 24.7277 5.74886C24.4827 5.74886 24.3936 5.65914 24.3713 5.52458C24.349 5.39001 24.3713 5.21058 24.2822 5.12087C24.2154 5.00873 24.0817 4.96387 23.9703 4.89659C23.859 4.8293 23.7699 4.76202 23.7921 4.56016C23.5917 4.60502 23.5026 4.53773 23.458 4.42559C23.3912 4.33588 23.3689 4.17888 23.3021 4.08917C23.1907 3.86489 22.8789 3.9546 22.7898 3.70789C22.6561 3.75275 22.5893 3.66303 22.5225 3.59575C22.4557 3.50604 22.3888 3.39389 22.2997 3.39389C22.1884 3.16961 21.9656 3.2369 21.8097 3.14718C21.7206 3.14718 21.6315 3.12476 21.5647 3.0799C21.4978 3.05747 21.4087 3.01262 21.3642 2.94533C21.2083 2.90047 21.0746 2.83319 20.9632 2.78833C20.7628 2.74348 20.5846 2.67619 20.4287 2.63134C20.2727 2.58648 20.1391 2.56405 20.0277 2.51919C19.805 2.45191 19.6936 2.38463 19.6936 2.31734L19.5822 2.25006Z" fill="currentColor"/>
<path d="M38.6717 41.32C38.6717 41.4321 38.4044 41.5443 37.8921 41.6564L37.6248 41.7013C37.6248 41.7013 37.4243 41.7686 37.313 41.7461C37.2016 41.5891 37.0902 42.0377 36.9788 41.791C36.8675 41.7237 36.7338 41.791 36.6002 41.8359C36.4665 41.8807 36.3329 41.7461 36.1992 41.8807C36.0656 42.1947 35.9096 41.5443 35.7537 41.9256C35.5978 42.0153 35.4419 41.9929 35.286 41.9704C35.13 41.7461 34.9518 41.9704 34.7959 42.0153C34.6177 41.7237 34.4618 41.8583 34.2836 42.0601C34.1054 41.6789 33.9272 41.7237 33.7267 42.105C33.5485 42.105 33.348 41.9704 33.1476 42.1274C32.9471 42.1498 32.7466 42.2171 32.5462 42.1498C32.3457 42.419 32.1452 42.3966 31.9225 42.1723C31.722 42.4414 31.4992 42.3293 31.2765 42.1947C31.0537 42.0377 30.831 42.4414 30.6082 42.1947C30.3855 42.1947 30.1627 42.262 29.94 42.1947C29.7173 42.0826 29.4722 41.948 29.2495 42.1947C29.0267 42.262 28.7817 42.3517 28.5367 42.1947C28.2917 42.4863 28.0466 42.3517 27.8016 42.1947C27.5566 42.2396 27.3116 42.0377 27.0665 42.1947C26.8215 42.1498 26.5765 42.3293 26.3092 42.1947C26.0642 42.105 25.7969 42.0153 25.5519 42.1947C25.3068 42.3741 25.0618 42.105 24.8168 42.1947C24.5718 41.9256 24.3267 42.2844 24.0817 42.1947C23.8367 42.2171 23.614 42.0377 23.3689 42.1947C23.1239 42.2396 22.9012 42.3068 22.6784 42.1947C22.4557 42.6208 22.2329 42.0826 22.0102 42.1947C21.7874 42.0153 21.5647 42.2171 21.3419 42.1947C21.1192 42.2844 20.9187 41.9929 20.6959 42.1723C20.4955 42.1274 20.2727 42.3068 20.0723 42.1498C19.8718 42.3517 19.6713 41.9704 19.4708 42.1274C19.2704 42.1274 19.0922 42.1274 18.8917 42.105C18.7135 41.7686 18.513 42.0377 18.3348 42.0601C18.1566 42.0153 17.9784 42.2396 17.8002 42.0153C17.622 41.9929 17.4661 41.8359 17.3102 41.9704C17.1543 42.0153 16.9983 41.477 16.8424 41.9256C16.6865 42.0153 16.5528 41.5891 16.3969 41.8807C16.2633 42.1498 16.1296 41.8583 15.996 41.8359L15.6173 41.791C14.5481 41.6564 13.9244 41.477 13.9244 41.2976C13.9244 41.0957 14.6818 40.9163 15.9737 40.7593C16.1073 40.7593 16.241 40.5126 16.3746 40.7144C16.5083 40.7144 16.6642 40.535 16.8201 40.6696C16.9761 40.3556 17.132 40.6023 17.2879 40.6247C17.4438 40.6247 17.622 40.7144 17.7779 40.5799C17.9561 40.4005 18.1121 40.6696 18.3125 40.535C18.4907 40.7144 18.6689 40.6696 18.8694 40.4902C19.0476 40.6696 19.2481 40.4453 19.4486 40.4677C19.649 40.7593 19.8495 40.5574 20.05 40.4453C20.2505 40.3332 20.4509 40.4902 20.6737 40.4229C20.8741 40.4677 21.0969 40.3556 21.3196 40.4004C21.5424 40.2659 21.7651 40.221 21.9879 40.4004C22.2106 40.3107 22.4334 40.4004 22.6561 40.4004C22.8789 40.2883 23.1239 40.4004 23.3467 40.4004C23.5917 40.3332 23.8144 40.7144 24.0594 40.4004C24.3045 40.3556 24.5495 40.4453 24.7945 40.4004C25.0395 40.4453 25.2846 40.4902 25.5296 40.4004C25.7746 40.7144 26.0196 40.5126 26.2869 40.4004C26.532 40.3107 26.7992 40.3556 27.0443 40.4004C27.2893 40.378 27.5343 40.4004 27.7793 40.4004C28.0244 40.3107 28.2694 40.535 28.5144 40.4004C28.7594 40.2659 28.9822 40.535 29.2272 40.4004C29.4722 40.3107 29.695 40.2659 29.9177 40.4004C30.1405 40.4004 30.3632 40.692 30.586 40.4004C30.8087 40.3332 31.0315 39.9967 31.2542 40.4004C31.477 40.2883 31.6774 40.6023 31.9002 40.4229C32.1007 40.7369 32.3234 40.4229 32.5239 40.4453C32.7244 40.5126 32.9248 40.6247 33.1253 40.4677C33.3258 40.3107 33.504 40.5574 33.7044 40.4902C33.8826 40.3107 34.0831 40.7369 34.2613 40.535C34.4395 40.5799 34.6177 40.5126 34.7736 40.5799C34.9518 40.1537 35.1078 40.5799 35.2637 40.6247C35.4196 40.692 35.5755 40.3332 35.7315 40.6696C35.8874 40.3556 36.021 40.6247 36.1769 40.7144C36.3106 40.8042 36.4442 40.5799 36.5779 40.7593C36.7115 40.535 36.8229 40.8939 36.9566 40.8042C37.0679 40.9612 37.1793 40.8042 37.2907 40.849C37.4021 40.8042 37.4912 40.8266 37.6025 40.8939C37.6916 40.8939 37.7807 40.9387 37.8698 40.9387C38.3599 41.0509 38.6495 41.163 38.6495 41.2751L38.6717 41.32Z" fill="currentColor"/>
<path d="M38.6717 53.6331C38.6717 53.7452 38.4044 53.8574 37.8921 53.9695L37.6248 54.0144C37.6248 54.0144 37.4243 54.0817 37.313 54.0592C37.2016 53.9022 37.0902 54.3508 36.9788 54.1041C36.8675 54.0368 36.7338 54.1041 36.6002 54.1489C36.4665 54.1938 36.3329 54.0592 36.1992 54.1938C36.0656 54.5078 35.9096 53.8574 35.7537 54.2387C35.5978 54.3284 35.4419 54.3059 35.286 54.2835C35.13 54.0592 34.9518 54.2835 34.7959 54.3284C34.6177 54.0368 34.4618 54.1714 34.2836 54.3732C34.1054 53.9919 33.9272 54.0368 33.7267 54.4181C33.5485 54.4181 33.348 54.2835 33.1476 54.4405C32.9471 54.4629 32.7466 54.5302 32.5462 54.4629C32.3457 54.7321 32.1452 54.7096 31.9225 54.4854C31.722 54.7545 31.4992 54.6424 31.2765 54.5078C31.0537 54.3508 30.831 54.7545 30.6082 54.5078C30.3855 54.5078 30.1627 54.5751 29.94 54.5078C29.7173 54.3957 29.4722 54.2611 29.2495 54.5078C29.0267 54.5751 28.7817 54.6648 28.5367 54.5078C28.2917 54.7994 28.0466 54.6648 27.8016 54.5078C27.5566 54.5527 27.3116 54.3508 27.0665 54.5078C26.8215 54.4629 26.5765 54.6424 26.3092 54.5078C26.0642 54.4181 25.7969 54.3284 25.5519 54.5078C25.3068 54.6872 25.0618 54.4181 24.8168 54.5078C24.5718 54.2387 24.3267 54.5975 24.0817 54.5078C23.8367 54.5302 23.614 54.3508 23.3689 54.5078C23.1239 54.5527 22.9012 54.6199 22.6784 54.5078C22.4557 54.9339 22.2329 54.3957 22.0102 54.5078C21.7874 54.3284 21.5647 54.5302 21.3419 54.5078C21.1192 54.5975 20.9187 54.3059 20.6959 54.4854C20.4955 54.4405 20.2727 54.6199 20.0723 54.4629C19.8718 54.6648 19.6713 54.2835 19.4708 54.4405C19.2704 54.4405 19.0922 54.4405 18.8917 54.4181C18.7135 54.0817 18.513 54.3508 18.3348 54.3732C18.1566 54.3284 17.9784 54.5527 17.8002 54.3284C17.622 54.3059 17.4661 54.1489 17.3102 54.2835C17.1543 54.3284 16.9983 53.7901 16.8424 54.2387C16.6865 54.3284 16.5528 53.9022 16.3969 54.1938C16.2633 54.4629 16.1296 54.1714 15.996 54.1489C15.8623 54.1489 15.7509 54.1265 15.6173 54.1041C14.5481 53.9695 13.9244 53.7901 13.9244 53.6107C13.9244 53.4088 14.6818 53.2294 15.9737 53.0724C16.1073 53.0724 16.241 52.8257 16.3746 53.0275C16.5083 53.0275 16.6642 52.8481 16.8201 52.9827C16.9761 52.6687 17.132 52.9378 17.2879 52.9378C17.4438 52.9378 17.622 53.0275 17.7779 52.893C17.9561 52.7135 18.1121 52.9827 18.3125 52.8481C18.4907 53.0275 18.6689 52.9827 18.8694 52.8032C19.0476 52.9827 19.2481 52.7584 19.4486 52.7808C19.649 53.0724 19.8495 52.8705 20.05 52.7584C20.2505 52.6463 20.4509 52.8033 20.6737 52.736C20.8741 52.7808 21.0969 52.6687 21.3196 52.7135C21.5424 52.579 21.7651 52.5341 21.9879 52.7135C22.2106 52.6238 22.4334 52.7135 22.6561 52.7135C22.8789 52.6014 23.1239 52.7135 23.3467 52.7135C23.5917 52.6463 23.8144 53.0051 24.0594 52.7135C24.3045 52.6687 24.5495 52.7584 24.7945 52.7135C25.0395 52.7584 25.2846 52.8033 25.5296 52.7135C25.7746 53.0275 26.0196 52.8257 26.2869 52.7135C26.532 52.6238 26.7992 52.6687 27.0443 52.7135C27.2893 52.6911 27.5343 52.7135 27.7793 52.7135C28.0244 52.6238 28.2694 52.8481 28.5144 52.7135C28.7594 52.579 28.9822 52.8481 29.2272 52.7135C29.4722 52.6238 29.695 52.579 29.9177 52.7135C30.1405 52.7135 30.3632 53.0051 30.586 52.7135C30.8087 52.6463 31.0315 52.3098 31.2542 52.7135C31.477 52.6014 31.6774 52.9154 31.9002 52.736C32.1007 53.05 32.3234 52.736 32.5239 52.7584C32.7244 52.8257 32.9248 52.9154 33.1253 52.7808C33.3258 52.6238 33.504 52.8705 33.7044 52.8032C33.8826 52.6238 34.0831 53.05 34.2613 52.8481C34.4395 52.893 34.6177 52.8257 34.7736 52.893C34.9518 52.4668 35.1078 52.893 35.2637 52.9378C35.4196 53.0051 35.5755 52.6463 35.7315 52.9827C35.8874 52.6687 36.021 52.9378 36.1769 53.0275C36.3106 53.1172 36.4442 52.893 36.5779 53.0724C36.7115 52.8481 36.8229 53.207 36.9566 53.1172C37.0679 53.2742 37.1793 53.1172 37.2907 53.1621C37.4021 53.1172 37.4912 53.1397 37.6025 53.207C37.6916 53.207 37.7807 53.2518 37.8698 53.2518C38.3599 53.364 38.6495 53.4761 38.6495 53.5882L38.6717 53.6331Z" fill="currentColor"/>
<path d="M38.6717 65.9238C38.6717 66.0359 38.4044 66.148 37.8921 66.2602L37.6248 66.305C37.6248 66.305 37.4243 66.3723 37.313 66.3499C37.2016 66.1929 37.0902 66.6415 36.9788 66.3948C36.8675 66.3275 36.7338 66.3948 36.6002 66.4396C36.4665 66.4845 36.3329 66.3499 36.1992 66.4845C36.0656 66.7985 35.9096 66.148 35.7537 66.5293C35.5978 66.619 35.4419 66.5966 35.286 66.5742C35.13 66.3499 34.9518 66.5742 34.7959 66.619C34.6177 66.3275 34.4618 66.462 34.2836 66.6639C34.1054 66.2826 33.9272 66.3275 33.7267 66.7087C33.5485 66.7087 33.348 66.5742 33.1476 66.7312C32.9471 66.7536 32.7466 66.8209 32.5462 66.7536C32.3457 67.0003 32.1452 67.0003 31.9225 66.776C31.722 67.0452 31.4992 66.933 31.2765 66.7985C31.0537 66.6415 30.831 67.0452 30.6082 66.8209C30.3855 66.8209 30.1627 66.8882 29.94 66.8209C29.7173 66.7087 29.4722 66.5742 29.2495 66.8209C29.0267 66.8882 28.7817 66.9779 28.5367 66.8209C28.2917 67.1125 28.0466 66.9779 27.8016 66.8209C27.5566 66.8657 27.3116 66.6639 27.0665 66.8209C26.8215 66.776 26.5765 66.9555 26.3092 66.8209C26.0642 66.7312 25.7969 66.6415 25.5519 66.8209C25.3068 67.0003 25.0618 66.7536 24.8168 66.8209C24.5718 66.5518 24.3267 66.9106 24.0817 66.8209C23.8367 66.8433 23.614 66.6639 23.3689 66.8209C23.1239 66.8657 22.9012 66.933 22.6784 66.8209C22.4557 67.247 22.2329 66.7087 22.0102 66.8209C21.7874 66.6415 21.5647 66.8433 21.3419 66.7985C21.1192 66.8882 20.9187 66.5966 20.6959 66.776C20.4955 66.7312 20.2727 66.9106 20.0723 66.7536C19.8718 66.9555 19.6713 66.5742 19.4708 66.7312C19.2704 66.7312 19.0922 66.7312 18.8917 66.7087C18.7135 66.3723 18.513 66.6415 18.3348 66.6639C18.1566 66.619 17.9784 66.8433 17.8002 66.619C17.622 66.5966 17.4661 66.4396 17.3102 66.5742C17.1543 66.619 16.9983 66.0808 16.8424 66.5293C16.6865 66.619 16.5528 66.1929 16.3969 66.4845C16.2633 66.7536 16.1296 66.4396 15.996 66.4396C15.8623 66.4396 15.7509 66.4172 15.6173 66.3948C14.5481 66.2602 13.9244 66.0808 13.9244 65.9013C13.9244 65.6995 14.6818 65.5201 15.9737 65.3631C16.1073 65.3631 16.241 65.1163 16.3746 65.3182C16.5083 65.3182 16.6642 65.1388 16.8201 65.2733C16.9761 64.9594 17.132 65.2061 17.2879 65.2285C17.4438 65.2285 17.622 65.3182 17.7779 65.1836C17.9561 65.0042 18.1121 65.2733 18.3125 65.1388C18.4907 65.3406 18.6689 65.2733 18.8694 65.0939C19.0476 65.2733 19.2481 65.0491 19.4486 65.0715C19.649 65.3631 19.8495 65.1612 20.05 65.0491C20.2505 64.9369 20.4509 65.0939 20.6737 65.0266C20.8741 65.0715 21.0969 64.9593 21.3196 65.0042C21.5424 64.8696 21.7651 64.8248 21.9879 65.0042C22.2106 64.9145 22.4334 65.0042 22.6561 65.0042C22.8789 64.8921 23.1239 65.0042 23.3467 65.0042C23.5917 64.9369 23.8144 65.2958 24.0594 65.0042C24.3045 64.9593 24.5495 65.0491 24.7945 65.0042C25.0395 65.0491 25.2846 65.0939 25.5296 65.0042C25.7746 65.3182 26.0196 65.1163 26.2869 65.0042C26.532 64.9145 26.7992 64.9593 27.0443 65.0042C27.2893 64.9818 27.5343 65.0042 27.7793 65.0042C28.0244 64.9145 28.2694 65.1388 28.5144 65.0042C28.7594 64.8696 28.9822 65.1388 29.2272 65.0042C29.4722 64.9145 29.695 64.8696 29.9177 65.0042C30.1405 65.0042 30.3632 65.2958 30.586 65.0042C30.8087 64.9369 31.0315 64.6005 31.2542 65.0042C31.477 64.8921 31.6774 65.2061 31.9002 65.0266C32.1007 65.3406 32.3234 65.0266 32.5239 65.0491C32.7244 65.1163 32.9248 65.2061 33.1253 65.0715C33.3258 64.9145 33.504 65.1612 33.7044 65.0939C33.8826 64.9145 34.0831 65.3406 34.2613 65.1388C34.4395 65.1836 34.6177 65.1163 34.7736 65.1836C34.9518 64.7575 35.1078 65.1836 35.2637 65.2285C35.4196 65.2958 35.5755 64.9369 35.7315 65.2733C35.8874 64.9594 36.021 65.2285 36.1769 65.3182C36.3106 65.4079 36.4442 65.1836 36.5779 65.3631C36.7115 65.1388 36.8229 65.4976 36.9566 65.4079C37.0679 65.5649 37.1793 65.4079 37.2907 65.4528C37.4021 65.4079 37.4912 65.4303 37.6025 65.4976C37.6916 65.4976 37.7807 65.5425 37.8698 65.5425C38.3599 65.6546 38.6495 65.7668 38.6495 65.8789L38.6717 65.9238Z" fill="currentColor"/>
</g>
</svg>
