<svg width="44" height="44" viewBox="0 0 44 44" fill="none" xmlns="http://www.w3.org/2000/svg">
<g clip-path="url(#clip0_0_2536)">
<path d="M43.7714 33.5796C43.3479 32.1954 42.4018 31.0788 41.1075 30.4372L31.1539 25.5054C31.0952 22.262 29.3004 19.2919 26.5081 17.7134L27.1938 7.25021C27.1956 7.22271 27.2066 7.0504 27.2066 7.0229C27.2066 4.16099 24.8708 1.83252 21.9997 1.83252C20.566 1.83252 19.1818 2.43204 18.2028 3.47888C17.2109 4.54042 16.7159 5.92277 16.813 7.37482L17.4914 17.7115C14.6973 19.29 12.9042 22.2602 12.8455 25.5035L2.89213 30.4372C1.59778 31.0789 0.651751 32.1936 0.228236 33.5796C-0.193474 34.9565 -0.0265773 36.469 0.693948 37.736C1.63448 39.3383 3.35604 40.3339 5.18761 40.3339C6.21984 40.3339 7.22087 40.0259 8.0844 39.4446L17.1029 33.3632C18.5623 34.3093 20.2325 34.8336 21.9999 34.8336C23.7728 34.8336 25.4467 34.3074 26.8988 33.3632L35.9154 39.4446C36.7789 40.0259 37.7799 40.3339 38.8122 40.3339C40.6455 40.3339 42.3653 39.3383 43.3131 37.725C44.0263 36.4672 44.1931 34.9566 43.7714 33.5796ZM19.5412 4.73112C20.1847 4.0454 21.0575 3.66589 21.9998 3.66589C23.8607 3.66589 25.3732 5.17114 25.3732 7.01731L26.29 7.04301L25.3567 7.25382L24.7224 16.9305C22.9568 16.3914 21.0428 16.3914 19.2772 16.9305L18.6429 7.25193C18.5805 6.31337 18.8995 5.41865 19.5412 4.73112ZM7.05759 37.9248C5.50473 38.9735 3.22765 38.4326 2.28161 36.8192C1.8086 35.9869 1.70229 35.0262 1.98091 34.115C2.25592 33.2166 2.86824 32.4942 3.70616 32.0799L13.0235 27.4634C13.3755 29.273 14.2592 30.9138 15.5738 32.1808L7.05759 37.9248ZM26.3615 31.5355C23.8406 33.4495 20.1792 33.4623 17.6253 31.5226C15.8525 30.2374 14.7799 28.2353 14.6772 25.9418C14.6644 25.8556 14.6662 25.7547 14.6662 25.6667C14.6662 22.8488 16.3035 20.2509 18.8354 19.0518C19.8401 18.5751 20.9053 18.3331 21.9998 18.3331C23.0943 18.3331 24.1596 18.5751 25.1642 19.0518C27.6961 20.2509 29.3334 22.8488 29.3334 25.6667C29.3334 25.7492 29.3352 25.8501 29.3187 26.0096C29.3187 26.0133 29.3187 26.0151 29.3187 26.0188C29.3187 26.0243 29.3187 26.0261 29.3187 26.0298C29.2234 28.2371 28.1508 30.2392 26.3615 31.5355ZM41.7253 36.8082C40.7683 38.44 38.4949 38.9735 36.9419 37.923L28.4239 32.179C29.7532 30.8956 30.6405 29.2492 30.9815 27.4635L40.2934 32.0764C41.1312 32.4944 41.7436 33.2186 42.0186 34.1151C42.2973 35.0262 42.191 35.9869 41.7253 36.8082Z" fill="#9FE870"/>
<path d="M24.3792 20.7073C22.8648 19.9905 21.1341 19.9905 19.6215 20.7073C17.7222 21.6075 16.5267 23.5124 16.5029 25.7455L16.5157 25.949C16.5854 27.5953 17.4068 29.1043 18.7506 30.0778C19.6875 30.7892 20.8114 31.1669 21.9994 31.1669C23.204 31.1669 24.3187 30.7837 25.3013 30.0393C26.5994 29.0988 27.4152 27.5715 27.4831 25.9784L27.5014 25.7199C27.5051 25.6612 27.5051 25.6044 27.4996 25.5494C27.4556 23.4812 26.2401 21.5891 24.3792 20.7073ZM25.6663 25.6777L25.6534 25.8702C25.6076 26.9372 25.0741 27.9401 24.2106 28.5653C22.8777 29.5755 21.1177 29.57 19.8434 28.6038C18.9396 27.9493 18.3932 26.9519 18.3474 25.8537L18.3327 25.7015C18.351 24.2402 19.1449 22.9624 20.4063 22.3647C20.916 22.1227 21.4531 21.9998 21.9995 21.9998C22.5459 21.9998 23.0831 22.1227 23.5928 22.3647C24.8523 22.9605 25.6663 24.2567 25.6663 25.6666C25.6663 25.6703 25.6663 25.674 25.6663 25.6777Z" fill="#9FE870"/>
<path d="M6.40447 24.9847C6.43567 24.9865 6.46678 24.9884 6.49798 24.9884C6.96369 24.9884 7.36151 24.6364 7.4092 24.1634C7.45871 23.6702 7.5339 23.1844 7.63102 22.7076C7.72813 22.2309 7.84922 21.7616 7.99222 21.3014C8.13523 20.8431 8.29843 20.3939 8.48544 19.9557C8.67244 19.5174 8.87776 19.0903 9.10326 18.6741C9.32877 18.2579 9.57447 17.8546 9.83659 17.4641C10.1006 17.0773 10.3811 16.6995 10.6818 16.3383C10.9806 15.9753 11.296 15.627 11.6279 15.2951C11.9597 14.9632 12.3081 14.6479 12.6711 14.3491C13.0323 14.0484 13.4099 13.7679 13.7986 13.5038C14.2184 13.2196 14.3284 12.6495 14.0461 12.2315C13.7619 11.8117 13.1936 11.6998 12.7738 11.9858C12.3356 12.2828 11.9121 12.5981 11.505 12.9355C11.0962 13.271 10.7057 13.6267 10.3317 13.9989C9.95768 14.3711 9.60387 14.7634 9.26646 15.1704C8.93095 15.5774 8.61375 16.0009 8.31863 16.4391C8.01981 16.8792 7.7448 17.3339 7.4899 17.8014C7.235 18.2689 7.00408 18.7511 6.79507 19.2442C6.58607 19.7375 6.40086 20.2435 6.23955 20.7586C6.07824 21.2756 5.94254 21.8036 5.83254 22.3408C5.72254 22.8781 5.63823 23.4244 5.58133 23.9799C5.53355 24.4842 5.90026 24.9352 6.40447 24.9847Z" fill="#9FE870"/>
<path d="M28.9907 38.5647C28.5745 38.7902 28.1473 38.9974 27.7091 39.1825C27.2709 39.3677 26.8218 39.5327 26.3616 39.6757C25.9032 39.8187 25.4338 39.9397 24.9553 40.0369C24.4786 40.1341 23.9928 40.2092 23.5015 40.2587C22.5151 40.3595 21.4847 40.3595 20.4984 40.2587C20.0052 40.2092 19.5193 40.134 19.0426 40.0369C18.5659 39.9397 18.0966 39.8169 17.6364 39.6739C17.1781 39.5309 16.7288 39.3677 16.2906 39.1807C15.8524 38.9937 15.4253 38.7884 15.0091 38.5628C14.5636 38.3226 14.0062 38.4858 13.766 38.9314C13.524 39.3769 13.689 39.9324 14.1346 40.1744C14.6021 40.4292 15.0843 40.6602 15.5774 40.8692C16.0706 41.0782 16.5766 41.2634 17.0918 41.4248C17.6088 41.5861 18.1368 41.7218 18.674 41.8318C19.2112 41.9418 19.7576 42.0261 20.3131 42.083C20.8686 42.138 21.4296 42.1673 21.9998 42.1673C22.57 42.1673 23.1311 42.138 23.6847 42.083C24.2402 42.0262 24.7865 41.9418 25.3238 41.8318C25.861 41.7218 26.3908 41.5861 26.906 41.4248C27.423 41.2652 27.929 41.0782 28.4223 40.8692C28.9155 40.6602 29.3976 40.4292 29.8651 40.1744C30.3106 39.9324 30.4756 39.3769 30.2336 38.9314C29.9935 38.4877 29.4362 38.3245 28.9907 38.5647Z" fill="#9FE870"/>
<path d="M30.1965 13.5021C30.5889 13.7679 30.9666 14.0484 31.3278 14.3491C31.6908 14.6479 32.0373 14.9633 32.3691 15.297C32.7009 15.6307 33.0181 15.9772 33.317 16.3383C33.6177 16.7013 33.8982 17.0771 34.1622 17.4677C34.4262 17.8582 34.67 18.2615 34.8955 18.6759C35.121 19.0921 35.3282 19.5192 35.5133 19.9574C35.6985 20.3956 35.8635 20.8448 36.0066 21.305C36.1496 21.7633 36.2706 22.2327 36.3678 22.7112C36.465 23.1879 36.5401 23.6738 36.5896 24.1651C36.6373 24.6381 37.0351 24.9901 37.5008 24.9901C37.532 24.9901 37.5631 24.9883 37.5943 24.9864C38.0966 24.9351 38.4651 24.4859 38.4138 23.9817C38.357 23.4262 38.2726 22.8798 38.1626 22.3426C38.0526 21.8054 37.9169 21.2756 37.7556 20.7604C37.5961 20.2434 37.4091 19.7373 37.2001 19.2441C36.9911 18.7509 36.7601 18.2688 36.5053 17.7994C36.2505 17.3319 35.9754 16.879 35.6784 16.439C35.3814 16.0008 35.0661 15.5773 34.7287 15.1703C34.3914 14.7633 34.0375 14.3728 33.6635 13.9987C33.2895 13.6247 32.8989 13.2709 32.4919 12.9335C32.0849 12.598 31.6614 12.2808 31.2232 11.9838C30.8015 11.6996 30.235 11.8115 29.9508 12.2295C29.6666 12.6496 29.7766 13.2198 30.1965 13.5021Z" fill="#9FE870"/>
</g>
<defs>
<clipPath id="clip0_0_2536">
<rect width="44" height="44" fill="white"/>
</clipPath>
</defs>
</svg>
