<svg width="32" height="32" viewBox="0 0 32 32" fill="none" xmlns="http://www.w3.org/2000/svg">
<g clip-path="url(#clip0_1_21055)">
<path d="M18.6724 15.5069C18.5016 15.2305 18.1998 15.0623 17.8749 15.0623H15.6419L16.8385 12.669C17.0701 12.2059 16.8824 11.6428 16.4192 11.4112C15.9562 11.1796 15.393 11.3673 15.1615 11.8305L13.2865 15.5805C13.1412 15.871 13.1567 16.2162 13.3275 16.4926C13.4983 16.769 13.8001 16.9372 14.125 16.9372H16.3581L15.1614 19.3305C14.9299 19.7936 15.1176 20.3566 15.5807 20.5883C16.0439 20.8199 16.6069 20.632 16.8384 20.169L18.7134 16.419C18.8587 16.1285 18.8432 15.7833 18.6724 15.5069Z" fill="#030027"/>
<path d="M31.3551 13.2343L27.5014 11.9684C27.3523 11.5439 27.1785 11.1257 26.9816 10.7174L28.771 7.13844C28.9515 6.7775 28.8808 6.34156 28.5954 6.05631L25.9438 3.40469C25.6584 3.11931 25.2222 3.04862 24.8616 3.22906L21.2827 5.01844C20.8743 4.8215 20.4559 4.64769 20.0316 4.49862L18.7657 0.644875C18.6393 0.260125 18.28 0 17.875 0H14.125C13.72 0 13.3607 0.260125 13.2343 0.644875L11.9684 4.49862C11.5441 4.64769 11.1258 4.82156 10.7173 5.01844L7.13837 3.22906C6.77744 3.04862 6.34156 3.11931 6.05625 3.40469L3.40469 6.05625C3.11937 6.34156 3.04862 6.7775 3.22906 7.13837L5.01844 10.7173C4.82156 11.1256 4.64775 11.5439 4.49862 11.9683L0.644938 13.2343C0.260125 13.3607 0 13.72 0 14.125V17.875C0 18.28 0.260125 18.6392 0.644875 18.7656L4.49856 20.0316C4.64775 20.4561 4.82156 20.8744 5.01837 21.2826L3.229 24.8614C3.0485 25.2224 3.11925 25.6582 3.40462 25.9436L6.05625 28.5953C6.3415 28.8807 6.77756 28.9513 7.13837 28.7709L10.7172 26.9815C11.1257 27.1785 11.544 27.3524 11.9684 27.5014L13.2343 31.3552C13.3607 31.7399 13.72 32 14.125 32H17.875C18.28 32 18.6393 31.7399 18.7657 31.3551L20.0316 27.5014C20.4559 27.3523 20.8743 27.1784 21.2828 26.9814L24.8616 28.7709C25.2223 28.9514 25.6584 28.8806 25.9438 28.5952L28.5954 25.9436C28.8807 25.6582 28.9514 25.2223 28.771 24.8614L26.9816 21.2826C27.1784 20.8744 27.3523 20.4561 27.5014 20.0316L31.3551 18.7656C31.7399 18.6392 32 18.28 32 17.875V14.125C32 13.72 31.7399 13.3607 31.3551 13.2343ZM30.125 17.1962L26.4661 18.3981C26.1764 18.4933 25.9512 18.7234 25.8621 19.015C25.6713 19.6401 25.4164 20.2537 25.1046 20.8389C24.9619 21.1069 24.9577 21.4274 25.0934 21.699L26.7917 25.0956L25.0957 26.7917L21.6992 25.0934C21.4278 24.9577 21.1073 24.9618 20.8393 25.1044C20.2531 25.4166 19.6394 25.6715 19.0151 25.8621C18.7234 25.9511 18.4932 26.1764 18.3981 26.4661L17.1962 30.125H14.8039L13.6019 26.4661C13.5068 26.1764 13.2766 25.9511 12.9849 25.8621C12.3607 25.6715 11.7469 25.4166 11.1608 25.1044C10.8928 24.9618 10.5723 24.9577 10.3008 25.0934L6.90431 26.7917L5.20825 25.0956L6.90656 21.699C7.04231 21.4274 7.03812 21.1069 6.89537 20.8389C6.58362 20.2537 6.32875 19.6401 6.13788 19.015C6.04881 18.7234 5.82356 18.4933 5.53387 18.3981L1.875 17.1962V14.8038L5.53387 13.6019C5.82356 13.5067 6.04881 13.2766 6.13788 12.9849C6.32869 12.3602 6.58356 11.7465 6.89544 11.1608C7.03813 10.8928 7.04231 10.5723 6.90656 10.3008L5.20825 6.90419L6.90431 5.20819L10.3009 6.90644C10.5725 7.04219 10.8929 7.03806 11.1609 6.89537C11.7468 6.58331 12.3605 6.32844 12.9849 6.13781C13.2766 6.04875 13.5068 5.82344 13.6019 5.53375L14.8038 1.875H17.1961L18.3981 5.53387C18.4932 5.82356 18.7234 6.04887 19.0151 6.13794C19.6394 6.3285 20.2532 6.58337 20.8391 6.8955C21.1071 7.03819 21.4275 7.04231 21.6991 6.90656L25.0957 5.20831L26.7917 6.90431L25.0934 10.3009C24.9577 10.5724 24.9619 10.8929 25.1046 11.1609C25.4164 11.7466 25.6713 12.3603 25.8621 12.9851C25.9512 13.2767 26.1764 13.5068 26.4661 13.602L30.125 14.8038V17.1962Z" fill="#030027"/>
<path d="M16 7.5625C11.3476 7.5625 7.5625 11.3476 7.5625 16C7.5625 20.6524 11.3476 24.4375 16 24.4375C20.6524 24.4375 24.4375 20.6524 24.4375 16C24.4375 11.3476 20.6524 7.5625 16 7.5625ZM16 22.5625C12.3814 22.5625 9.4375 19.6186 9.4375 16C9.4375 12.3814 12.3814 9.4375 16 9.4375C19.6186 9.4375 22.5625 12.3814 22.5625 16C22.5625 19.6186 19.6186 22.5625 16 22.5625Z" fill="#030027"/>
</g>
<defs>
<clipPath id="clip0_1_21055">
<rect width="32" height="32" fill="white"/>
</clipPath>
</defs>
</svg>
