<svg width="40" height="40" viewBox="0 0 40 40" fill="none" xmlns="http://www.w3.org/2000/svg">
<path d="M31.3281 8.75H8.67188" stroke="currentColor" stroke-width="2" stroke-miterlimit="10" stroke-linecap="round" stroke-linejoin="round"/>
<mask id="mask0_1_35210" style="mask-type:luminance" maskUnits="userSpaceOnUse" x="0" y="0" width="40" height="40">
<path d="M0 3.8147e-06H40V40H0V3.8147e-06Z" fill="white"/>
</mask>
<g mask="url(#mask0_1_35210)">
<path d="M38.8281 8.75V32.5C38.8281 34.5711 37.1492 36.25 35.0781 36.25H4.92187C2.85078 36.25 1.17188 34.5711 1.17188 32.5V8.75" stroke="currentColor" stroke-width="2" stroke-miterlimit="10" stroke-linecap="round" stroke-linejoin="round"/>
<path d="M8.67188 31.25C8.67188 29.1789 6.99297 27.5 4.92188 27.5C2.85078 27.5 1.17188 29.1789 1.17188 31.25V7.5C1.17188 5.42891 2.85078 3.75 4.92188 3.75C6.99266 3.75 8.67188 5.42805 8.67188 7.5V31.25Z" stroke="currentColor" stroke-width="2" stroke-miterlimit="10" stroke-linecap="round" stroke-linejoin="round"/>
<path d="M31.3281 31.25C31.3281 29.1789 33.007 27.5 35.0781 27.5C37.1492 27.5 38.8281 29.1789 38.8281 31.25V7.5C38.8281 5.42891 37.1492 3.75 35.0781 3.75C33.0073 3.75 31.3281 5.42805 31.3281 7.5V31.25Z" stroke="currentColor" stroke-width="2" stroke-miterlimit="10" stroke-linecap="round" stroke-linejoin="round"/>
<path d="M16.25 20L20 16.875L23.75 20V25.625H16.25V20Z" stroke="currentColor" stroke-width="2" stroke-miterlimit="10" stroke-linecap="round" stroke-linejoin="round"/>
</g>
</svg>
