<svg width="64" height="64" viewBox="0 0 64 64" fill="none" xmlns="http://www.w3.org/2000/svg">
<path d="M37.0619 29.5446C32.947 29.5446 29.5991 26.1967 29.5991 22.0818C29.5991 17.9668 32.947 14.6193 37.0619 14.6193C41.1768 14.6193 44.5244 17.9668 44.5244 22.0818C44.5244 26.1967 41.1768 29.5446 37.0619 29.5446ZM37.0619 16.2626C33.853 16.2626 31.2424 18.8732 31.2424 22.0818C31.2424 25.2906 33.853 27.9013 37.0619 27.9013C40.2705 27.9013 42.8811 25.2906 42.8811 22.0818C42.8811 18.8732 40.2705 16.2626 37.0619 16.2626ZM23.0507 27.088C22.6967 27.088 22.3699 26.8575 22.2637 26.501C22.203 26.2981 22.1466 26.0937 22.0939 25.887L18.515 25.1854C18.1295 25.11 17.8516 24.772 17.8516 24.3791V19.7837C17.8516 19.3909 18.1295 19.0529 18.515 18.9775L22.0917 18.2762C22.4553 16.8361 23.0231 15.4656 23.7857 14.1898L21.7585 11.1684C21.54 10.8426 21.5823 10.4074 21.8599 10.1298L25.1106 6.87916C25.3885 6.60218 25.824 6.55981 26.1492 6.77774L29.1706 8.80488C30.4471 8.04229 31.8175 7.47421 33.257 7.11089L33.9583 3.5345C34.0337 3.14904 34.3717 2.87109 34.7645 2.87109H39.3599C39.7528 2.87109 40.0907 3.14904 40.1662 3.5345L40.8674 7.11089C42.3072 7.47421 43.6774 8.04229 44.9538 8.80488L47.9753 6.77774C48.3007 6.55949 48.7366 6.60153 49.0139 6.87916L52.2645 10.1298C52.5421 10.4074 52.5845 10.8426 52.3659 11.1684L50.3388 14.1898C51.1014 15.4663 51.6695 16.8364 52.0328 18.2762L55.6092 18.9775C55.9946 19.0529 56.2726 19.3909 56.2726 19.7837V22.7914C56.2726 23.2452 55.9048 23.613 55.4509 23.613C54.9971 23.613 54.6293 23.2452 54.6293 22.7914V20.46L51.1954 19.7866C50.8732 19.7234 50.6193 19.4743 50.5503 19.1531C50.2027 17.5358 49.5701 16.0103 48.6708 14.6189C48.4927 14.3433 48.4955 13.9876 48.6785 13.7151L50.6248 10.814L48.3296 8.51891L45.4285 10.4652C45.1563 10.6481 44.8007 10.651 44.5247 10.4729C43.1334 9.57356 41.6079 8.94096 39.9906 8.59337C39.6693 8.52437 39.4203 8.27049 39.357 7.94826L38.6837 4.51437H35.4408L34.7674 7.94826C34.7042 8.27049 34.4551 8.52437 34.1338 8.59337C32.5169 8.94096 30.9914 9.57324 29.5997 10.4729C29.324 10.6507 28.9684 10.6478 28.6959 10.4652L25.7948 8.51891L23.4997 10.814L25.446 13.7151C25.6289 13.9876 25.6318 14.3433 25.4537 14.6189C24.5544 16.0096 23.9221 17.5351 23.5742 19.1531C23.5052 19.4743 23.2513 19.7234 22.929 19.7866L19.4948 20.46V23.7029L22.929 24.3763C23.25 24.4392 23.5029 24.6863 23.5732 25.006C23.6499 25.3536 23.7382 25.6954 23.8383 26.0311C23.968 26.466 23.7208 26.9237 23.2859 27.0533C23.2076 27.0768 23.1284 27.088 23.0507 27.088Z" fill="#FF6600"/>
<path d="M21.8845 51.9964C21.6598 51.9964 21.4361 51.905 21.2737 51.7249C20.9701 51.3879 20.997 50.8683 21.334 50.5643L23.5836 48.5369C24.1369 48.0387 24.851 47.7643 25.5953 47.7643H42.5442C43.5482 47.7643 44.503 47.3846 45.2325 46.6949L55.4517 37.0333L60.6437 29.2408C60.7542 29.0759 60.7866 28.8846 60.7365 28.7C60.6868 28.5164 60.5635 28.3694 60.3899 28.2857L60.0355 28.1136C58.1137 27.1797 55.7974 27.6605 54.4041 29.2803L50.9221 33.3429C50.8723 33.401 50.8145 33.4517 50.7507 33.4941L44.2607 37.7763C43.8823 38.0256 43.372 37.9217 43.1223 37.5429C42.8726 37.1642 42.9769 36.6545 43.3556 36.4045L49.7493 32.1859L53.1572 28.2099C55.0373 26.0242 58.1605 25.3766 60.7535 26.6353L61.1059 26.8064C61.7042 27.0949 62.1484 27.6287 62.3223 28.2693C62.4966 28.9109 62.3827 29.5981 62.0097 30.1539L56.7676 38.0218C56.7336 38.0735 56.6934 38.121 56.6485 38.1633L46.3616 47.8889C45.3256 48.8684 43.9699 49.4076 42.5442 49.4076H25.5953C25.258 49.4076 24.9342 49.5318 24.6835 49.7578L22.4342 51.7852C22.277 51.9268 22.0806 51.9964 21.8845 51.9964Z" fill="#FF6600"/>
<path d="M18.5353 61.1292C17.9865 61.1292 17.437 60.9229 17.0153 60.5088L2.25014 46.0104C1.3964 45.1721 1.38389 43.7952 2.22222 42.9411L7.06572 38.0116C7.47687 37.5927 8.02666 37.3623 8.61336 37.3623H8.61625C9.20392 37.3629 9.75403 37.595 10.1652 38.0154L24.6328 52.8114C25.4522 53.6494 25.4512 55.0119 24.6302 55.8486L20.0846 60.4803C19.6603 60.9126 19.0979 61.1292 18.5353 61.1292ZM8.61368 39.0056C8.47118 39.0056 8.33798 39.0614 8.23785 39.1632L3.39466 44.0927C3.19117 44.3 3.19438 44.6341 3.40172 44.8376L18.1669 59.3361C18.3742 59.5402 18.7086 59.537 18.9118 59.329L23.4575 54.6976C23.6568 54.4945 23.6568 54.1639 23.4581 53.9604L8.99016 39.1641C8.89034 39.0621 8.75683 39.0056 8.61432 39.0056H8.61368Z" fill="#FF6600"/>
<path d="M9.00379 47.2678C8.43988 47.2678 7.87532 47.0634 7.42791 46.6523C6.95547 46.2177 6.68844 45.6249 6.67624 44.983C6.66372 44.3411 6.90797 43.7383 7.36372 43.2861L7.46932 43.1815C7.91223 42.7414 8.50535 42.5261 9.12608 42.5059C9.75161 42.5104 10.3367 42.7591 10.7739 43.2065C11.6642 44.1167 11.6536 45.588 10.7498 46.4857L10.6451 46.59C10.191 47.0409 9.59788 47.2678 9.00379 47.2678ZM9.10907 44.1491C8.92709 44.1491 8.75602 44.2194 8.62667 44.3478L8.52076 44.4528C8.38724 44.5853 8.31535 44.7625 8.3192 44.9515C8.32273 45.1402 8.40136 45.3145 8.54034 45.4423C8.80994 45.691 9.22621 45.6827 9.48683 45.4243L9.59146 45.32C9.85721 45.0558 9.86074 44.6232 9.59884 44.3552C9.47014 44.2236 9.29811 44.1504 9.1142 44.1491C9.11228 44.1491 9.11067 44.1491 9.10907 44.1491Z" fill="#FF6600"/>
<path d="M42.9786 41.0018H28.0895C27.6357 41.0018 27.2679 40.634 27.2679 40.1801C27.2679 39.7263 27.6357 39.3585 28.0895 39.3585H42.9786C43.061 39.3585 43.1284 39.2914 43.1284 39.2089V38.153C43.1284 36.3078 41.627 34.8064 39.7815 34.8064H33.0534C31.9538 34.8064 30.9194 34.3782 30.1414 33.6006C28.7523 32.2112 26.9055 31.446 24.9407 31.446H20.352C18.7854 31.446 17.3126 32.0561 16.2046 33.1638L10.4846 38.9563C10.1656 39.2792 9.64531 39.2821 9.32243 38.9637C8.99955 38.6447 8.99634 38.1244 9.31505 37.8015L15.0389 32.0054C16.4608 30.5836 18.3464 29.8027 20.352 29.8027H24.9407C27.3443 29.8027 29.6041 30.7386 31.3032 32.4384C31.7709 32.9057 32.3926 33.1631 33.0534 33.1631H39.7815C42.5331 33.1631 44.7717 35.4014 44.7717 38.153V39.2089C44.7717 40.1975 43.9674 41.0018 42.9786 41.0018Z" fill="#FF6600"/>
</svg>
