<svg width="48" height="48" viewBox="0 0 48 48" fill="none" xmlns="http://www.w3.org/2000/svg">
<g clip-path="url(#clip0_1_28169)">
<path d="M47.0247 13.978H40.0216C39.9841 13.978 39.9466 13.9874 39.9091 13.9874C39.7497 13.5468 39.4966 13.153 39.1403 12.8343L33.5434 7.73428C33.3841 5.98115 31.9122 4.60303 30.1309 4.60303H10.6684C5.05281 4.60303 0.374689 8.8499 0.0184389 14.2687C-0.309686 19.3593 3.00906 23.7937 7.79031 24.9843C6.50594 27.2062 4.43406 31.9874 4.62156 39.6187C4.66844 41.7374 6.35594 43.3874 8.46531 43.3874H16.0309C17.6434 43.3874 18.9466 42.0749 18.9466 40.4718C18.9466 39.2812 18.1966 38.1936 17.0903 37.7624L16.0497 37.3593C15.8247 37.2749 15.6466 37.1155 15.5622 36.9374C14.8966 35.4562 14.7934 33.8812 15.0841 32.1187H17.0434C19.0309 32.1187 20.6528 30.4968 20.6528 28.5093V25.3124H30.1216C31.8934 25.3124 33.3841 23.953 33.5434 22.1905L39.1403 17.0905C39.4872 16.7718 39.7497 16.378 39.9091 15.9374C39.9466 15.9374 39.9841 15.9468 40.0216 15.9468H47.0247C47.5684 15.9468 47.9997 15.5062 47.9997 14.9718C47.9997 14.4187 47.5591 13.978 47.0247 13.978ZM18.7028 28.4999C18.7028 29.4093 17.9622 30.1499 17.0528 30.1499H15.5434C15.9559 28.6874 16.5559 27.0843 17.2684 25.303H18.7028V28.4999ZM26.5872 23.353H16.6028C16.1997 23.353 15.8434 23.5968 15.6934 23.9624C13.4434 29.5312 11.9903 33.7874 13.7809 37.753C14.0809 38.3999 14.6528 38.9249 15.3466 39.1968L16.3872 39.5999C16.7528 39.7405 16.9966 40.0968 16.9966 40.4905C16.9966 41.0155 16.5653 41.4468 16.0403 41.4468H8.46531C7.43406 41.4468 6.60906 40.6311 6.58094 39.5905C6.35594 30.1499 9.81531 25.4062 10.2091 24.8905C10.4247 24.6093 10.4716 24.2249 10.3309 23.8968C10.1903 23.5687 9.88094 23.3437 9.52469 23.3062C4.99656 22.8749 1.67781 18.9655 1.97781 14.3999C2.25906 10.003 6.08406 6.5624 10.6684 6.5624H26.5872V23.353ZM31.6028 21.8718C31.6028 22.678 30.9559 23.3437 30.1403 23.353H28.5466V6.5624H30.1309C30.9466 6.5624 31.6028 7.2374 31.6028 8.03428V21.8718ZM37.8184 15.628L33.5622 19.5187V10.3968L37.8184 14.278C38.0153 14.4562 38.1184 14.6905 38.1184 14.953C38.1184 15.2155 38.0153 15.4593 37.8184 15.628Z" fill="#FF6600"/>
<path d="M9.73281 11.803H17.9453C18.4891 11.803 18.9203 11.3624 18.9203 10.828C18.9203 10.2937 18.4797 9.85303 17.9453 9.85303H9.73281C9.18906 9.85303 8.75781 10.2937 8.75781 10.828C8.75781 11.3624 9.18906 11.803 9.73281 11.803Z" fill="#FF6600"/>
<path d="M18.9203 19.0873C18.9203 18.5436 18.4797 18.1123 17.9453 18.1123H9.73281C9.18906 18.1123 8.75781 18.5529 8.75781 19.0873C8.75781 19.6217 9.19844 20.0623 9.73281 20.0623H17.9453C18.4797 20.0717 18.9203 19.6311 18.9203 19.0873Z" fill="#FF6600"/>
<path d="M20.7484 14.953C20.7484 14.4093 20.3078 13.978 19.7734 13.978H7.90469C7.36094 13.978 6.92969 14.4187 6.92969 14.953C6.92969 15.4874 7.36094 15.9374 7.90469 15.9374H19.7734C20.3078 15.9374 20.7484 15.4968 20.7484 14.953Z" fill="#FF6600"/>
</g>
<defs>
<clipPath id="clip0_1_28169">
<rect width="48" height="48" fill="white"/>
</clipPath>
</defs>
</svg>
