<svg width="28" height="28" viewBox="0 0 28 28" fill="none" xmlns="http://www.w3.org/2000/svg">
<g clip-path="url(#clip0_1_26695)">
<path d="M14.1952 17.8689C13.8668 16.5046 13.1218 15.3334 12.0407 14.4817C11.6175 14.1483 11.1583 13.8774 10.6725 13.6699V12.3052C10.6725 11.2363 9.987 10.325 9.03267 9.98652V0.849935C9.03267 0.408438 8.69339 0.0285434 8.25239 0.00777224C7.78153 -0.0144201 7.39284 0.360773 7.39284 0.826758V9.98652C6.43851 10.325 5.75301 11.2363 5.75301 12.3052V13.6695C5.26669 13.877 4.8071 14.1481 4.38348 14.4818C3.30239 15.3336 2.55742 16.5051 2.22901 17.8695C1.95008 19.0285 1.98184 19.9074 2.00977 20.6829C2.05574 21.9565 2.09816 23.1679 0.674509 25.7971C0.546875 26.0328 0.399619 26.2594 0.217761 26.4563C0.0481482 26.64 -0.0347726 26.898 0.0137117 27.1607C0.0105414 27.3695 0.0869029 27.5794 0.243889 27.7433C0.401586 27.9079 0.625041 27.993 0.852977 27.993H7.05782C9.45236 27.993 11.5013 26.9988 12.9831 25.1178C14.4649 23.2369 14.952 21.0121 14.3915 18.6842L14.1952 17.8689ZM7.39284 12.3053C7.39284 11.8532 7.76065 11.4854 8.21276 11.4854C8.66486 11.4854 9.03267 11.8532 9.03267 12.3053V13.1252H7.39284V12.3053ZM8.18111 14.8197H8.24326C9.65537 14.8197 10.9056 15.4371 11.7272 16.4595H4.69712C5.51884 15.437 6.76899 14.8197 8.18111 14.8197ZM11.695 24.1031C10.7081 25.3558 9.39956 26.1056 7.87664 26.3013C8.28748 25.9571 8.66988 25.5626 9.02026 25.1178C9.92813 23.9654 10.4633 22.6804 10.611 21.2983C10.6591 20.8481 10.333 20.4441 9.88276 20.396C9.43323 20.3478 9.02846 20.6739 8.98042 21.1242C8.86606 22.1946 8.44616 23.1968 7.73218 24.103C6.78812 25.3014 5.54978 26.0398 4.11088 26.2729C4.51379 25.9338 4.88707 25.548 5.22597 25.1177C5.84435 24.3328 6.2941 23.4755 6.56259 22.5698C6.69127 22.1356 6.44365 21.6793 6.00948 21.5506C5.57547 21.4222 5.1191 21.6696 4.99032 22.1037C4.78119 22.8093 4.42704 23.4819 3.93783 24.103C3.58789 24.5472 3.20018 24.926 2.77786 25.2405C3.73607 23.079 3.69229 21.8351 3.64856 20.6237C3.62205 19.8883 3.59701 19.1937 3.82337 18.2531C3.83583 18.2013 3.84966 18.1502 3.86371 18.0993H12.5607C12.5747 18.15 12.5885 18.2009 12.6009 18.2525L12.7972 19.0679C13.2359 20.8899 12.8547 22.631 11.695 24.1031Z" fill="currentColor"/>
<path d="M28.0001 20.3129C28.0001 17.9167 26.0508 15.9674 23.6546 15.9674C23.1761 15.9674 22.706 16.0474 22.2619 16.1982C21.8771 14.9882 20.743 14.1089 19.407 14.1089C17.9368 14.1089 16.6943 15.1615 16.4527 16.6118C16.3783 17.0585 16.68 17.4809 17.1267 17.5553C17.5737 17.63 17.9958 17.328 18.0702 16.8813C18.1795 16.225 18.7418 15.7487 19.407 15.7487C20.1435 15.7487 20.7442 16.3393 20.7616 17.0716C20.5359 17.2725 20.3299 17.4978 20.1485 17.7455C19.881 18.1109 19.9603 18.6239 20.3256 18.8915C20.691 19.159 21.204 19.0797 21.4716 18.7144C21.9792 18.021 22.7953 17.6072 23.6546 17.6072C25.1466 17.6072 26.3603 18.821 26.3603 20.3129C26.3603 21.1949 25.9274 22.0135 25.2253 22.5153C24.9413 22.0877 24.5646 21.7202 24.1146 21.4487C23.7267 21.2147 23.2229 21.3394 22.9889 21.727C22.755 22.1147 22.8796 22.6187 23.2673 22.8527C23.8295 23.192 24.1787 23.8106 24.1787 24.4672C24.1787 25.507 23.3327 26.353 22.2929 26.353C21.6432 26.353 21.0478 26.0255 20.7001 25.4768C20.4576 25.0943 19.9512 24.9806 19.5686 25.2232C19.1861 25.4656 19.0726 25.9722 19.315 26.3547C19.9651 27.3804 21.0784 27.9928 22.2929 27.9928C24.2369 27.9928 25.8185 26.4112 25.8185 24.4672C25.8185 24.3413 25.8113 24.2163 25.7979 24.0923C27.1468 23.3264 28.0001 21.8822 28.0001 20.3129Z" fill="currentColor"/>
</g>
<defs>
<clipPath id="clip0_1_26695">
<rect width="28" height="28" fill="currentColor"/>
</clipPath>
</defs>
</svg>
