<svg width="28" height="28" viewBox="0 0 28 28" fill="none" xmlns="http://www.w3.org/2000/svg">
<g clip-path="url(#clip0_1_26680)">
<path d="M27.1796 21.3828H26.6328V19.25C26.6328 14.9928 23.8543 11.3728 20.0156 10.1069V8.64061C20.0156 7.56781 19.3253 6.65371 18.3657 6.31765C18.1809 2.80284 15.2633 0 11.7032 0H11.5938C7.91491 0 4.92187 2.99304 4.92187 6.67203V18.1562H4.10155C3.64852 18.1562 3.28124 18.5235 3.28124 18.9765V21.6015H0.820311C0.367281 21.6015 0 21.9688 0 22.4218V25.7031C0 26.1561 0.367281 26.5234 0.820311 26.5234H10.664C11.1171 26.5234 11.4844 26.1561 11.4844 25.7031V22.4218C11.4844 21.9688 11.1171 21.6015 10.664 21.6015H8.20311V18.9765C8.20311 18.5235 7.83583 18.1562 7.3828 18.1562H6.56249V6.67203C6.56249 3.89768 8.81955 1.64062 11.5939 1.64062H11.7032C14.3608 1.64062 16.5435 3.71191 16.7224 6.32487C15.7738 6.66683 15.0937 7.57568 15.0937 8.64061V21.4101C14.1075 22.0488 13.4531 23.158 13.4531 24.418C13.4531 26.3931 15.06 28 17.0351 28C18.1995 28 19.2355 27.4413 19.8902 26.5781H24.1718C25.5288 26.5781 26.6328 25.4742 26.6328 24.1172V23.0234H27.1796C27.6327 23.0234 27.9999 22.6562 27.9999 22.2031C27.9999 21.7501 27.6327 21.3828 27.1796 21.3828ZM9.84379 24.8828H1.64062V23.2422H9.84373V24.8828H9.84379ZM6.56249 21.4375H4.92187V19.7968H5.74163H5.74218C5.74218 19.7968 5.7425 19.7968 5.74272 19.7968H6.56249V21.4375ZM17.5547 7.8203C18.007 7.8203 18.375 8.18829 18.375 8.64061V9.46092H16.7343V8.64061C16.7343 8.18829 17.1023 7.8203 17.5547 7.8203ZM17.0351 26.3594C15.9646 26.3594 15.0937 25.4885 15.0937 24.418C15.0937 23.3475 15.9646 22.4766 17.0351 22.4766C18.1056 22.4766 18.9765 23.3475 18.9765 24.418C18.9765 25.4885 18.1056 26.3594 17.0351 26.3594ZM24.9921 24.1172C24.9921 24.5695 24.6241 24.9375 24.1718 24.9375H20.579C20.6037 24.7678 20.6171 24.5945 20.6171 24.418C20.6171 22.4428 19.0102 20.836 17.0351 20.836C16.9337 20.836 16.8336 20.8412 16.7343 20.8495V11.2656H17.0077C21.4103 11.2656 24.9921 14.8474 24.9921 19.25V24.1172H24.9921Z" fill="currentColor"/>
</g>
<defs>
<clipPath id="clip0_1_26680">
<rect width="28" height="28" fill="currentColor"/>
</clipPath>
</defs>
</svg>
