<svg width="40" height="40" viewBox="0 0 40 40" fill="none" xmlns="http://www.w3.org/2000/svg">
<g clip-path="url(#clip0_1_25180)">
<path d="M20 4.6875C15.4768 4.6875 11.7969 8.36742 11.7969 12.8906C11.7969 13.5378 12.3216 14.0625 12.9688 14.0625C13.6159 14.0625 14.1406 13.5378 14.1406 12.8906C14.1406 9.65977 16.7691 7.03125 20 7.03125C23.2309 7.03125 25.8594 9.65977 25.8594 12.8906C25.8594 13.5378 26.3841 14.0625 27.0312 14.0625C27.6784 14.0625 28.2031 13.5378 28.2031 12.8906C28.2031 8.36742 24.5232 4.6875 20 4.6875Z" fill="currentColor"/>
<path d="M38.8281 28.2812H35.0328C34.5491 26.9173 33.2465 25.9375 31.7188 25.9375C30.191 25.9375 28.8884 26.9173 28.4047 28.2812H24.6875V24.8988C29.4845 23.0198 32.8906 18.3456 32.8906 12.8906C32.8906 5.78273 27.1079 0 20 0C12.8921 0 7.10938 5.78273 7.10938 12.8906C7.10938 18.3456 10.5155 23.0198 15.3125 24.8988V28.2812H11.5953C11.1116 26.9173 9.80898 25.9375 8.28125 25.9375C6.75352 25.9375 5.45094 26.9173 4.96719 28.2812H1.17188C0.524687 28.2812 0 28.8059 0 29.4531V36.4844C0 37.1316 0.524687 37.6562 1.17188 37.6562H4.96719C5.45094 39.0202 6.75352 40 8.28125 40C9.80898 40 11.1116 39.0202 11.5953 37.6562H28.4047C28.8884 39.0202 30.191 40 31.7188 40C33.2465 40 34.5491 39.0202 35.0328 37.6562H38.8281C39.4753 37.6562 40 37.1316 40 36.4844V29.4531C40 28.8059 39.4753 28.2812 38.8281 28.2812ZM4.76562 35.3125H2.34375V30.625H4.76562V35.3125ZM9.45312 36.4844C9.45312 37.1305 8.92742 37.6562 8.28125 37.6562C7.63508 37.6562 7.10938 37.1305 7.10938 36.4844V29.4531C7.10938 28.807 7.63508 28.2812 8.28125 28.2812C8.92742 28.2812 9.45312 28.807 9.45312 29.4531V36.4844ZM9.45312 12.8906C9.45312 7.07508 14.1845 2.34375 20 2.34375C25.8155 2.34375 30.5469 7.07508 30.5469 12.8906C30.5469 18.7062 25.8155 23.4375 20 23.4375C14.1845 23.4375 9.45312 18.7062 9.45312 12.8906ZM22.3438 25.5671V28.2812H17.6562V25.5671C18.4166 25.7073 19.1998 25.7812 20 25.7812C20.8002 25.7812 21.5834 25.7073 22.3438 25.5671ZM28.2031 35.3125H11.7969V30.625C12.2966 30.625 27.3417 30.625 28.2031 30.625V35.3125ZM32.8906 36.4844C32.8906 37.1305 32.3649 37.6562 31.7188 37.6562C31.0726 37.6562 30.5469 37.1305 30.5469 36.4844V29.4531C30.5469 28.807 31.0726 28.2812 31.7188 28.2812C32.3649 28.2812 32.8906 28.807 32.8906 29.4531V36.4844ZM37.6562 35.3125H35.2344V30.625H37.6562V35.3125Z" fill="currentColor"/>
<path d="M21.1719 14.2641V10.5469C21.1719 9.89969 20.6472 9.375 20 9.375C19.3528 9.375 18.8281 9.89969 18.8281 10.5469V14.2641C17.4641 14.7478 16.4844 16.0504 16.4844 17.5781C16.4844 19.5166 18.0615 21.0938 20 21.0938C21.9385 21.0938 23.5156 19.5166 23.5156 17.5781C23.5156 16.0504 22.5359 14.7478 21.1719 14.2641ZM20 18.75C19.3538 18.75 18.8281 18.2243 18.8281 17.5781C18.8281 16.932 19.3538 16.4062 20 16.4062C20.6462 16.4062 21.1719 16.932 21.1719 17.5781C21.1719 18.2243 20.6462 18.75 20 18.75Z" fill="currentColor"/>
</g>
<defs>
<clipPath id="clip0_1_25180">
<rect width="40" height="40" fill="currentColor"/>
</clipPath>
</defs>
</svg>
