<svg width="49" height="49" viewBox="0 0 49 49" fill="none" xmlns="http://www.w3.org/2000/svg">
<path d="M42.9853 5.06348H5.77537C5.38139 5.06348 5.0625 5.38286 5.0625 5.77637V42.9863C5.0625 43.3798 5.38139 43.6992 5.77537 43.6992H20.0029C20.3968 43.6992 20.7157 43.3798 20.7157 42.9863C20.7157 42.5928 20.3968 42.2735 20.0029 42.2735H6.48824V31.2582H13.7847C14.1787 31.2582 14.4976 30.9388 14.4976 30.5453C14.4976 30.1518 14.1787 29.8324 13.7847 29.8324H6.48824V6.48924H24.618V17.7393C24.618 18.1328 24.9369 18.4522 25.3309 18.4522C25.7248 18.4522 26.0437 18.1328 26.0437 17.7393V6.48924H42.2725V24.1038H19.2629C18.8689 24.1038 18.55 24.4232 18.55 24.8167C18.55 25.2102 18.8689 25.5296 19.2629 25.5296H42.2725V42.273H31.924L26.5869 34.5018C26.3645 34.1776 25.9202 34.0945 25.596 34.3178C25.2714 34.5407 25.1892 34.9841 25.4121 35.3092L30.9616 43.3894C31.0947 43.5828 31.3142 43.6983 31.549 43.6983H42.9858C43.3798 43.6983 43.6987 43.3789 43.6987 42.9854V5.77637C43.6982 5.38286 43.3793 5.06348 42.9853 5.06348Z" fill="#FF6600" stroke="#FF6600"/>
</svg>
