<svg width="49" height="49" viewBox="0 0 49 49" fill="none" xmlns="http://www.w3.org/2000/svg">
<g clip-path="url(#clip0_1_33871)">
<mask id="mask0_1_33871" style="mask-type:luminance" maskUnits="userSpaceOnUse" x="0" y="0" width="49" height="49">
<path d="M0.5 0.5H48.2624V48.2624H0.5V0.5Z" fill="white"/>
</mask>
<g mask="url(#mask0_1_33871)">
<path d="M9.57671 32.4705C9.08008 31.9719 8.41806 31.6972 7.71326 31.6963C7.71279 31.6963 7.71184 31.6963 7.71089 31.6963C7.00657 31.6963 6.34455 31.9705 5.84887 32.4667C5.34986 32.9643 5.07469 33.6263 5.07422 34.3315C5.07374 35.0363 5.34796 35.6988 5.84602 36.1964L12.0157 42.3746C12.5123 42.8727 13.1739 43.1474 13.8786 43.1483H13.881C14.5853 43.1483 15.2469 42.8746 15.7435 42.3775C16.2425 41.8794 16.5172 41.2169 16.5177 40.5131C16.5182 39.8088 16.244 39.1463 15.7454 38.6477L9.57671 32.4705ZM14.736 41.369C14.5084 41.5966 14.2047 41.7226 13.881 41.7226C13.8806 41.7226 13.8801 41.7226 13.8801 41.7226C13.5564 41.7221 13.2527 41.5962 13.0251 41.3676L6.85449 35.1879C6.6259 34.9598 6.49996 34.6557 6.49996 34.3325C6.49996 34.0088 6.62637 33.7052 6.85639 33.4756C7.08404 33.248 7.38772 33.122 7.71136 33.122H7.71231C8.03596 33.122 8.33964 33.2484 8.56728 33.4775L14.7374 39.6557C14.7374 39.6557 14.7379 39.6557 14.7379 39.6562C14.967 39.8848 15.0929 40.189 15.0929 40.5121C15.092 40.8353 14.9655 41.1399 14.736 41.369Z" fill="#FF6600" stroke="#FF6600"/>
<path d="M47.3847 7.34499C47.399 7.32598 47.4123 7.30649 47.4242 7.28653C47.4356 7.26752 47.4456 7.24756 47.4551 7.2276C47.465 7.20669 47.4746 7.18578 47.4822 7.16392C47.4898 7.14301 47.4959 7.12162 47.5016 7.09976C47.5078 7.07647 47.513 7.05271 47.5164 7.02895C47.5197 7.00804 47.5216 6.98712 47.523 6.96621C47.5249 6.9396 47.5249 6.91299 47.5235 6.8859C47.523 6.87544 47.5249 6.86546 47.5235 6.85501C47.5226 6.84455 47.5187 6.83457 47.5173 6.82412C47.514 6.79893 47.5088 6.77374 47.5026 6.74855C47.4969 6.72479 47.4898 6.70198 47.4817 6.67964C47.4779 6.66871 47.4765 6.65778 47.4717 6.64732L46.2655 3.75829C46.2655 3.75829 46.2655 3.75781 46.265 3.75734L46.2627 3.75116C46.2261 3.66371 46.1733 3.58815 46.1106 3.52447C46.1096 3.52352 46.1096 3.52257 46.1087 3.52162C46.1082 3.52114 46.1073 3.52067 46.1068 3.52019C46.1025 3.51591 46.0982 3.51259 46.094 3.50878C43.2306 0.662527 38.1331 0.756626 35.1732 3.71409L14.1687 24.6868C12.8447 23.4478 10.871 23.3627 9.71186 24.5204L1.82276 32.4024C1.2344 32.9884 0.943551 33.7949 1.00391 34.6717C1.06189 35.511 1.43876 36.3189 2.06466 36.9477L11.1248 46.0187C11.7511 46.6475 12.5586 47.0267 13.3979 47.0861C13.4758 47.0918 13.5528 47.0942 13.6293 47.0942C14.4159 47.0942 15.134 46.8062 15.6715 46.2701L21.9823 39.9688C22.2061 39.7455 22.256 39.4014 22.1044 39.1234L20.961 37.0228L22.6875 36.8602H22.6918C23.0839 36.8232 23.3719 36.4758 23.3353 36.0837L23.1538 34.1542L25.0837 33.9731C25.1332 33.9684 25.1807 33.9588 25.2263 33.9451C25.2273 33.9451 25.2277 33.9446 25.2287 33.9441C25.2729 33.9303 25.3157 33.9127 25.3556 33.8909C25.3675 33.8842 25.3779 33.8752 25.3898 33.8681C25.4174 33.851 25.4454 33.8343 25.4701 33.8139C25.4829 33.8034 25.4934 33.7901 25.5058 33.7783C25.5267 33.7583 25.5485 33.7393 25.5671 33.7169C25.577 33.7051 25.5842 33.6908 25.5932 33.6785C25.6108 33.6542 25.6293 33.6305 25.6436 33.6038C25.6493 33.5934 25.6526 33.5815 25.6578 33.5706C25.6726 33.5402 25.6873 33.5093 25.6978 33.4769C25.6997 33.4717 25.6997 33.4655 25.7011 33.4603C25.7253 33.3767 25.7358 33.2878 25.7272 33.1961C25.7272 33.1956 25.7272 33.1951 25.7267 33.1947L25.5433 31.2656L27.4723 31.085C27.5707 31.076 27.6624 31.047 27.7442 31.0028C27.7475 31.0009 27.7504 30.9985 27.7537 30.9966C27.7908 30.9757 27.8259 30.9529 27.8587 30.9263C27.8715 30.9158 27.882 30.9025 27.8944 30.8911C27.9153 30.8712 27.9371 30.8522 27.9557 30.8298C27.968 30.8151 27.977 30.798 27.988 30.7823C28.0032 30.7604 28.0198 30.74 28.0326 30.7167C28.0412 30.7015 28.046 30.6844 28.0536 30.6682C28.0654 30.6426 28.0783 30.6174 28.0868 30.5903C28.0911 30.5765 28.0925 30.5618 28.0959 30.5475C28.1035 30.5162 28.112 30.4853 28.1158 30.4529C28.1163 30.4487 28.1153 30.4444 28.1158 30.4406C28.1196 30.3978 28.121 30.3541 28.1168 30.3094C28.1168 30.3089 28.1168 30.3085 28.1163 30.308L27.9328 28.3785L29.8619 28.1974C30.0976 28.1751 30.2944 28.0396 30.4065 27.8505C30.5743 27.7046 30.6731 27.4841 30.6508 27.246L30.4697 25.3155L32.3964 25.1345C32.5922 25.1159 32.7618 25.0199 32.8783 24.8797C32.884 24.8731 32.8878 24.865 32.893 24.8579C32.999 24.72 33.0565 24.5447 33.0389 24.3584L32.8578 22.4298L34.7883 22.2468C34.814 22.2445 34.8387 22.2373 34.8634 22.2321C34.8857 22.2274 34.909 22.2255 34.9304 22.2188C34.9356 22.2174 34.9399 22.2145 34.9451 22.2126C35.0744 22.1699 35.187 22.0929 35.2707 21.9912C35.2735 21.9878 35.2754 21.9836 35.2783 21.9802C35.3039 21.9479 35.3277 21.9142 35.3477 21.8781C35.3671 21.8424 35.3824 21.8039 35.3957 21.7649C35.3971 21.7602 35.3999 21.7559 35.4014 21.7512C35.4289 21.6632 35.4399 21.5691 35.4308 21.4717C35.4308 21.4708 35.4308 21.4703 35.4308 21.4698L35.2469 19.5398L37.1769 19.3569C37.2254 19.3521 37.2719 19.3426 37.3166 19.3293C37.3171 19.3293 37.3176 19.3293 37.3185 19.3288C37.3618 19.3155 37.4026 19.2979 37.4421 19.2775C37.444 19.2766 37.4459 19.2761 37.4478 19.2751C37.529 19.2314 37.6003 19.1725 37.6588 19.1021C37.6588 19.1021 37.6593 19.1021 37.6593 19.1017C37.7144 19.0351 37.7567 18.9577 37.7847 18.8745C37.7862 18.8702 37.7885 18.8659 37.79 18.8617C37.8033 18.8194 37.8123 18.7756 37.8175 18.731C37.818 18.7286 37.8185 18.7267 37.8189 18.7243C37.8237 18.6787 37.8242 18.6321 37.8199 18.5846C37.8199 18.5832 37.8199 18.5817 37.8199 18.5798V18.5789L37.6384 16.6522L39.5683 16.4712C39.8036 16.4488 39.9999 16.3139 40.1125 16.1257C40.2812 15.9798 40.3801 15.7583 40.3577 15.5192L40.1738 13.5893L42.1033 13.4082C42.4954 13.3711 42.7834 13.0237 42.7468 12.6316L42.5652 10.7012L44.4938 10.5201C44.8859 10.483 45.1734 10.1356 45.1368 9.74356C45.1368 9.74261 45.1363 9.74214 45.1363 9.74166L44.9543 7.81406L46.881 7.63251C46.8919 7.63156 46.9019 7.62776 46.9123 7.62633C46.9375 7.62253 46.9627 7.61778 46.9879 7.6116C47.0112 7.6059 47.0335 7.59877 47.0559 7.59069C47.0668 7.58689 47.0777 7.58499 47.0886 7.58071C47.0991 7.57643 47.1077 7.56978 47.1181 7.56503C47.1409 7.5541 47.1628 7.54221 47.1842 7.52938C47.2037 7.5175 47.2222 7.50515 47.2403 7.49184C47.2588 7.47806 47.2759 7.46332 47.293 7.44764C47.3106 7.43148 47.3272 7.41532 47.3429 7.39774C47.3581 7.37968 47.3714 7.36257 47.3847 7.34499ZM14.6663 45.2602C14.3731 45.5525 13.9563 45.6956 13.5001 45.6632C13.0044 45.6281 12.5201 45.3966 12.1361 45.0112L3.07551 35.9402C2.69199 35.5552 2.46149 35.07 2.42727 34.5733C2.39591 34.1147 2.53848 33.7022 2.83076 33.4114L10.7203 25.5289C10.9946 25.2552 11.3648 25.1221 11.7587 25.1221C12.243 25.1221 12.7629 25.3231 13.1845 25.7124L13.3123 25.9466C13.3318 26.0973 13.3874 26.2442 13.5029 26.3596C13.5186 26.3753 13.5395 26.381 13.5561 26.3953L20.5993 39.3363L14.6663 45.2602ZM44.1112 6.4596C43.923 6.47718 43.7496 6.56891 43.6288 6.71481C43.5086 6.86071 43.4506 7.04843 43.4687 7.23663L43.6512 9.16566L41.7231 9.3472C41.331 9.38427 41.0435 9.73168 41.0801 10.1238L41.2616 12.0542L39.3317 12.2358C39.1435 12.2538 38.9695 12.3455 38.8488 12.4914C38.7281 12.6373 38.6706 12.8251 38.6887 13.0133L38.8878 15.1025L36.7976 15.2987C36.6094 15.3168 36.436 15.408 36.3153 15.5539C36.1946 15.6994 36.137 15.8871 36.1546 16.0753L36.3362 18.0034L34.4052 18.1863C34.217 18.2044 34.0436 18.2961 33.9229 18.442C33.8022 18.5879 33.7446 18.7756 33.7627 18.9638L33.9466 20.8933L32.0167 21.0758C31.625 21.1129 31.3375 21.4603 31.3741 21.8519L31.5552 23.78L29.6285 23.9611C29.2365 23.9981 28.9489 24.3455 28.9855 24.7376L29.1818 26.8278L27.0907 27.024C26.9025 27.0421 26.7286 27.1338 26.6079 27.2797C26.4871 27.4256 26.4296 27.6133 26.4477 27.8015L26.6311 29.731L24.7026 29.9121C24.5144 29.9302 24.3405 30.0214 24.2197 30.1678C24.099 30.3137 24.0415 30.5014 24.0596 30.6896L24.243 32.6191L22.314 32.8002C22.1258 32.8183 21.9523 32.9095 21.8316 33.0554C21.7109 33.2008 21.6534 33.3886 21.671 33.5767L21.8525 35.5067L20.2239 35.6602L14.9339 25.9405L36.1836 4.72257C38.5812 2.32732 42.6707 2.21373 45.0109 4.44692L45.7855 6.30229L44.1112 6.4596Z" fill="#FF6600" stroke="#FF6600"/>
</g>
</g>
<defs>
<clipPath id="clip0_1_33871">
<rect width="48" height="48" fill="white" transform="translate(0.5 0.5)"/>
</clipPath>
</defs>
</svg>
