<svg width="64" height="64" viewBox="0 0 64 64" fill="none" xmlns="http://www.w3.org/2000/svg">
<path d="M18.0186 38.0599H26.0753V58.0615C26.0753 61.3412 28.734 63.9999 32.0138 63.9999C35.2935 63.9999 37.9522 61.3412 37.9522 58.0615V38.0599H46.0094C47.5694 38.0551 49.0635 37.4288 50.1606 36.3191C51.2572 35.2098 51.8667 33.7089 51.8535 32.1484V23.2275C51.8535 22.6313 51.4375 22.1352 50.8413 22.1352H49.829V1.07971C49.829 0.483446 49.4131 0 48.8168 0H31.0015C30.6182 0 30.264 0.203501 30.07 0.534057L26.863 6.00907L23.7403 0.544074C23.5479 0.207191 23.1899 0 22.8025 0H15.2107C14.6145 0 14.0635 0.483446 14.0635 1.07971V22.1341H13.1863C12.59 22.1341 12.0391 22.6297 12.0391 23.226V32.1473C12.0391 35.4075 14.7584 38.0599 18.0186 38.0599ZM16.223 2.15943H22.1756L25.914 8.70097C26.1054 9.03574 26.4607 9.24293 26.8461 9.24504C27.2315 9.24715 27.5884 9.04365 27.7835 8.71099L31.6199 2.15943H37.8172V6.34331C37.8172 6.93958 38.3007 7.42303 38.8969 7.42303C39.4932 7.42303 39.9766 6.93958 39.9766 6.34331V2.15943H42.541V9.31253C42.541 9.90879 43.0244 10.3922 43.6207 10.3922C44.2169 10.3922 44.7004 9.90879 44.7004 9.31253V2.15943H47.6696V22.1341H16.223V2.15943ZM49.6941 32.1484C49.6941 34.2171 48.0782 35.9005 46.0094 35.9005H36.8461C36.5625 35.9015 36.291 36.0164 36.0927 36.2194C35.895 36.4224 35.7864 36.6965 35.7928 36.9802V58.0615C35.7928 60.1487 34.1004 61.8405 32.0138 61.8405C29.9266 61.8405 28.2348 60.1487 28.2348 58.0615V36.9802C28.2406 36.6965 28.132 36.4224 27.9343 36.2194C27.736 36.0164 27.4645 35.9015 27.1809 35.9005H18.0186C15.9493 35.9005 14.1985 34.2171 14.1985 32.1484V24.2935H49.6941V32.1484Z" fill="currentColor"/>
<path d="M31.9759 60.9431C33.5575 60.9431 34.8439 59.6994 34.8439 58.1705C34.8439 56.6416 33.5575 55.3979 31.9759 55.3979C30.3943 55.3979 29.1074 56.6416 29.1074 58.1705C29.1074 59.6994 30.3943 60.9431 31.9759 60.9431ZM31.9759 57.5574C32.3671 57.5574 32.6845 57.8326 32.6845 58.1705C32.6845 58.5085 32.3666 58.7837 31.9759 58.7837C31.5848 58.7837 31.2668 58.5085 31.2668 58.1705C31.2668 57.8326 31.5853 57.5574 31.9759 57.5574Z" fill="currentColor"/>
</svg>
