<svg width="44" height="44" viewBox="0 0 44 44" fill="none" xmlns="http://www.w3.org/2000/svg">
<g clip-path="url(#clip0_0_2514)">
<path d="M34.82 17.2663C34.7467 16.8245 34.3635 16.5 33.9162 16.5H4.58282C4.13552 16.5 3.75232 16.8245 3.67902 17.2663L0.0123242 39.2663C-0.0316758 39.5321 0.0435195 39.8035 0.215824 40.0088C0.391824 40.216 0.646629 40.3333 0.916129 40.3333H3.66613V43.0833C3.66613 43.5893 4.07682 44 4.58282 44H6.41613C6.76263 44 7.07982 43.8038 7.23563 43.494L8.81593 40.3333H29.6829L31.2632 43.494C31.419 43.8038 31.7362 44 32.0827 44H33.916C34.422 44 34.8327 43.5893 34.8327 43.0833V40.3333H37.5827C37.5974 40.3351 37.6102 40.3333 37.6194 40.3333C38.1254 40.3333 38.5361 39.9226 38.5361 39.4166C38.5361 39.2736 38.5031 39.1398 38.4463 39.0206L34.82 17.2663ZM20.1662 18.3333H33.1389L34.6678 27.5H20.1662V18.3333ZM5.84971 42.1667H5.49952V40.3334H6.76632L5.84971 42.1667ZM18.3328 38.5H8.24952H4.58282H1.99782L3.52502 29.3333H18.3328V38.5ZM18.3328 27.5H3.83121L5.36021 18.3333H18.3328V27.5ZM32.9995 42.1667H32.6493L31.7326 40.3334H32.9994V42.1667H32.9995ZM33.9162 38.5H30.2495H20.1662V29.3333H34.974L36.503 38.5H33.9162Z" fill="#9FE870"/>
<path d="M36.6664 2.75V0.916695C36.6664 0.410695 36.2557 0 35.7497 0C35.2437 0 34.833 0.410695 34.833 0.916695V2.75C34.833 3.256 35.2437 3.66669 35.7497 3.66669C36.2557 3.66669 36.6664 3.256 36.6664 2.75Z" fill="#9FE870"/>
<path d="M34.833 13.7499V15.5833C34.833 16.0893 35.2437 16.4999 35.7497 16.4999C36.2557 16.4999 36.6664 16.0893 36.6664 15.5833V13.7499C36.6664 13.2439 36.2557 12.8333 35.7497 12.8333C35.2437 12.8333 34.833 13.2439 34.833 13.7499Z" fill="#9FE870"/>
<path d="M43.083 7.33325H41.2497C40.7437 7.33325 40.333 7.74395 40.333 8.24995C40.333 8.75595 40.7437 9.16664 41.2497 9.16664H43.083C43.589 9.16664 43.9997 8.75595 43.9997 8.24995C43.9997 7.74395 43.589 7.33325 43.083 7.33325Z" fill="#9FE870"/>
<path d="M30.25 7.33325H28.4167C27.9107 7.33325 27.5 7.74395 27.5 8.24995C27.5 8.75595 27.9107 9.16664 28.4167 9.16664H30.25C30.756 9.16664 31.1667 8.75595 31.1667 8.24995C31.1667 7.74395 30.756 7.33325 30.25 7.33325Z" fill="#9FE870"/>
<path d="M39.638 5.27821C39.8727 5.27821 40.1073 5.1884 40.287 5.01051L41.5832 3.71251C41.9407 3.35501 41.9407 2.77382 41.5832 2.41632C41.2257 2.05882 40.6445 2.05882 40.287 2.41632L38.9908 3.71432C38.6333 4.07182 38.6333 4.65301 38.9908 5.01051C39.1687 5.18832 39.4033 5.27821 39.638 5.27821Z" fill="#9FE870"/>
<path d="M31.2118 14.0838L32.508 12.7858C32.8655 12.4283 32.8655 11.8471 32.508 11.4896C32.1505 11.1321 31.5693 11.1321 31.2118 11.4896L29.9156 12.7876C29.5581 13.1451 29.5581 13.7263 29.9156 14.0838C30.0953 14.2635 30.3299 14.3515 30.5646 14.3515C30.7993 14.3514 31.034 14.2634 31.2118 14.0838Z" fill="#9FE870"/>
<path d="M40.287 11.4913C39.9295 11.1338 39.3483 11.1338 38.9908 11.4913C38.6333 11.8488 38.6333 12.43 38.9908 12.7875L40.287 14.0855C40.4648 14.2633 40.6995 14.3532 40.9342 14.3532C41.1689 14.3532 41.4035 14.2634 41.5832 14.0855C41.9407 13.728 41.9407 13.1468 41.5832 12.7893L40.287 11.4913Z" fill="#9FE870"/>
<path d="M31.2119 5.0088C31.3916 5.1885 31.6262 5.2765 31.8609 5.2765C32.0956 5.2765 32.3302 5.1867 32.5099 5.0088C32.8674 4.6513 32.8674 4.07011 32.5099 3.71261L31.2137 2.41461C30.8562 2.05711 30.275 2.05711 29.9175 2.41461C29.56 2.77211 29.56 3.3533 29.9175 3.7108L31.2119 5.0088Z" fill="#9FE870"/>
<path d="M35.7493 3.66675C33.2211 3.66675 31.166 5.72375 31.166 8.25005C31.166 10.7764 33.2212 12.8334 35.7493 12.8334C38.2775 12.8334 40.3326 10.7764 40.3326 8.25005C40.3326 5.72375 38.2775 3.66675 35.7493 3.66675ZM35.7493 11.0001C34.2331 11.0001 32.9993 9.76625 32.9993 8.25005C32.9993 6.73386 34.2331 5.50005 35.7493 5.50005C37.2655 5.50005 38.4993 6.73386 38.4993 8.25005C38.4993 9.76625 37.2655 11.0001 35.7493 11.0001Z" fill="#9FE870"/>
</g>
<defs>
<clipPath id="clip0_0_2514">
<rect width="44" height="44" fill="white"/>
</clipPath>
</defs>
</svg>
