<svg width="32" height="32" viewBox="0 0 32 32" fill="none" xmlns="http://www.w3.org/2000/svg">
<path d="M26.668 23.6667H5.33464C4.36239 23.666 3.43017 23.2794 2.74269 22.5919C2.05521 21.9045 1.66868 20.9722 1.66797 20V6.66667C1.66868 5.69442 2.05521 4.7622 2.74269 4.07472C3.43017 3.38724 4.36239 3.00071 5.33464 3H26.668C27.6402 3.00071 28.5724 3.38724 29.2599 4.07472C29.9474 4.7622 30.3339 5.69442 30.3346 6.66667V20C30.3339 20.9722 29.9474 21.9045 29.2599 22.5919C28.5724 23.2794 27.6402 23.666 26.668 23.6667ZM5.33464 5C4.89282 5.00071 4.46931 5.17653 4.1569 5.48893C3.8445 5.80134 3.66867 6.22486 3.66797 6.66667V20C3.66867 20.4418 3.8445 20.8653 4.1569 21.1777C4.46931 21.4901 4.89282 21.666 5.33464 21.6667H26.668C27.1098 21.666 27.5333 21.4901 27.8457 21.1777C28.1581 20.8653 28.3339 20.4418 28.3346 20V6.66667C28.3339 6.22486 28.1581 5.80134 27.8457 5.48893C27.5333 5.17653 27.1098 5.00071 26.668 5H5.33464Z" fill="currentColor"/>
<path d="M8.00303 28.9998C7.80537 28.9996 7.6122 28.9409 7.44792 28.831C7.28363 28.7211 7.15559 28.565 7.07998 28.3824C7.00436 28.1997 6.98456 27.9988 7.02307 27.8049C7.06159 27.6111 7.15669 27.433 7.29636 27.2931L12.6297 21.9598C12.8193 21.7832 13.07 21.687 13.3291 21.6916C13.5881 21.6961 13.8353 21.8011 14.0185 21.9843C14.2017 22.1675 14.3067 22.4147 14.3113 22.6738C14.3158 22.9328 14.2197 23.1836 14.043 23.3731L8.70969 28.7065C8.61719 28.7997 8.50709 28.8736 8.38578 28.924C8.26447 28.9744 8.13437 29.0001 8.00303 28.9998Z" fill="currentColor"/>
<path d="M24.0037 28.9998C23.8724 29.0001 23.7423 28.9744 23.621 28.924C23.4996 28.8736 23.3895 28.7997 23.297 28.7065L17.9637 23.3731C17.7871 23.1836 17.6909 22.9328 17.6955 22.6738C17.7 22.4147 17.805 22.1675 17.9882 21.9843C18.1714 21.8011 18.4186 21.6961 18.6777 21.6916C18.9367 21.687 19.1875 21.7832 19.377 21.9598L24.7104 27.2931C24.85 27.433 24.9451 27.6111 24.9837 27.8049C25.0222 27.9988 25.0024 28.1997 24.9268 28.3824C24.8511 28.565 24.7231 28.7211 24.5588 28.831C24.3945 28.9409 24.2014 28.9996 24.0037 28.9998Z" fill="currentColor"/>
<path d="M16 29.0003C15.7348 29.0003 15.4804 28.895 15.2929 28.7074C15.1054 28.5199 15 28.2655 15 28.0003V22.667C15 22.4018 15.1054 22.1474 15.2929 21.9599C15.4804 21.7723 15.7348 21.667 16 21.667C16.2652 21.667 16.5196 21.7723 16.7071 21.9599C16.8946 22.1474 17 22.4018 17 22.667V28.0003C17 28.2655 16.8946 28.5199 16.7071 28.7074C16.5196 28.895 16.2652 29.0003 16 29.0003Z" fill="currentColor"/>
<path d="M23.3346 19.667H8.66797C8.40275 19.667 8.1484 19.5616 7.96086 19.3741C7.77333 19.1866 7.66797 18.9322 7.66797 18.667C7.66797 18.4018 7.77333 18.1474 7.96086 17.9599C8.1484 17.7723 8.40275 17.667 8.66797 17.667H23.3346C23.5999 17.667 23.8542 17.7723 24.0417 17.9599C24.2293 18.1474 24.3346 18.4018 24.3346 18.667C24.3346 18.9322 24.2293 19.1866 24.0417 19.3741C23.8542 19.5616 23.5999 19.667 23.3346 19.667Z" fill="currentColor"/>
<path d="M16 19.6667C15.7348 19.6667 15.4804 19.5613 15.2929 19.3738C15.1054 19.1862 15 18.9319 15 18.6667V8C15 7.73478 15.1054 7.48043 15.2929 7.29289C15.4804 7.10536 15.7348 7 16 7C16.2652 7 16.5196 7.10536 16.7071 7.29289C16.8946 7.48043 17 7.73478 17 8V18.6667C17 18.9319 16.8946 19.1862 16.7071 19.3738C16.5196 19.5613 16.2652 19.6667 16 19.6667Z" fill="currentColor"/>
<path d="M21.3359 19.667C21.0707 19.667 20.8164 19.5616 20.6288 19.3741C20.4413 19.1866 20.3359 18.9322 20.3359 18.667V10.667C20.3359 10.4018 20.4413 10.1474 20.6288 9.95989C20.8164 9.77235 21.0707 9.66699 21.3359 9.66699C21.6012 9.66699 21.8555 9.77235 22.043 9.95989C22.2306 10.1474 22.3359 10.4018 22.3359 10.667V18.667C22.3359 18.9322 22.2306 19.1866 22.043 19.3741C21.8555 19.5616 21.6012 19.667 21.3359 19.667Z" fill="currentColor"/>
<path d="M10.668 19.667C10.4028 19.667 10.1484 19.5616 9.96086 19.3741C9.77333 19.1866 9.66797 18.9322 9.66797 18.667V10.667C9.66797 10.4018 9.77333 10.1474 9.96086 9.95989C10.1484 9.77235 10.4028 9.66699 10.668 9.66699C10.9332 9.66699 11.1875 9.77235 11.3751 9.95989C11.5626 10.1474 11.668 10.4018 11.668 10.667V18.667C11.668 18.9322 11.5626 19.1866 11.3751 19.3741C11.1875 19.5616 10.9332 19.667 10.668 19.667Z" fill="currentColor"/>
</svg>
