<svg width="32" height="32" viewBox="0 0 32 32" fill="none" xmlns="http://www.w3.org/2000/svg">
<g clip-path="url(#clip0_1_21078)">
<path d="M31.0625 30.125H28.25V19.6656C28.5292 19.6897 28.7986 19.5897 28.9935 19.3948L31.6449 16.7434C32.0096 16.3787 32.0112 15.7878 31.6484 15.4212L16.6664 0.278125C16.4904 0.100187 16.2504 0 16 0C15.7496 0 15.5096 0.100187 15.3336 0.278125L9.4375 6.23763V4.75C9.4375 4.23225 9.01775 3.8125 8.5 3.8125H4.75C4.23225 3.8125 3.8125 4.23225 3.8125 4.75V11.9231L0.351625 15.4213C-0.014 15.7908 -0.00893748 16.3879 0.362938 16.7512L3.07681 19.4026C3.27981 19.6009 3.55006 19.688 3.8125 19.6655V30.125H0.9375C0.41975 30.125 0 30.5448 0 31.0625C0 31.5802 0.41975 32 0.9375 32H31.0625C31.5802 32 32 31.5802 32 31.0625C32 30.5448 31.5802 30.125 31.0625 30.125ZM5.6875 5.6875H7.5625V8.13281L5.6875 10.028V5.6875ZM3.72425 17.4138L2.348 16.0693L16 2.2705L29.6596 16.0771L28.3289 17.4078C27.6007 16.6834 17.2625 6.3975 16.6612 5.79931C16.2949 5.43481 15.7026 5.43556 15.3371 5.801L3.72425 17.4138ZM26.375 30.125H5.6875V18.1022L16.0017 7.788L26.375 18.1087V30.125Z" fill="#030027"/>
<path d="M22.4408 17.4132C22.2744 17.1193 21.9627 16.9376 21.625 16.9376H16.9375V12.2501C16.9375 11.8288 16.6563 11.4591 16.2502 11.3466C15.8442 11.2341 15.4129 11.4064 15.1961 11.7678L9.57111 21.1428C9.39736 21.4324 9.39274 21.7931 9.55918 22.087C9.72561 22.3809 10.0372 22.5626 10.375 22.5626H15.0625V27.2501C15.0625 27.6715 15.3437 28.0411 15.7497 28.1536C16.156 28.2662 16.5872 28.0936 16.8039 27.7325L22.4289 18.3575C22.6027 18.0678 22.6072 17.7071 22.4408 17.4132ZM16.9375 23.8654V21.6251C16.9375 21.1074 16.5177 20.6876 16 20.6876H12.0308L15.0625 15.6348V17.8751C15.0625 18.3929 15.4822 18.8126 16 18.8126H19.9692L16.9375 23.8654Z" fill="#030027"/>
</g>
<defs>
<clipPath id="clip0_1_21078">
<rect width="32" height="32" fill="white"/>
</clipPath>
</defs>
</svg>
