<svg width="49" height="49" viewBox="0 0 49 49" fill="none" xmlns="http://www.w3.org/2000/svg">
<g clip-path="url(#clip0_1_33830)">
<mask id="mask0_1_33830" style="mask-type:luminance" maskUnits="userSpaceOnUse" x="0" y="0" width="49" height="49">
<path d="M0.5 0.5H48.2624V48.2624H0.5V0.5Z" fill="white"/>
</mask>
<g mask="url(#mask0_1_33830)">
<path d="M47.3601 35.4711L29.6842 17.7953L35.4508 12.0277C35.5844 11.8941 35.6595 11.7126 35.6595 11.5234C35.6595 11.3343 35.5844 11.1532 35.4508 11.0192L32.1427 7.71241C31.9844 7.55415 31.7591 7.47906 31.5391 7.51043L25.8741 8.30789C25.7211 8.32928 25.579 8.40009 25.4692 8.50987L22.9343 11.0448L20.8546 8.96611C20.5761 8.68761 20.1251 8.68761 19.8466 8.96611L15.5147 13.2994C15.2362 13.5779 15.2362 14.0289 15.5147 14.3074L17.5934 16.3857L11.8258 22.1533C11.6923 22.2868 11.6172 22.4684 11.6172 22.6575C11.6172 22.8467 11.6923 23.0277 11.8258 23.1618L17.5687 28.9037C17.708 29.0429 17.8905 29.1123 18.073 29.1123C18.2554 29.1123 18.4379 29.0429 18.5772 28.9037L24.3424 23.1375L42.0183 40.8124C42.1575 40.9517 42.34 41.0211 42.5225 41.0211C42.705 41.0211 42.8875 40.9517 43.0268 40.8124L47.3601 36.4791C47.6386 36.2006 47.6386 35.7496 47.3601 35.4711ZM17.0274 13.8037L20.3513 10.4783L21.9267 12.0533L18.6019 15.3781L17.0274 13.8037ZM18.0734 27.3915L13.3385 22.6575L26.3095 9.68658L31.3865 8.97229L33.9391 11.5234L28.1748 17.2886C28.1739 17.2896 28.1729 17.2896 28.1724 17.2901C28.172 17.2905 28.1715 17.292 28.1705 17.2924L18.0734 27.3915ZM42.5225 39.3007L25.3504 22.1295L28.6762 18.8033L45.8478 35.9754L42.5225 39.3007Z" fill="#FF6600" stroke="#FF6600"/>
<path d="M7.85001 26.5811C7.77634 26.1948 7.40423 25.9405 7.01642 26.0142L1.54061 27.0554C1.15424 27.1291 0.899977 27.5022 0.973641 27.889C1.03875 28.2307 1.33768 28.4688 1.67321 28.4688C1.7174 28.4688 1.76255 28.4645 1.80723 28.4565L7.28304 27.4152C7.66941 27.3411 7.9232 26.968 7.85001 26.5811Z" fill="#FF6600" stroke="#FF6600"/>
<path d="M10.37 30.842L6.43206 34.769C6.15357 35.047 6.15262 35.4985 6.43064 35.7775C6.56989 35.9172 6.75286 35.9866 6.93535 35.9866C7.11737 35.9866 7.29987 35.9172 7.43911 35.7784L11.377 31.8514C11.6555 31.5734 11.6565 31.1219 11.3784 30.843C11.1004 30.5649 10.6489 30.5635 10.37 30.842Z" fill="#FF6600" stroke="#FF6600"/>
<path d="M15.8765 33.5952C15.4854 33.5363 15.1242 33.8062 15.0667 34.1955L14.2735 39.5292C14.2155 39.9184 14.484 40.2815 14.8737 40.339C14.9094 40.3447 14.9445 40.3471 14.9797 40.3471C15.3266 40.3471 15.6313 40.0928 15.6836 39.7392L16.4767 34.4055C16.5342 34.0158 16.2657 33.6527 15.8765 33.5952Z" fill="#FF6600" stroke="#FF6600"/>
</g>
</g>
<defs>
<clipPath id="clip0_1_33830">
<rect width="48" height="48" fill="white" transform="translate(0.5 0.5)"/>
</clipPath>
</defs>
</svg>
