<svg width="44" height="44" viewBox="0 0 44 44" fill="none" xmlns="http://www.w3.org/2000/svg">
<g clip-path="url(#clip0_0_2582)">
<path d="M43.6866 20.3335L37.9858 15.1512C37.9782 15.1436 37.9705 15.1378 37.9647 15.1321L22.6434 1.20527C22.2799 0.874286 21.7213 0.874286 21.3559 1.20527L6.03452 15.134C6.0269 15.1416 6.01919 15.1454 6.01345 15.1531L0.312685 20.3354C-0.0775711 20.6912 -0.106266 21.2957 0.247672 21.688C0.605377 22.0801 1.21183 22.105 1.60021 21.7511L5.73995 17.9882V42.0864C5.73995 42.6144 6.1685 43.043 6.69649 43.043H37.3048C37.8328 43.043 38.2613 42.6144 38.2613 42.0864V17.9882L42.401 21.7511C42.5828 21.9175 42.8143 21.9998 43.0438 21.9998C43.304 21.9998 43.5622 21.8946 43.7516 21.686C44.1074 21.2938 44.0768 20.6894 43.6866 20.3335ZM36.3482 41.1299H7.65294V16.2492L22.0006 3.20623L36.3482 16.2492V41.1299Z" fill="#9FE870"/>
<path d="M19.1308 21.0432C19.1308 20.5152 18.7023 20.0867 18.1743 20.0867C17.6463 20.0867 17.2178 20.5152 17.2178 21.0432V25.8257H16.2612C15.7332 25.8257 15.3047 26.2543 15.3047 26.7823V30.6083C15.3047 34.3004 18.3081 37.3039 22.0003 37.3039C25.6925 37.3039 28.6959 34.3005 28.6959 30.6083V26.7823C28.6959 26.2543 28.2673 25.8257 27.7393 25.8257H26.7828V21.0432C26.7828 20.5152 26.3543 20.0867 25.8263 20.0867C25.2983 20.0867 24.8697 20.5152 24.8697 21.0432V25.8257H19.1307V21.0432H19.1308ZM26.7829 27.7388V30.6083C26.7829 33.2444 24.6365 35.3909 22.0004 35.3909C19.3643 35.3909 17.2179 33.2444 17.2179 30.6083V27.7388H26.7829Z" fill="#9FE870"/>
</g>
<defs>
<clipPath id="clip0_0_2582">
<rect width="44" height="44" fill="white"/>
</clipPath>
</defs>
</svg>
