<svg width="44" height="44" viewBox="0 0 44 44" fill="none" xmlns="http://www.w3.org/2000/svg">
<g clip-path="url(#clip0_0_2596)">
<path d="M21.9995 5.73913C22.5275 5.73913 22.9561 5.31058 22.9561 4.78258V0.956551C22.9561 0.428551 22.5275 0 21.9995 0C21.4715 0 21.043 0.428551 21.043 0.956551V4.78266C21.0431 5.31058 21.4715 5.73913 21.9995 5.73913Z" fill="#9FE870"/>
<path d="M21.9995 38.2607C21.4715 38.2607 21.043 38.6893 21.043 39.2173V43.0433C21.043 43.5713 21.4715 43.9999 21.9995 43.9999C22.5275 43.9999 22.9561 43.5713 22.9561 43.0433V39.2172C22.9561 38.6892 22.5275 38.2607 21.9995 38.2607Z" fill="#9FE870"/>
<path d="M43.0434 21.0435H39.2173C38.6893 21.0435 38.2607 21.472 38.2607 22C38.2607 22.528 38.6893 22.9565 39.2173 22.9565H43.0434C43.5714 22.9565 44 22.5279 44 21.9999C44 21.4719 43.5714 21.0435 43.0434 21.0435Z" fill="#9FE870"/>
<path d="M4.78258 21.0435H0.956551C0.428551 21.0435 0 21.4719 0 21.9999C0 22.5279 0.428551 22.9565 0.956551 22.9565H4.78266C5.31058 22.9565 5.73913 22.5279 5.73913 21.9999C5.73913 21.4719 5.31058 21.0435 4.78258 21.0435Z" fill="#9FE870"/>
<path d="M36.2062 6.44311L33.4973 9.1501C33.1243 9.52314 33.1243 10.1296 33.4973 10.5026C33.6848 10.6882 33.9296 10.782 34.1745 10.782C34.4194 10.782 34.6642 10.6883 34.8517 10.5026L37.5587 7.79566C37.9318 7.42262 37.9318 6.81616 37.5587 6.44311C37.1856 6.07007 36.5792 6.07007 36.2062 6.44311Z" fill="#9FE870"/>
<path d="M9.15205 33.4973L6.44507 36.2043C6.07202 36.5773 6.07202 37.1838 6.44507 37.5568C6.6306 37.7424 6.8755 37.8362 7.1204 37.8362C7.3653 37.8362 7.61011 37.7425 7.79762 37.5568L10.5046 34.8499C10.8776 34.4768 10.8776 33.8704 10.5046 33.4973C10.1315 33.1243 9.52509 33.1243 9.15205 33.4973Z" fill="#9FE870"/>
<path d="M34.8501 33.4973C34.4771 33.1243 33.8706 33.1243 33.4976 33.4973C33.1245 33.8704 33.1245 34.4768 33.4976 34.8499L36.2045 37.5568C36.392 37.7444 36.6369 37.8362 36.8818 37.8362C37.1267 37.8362 37.3715 37.7425 37.559 37.5568C37.932 37.1838 37.932 36.5773 37.559 36.2043L34.8501 33.4973Z" fill="#9FE870"/>
<path d="M9.1501 10.5026C9.33563 10.6881 9.58053 10.7819 9.82543 10.7819C10.0703 10.7819 10.3151 10.6882 10.5026 10.5026C10.8757 10.1295 10.8757 9.52305 10.5026 9.15001L7.79566 6.44311C7.42262 6.07007 6.81616 6.07007 6.44311 6.44311C6.07007 6.81616 6.07007 7.42262 6.44311 7.79566L9.1501 10.5026Z" fill="#9FE870"/>
<path d="M21.9999 7.6521C14.0875 7.6521 7.6521 14.0875 7.6521 21.9999C7.6521 29.9123 14.0875 36.3477 21.9999 36.3477C29.9123 36.3477 36.3477 29.9123 36.3477 21.9999C36.3477 14.0875 29.9123 7.6521 21.9999 7.6521ZM21.9999 34.4347C15.1435 34.4347 9.56511 28.8563 9.56511 21.9999C9.56511 15.1435 15.1435 9.56511 21.9999 9.56511C28.8563 9.56511 34.4347 15.1436 34.4347 21.9999C34.4347 28.8562 28.8563 34.4347 21.9999 34.4347Z" fill="#9FE870"/>
<path d="M25.8256 21.0435H20.0865L24.6778 14.9217C24.9954 14.4989 24.9093 13.9001 24.4865 13.5826C24.0638 13.2651 23.465 13.3492 23.1474 13.7739L17.4083 21.426C17.1902 21.7149 17.1558 22.1032 17.3184 22.4265C17.481 22.7518 17.8119 22.9564 18.1735 22.9564H23.9126L19.3213 29.0782C19.0038 29.501 19.0899 30.0997 19.5126 30.4173C19.6848 30.5454 19.8857 30.6085 20.0846 30.6085C20.3754 30.6085 20.6624 30.4765 20.8498 30.2259L26.5889 22.5738C26.807 22.2849 26.8415 21.8965 26.6789 21.5733C26.5182 21.2481 26.1872 21.0435 25.8256 21.0435Z" fill="#9FE870"/>
</g>
<defs>
<clipPath id="clip0_0_2596">
<rect width="44" height="44" fill="white"/>
</clipPath>
</defs>
</svg>
