<svg width="49" height="49" viewBox="0 0 49 49" fill="none" xmlns="http://www.w3.org/2000/svg">
<g clip-path="url(#clip0_1_33861)">
<path d="M24.6994 36.1236H9.7196V13.9795L22.4363 2.9176L34.8478 13.5261V27.4295C34.8478 27.823 35.1667 28.1423 35.5607 28.1423C35.9547 28.1423 36.2736 27.823 36.2736 27.4295V14.7446L40.9125 18.7096C41.047 18.8242 41.2114 18.8802 41.3754 18.8802C41.5764 18.8802 41.7765 18.7952 41.9176 18.6307C42.1738 18.3313 42.1381 17.8817 41.8387 17.6256L22.8954 1.43483C22.6264 1.20481 22.2305 1.20718 21.9644 1.43863L3.41687 17.5724C3.11984 17.8309 3.08847 18.2809 3.34701 18.578C3.60554 18.875 4.05513 18.9059 4.35263 18.6478L8.29386 15.2194V36.836C8.29386 37.2295 8.61275 37.5489 9.00673 37.5489H24.6994C25.0934 37.5489 25.4123 37.2295 25.4123 36.836C25.4123 36.4425 25.0934 36.1236 24.6994 36.1236Z" fill="#FF6600" stroke="#FF6600"/>
<path d="M44.4447 43.6492L28.1489 25.1463C28.348 23.2031 27.8324 21.6309 26.63 20.5949C25.1677 19.335 23.8232 19.5745 21.7891 19.9357C21.5225 19.9833 21.2402 20.0336 20.9389 20.084C20.1714 20.2128 19.5241 19.4562 18.8207 18.5295C18.3227 17.8732 17.8921 17.3071 17.2196 17.4839C16.5647 17.6569 16.4122 18.404 16.3205 19.0903C15.9151 22.1299 16.109 26.353 17.9876 28.2516C19.5246 29.8104 21.647 30.029 22.7164 30.029C22.848 30.029 22.9564 30.0252 23.0528 30.021L41.7305 46.3638C42.3089 46.9345 43.0261 47.2615 43.7 47.261H43.7161C44.1804 47.2577 44.5991 47.0895 44.8962 46.7872C45.6466 46.0221 45.447 44.6477 44.4447 43.6492ZM17.7139 19.4296C18.3925 20.3231 19.517 21.7688 21.1732 21.4903C21.4798 21.4394 21.7673 21.3881 22.0382 21.3401C24.0527 20.9813 24.796 20.8967 25.699 21.6756C26.5525 22.4113 26.8943 23.5486 26.7284 25.0503L22.9939 28.5957C22.3357 28.6242 20.3259 28.5924 19.0018 27.2503C17.6155 25.8478 17.3636 22.2473 17.7139 19.4296ZM27.3638 26.4124L28.8456 28.0948L26.1248 30.8146L24.3564 29.2672L27.3638 26.4124ZM43.8787 45.7882C43.8492 45.8177 43.7803 45.8324 43.7004 45.8348C43.4799 45.8348 43.0959 45.7075 42.7005 45.3197L27.2003 31.7556L29.7899 29.1669L43.391 44.6096C43.4025 44.6225 43.4143 44.6353 43.4267 44.6472C43.9152 45.1272 43.9979 45.6671 43.8787 45.7882Z" fill="#FF6600" stroke="#FF6600"/>
</g>
<defs>
<clipPath id="clip0_1_33861">
<rect width="48" height="48" fill="white" transform="translate(0.5 0.5)"/>
</clipPath>
</defs>
</svg>
