<svg width="40" height="40" viewBox="0 0 40 40" fill="none" xmlns="http://www.w3.org/2000/svg">
<g clip-path="url(#clip0_1_23996)">
<path d="M38.8281 18.8281C38.1809 18.8281 37.6562 19.3528 37.6562 20C37.6562 29.7357 29.7357 37.6562 20 37.6562C10.2643 37.6562 2.34375 29.7357 2.34375 20C2.34375 10.2643 10.2643 2.34375 20 2.34375C23.4863 2.34375 26.907 3.37141 29.7702 5.25797L29.1931 5.835C28.9059 6.12219 28.7879 6.53758 28.8812 6.93289C28.9746 7.3282 29.2659 7.64695 29.6512 7.77539L34.623 9.43266C35.0416 9.57234 35.5067 9.46516 35.8223 9.14953C36.1362 8.8357 36.2458 8.37141 36.1054 7.95031L34.4481 2.97844C34.3196 2.59313 34.0009 2.3018 33.6056 2.20852C33.2105 2.11523 32.795 2.2332 32.5077 2.52039L31.4577 3.57039C28.1346 1.26211 24.1061 0 20 0C8.98758 0 0 8.98828 0 20C0 31.0124 8.98828 40 20 40C31.0124 40 40 31.0118 40 20C40 19.3528 39.4753 18.8281 38.8281 18.8281ZM32.8242 5.51852L33.1408 6.46805L32.1912 6.15156L32.8242 5.51852ZM5.85938 20C5.85938 27.7634 12.2384 34.1406 20 34.1406C27.7634 34.1406 34.1406 27.7617 34.1406 20C34.1406 12.2367 27.7617 5.85938 20 5.85938C12.2366 5.85938 5.85938 12.2384 5.85938 20ZM21.1719 9.375V8.26125C26.743 8.8132 31.1868 13.257 31.7388 18.8281H30.625C29.9778 18.8281 29.4531 19.3528 29.4531 20C29.4531 20.6472 29.9778 21.1711 30.625 21.1711H31.7388C31.1868 26.7423 26.743 31.1868 21.1719 31.7388V30.625C21.1719 29.9778 20.6472 29.4531 20 29.4531C19.3528 29.4531 18.8281 29.9778 18.8281 30.625V31.7388C13.257 31.1868 8.8132 26.743 8.26125 21.1719H9.375C10.0222 21.1719 10.5469 20.6472 10.5469 20C10.5469 19.3528 10.0222 18.8281 9.375 18.8281H8.26125C8.8132 13.257 13.257 8.8132 18.8281 8.26125V9.375C18.8281 10.0222 19.3528 10.5469 20 10.5469C20.6472 10.5469 21.1719 10.0222 21.1719 9.375ZM18.8281 14.0625V20C18.8281 20.6472 19.3528 21.1719 20 21.1719H24.6875C25.3347 21.1719 25.8594 20.6472 25.8594 20C25.8594 19.3528 25.3347 18.8281 24.6875 18.8281H21.1719V14.0625C21.1719 13.4153 20.6472 12.8906 20 12.8906C19.3528 12.8906 18.8281 13.4153 18.8281 14.0625Z" fill="currentColor"/>
</g>
<defs>
<clipPath id="clip0_1_23996">
<rect width="40" height="40" fill="currentColor"/>
</clipPath>
</defs>
</svg>
