<svg width="48" height="48" viewBox="0 0 48 48" fill="none" xmlns="http://www.w3.org/2000/svg">
<g clip-path="url(#clip0_1_28189)">
<path d="M44.9531 33.15V30.5531C44.9531 20.9719 38.4938 12.675 29.25 10.2844L28.8938 8.64375C28.6031 7.30312 27.4031 6.32812 26.025 6.32812H21.9656C20.5969 6.32812 19.3875 7.30312 19.0969 8.64375L18.7406 10.275C9.5625 12.6469 3.04688 20.9344 3.04688 30.5531V33.1594C1.28438 33.7125 0 35.3625 0 37.3125C0 39.7219 1.95937 41.6719 4.35938 41.6719H43.6406C46.05 41.6719 48 39.7125 48 37.3125C48 35.3625 46.7156 33.7125 44.9531 33.15ZM5.00625 30.5531C5.00625 25.6125 6.90937 20.9344 10.2844 17.4188V26.1188C10.2844 26.6625 10.725 27.0938 11.2594 27.0938C11.7937 27.0938 12.2344 26.6531 12.2344 26.1188V15.6469C14.0437 14.2219 16.0875 13.1437 18.2719 12.4594L16.4437 20.9531C16.3312 21.4781 16.6687 22.0031 17.1937 22.1156C17.7188 22.2281 18.2437 21.8906 18.3563 21.3656L21.0094 9.05625C21.1031 8.60625 21.5063 8.2875 21.9562 8.2875H26.0156C26.4656 8.2875 26.8688 8.60625 26.9625 9.05625L29.6156 21.3656C29.7281 21.8906 30.2531 22.2281 30.7781 22.1156C31.3031 22.0031 31.6406 21.4781 31.5281 20.9531L29.7 12.45C31.8844 13.1344 33.9281 14.2219 35.7375 15.6469V26.1094C35.7375 26.6531 36.1781 27.0844 36.7125 27.0844C37.2469 27.0844 37.6875 26.6437 37.6875 26.1094V17.4094C41.0625 20.925 42.9656 25.6031 42.9656 30.5437V32.9344H5.00625V30.5531ZM43.6406 39.7125H4.35938C3.0375 39.7125 1.95937 38.6344 1.95937 37.3125C1.95937 35.9906 3.0375 34.9125 4.35938 34.9125H43.6406C44.9625 34.9125 46.0406 35.9906 46.0406 37.3125C46.0406 38.6344 44.9625 39.7125 43.6406 39.7125Z" fill="#FF6600"/>
</g>
<defs>
<clipPath id="clip0_1_28189">
<rect width="48" height="48" fill="white"/>
</clipPath>
</defs>
</svg>
