<svg width="64" height="64" viewBox="0 0 64 64" fill="none" xmlns="http://www.w3.org/2000/svg">
<path d="M55.4696 44.6281H52.022C51.6067 44.6281 51.2569 44.3187 51.2062 43.9066L49.0411 26.2222C49.0129 25.9886 49.086 25.754 49.2414 25.5778C49.3974 25.4016 49.6214 25.3008 49.8569 25.3008H57.6347C57.8703 25.3008 58.0943 25.4016 58.2503 25.5778C58.4056 25.754 58.4788 25.9886 58.4506 26.2222L56.2855 43.9066C56.2348 44.3187 55.8849 44.6281 55.4696 44.6281ZM52.7493 42.9849H54.7424L56.7066 26.944H50.7851L52.7493 42.9849Z" fill="#FF6600"/>
<path d="M54.8823 48.4899H52.6107C51.0246 48.4899 49.7344 47.1997 49.7344 45.6136C49.7344 44.0275 51.0246 42.7373 52.6107 42.7373H54.8823C56.4685 42.7373 57.7587 44.0275 57.7587 45.6136C57.7587 47.1997 56.4685 48.4899 54.8823 48.4899ZM52.6107 44.3805C51.9309 44.3805 51.3776 44.9339 51.3776 45.6136C51.3776 46.2934 51.9309 46.8467 52.6107 46.8467H54.8823C55.5621 46.8467 56.1154 46.2934 56.1154 45.6136C56.1154 44.9339 55.5621 44.3805 54.8823 44.3805H52.6107Z" fill="#FF6600"/>
<path d="M53.744 56.9841C51.6752 56.9841 49.9922 55.301 49.9922 53.2322C49.9922 52.7784 50.36 52.4106 50.8138 52.4106C51.2676 52.4106 51.6354 52.7784 51.6354 53.2322C51.6354 54.3947 52.5816 55.3408 53.744 55.3408C54.9071 55.3408 55.8533 54.3947 55.8533 53.2322C55.8533 52.0697 54.9071 51.1236 53.744 51.1236C53.2902 51.1236 52.9224 50.7558 52.9224 50.302V47.6683C52.9224 47.2145 53.2902 46.8467 53.744 46.8467C54.1979 46.8467 54.5657 47.2145 54.5657 47.6683V49.5709C56.241 49.9464 57.4965 51.4458 57.4965 53.2322C57.4965 55.301 55.8129 56.9841 53.744 56.9841Z" fill="#FF6600"/>
<path d="M31.4021 19.0711C30.9958 19.0711 30.6421 18.7694 30.5888 18.3554L28.7761 4.40008H26.7613L24.9486 18.3554C24.8908 18.8054 24.4761 19.1193 24.0281 19.0644C23.5781 19.006 23.261 18.5936 23.3194 18.1436L25.2252 3.47254C25.2785 3.06334 25.627 2.75684 26.0398 2.75684H29.4976C29.9104 2.75684 30.2589 3.06334 30.3122 3.47254L32.218 18.1436C32.2764 18.5936 31.9593 19.006 31.5093 19.0644C31.4734 19.0689 31.4374 19.0711 31.4021 19.0711Z" fill="#FF6600"/>
<path d="M32.2378 61.2433H23.2982C22.8444 61.2433 22.4766 60.8755 22.4766 60.4217V30.7249C22.4766 30.2711 22.8444 29.9033 23.2982 29.9033C23.752 29.9033 24.1198 30.2711 24.1198 30.7249V59.6001H31.4162V30.7249C31.4162 30.2711 31.784 29.9033 32.2378 29.9033C32.6916 29.9033 33.0594 30.2711 33.0594 30.7249V60.4217C33.0594 60.8755 32.6916 61.2433 32.2378 61.2433Z" fill="#FF6600"/>
<path d="M12.7474 31.088H5.04338C3.14531 31.088 1.60156 29.5443 1.60156 27.6465V16.7276C1.60156 14.8299 3.14531 13.2861 5.04338 13.2861H12.7474C14.6454 13.2861 16.1892 14.8299 16.1892 16.7276V27.6465C16.1892 29.5443 14.6454 31.088 12.7474 31.088ZM5.04338 14.9294C4.05166 14.9294 3.2448 15.7359 3.2448 16.7276V27.6465C3.2448 28.6382 4.05166 29.4448 5.04338 29.4448H12.7474C13.7391 29.4448 14.5459 28.6382 14.5459 27.6465V16.7276C14.5459 15.7359 13.7391 14.9294 12.7474 14.9294H5.04338Z" fill="#FF6600"/>
<path d="M55.2688 19.0734C55.1307 19.0734 54.9915 19.0387 54.8631 18.9658L29.0912 4.29511C28.6964 4.07045 28.559 3.56881 28.7837 3.17469C29.0077 2.7796 29.5097 2.64288 29.9038 2.8669L55.6757 17.5376C56.0705 17.7623 56.2078 18.2639 55.9832 18.6581C55.8317 18.9241 55.5544 19.0734 55.2688 19.0734Z" fill="#FF6600"/>
<path d="M8.89674 14.588C8.61623 14.588 8.34343 14.4445 8.19002 14.1861C7.95765 13.7959 8.08603 13.2917 8.4763 13.0599L25.6199 2.87442C26.0089 2.64334 26.5141 2.77075 26.7458 3.16102C26.9782 3.55129 26.8498 4.0555 26.4595 4.28722L9.31589 14.4727C9.1843 14.5507 9.03988 14.588 8.89674 14.588Z" fill="#FF6600"/>
<path d="M23.2982 34.4187C23.0876 34.4187 22.8777 34.3385 22.7173 34.178C22.3963 33.857 22.3963 33.3371 22.7173 33.0162L25.5897 30.144C25.9107 29.8231 26.4306 29.8231 26.7516 30.144C27.0725 30.465 27.0725 30.9852 26.7516 31.3059L23.8791 34.178C23.7186 34.3385 23.5087 34.4187 23.2982 34.4187Z" fill="#FF6600"/>
<path d="M32.237 34.4187C32.0265 34.4187 31.8166 34.3385 31.6561 34.178L28.7837 31.3059C28.4627 30.9852 28.4627 30.465 28.7837 30.144C29.1046 29.8231 29.6246 29.8231 29.9455 30.144L32.818 33.0162C33.1389 33.3371 33.1389 33.857 32.818 34.178C32.6575 34.3385 32.4476 34.4187 32.237 34.4187Z" fill="#FF6600"/>
<path d="M23.2982 43.3595C23.0876 43.3595 22.8777 43.2793 22.7173 43.1188C22.3963 42.7979 22.3963 42.2779 22.7173 41.957L31.6588 33.0161C31.9798 32.6952 32.4997 32.6952 32.8206 33.0161C33.1416 33.337 33.1416 33.857 32.8206 34.1779L23.8791 43.1188C23.7186 43.2793 23.5087 43.3595 23.2982 43.3595Z" fill="#FF6600"/>
<path d="M32.2397 43.3595C32.0292 43.3595 31.8193 43.2793 31.6588 43.1188L22.7173 34.1779C22.3963 33.857 22.3963 33.337 22.7173 33.0161C23.0382 32.6952 23.5581 32.6952 23.8791 33.0161L32.8206 41.957C33.1416 42.2779 33.1416 42.7979 32.8206 43.1188C32.6602 43.2793 32.4503 43.3595 32.2397 43.3595Z" fill="#FF6600"/>
<path d="M23.2982 52.3006C23.0876 52.3006 22.8777 52.2204 22.7173 52.0599C22.3963 51.7389 22.3963 51.219 22.7173 50.8981L31.6588 41.9565C31.9798 41.6356 32.4997 41.6356 32.8206 41.9565C33.1416 42.2775 33.1416 42.7974 32.8206 43.1184L23.8791 52.0599C23.7186 52.2204 23.5087 52.3006 23.2982 52.3006Z" fill="#FF6600"/>
<path d="M32.2397 52.3006C32.0292 52.3006 31.8193 52.2204 31.6588 52.0599L22.7173 43.1184C22.3963 42.7974 22.3963 42.2775 22.7173 41.9565C23.0382 41.6356 23.5581 41.6356 23.8791 41.9565L32.8206 50.8981C33.1416 51.219 33.1416 51.7389 32.8206 52.0599C32.6602 52.2204 32.4503 52.3006 32.2397 52.3006Z" fill="#FF6600"/>
<path d="M23.2982 61.2409C23.0876 61.2409 22.8777 61.1606 22.7173 61.0002C22.3963 60.6792 22.3963 60.1593 22.7173 59.8383L31.6588 50.8974C31.9798 50.5765 32.4997 50.5765 32.8206 50.8974C33.1416 51.2184 33.1416 51.7383 32.8206 52.0593L23.8791 61.0002C23.7186 61.1606 23.5087 61.2409 23.2982 61.2409Z" fill="#FF6600"/>
<path d="M32.2397 61.2409C32.0292 61.2409 31.8193 61.1606 31.6588 61.0002L22.7173 52.0593C22.3963 51.7383 22.3963 51.2184 22.7173 50.8974C23.0382 50.5765 23.5581 50.5765 23.8791 50.8974L32.8206 59.8383C33.1416 60.1593 33.1416 60.6792 32.8206 61.0002C32.6602 61.1606 32.4503 61.2409 32.2397 61.2409Z" fill="#FF6600"/>
<path d="M61.5808 26.944H15.3685C14.9147 26.944 14.5469 26.5762 14.5469 26.1223V18.2518C14.5469 17.798 14.9147 17.4302 15.3685 17.4302H55.271C55.52 17.4302 55.7563 17.5435 55.9122 17.738L62.222 25.6085C62.4197 25.855 62.4582 26.1929 62.3215 26.4779C62.1848 26.7626 61.8966 26.944 61.5808 26.944ZM16.1901 25.3007H59.8689L54.8769 19.0734H16.1901V25.3007Z" fill="#FF6600"/>
<path d="M11.3657 20.7013H6.42318C5.96937 20.7013 5.60156 20.3335 5.60156 19.8797C5.60156 19.4259 5.96937 19.0581 6.42318 19.0581H11.3657C11.8196 19.0581 12.1874 19.4259 12.1874 19.8797C12.1874 20.3335 11.8196 20.7013 11.3657 20.7013Z" fill="#FF6600"/>
<path d="M11.3657 25.3156H6.42318C5.96937 25.3156 5.60156 24.9478 5.60156 24.494C5.60156 24.0402 5.96937 23.6724 6.42318 23.6724H11.3657C11.8196 23.6724 12.1874 24.0402 12.1874 24.494C12.1874 24.9478 11.8196 25.3156 11.3657 25.3156Z" fill="#FF6600"/>
<path d="M56.1637 61.2409H12.2552C11.8014 61.2409 11.4336 60.8731 11.4336 60.4193C11.4336 59.9655 11.8014 59.5977 12.2552 59.5977H56.1637C56.6176 59.5977 56.9854 59.9655 56.9854 60.4193C56.9854 60.8731 56.6176 61.2409 56.1637 61.2409Z" fill="#FF6600"/>
</svg>
