<svg width="87" height="96" viewBox="0 0 87 96" fill="none" xmlns="http://www.w3.org/2000/svg">
<path d="M85.7032 21.1317C85.688 21.1317 85.6749 21.1339 85.6596 21.1361L70.0215 13.2354C69.8535 13.149 69.6527 13.149 69.4824 13.2354L59.7111 18.1728V8.64363C59.7111 8.59395 59.7024 8.5486 59.6915 8.50108C59.6893 8.48812 59.6827 8.47516 59.6806 8.46436C59.6696 8.42764 59.6544 8.39309 59.6347 8.36069C59.6304 8.35205 59.626 8.34125 59.6194 8.33261C59.5933 8.29158 59.5627 8.25486 59.5278 8.22246C59.5212 8.21598 59.5147 8.21166 59.5081 8.20518C59.4776 8.17711 59.4427 8.15551 59.4056 8.13391C59.399 8.12959 59.3946 8.12527 59.3881 8.12095L43.4423 0.0647948C43.2742 -0.0215983 43.0734 -0.0215983 42.9032 0.0647948L26.9989 8.09935C26.9989 8.09935 26.9836 8.10799 26.9749 8.11231L26.9552 8.12311C26.9552 8.12311 26.953 8.12311 26.9509 8.12527C26.905 8.14903 26.8614 8.17927 26.8243 8.21382L26.8199 8.21814C26.785 8.2527 26.7522 8.28942 26.7261 8.33045C26.7195 8.34125 26.713 8.35205 26.7064 8.36501C26.6911 8.39309 26.678 8.42333 26.6671 8.45572C26.6606 8.473 26.654 8.49028 26.6497 8.50972C26.6431 8.53996 26.6388 8.57019 26.6366 8.60259C26.6366 8.61771 26.63 8.63283 26.63 8.65011C26.63 8.65443 26.63 8.66091 26.6322 8.66523V18.1749L16.8587 13.2376C16.6906 13.1512 16.4898 13.1512 16.3196 13.2376L0.683724 21.1361C0.670629 21.1361 0.655351 21.1317 0.642256 21.1317C0.314871 21.1317 0.0507812 21.3931 0.0507812 21.7171V74.2484C0.0507812 74.4708 0.17737 74.6717 0.378166 74.771L16.3261 82.6739C16.4069 82.7149 16.4942 82.7387 16.5902 82.7387C16.695 82.7387 16.791 82.7106 16.8762 82.6631L26.6322 77.8315V87.514C26.6322 87.7365 26.7588 87.9374 26.9596 88.0367L42.9098 95.9395C42.9098 95.9395 42.9207 95.9417 42.925 95.9438C42.9534 95.9568 42.9818 95.9676 43.0123 95.9762C43.0232 95.9784 43.0342 95.9849 43.0451 95.987C43.0865 95.9957 43.1302 96.0022 43.1738 96.0022C43.2175 96.0022 43.2611 95.9957 43.3026 95.987C43.3135 95.9849 43.3244 95.9806 43.3375 95.9762C43.3681 95.9676 43.3965 95.959 43.4248 95.946C43.4292 95.9438 43.4357 95.9438 43.4401 95.9417L59.3881 88.0389C59.5889 87.9395 59.7155 87.7365 59.7155 87.5162V77.8337L69.4955 82.6782C69.4955 82.6782 69.5043 82.6803 69.5108 82.6825C69.5392 82.6955 69.5697 82.7063 69.5981 82.7149C69.609 82.7171 69.6199 82.7235 69.6309 82.7257C69.6723 82.7343 69.716 82.7408 69.7596 82.7408C69.8033 82.7408 69.8469 82.7343 69.8884 82.7257C69.9015 82.7235 69.9124 82.7192 69.9233 82.7149C69.9539 82.7063 69.9823 82.6976 70.0084 82.6847C70.0128 82.6825 70.0194 82.6825 70.0237 82.6782L85.9717 74.7754C86.1725 74.676 86.2991 74.473 86.2991 74.2527V21.7171C86.2991 21.3931 86.035 21.1317 85.7076 21.1317H85.7032ZM69.7531 14.4147L84.3806 21.8056L69.7531 28.9114L55.1256 21.8056L69.7531 14.4147ZM53.8466 21.1361C53.8335 21.1361 53.8204 21.1317 53.8073 21.1317C53.4799 21.1317 53.2158 21.3931 53.2158 21.7171V21.7927C53.2158 21.7927 53.2114 21.8099 53.2114 21.8186C53.2114 21.8272 53.2136 21.8337 53.2158 21.8423V31.3456L43.7631 26.5702V16.7559L58.5282 9.58315V18.7711L53.8466 21.1361ZM43.1717 42.0799L28.5441 34.9741L43.1717 27.5832L57.7992 34.9741L43.1717 42.0799ZM43.1717 1.2419L57.7992 8.63283L43.1717 15.7387L28.5441 8.63283L43.1717 1.24406V1.2419ZM27.8173 9.58315L42.5824 16.7538V26.568L33.1297 31.3434V21.8337C33.1297 21.8337 33.1319 21.8229 33.1319 21.8186C33.1319 21.8121 33.1319 21.8078 33.1297 21.8013V21.7171C33.1297 21.3931 32.8656 21.1317 32.5382 21.1317C32.5251 21.1317 32.512 21.1339 32.4989 21.1361L27.8173 18.7711V9.58315ZM16.5902 14.4125L31.2178 21.8035L16.5902 28.9093L1.96489 21.8035L16.5924 14.4125H16.5902ZM1.23373 22.7538L15.9988 29.9266V81.203L1.23373 73.8877V22.7538ZM17.1817 81.203V29.9266L31.9467 22.7559V31.9417L26.9552 34.4644C26.9552 34.4644 26.9443 34.473 26.9378 34.4773C26.9007 34.4968 26.8679 34.5205 26.8374 34.5464C26.8308 34.5529 26.8221 34.5572 26.8155 34.5637C26.7806 34.5961 26.7501 34.6328 26.7261 34.6739C26.7195 34.6825 26.7151 34.6933 26.7108 34.7019C26.6933 34.7343 26.678 34.7689 26.6649 34.8056C26.6606 34.8186 26.6562 34.8294 26.654 34.8423C26.6431 34.8877 26.6344 34.9352 26.6344 34.9849V76.5227L17.1839 81.203H17.1817ZM27.8152 76.8769C27.8152 76.8639 27.8152 76.851 27.8152 76.838V35.9244L42.5824 43.0972V94.4687L27.8152 87.1533V76.879V76.8769ZM43.7653 94.4665V43.0972L58.5303 35.9244V87.1512L43.7653 94.4665ZM59.7133 34.9849C59.7133 34.9352 59.7046 34.8898 59.6937 34.8423C59.6915 34.8294 59.6849 34.8164 59.6827 34.8056C59.6718 34.7689 59.6566 34.7343 59.6369 34.7019C59.6325 34.6933 59.6282 34.6825 59.6216 34.6739C59.5954 34.6328 59.5649 34.5961 59.53 34.5637C59.5234 34.5572 59.5169 34.5529 59.5103 34.5464C59.4798 34.5184 59.4448 34.4968 59.4077 34.4752C59.4012 34.4708 59.3968 34.4665 59.3903 34.4622L54.4009 31.9417V22.7538L69.1616 29.9244L69.166 81.2009L59.7133 76.5184V34.9849ZM70.3489 81.203L70.3446 29.9266L85.1118 22.7538V73.8877L70.3467 81.203H70.3489Z" fill="#FF6600"/>
</svg>
