<svg width="32" height="32" viewBox="0 0 32 32" fill="none" xmlns="http://www.w3.org/2000/svg">
<g clip-path="url(#clip0_1_21096)">
<path d="M2.875 15.125H0.9375C0.41975 15.125 0 15.5447 0 16.0625C0 16.5803 0.41975 17 0.9375 17H2.875C3.39275 17 3.8125 16.5803 3.8125 16.0625C3.8125 15.5447 3.39275 15.125 2.875 15.125Z" fill="#030027"/>
<path d="M31.0625 15.125H29.125C28.6072 15.125 28.1875 15.5447 28.1875 16.0625C28.1875 16.5803 28.6072 17 29.125 17H31.0625C31.5803 17 32 16.5803 32 16.0625C32 15.5447 31.5803 15.125 31.0625 15.125Z" fill="#030027"/>
<path d="M5.44558 22.1564C5.18671 21.708 4.61333 21.5544 4.16496 21.8133L2.54115 22.7508C2.09277 23.0096 1.93915 23.583 2.19802 24.0314C2.45702 24.48 3.03052 24.6333 3.47865 24.3745L5.10246 23.437C5.55083 23.1781 5.70446 22.6048 5.44558 22.1564Z" fill="#030027"/>
<path d="M29.803 8.09391C29.544 7.64541 28.9708 7.49191 28.5224 7.75078L26.8986 8.68828C26.4502 8.94716 26.2965 9.52053 26.5555 9.96891C26.8144 10.4173 27.3877 10.5709 27.8361 10.312L29.4599 9.37453C29.9083 9.11566 30.0619 8.54228 29.803 8.09391Z" fill="#030027"/>
<path d="M23.9689 2.26003C23.5204 2.00116 22.9471 2.15478 22.6883 2.60316L21.7508 4.22697C21.4919 4.67534 21.6455 5.24872 22.0939 5.5076C22.5422 5.76641 23.1156 5.61297 23.3745 5.16447L24.312 3.54066C24.571 3.09228 24.4174 2.51891 23.9689 2.26003Z" fill="#030027"/>
<path d="M29.4599 22.7508L27.8361 21.8133C27.3876 21.5544 26.8144 21.708 26.5555 22.1564C26.2965 22.6048 26.4502 23.1782 26.8986 23.437L28.5224 24.3745C28.9704 24.6333 29.5439 24.4801 29.803 24.0314C30.0619 23.583 29.9083 23.0097 29.4599 22.7508Z" fill="#030027"/>
<path d="M5.10246 8.68828L3.47865 7.75078C3.03021 7.49184 2.45683 7.64553 2.19802 8.09391C1.93915 8.54234 2.09277 9.11566 2.54115 9.37453L4.16496 10.312C4.6134 10.5709 5.18677 10.4172 5.44558 9.96891C5.70446 9.52047 5.55083 8.94716 5.10246 8.68828Z" fill="#030027"/>
<path d="M10.2495 4.227L9.312 2.60318C9.05313 2.15481 8.47969 2.00112 8.03138 2.26006C7.583 2.51893 7.42938 3.09231 7.68825 3.54068L8.62575 5.1645C8.88475 5.61306 9.45819 5.76637 9.90638 5.50762C10.3548 5.24875 10.5084 4.67537 10.2495 4.227Z" fill="#030027"/>
<path d="M16 0C15.4822 0 15.0625 0.41975 15.0625 0.9375V2.9375C15.0625 3.45525 15.4822 3.875 16 3.875C16.5178 3.875 16.9375 3.45525 16.9375 2.9375V0.9375C16.9375 0.41975 16.5178 0 16 0Z" fill="#030027"/>
<path d="M16.0628 5.75122C10.8075 5.71597 6.7134 9.50385 5.86415 14.1409C5.27153 17.3767 6.20234 20.6083 8.41803 23.0071C9.07565 23.7191 9.43778 24.5822 9.43778 25.4375C9.43778 26.6597 10.2216 27.7017 11.3128 28.0887V29.1875C11.3128 30.7383 12.5745 32 14.1253 32H17.8753C19.4261 32 20.6878 30.7383 20.6878 29.1875V28.0887C21.779 27.7015 22.5628 26.6588 22.5628 25.4338C22.5628 24.5778 22.9194 23.722 23.5669 23.024C25.3376 21.1153 26.3128 18.643 26.3128 16.0625C26.3128 10.33 21.6788 5.78891 16.0628 5.75122ZM18.8128 29.1875C18.8128 29.7044 18.3922 30.125 17.8753 30.125H14.1253C13.6083 30.125 13.1878 29.7044 13.1878 29.1875V28.25H18.8128V29.1875ZM22.1923 21.7488C21.2221 22.7946 20.6878 24.1033 20.6878 25.4375C20.6878 25.9544 20.2672 26.375 19.7503 26.375H16.9378V21.9713L20.5303 16.5825C20.5303 16.5824 20.5305 16.5822 20.5305 16.5821C20.774 16.2173 20.7332 15.7194 20.4136 15.4001C20.4134 15.3999 20.4133 15.3998 20.4131 15.3996L18.5381 13.5246C18.1721 13.1585 17.5785 13.1585 17.2123 13.5246L16.0003 14.7367L14.7882 13.5245C14.4221 13.1584 13.8285 13.1584 13.4623 13.5245L11.5873 15.3995C11.5872 15.3997 11.587 15.3999 11.5868 15.4001C11.2672 15.7196 11.2265 16.2171 11.4697 16.5818C11.4698 16.582 11.47 16.5823 11.4702 16.5825L15.0628 21.9713V26.375H12.2503C11.7333 26.375 11.3128 25.9544 11.3128 25.4375C11.3128 24.1093 10.7739 22.7943 9.7954 21.735C7.98378 19.7735 7.22309 17.1287 7.70846 14.4787C8.39271 10.7425 11.6704 7.62853 15.9797 7.62853C20.697 7.62853 24.4378 11.424 24.4378 16.0625C24.4378 18.1685 23.6403 20.188 22.1923 21.7488ZM16.0003 19.9973L13.4567 16.1819L14.1253 15.5133L15.3374 16.7254C15.7035 17.0915 16.2971 17.0915 16.6632 16.7254L17.8753 15.5133L18.5439 16.1819L16.0003 19.9973Z" fill="#030027"/>
</g>
<defs>
<clipPath id="clip0_1_21096">
<rect width="32" height="32" fill="white"/>
</clipPath>
</defs>
</svg>
