<svg width="64" height="64" viewBox="0 0 64 64" fill="none" xmlns="http://www.w3.org/2000/svg">
<path d="M63.0624 13.7386L50.2624 0.937625C49.6629 0.337125 48.8491 0 48 0H3.2C1.4325 0 0 1.4325 0 3.2V60.8C0 62.5675 1.4325 64 3.2 64H60.8C62.5675 64 64 62.5675 64 60.8V16.0011C64 15.1531 63.6629 14.3392 63.0624 13.7386ZM49.6 4.8L59.1989 14.4H49.6V4.8ZM16 24.3605L28.32 12.0394L47.3205 31.041H43.52V51.2H34.4011V36C34.4011 34.5003 33.1797 33.2811 31.68 33.2811H24.9611C23.4614 33.2811 22.239 34.5004 22.239 36V51.2H16V24.3605ZM31.1989 36.48V51.2H25.4431V36.48H31.1989ZM12.8 60.8H3.2V3.2H12.8V60.8ZM60.8 60.8H16V54.4H44.0011C45.4976 54.4 46.72 53.1797 46.72 51.68V34.2411H48.4789C49.585 34.2411 50.5728 33.5819 50.9909 32.5633C51.4132 31.5414 51.1818 30.3776 50.4031 29.5979L30.2454 9.43787C29.2139 8.40963 27.4261 8.40963 26.3958 9.43787L16 19.8325V3.2H46.4V14.4C46.4 16.1675 47.8325 17.6 49.6 17.6H60.8V60.8Z" fill="#030027"/>
</svg>
