<svg width="64" height="64" viewBox="0 0 64 64" fill="none" xmlns="http://www.w3.org/2000/svg">
<path d="M59.5637 42.9021L63.0622 39.4035C64.3123 38.1534 64.3123 36.1279 63.0622 34.8778L29.1216 0.936972C28.4966 0.312983 27.6774 0.000488281 26.8581 0.000488281C26.0389 0.000488281 25.2198 0.312983 24.5958 0.938097L15.5453 9.98844C14.2952 11.2385 14.2952 13.2641 15.5453 14.5142L49.4861 48.455C50.1111 49.0801 50.9303 49.3926 51.7484 49.3926C52.5665 49.3926 53.3868 49.0801 54.0108 48.455L57.3013 45.1644L60.1365 47.9996L48.7991 59.3369L26.7313 37.2691C26.1061 36.6441 25.0939 36.6441 24.4689 37.2691L17.9079 43.8301L16.7762 42.6984C16.1511 42.0732 15.332 41.7608 14.5138 41.7608C13.6957 41.7608 12.8755 42.0732 12.2515 42.6984L0.937577 54.0112C-0.312526 55.2613 -0.312526 57.2869 0.937577 58.537L5.46337 63.0628C6.08736 63.6867 6.9066 63.9992 7.72571 63.9992C8.54482 63.9992 9.36405 63.6867 9.98804 63.0616L21.302 51.7477C22.5521 50.4976 22.5521 48.472 21.302 47.2219L20.1702 46.0902L25.5995 40.6609L47.6674 62.7288C47.9799 63.0413 48.3895 63.197 48.7991 63.197C49.2087 63.197 49.6184 63.0413 49.9308 62.7288L63.5306 49.129C64.1556 48.5039 64.1556 47.4917 63.5306 46.8667L59.5637 42.9021ZM51.7484 46.1916L17.8077 12.2509L26.8581 3.20043L60.7989 37.1411L51.7484 46.1916ZM7.72571 60.7993L3.19991 56.2735L14.5138 44.9596L19.0396 49.4854L7.72571 60.7993Z" fill="#030027"/>
</svg>
