<svg width="32" height="32" viewBox="0 0 32 32" fill="none" xmlns="http://www.w3.org/2000/svg">
<path d="M18.6667 21H13.3333C12.7147 20.9993 12.1216 20.7532 11.6842 20.3158C11.2468 19.8784 11.0007 19.2853 11 18.6667V16C11 15.7348 11.1054 15.4804 11.2929 15.2929C11.4804 15.1054 11.7348 15 12 15H20C20.2652 15 20.5196 15.1054 20.7071 15.2929C20.8946 15.4804 21 15.7348 21 16V18.6667C20.9993 19.2853 20.7532 19.8784 20.3158 20.3158C19.8784 20.7532 19.2853 20.9993 18.6667 21ZM13 17V18.6667C13 18.7551 13.0351 18.8399 13.0976 18.9024C13.1601 18.9649 13.2449 19 13.3333 19H18.6667C18.7551 19 18.8399 18.9649 18.9024 18.9024C18.9649 18.8399 19 18.7551 19 18.6667V17H13Z" fill="currentColor"/>
<path d="M29.3346 17H2.66797C2.40275 17 2.1484 16.8946 1.96086 16.7071C1.77333 16.5196 1.66797 16.2652 1.66797 16V10.6667C1.66868 9.69442 2.05521 8.7622 2.74269 8.07472C3.43017 7.38724 4.36239 7.00071 5.33464 7H26.668C27.6402 7.00071 28.5724 7.38724 29.2599 8.07472C29.9474 8.7622 30.3339 9.69442 30.3346 10.6667V16C30.3346 16.2652 30.2293 16.5196 30.0417 16.7071C29.8542 16.8946 29.5999 17 29.3346 17ZM3.66797 15H28.3346V10.6667C28.3339 10.2249 28.1581 9.80134 27.8457 9.48893C27.5333 9.17653 27.1098 9.00071 26.668 9H5.33464C4.89282 9.00071 4.46931 9.17653 4.1569 9.48893C3.8445 9.80134 3.66867 10.2249 3.66797 10.6667V15Z" fill="currentColor"/>
<path d="M22.6693 9.00033H9.33594C9.07072 9.00033 8.81637 8.89497 8.62883 8.70743C8.44129 8.5199 8.33594 8.26554 8.33594 8.00033V4.00033C8.33664 3.3817 8.5827 2.78862 9.02013 2.35119C9.45757 1.91376 10.0506 1.6677 10.6693 1.66699H21.3359C21.9546 1.6677 22.5476 1.91376 22.9851 2.35119C23.4225 2.78862 23.6686 3.3817 23.6693 4.00033V8.00033C23.6693 8.26554 23.5639 8.5199 23.3764 8.70743C23.1888 8.89497 22.9345 9.00033 22.6693 9.00033ZM10.3359 7.00033H21.6693V4.00033C21.6693 3.91192 21.6342 3.82714 21.5716 3.76462C21.5091 3.70211 21.4243 3.66699 21.3359 3.66699H10.6693C10.5809 3.66699 10.4961 3.70211 10.4336 3.76462C10.3711 3.82714 10.3359 3.91192 10.3359 4.00033V7.00033Z" fill="currentColor"/>
<path d="M26.3746 30.334H5.62797C4.61726 30.3704 3.63325 30.0051 2.89115 29.318C2.14905 28.6309 1.70926 27.6778 1.66797 26.6673V13.334C1.66797 13.0688 1.77333 12.8144 1.96086 12.6269C2.1484 12.4393 2.40275 12.334 2.66797 12.334C2.93319 12.334 3.18754 12.4393 3.37508 12.6269C3.56261 12.8144 3.66797 13.0688 3.66797 13.334V26.6673C3.716 27.1446 3.94693 27.5847 4.31232 27.8954C4.67772 28.2061 5.14922 28.3633 5.62797 28.334H26.3746C26.8534 28.3633 27.3249 28.2061 27.6903 27.8954C28.0557 27.5847 28.2866 27.1446 28.3346 26.6673V13.334C28.3346 13.0688 28.44 12.8144 28.6275 12.6269C28.8151 12.4393 29.0694 12.334 29.3346 12.334C29.5999 12.334 29.8542 12.4393 30.0417 12.6269C30.2293 12.8144 30.3346 13.0688 30.3346 13.334V26.6673C30.2933 27.6778 29.8536 28.6309 29.1115 29.318C28.3694 30.0051 27.3853 30.3704 26.3746 30.334Z" fill="currentColor"/>
</svg>
