<svg width="40" height="40" viewBox="0 0 40 40" fill="none" xmlns="http://www.w3.org/2000/svg">
<g clip-path="url(#clip0_1_28751)">
<path d="M7.36461 28.1977C6.35477 26.6455 5.62305 24.8952 5.2407 23.0187L1.17188 22.5103V17.4895L5.2407 16.9811C5.63148 15.0637 6.3868 13.2788 7.43102 11.7011L4.91141 8.46141L8.46164 4.91109L11.7012 7.43094C13.2784 6.38664 15.0637 5.63156 16.9809 5.24062L17.4895 1.17188H22.5104L23.019 5.24062C24.9361 5.63164 26.7212 6.38664 28.2987 7.43094L31.5383 4.91109L35.0885 8.46141L32.5689 11.7011C33.6132 13.2783 34.3686 15.0638 34.7592 16.9811L38.8281 17.4895V22.5104L34.7593 23.0187C34.3685 24.9361 33.6132 26.721 32.569 28.2987L35.0886 31.5384L31.5384 35.0887L28.2988 32.5689C26.7216 33.6132 24.9363 34.3683 23.0191 34.7592L22.5105 38.828H17.4896L16.981 34.7592C15.1048 34.3764 13.3548 33.6452 11.8025 32.6354" stroke="#FF6600" stroke-width="2" stroke-miterlimit="10" stroke-linecap="round" stroke-linejoin="round"/>
<path d="M28.023 16.415C28.5136 17.5095 28.7865 18.7234 28.7865 19.9999C28.7865 24.8493 24.8494 28.7863 20 28.7863C18.7231 28.7863 17.5095 28.5134 16.4148 28.0231L5.60977 38.828L1.17188 34.3902L11.977 23.5847C11.4865 22.4902 11.2135 21.2763 11.2135 19.9999C11.2135 15.1504 15.1506 11.2134 20 11.2134C21.2767 11.2134 22.4902 11.4863 23.5852 11.9766L17.807 17.7549L18.7448 21.2551L22.2448 22.1928L28.023 16.415Z" stroke="#FF6600" stroke-width="2" stroke-miterlimit="10" stroke-linecap="round" stroke-linejoin="round"/>
</g>
<defs>
<clipPath id="clip0_1_28751">
<rect width="40" height="40" fill="currentColor"/>
</clipPath>
</defs>
</svg>
