<svg width="1920" height="780" viewBox="0 0 1920 780" fill="none" xmlns="http://www.w3.org/2000/svg">
<mask id="mask0_86_37323" style="mask-type:alpha" maskUnits="userSpaceOnUse" x="0" y="0" width="1920" height="780">
<rect width="1920" height="780" fill="#D9D9D9"/>
</mask>
<g mask="url(#mask0_86_37323)">
<rect x="-6" y="1356" width="1933" height="1933" transform="rotate(-90 -6 1356)" fill="#EFEEEC"/>
<mask id="mask1_86_37323" style="mask-type:luminance" maskUnits="userSpaceOnUse" x="-6" y="-577" width="1933" height="1933">
<rect x="-6" y="1356" width="1933" height="1933" transform="rotate(-90 -6 1356)" fill="white"/>
</mask>
<g mask="url(#mask1_86_37323)">
<path fill-rule="evenodd" clip-rule="evenodd" d="M590.717 -214.756L-42.7266 -74.0334L-42.7267 -801.035L500.446 -618.56L590.717 -214.756ZM675.576 648.908L423.513 694.334L457.147 343.301L615.266 323.391L789.816 337.695L675.576 648.908ZM1925.84 1228.42L1923.71 1080.55L1925.84 740.146L1808.31 730.481L1743.56 779.193L1718.24 851.873L1925.84 1228.42ZM1819.91 34.7945L1738.53 -180.542L1751.29 -443.43L1718.62 -578.353L1815.08 -585.698L1932.61 -576.034L1930.67 -235.632L1925.84 60.8899L1895.3 98.1968L1819.91 34.7945ZM1310.18 308.7L1612.31 229.834L1540.79 -42.9125L1355.8 -42.9125L1180.28 60.8896L1310.18 308.7ZM1107.99 -372.682L780.152 -298.262L702.832 -604.256L951.222 -744.591L1239.82 -403.03L1107.99 -372.682Z" fill="#C5DAEE"/>
<path fill-rule="evenodd" clip-rule="evenodd" d="M1958.12 518.819C1962.76 518.046 1966.05 513.987 1966.05 509.348C1966.05 508.768 1965.85 507.994 1965.66 507.608C1964.69 502.389 1959.67 498.909 1954.45 499.876C1822.62 525.005 1707.02 591.5 1630.67 635.572C1598.39 654.322 1572.87 669.013 1557.02 674.232C1537.03 680.94 1513.88 681.516 1489 679.92C1472.42 652.228 1456.6 620.501 1442.78 584.348C1417.48 518.184 1371.73 420.914 1318.96 315.756C1338.98 310.534 1359.94 304.843 1381.89 298.651C1492.85 267.336 1572.49 248.586 1636.66 233.509C1779.85 199.921 1825.51 189.181 1898.59 108.871C1900.97 108.286 1903.13 106.791 1904.58 104.577C1905.53 103.314 1905.96 101.921 1906.08 100.505C1918.78 86.1128 1932.38 69.6425 1947.49 50.6468C1948.84 48.907 1949.62 46.7807 1949.62 44.6545C1949.62 41.9482 1948.46 39.0487 1946.33 36.9224C1942.27 33.6363 1936.08 34.2162 1932.8 38.4688C1918.59 56.3113 1905.85 71.8196 1893.98 85.4021C1878.61 73.7403 1842.81 42.8849 1810.83 -11.7895C1785.89 -54.1223 1768.3 -102.061 1758.44 -154.252C1757.97 -156.769 1757.51 -159.297 1757.07 -161.835L1876.16 -194.458C1878.29 -195.038 1879.64 -196.971 1879.64 -199.097L1879.64 -200.257C1878.87 -202.963 1876.16 -204.509 1873.65 -203.736L1755.5 -171.437C1746.13 -232.376 1746.92 -298.966 1757.86 -369.588C1761.2 -391.301 1762.73 -412.734 1762.47 -433.849C1821.32 -442.833 1876.89 -450.567 1928.16 -456.766C1932.99 -457.345 1936.66 -461.598 1936.66 -466.431L1936.66 -467.397C1935.89 -472.81 1931.06 -476.482 1925.84 -475.902C1875.01 -469.753 1819.98 -462.1 1761.72 -453.221C1758.43 -503.522 1744.73 -551.916 1720.56 -597.875C1690.98 -654.126 1645.75 -706.896 1586.21 -754.255C1485.31 -834.668 1379.77 -871.781 1375.32 -873.328C1370.3 -875.067 1364.69 -872.361 1362.95 -867.335C1361.21 -862.31 1363.92 -856.704 1368.94 -854.964C1368.97 -854.954 1369.06 -854.921 1369.21 -854.865L1369.27 -854.845C1375.82 -852.461 1478.58 -815.084 1574.03 -738.984C1631.45 -693.172 1674.94 -642.527 1703.35 -588.597C1726.48 -544.748 1739.52 -498.421 1742.49 -450.264C1697.79 -443.329 1651.29 -435.706 1603.44 -427.517L1546.59 -641.175C1545.81 -643.881 1543.11 -645.427 1540.59 -644.654C1537.89 -643.881 1536.34 -641.175 1537.12 -638.662L1593.74 -425.853C1558.09 -419.718 1521.7 -413.274 1484.75 -406.573L1446.94 -556.13L1517.59 -611.213C1518.94 -612.179 1519.52 -613.726 1519.52 -615.079C1519.52 -616.238 1519.33 -617.205 1518.36 -618.171C1516.82 -620.298 1513.72 -620.491 1511.6 -618.945L1444.32 -566.487L1429.25 -626.097C1428.67 -628.609 1425.97 -630.156 1423.45 -629.576C1420.94 -628.996 1419.39 -626.29 1419.97 -623.777L1436.08 -560.061L1287.9 -444.518L1245.62 -616.432C1245.04 -618.945 1242.33 -620.491 1239.82 -619.911C1237.31 -619.331 1235.76 -616.625 1236.34 -614.112L1279.64 -438.074L1241.56 -408.384L1062.18 -618.171C1060.44 -620.298 1057.34 -620.491 1055.41 -618.751C1053.28 -617.012 1053.09 -613.919 1054.83 -611.986L1232.14 -404.624L955.37 -341.046L854.571 -626.484C853.605 -628.997 850.899 -630.35 848.386 -629.384C845.873 -628.417 844.52 -625.711 845.486 -623.198L945.893 -338.869L784.977 -301.905L702.831 -626.096C702.251 -628.609 699.545 -630.156 697.032 -629.576C694.519 -628.996 692.972 -626.29 693.552 -623.777L775.654 -299.763L677.067 -277.116L621.064 -577.772C620.677 -580.478 618.164 -582.218 615.458 -581.638C612.752 -581.251 611.206 -578.739 611.592 -576.032L667.673 -274.958L591.538 -257.469L575.023 -321.407C574.996 -321.583 574.948 -321.793 574.867 -322.037C574.829 -322.212 574.783 -322.383 574.728 -322.548L505.858 -589.177C505.278 -591.689 502.572 -593.236 500.059 -592.656C497.546 -592.076 496 -589.37 496.58 -586.857L564.323 -324.59L472.418 -302.9L408.433 -558.511C408.434 -558.539 408.435 -558.567 408.435 -558.595L408.435 -558.635C408.435 -558.68 408.432 -558.726 408.427 -558.772C408.424 -558.807 408.419 -558.844 408.413 -558.88C408.398 -558.975 408.376 -559.072 408.353 -559.174C408.3 -559.408 408.242 -559.669 408.242 -559.988C408.135 -560.334 407.992 -560.661 407.818 -560.967L397.031 -604.061C396.451 -606.574 393.745 -608.121 391.232 -607.541C388.719 -606.961 387.173 -604.255 387.753 -601.742L397.635 -562.261L210.109 -513.209C207.596 -512.436 205.856 -509.73 206.63 -507.217C207.403 -504.704 210.109 -503.158 212.622 -503.738L400.015 -552.754L464.299 -295.941C464.879 -293.428 467.585 -291.882 470.098 -292.462L566.761 -315.152L590.441 -223.476C265.377 -151.467 13.5562 -91.0928 -20.6839 -82.8835L-20.6876 -82.8828L-20.6971 -82.8806L-20.6985 -82.8803C-22.902 -82.3519 -24.201 -82.0405 -24.5569 -81.9568C-29.776 -80.797 -32.8688 -75.5779 -31.709 -70.3588C-30.5492 -65.1396 -25.3301 -62.0469 -20.111 -63.2067C-19.7667 -63.2877 -18.5401 -63.5818 -16.4663 -64.079L-16.2333 -64.1349L-16.1979 -64.1433C-3.66389 -67.1488 37.7322 -77.0745 101.009 -91.9598C104.038 -72.5101 114.042 -29.4755 146.513 14.1127C171.642 47.9402 204.89 75.0021 245.676 94.5254C248.204 95.741 250.76 96.9271 253.345 98.0838L254.375 101.098C255.341 103.804 258.047 104.964 260.56 104.19C261.564 103.789 262.411 103.075 262.994 102.211C296.581 115.931 334.706 124.943 376.882 129.197C377.534 129.417 378.234 129.493 378.941 129.401C394.492 130.908 410.589 131.772 427.208 131.991L511.764 322.896C469.792 294.54 376.534 262.817 233.499 228.482C221.184 225.505 208.942 222.621 196.881 219.839C196.171 219.434 195.343 219.204 194.452 219.204C194.353 219.204 194.254 219.207 194.156 219.212C87.538 194.709 -4.19187 178.396 -5.22614 178.224C-7.93234 177.644 -10.4452 179.384 -10.8318 182.09C-11.4117 184.796 -9.67204 187.309 -6.96584 187.695C-4.92069 188.036 84.4274 204.042 189.62 228.045L189.62 324.745C189.62 327.452 191.746 329.578 194.452 329.578C197.159 329.578 199.285 327.452 199.285 324.745L199.285 230.263C315.246 257.024 447.532 293.061 502.833 328.36C440.068 336.973 367.213 349.304 284.529 365.339C128.15 395.687 -6.77382 428.548 -8.12692 428.935C-13.346 430.095 -16.6321 435.314 -15.279 440.533C-14.1192 445.752 -8.90012 449.038 -3.68101 447.685C-1.72287 447.177 74.4643 428.657 178.634 406.63L176.646 544.67L38.4056 564.981C37.9926 564.878 37.5571 564.825 37.1055 564.825C36.2782 564.884 35.5051 565.123 34.8359 565.505L-6.58039 571.59C-9.28659 571.977 -11.0263 574.296 -10.6397 577.003C-10.2531 579.709 -7.93348 581.448 -5.22729 581.062L32.644 575.493L42.1763 878.094C4.68072 880.44 -20.7013 881.685 -23.5463 881.825L-23.7841 881.836C-26.4903 882.03 -28.6166 884.156 -28.4233 886.862C-28.23 889.568 -26.1037 891.695 -23.3975 891.501C-23.2125 891.471 -20.5422 891.327 -15.7589 891.069L-15.7513 891.068L-15.734 891.067L-15.7213 891.067C-4.61974 890.468 17.8062 889.258 46.9356 887.427C47.0722 887.437 47.2105 887.442 47.3504 887.442C47.6534 887.442 47.9507 887.409 48.2393 887.345C61.2113 886.527 75.4813 885.588 90.6495 884.526L90.6495 938.271L90.6495 938.28L90.6495 938.289L90.6495 997.816L90.6495 1120.53L-23.591 1126.75C-26.2972 1126.75 -28.4235 1129.07 -28.2302 1131.77C-28.2302 1134.48 -25.9106 1136.61 -23.2044 1136.41L177.946 1125.46C180.448 1163.93 184.113 1197.52 188.166 1226.18L-23.9772 1240.99C-26.6834 1241.18 -28.6164 1243.5 -28.4231 1246.21C-28.2298 1248.91 -25.9102 1250.85 -23.204 1250.65L189.568 1235.8C191.166 1246.45 192.809 1256.36 194.452 1265.54C196.755 1278.31 199.125 1290.08 201.491 1300.86C78.2691 1332.67 -34.5916 1363.26 -44.0802 1365.86C-49.106 1367.21 -52.1988 1372.43 -50.8457 1377.65C-49.4926 1382.68 -44.2735 1385.77 -39.0544 1384.42C-36.691 1383.75 79.1331 1352.35 205.827 1319.61C217.459 1367.34 227.938 1390.9 228.652 1392.51L228.666 1392.54C229.825 1394.85 232.532 1396.01 235.045 1394.85C236.978 1394.08 237.944 1392.34 237.944 1390.41C237.944 1389.83 237.751 1389.06 237.557 1388.67C237.553 1388.65 237.536 1388.61 237.508 1388.55L237.463 1388.44L237.406 1388.31C236.072 1385.14 226.167 1361.63 215.277 1317.17C286.991 1298.68 361.353 1280.01 419.964 1266.41L445.935 1357.35C446.708 1359.87 449.414 1361.41 451.927 1360.64C454.053 1360.06 455.407 1358.13 455.407 1356C455.407 1355.81 455.358 1355.57 455.31 1355.33L455.31 1355.32C455.262 1355.08 455.213 1354.84 455.213 1354.65L429.45 1264.23C472.287 1254.41 505.602 1247.65 521.515 1246.21C554.015 1243.34 585.002 1221.38 624.199 1193.59L625.511 1192.66C686.98 1148.78 763.527 1094.27 887.239 1079.39C945.249 1072.39 993.602 1046.15 1035.15 1010.59L1058.89 1071.66C1059.86 1074.17 1062.37 1075.33 1064.88 1074.56L1179.12 1036.84L1420.36 1491.7C1421.71 1494.02 1424.61 1494.79 1426.93 1493.63C1428.48 1492.86 1429.45 1491.12 1429.45 1489.38C1429.45 1488.61 1429.45 1487.83 1429.06 1487.25L1188.45 1033.75L1403.94 962.602L1616.34 1362.77L1554.9 1385.96C1552.38 1386.93 1551.03 1389.64 1552 1392.15C1552.96 1394.66 1555.67 1396.01 1558.18 1395.05L1620.91 1371.39L1645.17 1417.08C1646.52 1419.4 1649.42 1420.18 1651.74 1419.02C1653.29 1418.24 1654.25 1416.5 1654.25 1414.76C1654.25 1414.18 1654.06 1413.41 1653.67 1412.64L1629.97 1367.97L1941.5 1250.46C1942.85 1249.88 1944.01 1248.91 1944.4 1247.56C1944.78 1246.98 1944.78 1246.4 1944.78 1245.82C1944.78 1245.05 1944.59 1244.27 1944.2 1243.5L1724.45 852.679C1724.8 845.774 1728.9 792.577 1770.62 760.831C1805.8 733.962 1858.19 728.936 1925.84 746.14C1928.35 746.72 1931.06 745.174 1931.64 742.661C1931.83 742.274 1931.83 741.887 1931.83 741.501C1931.83 739.375 1930.29 737.248 1928.16 736.668C1857.41 718.885 1802.32 724.297 1764.63 753.099C1722.3 785.38 1715.72 836.025 1714.76 849.749L1678.29 861.792C1670.34 858.327 1635.06 841.936 1592.4 804.903C1565.79 781.763 1532.81 747.544 1501.41 699.715C1523.3 700.386 1544.06 698.823 1563.21 692.403C1580.8 686.41 1607.09 671.333 1640.34 652.196L1641.46 651.553C1716.85 608.251 1830.02 543.247 1958.12 518.819ZM1477.39 679.043C1461.79 652.302 1446.96 622.002 1433.89 587.827C1425.84 566.729 1415.7 542.465 1403.92 515.791L1118.13 649.854C1123.26 653.696 1128.29 657.276 1133.2 660.611C1133.95 660.781 1134.65 661.133 1135.24 661.668C1135.56 661.928 1135.83 662.216 1136.05 662.524C1195.05 701.736 1238.14 705.579 1257.11 704.808C1259.39 703.145 1261.68 701.586 1263.98 700.135C1322.92 662.958 1389.16 669.931 1447.78 676.101L1448.39 676.165L1448.85 676.214C1458.52 677.237 1468.06 678.246 1477.39 679.043ZM1245.57 714.187C1234.05 713.569 1218.76 711.267 1200.19 705.161C1182.24 699.265 1159.48 689.123 1133.03 671.762L1062.18 756.191C1060.44 758.318 1057.34 758.511 1055.41 756.771C1053.28 755.032 1053.09 751.939 1054.83 750.006L1125.02 666.363C1119.14 662.288 1113.09 657.862 1106.89 653.053C1106.35 652.77 1105.85 652.389 1105.44 651.927C1080.57 632.493 1053.21 606.933 1024.1 573.33C984.082 527.131 920.486 463.536 845.099 422.943C809.615 403.906 784.689 397.108 775.521 395.08L738.93 494.648L806.812 563.805L846.454 516.306C848.194 514.18 851.286 513.987 853.219 515.727C854.379 516.693 854.959 518.046 854.959 519.399C854.959 520.559 854.573 521.526 853.799 522.492L813.572 570.692L840.903 598.537L869.649 560.959C871.196 558.833 874.289 558.446 876.415 559.992C877.575 560.959 878.348 562.312 878.348 563.858C878.348 564.825 877.961 565.985 877.381 566.758L847.742 605.504L1120.56 883.447C1134.16 864.22 1146.97 844.965 1159.21 826.553C1189.83 780.474 1217.02 739.656 1245.57 714.187ZM1114.76 891.578L1072.29 848.271L856.279 999.463L886.648 1060.4C986.76 1047.38 1057.73 970.761 1114.76 891.578ZM876.473 1061.7L846.02 1000.65C845.758 1000.28 845.56 999.874 845.423 999.455L793.517 895.402L625.473 925.188L678.839 1010.54L738.785 993.177C741.298 992.404 744.004 993.95 744.777 996.463C744.971 996.85 744.971 997.237 744.971 997.816C744.971 999.943 743.618 1001.88 741.491 1002.46L684.166 1019.06L736.402 1102.6C775.854 1084.35 821.898 1069.15 876.473 1061.7ZM727.715 1106.72L672.993 1019.2C672.728 1018.88 672.502 1018.52 672.324 1018.13L615.336 926.985L492.018 948.843C545.829 1063.25 618.698 1163.14 623.879 1170.24C652.681 1149.82 686.5 1126.72 727.715 1106.72ZM608.199 1181.39C605.126 1177.3 588.166 1153.98 565.555 1119.02L397.188 1150.99L424.204 1245.81C468.352 1235.73 502.884 1228.76 519.583 1227.26C545.749 1224.88 573.649 1205.88 608.199 1181.39ZM414.705 1248L387.526 1152.83L193.254 1189.73C196.448 1218.09 200.178 1242.66 203.923 1263.41C206.206 1276.05 208.564 1287.72 210.922 1298.43C282.113 1280.1 355.952 1261.59 414.705 1248ZM1489.67 699.163C1522.84 751.06 1558.17 787.869 1586.6 812.442C1620.71 842.02 1649.76 858.558 1665.04 866.169L1408.18 950.996L1250.12 736.363C1258.23 728.129 1266.3 721.296 1274.42 716.179C1327.77 682.544 1388.08 688.923 1446.46 695.109C1461.2 696.725 1475.65 698.295 1489.67 699.163ZM1243.38 743.508C1221.79 767.333 1199.72 800.391 1175.45 836.798L1175.27 837.067C1138.22 892.695 1096.21 955.771 1042.8 1003.88L1066.24 1063.93L1179.03 1026.68C1179.06 1026.66 1179.09 1026.64 1179.12 1026.62C1179.61 1026.37 1180.13 1026.21 1180.66 1026.14L1398.53 954.184L1243.38 743.508ZM1932.8 1243.31L1625.4 1359.35L1413.27 959.521L1717.02 859.227L1932.8 1243.31ZM678.848 -267.555L952.79 -330.453C953.117 -330.491 953.446 -330.566 953.771 -330.678L1241.94 -396.843C1242.72 -397.036 1243.3 -397.423 1243.88 -397.809L1438.7 -549.705L1475.32 -404.859C1217.77 -357.958 934.012 -298.766 683.252 -243.909L678.848 -267.555ZM599.784 -225.544L593.967 -248.067L669.454 -265.398L673.84 -241.849C648.796 -236.363 624.091 -230.922 599.784 -225.544ZM1730.18 -234.222C1731.09 -210.931 1733.28 -188.273 1736.75 -166.31L1528.75 -109.448L1474.68 -315.657C1474.1 -317.783 1472.16 -319.329 1470.04 -319.329L1310.95 -319.329C1310.57 -319.329 1310.18 -319.329 1309.79 -319.136C1193.53 -289.288 1091.07 -269.306 1003.72 -256.013C1001.94 -257.681 999.063 -257.772 997.228 -256.12C996.827 -255.76 996.502 -255.342 996.252 -254.888C865.753 -235.406 769.706 -230.945 712.509 -230.593C1014.35 -296.397 1360.36 -367.575 1649.63 -415.793C1673.57 -291.145 1713.65 -247.415 1730.18 -234.222ZM1729.79 -247.547C1729.06 -287.448 1732.02 -329.133 1738.73 -372.294C1741.78 -392.067 1743.25 -411.606 1743.14 -430.872C1715.77 -426.62 1687.74 -422.11 1659.13 -417.371C1679.7 -310.058 1712.3 -264.861 1729.79 -247.547ZM1614.81 218.747L1546.73 -40.873C1546.76 -41.0963 1546.78 -41.3249 1546.78 -41.5577C1546.78 -42.6932 1546.4 -43.7268 1545.77 -44.5438L1531.24 -99.9709L1738.35 -156.706C1738.58 -155.407 1738.81 -154.11 1739.05 -152.816C1739.2 -152.005 1739.35 -151.195 1739.5 -150.386C1749.74 -95.875 1768.11 -46.0036 1794.01 -1.73787C1826.8 54.3935 1863.2 86.6582 1880.73 100.164C1814.26 171.935 1770.88 182.15 1632.6 214.565L1629.51 215.292L1629.03 215.404L1628.76 215.469L1624.89 216.376L1621.83 217.097C1619.52 217.639 1617.18 218.189 1614.81 218.747ZM1605.63 220.911L1537.98 -36.7253L1358.31 -36.7253L1187.83 64.1231C1228.42 139.564 1270.9 220.554 1310.03 298.023C1331.21 292.532 1353.46 286.505 1376.87 279.901C1472.59 252.812 1547.74 234.582 1605.63 220.911ZM1466.37 -309.471L1535.44 -46.3902L1472.3 -46.3902L1388.13 -309.471L1466.37 -309.471ZM1378.11 -309.471L1462.29 -46.3902L1360.5 -46.3902L1275.45 -300.422C1287.32 -303.331 1299.35 -306.346 1311.53 -309.471L1378.11 -309.471ZM1265.91 -298.1L1351.05 -43.8024L1331.67 -32.3426L1247.18 -293.622C1253.38 -295.085 1259.62 -296.577 1265.91 -298.1ZM1266.44 -203.258L1323.42 -27.4612L1183.18 55.4786C1105.55 -88.5025 1035.62 -210.752 1010.48 -247.098C1076.74 -257.362 1152.88 -271.627 1237.87 -291.437L1263.44 -212.523L1179.51 -176.287C1177 -175.128 1176.03 -172.421 1177 -169.909C1178.16 -167.396 1180.86 -166.429 1183.37 -167.396L1266.44 -203.258ZM1088.01 -98.111C1114.25 -51.5483 1144.14 2.71516 1175.28 60.5007L1067.08 137.402C1055.8 114.365 1046.22 88.8631 1039.56 60.8914C1039.17 58.7652 1037.24 57.2188 1034.92 57.2188L976.93 57.2188C974.224 57.2188 972.098 59.345 972.098 62.0512C972.098 64.7575 974.224 66.8837 976.93 66.8837L1031.25 66.8837C1038.17 94.6461 1047.89 120.013 1059.23 142.979L1008.83 178.804C1006.7 180.351 1006.12 183.443 1007.67 185.57C1009.21 187.696 1012.3 188.276 1014.43 186.73L1063.71 151.763C1089.78 201.366 1123.1 239.135 1150.9 265.016C1179.21 291.421 1205.25 309.263 1221.5 319.263C1017.29 363.839 930.118 348.548 831.955 331.318L830.451 331.055L827.058 330.46L827.044 330.457L827.027 330.454L827.009 330.451L826.992 330.449L826.975 330.446L826.958 330.443L826.938 330.439C815.856 328.495 804.625 326.526 793.065 324.628L783.268 277.973L953.541 235.828C955.667 235.248 957.214 233.315 957.214 231.189C957.214 230.802 957.214 230.416 957.02 230.029C956.441 227.516 953.734 225.97 951.221 226.55L781.302 268.607L754.305 140.033C816.751 107.21 879.891 83.4205 931.697 66.8842C933.63 66.111 934.984 64.3713 934.984 62.2451C934.984 61.6651 934.984 61.2785 934.79 60.8919C934.017 58.3791 931.311 57.026 928.798 57.7992C876.261 74.5058 812.016 98.7518 748.481 132.306C748.216 132.32 747.947 132.354 747.677 132.412C746.592 132.663 745.651 133.309 744.979 134.166C692.823 162.005 641.299 196.146 597.288 237.568C555.81 276.466 534.901 308.683 525.676 325.332C524.957 325.424 524.235 325.517 523.513 325.609L436.504 129.041C452.191 118.65 521.917 73.2635 617.86 26.0676C617.883 26.0615 617.905 26.0551 617.928 26.0487C617.953 26.0412 617.979 26.0335 618.005 26.0257C618.058 26.0096 618.11 25.9926 618.163 25.9748C618.228 25.9526 618.293 25.929 618.358 25.904C618.682 25.7601 618.986 25.5826 619.266 25.3767C629.137 20.5321 639.283 15.67 649.673 10.8265C857.612 -86.1476 1002.47 -102.177 1088.01 -98.111ZM1071.53 146.211L1180 69.2508C1220.09 143.798 1262.02 223.792 1300.71 300.419C1277.65 306.312 1255.87 311.557 1235.25 316.21C1221.53 308.348 1190.65 289.076 1157.09 257.671C1129.83 232.199 1097.04 195.065 1071.53 146.211ZM1109.57 643.268L1289.53 558.849L1264.8 329.283C1028.43 385.552 934.642 369.106 828.321 350.462L828.282 350.455C817.071 348.469 805.733 346.483 794.085 344.568L778.84 386.051C789.529 388.538 814.294 395.675 848.965 414.244C874.388 427.826 908.386 449.496 947.485 483.104C947.345 481.953 947.605 480.759 948.322 479.773L948.343 479.745C949.166 478.641 962.609 460.609 999.933 457.93C1002.64 457.736 1004.96 459.67 1005.15 462.376L1005.15 462.762C1005.15 465.275 1003.22 467.401 1000.71 467.595C968.6 469.835 957.223 484.152 956.306 485.306C956.273 485.347 956.254 485.372 956.247 485.378C955.341 486.624 953.905 487.339 952.443 487.407C977.068 508.977 1003.62 535.246 1031.25 567.144C1059.18 599.412 1085.44 624.222 1109.57 643.268ZM1400.03 507.016L1298.85 554.478L1274.34 326.991C1285.77 324.218 1297.54 321.279 1309.65 318.166C1343.94 386.52 1375.3 451.603 1400.03 507.016ZM999.932 -245.484C1012.65 -228.46 1043.03 -177.635 1082.4 -108.033C960.609 -112.38 830.143 -74.6147 724.18 -32.1586L658.684 -218.814C662.452 -219.642 666.228 -220.471 670.012 -221.3C696.178 -220.283 747.981 -219.698 822.484 -225.192C868.734 -228.596 928.34 -234.678 999.932 -245.484ZM261.289 91.0826C293.52 104.918 330.256 114.195 371.099 118.862L277.504 -133.028C246.937 -125.99 218.2 -119.336 191.547 -113.136L261.289 91.0826ZM181.973 -110.908L249.048 85.4988C210.293 66.6024 178.38 40.8777 154.439 8.70019C123.011 -33.4983 113.207 -76.0347 110.327 -94.1505C131.939 -99.2283 155.905 -104.838 181.973 -110.908ZM428.925 122.361C412.622 122.18 396.848 121.377 381.62 119.954L286.992 -135.211C323.141 -143.525 361.751 -152.352 402.417 -161.579L495.263 81.1062C458.395 102.758 434.53 118.56 428.925 122.361ZM503.62 76.2286L411.824 -163.712C447.526 -171.804 484.765 -180.192 523.272 -188.801L610.147 19.0074C568.999 39.3886 532.746 59.333 503.62 76.2286ZM618.863 14.7201L532.882 -190.949C570.53 -199.356 609.357 -207.966 649.116 -216.711L715.213 -28.5313C690.437 -18.4137 667.09 -8.09232 645.614 1.93466C636.504 6.19174 627.581 10.4614 618.863 14.7201ZM745.38 144.788C695.544 171.714 646.517 204.464 604.44 243.947C568.441 277.674 548.056 306.591 537.698 323.83C617.363 314.101 678.484 311.175 720.421 315.081C742.76 317.14 763.235 319.912 782.664 322.958L745.38 144.788ZM188.333 404.586L186.363 543.243L323.078 523.156L312.751 428.742C312.558 426.229 314.298 423.909 316.81 423.522L353.344 418.11C356.05 417.723 358.37 419.463 358.757 422.169C359.143 421.976 359.143 422.363 359.143 422.556C359.143 424.876 357.403 427.002 355.084 427.388L322.996 432.221L332.718 521.74L440.049 505.971C446.034 462.657 450.379 416.806 449.116 355.947C360.167 369.888 266.929 388.08 188.333 404.586ZM329.7 531.812L438.661 515.79C437.03 527.079 435.307 538.258 433.564 549.554L433.356 550.917C425.301 603.848 416.925 658.883 415.2 739.761C414.652 765.943 418.356 795.016 426.262 826.877C380.544 853.138 167.694 870.054 51.8282 877.483L47.3954 736.677C47.4448 736.674 47.4943 736.672 47.5439 736.668L179.375 727.003C181.887 726.81 183.82 724.683 183.82 722.171L186.226 552.909L328.569 531.978C328.708 531.979 328.847 531.974 328.988 531.964C329.234 531.929 329.471 531.878 329.7 531.812ZM176.506 554.339L42.2765 574.077L47.0901 726.979L174.155 717.531L176.506 554.339ZM767.73 388.251L729.853 491.336L525.51 501.066C525.044 500.921 524.547 500.843 524.028 500.843C523.341 500.843 522.691 500.98 522.104 501.228L459.843 504.193C462.508 484.605 464.818 464.434 466.413 442.556L651.027 432.801C653.734 432.608 655.667 430.481 655.667 427.968L655.667 427.775C655.667 425.069 653.347 422.942 650.641 423.136L467.067 432.836C468.544 408.83 469.139 382.674 468.413 352.981C567.998 337.977 660.368 328.941 718.294 334.411C742.053 336.754 763.753 339.74 784.358 342.998L767.961 387.622C767.871 387.823 767.793 388.033 767.73 388.251ZM726.341 500.894L528.86 510.375L528.86 617.403C528.86 620.109 526.734 622.235 524.028 622.235C521.322 622.235 519.195 620.109 519.195 617.403L519.195 510.839L458.51 513.753C456.669 526.654 454.698 539.38 452.7 552.26L452.502 553.547C446.291 593.915 439.889 635.525 436.578 688.913L531.298 671.77C531.733 671.556 532.212 671.406 532.726 671.333C533.233 671.224 533.734 671.197 534.214 671.242L672.976 646.129L726.341 500.894ZM987.84 762.14L735.284 504.57L681.955 649.683L799.048 884.63L812.625 882.223L987.84 762.14ZM817.457 890.728L994.741 769.178L1065.4 841.245L851.901 990.679L803.532 893.627L815.524 891.501C816.298 891.308 816.877 891.115 817.457 890.728ZM436.008 698.802L529.805 681.827L557.729 826.345L451.905 846.834C440.564 809.476 433.811 772.983 434.53 739.954C434.81 725.449 435.317 711.778 436.008 698.802ZM539.281 680.112L567.184 824.515L739.364 791.179C740.117 791.017 740.856 791.036 741.538 791.204L673.96 655.737L539.281 680.112ZM454.8 856.082C463.792 883.988 475.196 912.254 487.822 939.807L612.021 917.788C612.387 916.932 613.022 916.184 613.913 915.664C615.931 914.487 618.387 914.773 619.883 916.394L789.029 886.406L744.68 797.504C744.129 799.037 742.831 800.219 741.104 800.65L454.8 856.082ZM100.314 943.038L100.314 992.984L174.735 992.984C174.962 976.508 175.415 959.471 176.126 941.875L100.314 943.038ZM176.54 932.198L100.314 933.373L100.314 883.841C125.245 882.054 152.275 879.951 179.748 877.528C178.399 896.301 177.34 914.525 176.54 932.198ZM185.808 941.513C181.822 1038.09 185.657 1117.74 192.209 1180.12L227.479 1173.42L220.741 1141.63C220.161 1138.93 221.901 1136.41 224.413 1135.83C227.12 1135.25 229.633 1136.99 230.212 1139.51L237.018 1171.61L273.018 1164.78L265.006 1134.09C264.427 1131.58 265.973 1128.87 268.486 1128.29C270.999 1127.71 273.705 1129.26 274.285 1131.77L282.435 1162.99L312.134 1157.35L306.566 1134.09C305.986 1131.58 307.532 1128.87 310.045 1128.29C312.558 1127.71 315.264 1129.26 315.844 1131.77L321.54 1155.56L351.635 1149.84L346.579 1121.53C346.193 1118.82 347.932 1116.31 350.445 1115.92C352.958 1115.54 355.664 1117.28 356.051 1119.79L361.097 1148.05L385.374 1143.44L372.394 1058.19L279.504 1073.98C276.991 1074.36 274.479 1072.62 273.899 1070.11L264.814 1020.43C264.234 1017.73 266.167 1015.21 268.68 1014.83C271.386 1014.44 273.899 1016.18 274.285 1018.69L282.404 1063.73L370.94 1048.64L350.251 912.764L185.808 941.513ZM395.052 1141.6L359.143 906.386C358.95 905.032 358.37 903.873 357.21 903.099C356.05 902.326 354.891 902.133 353.537 902.326L186.244 931.569C187.066 913.821 188.151 895.515 189.531 876.652C319.181 864.886 399.545 851.448 428.752 836.494C443.795 892.27 471.26 956.272 510.884 1027.97C527.838 1058.61 544.913 1086.71 559.944 1110.28L395.052 1141.6ZM100.314 1120L100.314 1002.65L174.627 1002.65C174.48 1019.84 174.58 1036.4 174.891 1052.33L115.005 1052.33C112.299 1052.33 110.173 1054.45 110.173 1057.16C110.173 1059.87 112.299 1061.99 115.005 1061.99L175.107 1061.99C175.581 1080.84 176.35 1098.78 177.349 1115.81L100.314 1120Z" fill="white"/>
</g>
</g>
</svg>
