<svg width="80" height="80" viewBox="0 0 80 80" fill="none" xmlns="http://www.w3.org/2000/svg">
<g clip-path="url(#clip0_0_4001)">
<path d="M30.7059 23.9696C30.9046 24.4391 31.3586 24.7428 31.8695 24.7428H38.7088V25.2675C38.7088 26.593 37.9425 27.7529 36.779 28.2223C33.26 29.6583 31.2167 33.193 31.8127 36.921C32.3235 40.1243 34.8492 42.7477 38.0844 43.4657C38.7088 43.6037 39.3331 43.659 39.9574 43.659C42.0007 43.659 43.9588 42.941 45.4913 41.6155C46.8535 40.428 47.79 38.8264 48.1022 37.0866C48.2441 36.341 47.6481 35.6231 46.8535 35.6231C46.2575 35.6231 45.7183 36.0373 45.6048 36.5896C45.3778 37.8046 44.7535 38.9368 43.7886 39.7653C42.625 40.787 41.0926 41.2841 39.5317 41.1736C36.9776 40.9803 34.7925 39.1025 34.3384 36.6172C33.856 33.9938 35.2749 31.4808 37.7439 30.4867C39.8723 29.603 41.2345 27.5595 41.2345 25.2399V24.7152H48.0738C48.5846 24.7152 49.0387 24.4115 49.2373 23.942L56.332 7.42838C56.5307 6.95892 56.4172 6.37901 56.0199 6.04764L49.6914 0.331377C49.4643 0.110459 49.1522 0 48.84 0H31.1884C30.8762 0 30.564 0.110459 30.337 0.331377L23.9234 6.07525C23.5261 6.43424 23.4126 6.98654 23.6112 7.45599L30.7059 23.9696ZM31.6708 2.48533H48.3292L53.7212 7.31792L47.2792 22.2575H32.7492L26.3072 7.31792L31.6992 2.48533H31.6708Z" fill="currentColor"/>
<path d="M78.7229 65.0328C79.4324 65.0328 80 64.4805 80 63.7901V59.786C80 59.0956 79.4324 58.5433 78.7229 58.5433H1.27705C0.567577 58.5433 0 59.0956 0 59.786V63.7901C0 64.4805 0.567577 65.0328 1.27705 65.0328C3.68925 65.0328 5.64739 66.9382 5.64739 69.2855C5.64739 71.6327 3.68925 73.5382 1.27705 73.5382C0.567577 73.5382 0 74.0905 0 74.7808V78.785C0 79.4753 0.567577 80.0276 1.27705 80.0276H78.7229C79.4324 80.0276 80 79.4753 80 78.785V74.7808C80 74.0905 79.4324 73.5382 78.7229 73.5382C76.3107 73.5382 74.3526 71.6327 74.3526 69.2855C74.3526 66.9382 76.3107 65.0328 78.7229 65.0328ZM77.4459 75.8854V77.5147H2.5541V75.8854C5.76091 75.3055 8.20149 72.544 8.20149 69.2579C8.20149 65.9717 5.76091 63.2378 2.5541 62.6303V61.001H77.4459V62.6303C74.2391 63.2102 71.7985 65.9717 71.7985 69.2579C71.7985 72.544 74.2391 75.2779 77.4459 75.8854Z" fill="currentColor"/>
<path d="M20.6276 62.5474C16.8248 62.5474 13.7031 65.5574 13.7031 69.2854C13.7031 73.0134 16.7964 76.0234 20.6276 76.0234C24.4587 76.0234 27.552 73.0134 27.552 69.2854C27.552 65.5574 24.4587 62.5474 20.6276 62.5474ZM20.6276 73.538C18.2154 73.538 16.2572 71.6326 16.2572 69.2854C16.2572 66.9381 18.2154 65.0327 20.6276 65.0327C23.0398 65.0327 24.9979 66.9381 24.9979 69.2854C24.9979 71.6326 23.0398 73.538 20.6276 73.538Z" fill="currentColor"/>
<path d="M39.983 62.5474C36.1803 62.5474 33.0586 65.5574 33.0586 69.2854C33.0586 73.0134 36.1519 76.0234 39.983 76.0234C43.8142 76.0234 46.9075 73.0134 46.9075 69.2854C46.9075 65.5574 43.8142 62.5474 39.983 62.5474ZM39.983 73.538C37.5708 73.538 35.6127 71.6326 35.6127 69.2854C35.6127 66.9381 37.5708 65.0327 39.983 65.0327C42.3952 65.0327 44.3534 66.9381 44.3534 69.2854C44.3534 71.6326 42.3952 73.538 39.983 73.538Z" fill="currentColor"/>
<path d="M59.3658 62.5474C55.5631 62.5474 52.4414 65.5574 52.4414 69.2854C52.4414 73.0134 55.5347 76.0234 59.3658 76.0234C63.197 76.0234 66.2903 73.0134 66.2903 69.2854C66.2903 65.5574 63.197 62.5474 59.3658 62.5474ZM59.3658 73.538C56.9536 73.538 54.9955 71.6326 54.9955 69.2854C54.9955 66.9381 56.9536 65.0327 59.3658 65.0327C61.7781 65.0327 63.7362 66.9381 63.7362 69.2854C63.7362 71.6326 61.7781 73.538 59.3658 73.538Z" fill="currentColor"/>
<path d="M17.9103 56.9693L30.8227 44.4046C31.3335 43.9075 31.3335 43.1343 30.8227 42.6372C30.3119 42.1401 29.5173 42.1401 29.0064 42.6372L16.0941 55.2019C15.5832 55.699 15.5832 56.4722 16.0941 56.9693C16.6049 57.4663 17.3995 57.4663 17.9103 56.9693Z" fill="currentColor"/>
<path d="M49.18 42.6649C48.6692 43.162 48.6692 43.9352 49.18 44.4323L62.0924 56.997C62.6032 57.494 63.3978 57.494 63.9086 56.997C64.4194 56.4999 64.4194 55.7267 63.9086 55.2296L50.9962 42.6649C50.4854 42.1678 49.6908 42.1678 49.18 42.6649Z" fill="currentColor"/>
</g>
<defs>
<clipPath id="clip0_0_4001">
<rect width="80" height="80" fill="white"/>
</clipPath>
</defs>
</svg>
