<svg width="80" height="80" viewBox="0 0 80 80" fill="none" xmlns="http://www.w3.org/2000/svg">
<g clip-path="url(#clip0_0_3987)">
<path d="M23.0912 25.2038H26.658C26.5307 25.9561 26.467 26.7085 26.467 27.4608C26.467 34.7962 32.5179 40.815 40.0338 40.815C47.5498 40.815 53.6007 34.8589 53.6007 27.4608C53.6007 26.7085 53.537 25.9561 53.4096 25.2038H56.9765C57.7408 25.2038 58.3778 24.5768 58.3778 23.8244V19.6238C58.3778 19.1223 58.0593 18.6207 57.5498 18.3699L56.0211 17.6803C56.3396 13.1661 54.8746 5.39185 47.0402 2.94671C46.9128 2.94671 46.7854 2.94671 46.5944 2.94671H45.8937V1.37931C45.8937 0.626959 45.2568 0 44.4924 0H35.4479C34.6835 0 34.0466 0.626959 34.0466 1.37931V2.88401H33.3459C33.3459 2.88401 33.0912 2.88401 32.9001 2.88401C25.0657 5.32915 23.6007 13.0408 23.9192 17.6176L22.3905 18.3072C21.881 18.558 21.5625 18.9969 21.5625 19.5611V23.7618C21.5625 24.5141 22.1994 25.1411 22.9638 25.1411L23.0912 25.2038ZM50.7982 27.4608C50.7982 33.2915 45.9574 38.0564 40.0338 38.0564C34.1103 38.0564 29.2695 33.2915 29.2695 27.4608C29.2695 26.7085 29.3332 25.9561 29.5243 25.2038H50.5434C50.7345 25.9561 50.7982 26.7085 50.7982 27.4608ZM24.4924 20.4389L26.0848 19.6865C26.658 19.4357 26.9765 18.8715 26.8491 18.2445C26.8491 17.8056 25.5115 8.21317 33.6007 5.57994H34.0466V7.52351C34.0466 8.27586 34.6835 8.90282 35.4479 8.90282C36.2122 8.90282 36.8491 8.27586 36.8491 7.52351V2.75862H43.0912V7.58621C43.0912 8.33856 43.7281 8.96552 44.4924 8.96552C45.2568 8.96552 45.8937 8.33856 45.8937 7.58621V5.64263H46.3396C54.4287 8.27586 53.1549 17.931 53.0912 18.3072C53.0275 18.9342 53.3459 19.4984 53.8555 19.7492L55.4479 20.5016V22.5078H24.4924V20.5016V20.4389Z" fill="currentColor"/>
<path d="M69.2644 70.7837C68.5001 70.7837 67.8632 71.4107 67.8632 72.163V72.79C67.8632 75.2978 65.8249 77.3041 63.2772 77.3041H16.7167C14.1689 77.3041 12.1307 75.2978 12.1307 72.79C12.1307 72.0376 11.4937 71.4107 10.7294 71.4107C9.96507 71.4107 9.32812 72.0376 9.32812 72.79C9.32812 76.8025 12.6402 80.0627 16.7167 80.0627H63.3409C67.4173 80.0627 70.7294 76.8025 70.7294 72.79V72.163C70.7294 71.4107 70.0925 70.7837 69.3281 70.7837H69.2644Z" fill="currentColor"/>
<path d="M10.7294 51.6616C11.4937 51.6616 12.1307 51.0346 12.1307 50.2823V44.4516C12.1307 44.4516 12.4491 44.7023 12.6402 44.8277C12.6402 44.8277 12.9587 45.0785 13.1498 45.1412L13.3409 45.2666C13.3409 45.2666 13.5956 45.392 13.7867 45.4547L14.0415 45.5801C14.0415 45.5801 14.2963 45.7055 14.4237 45.7055H14.6784C14.6784 45.7055 14.9332 45.8309 15.1243 45.8936H15.3791C15.3791 45.8936 15.6976 46.019 15.8249 46.019H16.0797C16.0797 46.019 16.5256 46.0817 16.7804 46.0817H63.2135C63.2135 46.0817 63.6593 46.0817 63.9141 46.0817H64.1689C64.1689 46.0817 64.4874 46.019 64.6147 45.9563H64.8695C64.8695 45.9563 65.1243 45.8309 65.3154 45.7682H65.5702C65.5702 45.7682 65.8249 45.5801 65.9523 45.5174L66.2071 45.392C66.2071 45.392 66.4619 45.2666 66.653 45.2039L66.844 45.0785C66.844 45.0785 67.2262 44.8904 67.3536 44.765C67.3536 44.765 67.6721 44.5143 67.8632 44.3889V50.4077C67.8632 51.16 68.5001 51.787 69.2644 51.787C70.0288 51.787 70.6657 51.16 70.6657 50.4077V38.6835C70.6657 35.7995 68.946 33.1663 66.2708 31.9751C65.1243 31.4735 63.7867 31.6616 62.8313 32.5393C62.1944 33.1663 61.8759 33.9813 61.8759 34.8591V38.9343C61.8759 39.6867 62.5128 40.3136 63.2772 40.3136C64.0415 40.3136 64.6784 39.6867 64.6784 38.9343V34.7337C64.6784 34.7337 64.7421 34.4829 64.8058 34.4202C64.8058 34.4202 64.9969 34.2948 65.188 34.4202C66.844 35.1726 67.9268 36.8027 67.9268 38.6208C67.9268 41.1287 65.8249 43.1976 63.2772 43.1976H16.7804C14.2326 43.1976 12.1307 41.1287 12.1307 38.6208C12.1307 36.8027 13.2135 35.1726 14.8695 34.4202C15.0606 34.3575 15.188 34.4202 15.2517 34.4202C15.3154 34.4202 15.3791 34.5456 15.3791 34.7337V38.9343C15.3791 39.6867 16.016 40.3136 16.7804 40.3136C17.5447 40.3136 18.1816 39.6867 18.1816 38.9343V34.7337C18.1816 33.4171 17.2899 32.1632 15.8886 31.787C15.1243 31.5362 14.2326 31.7243 13.5319 32.0378C10.9842 33.2917 9.32812 35.7995 9.32812 38.6208V50.1569C9.32812 50.9092 9.96507 51.5362 10.7294 51.5362V51.6616Z" fill="currentColor"/>
<path d="M74.1097 53.9812C73.7912 53.1662 73.0906 52.6019 72.1988 52.4138C71.3071 52.2257 70.4791 52.5392 69.8422 53.1662C69.1415 53.9185 68.0587 54.2947 66.6574 54.2947C65.8931 54.2947 65.1925 54.232 64.5555 54.1693C61.8804 53.9812 59.3326 53.7931 58.5683 57.4922L58.3772 58.3699C57.3581 63.1348 56.7848 66.5831 58.823 67.8997C59.9695 68.6521 63.2816 70.0314 66.5937 70.0314C68.7594 70.0314 70.9887 69.4671 72.5173 67.7116C75.6383 64.2634 75.4473 57.6176 74.1097 54.1066V53.9812ZM70.4791 65.7681C67.8039 68.7148 61.6893 66.3323 60.4791 65.58C59.9695 64.7022 60.7976 60.627 61.1797 58.8715L61.3708 57.9938C61.6256 56.7399 61.6256 56.6772 64.4281 56.8652C65.0651 56.8652 65.8294 56.9906 66.6574 56.9906C69.1415 56.9906 70.7339 56.1756 71.6256 55.2978C72.581 58.1819 72.581 63.3856 70.4154 65.7681H70.4791Z" fill="currentColor"/>
<path d="M21.1775 67.837C23.152 66.5204 22.6425 63.0721 21.6233 58.3699L21.4323 57.4922C20.6679 53.7931 18.1202 53.9812 15.445 54.1693C14.8081 54.1693 14.1074 54.232 13.3431 54.2947C11.9418 54.2947 10.859 53.9812 10.1584 53.1662C9.58512 52.5392 8.6934 52.2257 7.80168 52.4138C6.90996 52.6019 6.20933 53.1662 5.89086 53.9812C4.55328 57.4922 4.36219 64.138 7.48321 67.5862C9.07557 69.3417 11.2412 69.906 13.4068 69.906C16.7189 69.906 20.031 68.5267 21.1775 67.7743V67.837ZM8.37493 55.2978C9.33035 56.1756 10.859 57.0533 13.3431 56.9906C14.1711 56.9906 14.9354 56.9279 15.5724 56.8652C18.3749 56.6772 18.3749 56.7398 18.6297 57.9938L18.8208 58.8715C19.203 60.627 20.0947 64.7022 19.5214 65.58C18.2475 66.3323 12.1329 68.7148 9.45774 65.7681C7.29213 63.3856 7.35582 58.1819 8.24754 55.2978H8.37493Z" fill="currentColor"/>
</g>
<defs>
<clipPath id="clip0_0_3987">
<rect width="80" height="80" fill="currentColor"/>
</clipPath>
</defs>
</svg>
