<svg width="80" height="80" viewBox="0 0 80 80" fill="none" xmlns="http://www.w3.org/2000/svg">
<path d="M74.821 27.6629H57.3334C56.6062 27.6629 56.0111 28.2513 56.0111 28.9786C56.0111 29.7059 56.6062 30.3009 57.3334 30.3009H73.4987V70.9224H15.5086C10.9136 70.9224 6.93344 67.4447 6.62931 62.8629C6.29873 57.8249 10.3053 53.6199 15.2772 53.6331C15.9979 53.6331 16.5731 53.0315 16.5731 52.3108V30.3009H36.7715C37.4987 30.3009 38.0938 29.7059 38.0938 28.9786C38.0938 28.2513 37.4987 27.6563 36.7715 27.6563H16.5731V19.0149C16.5731 18.2877 15.9781 17.6926 15.2508 17.6926C9.02931 17.6926 3.96484 22.7571 3.96484 28.9786H6.60947C6.60947 24.6612 9.78964 21.0711 13.9285 20.4364V51.0678C10.9996 51.4116 8.41443 52.886 6.60947 55.0414V28.9852H3.96484V62.2744H3.97807C3.97807 62.3868 3.97146 62.4926 3.97807 62.5984C4.14997 68.7604 9.41939 73.5604 15.588 73.5604H74.8144C75.5417 73.5604 76.1367 72.9654 76.1367 72.2381V28.9852C76.1367 28.2579 75.5417 27.6629 74.8144 27.6629H74.821Z" fill="currentColor"/>
<path d="M43.7657 26.4264L38.9525 40.8661C38.3509 40.0264 37.8682 39.0942 37.5376 38.0893C37.3261 37.4413 36.6781 37.038 36.0037 37.1702C35.2434 37.3289 34.7608 38.1091 34.9988 38.843C35.6071 40.7339 36.6451 42.4132 37.9674 43.8083L34.8533 53.1504C34.6219 53.8446 34.9988 54.5917 35.693 54.8231C36.3872 55.0545 37.1343 54.6777 37.3657 53.9901L40.1426 45.6529C42.2517 47.081 44.7839 47.9141 47.4682 47.9141C50.1525 47.9141 52.6847 47.081 54.7938 45.6529L57.5707 53.9901C57.8021 54.6843 58.5492 55.0545 59.2434 54.8298C59.9376 54.5983 60.3079 53.8512 60.0831 53.157L56.969 43.8149C58.298 42.4132 59.336 40.7207 59.9442 38.8165C60.1823 38.076 59.6996 37.2959 58.9393 37.1438C58.2715 37.0116 57.6236 37.4149 57.412 38.0628C57.0814 39.081 56.5922 40.0198 55.9905 40.8661L51.1773 26.4198C53.7095 25.0711 55.336 22.4264 55.336 19.4843C55.336 15.6033 52.4996 12.3702 48.7971 11.7422V7.93389C48.7971 7.20661 48.2021 6.61157 47.4748 6.61157C46.7475 6.61157 46.1525 7.20661 46.1525 7.93389V11.7488C42.4434 12.3835 39.6137 15.6099 39.6137 19.4909C39.6137 22.4331 41.2401 25.0777 43.7723 26.4264H43.7657ZM47.4682 45.276C45.0616 45.276 42.8137 44.4364 41.0153 43.0281L47.4682 23.676L53.9211 43.0347C52.1294 44.443 49.8748 45.2826 47.4682 45.2826V45.276ZM47.4682 14.2744C50.3442 14.2744 52.6847 16.6149 52.6847 19.4909C52.6847 21.2826 51.7657 22.9025 50.3112 23.8479L48.7178 19.0744C48.5393 18.5322 48.0302 18.1686 47.4616 18.1686C46.893 18.1686 46.3905 18.5322 46.2054 19.0744L44.612 23.8479C43.1641 22.9025 42.2385 21.2826 42.2385 19.4909C42.2385 16.6149 44.579 14.2744 47.455 14.2744H47.4682Z" fill="currentColor"/>
<path d="M47.4704 63.3058C35.5762 63.3058 27.2853 58.8364 27.2853 54.8298C27.2853 52.6479 29.5662 50.4463 33.4538 48.8265C34.1018 48.5554 34.439 47.8215 34.201 47.1603C33.9431 46.4463 33.1431 46.0893 32.4423 46.3868C27.4638 48.4628 24.6406 51.4975 24.6406 54.8364C24.6406 61.0711 34.6704 65.957 47.4704 65.957C60.2704 65.957 70.3001 61.0711 70.3001 54.8364C70.3001 51.4446 67.3977 48.3703 62.2737 46.2942C61.5729 46.0099 60.7729 46.3736 60.5216 47.0876C60.2902 47.7554 60.6274 48.4827 61.2819 48.7471C65.2952 50.3736 67.6555 52.6083 67.6555 54.8364C67.6555 58.843 59.3646 63.3124 47.4704 63.3124V63.3058Z" fill="currentColor"/>
</svg>
