<svg width="32" height="32" viewBox="0 0 32 32" fill="none" xmlns="http://www.w3.org/2000/svg">
<path d="M20.078 13.0277C19.8968 13.0082 15.613 12.5794 13.1277 15.0647C10.6423 17.55 11.0712 21.8338 11.0907 22.015C11.1378 22.4535 11.4842 22.7998 11.9226 22.8469C11.9712 22.8521 12.3148 22.8868 12.8398 22.8868C14.2722 22.8868 17.0542 22.6287 18.8729 20.81C21.3582 18.3247 20.9293 14.0408 20.9099 13.8597C20.8628 13.4212 20.5164 13.0748 20.078 13.0277ZM17.5471 19.4841C16.681 20.3502 15.4417 20.7339 14.3661 20.8973L16.6632 18.6002C17.0293 18.2341 17.0293 17.6405 16.6632 17.2744C16.2971 16.9083 15.7035 16.9083 15.3373 17.2744L13.0403 19.5714C13.2037 18.4957 13.5875 17.2565 14.4535 16.3905C15.7581 15.0859 17.9102 14.875 19.0727 14.8648C19.0625 16.0281 18.8515 18.1797 17.5471 19.4841Z" fill="#FF6600"/>
<path d="M22.5625 7.63987V1.875H22.875C23.3927 1.875 23.8125 1.45525 23.8125 0.9375C23.8125 0.41975 23.3927 0 22.875 0H9.125C8.60725 0 8.1875 0.41975 8.1875 0.9375C8.1875 1.45525 8.60725 1.875 9.125 1.875H9.4375V7.63987C7.68806 7.79838 6.3125 9.2725 6.3125 11.0625V24.8125C6.3125 26.053 6.97313 27.1419 7.96088 27.7465C7.70819 28.1682 7.5625 28.6611 7.5625 29.1875V31.0625C7.5625 31.5802 7.98225 32 8.5 32H23.5C24.0177 32 24.4375 31.5802 24.4375 31.0625V29.1875C24.4375 28.6611 24.2918 28.1682 24.0391 27.7465C25.0269 27.1419 25.6875 26.053 25.6875 24.8125V11.0625C25.6875 9.27244 24.3119 7.79831 22.5625 7.63987ZM20.6875 1.875V7.625H18.8125V4.8125C18.8125 4.29475 18.3927 3.875 17.875 3.875H14.125C13.6073 3.875 13.1875 4.29475 13.1875 4.8125V7.625H11.3125V1.875H20.6875ZM16.9375 7.625H15.0625V5.75H16.9375V7.625ZM22.5625 30.125H9.4375V29.1875C9.4375 28.6706 9.85806 28.25 10.375 28.25H21.625C22.1419 28.25 22.5625 28.6706 22.5625 29.1875V30.125ZM23.8125 24.8125C23.8125 25.6741 23.1116 26.375 22.25 26.375H9.75C8.88844 26.375 8.1875 25.6741 8.1875 24.8125V11.0625C8.1875 10.2009 8.88844 9.5 9.75 9.5H22.25C23.1116 9.5 23.8125 10.2009 23.8125 11.0625V24.8125Z" fill="#FF6600"/>
</svg>
