<svg width="32" height="32" viewBox="0 0 32 32" fill="none" xmlns="http://www.w3.org/2000/svg">
<g clip-path="url(#clip0_0_2456)">
<path d="M23.4687 3.10902C21.4932 1.11833 18.86 0.0151824 16.0541 0.00299608C10.4126 -0.139303 5.41066 4.80786 5.50322 10.4522C5.46597 13.6934 7.02751 16.8445 9.59527 18.811C10.0403 19.1541 10.3673 19.6267 10.5421 20.1542L10.1352 20.1529H10.1321C8.89177 20.1987 8.88959 21.9782 10.1291 22.0277L10.681 22.0296L10.6706 23.7959L10.1352 23.7942C8.89284 23.8354 8.88765 25.6195 10.1291 25.669L10.7489 25.671C11.1355 27.8103 12.8428 29.4979 14.9968 29.85V31.0686C15.0429 32.311 16.826 32.3101 16.8717 31.0686V29.8401C18.9329 29.5135 20.7081 27.7616 21.0581 25.7046L21.6981 25.7066H21.7012C22.9415 25.6608 22.9437 23.8813 21.7042 23.8318L21.1524 23.83L21.1628 22.0636L21.6981 22.0654H21.7013C22.9416 22.0196 22.9438 20.24 21.7043 20.1905L21.3422 20.1894C21.5282 19.6835 21.8567 19.234 22.2943 18.9071C27.3717 15.2064 27.9569 7.5176 23.4687 3.10902ZM18.2948 27.0889C17.6793 27.711 16.7304 28.0831 15.8189 28.0434C14.3296 28.0369 13.0731 27.0374 12.6733 25.6772L19.1333 25.6982C18.9772 26.2187 18.6926 26.6954 18.2948 27.0889ZM12.5454 23.802L12.5557 22.0356L19.2879 22.0575L19.2775 23.8239L12.5454 23.802ZM21.1721 17.4051C20.2611 18.0855 19.6338 19.083 19.3976 20.183L16.9458 20.175V15.5559C20.1472 15.1005 22.6167 12.3493 22.6167 9.03327C22.6167 8.51557 22.197 8.09586 21.6793 8.09586C19.1077 8.12492 17.2268 8.88241 16.0059 10.8155C14.7838 8.88822 12.9005 8.12373 10.3376 8.09586C9.81988 8.09586 9.40016 8.51557 9.40016 9.03327C9.40016 12.3493 11.8696 15.1005 15.071 15.5559V20.1689L12.477 20.1604C12.2625 19.0453 11.6472 18.0256 10.74 17.3262C8.59162 15.6697 7.36623 13.1673 7.3781 10.4603C7.30224 5.82345 11.4116 1.76108 16.0459 1.87782C18.3514 1.88782 20.5149 2.79411 22.1379 4.42958C25.8081 7.9605 25.3349 14.4566 21.1721 17.4051ZM17.0091 13.6417C17.2871 11.499 18.4824 10.3094 20.6346 10.0334C20.2429 11.8329 18.8163 13.2527 17.0091 13.6417ZM15.006 13.6413C13.2003 13.2521 11.7751 11.8336 11.3826 10.0359C12.3581 10.165 13.1463 10.4859 13.7338 10.9946C14.4261 11.594 14.8522 12.4818 15.006 13.6413Z" fill="#7BCD46"/>
</g>
<defs>
<clipPath id="clip0_0_2456">
<rect width="32" height="32" fill="white"/>
</clipPath>
</defs>
</svg>
