<svg width="28" height="28" viewBox="0 0 28 28" fill="none" xmlns="http://www.w3.org/2000/svg">
<path d="M21.3828 9.89844C20.9298 9.89844 20.5625 10.2657 20.5625 10.7188V12.3594C20.5625 12.8124 20.9298 13.1797 21.3828 13.1797C21.8358 13.1797 22.2031 12.8124 22.2031 12.3594V10.7188C22.2031 10.2657 21.8358 9.89844 21.3828 9.89844ZM27.1797 18.1016H6.61719V15.6406C6.61719 15.1883 6.98518 14.8203 7.4375 14.8203C7.89053 14.8203 8.25781 14.453 8.25781 14V9.07812C8.25781 8.62509 7.89053 8.25781 7.4375 8.25781H4.92188V5.79688C4.92188 5.34384 4.55459 4.97656 4.10156 4.97656C3.64853 4.97656 3.28125 5.34384 3.28125 5.79688V8.25781H1.64062V4.15625C1.64062 3.70322 1.27334 3.33594 0.820312 3.33594C0.367281 3.33594 0 3.70322 0 4.15625V23.8438C0 24.9391 0.42432 25.9765 1.19476 26.7647C1.97345 27.5613 3.00573 28 4.10156 28H22.2031C22.6562 28 23.0234 27.6327 23.0234 27.1797C23.0234 26.0467 23.7528 25.0122 24.7972 24.6641C26.6928 24.0322 28 22.2656 28 20.2963V18.9219C28 18.4688 27.6327 18.1016 27.1797 18.1016ZM1.64062 9.89844H6.61719V13.3202C5.66229 13.6588 4.97656 14.5712 4.97656 15.6406V18.1016H1.64062V9.89844ZM26.3594 20.2963C26.3594 21.5432 25.5036 22.6992 24.2784 23.1076C22.8327 23.5895 21.7568 24.8668 21.463 26.3594H4.10156C2.76757 26.3594 1.64062 25.2074 1.64062 23.8438V19.7422H26.3594V20.2963ZM18.1016 9.89844C17.6485 9.89844 17.2812 10.2657 17.2812 10.7188V12.3594C17.2812 12.8124 17.6485 13.1797 18.1016 13.1797C18.5546 13.1797 18.9219 12.8124 18.9219 12.3594V10.7188C18.9219 10.2657 18.5546 9.89844 18.1016 9.89844ZM14.8203 9.89844C14.3673 9.89844 14 10.2657 14 10.7188V12.3594C14 12.8124 14.3673 13.1797 14.8203 13.1797C15.2733 13.1797 15.6406 12.8124 15.6406 12.3594V10.7188C15.6406 10.2657 15.2733 9.89844 14.8203 9.89844ZM12.3594 23.0234C12.8124 23.0234 13.1797 22.6562 13.1797 22.2031C13.1797 21.7501 12.8124 21.3828 12.3594 21.3828C11.9063 21.3828 11.5391 21.7501 11.5391 22.2031C11.5391 22.6562 11.9063 23.0234 12.3594 23.0234ZM18.9219 23.0234C19.3749 23.0234 19.7422 22.6562 19.7422 22.2031C19.7422 21.7501 19.3749 21.3828 18.9219 21.3828C18.4688 21.3828 18.1016 21.7501 18.1016 22.2031C18.1016 22.6562 18.4688 23.0234 18.9219 23.0234ZM10.7188 16.4609H25.4844C25.9374 16.4609 26.3047 16.0937 26.3047 15.6406V7.4375C26.3047 6.98447 25.9374 6.61719 25.4844 6.61719H24.1497L18.9219 2.08638V0.820312C18.9219 0.367281 18.5546 0 18.1016 0C17.6485 0 17.2812 0.367281 17.2812 0.820312V2.08638L12.0534 6.61719H10.7188C10.2657 6.61719 9.89844 6.98447 9.89844 7.4375V15.6406C9.89844 16.0937 10.2657 16.4609 10.7188 16.4609ZM18.1016 3.54648L21.6447 6.61719H14.5584L18.1016 3.54648ZM11.5391 8.25781H24.6641V14.8203H11.5391V8.25781ZM15.6406 23.0234C16.0937 23.0234 16.4609 22.6562 16.4609 22.2031C16.4609 21.7501 16.0937 21.3828 15.6406 21.3828C15.1876 21.3828 14.8203 21.7501 14.8203 22.2031C14.8203 22.6562 15.1876 23.0234 15.6406 23.0234ZM9.07812 23.0234C9.53116 23.0234 9.89844 22.6562 9.89844 22.2031C9.89844 21.7501 9.53116 21.3828 9.07812 21.3828C8.62509 21.3828 8.25781 21.7501 8.25781 22.2031C8.25781 22.6562 8.62509 23.0234 9.07812 23.0234Z" fill="currentColor"/>
</svg>
