<svg width="32" height="32" viewBox="0 0 32 32" fill="none" xmlns="http://www.w3.org/2000/svg">
<path d="M16 20.6875C16.5178 20.6875 16.9375 20.2678 16.9375 19.75C16.9375 19.2322 16.5178 18.8125 16 18.8125C15.4822 18.8125 15.0625 19.2322 15.0625 19.75C15.0625 20.2678 15.4822 20.6875 16 20.6875Z" fill="#007BFF"/>
<path d="M16 15.0625C13.4153 15.0625 11.3125 17.1653 11.3125 19.75C11.3125 22.3347 13.4153 24.4375 16 24.4375C18.5847 24.4375 20.6875 22.3347 20.6875 19.75C20.6875 17.1653 18.5847 15.0625 16 15.0625ZM16 22.5625C14.4492 22.5625 13.1875 21.3008 13.1875 19.75C13.1875 18.1992 14.4492 16.9375 16 16.9375C17.5508 16.9375 18.8125 18.1992 18.8125 19.75C18.8125 21.3008 17.5508 22.5625 16 22.5625Z" fill="#007BFF"/>
<path d="M29.125 17.875H28.0688C27.6515 16.2594 26.1816 15.0625 24.4375 15.0625V12.9637C25.5287 12.5767 26.3125 11.5347 26.3125 10.3125C26.3125 8.92237 25.2985 7.76531 23.9714 7.54031C22.9059 4.4665 20.1602 2.28487 16.9375 1.92712V0.9375C16.9375 0.41975 16.5177 0 16 0C15.4823 0 15.0625 0.41975 15.0625 0.9375V1.92712C11.8398 2.28487 9.09406 4.4665 8.02856 7.54031C6.7015 7.76531 5.6875 8.92237 5.6875 10.3125C5.6875 11.5347 6.47131 12.5767 7.5625 12.9637V15.0625C5.81838 15.0625 4.3485 16.2594 3.93119 17.875H2.875C2.35725 17.875 1.9375 18.2948 1.9375 18.8125C1.9375 19.3302 2.35725 19.75 2.875 19.75H3.93119C4.3485 21.3656 5.81838 22.5625 7.5625 22.5625V26.5362C6.47131 26.9232 5.6875 27.9653 5.6875 29.1875C5.6875 30.7383 6.94919 32 8.5 32H23.5C25.0508 32 26.3125 30.7383 26.3125 29.1875C26.3125 27.9653 25.5287 26.9232 24.4375 26.5362V22.5625C26.1816 22.5625 27.6515 21.3656 28.0688 19.75H29.125C29.6427 19.75 30.0625 19.3302 30.0625 18.8125C30.0625 18.2948 29.6427 17.875 29.125 17.875ZM16 3.75C18.5733 3.75 20.8631 5.24325 21.9311 7.5H10.0689C11.1369 5.24325 13.4267 3.75 16 3.75ZM5.6875 18.8125C5.6875 17.7786 6.52863 16.9375 7.5625 16.9375V20.6875C6.52863 20.6875 5.6875 19.8464 5.6875 18.8125ZM23.5 30.125H8.5C7.98306 30.125 7.5625 29.7044 7.5625 29.1875C7.5625 28.6706 7.98306 28.25 8.5 28.25H23.5C24.0169 28.25 24.4375 28.6706 24.4375 29.1875C24.4375 29.7044 24.0169 30.125 23.5 30.125ZM9.4375 26.375C9.4375 25.7423 9.4375 13.6117 9.4375 13.125H22.5625C22.5625 13.619 22.5625 25.7613 22.5625 26.375H9.4375ZM23.5 11.25H8.5C7.98306 11.25 7.5625 10.8294 7.5625 10.3125C7.5625 9.79556 7.98306 9.375 8.5 9.375C9.26719 9.375 22.7839 9.375 23.5 9.375C24.0169 9.375 24.4375 9.79556 24.4375 10.3125C24.4375 10.8294 24.0169 11.25 23.5 11.25ZM24.4375 20.6875V16.9375C25.4714 16.9375 26.3125 17.7786 26.3125 18.8125C26.3125 19.8464 25.4714 20.6875 24.4375 20.6875Z" fill="#007BFF"/>
</svg>
