<svg width="32" height="32" viewBox="0 0 32 32" fill="none" xmlns="http://www.w3.org/2000/svg">
<path d="M7.1875 10.625H17.1875C17.7052 10.625 18.125 10.2052 18.125 9.6875V4.6875C18.125 4.16975 17.7052 3.75 17.1875 3.75H7.1875C6.66975 3.75 6.25 4.16975 6.25 4.6875V9.6875C6.25 10.2052 6.66975 10.625 7.1875 10.625ZM8.125 5.625H16.25V8.75H8.125V5.625Z" fill="#FF6600"/>
<path d="M12.9316 16.6798C12.7542 16.4483 12.4792 16.3125 12.1875 16.3125C11.8958 16.3125 11.6208 16.4483 11.4434 16.6798C10.8849 17.4086 9.0625 19.8965 9.0625 21.3125C9.0625 23.0356 10.4644 24.4375 12.1875 24.4375C13.9106 24.4375 15.3125 23.0356 15.3125 21.3125C15.3125 19.8965 13.4901 17.4086 12.9316 16.6798ZM12.1875 22.5625C11.4983 22.5625 10.9375 22.0017 10.9375 21.3125C10.9375 20.9552 11.4694 19.9364 12.1875 18.8614C12.9056 19.9364 13.4375 20.9552 13.4375 21.3125C13.4375 22.0017 12.8767 22.5625 12.1875 22.5625Z" fill="#FF6600"/>
<path d="M29.1875 6.875H26.1009C25.4276 5.37275 23.9291 4.375 22.2356 4.375H21.875V2.1875C21.875 0.981313 20.8937 0 19.6875 0H4.6875C3.48131 0 2.5 0.981313 2.5 2.1875V12.1875C2.5 13.2876 3.31638 14.2002 4.375 14.3523V26.5362C3.28381 26.9232 2.5 27.9653 2.5 29.1875V30.125H0.9375C0.41975 30.125 0 30.5448 0 31.0625C0 31.5802 0.41975 32 0.9375 32H23.4375C23.9552 32 24.375 31.5802 24.375 31.0625C24.375 30.5448 23.9552 30.125 23.4375 30.125H21.875V29.1875C21.875 27.9653 21.0912 26.9232 20 26.5362V22.5H25.4375C25.9544 22.5 26.375 22.9206 26.375 23.4375V26.5625C26.375 28.1133 27.6367 29.375 29.1875 29.375C30.7383 29.375 32 28.1133 32 26.5625V9.6875C32 8.13669 30.7383 6.875 29.1875 6.875ZM26.375 8.75H29.1875C29.7044 8.75 30.125 9.17056 30.125 9.6875V10.625H27.3125C26.7956 10.625 26.375 10.2044 26.375 9.6875V8.75ZM28.25 12.5H30.125V16.25H29.1875C28.6706 16.25 28.25 15.8294 28.25 15.3125V12.5ZM4.375 2.1875C4.375 2.01519 4.51519 1.875 4.6875 1.875H19.6875C19.8598 1.875 20 2.01519 20 2.1875V12.1875C20 12.3598 19.8598 12.5 19.6875 12.5H4.6875C4.51519 12.5 4.375 12.3598 4.375 12.1875V2.1875ZM6.25 26.375V14.375H18.125V26.375H6.25ZM4.375 30.125V29.1875C4.375 28.6706 4.79556 28.25 5.3125 28.25H19.0625C19.5794 28.25 20 28.6706 20 29.1875V30.125H4.375ZM29.1875 27.5C28.6706 27.5 28.25 27.0794 28.25 26.5625V23.4375C28.25 21.8867 26.9883 20.625 25.4375 20.625H20V14.3523C21.0586 14.2002 21.875 13.2876 21.875 12.1875V6.25H22.2356C23.2864 6.25 24.2029 6.93888 24.5 7.93794V9.6875C24.5 10.9097 25.2838 11.9517 26.375 12.3387V15.3125C26.375 16.8633 27.6367 18.125 29.1875 18.125H30.125V26.5625C30.125 27.0794 29.7044 27.5 29.1875 27.5Z" fill="#FF6600"/>
</svg>
