<svg width="32" height="32" viewBox="0 0 32 32" fill="none" xmlns="http://www.w3.org/2000/svg">
<path d="M15.9996 12.022C13.8059 12.022 12.0215 13.807 12.0215 16.0001C12.0215 18.1932 13.8065 19.9782 15.9996 19.9782C18.1927 19.9782 19.9777 18.1932 19.9777 16.0001C19.9777 13.807 18.1927 12.022 15.9996 12.022ZM15.9996 18.4163C14.6677 18.4163 13.584 17.3326 13.584 16.0007C13.584 14.6688 14.6677 13.5851 15.9996 13.5851C17.3315 13.5851 18.4152 14.6688 18.4152 16.0007C18.4152 17.3326 17.3315 18.4163 15.9996 18.4163Z" fill="#7BCD46"/>
<path d="M28.6455 14.6982C30.2192 14.6982 31.4992 13.4182 31.4992 11.8444C31.4992 10.4869 30.5461 9.34818 29.2736 9.06131C29.1998 8.86443 29.1111 8.67443 29.0055 8.49131C27.8973 6.57131 25.2167 5.78631 21.5992 6.30068C20.2361 2.91068 18.2167 0.981934 15.9992 0.981934C13.7817 0.981934 11.7623 2.91068 10.3992 6.30068C9.43797 6.16443 8.54297 6.11943 7.72609 6.16318C7.24484 5.26506 6.29734 4.65318 5.20922 4.65318C3.63547 4.65318 2.35547 5.93318 2.35547 7.50693C2.35547 8.04193 2.50359 8.54256 2.76047 8.97068C2.00234 10.8501 2.72609 13.3563 4.79922 16.0001C2.54422 18.8757 1.88422 21.5894 2.99297 23.5094C4.10109 25.4294 6.78172 26.2144 10.3992 25.7001C11.7623 29.0901 13.7817 31.0188 15.9992 31.0188C18.2167 31.0188 20.2361 29.0901 21.5992 25.7001C25.2167 26.2144 27.8967 25.4294 29.0055 23.5094C30.1142 21.5894 29.4542 18.8757 27.1992 16.0001C27.5548 15.5463 27.8705 15.0969 28.1461 14.6532C28.308 14.6819 28.4748 14.6976 28.6448 14.6976L28.6455 14.6982ZM29.9367 11.8444C29.9367 12.5563 29.3573 13.1357 28.6455 13.1357C27.9336 13.1357 27.3542 12.5563 27.3542 11.8444C27.3542 11.1326 27.9336 10.5532 28.6455 10.5532C29.3573 10.5532 29.9367 11.1326 29.9367 11.8444ZM5.20984 6.21506C5.92172 6.21506 6.50109 6.79443 6.50109 7.50631C6.50109 8.21818 5.92172 8.79756 5.20984 8.79756C4.49797 8.79756 3.91859 8.21818 3.91859 7.50631C3.91859 6.79443 4.49797 6.21506 5.20984 6.21506ZM25.5961 15.4963C25.5961 15.4963 25.5936 15.4994 25.5923 15.5013C24.5686 16.7132 23.298 17.8913 21.8148 19.0026C21.4698 19.2613 21.3992 19.7507 21.658 20.0963C21.8117 20.3013 22.0461 20.4088 22.2836 20.4088C22.4467 20.4088 22.6111 20.3582 22.7517 20.2526C24.043 19.2851 25.1861 18.2657 26.1617 17.2132C27.8286 19.4307 28.3873 21.4551 27.6523 22.7276C26.8398 24.1344 24.4405 24.6319 21.2336 24.0582C21.2311 24.0582 21.2286 24.0582 21.2255 24.0569C19.6642 23.7763 18.0092 23.2651 16.3061 22.5363C15.9092 22.3663 15.4505 22.5507 15.2805 22.9469C15.1105 23.3438 15.2948 23.8026 15.6911 23.9726C17.1742 24.6076 18.6292 25.0882 20.0286 25.4069C18.9417 27.9594 17.468 29.4551 15.9986 29.4551C14.3736 29.4551 12.743 27.6257 11.6367 24.5613C11.6361 24.5594 11.6355 24.5576 11.6348 24.5563C11.0967 23.0644 10.7117 21.3744 10.4911 19.5338C10.4398 19.1057 10.0505 18.8001 9.62234 18.8513C9.19422 18.9026 8.88859 19.2919 8.93984 19.7201C9.13234 21.3226 9.44297 22.8226 9.86672 24.1932C7.11297 24.5282 5.08047 23.9994 4.34609 22.7276C3.53359 21.3201 4.30234 18.9938 6.40297 16.5032C7.42672 15.2894 8.69922 14.1101 10.1836 12.9976C10.5292 12.7388 10.5992 12.2494 10.3405 11.9038C10.0817 11.5588 9.59234 11.4882 9.24672 11.7469C7.95547 12.7138 6.81234 13.7338 5.83672 14.7857C4.50172 13.0101 3.87859 11.3588 4.05984 10.1176C4.41172 10.2732 4.79984 10.3601 5.20859 10.3601C6.71359 10.3601 7.94859 9.18943 8.05422 7.71131C8.86547 7.68943 9.77672 7.76443 10.7636 7.94131C12.3273 8.22131 13.9848 8.73318 15.6905 9.46381C15.7905 9.50693 15.8948 9.52693 15.9973 9.52693C16.3005 9.52693 16.5892 9.34943 16.7161 9.05318C16.8861 8.65631 16.7017 8.19756 16.3055 8.02756C14.8223 7.39256 13.3673 6.91193 11.968 6.59318C13.0548 4.04131 14.5286 2.54443 15.998 2.54443C17.623 2.54443 19.2536 4.37443 20.3598 7.43818C20.3598 7.43881 20.3605 7.43943 20.3605 7.44006C20.8992 8.93318 21.2848 10.6238 21.5055 12.4663C21.553 12.8632 21.8905 13.1544 22.2805 13.1544C22.3117 13.1544 22.343 13.1526 22.3742 13.1488C22.8023 13.0976 23.108 12.7082 23.0567 12.2801C22.8642 10.6776 22.5536 9.17756 22.1298 7.80693C22.6711 7.74131 23.1842 7.70818 23.6655 7.70818C25.578 7.70818 26.9805 8.22131 27.5992 9.18943C26.5405 9.60693 25.7892 10.6394 25.7892 11.8451C25.7892 12.6844 26.1536 13.4407 26.733 13.9632C26.4123 14.4626 26.033 14.9763 25.5936 15.4969L25.5961 15.4963Z" fill="#7BCD46"/>
</svg>
