<svg width="32" height="32" viewBox="0 0 32 32" fill="none" xmlns="http://www.w3.org/2000/svg">
<g clip-path="url(#clip0_1_28052)">
<path d="M31.1978 31.1125L29.5415 26.8562C28.554 24.3187 26.154 22.675 23.429 22.675H20.9977C20.6165 22.675 20.304 22.3625 20.304 21.9812V20.3625C22.354 18.1062 23.654 14.575 23.654 11.9437C23.654 11.75 23.6415 11.5625 23.629 11.375H25.0352C25.3978 11.375 25.6852 11.0812 25.6852 10.725C25.6852 10.3687 25.3915 10.075 25.0352 10.075H24.4352V9.9625C24.4352 6.225 21.9915 3.05625 18.6165 1.95C18.5665 0.8625 17.679 0 16.5852 0H15.4103C14.3228 0 13.429 0.8625 13.3853 1.94375C10.0103 3.05 7.5665 6.21875 7.5665 9.95625V10.0687H6.9665C6.604 10.0687 6.3165 10.3625 6.3165 10.7187C6.3165 11.075 6.61025 11.3687 6.9665 11.3687H8.37275C8.354 11.5562 8.34775 11.7437 8.34775 11.9375C8.34775 14.5687 9.64775 18.0938 11.6978 20.3562V21.975C11.6978 22.3562 11.3853 22.6687 11.004 22.6687H8.579C5.854 22.6687 3.454 24.3062 2.4665 26.85L0.810251 31.1062C0.679001 31.4437 0.847751 31.8187 1.179 31.95C1.52275 32.0812 1.89775 31.9125 2.02275 31.5812L3.679 27.325C4.47275 25.2937 6.39775 23.975 8.579 23.975H10.7853L15.3478 27.3312V31.3375C15.3478 31.7 15.6415 31.9875 15.9978 31.9875C16.354 31.9875 16.6477 31.6937 16.6477 31.3375V27.3312L21.2102 23.975H23.4165C25.5977 23.975 27.5228 25.2875 28.3165 27.3187L29.9727 31.575C30.104 31.9125 30.479 32.075 30.8165 31.9437C31.1602 31.825 31.329 31.4437 31.1978 31.1125ZM8.8665 9.95625C8.8665 6.95 10.7415 4.375 13.379 3.33125V5.775C13.379 6.1375 13.6728 6.43125 14.029 6.43125C14.3853 6.43125 14.6853 6.1375 14.6853 5.775V2.03125C14.6853 1.63125 15.0103 1.30625 15.4103 1.30625H16.5852C16.9853 1.30625 17.3102 1.63125 17.3102 2.03125V5.775C17.3102 6.1375 17.604 6.43125 17.9602 6.43125C18.3165 6.43125 18.6102 6.1375 18.6102 5.775V3.325C21.2477 4.36875 23.1165 6.94375 23.1165 9.95V10.0625H8.8665V9.95625ZM15.9978 26.2L12.3103 23.4875C12.729 23.1187 12.9978 22.5812 12.9978 21.9812V21.5375C13.9103 22.1937 14.9228 22.5875 16.004 22.5875C17.079 22.5875 18.0915 22.1937 19.004 21.5375V21.975C19.004 22.575 19.2728 23.1125 19.6915 23.4812L15.9978 26.2ZM9.679 11.375H22.3165C22.3353 11.5562 22.3477 11.7437 22.3477 11.9437C22.3477 15.5437 19.4415 21.2812 16.004 21.2812C12.5603 21.2812 9.654 15.5437 9.654 11.9437C9.64775 11.7437 9.66025 11.5562 9.679 11.375Z" fill="#FF6600"/>
</g>
<defs>
<clipPath id="clip0_1_28052">
<rect width="32" height="32" fill="white"/>
</clipPath>
</defs>
</svg>
