<svg width="26" height="28" viewBox="0 0 26 28" fill="none" xmlns="http://www.w3.org/2000/svg">
<path d="M25.1669 15.1856L21.8857 10.2637C21.7335 10.0355 21.4774 9.89844 21.2031 9.89844H4.79686C4.5226 9.89844 4.26645 10.0355 4.11431 10.2637L0.833057 15.1856C0.665276 15.4373 0.649635 15.7609 0.792369 16.0276C0.935104 16.2944 1.21314 16.4609 1.51561 16.4609H3.97655V27.1797C3.97655 27.6327 4.34383 28 4.79686 28H21.2031C21.6561 28 22.0234 27.6327 22.0234 27.1797V16.4609H24.4844C24.7869 16.4609 25.0649 16.2944 25.2076 16.0277C25.3503 15.7609 25.3347 15.4373 25.1669 15.1856ZM20.3828 26.3594H5.61717V16.4609H20.3828V26.3594ZM3.04839 14.8203L5.23589 11.5391H20.7641L22.9516 14.8203H3.04839ZM8.07811 24.7188H9.71874C10.1718 24.7188 10.539 24.3515 10.539 23.8984C10.539 23.4454 10.1718 23.0781 9.71874 23.0781H8.07811C7.62508 23.0781 7.2578 23.4454 7.2578 23.8984C7.2578 24.3515 7.62508 24.7188 8.07811 24.7188ZM12.42 8.01757C12.5802 8.17775 12.79 8.25781 13 8.25781C13.2099 8.25781 13.4199 8.17775 13.58 8.01757L16.8613 4.73632C17.0959 4.50171 17.166 4.14887 17.0391 3.84234C16.9121 3.53582 16.6131 3.33594 16.2812 3.33594H15.4609V0.820312C15.4609 0.367281 15.0936 0 14.6406 0H11.3594C10.9063 0 10.539 0.367281 10.539 0.820312V3.33594H9.71874C9.38695 3.33594 9.08781 3.53582 8.96088 3.84234C8.83395 4.14887 8.90411 4.50171 9.13872 4.73632L12.42 8.01757ZM12.1797 4.15625V1.64062H13.8203V4.15625C13.8203 4.508 14.0417 4.80807 14.3527 4.92466L13 6.27741L11.6472 4.92466C11.9583 4.80807 12.1797 4.508 12.1797 4.15625Z" fill="currentColor"/>
</svg>
