<svg width="32" height="32" viewBox="0 0 32 32" fill="none" xmlns="http://www.w3.org/2000/svg">
<g clip-path="url(#clip0_1_30973)">
<path d="M31.9961 14.2615C31.9866 13.8781 31.7434 13.5404 31.3838 13.4071C31.0243 13.2738 30.6186 13.3741 30.3615 13.6586C30.3554 13.6653 30.0591 13.9888 29.595 14.327C29.6774 14.0995 29.7543 13.859 29.8217 13.6072C30.4584 11.23 29.9672 8.98737 28.4016 7.12181C28.206 6.88881 27.9091 6.7655 27.6061 6.79062C27.3029 6.81556 27.0305 6.98656 26.8757 7.24844C26.2825 8.25218 25.2488 9.35256 24.7554 9.32243C24.6241 9.3145 24.3824 9.1035 24.1335 8.53512C22.5429 4.90256 24.0837 1.42481 24.0983 1.39268C24.2472 1.06981 24.2007 0.690497 23.9781 0.413185C23.7554 0.135872 23.3949 0.00830993 23.0478 0.0839974C22.9513 0.104935 20.6602 0.623497 18.4806 2.85812C17.2187 4.15187 16.2446 5.75993 15.5853 7.63756C14.9209 9.52987 14.5777 11.7016 14.5607 14.1109C14.122 13.7795 13.6445 13.2914 13.2767 12.5861C13.0907 12.2296 12.6982 12.0313 12.3008 12.0934C11.9036 12.1554 11.59 12.4639 11.5216 12.8602C11.5035 12.965 11.0862 15.4588 11.7434 18.2274C12.5396 21.5816 14.5536 23.8903 17.5999 24.9716C17.5694 25.0013 17.5397 25.0317 17.5101 25.0625H0.9375C0.41975 25.0625 0 25.4822 0 26V29.75C0 30.2677 0.41975 30.6875 0.9375 30.6875H17.5102C18.2499 31.4571 19.2883 31.9375 20.4375 31.9375H22.9375C25.1776 31.9375 27 30.1151 27 27.875C27 26.7159 26.5112 25.6694 25.7299 24.9286C26.8566 24.4581 27.8757 23.7719 28.7576 22.8796C30.8672 20.7451 32.0778 17.5234 31.9961 14.2615ZM21.5432 18.6667C21.3987 17.8304 21.5441 16.9641 21.7854 16.203C22.3007 17.2316 23.0711 17.9937 23.7746 18.5256C24.9592 19.4212 25.0896 20.9261 24.6933 22.0201C24.3729 22.9047 23.7716 23.8068 21.7462 23.8068C21.7291 23.8068 21.7117 23.8067 21.6944 23.8066C20.7401 23.7995 20.0444 23.5134 19.5675 22.9322C18.7992 21.9959 18.6933 20.4093 18.756 19.2812L20.3683 19.7295C20.6779 19.8156 21.0101 19.7371 21.2484 19.5215C21.4866 19.306 21.5979 18.9834 21.5432 18.6667ZM1.875 28.8125V26.9375H16.4854C16.4139 27.2387 16.375 27.5523 16.375 27.875C16.375 28.1977 16.4139 28.5113 16.4854 28.8125H1.875ZM22.9375 30.0625H20.4375C19.2313 30.0625 18.25 29.0812 18.25 27.875C18.25 26.6688 19.2313 25.6875 20.4375 25.6875H22.9375C24.1437 25.6875 25.125 26.6688 25.125 27.875C25.125 29.0812 24.1437 30.0625 22.9375 30.0625ZM26.5679 22.3104C27.0488 20.6069 26.7252 18.4059 24.9054 17.03C23.6138 16.0534 22.9963 14.8336 23.0701 13.4042C23.0916 12.9879 22.8357 12.6074 22.442 12.4704C22.0485 12.3334 21.6116 12.4727 21.3699 12.8124C21.2939 12.9192 19.7796 15.0786 19.6246 17.5766L18.2027 17.1813C17.9506 17.1112 17.681 17.1496 17.4587 17.2871C17.2362 17.4246 17.0814 17.6487 17.0314 17.9053C17.0054 18.0387 16.51 20.6746 17.3786 22.8476C15.4301 21.8901 14.1554 20.2153 13.5802 17.8464C13.3761 17.0054 13.2886 16.1836 13.2612 15.4697C14.2816 16.2936 15.2389 16.5466 15.3009 16.5624C15.5893 16.6354 15.8951 16.5676 16.1252 16.3793C16.3555 16.1909 16.4826 15.9046 16.4679 15.6075C16.2248 10.6805 17.3582 6.75225 19.7456 4.24731C20.4443 3.51425 21.1595 2.99862 21.7726 2.64231C21.438 4.28243 21.2953 6.72781 22.416 9.287C23.0753 10.7929 23.9918 11.1552 24.6446 11.194C24.6859 11.1965 24.7268 11.1977 24.7679 11.1977C25.9317 11.1976 26.9766 10.2283 27.6704 9.37575C28.2499 10.4963 28.3696 11.7325 28.0254 13.0652C27.6653 14.4595 26.9174 15.4503 26.9098 15.4601C26.6909 15.7451 26.6541 16.1301 26.8152 16.4514C26.9766 16.7735 27.3109 16.9747 27.6689 16.9686C28.5386 16.9541 29.3336 16.6579 29.9869 16.2943C29.6583 18.3296 28.7564 20.2133 27.4239 21.5614C27.1524 21.8364 26.8669 22.0858 26.5679 22.3104Z" fill="#FF6600"/>
</g>
<defs>
<clipPath id="clip0_1_30973">
<rect width="32" height="32" fill="white"/>
</clipPath>
</defs>
</svg>
