<svg width="32" height="32" viewBox="0 0 32 32" fill="none" xmlns="http://www.w3.org/2000/svg">
<path d="M31.0625 29.1252H28.1875V19.5906C29.1573 19.9327 30.3069 19.733 31.1136 18.9263C32.2129 17.827 32.2131 16.0486 31.1136 14.9492L26.3125 10.148V3.81271C26.3125 3.29496 25.8927 2.87521 25.375 2.87521H21.625C21.1073 2.87521 20.6875 3.29496 20.6875 3.81271V4.52303L17.9886 1.82409C16.8892 0.724715 15.1108 0.72459 14.0114 1.82409L0.886375 14.9491C-0.213 16.0484 -0.213125 17.8268 0.886375 18.9263C1.69006 19.73 2.83875 19.934 3.81244 19.5905V29.1252H0.9375C0.41975 29.1252 0 29.545 0 30.0627C0 30.5805 0.41975 31.0002 0.9375 31.0002C1.5445 31.0002 30.4219 31.0002 31.0625 31.0002C31.5802 31.0002 32 30.5805 32 30.0627C32 29.545 31.5802 29.1252 31.0625 29.1252ZM22.5625 4.75021H24.4375V8.27303L22.5625 6.39803V4.75021ZM3.53775 17.6005C3.17231 17.9659 2.57769 17.9659 2.21225 17.6005C1.84569 17.2339 1.84562 16.6417 2.21225 16.275L15.3372 3.14996C15.7039 2.7834 16.2961 2.78334 16.6628 3.14996C17.4836 3.97071 29.4112 15.8983 29.7878 16.275C30.1544 16.6416 30.1544 17.2338 29.7878 17.6005C29.4212 17.9671 28.8289 17.9672 28.4622 17.6005C28.1437 17.282 17.5623 6.70059 16.6629 5.80121C16.2969 5.43509 15.7032 5.43509 15.3371 5.80121C14.7598 6.37853 4.32775 16.8105 3.53775 17.6005ZM26.3125 29.1252H5.6875V18.1024L16 7.7899L26.3125 18.1024V29.1252Z" fill="#007BFF"/>
<path d="M20.2976 20.689L16.8592 12.8129C16.7101 12.4713 16.3727 12.2505 16 12.2505C15.6273 12.2505 15.2899 12.4713 15.1408 12.8129L11.7025 20.6888C11.4437 21.2812 11.3125 21.9118 11.3125 22.563C11.3125 25.1477 13.4153 27.2505 16 27.2505C18.5847 27.2505 20.6875 25.1477 20.6875 22.563C20.6875 21.9119 20.5563 21.2814 20.2976 20.689ZM16 25.3755C14.4492 25.3755 13.1875 24.1138 13.1875 22.563C13.1875 22.1717 13.2659 21.7936 13.4208 21.4392L16 15.5312L18.5792 21.4391L18.5793 21.4393C18.734 21.7936 18.8124 22.1717 18.8124 22.563C18.8125 24.1138 17.5508 25.3755 16 25.3755Z" fill="#007BFF"/>
</svg>
