<svg width="32" height="32" viewBox="0 0 32 32" fill="none" xmlns="http://www.w3.org/2000/svg">
<path d="M19.8086 13.9586C20.1305 13.9586 20.4451 13.8632 20.7127 13.6843C20.9803 13.5055 21.1889 13.2514 21.3121 12.954C21.4352 12.6566 21.4675 12.3294 21.4047 12.0138C21.3419 11.6981 21.1869 11.4081 20.9593 11.1805C20.7317 10.953 20.4417 10.798 20.126 10.7352C19.8104 10.6724 19.4832 10.7046 19.1858 10.8278C18.8884 10.951 18.6343 11.1596 18.4555 11.4272C18.2767 11.6948 18.1812 12.0094 18.1813 12.3313C18.1818 12.7627 18.3534 13.1764 18.6584 13.4814C18.9635 13.7865 19.3772 13.9581 19.8086 13.9586ZM19.8092 12.3336C19.8088 12.3324 19.8078 12.3285 19.8078 12.3285L19.8092 12.3336ZM16 3C8.83177 3 3 8.83177 3 16C3 23.1682 8.83177 29 16 29C23.1682 29 29 23.1682 29 16C29 8.83177 23.1682 3 16 3ZM16 27.375C9.7278 27.375 4.625 22.2722 4.625 16C4.625 9.7278 9.7278 4.625 16 4.625C22.2722 4.625 27.375 9.7278 27.375 16C27.375 22.2722 22.2722 27.375 16 27.375ZM12.1914 13.9586C12.5133 13.9586 12.8279 13.8632 13.0955 13.6843C13.3631 13.5055 13.5717 13.2514 13.6949 12.954C13.818 12.6566 13.8503 12.3294 13.7875 12.0138C13.7247 11.6981 13.5697 11.4081 13.3421 11.1805C13.1145 10.953 12.8245 10.798 12.5089 10.7352C12.1932 10.6724 11.866 10.7046 11.5686 10.8278C11.2713 10.951 11.0171 11.1596 10.8383 11.4272C10.6595 11.6948 10.5641 12.0094 10.5641 12.3313C10.5646 12.7627 10.7362 13.1764 11.0413 13.4814C11.3463 13.7865 11.76 13.9581 12.1914 13.9586ZM12.192 12.3336C12.1917 12.3324 12.1906 12.3285 12.1906 12.3285L12.192 12.3336ZM22.4255 16.831H9.57445C9.37831 16.831 9.1888 16.9019 9.04088 17.0307C8.89296 17.1595 8.79663 17.3375 8.76966 17.5318C8.74206 17.7309 8.72818 17.9317 8.72813 18.1328C8.72813 19.6674 9.51757 21.0934 10.951 22.1482C12.3095 23.148 14.1026 23.6984 16 23.6984C17.8974 23.6984 19.6905 23.1479 21.049 22.1482C22.4824 21.0934 23.2719 19.6675 23.2719 18.1328C23.2718 17.9317 23.2579 17.7309 23.2303 17.5317C23.2033 17.3375 23.1069 17.1596 22.959 17.0308C22.8111 16.902 22.6216 16.8311 22.4255 16.8311V16.831ZM20.0859 20.8395C19.0042 21.6352 17.5533 22.0734 15.9999 22.0734C14.4466 22.0734 12.9955 21.6351 11.914 20.8395C11.016 20.1786 10.4779 19.3422 10.3723 18.4561H21.6276C21.522 19.3422 20.9839 20.1786 20.0859 20.8395Z" fill="#7BCD46"/>
</svg>
