<svg width="40" height="40" viewBox="0 0 40 40" fill="none" xmlns="http://www.w3.org/2000/svg">
<path d="M40 14.8032C40 11.2039 38.5983 7.81982 36.0529 5.27496C33.508 2.7298 30.1242 1.32812 26.525 1.32812C24.2032 1.32812 21.9717 1.91223 19.9966 3.00903C17.5879 1.67847 14.7876 1.10992 12.0309 1.40564C8.98651 1.73187 6.11572 3.10608 3.94684 5.27496C1.40167 7.82013 0 11.2042 0 14.8035C0 18.4027 1.40167 21.7868 3.94684 24.332C3.94775 24.3326 3.94867 24.3335 3.94928 24.3341C4.75128 25.1349 5.81696 25.5759 6.95038 25.5759C6.98608 25.5759 7.02148 25.5743 7.05719 25.5734C7.02972 26.6959 7.44202 27.8271 8.29651 28.6816C9.09912 29.4839 10.1657 29.9258 11.3 29.9258C11.3351 29.9258 11.3699 29.924 11.405 29.9234C11.4041 29.9582 11.4026 29.993 11.4026 30.0281C11.4026 31.1624 11.8442 32.2293 12.6465 33.0313C13.4488 33.8336 14.5154 34.2758 15.65 34.2758H15.6503C15.6851 34.2758 15.7199 34.274 15.7547 34.2731C15.7541 34.3082 15.7523 34.3427 15.7523 34.3777C15.7523 35.5124 16.1942 36.579 16.9965 37.3813C17.7988 38.1836 18.8654 38.6255 20 38.6255C21.1343 38.6255 22.2009 38.1836 23.0032 37.3813L27.3529 33.0316C28.1552 32.2293 28.5971 31.1627 28.5971 30.0281C28.5971 29.9924 28.5956 29.957 28.5947 29.9213C28.6295 29.9222 28.6646 29.9237 28.6996 29.9237C29.7873 29.9237 30.8752 29.5099 31.7032 28.6816C32.5055 27.8793 32.9474 26.8127 32.9474 25.6781C32.9474 25.6424 32.9456 25.607 32.9446 25.5716C32.9797 25.5722 33.0145 25.574 33.0496 25.574C34.137 25.5737 35.2249 25.1599 36.0529 24.3323C36.0529 24.332 36.0532 24.332 36.0532 24.3317C38.5983 21.7865 40 18.4027 40 14.8032ZM34.3958 6.93207C36.4984 9.03473 37.6562 11.8298 37.6562 14.8035C37.6562 16.3522 37.3413 17.8528 36.7432 19.2322C36.5588 18.9072 36.3297 18.6011 36.0529 18.3246L25.1791 7.45117C25.1788 7.45087 25.1785 7.45026 25.1782 7.44995C24.7205 6.99249 23.9786 6.99249 23.5208 7.44995L19.1711 11.7999C18.8113 12.1597 18.3331 12.3578 17.8247 12.3578C17.3163 12.3578 16.8384 12.1597 16.4789 11.8002C15.7364 11.0574 15.7364 9.84985 16.4789 9.10736L18.6536 6.93237C19.2435 6.34247 19.8877 5.82733 20.575 5.39093C20.585 5.38544 20.5945 5.37872 20.6042 5.37292C22.3608 4.26514 24.3973 3.67218 26.525 3.67218C29.498 3.67188 32.2934 4.82971 34.3958 6.93207ZM6.95038 23.2321C6.44196 23.2321 5.96375 23.0341 5.60425 22.6746C4.86206 21.9321 4.86206 20.7242 5.60425 19.9817L9.95422 15.6323C10.3137 15.2725 10.7916 15.0745 11.3 15.0745C11.8088 15.0745 12.287 15.2725 12.6465 15.6323C13.3887 16.3745 13.3887 17.5824 12.6465 18.3249L8.29651 22.6746C8.2962 22.6749 8.2962 22.6749 8.2962 22.6749C7.93671 23.0344 7.4588 23.2321 6.95038 23.2321ZM11.3 27.5821C10.7916 27.5821 10.3134 27.384 9.95392 27.0245C9.21173 26.282 9.21173 25.0742 9.95392 24.3317L14.3039 19.982C14.6637 19.6222 15.1416 19.4241 15.65 19.4241C16.1584 19.4241 16.6367 19.6222 16.9962 19.9817C17.7386 20.7242 17.7386 21.9324 16.9962 22.6746L12.6468 27.0242C12.287 27.384 11.8088 27.5821 11.3 27.5821ZM15.6503 31.9321C15.1416 31.9321 14.6637 31.734 14.3039 31.3742C13.9444 31.0144 13.7463 30.5365 13.7463 30.0278C13.746 29.5193 13.9441 29.0414 14.3039 28.6816L18.6536 24.332C19.0131 23.9722 19.4913 23.7744 19.9997 23.7744C20.5072 23.7744 20.9845 23.9716 21.3437 24.3295C21.3446 24.3304 21.3452 24.3314 21.3461 24.332L21.3495 24.3353C22.0883 25.0781 22.0871 26.2836 21.3461 27.0248L16.9965 31.3742C16.637 31.734 16.1588 31.9321 15.6503 31.9321ZM26.2534 30.0281C26.2534 30.5365 26.0553 31.0147 25.6958 31.3742L21.3461 35.7242C20.9863 36.0837 20.5084 36.2817 20 36.2817C19.4916 36.2817 19.0134 36.0837 18.6536 35.7239C18.2941 35.3644 18.096 34.8862 18.096 34.3777C18.096 33.8693 18.2941 33.3911 18.6539 33.0316L23.0035 28.6819C23.0035 28.6816 23.0038 28.6813 23.0042 28.681C23.364 28.3218 23.8416 28.1241 24.35 28.1241C24.8569 28.1241 25.3336 28.3209 25.6927 28.6786L25.6958 28.6816L25.6973 28.6832C26.0559 29.0427 26.2534 29.5203 26.2534 30.0281ZM31.7029 22.6746L27.3532 18.3249C26.8958 17.8671 26.1536 17.8671 25.6961 18.3249C25.2383 18.7823 25.2383 19.5245 25.6961 19.982L30.0458 24.332C30.4056 24.6915 30.6036 25.1697 30.6036 25.6781C30.6036 26.1868 30.4056 26.6647 30.0461 27.0242C29.3039 27.7664 28.0969 27.7667 27.3541 27.0258C27.3538 27.0251 27.3535 27.0248 27.3529 27.0242C27.3517 27.023 27.3502 27.0218 27.3489 27.0206L23.0106 22.6822C23.0081 22.6794 23.006 22.677 23.0032 22.6746C22.2006 21.8723 21.134 21.4304 19.9997 21.4304C19.964 21.4304 19.9286 21.4322 19.8932 21.4331C19.9207 20.3107 19.5081 19.1794 18.6536 18.3246C17.8513 17.5223 16.7847 17.0807 15.65 17.0807C15.6143 17.0807 15.5789 17.0822 15.5435 17.0831C15.571 15.9607 15.1584 14.8294 14.3039 13.9749C13.5016 13.1726 12.4347 12.7307 11.3004 12.7307C10.1657 12.7307 9.09882 13.1726 8.29681 13.9749L3.94714 18.3246C3.67035 18.6011 3.44116 18.9072 3.25684 19.2322C2.65869 17.8525 2.34375 16.3522 2.34375 14.8035C2.34375 11.8301 3.50159 9.03473 5.60394 6.93237C8.8678 3.66821 13.6728 2.78595 17.7954 4.53766C17.5211 4.77173 17.2543 5.01709 16.9965 5.27496L14.8215 7.44995C13.1653 9.10583 13.1653 11.8005 14.8212 13.457C15.6235 14.2593 16.6901 14.7012 17.8247 14.7012C18.959 14.7012 20.0259 14.2593 20.8282 13.4573L24.3494 9.93591L34.3954 19.982C35.1376 20.7242 35.1379 21.9318 34.3961 22.6743H34.3958C34.3958 22.6746 34.3958 22.6746 34.3954 22.6746C33.6533 23.4167 32.4454 23.4167 31.7029 22.6746Z" fill="#FFA800"/>
</svg>
