<svg width="28" height="28" viewBox="0 0 28 28" fill="none" xmlns="http://www.w3.org/2000/svg">
<g clip-path="url(#clip0_1_24059)">
<path d="M13.6157 21.5343C15.371 20.5882 16.4614 18.6907 16.4614 16.5822V14.8211H17.2817C17.5925 14.8211 17.8765 14.6455 18.0155 14.3676L21.2969 7.80475C21.3843 7.63013 21.4064 7.43002 21.3595 7.24046L19.7187 0.622923C19.628 0.25699 19.2995 0 18.9225 0H9.07824C8.7012 0 8.37273 0.25699 8.282 0.622923L6.64129 7.24046C6.59431 7.43002 6.61646 7.63013 6.7038 7.80475L9.98522 14.3676C10.1242 14.6455 10.4083 14.8211 10.719 14.8211H11.5394V16.5822C11.5394 16.8935 11.4067 17.1329 11.282 17.2001C8.72127 18.5779 7.60231 21.6127 8.65187 24.3785C9.27392 26.0177 10.7146 27.3233 12.4118 27.7858C14.1894 28.2702 16.0387 27.9261 17.481 26.8242C18.9185 25.726 19.7429 24.062 19.7429 22.259C19.7429 21.8059 19.3756 21.4386 18.9226 21.4386H18.1155C16.9147 21.4386 15.7361 21.9163 14.5123 22.8991C14.4098 22.9813 14.2379 23.0793 14.0004 23.0793C13.5481 23.0793 13.1801 22.7113 13.1801 22.259C13.18 21.9564 13.3466 21.6789 13.6157 21.5343ZM11.2259 13.1804L8.30656 7.34164L9.72003 1.64071H18.2807L19.6941 7.34164L16.7748 13.1804H11.2259ZM14.0004 24.7201C14.5579 24.7201 15.1045 24.5276 15.5395 24.1784C16.4246 23.4677 17.2372 23.108 18.0203 23.081C17.8254 24.0439 17.2895 24.9057 16.485 25.5204C15.458 26.305 14.1306 26.5536 12.8431 26.2029C11.6432 25.8759 10.625 24.9539 10.1859 23.7965C9.4293 21.8028 10.2173 19.6362 12.0596 18.6449C12.7508 18.2728 13.1801 17.4825 13.1801 16.5822V14.8211H14.8208V16.5822C14.8208 18.0864 14.0608 19.4306 12.8383 20.0895C12.0372 20.5201 11.5394 21.3514 11.5394 22.259C11.5393 23.616 12.6433 24.7201 14.0004 24.7201ZM14.0004 6.61754C12.6433 6.61754 11.5393 7.72157 11.5393 9.0786C11.5393 10.4356 12.6433 11.5397 14.0004 11.5397C15.3574 11.5397 16.4614 10.4356 16.4614 9.0786C16.4614 7.72157 15.3574 6.61754 14.0004 6.61754ZM14.0004 9.89896C13.548 9.89896 13.18 9.53095 13.18 9.0786C13.18 8.62626 13.548 8.25825 14.0004 8.25825C14.4527 8.25825 14.8207 8.62626 14.8207 9.0786C14.8207 9.53095 14.4527 9.89896 14.0004 9.89896Z" fill="currentColor"/>
</g>
<defs>
<clipPath id="clip0_1_24059">
<rect width="28" height="28" fill="currentColor"/>
</clipPath>
</defs>
</svg>
