<svg width="60" height="60" viewBox="0 0 60 60" fill="none" xmlns="http://www.w3.org/2000/svg">
<path d="M44.9354 46.3974C44.7862 46.3974 44.6363 46.3544 44.5051 46.2662L40.3794 43.4897C39.9136 43.7734 39.4304 44.0397 38.9363 44.284C38.5542 44.4724 38.0932 44.3171 37.9043 43.9356C37.7153 43.5544 37.8712 43.0922 38.2527 42.9035C38.8485 42.6084 39.428 42.2789 39.975 41.9244C40.2325 41.7566 40.5677 41.7596 40.8241 41.9317L44.8391 44.6339L48.2127 41.2607L45.5101 37.2454C45.338 36.9899 45.335 36.6562 45.5023 36.3975C46.6992 34.5452 47.5465 32.5055 48.0219 30.3346C48.0875 30.0349 48.324 29.8029 48.6249 29.7433L53.3777 28.8061V24.0334L48.6249 23.0962C48.324 23.0366 48.0875 22.8046 48.0219 22.5049C47.5465 20.334 46.6992 18.2943 45.5023 16.442C45.335 16.1833 45.338 15.8496 45.5101 15.5941L48.2127 11.5788L44.8391 8.20556L40.8241 10.9078C40.5683 11.0796 40.2349 11.0832 39.9756 10.9157C38.1227 9.71872 36.0833 8.87113 33.9127 8.39633C33.6136 8.33073 33.3813 8.09363 33.3218 7.79275L32.3848 3.04054H27.6115L26.6746 7.79275C26.615 8.09363 26.3827 8.33073 26.0836 8.39633C23.913 8.87113 21.8736 9.71872 20.0208 10.9157C19.7614 11.0832 19.428 11.0796 19.1723 10.9078L15.1572 8.20556L11.7837 11.5788L14.4863 15.5941C14.6584 15.8496 14.6614 16.1833 14.4941 16.442C13.2971 18.2943 12.4499 20.334 11.9745 22.5049C11.9089 22.8046 11.6724 23.0366 11.3715 23.0962L6.61867 24.0334V28.8061L11.3715 29.7433C11.6724 29.8029 11.9089 30.0349 11.9745 30.3346C12.4499 32.5055 13.2971 34.5452 14.4941 36.3975C14.6614 36.6562 14.6584 36.9899 14.4863 37.2454L11.7837 41.2607L15.1572 44.6339L19.1723 41.9317C19.428 41.7596 19.762 41.7566 20.0214 41.9244C20.5684 42.2789 21.1479 42.6084 21.7436 42.9035C22.1252 43.0922 22.281 43.5544 22.0921 43.9356C21.9031 44.3168 21.4416 44.4721 21.06 44.284C20.566 44.0397 20.0827 43.7734 19.617 43.4897L15.4912 46.2662C15.1861 46.4724 14.7769 46.4332 14.5163 46.1718L10.2462 41.9016C9.98559 41.641 9.94587 41.2327 10.1517 40.927L12.9283 36.8009C11.8613 35.0534 11.0748 33.1596 10.5844 31.1584L5.69916 30.195C5.33809 30.1237 5.07812 29.8071 5.07812 29.4391V23.4003C5.07812 23.0324 5.33809 22.7158 5.69916 22.6445L10.5844 21.6811C11.0748 19.6799 11.8613 17.7861 12.9283 16.0386L10.1517 11.9128C9.94587 11.6074 9.98559 11.1988 10.2462 10.9382L14.5163 6.66773C14.7769 6.40686 15.1855 6.36745 15.4912 6.57325L19.617 9.35014C21.3651 8.28289 23.2589 7.49637 25.2592 7.00593L26.2226 2.12133C26.2937 1.76027 26.6108 1.5 26.9785 1.5H33.0179C33.3856 1.5 33.7027 1.76027 33.7737 2.12133L34.7371 7.00593C36.7374 7.49637 38.6312 8.28289 40.3794 9.35014L44.5051 6.57325C44.8114 6.36775 45.22 6.40686 45.48 6.66773L49.7502 10.9382C50.0108 11.1988 50.0505 11.6074 49.8447 11.9128L47.0681 16.0386C48.135 17.7861 48.9216 19.6799 49.412 21.6811L54.2972 22.6445C54.6583 22.7158 54.9182 23.0324 54.9182 23.4003V29.4391C54.9182 29.8071 54.6583 30.1237 54.2972 30.195L49.412 31.1584C48.9216 33.1596 48.135 35.0534 47.0681 36.8009L49.8447 40.927C50.0505 41.2327 50.0108 41.641 49.7502 41.9016L45.48 46.1718C45.3314 46.3207 45.134 46.3974 44.9354 46.3974Z" fill="#FF6600"/>
<path d="M34.2808 58.4998C33.8553 58.4998 33.5105 58.155 33.5105 57.7296V36.4033C33.5105 36.0958 33.6935 35.8178 33.9757 35.6959C37.6868 34.0958 40.0849 30.4551 40.0849 26.4205C40.0849 23.0187 38.4108 19.9207 35.642 18.0655V25.6466C35.642 27.4754 34.1544 28.963 32.3256 28.963H27.6715C25.8427 28.963 24.3551 27.4754 24.3551 25.6466V18.0652C21.5858 19.921 19.9116 23.0187 19.9116 26.4205C19.9116 30.4548 22.3097 34.0958 26.0208 35.6959C26.3031 35.8178 26.486 36.0958 26.486 36.4033V57.7296C26.486 58.155 26.1412 58.4998 25.7157 58.4998C25.2903 58.4998 24.9455 58.155 24.9455 57.7296V36.898C20.9346 34.9576 18.3711 30.8995 18.3711 26.4205C18.3711 21.9969 20.8269 18.0188 24.7806 16.0387C25.0195 15.9189 25.3029 15.9316 25.5304 16.0721C25.7573 16.2123 25.8957 16.4602 25.8957 16.7274V25.6466C25.8957 26.6257 26.6924 27.4224 27.6715 27.4224H32.3256C33.3047 27.4224 34.1015 26.6257 34.1015 25.6466V16.7274C34.1015 16.4602 34.2399 16.2123 34.4667 16.0721C34.6948 15.9316 34.9776 15.9189 35.2165 16.0387C39.1696 18.0185 41.6254 21.9966 41.6254 26.4205C41.6254 30.8998 39.0619 34.9579 35.0511 36.898V57.7296C35.0511 58.155 34.7062 58.4998 34.2808 58.4998Z" fill="#FF6600"/>
<path d="M29.9968 52.954C29.5714 52.954 29.2266 52.6092 29.2266 52.1838V40.6502C29.2266 40.2247 29.5714 39.8799 29.9968 39.8799C30.4223 39.8799 30.7671 40.2247 30.7671 40.6502V52.1838C30.7671 52.6092 30.4223 52.954 29.9968 52.954Z" fill="#FF6600"/>
</svg>
