<svg width="32" height="32" viewBox="0 0 32 32" fill="none" xmlns="http://www.w3.org/2000/svg">
<g clip-path="url(#clip0_1_28041)">
<path d="M31.6812 12.1563L29.2687 8.50635C28.3375 7.09385 26.7688 6.2501 25.075 6.2501H21.5812V4.56885C21.5812 3.20635 20.475 2.1001 19.1125 2.1001H12.8813C11.5188 2.1001 10.4125 3.20635 10.4125 4.56885V6.2501H6.91875C5.225 6.2501 3.6625 7.09385 2.725 8.50635L0.31875 12.1563C0.1125 12.4688 0 12.8376 0 13.2126V15.7876C0 16.7501 0.7125 17.5438 1.6375 17.6813V26.5813C1.6375 28.4126 3.125 29.9063 4.9625 29.9063H27.0438C28.875 29.9063 30.3687 28.4188 30.3687 26.5813V17.6813C31.2937 17.5438 32.0062 16.7501 32.0062 15.7876V13.2126C32 12.8313 31.8875 12.4688 31.6812 12.1563ZM11.725 4.56885C11.725 3.93135 12.2437 3.40635 12.8875 3.40635H19.1187C19.7625 3.40635 20.2812 3.9251 20.2812 4.56885V6.2501H11.725V4.56885ZM29.0562 26.5751C29.0562 27.6876 28.15 28.5938 27.0375 28.5938H4.9625C3.85 28.5938 2.94375 27.6876 2.94375 26.5751V17.7001H5.08125V18.9001C5.08125 20.3751 6.28125 21.5751 7.75625 21.5751C9.23125 21.5751 10.4312 20.3751 10.4312 18.9001V17.7001H21.5562V18.9001C21.5562 20.3751 22.7563 21.5751 24.2313 21.5751C25.7063 21.5751 26.9062 20.3751 26.9062 18.9001V17.7001H29.0438V26.5751H29.0562ZM6.3875 18.9001V15.5001C6.3875 15.4751 6.40625 15.4563 6.425 15.4563H9.0875C9.1125 15.4563 9.13125 15.4751 9.13125 15.5001V18.9001C9.13125 19.6563 8.51875 20.2688 7.7625 20.2688C7.00625 20.2751 6.3875 19.6563 6.3875 18.9001ZM22.8687 18.9001V15.5001C22.8687 15.4751 22.8875 15.4563 22.9125 15.4563H25.575C25.6 15.4563 25.6125 15.4751 25.6125 15.5001V18.9001C25.6125 19.6563 25 20.2688 24.2437 20.2688C23.4875 20.2751 22.8687 19.6563 22.8687 18.9001ZM30.6938 15.7876C30.6938 16.1251 30.4187 16.3938 30.0875 16.3938H26.9188V15.5001C26.9188 14.7563 26.3125 14.1501 25.575 14.1501H22.9125C22.1688 14.1501 21.5625 14.7563 21.5625 15.5001V16.3938H10.4375V15.5001C10.4375 14.7563 9.83125 14.1501 9.0875 14.1501H6.425C5.68125 14.1501 5.08125 14.7563 5.08125 15.5001V16.3938H1.9125C1.575 16.3938 1.30625 16.1188 1.30625 15.7876V13.2126C1.30625 13.0938 1.34375 12.9751 1.40625 12.8751L3.81875 9.2251C4.50625 8.18135 5.66875 7.55635 6.91875 7.55635H25.075C26.325 7.55635 27.4875 8.18135 28.175 9.2251L30.5875 12.8751C30.6562 12.9751 30.6875 13.0876 30.6875 13.2126L30.6938 15.7876Z" fill="#FF6600"/>
</g>
<defs>
<clipPath id="clip0_1_28041">
<rect width="32" height="32" fill="white"/>
</clipPath>
</defs>
</svg>
