<svg width="28" height="28" viewBox="0 0 28 28" fill="none" xmlns="http://www.w3.org/2000/svg">
<path d="M18.6816 17.5215C18.3613 17.2011 17.8419 17.2011 17.5215 17.5215C17.2011 17.8419 17.2011 18.3612 17.5215 18.6816L19.1621 20.3222C19.3223 20.4824 19.5322 20.5625 19.7422 20.5625C19.9521 20.5625 20.1621 20.4824 20.3222 20.3223L23.6035 17.041C23.9238 16.7206 23.9238 16.2013 23.6035 15.8809C23.2831 15.5606 22.7637 15.5606 22.4434 15.8809L19.7422 18.5821L18.6816 17.5215ZM27.3771 9.92255L20.7599 8.28193C20.6297 8.24966 20.4935 8.24983 20.3635 8.28231L18.1016 8.84778V0.820312C18.1016 0.367281 17.7343 0 17.2812 0H0.820312C0.367281 0 0 0.367281 0 0.820312V17.2812C0 17.7343 0.367281 18.1016 0.820312 18.1016H13.1823C13.2584 23.8161 17.1845 27.1545 20.3573 27.9739C20.4246 27.9913 20.4935 28 20.5625 28C20.6309 28 20.6993 27.9915 20.7661 27.9744C23.498 27.2743 28 24.2335 28 17.9211V10.7188C28 10.3417 27.743 10.0133 27.3771 9.92255ZM8.25781 1.64062H9.89844V3.28125H8.25781V1.64062ZM13.1797 10.7188V16.4609H1.64062V1.64062H6.61719V4.10156C6.61719 4.55459 6.98447 4.92188 7.4375 4.92188H10.7188C11.1718 4.92188 11.5391 4.55459 11.5391 4.10156V1.64062H16.4609V9.25794L13.801 9.92288C13.4359 10.0142 13.1797 10.3423 13.1797 10.7188ZM26.3594 17.9211C26.3594 22.3594 23.7594 25.2493 20.562 26.3219C17.6788 25.3556 14.8203 22.6498 14.8203 17.9211V11.3593L20.5633 9.92348L26.3594 11.3605V17.9211ZM5.79688 13.1797H4.10156C3.64853 13.1797 3.28125 13.547 3.28125 14C3.28125 14.453 3.64853 14.8203 4.10156 14.8203H5.79688C6.24991 14.8203 6.61719 14.453 6.61719 14C6.61719 13.547 6.24991 13.1797 5.79688 13.1797Z" fill="currentColor"/>
</svg>
