<svg width="40" height="40" viewBox="0 0 40 40" fill="none" xmlns="http://www.w3.org/2000/svg">
<g clip-path="url(#clip0_1_30359)">
<path d="M39.8764 38.3041L33.6005 25.752C33.4018 25.3549 32.9959 25.1044 32.5522 25.1044C32.1085 25.1044 31.7026 25.3549 31.5039 25.752L29.7281 29.3042L21.1719 12.1921V8.62H27.5315C28.1784 8.62 28.7033 8.09509 28.7033 7.44812V1.17188C28.7033 0.524597 28.1784 0 27.5315 0H20C19.3527 0 18.8281 0.524597 18.8281 1.17188V12.1921L13.4104 23.0283L11.6342 19.476C11.4356 19.079 11.03 18.8281 10.586 18.8281C10.1422 18.8281 9.73634 19.079 9.53767 19.476L0.123612 38.3041C-0.0579672 38.6673 -0.038436 39.0988 0.175187 39.4443C0.388505 39.7897 0.765702 40 1.17189 40H38.8281C39.2343 40 39.6115 39.7897 39.8251 39.4443C40.0385 39.0988 40.058 38.6673 39.8764 38.3041ZM20 15.0891L21.8695 18.8281H18.1305L20 15.0891ZM21.1719 2.34375H26.3596V6.27625H21.1719V2.34375ZM16.9586 21.1719H23.0414L28.4177 31.9244L25.5521 37.6562H20.7242L14.7205 25.6485L16.9586 21.1719ZM3.06795 37.6562L10.586 22.6205L18.104 37.6562H3.06795ZM28.1723 37.6562L32.5522 28.8965L36.9321 37.6562H28.1723Z" fill="#FFA800"/>
</g>
<defs>
<clipPath id="clip0_1_30359">
<rect width="40" height="40" fill="white"/>
</clipPath>
</defs>
</svg>
