<svg width="32" height="32" viewBox="0 0 32 32" fill="none" xmlns="http://www.w3.org/2000/svg">
<g clip-path="url(#clip0_1_25110)">
<path d="M30.6292 19.4489C30.5817 19.4014 25.465 14.2784 13.2118 2.02531C10.6478 -0.538686 6.4973 -0.541124 3.92949 2.02662L0.822811 5.14574C-0.273812 6.2423 -0.273812 8.02667 0.820061 9.12055L2.25956 10.572C2.44525 10.7949 2.7095 10.9113 2.98662 10.9113H4.7008V12.6255C4.7008 13.1432 5.12055 13.563 5.6383 13.563H7.35255V15.2772C7.35255 15.7949 7.7723 16.2147 8.29005 16.2147H10.0043V17.9289C10.0043 18.4467 10.424 18.8664 10.9418 18.8664H12.656V20.5806C12.656 21.0837 13.0531 21.4971 13.5558 21.5173L15.3666 21.59V22.8042C14.4851 23.9074 14.5545 25.5255 15.576 26.5469L19.5536 30.5245C21.3857 32.3566 24.3508 32.3567 26.183 30.5245L30.6293 26.0781C32.4569 24.2505 32.4569 21.2766 30.6292 19.4489ZM2.98599 8.64173L2.14868 7.79749C1.78312 7.43192 1.78312 6.83717 2.15 6.4703L5.25662 3.35118C7.08867 1.51918 10.0537 1.51906 11.8859 3.35118L23.3401 14.8053L22.0113 16.1341L10.7413 4.86393C9.64217 3.76474 7.86299 3.76462 6.76374 4.86393L2.98599 8.64173ZM14.531 19.68V17.9288C14.531 17.4111 14.1112 16.9913 13.5935 16.9913H11.8793V15.2771C11.8793 14.7593 11.4595 14.3396 10.9418 14.3396H9.22755V12.6254C9.22755 12.1077 8.8078 11.6879 8.29005 11.6879H6.5758V9.97373C6.5758 9.45598 6.15605 9.03623 5.6383 9.03623H5.24312L8.08961 6.18974C8.45592 5.82336 9.04892 5.82336 9.41542 6.18974L20.6855 17.4598L17.2415 20.9037V20.6894C17.2415 20.1863 16.8444 19.7728 16.3417 19.7526L14.531 19.68ZM29.3034 24.7523L24.857 29.1987C23.7578 30.2979 21.9788 30.298 20.8793 29.1987L16.9017 25.2211C16.6229 24.9423 16.5575 24.5302 16.7041 24.1881C17.3762 23.3888 16.2553 24.5417 24.6627 16.1343L29.3033 20.7748C30.3999 21.8713 30.3999 23.6557 29.3034 24.7523Z" fill="#007BFF"/>
<path d="M27.9798 22.1L25.3281 19.4483C24.9623 19.0824 24.3683 19.0822 24.0022 19.4483L19.5558 23.8947C19.1897 24.2607 19.1897 24.8544 19.5558 25.2205L22.2075 27.8723C22.5733 28.2382 23.1673 28.2383 23.5334 27.8723L27.9798 23.4259C28.3459 23.0598 28.3459 22.4662 27.9798 22.1ZM22.8705 25.8834L21.5447 24.5575L24.6651 21.4371L25.991 22.763L22.8705 25.8834Z" fill="#007BFF"/>
</g>
<defs>
<clipPath id="clip0_1_25110">
<rect width="32" height="32" fill="white"/>
</clipPath>
</defs>
</svg>
