<svg width="24" height="24" viewBox="0 0 24 24" fill="none" xmlns="http://www.w3.org/2000/svg">
<g clip-path="url(#clip0_0_3112)">
<path d="M17.8289 0.615079C17.7794 0.268723 17.4828 0.0114746 17.1329 0.0114746H6.82044C6.47052 0.0114746 6.17389 0.268723 6.12439 0.615079L4.71815 10.4538C4.6575 10.8775 4.98693 11.2565 5.4142 11.2565H11.297V15.5192C9.84755 15.5192 8.82184 16.9577 9.30835 18.3303H7.78099C6.61808 18.3303 5.67201 19.2764 5.67201 20.4393V23.2968C5.67201 23.6851 5.98682 23.9999 6.37513 23.9999H17.625C18.0134 23.9999 18.3282 23.6851 18.3282 23.2968V20.4393C18.3282 19.2763 17.382 18.3303 16.2192 18.3303H14.6918C15.1775 16.9599 14.1547 15.5192 12.7032 15.5192V11.2565H15.5157V13.4113C15.5157 13.7996 15.8305 14.1144 16.2188 14.1144C16.6071 14.1144 16.9219 13.7996 16.9219 13.4113V11.2565H18.5391C18.9671 11.2565 19.2957 10.8768 19.2351 10.4538L17.8289 0.615079ZM16.9219 20.4393V22.5937H7.07825V20.4393C7.07825 20.0517 7.39352 19.7365 7.78099 19.7365H16.2192C16.6067 19.7365 16.9219 20.0518 16.9219 20.4393ZM13.4063 17.6279C13.4063 18.0152 13.0912 18.3303 12.7039 18.3303H11.2963C10.909 18.3303 10.5939 18.0152 10.5939 17.6279C10.5939 17.2405 10.909 16.9254 11.2963 16.9254H12.7039C13.0912 16.9254 13.4063 17.2405 13.4063 17.6279ZM7.43023 1.41771H16.5231L17.3332 7.08598H6.62005L7.43023 1.41771ZM6.22494 9.85023L6.41905 8.49227H17.5342L17.7284 9.85023H6.22494Z" fill="#FFD568"/>
<path d="M2.76587 4.97815C2.76587 4.58984 2.45106 4.27502 2.06274 4.27502H0.703369C0.315057 4.27502 0.000244141 4.58984 0.000244141 4.97815C0.000244141 5.36646 0.315057 5.68127 0.703369 5.68127H2.06274C2.45106 5.68127 2.76587 5.36646 2.76587 4.97815Z" fill="#FFD568"/>
<path d="M23.2969 4.27502H21.9375C21.5492 4.27502 21.2344 4.58984 21.2344 4.97815C21.2344 5.36646 21.5492 5.68127 21.9375 5.68127H23.2969C23.6852 5.68127 24 5.36646 24 4.97815C24 4.58984 23.6852 4.27502 23.2969 4.27502Z" fill="#FFD568"/>
<path d="M2.53234 8.35545L1.28125 8.88673C0.923829 9.03851 0.757095 9.45129 0.908923 9.80876C1.06075 10.1663 1.47363 10.3329 1.83095 10.1811L3.08205 9.64981C3.43947 9.49803 3.6062 9.08525 3.45438 8.72778C3.30255 8.3704 2.88981 8.20362 2.53234 8.35545Z" fill="#FFD568"/>
<path d="M21.421 1.8818L22.6721 1.35052C23.0296 1.19874 23.1963 0.785956 23.0445 0.428487C22.8927 0.0710655 22.4799 -0.0957158 22.1224 0.0561592L20.8713 0.58744C20.5139 0.739222 20.3472 1.152 20.499 1.50947C20.6508 1.86703 21.0637 2.03358 21.421 1.8818Z" fill="#FFD568"/>
<path d="M3.12514 0.594692L1.87357 0.0643951C1.51592 -0.0870111 1.10337 0.0800045 0.951872 0.437473C0.800419 0.795036 0.967434 1.20772 1.325 1.35922L2.57656 1.88952C2.9345 2.04111 3.3469 1.87363 3.49826 1.51644C3.64976 1.15888 3.4827 0.746192 3.12514 0.594692Z" fill="#FFD568"/>
<path d="M22.6752 8.87818L21.4236 8.34788C21.066 8.19638 20.6534 8.36349 20.5019 8.72096C20.3505 9.07852 20.5175 9.49121 20.875 9.64271L22.1266 10.173C22.4845 10.3246 22.897 10.1571 23.0483 9.79993C23.1998 9.44237 23.0327 9.02968 22.6752 8.87818Z" fill="#FFD568"/>
</g>
<defs>
<clipPath id="clip0_0_3112">
<rect width="24" height="24" fill="white"/>
</clipPath>
</defs>
</svg>
