<svg width="24" height="24" viewBox="0 0 24 24" fill="none" xmlns="http://www.w3.org/2000/svg">
<g clip-path="url(#clip0_0_3158)">
<path d="M23.2969 0H0.703125C0.314812 0 0 0.314812 0 0.703125V15.7031C0 16.0914 0.314812 16.4062 0.703125 16.4062H7.82977C7.64934 16.7581 7.54688 17.1562 7.54688 17.5781V21.4219C7.54688 22.8435 8.70342 24 10.125 24C10.8633 24 11.5296 23.6876 12 23.1886C12.4704 23.6876 13.1367 24 13.875 24C15.2966 24 16.4531 22.8435 16.4531 21.4219V17.5781C16.4531 17.1562 16.3506 16.7581 16.1702 16.4062H23.2969C23.6852 16.4062 24 16.0914 24 15.7031V0.703125C24 0.314812 23.6852 0 23.2969 0ZM1.40625 1.40625H2.85938V15H1.40625V1.40625ZM4.26562 1.40625H19.7344V15H4.26562V1.40625ZM11.2969 17.5781V19.1266C10.945 18.9463 10.5469 18.8438 10.125 18.8438C9.70312 18.8438 9.30502 18.9463 8.95312 19.1266V17.5781C8.95312 16.932 9.47883 16.4062 10.125 16.4062C10.7712 16.4062 11.2969 16.932 11.2969 17.5781ZM10.125 22.5938C9.47883 22.5938 8.95312 22.068 8.95312 21.4219C8.95312 20.7757 9.47883 20.25 10.125 20.25C10.7712 20.25 11.2969 20.7757 11.2969 21.4219C11.2969 22.068 10.7712 22.5938 10.125 22.5938ZM13.875 22.5938C13.2288 22.5938 12.7031 22.068 12.7031 21.4219C12.7031 20.7757 13.2288 20.25 13.875 20.25C14.5212 20.25 15.0469 20.7757 15.0469 21.4219C15.0469 22.068 14.5212 22.5938 13.875 22.5938ZM15.0469 17.5781V19.1266C14.695 18.9463 14.2969 18.8438 13.875 18.8438C13.4531 18.8438 13.055 18.9463 12.7031 19.1266V17.5781C12.7031 16.932 13.2288 16.4062 13.875 16.4062C14.5212 16.4062 15.0469 16.932 15.0469 17.5781ZM22.5938 15H21.1406V1.40625H22.5938V15Z" fill="#FFD568"/>
<path d="M6.81533 8.70027L11.5028 13.3878C11.6401 13.5251 11.82 13.5937 12 13.5937C12.1799 13.5937 12.3599 13.5251 12.4971 13.3878L17.1846 8.70027C17.4592 8.42572 17.4592 7.9805 17.1846 7.70591L12.4971 3.01841C12.2226 2.74386 11.7774 2.74386 11.5028 3.01841L6.81528 7.70591C6.54073 7.9805 6.54073 8.42572 6.81533 8.70027ZM12 4.50997L15.6931 8.20311L12 11.8963L8.30684 8.20311L12 4.50997Z" fill="#FFD568"/>
<path d="M12 8.90625C12.3883 8.90625 12.7031 8.59145 12.7031 8.20312C12.7031 7.8148 12.3883 7.5 12 7.5C11.6117 7.5 11.2969 7.8148 11.2969 8.20312C11.2969 8.59145 11.6117 8.90625 12 8.90625Z" fill="#FFD568"/>
<path d="M16.2188 4.21875H16.9219V4.92188C16.9219 5.31019 17.2367 5.625 17.625 5.625C18.0133 5.625 18.3281 5.31019 18.3281 4.92188V3.51562C18.3281 3.12731 18.0133 2.8125 17.625 2.8125H16.2188C15.8304 2.8125 15.5156 3.12731 15.5156 3.51562C15.5156 3.90394 15.8304 4.21875 16.2188 4.21875Z" fill="#FFD568"/>
<path d="M6.375 5.625C6.76331 5.625 7.07812 5.31019 7.07812 4.92188V4.21875H7.78125C8.16956 4.21875 8.48438 3.90394 8.48438 3.51562C8.48438 3.12731 8.16956 2.8125 7.78125 2.8125H6.375C5.98669 2.8125 5.67188 3.12731 5.67188 3.51562V4.92188C5.67188 5.31019 5.98669 5.625 6.375 5.625Z" fill="#FFD568"/>
<path d="M17.625 10.7812C17.2367 10.7812 16.9219 11.0961 16.9219 11.4844V12.1875H16.2188C15.8304 12.1875 15.5156 12.5023 15.5156 12.8906C15.5156 13.2789 15.8304 13.5938 16.2188 13.5938H17.625C18.0133 13.5938 18.3281 13.2789 18.3281 12.8906V11.4844C18.3281 11.0961 18.0133 10.7812 17.625 10.7812Z" fill="#FFD568"/>
<path d="M7.78125 12.1875H7.07812V11.4844C7.07812 11.0961 6.76331 10.7812 6.375 10.7812C5.98669 10.7812 5.67188 11.0961 5.67188 11.4844V12.8906C5.67188 13.2789 5.98669 13.5938 6.375 13.5938H7.78125C8.16956 13.5938 8.48438 13.2789 8.48438 12.8906C8.48438 12.5023 8.16956 12.1875 7.78125 12.1875Z" fill="#FFD568"/>
</g>
<defs>
<clipPath id="clip0_0_3158">
<rect width="24" height="24" fill="white"/>
</clipPath>
</defs>
</svg>
