<svg width="28" height="28" viewBox="0 0 28 28" fill="none" xmlns="http://www.w3.org/2000/svg">
<g clip-path="url(#clip0_1_26481)">
<path d="M17.5156 2.51953C17.9687 2.51953 18.3359 2.15226 18.3359 1.69922C18.3359 1.24617 17.9687 0.878906 17.5156 0.878906C17.0626 0.878906 16.6953 1.24617 16.6953 1.69922C16.6953 2.15226 17.0626 2.51953 17.5156 2.51953Z" fill="white"/>
<path d="M3.45703 2.95859H3.95469V3.45625C3.95469 3.90928 4.32197 4.27656 4.775 4.27656C5.22803 4.27656 5.59531 3.90928 5.59531 3.45625V2.95859H6.09302C6.54605 2.95859 6.91334 2.59131 6.91334 2.13828C6.91334 1.68525 6.54605 1.31797 6.09302 1.31797H5.59531V0.820313C5.59531 0.367281 5.22803 0 4.775 0C4.32197 0 3.95469 0.367281 3.95469 0.820313V1.31797H3.45703C3.004 1.31797 2.63672 1.68525 2.63672 2.13828C2.63672 2.59131 3.004 2.95859 3.45703 2.95859Z" fill="white"/>
<path d="M24.5424 5.15523C25.9637 5.15523 27.1201 3.99891 27.1201 2.57764C27.1201 1.15637 25.9637 0 24.5424 0C23.1212 0 21.9648 1.15631 21.9648 2.57759C21.9648 3.99886 23.1212 5.15523 24.5424 5.15523ZM24.5424 1.64062C25.0591 1.64062 25.4794 2.06095 25.4794 2.57759C25.4794 3.09422 25.0591 3.51455 24.5424 3.51455C24.0258 3.51455 23.6055 3.09422 23.6055 2.57759C23.6055 2.06095 24.0258 1.64062 24.5424 1.64062Z" fill="white"/>
<path d="M26.3014 10.5436H23.6071V9.60659C23.6071 9.15356 23.2398 8.78628 22.7868 8.78628H21.8498V8.28863C21.8498 6.62197 20.5016 5.27168 18.8328 5.27168C17.4052 5.27168 16.6275 6.22193 16.5139 6.35805C16.0603 5.87718 15.4707 5.52609 14.8072 5.36678C14.6626 3.8369 13.3707 2.63574 11.8037 2.63574C10.2366 2.63574 8.94477 3.83668 8.80023 5.36656C7.28243 5.73062 6.15084 7.09923 6.15084 8.72706V8.78628H5.21382C4.76079 8.78628 4.39351 9.15356 4.39351 9.60659V10.5436H1.69922C1.24619 10.5436 0.878906 10.9108 0.878906 11.3639C0.878906 15.088 3.00937 18.323 6.11518 19.9164L7.03579 27.2813C7.08709 27.6918 7.43605 27.9999 7.84976 27.9999H20.1508C20.5645 27.9999 20.9135 27.6918 20.9648 27.2813L21.8854 19.9164C24.9912 18.3231 27.1217 15.088 27.1217 11.3639C27.1217 10.9108 26.7544 10.5436 26.3014 10.5436ZM17.4565 8.28863C17.4565 7.53082 18.0725 6.9123 18.8328 6.9123C19.5953 6.9123 20.2091 7.53284 20.2091 8.28863V8.78628H17.4565V8.28863ZM7.79146 8.72706C7.79146 7.72638 8.60554 6.9123 9.60709 6.9123C10.0601 6.9123 10.4274 6.54502 10.4274 6.09199V5.65269C10.4274 4.89379 11.0448 4.27637 11.8037 4.27637C12.5626 4.27637 13.18 4.89379 13.18 5.65269V6.09199C13.18 6.54502 13.5473 6.9123 14.0003 6.9123C15.0015 6.9123 15.8159 7.72682 15.8159 8.72793V8.78623H7.79146V8.72706ZM2.56148 12.1842H4.39351V13.1211C4.39351 13.5742 4.76079 13.9415 5.21382 13.9415H5.36837L5.85596 17.8425C4.04701 16.5462 2.80073 14.5123 2.56148 12.1842ZM19.4267 26.3592H8.57393L7.85451 20.6034C8.43765 20.7697 9.04315 20.8824 9.66544 20.9353V21.9076C9.66544 22.3606 10.0327 22.7279 10.4857 22.7279H17.5149C17.9679 22.7279 18.3352 22.3606 18.3352 21.9076V20.9353C18.9575 20.8824 19.563 20.7697 20.1461 20.6034L19.4267 26.3592ZM11.306 21.0873V19.2133H16.6945V21.0873H11.306ZM20.3716 18.7998C19.7285 19.0476 19.0456 19.2146 18.3352 19.2876V18.393C18.3352 17.94 17.9679 17.5727 17.5149 17.5727H10.4857C10.0327 17.5727 9.66538 17.94 9.66538 18.393V19.2876C8.95499 19.2146 8.27205 19.0476 7.62904 18.7998L7.02179 13.9415H20.9789L20.3716 18.7998ZM21.9665 12.3008H6.03413V10.4269H21.9665V12.3008ZM22.1446 17.8425L22.6322 13.9415H22.7868C23.2398 13.9415 23.6071 13.5742 23.6071 13.1211V12.1842H25.4391C25.1999 14.5123 23.9536 16.5462 22.1446 17.8425Z" fill="white"/>
</g>
<defs>
<clipPath id="clip0_1_26481">
<rect width="28" height="28" fill="white"/>
</clipPath>
</defs>
</svg>
