<svg width="32" height="32" viewBox="0 0 32 32" fill="none" xmlns="http://www.w3.org/2000/svg">
<path d="M22.1774 8.78763C22.0824 8.313 21.8381 7.89838 21.5 7.588V7.5C21.5 7.22431 21.7243 7 22 7C23.9299 7 25.5 5.42987 25.5 3.5C25.5 1.57012 23.9299 0 22 0H9.5C8.94769 0 8.5 0.44775 8.5 1V1.5H7.5C6.94769 1.5 6.5 1.94775 6.5 2.5V4.5C6.5 5.05225 6.94769 5.5 7.5 5.5H8.5V6C8.5 6.55225 8.94769 7 9.5 7H10.93C10.7071 8.60494 9.95587 10.1299 8.79294 11.2929C8.40237 11.6834 8.40237 12.3166 8.79294 12.7071C9.18344 13.0976 9.81656 13.0976 10.2071 12.7071C11.7433 11.1709 12.7118 9.13306 12.9448 6.99994H13.5C13.8594 6.99994 14.1742 7.19119 14.3505 7.47656C13.8331 7.88419 13.5 8.51556 13.5 9.22375C13.5 11.982 12.3408 14.6404 10.3196 16.5172C7.89213 18.7711 6.5 21.9637 6.5 25.2763V29C6.5 30.6542 7.84581 32 9.5 32H21.5C23.1542 32 24.5 30.6542 24.5 29C24.5 19.0767 24.7477 21.6396 22.1774 8.78763ZM13.5 5H10.5C10.5 4.11244 10.5 2.88825 10.5 2H22C22.8271 2 23.5 2.67287 23.5 3.5C23.5 4.32713 22.8271 5 22 5C20.7928 5 19.7826 5.86031 19.5502 7H16.3286C15.9159 5.83594 14.8038 5 13.5 5ZM22.5 29C22.5 29.5514 22.0514 30 21.5 30H9.5C8.94863 30 8.5 29.5514 8.5 29V25.2763C8.5 22.518 9.65925 19.8596 11.6804 17.9828C14.1079 15.7289 15.5 12.5363 15.5 9.22375C15.5 9.10038 15.6004 9 15.7238 9H19.9967C20.103 9 20.1954 9.07569 20.2162 9.17988C22.7565 21.8816 22.5 19.2281 22.5 29Z" fill="#FFD568"/>
</svg>
