<svg width="28" height="28" viewBox="0 0 28 28" fill="none" xmlns="http://www.w3.org/2000/svg">
<g clip-path="url(#clip0_1_26491)">
<path d="M21.9078 26.3595H20.9709V15.1019L21.3277 15.4588C21.648 15.7791 22.1675 15.7791 22.4878 15.4588C22.8082 15.1384 22.8082 14.6191 22.4878 14.2987L11.9441 3.75495C11.7902 3.60111 11.5816 3.51465 11.3641 3.51465C11.1465 3.51465 10.9379 3.60111 10.784 3.75495L7.79116 6.74783V4.33502C7.79116 3.88198 7.42388 3.5147 6.97085 3.5147H3.45625C3.00322 3.5147 2.63594 3.88198 2.63594 4.33502V11.9031L0.240297 14.2987C-0.0800625 14.6191 -0.0800625 15.1384 0.240297 15.4588C0.560602 15.7791 1.08002 15.7791 1.40038 15.4588L1.75733 15.1018V26.3595H0.820312C0.367281 26.3595 0 26.7268 0 27.1798C0 27.6328 0.367281 28.0001 0.820312 28.0001H21.9078C22.3608 28.0001 22.7281 27.6328 22.7281 27.1798C22.7281 26.7268 22.3608 26.3595 21.9078 26.3595ZM4.27656 5.15533H6.15054V8.38845L4.27656 10.2624V5.15533ZM8.78648 26.3595H6.9125V18.335H8.78648V26.3595ZM19.3302 26.3595H10.4271V17.5147C10.4271 17.0617 10.0598 16.6944 9.60679 16.6944H6.09219C5.63916 16.6944 5.27187 17.0617 5.27187 17.5147V26.3595H3.3979V13.4612L11.3641 5.4951L19.3302 13.4613V26.3595Z" fill="white"/>
<path d="M24.8901 7.21312C25.2914 6.02733 26.2351 5.08271 27.4204 4.68032C27.7568 4.57805 28.0017 4.2653 28.0017 3.89534C28.0017 3.52691 27.7586 3.21513 27.4241 3.11161C26.2384 2.71031 25.2938 1.76657 24.8913 0.581438C24.7892 0.244891 24.4763 0 24.1063 0C23.7379 0 23.4261 0.243086 23.3226 0.577609C22.9213 1.7634 21.9776 2.70802 20.7922 3.11041C20.4558 3.21267 20.2109 3.52543 20.2109 3.89539C20.2109 4.26382 20.454 4.57559 20.7885 4.67912C21.9742 5.08041 22.9188 6.02416 23.3213 7.20929C23.4235 7.54589 23.7363 7.79078 24.1063 7.79078C24.4748 7.79073 24.7865 7.54764 24.8901 7.21312ZM22.8082 3.89534C23.3074 3.53538 23.7463 3.09646 24.1063 2.59722C24.4662 3.09646 24.9051 3.53538 25.4044 3.89534C24.9051 4.25529 24.4662 4.69421 24.1063 5.19345C23.7463 4.69427 23.3074 4.25534 22.8082 3.89534Z" fill="white"/>
<path d="M27.1789 10.983H26.6813V10.4854C26.6813 10.0323 26.314 9.66504 25.8609 9.66504C25.4079 9.66504 25.0406 10.0323 25.0406 10.4854V10.983H24.543C24.0899 10.983 23.7227 11.3503 23.7227 11.8033C23.7227 12.2564 24.0899 12.6236 24.543 12.6236H25.0407V13.1213C25.0407 13.5743 25.408 13.9416 25.861 13.9416C26.314 13.9416 26.6813 13.5743 26.6813 13.1213V12.6236H27.179C27.632 12.6236 27.9993 12.2564 27.9993 11.8033C27.9993 11.3503 27.6319 10.983 27.1789 10.983Z" fill="white"/>
<path d="M14.8789 2.95859H15.3766V3.45625C15.3766 3.90928 15.7439 4.27656 16.1969 4.27656C16.65 4.27656 17.0172 3.90928 17.0172 3.45625V2.95859H17.5149C17.9679 2.95859 18.3352 2.59131 18.3352 2.13828C18.3352 1.68525 17.9679 1.31797 17.5149 1.31797H17.0172V0.820313C17.0172 0.367281 16.65 0 16.1969 0C15.7439 0 15.3766 0.367281 15.3766 0.820313V1.31797H14.8789C14.4259 1.31797 14.0586 1.68525 14.0586 2.13828C14.0586 2.59131 14.4259 2.95859 14.8789 2.95859Z" fill="white"/>
<path d="M13.1211 21.8496H16.6357C17.0887 21.8496 17.456 21.4823 17.456 21.0293V17.5146C17.456 17.0616 17.0887 16.6943 16.6357 16.6943H13.1211C12.6681 16.6943 12.3008 17.0616 12.3008 17.5146V21.0293C12.3008 21.4823 12.6681 21.8496 13.1211 21.8496ZM13.9414 18.335H15.8154V20.209H13.9414V18.335Z" fill="white"/>
</g>
<defs>
<clipPath id="clip0_1_26491">
<rect width="28" height="28" fill="white"/>
</clipPath>
</defs>
</svg>
