<svg width="32" height="32" viewBox="0 0 32 32" fill="none" xmlns="http://www.w3.org/2000/svg">
<g clip-path="url(#clip0_1_26643)">
<path d="M21.9903 12.0391H16.501C15.1252 12.0391 14.0059 13.1584 14.0059 14.5342C14.0059 15.0696 14.127 15.5773 14.3432 16.0313H9.70178C7.85388 16.0313 6.52953 17.8321 7.08189 19.5949C5.86571 19.8754 4.91937 20.992 4.96235 22.3569C5.00258 23.6327 5.91773 24.655 7.08277 24.9357C6.59254 26.4948 7.56152 28.0634 9.07887 28.4289C8.51491 30.2225 9.87974 32.0001 11.7343 32.0001H21.9903C27.4936 32.0001 31.9708 27.5228 31.9708 22.0196C31.9708 16.5163 27.4936 12.0391 21.9903 12.0391ZM21.9903 30.004H11.7344C11.3143 30.004 10.9623 29.6794 10.9497 29.2803C10.9363 28.8558 11.2749 28.5069 11.6979 28.5069H17.499C18.0503 28.5069 18.4971 28.06 18.4971 27.5088C18.4971 26.9577 18.0503 26.5108 17.499 26.5108C16.6701 26.5108 11.0769 26.5108 9.73827 26.5108C9.06003 26.5108 8.69437 25.7263 9.16439 25.2412C9.30649 25.0944 9.49736 25.0137 9.70178 25.0137H17.499C18.0503 25.0137 18.4971 24.5668 18.4971 24.0157C18.4971 23.4645 18.0503 23.0176 17.499 23.0176C16.4272 23.0176 8.71071 23.0176 7.74217 23.0176C7.32211 23.0176 6.97011 22.693 6.95751 22.294C6.9441 21.8694 7.28269 21.5205 7.70567 21.5205H17.499C18.0503 21.5205 18.4971 21.0737 18.4971 20.5225C18.4971 19.9713 18.0503 19.5244 17.499 19.5244H9.70178C9.28902 19.5244 8.95324 19.1887 8.95324 18.7759C8.95324 18.3631 9.28902 18.0274 9.70178 18.0274H20.9922C21.5435 18.0274 21.9903 17.5805 21.9903 17.0293C21.9903 16.4781 21.5435 16.0313 20.9922 16.0313H17.499C16.6736 16.0313 16.002 15.3596 16.002 14.5342C16.002 14.259 16.2258 14.0352 16.501 14.0352H21.9903C26.3929 14.0352 29.9747 17.6169 29.9747 22.0196C29.9747 26.4222 26.3929 30.004 21.9903 30.004Z" fill="#FFD568"/>
<path d="M12.0079 9.04485C12.0079 4.0962 6.81955 0.342597 6.59867 0.185216C6.2521 -0.0617388 5.78695 -0.0617388 5.44044 0.185216C5.21955 0.342597 0.03125 4.0962 0.03125 9.04485C0.03125 12.3468 2.71757 15.0332 6.01955 15.0332C9.32154 15.0332 12.0079 12.3468 12.0079 9.04485ZM2.02735 9.04485C2.02735 5.98738 4.78902 3.31236 6.01955 2.27239C7.25065 3.31286 10.0118 5.9877 10.0118 9.04485C10.0118 11.2462 8.22088 13.0371 6.01955 13.0371C3.81823 13.0371 2.02735 11.2462 2.02735 9.04485Z" fill="#FFD568"/>
</g>
<defs>
<clipPath id="clip0_1_26643">
<rect width="32" height="32" fill="white"/>
</clipPath>
</defs>
</svg>
