<svg width="24" height="24" viewBox="0 0 24 24" fill="none" xmlns="http://www.w3.org/2000/svg">
<path d="M22.0781 10.8369V2.15625C22.0781 1.76794 21.7633 1.45312 21.375 1.45312C20.9867 1.45312 20.6719 1.76794 20.6719 2.15625V5.20312H16.0866C14.5554 3.4222 12.4286 3.32812 12 3.32812C11.5714 3.32812 9.44461 3.4222 7.91339 5.20312H3.32812V2.15625C3.32812 1.76794 3.01331 1.45312 2.625 1.45312C2.23669 1.45312 1.92188 1.76794 1.92188 2.15625V10.8369C0.846328 10.9321 0 11.8376 0 12.9375V18.0938C0 18.4821 0.314812 18.7969 0.703125 18.7969H1.45312V21.8438C1.45312 22.2321 1.76794 22.5469 2.15625 22.5469H4.03125C4.32431 22.5469 4.58672 22.3651 4.68961 22.0906L5.92477 18.7969H18.0752L19.3104 22.0906C19.4133 22.3651 19.6757 22.5469 19.9688 22.5469H21.8438C22.2321 22.5469 22.5469 22.2321 22.5469 21.8438V18.7969H23.2969C23.6852 18.7969 24 18.4821 24 18.0938V12.9375C24 11.8376 23.1537 10.9321 22.0781 10.8369ZM8.25 6.60938C8.4713 6.60938 8.6797 6.50517 8.8125 6.32812C9.9743 4.77909 11.7961 4.73438 12 4.73438C12.2039 4.73438 14.0257 4.77909 15.1875 6.32812C15.3203 6.50517 15.5287 6.60938 15.75 6.60938H20.6719V10.8281H19.1447C19.2227 10.608 19.2656 10.3715 19.2656 10.125C19.2656 8.96189 18.3194 8.01562 17.1562 8.01562H14.8125C13.6494 8.01562 12.7031 8.96189 12.7031 10.125C12.7031 10.3715 12.746 10.608 12.8241 10.8281H11.1759C11.254 10.608 11.2969 10.3715 11.2969 10.125C11.2969 8.96189 10.3506 8.01562 9.1875 8.01562H6.84375C5.68064 8.01562 4.73438 8.96189 4.73438 10.125C4.73438 10.3715 4.77727 10.608 4.85531 10.8281H3.32812V6.60938H8.25ZM14.1094 10.125C14.1094 9.7373 14.4248 9.42188 14.8125 9.42188H17.1562C17.544 9.42188 17.8594 9.7373 17.8594 10.125C17.8594 10.5127 17.544 10.8281 17.1562 10.8281H14.8125C14.4248 10.8281 14.1094 10.5127 14.1094 10.125ZM6.14062 10.125C6.14062 9.7373 6.45605 9.42188 6.84375 9.42188H9.1875C9.5752 9.42188 9.89062 9.7373 9.89062 10.125C9.89062 10.5127 9.5752 10.8281 9.1875 10.8281H6.84375C6.45605 10.8281 6.14062 10.5127 6.14062 10.125ZM1.40625 12.9375C1.40625 12.5498 1.72167 12.2344 2.10938 12.2344H21.8906C22.2783 12.2344 22.5938 12.5498 22.5938 12.9375V14.5781H1.40625V12.9375ZM3.54398 21.1406H2.85938V18.7969H4.42289L3.54398 21.1406ZM21.1406 21.1406H20.456L19.5771 18.7969H21.1406V21.1406ZM22.5938 17.3906H1.40625V15.9844H22.5938V17.3906Z" fill="#FFD568"/>
</svg>
