<svg width="24" height="24" viewBox="0 0 24 24" fill="none" xmlns="http://www.w3.org/2000/svg">
<g clip-path="url(#clip0_0_3140)">
<path d="M23.9418 12.3899L23.0043 7.23361C22.9435 6.8993 22.6523 6.65625 22.3125 6.65625H18.5625C18.2227 6.65625 17.9315 6.8993 17.8707 7.23361L16.9332 12.3899C16.8959 12.595 16.9516 12.8061 17.0851 12.9661C17.2188 13.1262 17.4165 13.2188 17.625 13.2188H19.6637C19.337 14.8215 17.9166 16.0312 16.2188 16.0312C14.5209 16.0312 13.1005 14.8215 12.7739 13.2188H14.8125C15.021 13.2188 15.2187 13.1262 15.3524 12.9661C15.486 12.8061 15.5416 12.595 15.5043 12.3899L14.5668 7.23361C14.506 6.8993 14.2148 6.65625 13.875 6.65625H12.7031V4.21875H13.4063C13.75 4.21875 14.0433 3.97027 14.0998 3.63122L14.5686 0.818719C14.6026 0.614859 14.5451 0.406359 14.4115 0.248625C14.2779 0.0909375 14.0817 0 13.875 0H10.125C9.91834 0 9.72212 0.0909375 9.58852 0.248625C9.45493 0.406359 9.39746 0.614859 9.43145 0.818719L9.9002 3.63122C9.95673 3.97027 10.25 4.21875 10.5938 4.21875H11.2969V6.65625H10.125C9.78517 6.65625 9.49403 6.8993 9.43323 7.23361L8.49573 12.3899C8.45842 12.595 8.5141 12.8061 8.6477 12.9661C8.78129 13.1262 8.97901 13.2188 9.18751 13.2188H11.2261C10.8995 14.8215 9.47902 16.0312 7.78126 16.0312C6.08349 16.0312 4.66304 14.8215 4.33637 13.2188H6.37501C6.58351 13.2188 6.78128 13.1262 6.91482 12.9661C7.04842 12.8061 7.1041 12.595 7.06679 12.3899L6.12929 7.23361C6.06849 6.8993 5.77735 6.65625 5.43751 6.65625H1.68751C1.34767 6.65625 1.05652 6.8993 0.995728 7.23361L0.0582275 12.3899C0.020915 12.595 0.0766025 12.8061 0.210196 12.9661C0.343743 13.1262 0.541509 13.2188 0.750009 13.2188H2.90982C3.1959 15.2097 4.67781 16.8195 6.60212 17.2944L6.08345 18.1242C5.69204 18.7505 5.67212 19.51 6.0301 20.1559C6.38813 20.8019 7.04274 21.1875 7.78126 21.1875C8.51977 21.1875 9.17438 20.8019 9.53242 20.1559C9.89045 19.51 9.87048 18.7505 9.47907 18.1242L8.9604 17.2943C9.86223 17.0717 10.6668 16.6 11.2969 15.9564V19.3452L10.3022 20.9367C9.91079 21.5629 9.89087 22.3224 10.2489 22.9684C10.6069 23.6144 11.2615 24 12 24C12.7385 24 13.3932 23.6144 13.7512 22.9685C14.1091 22.3225 14.0892 21.563 13.6978 20.9368L12.7031 19.3453V15.9564C13.3331 16.6 14.1378 17.0718 15.0396 17.2944L14.5209 18.1242C14.1295 18.7505 14.1096 19.51 14.4676 20.1559C14.8256 20.8019 15.4802 21.1875 16.2188 21.1875C16.9573 21.1875 17.6119 20.8019 17.9699 20.156C18.3279 19.51 18.308 18.7505 17.9165 18.1243L17.3979 17.2944C19.3222 16.8195 20.8041 15.2098 21.0902 13.2188H23.25C23.4585 13.2188 23.6562 13.1262 23.7899 12.9661C23.9234 12.8061 23.9791 12.595 23.9418 12.3899ZM10.955 1.40625H13.045L12.8106 2.8125H11.1894L10.955 1.40625ZM2.27434 8.0625H4.85073L5.53253 11.8125H1.59249L2.27434 8.0625ZM8.30246 19.4742C8.25132 19.5665 8.09809 19.7812 7.78126 19.7812C7.46443 19.7812 7.31124 19.5665 7.26006 19.4742C7.20887 19.3819 7.10799 19.1382 7.27595 18.8695L7.78126 18.061L8.28657 18.8695C8.45448 19.1382 8.3536 19.3819 8.30246 19.4742ZM10.7118 8.0625H13.2882L13.97 11.8125H10.03L10.7118 8.0625ZM12.5212 22.2867C12.47 22.379 12.3168 22.5938 12 22.5938C11.6832 22.5938 11.53 22.379 11.4788 22.2867C11.4276 22.1944 11.3267 21.9507 11.4947 21.682L12 20.8735L12.5053 21.682C12.6732 21.9507 12.5724 22.1944 12.5212 22.2867ZM16.74 19.4742C16.6888 19.5665 16.5356 19.7812 16.2188 19.7812C15.9019 19.7812 15.7487 19.5665 15.6976 19.4742C15.6464 19.3819 15.5455 19.1382 15.7134 18.8695L16.2188 18.061L16.7241 18.8695C16.892 19.1382 16.7911 19.3819 16.74 19.4742ZM18.4675 11.8125L19.1493 8.0625H21.7257L22.4075 11.8125H18.4675Z" fill="#FFD568"/>
</g>
<defs>
<clipPath id="clip0_0_3140">
<rect width="24" height="24" fill="white"/>
</clipPath>
</defs>
</svg>
