<svg width="28" height="28" viewBox="0 0 28 28" fill="none" xmlns="http://www.w3.org/2000/svg">
<path d="M20.7793 4.67742C21.9676 5.07741 22.9147 6.0223 23.3177 7.20956C23.4199 7.54605 23.7327 7.79084 24.1026 7.79084C24.4711 7.79084 24.7828 7.5478 24.8864 7.21323C25.2887 6.02432 26.2365 5.07779 27.426 4.67742C27.7612 4.57116 27.9982 4.25813 27.9982 3.89545C27.9982 3.53861 27.7676 3.22498 27.4325 3.11555C26.2409 2.71677 25.2912 1.77051 24.8875 0.580891C24.7851 0.244617 24.4725 0 24.1026 0C23.7342 0 23.4224 0.243086 23.3189 0.577609C22.9159 1.76876 21.9655 2.71638 20.7728 3.11555C20.4376 3.22498 20.207 3.53855 20.207 3.89545C20.2071 4.25813 20.4442 4.57116 20.7793 4.67742ZM24.1027 2.59738C24.4626 3.09657 24.9016 3.53555 25.4008 3.89545C24.9016 4.25529 24.4626 4.69432 24.1027 5.19345C23.7428 4.69432 23.3038 4.25529 22.8046 3.89545C23.3037 3.53555 23.7428 3.09657 24.1027 2.59738Z" fill="white"/>
<path d="M27.1789 10.983H26.6813V10.4854C26.6813 10.0323 26.314 9.66504 25.8609 9.66504C25.4079 9.66504 25.0406 10.0323 25.0406 10.4854V10.983H24.543C24.0899 10.983 23.7227 11.3503 23.7227 11.8033C23.7227 12.2564 24.0899 12.6236 24.543 12.6236H25.0407V13.1213C25.0407 13.5744 25.408 13.9417 25.861 13.9417C26.314 13.9417 26.6813 13.5744 26.6813 13.1213V12.6236H27.179C27.632 12.6236 27.9993 12.2564 27.9993 11.8033C27.9993 11.3503 27.6319 10.983 27.1789 10.983Z" fill="white"/>
<path d="M14.8789 2.95859H15.3766V3.45625C15.3766 3.90928 15.7439 4.27656 16.1969 4.27656C16.65 4.27656 17.0172 3.90928 17.0172 3.45625V2.95859H17.5149C17.9679 2.95859 18.3352 2.59131 18.3352 2.13828C18.3352 1.68525 17.9679 1.31797 17.5149 1.31797H17.0172V0.820313C17.0172 0.367281 16.65 0 16.1969 0C15.7439 0 15.3766 0.367281 15.3766 0.820313V1.31797H14.8789C14.4259 1.31797 14.0586 1.68525 14.0586 2.13828C14.0586 2.59131 14.4259 2.95859 14.8789 2.95859Z" fill="white"/>
<path d="M21.9078 14.0581H21.8495V9.60664C21.8495 7.69772 20.3052 6.15039 18.3933 6.15039H6.09219C4.18354 6.15039 2.63594 7.69466 2.63594 9.60664V14.0581H2.57764C1.16659 14.0581 0 15.1982 0 16.6358V25.4222C0 25.8752 0.367281 26.2425 0.820312 26.2425H2.63594V27.1795C2.63594 27.6326 3.00322 27.9999 3.45625 27.9999C3.90928 27.9999 4.27656 27.6326 4.27656 27.1795V26.2425H20.2088V27.1795C20.2088 27.6326 20.5761 27.9999 21.0291 27.9999C21.4822 27.9999 21.8495 27.6326 21.8495 27.1795V26.2425H23.6651C24.1181 26.2425 24.4854 25.8752 24.4854 25.4222V16.6358C24.4854 15.2215 23.342 14.0581 21.9078 14.0581ZM5.27187 24.6019H1.64062V16.6358C1.64062 16.1175 2.06041 15.6988 2.57764 15.6988H4.33491C4.85111 15.6988 5.27193 16.1165 5.27193 16.6358V24.6019H5.27187ZM17.5729 24.6019H6.9125V21.8493H17.5729V24.6019ZM17.5729 16.6358V20.2087H6.9125V16.6358C6.9125 15.2218 5.76953 14.0581 4.33486 14.0581H4.27656V9.60664C4.27656 8.60143 5.09009 7.79102 6.09219 7.79102H18.3932C19.3964 7.79102 20.2088 8.60252 20.2088 9.60664V14.0581H20.1505C18.7424 14.0581 17.5729 15.1957 17.5729 16.6358ZM22.8448 24.6019H19.2135V16.6358C19.2135 16.1185 19.6323 15.6988 20.1505 15.6988H21.9078C22.4241 15.6988 22.8448 16.1165 22.8448 16.6358V24.6019H22.8448Z" fill="white"/>
<path d="M7.84766 13.063C8.3007 13.063 8.66797 12.6957 8.66797 12.2427C8.66797 11.7896 8.3007 11.4224 7.84766 11.4224C7.39461 11.4224 7.02734 11.7896 7.02734 12.2427C7.02734 12.6957 7.39461 13.063 7.84766 13.063Z" fill="white"/>
<path d="M12.2422 13.063C12.6952 13.063 13.0625 12.6957 13.0625 12.2427C13.0625 11.7896 12.6952 11.4224 12.2422 11.4224C11.7891 11.4224 11.4219 11.7896 11.4219 12.2427C11.4219 12.6957 11.7891 13.063 12.2422 13.063Z" fill="white"/>
<path d="M16.6367 13.063C17.0898 13.063 17.457 12.6957 17.457 12.2427C17.457 11.7896 17.0898 11.4224 16.6367 11.4224C16.1837 11.4224 15.8164 11.7896 15.8164 12.2427C15.8164 12.6957 16.1837 13.063 16.6367 13.063Z" fill="white"/>
</svg>
