<svg width="24" height="24" viewBox="0 0 24 24" fill="none" xmlns="http://www.w3.org/2000/svg">
<g clip-path="url(#clip0_0_3149)">
<path d="M24 18.9844C24 17.8213 23.0537 16.875 21.8906 16.875H21.6562V11.3956L22.82 12.4698C22.9552 12.5946 23.1262 12.6562 23.2967 12.6562C23.4861 12.6562 23.6749 12.5802 23.8135 12.43C24.0769 12.1447 24.0591 11.6999 23.7737 11.4365L11.5862 0.186469C11.451 0.0615937 11.2799 0.000703125 11.1093 0.00075V0H0.703125C0.314812 0 0 0.314812 0 0.703125C0 1.09144 0.314812 1.40625 0.703125 1.40625H1.96875V5.625H0.703125C0.314812 5.625 0 5.93981 0 6.32812V23.2969C0 23.6852 0.314812 24 0.703125 24H21.8906C22.2789 24 22.5938 23.6852 22.5938 23.2969V20.9728C23.4121 20.6826 24 19.901 24 18.9844ZM20.25 16.875H16.5V15.3478C17.3184 15.0576 17.9062 14.276 17.9062 13.3594C17.9062 12.1963 16.96 11.25 15.7969 11.25H15.5625V5.77059L20.25 10.0975V16.875ZM10.4062 12.6562H15.7969C16.1846 12.6562 16.5 12.9717 16.5 13.3594C16.5 13.7471 16.1846 14.0625 15.7969 14.0625H10.4062V12.6562ZM14.1562 4.47253V11.25H10.4062V9.72281C11.2246 9.43256 11.8125 8.65102 11.8125 7.73438C11.8125 6.57127 10.8662 5.625 9.70312 5.625H9.46875V1.40625H10.8345L14.1562 4.47253ZM3.375 1.40625H8.0625V5.625H3.375V1.40625ZM1.40625 7.03125H9.70312C10.0908 7.03125 10.4062 7.34667 10.4062 7.73438C10.4062 8.12208 10.0908 8.4375 9.70312 8.4375H1.40625V7.03125ZM21.1875 22.5938H1.40625V9.84375H9V14.7656C9 15.1539 9.31481 15.4688 9.70312 15.4688H15.0938V20.3906C15.0938 20.7789 15.4086 21.0938 15.7969 21.0938H21.1875V22.5938ZM21.8906 19.6875H16.5V18.2812H21.8906C22.2783 18.2812 22.5938 18.5967 22.5938 18.9844C22.5938 19.3721 22.2783 19.6875 21.8906 19.6875Z" fill="#FFD568"/>
</g>
<defs>
<clipPath id="clip0_0_3149">
<rect width="24" height="24" fill="white"/>
</clipPath>
</defs>
</svg>
