<svg width="28" height="28" viewBox="0 0 28 28" fill="none" xmlns="http://www.w3.org/2000/svg">
<path d="M24.8901 7.21317C25.2914 6.02738 26.2351 5.08277 27.4204 4.68038C27.7569 4.57811 28.0017 4.26535 28.0017 3.89539C28.0017 3.52696 27.7586 3.21519 27.4241 3.11166C26.2384 2.71037 25.2938 1.76662 24.8914 0.581492C24.7892 0.244891 24.4763 0 24.1063 0C23.7379 0 23.4261 0.243086 23.3226 0.577609C22.9213 1.7634 21.9776 2.70802 20.7922 3.11041C20.4558 3.21267 20.2109 3.52543 20.2109 3.89539C20.2109 4.26382 20.454 4.57559 20.7885 4.67912C21.9742 5.08041 22.9188 6.02416 23.3213 7.20929C23.4235 7.54589 23.7363 7.79078 24.1063 7.79078C24.4748 7.79078 24.7865 7.5477 24.8901 7.21317ZM22.8082 3.89539C23.3074 3.53544 23.7463 3.09652 24.1063 2.59727C24.4662 3.09652 24.9051 3.53544 25.4044 3.89539C24.9051 4.25534 24.4662 4.69427 24.1063 5.19351C23.7464 4.69432 23.3074 4.25534 22.8082 3.89539Z" fill="white"/>
<path d="M27.1789 10.983H26.6813V10.4854C26.6813 10.0323 26.314 9.66504 25.8609 9.66504C25.4079 9.66504 25.0406 10.0323 25.0406 10.4854V10.983H24.543C24.0899 10.983 23.7227 11.3503 23.7227 11.8033C23.7227 12.2564 24.0899 12.6236 24.543 12.6236H25.0407V13.1213C25.0407 13.5743 25.408 13.9416 25.861 13.9416C26.314 13.9416 26.6813 13.5743 26.6813 13.1213V12.6236H27.179C27.632 12.6236 27.9993 12.2564 27.9993 11.8033C27.9993 11.3503 27.6319 10.983 27.1789 10.983Z" fill="white"/>
<path d="M14.8789 2.95859H15.3766V3.45625C15.3766 3.90928 15.7439 4.27656 16.1969 4.27656C16.65 4.27656 17.0172 3.90928 17.0172 3.45625V2.95859H17.5149C17.9679 2.95859 18.3352 2.59131 18.3352 2.13828C18.3352 1.68525 17.9679 1.31797 17.5149 1.31797H17.0172V0.820313C17.0172 0.367281 16.65 0 16.1969 0C15.7439 0 15.3766 0.367281 15.3766 0.820313V1.31797H14.8789C14.4259 1.31797 14.0586 1.68525 14.0586 2.13828C14.0586 2.59131 14.4259 2.95859 14.8789 2.95859Z" fill="white"/>
<path d="M11.3641 5.27197C5.09791 5.27197 0 10.3699 0 16.636C0 22.9022 5.09791 28.0001 11.3641 28.0001C17.6302 28.0001 22.7281 22.9022 22.7281 16.636C22.7281 10.3699 17.6302 5.27197 11.3641 5.27197ZM11.3641 26.3595C6.00255 26.3595 1.64062 21.9975 1.64062 16.636C1.64062 11.2745 6.00255 6.9126 11.3641 6.9126C16.7256 6.9126 21.0875 11.2745 21.0875 16.636C21.0875 21.9975 16.7256 26.3595 11.3641 26.3595Z" fill="white"/>
<path d="M11.3659 11.4224C8.49116 11.4224 6.15234 13.7612 6.15234 16.6359C6.15234 19.5106 8.49116 21.8494 11.3659 21.8494C14.2406 21.8494 16.5794 19.5106 16.5794 16.6359C16.5794 13.7611 14.2406 11.4224 11.3659 11.4224ZM11.3659 20.2088C9.3958 20.2088 7.79297 18.606 7.79297 16.6359C7.79297 14.6658 9.3958 13.063 11.3659 13.063C13.336 13.063 14.9388 14.6658 14.9388 16.6359C14.9388 18.6059 13.336 20.2088 11.3659 20.2088Z" fill="white"/>
</svg>
