<svg width="90" height="72" viewBox="0 0 90 72" fill="none" xmlns="http://www.w3.org/2000/svg">
<g opacity="1">
<path d="M69.53 39.7518H69.8486C69.6905 43.9852 68.3724 47.3536 65.8336 50.025C63.0491 52.9467 58.5308 55.2414 52.405 56.8477C51.6012 57.0575 51.0395 57.7913 51.0395 58.6294V70.1592C51.0395 70.6807 51.2596 71.1789 51.6438 71.5274C52.0268 71.8771 52.5424 72.044 53.0543 71.99C65.2803 70.6844 74.5992 66.3712 80.7517 59.1681C86.8897 51.9835 90 41.7507 90 28.7582L89.9964 18.6703C89.3519 8.20191 80.7468 9.12383e-07 70.4054 0C59.5436 -9.58298e-07 50.7088 8.92221 50.7087 19.8924C50.7087 30.5166 58.9381 39.2388 69.53 39.7518ZM70.4067 3.68129C78.8257 3.68129 85.8318 10.3653 86.3535 18.7832V28.7582C86.3535 40.8439 83.5398 50.2668 77.9903 56.7642C72.7972 62.8445 64.9642 66.646 54.6872 68.0805V60.0344C60.7948 58.2686 65.4262 55.7629 68.4648 52.5749C71.8147 49.0495 73.5121 44.4393 73.5121 38.8891L73.5218 37.9295C73.5267 37.4387 73.337 36.965 72.9941 36.6165C72.6512 36.268 72.1843 36.0717 71.698 36.0717L69.6175 36.0742C61.0599 35.6569 54.3565 28.5508 54.3565 19.8937C54.3565 10.9531 61.556 3.68129 70.4067 3.68129Z" fill="currentColor"/>
<path d="M18.8237 39.7518H19.141C18.983 43.9852 17.6637 47.3536 15.1248 50.0238C12.3367 52.9467 7.81837 55.2426 1.695 56.8477C0.891272 57.0575 0.329516 57.7913 0.329516 58.6294L0.329515 70.1592C0.329515 70.6807 0.549598 71.1789 0.933829 71.5274C1.31806 71.8771 1.82996 72.044 2.34429 71.99C14.5716 70.6868 23.8904 66.3736 30.043 59.1693C36.1809 51.9847 39.2925 41.7532 39.2925 28.7594L39.2888 18.6715C38.6505 8.20313 30.0454 0.00122286 19.7016 0.00122195C8.83732 0.00122099 9.50314e-07 8.92343 0 19.8937C-9.20232e-07 30.5166 8.23057 39.2388 18.8237 39.7518ZM19.7016 3.68128C28.123 3.68128 35.1279 10.3653 35.6447 18.7832V28.7582C35.6447 40.8451 32.8311 50.2668 27.2804 56.7642C22.0872 62.8445 14.253 66.646 3.97606 68.0805L3.97606 60.0344C10.0812 58.2699 14.7126 55.7641 17.7537 52.5749C21.1047 49.0495 22.8034 44.4393 22.8034 38.8842L22.8107 37.9246C22.8143 37.435 22.6246 36.9626 22.2805 36.6153C21.9389 36.2668 21.4719 36.0717 20.9868 36.0717L18.91 36.0742C10.3511 35.6569 3.64655 28.5508 3.64655 19.8937C3.64776 10.953 10.8497 3.68128 19.7016 3.68128Z" fill="currentColor"/>
</g>
</svg>
