<svg width="32" height="32" viewBox="0 0 32 32" fill="none" xmlns="http://www.w3.org/2000/svg">
<path d="M24 7H22.3333V5.33333C22.3333 4.04667 21.2867 3 20 3H12C10.7133 3 9.66667 4.04667 9.66667 5.33333V7H8C4.776 7 3 8.776 3 12V12.1587V15.0041V24C3 27.224 4.776 29 8 29H24C27.224 29 29 27.224 29 24V15.0041V12.1587V12C29 8.776 27.224 7 24 7ZM11.6667 5.33333C11.6667 5.14933 11.816 5 12 5H20C20.184 5 20.3333 5.14933 20.3333 5.33333V7H11.6667V5.33333ZM5 12C5 9.89733 5.89733 9 8 9H24C26.1027 9 27 9.89733 27 12V12.1587V15.0041C27 15.4054 26.772 15.7559 26.4053 15.9199C25.252 16.4346 23.2867 17.168 20.4773 17.7414C20.34 17.7694 20.192 17.664 20.112 17.5467C19.1453 16.1027 17.6093 15.2414 16 15.2414C14.3907 15.2414 12.8547 16.1027 11.888 17.5467C11.8093 17.6654 11.6667 17.772 11.5227 17.7414C8.71466 17.168 6.748 16.4346 5.59467 15.9199C5.228 15.7559 5 15.4054 5 15.0041V12.1587V12ZM24 27H8C5.89733 27 5 26.1027 5 24V17.84C6.26667 18.388 8.29734 19.1227 11.1213 19.7C12.0413 19.8867 12.9987 19.4801 13.5493 18.6574C14.144 17.7694 15.06 17.2401 16 17.2401C16.94 17.2401 17.856 17.7694 18.4493 18.6574C18.9107 19.3467 19.6547 19.7453 20.4267 19.7453C20.576 19.7453 20.7267 19.7307 20.876 19.7C23.7013 19.1227 25.732 18.388 26.9987 17.84V24C27 26.1027 26.1027 27 24 27ZM17.36 20C17.36 20.736 16.7627 21.3333 16.0267 21.3333C15.2907 21.3333 14.6867 20.736 14.6867 20C14.6867 19.264 15.276 18.6667 16.0133 18.6667H16.0267C16.7627 18.6667 17.36 19.264 17.36 20Z" fill="white"/>
</svg>
