<svg width="32" height="32" viewBox="0 0 32 32" fill="none" xmlns="http://www.w3.org/2000/svg">
<path d="M28.6453 23.152C28.3413 23.6933 27.8867 24.112 27.3293 24.3627L18.5546 28.4373C17.7426 28.8147 16.872 29.004 16 29.004C15.128 29.004 14.256 28.8147 13.444 28.4373L4.65865 24.3573C4.11332 24.112 3.65735 23.6947 3.35335 23.152C3.08269 22.6707 3.25468 22.0613 3.73735 21.7906C4.21735 21.5226 4.82801 21.692 5.09867 22.1747C5.19334 22.344 5.32134 22.4627 5.48934 22.5373L14.288 26.6227C15.3613 27.1213 16.64 27.1213 17.712 26.6227L26.4987 22.5427C26.6787 22.4613 26.8067 22.3427 26.9013 22.1733C27.1707 21.6907 27.78 21.52 28.2627 21.7893C28.744 22.0613 28.916 22.6707 28.6453 23.152ZM28.2627 16.0266C27.78 15.7573 27.1707 15.9267 26.9013 16.4107C26.8067 16.58 26.6787 16.6987 26.4987 16.78L17.712 20.86C16.64 21.3586 15.3613 21.3586 14.288 20.86L5.48934 16.7747C5.32267 16.7 5.19468 16.5813 5.10002 16.412C4.82935 15.9293 4.21865 15.76 3.73865 16.028C3.25731 16.2987 3.08532 16.908 3.35465 17.3893C3.65865 17.932 4.11333 18.3493 4.65999 18.5947L13.4454 22.6747C14.2574 23.052 15.1293 23.2413 16.0013 23.2413C16.8733 23.2413 17.744 23.052 18.556 22.6747L27.3306 18.6C27.888 18.3493 28.344 17.932 28.648 17.3893C28.916 16.9053 28.744 16.296 28.2627 16.0266ZM3 10.24C3 9.10798 3.63731 8.11068 4.66398 7.63468L13.4454 3.564C15.068 2.812 16.9293 2.812 18.5533 3.564L27.3347 7.63468C28.3613 8.11068 28.9987 9.10932 28.9987 10.24C28.9987 11.3707 28.3613 12.3693 27.3347 12.8453L18.5533 16.916C17.7427 17.292 16.8707 17.48 15.9987 17.48C15.1267 17.48 14.256 17.292 13.444 16.916L4.66268 12.8453C3.63735 12.3693 3 11.372 3 10.24ZM5 10.24C5 10.3707 5.036 10.8133 5.50533 11.032L14.2867 15.1027C15.376 15.608 16.6253 15.6067 17.712 15.1027L26.4933 11.032C26.9627 10.8146 26.9987 10.3707 26.9987 10.24C26.9987 10.1093 26.9627 9.66666 26.4933 9.44799L17.712 5.37731C17.168 5.12531 16.5827 4.99865 15.9987 4.99865C15.4147 4.99865 14.8307 5.12531 14.2853 5.37731L5.50399 9.44799C5.03599 9.66666 5 10.1093 5 10.24Z" fill="white"/>
</svg>
