<svg width="32" height="32" viewBox="0 0 32 32" fill="none" xmlns="http://www.w3.org/2000/svg">
<path d="M12.0133 14.3333C15.1387 14.3333 17.68 11.7907 17.68 8.66667C17.68 5.54267 15.1387 3 12.0133 3C8.88801 3 6.34668 5.54267 6.34668 8.66667C6.34668 11.7907 8.88801 14.3333 12.0133 14.3333ZM12.0133 5C14.036 5 15.68 6.644 15.68 8.66667C15.68 10.6893 14.036 12.3333 12.0133 12.3333C9.99068 12.3333 8.34668 10.6893 8.34668 8.66667C8.34668 6.644 9.99068 5 12.0133 5ZM22.3346 24.0254V28C22.3346 28.552 21.8866 29 21.3346 29C20.7826 29 20.3346 28.552 20.3346 28V24.0254C20.3346 22.6907 19.9253 18.3333 14.668 18.3333H9.33463C4.0773 18.3333 3.66797 22.6894 3.66797 24.0254V28C3.66797 28.552 3.21997 29 2.66797 29C2.11597 29 1.66797 28.552 1.66797 28V24.0254C1.66797 20.4774 3.67597 16.3333 9.33463 16.3333H14.668C20.3266 16.3333 22.3346 20.4761 22.3346 24.0254ZM18.8747 13.6213C18.48 13.2346 18.4719 12.6014 18.8586 12.2067C19.2466 11.812 19.8799 11.8067 20.2733 12.1921C20.7519 12.6614 21.3946 12.9199 22.0799 12.9199C23.5532 12.9199 24.708 11.7666 24.708 10.2933C24.708 8.84529 23.5292 7.66667 22.0799 7.66667C21.6692 7.66667 21.2987 7.75068 20.9774 7.91602C20.488 8.17068 19.884 7.97472 19.6307 7.48405C19.3774 6.99338 19.572 6.3907 20.0627 6.13737C20.6707 5.82537 21.3492 5.66667 22.0799 5.66667C24.6319 5.66667 26.708 7.74263 26.708 10.2933C26.708 12.844 24.6319 14.9199 22.0799 14.9199C20.8679 14.9199 19.7307 14.4586 18.8747 13.6213ZM30.3346 22.2401V25.3333C30.3346 25.8853 29.8866 26.3333 29.3346 26.3333C28.7826 26.3333 28.3346 25.8853 28.3346 25.3333V22.2401C28.3346 21.2547 28.0319 18.04 24.1479 18.04H22.1333C21.5813 18.04 21.1333 17.592 21.1333 17.04C21.1333 16.488 21.5813 16.04 22.1333 16.04H24.1479C28.7146 16.04 30.3346 19.3801 30.3346 22.2401Z" fill="white"/>
</svg>
