<svg width="32" height="32" viewBox="0 0 32 32" fill="none" xmlns="http://www.w3.org/2000/svg">
<path d="M26.6904 9.11738C27.6105 8.261 28.1875 7.04063 28.1875 5.6875C28.1875 3.10281 26.0847 1 23.5 1C20.9153 1 18.8125 3.10281 18.8125 5.6875C18.8125 7.04325 19.3917 8.26581 20.3149 9.1225C18.4662 9.87519 16.9264 11.2681 16 13.0651C15.0736 11.2681 13.5337 9.87525 11.6851 9.1225C12.6083 8.26581 13.1875 7.04325 13.1875 5.6875C13.1875 3.10281 11.0847 1 8.5 1C5.91531 1 3.8125 3.10281 3.8125 5.6875C3.8125 7.04063 4.3895 8.261 5.30956 9.11738C2.19906 10.3724 0 13.4046 0 16.9375C0 17.4552 0.41975 17.875 0.9375 17.875H11.4068C11.3451 18.178 11.3125 18.4915 11.3125 18.8125C11.3125 20.1691 11.8924 21.3924 12.8166 22.2491C9.73769 23.5081 7.5625 26.5358 7.5625 30.0625C7.5625 30.5802 7.98225 31 8.5 31H23.5C24.0177 31 24.4375 30.5802 24.4375 30.0625C24.4375 26.5358 22.2623 23.5081 19.1834 22.2491C20.1076 21.3924 20.6875 20.1691 20.6875 18.8125C20.6875 18.4915 20.6549 18.178 20.5932 17.875H31.0625C31.5802 17.875 32 17.4552 32 16.9375C32 13.4046 29.8009 10.3724 26.6904 9.11738ZM23.5 2.88125C25.0508 2.88125 26.3125 4.14294 26.3125 5.69375C26.3125 7.24456 25.0508 8.50625 23.5 8.50625C21.9492 8.50625 20.6875 7.24456 20.6875 5.69375C20.6875 4.14294 21.9492 2.88125 23.5 2.88125ZM18.8125 18.8188C18.8125 20.3696 17.5508 21.6313 16 21.6313C14.4492 21.6313 13.1875 20.3696 13.1875 18.8188C13.1875 17.2679 14.4492 16.0063 16 16.0063C17.5508 16.0063 18.8125 17.2679 18.8125 18.8188ZM8.5 2.88125C10.0508 2.88125 11.3125 4.14294 11.3125 5.69375C11.3125 7.24456 10.0508 8.50625 8.5 8.50625C6.94919 8.50625 5.6875 7.24456 5.6875 5.69375C5.6875 4.14294 6.94919 2.88125 8.5 2.88125ZM12.2525 16.0063C12.2516 16.0064 12.2508 16.0063 12.25 16.0063H1.94237C2.40306 12.8302 5.16825 10.3813 8.5 10.3813C11.1625 10.3813 13.5203 11.9785 14.5369 14.3663C13.6176 14.6692 12.8227 15.2484 12.2525 16.0063ZM22.4958 29.1313H9.50425C9.9605 25.9552 12.6996 23.5063 16 23.5063C19.3004 23.5063 22.0394 25.9552 22.4958 29.1313ZM19.75 16.0063C19.7492 16.0063 19.7484 16.0064 19.7475 16.0064C19.1772 15.2484 18.3824 14.6692 17.4631 14.3664C18.4797 11.9785 20.8374 10.3813 23.5 10.3813C26.8317 10.3813 29.5969 12.8302 30.0576 16.0063H19.75Z" fill="currentColor"/>
</svg>
