<svg width="32" height="32" viewBox="0 0 32 32" fill="none" xmlns="http://www.w3.org/2000/svg">
<path d="M16.0013 30.3332C8.09464 30.3332 1.66797 23.9065 1.66797 15.9998C1.66797 8.09317 8.09464 1.6665 16.0013 1.6665C23.908 1.6665 30.3346 8.09317 30.3346 15.9998C30.3346 23.9065 23.908 30.3332 16.0013 30.3332ZM16.0013 3.6665C9.2013 3.6665 3.66797 9.19984 3.66797 15.9998C3.66797 22.7998 9.2013 28.3332 16.0013 28.3332C22.8013 28.3332 28.3346 22.7998 28.3346 15.9998C28.3346 9.19984 22.8013 3.6665 16.0013 3.6665ZM21.668 13.3332C21.668 11.9865 20.9613 10.9998 20.0013 10.9998C19.0413 10.9998 18.3346 11.9865 18.3346 13.3332C18.3346 14.6798 19.0413 15.6665 20.0013 15.6665C20.9613 15.6665 21.668 14.6798 21.668 13.3332ZM13.668 13.3332C13.668 11.9865 12.9613 10.9998 12.0013 10.9998C11.0413 10.9998 10.3346 11.9865 10.3346 13.3332C10.3346 14.6798 11.0413 15.6665 12.0013 15.6665C12.9613 15.6665 13.668 14.6798 13.668 13.3332ZM22.1346 20.5998C22.468 20.1598 22.388 19.5332 21.948 19.1998C21.508 18.8665 20.8813 18.9465 20.548 19.3865C19.4546 20.8265 17.8013 21.6532 16.0146 21.6532C14.228 21.6532 12.5613 20.7998 11.4946 19.3865C11.1613 18.9465 10.5346 18.8532 10.0946 19.1865C9.65463 19.5198 9.5613 20.1465 9.89463 20.5865C11.3346 22.5065 13.628 23.6532 16.0146 23.6532C18.4013 23.6532 20.668 22.5332 22.148 20.5865L22.1346 20.5998Z" fill="white"/>
</svg>
