<svg width="32" height="32" viewBox="0 0 32 32" fill="none" xmlns="http://www.w3.org/2000/svg">
<g clip-path="url(#clip0_1_27232)">
<path d="M29.9468 26.6265L25.9795 18.6912C27.2781 16.7759 28.0376 14.4668 28.0376 11.9834C28.0376 5.37573 22.6619 0 16.0542 0C9.44657 0 4.07084 5.37573 4.07084 11.9834C4.07084 14.4668 4.83036 16.7761 6.12919 18.6917L2.16141 26.6265C2.01615 26.9172 2.03177 27.2622 2.20243 27.5386C2.37333 27.8149 2.67508 27.9834 3.00004 27.9834H7.55204L10.2832 31.625C10.4615 31.8623 10.7398 32 11.0332 32C11.4222 32 11.7286 31.7681 11.8719 31.4817L15.6336 23.9585C15.7732 23.9634 15.9134 23.9668 16.0542 23.9668C16.1951 23.9668 16.3352 23.9634 16.4749 23.9585L20.2366 31.4817C20.3794 31.7676 20.6861 32 21.0752 32C21.3684 32 21.647 31.8623 21.825 31.625L24.5564 27.9834H29.1084C29.4334 27.9834 29.7351 27.8149 29.9058 27.5386C30.0767 27.2622 30.0923 26.9172 29.9468 26.6265ZM10.8733 29.2864L8.77079 26.4834C8.59378 26.2473 8.31595 26.1084 8.02079 26.1084H4.51688L7.42606 20.2905C9.07792 22.0054 11.2342 23.2312 13.6538 23.7251L10.8733 29.2864ZM5.94584 11.9834C5.94584 6.40967 10.4805 1.875 16.0542 1.875C21.628 1.875 26.1626 6.40967 26.1626 11.9834C26.1626 17.5571 21.628 22.0918 16.0542 22.0918C10.4805 22.0918 5.94584 17.5571 5.94584 11.9834ZM24.0874 26.1084C23.7925 26.1084 23.5147 26.2473 23.3374 26.4834L21.2351 29.2864L18.4544 23.7251C20.8743 23.231 23.0308 22.0054 24.6827 20.29L27.5913 26.1082H24.0874V26.1084Z" fill="currentColor"/>
<path d="M20.8375 13.5383L23.4557 10.4133C23.6632 10.1658 23.7287 9.82886 23.6288 9.52173C23.529 9.21436 23.278 8.98022 22.9647 8.90186L19.0099 7.9126L16.8466 4.45679C16.6752 4.18286 16.3749 4.0166 16.0519 4.0166C15.7289 4.0166 15.4286 4.18286 15.2572 4.45679L13.0944 7.9126L9.13979 8.90186C8.82631 8.98022 8.57534 9.21436 8.47548 9.52148C8.37587 9.82886 8.44106 10.1658 8.64858 10.4133L11.2667 13.5383L10.985 17.605C10.9628 17.9272 11.1078 18.2383 11.369 18.4282C11.7658 18.7166 12.1693 18.5801 12.2706 18.5393L16.0519 17.0154L19.8331 18.5396C20.1327 18.6602 20.4733 18.6182 20.7345 18.4285C20.996 18.2385 21.141 17.9275 21.1188 17.6052L20.8375 13.5383ZM19.1576 12.6238C19.0019 12.8098 18.9242 13.0486 18.9411 13.2905L19.1449 16.2405L16.4025 15.135C16.0985 15.0125 15.8319 15.0823 15.7016 15.135L12.9591 16.2405L13.1635 13.2908C13.1801 13.0488 13.1024 12.8098 12.9467 12.6238L11.0477 10.3574L13.9162 9.63989C14.1515 9.58105 14.3546 9.43335 14.4833 9.22778L16.0521 6.72119L17.6212 9.22778C17.7499 9.43335 17.953 9.58105 18.1884 9.63989L21.0568 10.3574L19.1576 12.6238Z" fill="currentColor"/>
</g>
<defs>
<clipPath id="clip0_1_27232">
<rect width="32" height="32" fill="currentColor"/>
</clipPath>
</defs>
</svg>
