<svg width="32" height="32" viewBox="0 0 32 32" fill="none" xmlns="http://www.w3.org/2000/svg">
<path d="M32 16.0008C32.0003 15.6772 31.8338 15.3764 31.5594 15.2049L28.3247 13.1832L31.5579 11.1709C31.8324 11 31.9995 10.6997 32 10.3764C32.0005 10.053 31.8343 9.75225 31.5603 9.58056L16.4978 0.143062C16.1933 -0.0476875 15.8067 -0.0476875 15.5023 0.143062L0.439751 9.58056C0.165689 9.75225 -0.000498875 10.0531 1.12506e-06 10.3764C0.000501125 10.6997 0.167626 11.0001 0.442126 11.1709L3.67531 13.1832L0.440626 15.2049C0.166251 15.3764 -0.000311375 15.6773 1.12506e-06 16.0008C0.000313625 16.3243 0.167439 16.6249 0.442126 16.7959L3.67531 18.8082L0.440626 20.8299C0.166689 21.0012 0.000188625 21.3014 1.12506e-06 21.6244C-0.000186375 21.9475 0.165939 22.2479 0.439751 22.4194L15.5023 31.8569C15.8068 32.0476 16.1933 32.0476 16.4978 31.8569L31.5603 22.4194C31.8341 22.2479 32.0002 21.9475 32 21.6244C31.9998 21.3014 31.8333 21.0012 31.5594 20.8299L28.3247 18.8082L31.5579 16.7959C31.8326 16.6249 31.9997 16.3244 32 16.0008ZM2.70744 10.3722L16 2.04381L29.2926 10.3723L16 18.6457L2.70744 10.3722ZM29.2953 21.626L16 29.9562L2.70475 21.626L5.44788 19.9116L15.5046 26.1709C15.8078 26.3597 16.1921 26.3597 16.4954 26.1709L26.5521 19.9116L29.2953 21.626ZM16 24.2707L2.70906 15.9984L5.44794 14.2866L15.5047 20.5459C15.8078 20.7347 16.1922 20.7347 16.4954 20.5459L26.5522 14.2866L29.2911 15.9984L16 24.2707Z" fill="currentColor"/>
</svg>
