<svg width="32" height="32" viewBox="0 0 32 32" fill="none" xmlns="http://www.w3.org/2000/svg">
<g clip-path="url(#clip0_1_27212)">
<path d="M27.3137 4.68625C24.2917 1.66425 20.2738 0 16 0C11.7262 0 7.70825 1.66425 4.68625 4.68625C1.66431 7.70819 0 11.7262 0 15.9999C0 20.2736 1.66431 24.2916 4.68625 27.3136C7.70825 30.3356 11.7262 31.9999 16 31.9999C20.2738 31.9999 24.2917 30.3356 27.3137 27.3136C30.3357 24.2916 32 20.2736 32 15.9999C32 11.7261 30.3357 7.70819 27.3137 4.68625ZM16 30.1213C8.2135 30.1213 1.87869 23.7864 1.87869 15.9999C1.87869 8.21344 8.2135 1.87863 16 1.87863C23.7865 1.87863 30.1213 8.21337 30.1213 15.9999C30.1213 23.7864 23.7865 30.1213 16 30.1213Z" fill="currentColor"/>
<path d="M10.9794 9.53662C10.481 9.53662 9.99772 9.68393 9.58178 9.95062C9.16578 9.68387 8.68259 9.53662 8.18416 9.53662C6.70628 9.53662 5.50391 10.7998 5.50391 12.3525C5.50391 12.8058 5.60897 13.2566 5.80691 13.6544C6.97009 16.0056 9.02622 17.2084 9.11316 17.2584C9.25803 17.3419 9.41984 17.3837 9.58166 17.3837C9.74341 17.3837 9.90522 17.3419 10.0503 17.2584C10.1373 17.2084 12.1933 16.0056 13.3556 13.6563C13.5544 13.2567 13.6596 12.8058 13.6596 12.3525C13.6597 10.7998 12.4573 9.53662 10.9794 9.53662ZM11.6727 12.8213C11.0709 14.0376 10.1403 14.8767 9.58166 15.3041C9.02309 14.8767 8.09222 14.0371 7.48984 12.8194C7.41966 12.6784 7.38259 12.5169 7.38259 12.3524C7.38259 11.8357 7.74216 11.4152 8.18416 11.4152C8.42678 11.4152 8.65441 11.5435 8.80866 11.7671C8.98397 12.0211 9.27303 12.1728 9.58172 12.1728C9.89047 12.1728 10.1795 12.0211 10.3548 11.7671C10.5091 11.5435 10.7367 11.4152 10.9793 11.4152C11.4213 11.4152 11.7808 11.8357 11.7808 12.3524C11.7808 12.5169 11.7438 12.6784 11.6727 12.8213Z" fill="currentColor"/>
<path d="M23.8193 9.53662C23.3208 9.53662 22.8376 9.68393 22.4216 9.95062C22.0056 9.68387 21.5224 9.53662 21.024 9.53662C19.5461 9.53662 18.3438 10.7998 18.3438 12.3525C18.3438 12.8058 18.4488 13.2566 18.6468 13.6544C19.8099 16.0056 21.8661 17.2084 21.953 17.2584C22.098 17.3419 22.2598 17.3837 22.4216 17.3837C22.5834 17.3837 22.7452 17.3419 22.8903 17.2584C22.9773 17.2084 25.0333 16.0056 26.1956 13.6563C26.3944 13.2567 26.4996 12.8058 26.4996 12.3525C26.4996 10.7998 25.2972 9.53662 23.8193 9.53662ZM24.5127 12.8214C23.9109 14.0376 22.9803 14.8767 22.4217 15.3041C21.863 14.8767 20.9321 14.0371 20.3298 12.8194C20.2596 12.6784 20.2225 12.5169 20.2225 12.3524C20.2225 11.8357 20.5821 11.4152 21.0241 11.4152C21.2667 11.4152 21.4943 11.5435 21.6486 11.7671C21.8239 12.0211 22.1129 12.1728 22.4216 12.1728C22.7304 12.1728 23.0194 12.0211 23.1947 11.7671C23.349 11.5435 23.5766 11.4152 23.8192 11.4152C24.2612 11.4152 24.6208 11.8357 24.6208 12.3524C24.6209 12.5169 24.5838 12.6784 24.5127 12.8214Z" fill="currentColor"/>
<path d="M22.8866 21.5573C22.5199 21.1906 21.9251 21.1906 21.5582 21.5573C20.0738 23.0417 18.1001 23.8593 16.0008 23.8593C13.9015 23.8593 11.9278 23.0417 10.4434 21.5573C10.0766 21.1905 9.48183 21.1905 9.11495 21.5573C8.74814 21.9241 8.74814 22.5189 9.11495 22.8858C10.9541 24.725 13.3996 25.738 16.0007 25.738C18.6018 25.738 21.0473 24.725 22.8865 22.8858C23.2535 22.519 23.2535 21.9242 22.8866 21.5573Z" fill="currentColor"/>
</g>
<defs>
<clipPath id="clip0_1_27212">
<rect width="32" height="32" fill="currentColor"/>
</clipPath>
</defs>
</svg>
