<svg xmlns="http://www.w3.org/2000/svg" width="543.128" height="455.002" viewBox="0 0 543.128 455.002">
  <path id="Union_1" data-name="Union 1" d="M-1868.394,4226.895c-7.95-11.565,24.761-16.939,48.218-28.668s41.7-28.669,52.125-15.639-24.76,35.837-43,44.307c-9.59,4.453-22.963,7.105-34.531,7.105C-1856.024,4234-1864.993,4231.84-1868.394,4226.895Zm-181.054-46.2c-51.547-41.613-31.721-88.427-15.861-119.681s-9.252-61.073-27.755-87.081-51.285-93.73,0-139.142c26.434-23.406,88.022-52.415,165.467-54.615,152.628-4.334,166.287,72.823,164.966,131.339s11.9,70.222,35.687,110.414,26.434,83.344-47.582,140.561c-40.93,31.64-104.883,46.58-162.61,46.577C-1983.8,4209.063-2026.4,4199.3-2049.448,4180.695Zm364.8-70.786c-9.735-.869,6.749-39.354,16.943-56.034,21.5-35.185,53.7-9.326,35.182,7.122-39.8,35.356-47.346,48.921-51.923,48.921C-1684.517,4109.918-1684.584,4109.915-1684.651,4109.909Zm-461.525-99.178c12.8-17.827,72.976,50.343,49.518,61.683a23.039,23.039,0,0,1-10.123,2.385C-2133.845,4074.8-2157.005,4025.815-2146.177,4010.73Zm428.948-42.669c21.019-5.546,43.138,48.871,20.984,49.523-.157,0-.312.007-.469.007C-1718.617,4017.59-1733.978,3972.48-1717.228,3968.062Zm-408.969-6.269c16.074-2.173,22.589,24.326,5.649,28.235a12.7,12.7,0,0,1-2.862.344C-2137.435,3990.369-2136.7,3963.212-2126.2,3961.792Zm380.813-87.1c-3.794-35.131-31.256-67.426-13.615-83.129s44.242-7.687,56.456,32.57-3.548,121.884-20.02,128.06a22.736,22.736,0,0,1-7.836,1.681C-1748.668,3953.869-1740.839,3916.807-1745.385,3874.689Zm-422.057-26.75c7.189-37.14,37.506-51.271,47.349-48.684,18.047,4.745,11.272,23.273-8.276,52.894s-3.909,55.081-15.4,60.863a6.012,6.012,0,0,1-2.734.649C-2158.042,3913.661-2174.084,3882.262-2167.442,3847.939Z" transform="translate(2169.608 -3779.498)" fill="#acacac" stroke="rgba(0,0,0,0)" stroke-miterlimit="10" stroke-width="1"/>
</svg>
