<?xml version="1.0" standalone="no"?>
<!DOCTYPE svg PUBLIC "-//W3C//DTD SVG 20010904//EN"
 "http://www.w3.org/TR/2001/REC-SVG-20010904/DTD/svg10.dtd">
<svg version="1.0" xmlns="http://www.w3.org/2000/svg"
 width="2049.000000pt" height="1152.000000pt" viewBox="0 0 2049.000000 1152.000000"
 preserveAspectRatio="xMidYMid meet">
<metadata>
Created by potrace 1.16, written by Peter Selinger 2001-2019
</metadata>
<g transform="translate(0.000000,1152.000000) scale(0.100000,-0.100000)"
fill="#000000" stroke="none">
<path d="M4667 11143 c-4 -3 -7 -23 -7 -44 0 -40 19 -59 58 -59 32 0 106 47
125 79 l18 31 -94 0 c-51 0 -97 -3 -100 -7z"/>
<path d="M10014 10872 c-109 -59 -131 -74 -147 -97 -12 -16 -17 -39 -15 -62 2
-30 8 -38 32 -46 44 -15 115 23 152 81 53 83 55 88 44 116 -11 30 -23 32 -66
8z"/>
<path d="M7071 10383 c-24 -47 53 -140 106 -130 23 4 23 4 23 -139 0 -168 12
-238 44 -260 46 -29 70 2 132 173 30 84 34 105 34 198 0 96 -2 105 -22 119
-12 9 -32 16 -43 16 -39 0 -98 -22 -121 -45 -16 -16 -24 -19 -24 -10 0 65
-102 127 -129 78z"/>
<path d="M11893 10098 c-29 -32 -45 -93 -41 -158 3 -54 4 -55 32 -53 16 1 36
9 46 18 25 23 42 91 38 155 -3 50 -5 55 -28 58 -17 2 -33 -5 -47 -20z"/>
<path d="M12483 9970 c-47 -11 -82 -37 -89 -65 -3 -14 -4 -103 -2 -198 4 -198
14 -232 63 -232 26 0 33 7 57 55 59 116 78 196 78 318 0 112 0 113 -26 122
-28 11 -35 11 -81 0z"/>
<path d="M8421 9643 c-13 -3 -48 -28 -76 -57 -42 -42 -55 -62 -63 -103 -21
-95 24 -171 124 -209 44 -17 47 -17 80 1 43 23 74 86 81 163 12 132 -53 223
-146 205z"/>
<path d="M10521 9463 c-32 -39 -35 -68 -14 -110 16 -33 23 -38 56 -41 69 -6
95 45 66 127 -20 56 -74 68 -108 24z"/>
<path d="M8863 9384 c-44 -22 -76 -74 -68 -111 19 -84 50 -113 122 -113 56 0
100 31 113 80 29 107 -72 193 -167 144z"/>
<path d="M4614 9256 c-32 -32 -34 -38 -34 -105 l0 -71 40 -20 c21 -11 44 -29
49 -39 18 -32 118 -131 133 -131 8 0 23 -9 33 -20 10 -11 24 -20 31 -20 7 0
44 -39 82 -87 94 -117 117 -138 255 -227 112 -73 117 -77 117 -111 0 -30 7
-40 53 -76 28 -23 60 -55 69 -73 9 -17 33 -46 52 -64 20 -19 36 -38 36 -43 0
-5 40 -48 89 -96 71 -70 93 -99 109 -143 16 -45 41 -76 136 -172 63 -65 146
-137 183 -162 145 -93 273 -221 273 -271 0 -13 -22 -53 -50 -89 -27 -36 -50
-69 -50 -74 0 -13 -225 -229 -309 -297 -38 -31 -72 -62 -75 -70 -3 -8 -12 -15
-19 -15 -8 0 -21 -9 -28 -21 -15 -21 -126 -66 -196 -78 -22 -4 -72 -24 -110
-43 -37 -20 -84 -41 -105 -47 -41 -13 -68 -57 -68 -110 0 -37 26 -51 91 -51
48 0 113 -31 135 -65 23 -35 14 -93 -33 -208 l-38 -92 -121 -3 c-99 -2 -123 0
-134 13 -29 36 -165 2 -165 -41 0 -25 71 -62 88 -45 8 8 14 8 24 0 9 -9 17 -8
28 1 27 22 220 0 243 -28 14 -19 16 -74 2 -88 -7 -7 -5 -25 6 -56 15 -45 34
-71 88 -115 29 -24 34 -60 14 -93 -9 -15 -10 -23 -2 -28 11 -7 36 -98 53 -195
7 -41 6 -47 -8 -43 -9 2 -38 9 -64 16 -53 14 -87 48 -87 87 0 29 -66 140 -91
154 -21 11 -79 12 -96 1 -6 -4 -14 -39 -18 -78 -6 -59 -4 -78 13 -115 38 -86
102 -123 366 -209 51 -17 81 -34 117 -69 54 -52 60 -76 34 -146 -8 -22 -14
-61 -15 -88 l0 -48 -30 16 c-38 19 -130 19 -178 -1 -41 -17 -92 -61 -92 -79 0
-16 43 -34 95 -41 33 -5 56 0 112 25 39 17 78 31 87 31 9 0 16 8 16 18 0 15 8
17 68 15 37 -1 110 -4 162 -6 79 -3 105 -8 152 -31 61 -29 128 -97 128 -129 0
-25 211 -240 257 -262 18 -9 33 -22 33 -30 0 -7 28 -39 62 -69 64 -59 127 -86
197 -86 35 0 120 -34 133 -54 18 -26 4 -60 -56 -138 -39 -51 -83 -127 -116
-198 -29 -63 -63 -124 -76 -135 -27 -24 -33 -72 -9 -81 18 -7 88 38 109 71 8
13 18 35 22 49 8 32 24 42 89 52 28 4 73 20 100 36 75 42 130 67 155 70 29 4
61 -46 64 -100 1 -20 11 -67 21 -105 16 -54 17 -73 8 -97 -9 -23 -8 -49 4
-113 31 -168 35 -180 72 -204 40 -27 112 -31 131 -8 10 13 15 10 34 -18 18
-27 29 -32 68 -35 40 -3 49 1 67 24 23 29 27 64 10 96 -12 22 -74 52 -90 43
-17 -11 29 97 52 121 13 14 34 24 50 24 16 0 43 13 67 34 35 28 51 34 113 40
44 5 75 4 82 -3 9 -9 7 -43 -9 -173 -5 -40 -2 -55 20 -92 27 -47 42 -106 75
-303 28 -166 58 -225 96 -187 19 19 19 64 0 106 -8 18 -26 85 -39 149 -22 101
-26 149 -30 360 l-5 243 25 22 c30 29 31 48 2 69 -21 14 -13 15 122 13 l145
-3 22 -57 c35 -87 49 -227 35 -336 -7 -50 -9 -97 -6 -106 17 -45 54 11 54 81
0 31 40 115 60 128 4 3 6 -22 3 -55 l-6 -60 44 -44 c68 -68 148 -84 210 -42
20 14 52 28 73 31 47 9 57 29 63 126 5 65 8 77 19 68 10 -8 14 -37 14 -94 l0
-82 -41 -33 c-46 -36 -99 -114 -99 -143 0 -17 5 -19 43 -13 23 4 54 13 68 20
l26 13 6 -156 c4 -86 7 -399 7 -696 0 -494 2 -543 18 -575 13 -26 23 -35 42
-35 18 0 30 9 43 35 16 32 17 54 11 230 -3 107 -7 200 -8 205 0 6 4 9 11 8 18
-4 63 55 63 82 0 22 -44 65 -68 65 -5 0 -12 61 -15 138 -11 238 -20 799 -13
817 5 14 12 10 37 -24 32 -45 104 -96 149 -106 l28 -6 -49 -97 c-48 -94 -50
-100 -48 -177 1 -69 6 -94 41 -180 54 -134 95 -211 125 -230 13 -9 71 -56 128
-105 l104 -90 76 0 c42 0 84 5 95 12 23 15 17 21 70 -77 60 -112 103 -168 159
-209 161 -118 277 -123 427 -17 150 105 335 358 404 553 l19 53 43 -3 c24 -1
57 -5 75 -8 l32 -5 -30 -27 c-77 -69 -28 -222 70 -222 57 0 88 15 112 52 26
42 21 116 -10 159 l-22 29 35 0 c19 0 46 4 60 10 23 8 27 5 52 -37 14 -25 48
-67 74 -92 l48 -46 12 -485 c6 -267 13 -696 16 -955 4 -437 5 -472 22 -495 58
-78 168 -45 174 52 0 13 -6 93 -15 178 -31 291 -58 842 -71 1428 -5 204 -4
223 12 229 9 3 53 23 98 43 159 73 186 166 120 419 -28 108 -31 131 -19 131 8
0 28 -14 43 -30 l29 -31 123 3 123 3 0 78 c0 64 3 80 18 88 22 13 22 58 1 66
-9 3 -24 1 -34 -4 -13 -9 -19 -7 -28 7 -9 15 -6 31 19 82 73 151 84 165 144
173 56 9 76 16 120 45 45 30 108 60 127 60 9 0 20 5 23 10 7 12 55 13 73 2 9
-6 12 -40 12 -118 0 -60 0 -131 0 -159 2 -112 -3 -129 -36 -145 -26 -12 -32
-21 -32 -50 0 -19 -4 -53 -7 -75 -6 -33 -1 -51 27 -104 27 -53 41 -69 80 -89
41 -21 54 -23 112 -17 81 9 119 33 160 99 37 59 49 163 22 185 -12 10 -13 18
-4 35 17 34 45 56 70 56 13 0 45 15 73 34 41 28 63 36 122 42 72 6 72 6 79
-20 3 -14 3 -43 -1 -64 -19 -106 -18 -154 5 -184 21 -28 40 -108 85 -352 18
-98 40 -146 67 -146 29 0 45 45 29 83 -7 18 -26 88 -43 157 -27 115 -29 143
-33 365 -2 132 -2 268 1 303 l6 62 140 0 139 0 21 -46 c43 -99 57 -267 33
-414 -3 -19 -1 -42 5 -50 17 -24 40 16 40 70 0 34 8 59 31 96 37 58 44 64 85
64 25 0 45 -15 118 -90 49 -49 93 -90 100 -91 28 -3 82 2 94 10 8 4 16 27 19
50 5 33 10 41 27 41 11 0 36 9 54 20 l32 20 10 -26 c6 -14 10 -34 10 -44 0
-29 11 -50 31 -60 15 -8 31 3 96 68 64 63 99 88 193 136 188 97 189 98 187
149 -2 37 5 54 35 98 22 32 42 77 49 108 16 77 6 251 -19 328 -24 74 -21 78
66 96 32 7 67 18 76 26 11 9 20 10 29 4 6 -6 42 -16 79 -23 70 -13 126 -43
214 -116 62 -52 85 -64 122 -64 53 0 91 -12 118 -37 14 -13 42 -31 62 -41 23
-10 43 -30 53 -51 9 -19 29 -41 45 -50 30 -17 100 -82 389 -361 93 -91 197
-185 230 -210 33 -25 65 -56 71 -67 17 -35 140 -163 156 -163 8 0 24 -11 36
-25 12 -14 28 -25 35 -25 7 0 28 -16 47 -35 19 -19 39 -35 46 -35 6 0 41 -16
78 -35 37 -19 74 -35 82 -35 25 0 93 -39 104 -60 10 -18 21 -20 135 -20 l125
0 6 26 c11 45 -2 120 -33 185 -57 120 -324 464 -464 599 -29 27 -59 42 -133
64 -140 42 -195 70 -246 125 -38 41 -71 61 -210 125 -91 43 -176 88 -190 101
-14 13 -59 39 -100 58 -41 19 -84 44 -94 56 -11 11 -24 21 -31 21 -7 0 -20 9
-30 20 -10 11 -24 20 -31 20 -7 0 -31 26 -54 59 -39 55 -72 81 -105 81 -8 0
-33 25 -55 56 -23 30 -48 58 -56 61 -8 3 -14 11 -14 17 0 7 -11 27 -25 46 -17
23 -25 47 -25 74 0 41 -15 91 -38 133 -24 44 -9 137 25 150 9 4 29 -1 45 -10
39 -22 58 -21 58 2 0 13 -11 23 -34 31 -38 12 -38 12 -56 135 -6 39 -18 112
-26 164 -16 95 -16 94 15 161 4 8 30 26 57 39 100 48 99 47 102 90 5 64 -14
119 -48 136 -37 19 -54 77 -47 158 9 99 93 203 182 223 48 12 56 43 14 58 -21
7 -36 4 -68 -12 -53 -28 -63 -27 -99 3 -26 22 -30 32 -34 97 -3 40 -9 82 -15
93 -6 11 -16 31 -22 45 -6 14 -15 32 -19 40 -5 8 -15 29 -23 45 -9 19 -31 38
-58 51 -64 31 -73 47 -65 119 4 33 13 77 20 99 8 21 14 57 14 80 0 51 -26 176
-39 189 -10 10 -69 23 -146 34 -40 5 -74 34 -75 62 0 7 -11 26 -23 41 -13 15
-35 65 -48 111 l-24 83 -145 148 c-80 81 -153 148 -162 148 -10 0 -52 16 -95
36 -43 20 -94 43 -113 51 -65 29 -95 46 -115 63 -11 10 -34 25 -51 33 -41 21
-81 70 -111 134 -30 64 -62 78 -180 77 -77 0 -98 6 -73 21 17 11 52 86 46 101
-8 20 -85 18 -121 -4 -16 -10 -43 -39 -60 -63 -16 -24 -31 -46 -32 -48 -8 -11
-113 55 -113 71 0 10 -8 22 -18 27 -10 5 -31 34 -46 63 -46 85 -70 112 -124
137 -41 19 -54 32 -72 71 -19 40 -21 57 -15 107 4 38 2 76 -6 104 -6 24 -11
69 -10 99 2 63 -39 195 -61 195 -9 0 -14 -21 -18 -71 -3 -40 -11 -79 -20 -88
-12 -16 -11 -20 10 -36 21 -16 26 -30 32 -92 4 -40 17 -110 29 -155 13 -50 19
-91 15 -108 -4 -15 -29 -49 -56 -75 -36 -35 -53 -61 -64 -101 -17 -58 -70
-313 -81 -392 -7 -44 -9 -47 -24 -32 -22 19 -27 19 -35 -2 -4 -10 2 -26 17
-42 24 -25 24 -29 14 -93 -9 -62 -12 -66 -40 -72 -63 -13 -116 -7 -129 14 -7
11 -18 20 -24 20 -6 0 -14 19 -18 41 -4 23 -11 50 -17 60 -12 22 -37 25 -45 5
-8 -21 32 -106 50 -106 21 0 21 -53 1 -70 -21 -17 -71 -3 -93 27 -27 37 -52
25 -52 -25 0 -68 -46 -102 -137 -102 -35 0 -63 3 -63 8 0 4 -4 13 -9 20 -7 11
-16 10 -49 -7 -73 -37 -242 -18 -257 29 -4 11 -18 33 -31 50 -20 23 -25 41
-25 82 0 58 29 139 63 175 l21 23 18 -30 c12 -19 32 -33 59 -41 27 -8 45 -21
50 -35 12 -30 39 -43 73 -37 16 3 37 -1 52 -11 20 -13 30 -14 46 -5 17 9 24 8
30 -2 5 -8 19 -29 30 -47 28 -44 45 -36 42 22 -2 33 1 46 11 46 7 0 21 9 31
20 10 11 28 20 39 20 29 0 87 54 102 93 7 18 28 72 48 122 31 76 35 94 25 116
-6 16 -8 46 -4 72 7 43 6 46 -24 61 -29 16 -36 29 -32 68 1 9 -5 31 -14 47
-12 24 -27 34 -71 47 -36 10 -67 28 -90 51 -29 29 -40 34 -62 28 -53 -14 -90
-9 -126 18 -49 38 -60 35 -52 -12 6 -37 3 -42 -29 -66 -19 -15 -52 -29 -74
-32 -53 -7 -80 -38 -106 -120 l-22 -67 -53 72 c-52 72 -63 81 -75 62 -3 -5
-17 -10 -30 -10 -19 0 -30 10 -45 40 l-21 41 -28 -21 c-38 -26 -81 -27 -81 -1
0 11 -10 27 -22 35 -30 21 -58 4 -58 -34 0 -33 -29 -55 -61 -47 -11 3 -31 -4
-47 -16 -32 -26 -92 -26 -92 0 0 14 64 94 81 101 3 1 12 -11 19 -28 7 -16 18
-30 26 -30 14 0 19 13 30 75 5 30 19 50 53 81 51 47 49 66 -4 41 -20 -9 -38
-17 -40 -17 -9 0 -5 41 6 61 7 13 7 24 1 32 -21 25 -48 124 -38 139 13 21 0
50 -21 46 -10 -2 -19 -14 -21 -28 -2 -14 -13 -35 -24 -46 -12 -14 -24 -48 -31
-93 -6 -39 -13 -71 -16 -71 -3 0 -15 21 -25 48 -12 29 -45 72 -85 113 -63 62
-99 84 -223 138 -39 16 -48 25 -48 45 0 14 5 28 10 31 38 24 -32 77 -97 73
-23 -1 -48 4 -56 10 -19 16 -41 96 -42 152 0 39 -3 46 -28 54 -21 8 -34 6 -58
-8 -29 -17 -30 -17 -62 11 -18 15 -72 72 -121 126 -49 54 -94 96 -100 94 -11
-4 -23 -25 -48 -81 -9 -21 -23 -33 -47 -39 -41 -10 -78 2 -143 46 -39 26 -48
37 -48 63 0 43 -23 72 -47 58 -24 -15 -28 -46 -9 -83 9 -16 16 -37 16 -45 0
-26 -30 -46 -70 -46 -21 0 -42 -4 -45 -10 -12 -19 -47 -10 -92 25 -52 40 -79
44 -88 15 -3 -11 -13 -20 -22 -20 -8 0 -30 -15 -49 -34 -32 -32 -34 -38 -34
-101 0 -57 -2 -66 -14 -56 -8 7 -22 28 -31 47 -26 55 -57 69 -145 68 -113 -2
-161 -32 -179 -113 -13 -57 -32 -76 -81 -76 -44 0 -87 32 -92 69 -2 16 -9 20
-30 18 -15 -2 -48 4 -74 13 -36 12 -49 13 -55 4 -5 -9 -19 -5 -51 14 -83 48
-109 97 -53 97 29 0 55 24 55 52 0 15 -4 18 -17 13 -109 -44 -185 -22 -284 81
-30 33 -70 85 -88 118 l-34 58 -55 -6 c-38 -4 -97 -26 -182 -66 -69 -33 -138
-60 -153 -60 -29 0 -51 26 -63 75 -9 39 -22 55 -46 55 -10 0 -20 -6 -22 -12
-25 -96 -55 -139 -121 -169 -65 -30 -97 -25 -154 25 -65 58 -89 65 -113 36
-25 -31 -22 -77 7 -125 31 -49 31 -55 3 -55 -30 0 -76 -31 -99 -66 -10 -16
-31 -36 -46 -45 -26 -14 -28 -21 -28 -75 -1 -56 -38 -170 -54 -162 -70 36 -82
40 -104 34 -41 -10 -60 -35 -54 -70 11 -65 19 -92 40 -132 19 -38 20 -45 7
-84 -16 -48 -34 -60 -87 -60 -44 0 -83 -23 -83 -49 0 -13 17 -26 53 -41 53
-23 87 -47 87 -61 0 -5 -6 -6 -14 -3 -16 6 -46 -21 -46 -42 0 -8 6 -17 13 -19
7 -3 12 -25 13 -53 0 -30 10 -66 27 -99 33 -64 36 -123 7 -123 -17 0 -19 8
-22 68 l-3 67 -58 1 c-42 1 -64 7 -80 21 -68 61 -80 29 -37 -100 24 -71 42
-108 65 -131 18 -17 40 -43 50 -58 20 -32 35 -36 41 -10 4 15 18 17 94 17 48
0 91 -3 95 -7 8 -7 -23 -58 -35 -58 -5 0 -12 9 -15 21 -11 33 -49 21 -53 -16
-5 -59 -12 -74 -46 -94 -26 -17 -50 -21 -113 -21 -44 0 -84 5 -90 11 -8 8 -17
7 -34 -1 -30 -17 -161 -6 -208 18 -83 40 -103 133 -56 269 20 57 25 90 23 141
l-3 66 -57 17 c-31 10 -75 29 -97 43 -22 14 -48 26 -57 26 -9 0 -46 -30 -81
-67 l-65 -68 6 -70 c3 -38 9 -82 12 -96 5 -23 1 -27 -39 -43 -25 -9 -51 -24
-57 -32 -28 -33 -66 -17 -144 61 -42 41 -89 81 -105 90 -16 8 -39 28 -50 44
-12 17 -30 33 -41 36 -16 5 -20 15 -20 49 0 36 -6 48 -48 93 -55 58 -103 142
-112 193 -6 42 -34 51 -75 24 l-27 -17 -86 87 c-212 212 -345 338 -421 396
-46 34 -85 69 -88 78 -4 10 -16 28 -29 42 -90 99 -94 106 -94 153 0 52 -9 60
-77 72 -45 7 -44 5 -67 108 -6 24 -23 36 -118 82 -61 30 -122 55 -135 55 -15
0 -39 -14 -59 -34z"/>
<path d="M7775 9264 c-60 -15 -90 -29 -121 -56 l-35 -31 22 -23 c26 -28 41
-30 73 -9 13 9 63 20 112 26 87 10 154 33 161 55 6 20 -163 50 -212 38z"/>
<path d="M6952 9248 c-30 -30 2 -149 49 -182 15 -10 44 -16 81 -16 l57 0 6 38
c3 20 7 48 9 62 3 16 -7 38 -31 67 -35 42 -37 43 -97 43 -35 0 -67 -5 -74 -12z"/>
<path d="M11317 9243 c-4 -3 -7 -14 -7 -24 0 -10 -9 -33 -20 -52 -16 -27 -18
-39 -10 -68 6 -18 10 -45 10 -59 0 -14 5 -42 11 -62 22 -83 98 -24 85 66 -4
22 -7 63 -7 90 -1 79 -34 138 -62 109z"/>
<path d="M9188 9047 c-24 -9 -28 -16 -28 -53 0 -23 -7 -61 -15 -84 -8 -23 -15
-58 -15 -76 0 -32 1 -33 25 -22 32 15 70 72 95 148 31 93 14 117 -62 87z"/>
<path d="M6284 8675 c-24 -36 -34 -100 -27 -167 l6 -58 -32 16 c-26 13 -38 14
-60 5 -32 -14 -61 -58 -61 -94 0 -32 50 -80 100 -97 48 -16 69 -8 83 30 13 35
23 38 30 10 7 -29 36 -25 49 8 7 15 12 82 12 157 1 111 -2 136 -19 170 -25 50
-56 58 -81 20z"/>
<path d="M12730 8378 c-99 -56 -140 -99 -140 -147 0 -22 3 -23 54 -19 68 6
120 43 148 105 20 45 21 84 3 90 -5 1 -35 -11 -65 -29z"/>
<path d="M11729 8271 c-43 -44 -79 -115 -65 -128 19 -19 101 30 151 91 37 45
37 47 20 66 -28 31 -55 24 -106 -29z"/>
<path d="M3735 7835 c-156 -28 -271 -84 -355 -171 l-45 -46 70 6 c195 19 297
58 375 143 72 79 66 89 -45 68z"/>
<path d="M3806 6454 c-25 -24 -20 -69 10 -93 20 -16 41 -21 83 -21 112 0 122
47 22 98 -72 36 -93 39 -115 16z"/>
<path d="M4975 5650 c-11 -5 -36 -9 -56 -9 -43 -1 -76 -31 -64 -58 5 -10 7
-24 6 -30 -1 -7 5 -13 14 -13 8 0 15 4 15 9 0 5 30 12 68 15 95 7 151 17 158
27 2 5 14 3 24 -3 24 -15 34 -6 26 26 -4 15 -17 28 -37 35 -37 13 -125 13
-154 1z"/>
<path d="M5792 4258 c-6 -6 -12 -20 -12 -29 0 -12 -14 -20 -51 -29 -32 -8 -62
-24 -82 -44 -18 -17 -44 -39 -59 -49 -16 -9 -28 -26 -28 -37 0 -16 7 -20 35
-20 21 0 38 6 41 14 3 8 17 16 32 19 16 4 45 27 72 60 25 29 50 52 55 50 19
-5 36 14 38 42 2 32 -20 44 -41 23z"/>
<path d="M6185 3981 c-41 -18 -125 -103 -125 -126 0 -29 38 -28 171 6 44 11
89 54 89 85 0 53 -61 69 -135 35z"/>
<path d="M4425 3802 c-16 -8 -42 -21 -57 -29 -15 -7 -59 -13 -107 -13 l-80 0
-51 -60 c-72 -88 -121 -163 -169 -260 -39 -80 -42 -89 -39 -165 1 -44 5 -84 9
-90 4 -5 28 -62 54 -125 57 -142 67 -158 131 -208 27 -22 84 -69 125 -106 l74
-66 82 0 c56 0 92 5 115 17 60 30 65 31 79 22 37 -23 117 14 220 103 31 26 61
48 67 48 12 0 82 76 82 89 0 5 7 17 16 25 28 28 74 240 74 343 0 85 -2 94 -27
124 -38 45 -88 116 -114 164 -28 52 -49 75 -67 75 -9 0 -43 27 -78 60 -65 63
-92 72 -148 50 -18 -7 -35 -5 -60 5 -44 19 -92 18 -131 -3z"/>
<path d="M6453 3615 c-126 -59 -147 -168 -54 -283 25 -33 53 -69 62 -82 11
-16 33 -26 79 -36 62 -13 67 -12 122 13 31 14 60 33 64 42 3 9 8 41 9 72 2 31
9 65 15 76 27 42 -56 145 -148 186 -82 36 -96 37 -149 12z"/>
<path d="M7886 3230 c-7 -53 -34 -279 -43 -362 -4 -37 -2 -58 5 -58 14 0 22
25 22 71 0 22 9 67 20 100 12 34 20 80 20 102 -2 51 9 118 22 134 12 15 2 33
-17 33 -7 0 -15 6 -18 13 -2 6 -7 -8 -11 -33z"/>
<path d="M13075 2868 c-4 -15 -35 -281 -42 -375 -7 -81 13 -85 22 -5 3 31 15
86 25 122 10 36 19 90 19 120 0 30 4 68 10 83 15 39 14 45 -9 57 -15 8 -21 8
-25 -2z"/>
<path d="M7398 2856 c-9 -8 -17 -43 -21 -83 -3 -38 -15 -87 -27 -112 -12 -24
-24 -59 -27 -77 -5 -29 -3 -34 13 -34 23 0 71 30 88 56 9 13 13 56 12 138 -1
122 -8 143 -38 112z"/>
<path d="M6992 2600 c-35 -22 -86 -97 -120 -177 -12 -28 -22 -54 -22 -57 0 -3
17 -10 38 -17 32 -9 44 -8 70 5 44 23 82 106 85 184 2 76 -8 88 -51 62z"/>
<path d="M12587 2476 c-8 -8 -17 -44 -20 -83 -3 -38 -15 -87 -27 -112 -27 -54
-37 -111 -21 -111 19 0 64 26 85 49 15 16 19 33 16 74 -3 57 -3 63 4 122 7 69
-7 91 -37 61z"/>
<path d="M15235 2435 c-32 -31 -31 -37 5 -78 58 -67 129 -74 149 -16 19 55 14
67 -39 94 -62 31 -84 31 -115 0z"/>
<path d="M7829 2418 c-8 -14 -9 -56 -5 -132 20 -347 20 -341 -4 -389 -18 -36
-20 -48 -11 -66 7 -11 16 -21 22 -21 20 0 30 59 40 248 13 221 5 382 -17 382
-7 0 -19 -10 -25 -22z"/>
<path d="M8260 2071 c0 -16 -16 -60 -36 -98 -31 -61 -35 -75 -33 -138 1 -41
-5 -93 -15 -125 -16 -54 -21 -154 -10 -184 10 -26 31 -18 48 19 9 19 21 37 26
40 6 3 10 17 10 29 0 13 7 29 15 36 18 15 20 92 4 139 -9 26 -8 39 10 76 34
71 27 235 -9 235 -6 0 -10 -13 -10 -29z"/>
<path d="M13018 2038 c-15 -29 -15 -100 2 -249 15 -138 10 -252 -14 -278 -9
-9 -16 -27 -16 -38 0 -26 27 -50 40 -37 19 19 29 160 30 392 0 197 -2 232 -15
232 -8 0 -20 -10 -27 -22z"/>
<path d="M5618 1930 c-43 -23 -68 -55 -68 -86 0 -29 33 -106 55 -127 20 -21
92 -23 138 -3 55 23 71 50 72 116 0 51 -4 63 -27 86 -36 37 -116 43 -170 14z"/>
<path d="M9344 1936 c-11 -8 -26 -33 -33 -55 -20 -69 19 -121 93 -121 42 0 76
37 76 84 0 40 -20 69 -64 90 -42 20 -46 20 -72 2z"/>
<path d="M13450 1691 c0 -16 -16 -60 -36 -98 -31 -61 -35 -76 -34 -138 1 -39
-5 -94 -14 -125 -23 -78 -21 -200 3 -200 13 0 61 81 61 104 0 12 9 29 20 39
24 20 26 62 6 127 -7 25 -10 52 -5 60 40 80 51 163 28 229 -14 39 -29 40 -29
2z"/>
<path d="M9561 1334 c-62 -31 -118 -84 -127 -119 -7 -27 12 -85 27 -85 5 0 15
15 23 33 18 42 52 72 101 87 87 28 135 63 135 99 0 22 -104 12 -159 -15z"/>
<path d="M13199 569 c-37 -22 -69 -65 -69 -92 0 -25 46 -72 91 -92 l42 -19 21
27 c12 15 27 27 33 27 15 0 35 87 28 121 -12 52 -81 65 -146 28z"/>
</g>
</svg>
