<svg width="24" height="25" viewBox="0 0 24 25" fill="none" xmlns="http://www.w3.org/2000/svg">
<path d="M21.6919 12.7869C21.6539 12.8789 21.599 12.9618 21.53 13.0308L14.53 20.0308C14.384 20.1768 14.192 20.2508 14 20.2508C13.808 20.2508 13.616 20.1778 13.47 20.0308C13.177 19.7378 13.177 19.2628 13.47 18.9698L19.1899 13.2498H3C2.586 13.2498 2.25 12.9138 2.25 12.4998C2.25 12.0858 2.586 11.7498 3 11.7498H19.189L13.469 6.02981C13.176 5.73681 13.176 5.26177 13.469 4.96877C13.762 4.67577 14.237 4.67577 14.53 4.96877L21.53 11.9688C21.599 12.0378 21.6539 12.1207 21.6919 12.2127C21.7679 12.3967 21.7679 12.6029 21.6919 12.7869Z" fill="currentColor"/>
</svg>
