<svg width="18" height="19" viewBox="0 0 18 19" fill="none" xmlns="http://www.w3.org/2000/svg">
<path d="M16.2689 9.71535C16.2404 9.78435 16.1993 9.84652 16.1475 9.89827L10.8975 15.1483C10.788 15.2578 10.644 15.3133 10.5 15.3133C10.356 15.3133 10.212 15.2585 10.1025 15.1483C9.88273 14.9285 9.88273 14.5722 10.1025 14.3525L14.3925 10.0625H2.25C1.9395 10.0625 1.6875 9.81052 1.6875 9.50002C1.6875 9.18952 1.9395 8.93752 2.25 8.93752H14.3917L10.1017 4.64754C9.882 4.42779 9.882 4.07151 10.1017 3.85176C10.3215 3.63201 10.6778 3.63201 10.8975 3.85176L16.1475 9.10176C16.1993 9.15351 16.2404 9.21569 16.2689 9.28469C16.3259 9.42269 16.3259 9.57735 16.2689 9.71535Z" fill="currentColor"/>
</svg>
