<svg width="20" height="21" viewBox="0 0 20 21" fill="none" xmlns="http://www.w3.org/2000/svg">
<path d="M10 0.5C4.477 0.5 0 4.977 0 10.5C0 16.023 4.477 20.5 10 20.5C15.523 20.5 20 16.023 20 10.5C20 4.977 15.523 0.5 10 0.5ZM14.6919 10.7871C14.6539 10.8791 14.599 10.962 14.53 11.031L11.53 14.031C11.384 14.177 11.192 14.251 11 14.251C10.808 14.251 10.616 14.178 10.47 14.031C10.177 13.738 10.177 13.263 10.47 12.97L12.1899 11.25H6C5.586 11.25 5.25 10.914 5.25 10.5C5.25 10.086 5.586 9.75 6 9.75H12.189L10.469 8.03003C10.176 7.73703 10.176 7.26199 10.469 6.96899C10.762 6.67599 11.237 6.67599 11.53 6.96899L14.53 9.96899C14.599 10.038 14.6539 10.1209 14.6919 10.2129C14.7679 10.3969 14.7679 10.6031 14.6919 10.7871Z" fill="currentColor"/>
</svg>
