<svg width="20" height="16" viewBox="0 0 20 16" fill="none" xmlns="http://www.w3.org/2000/svg">
<path d="M19.6919 8.28713C19.6539 8.37913 19.599 8.46203 19.53 8.53103L12.53 15.531C12.384 15.677 12.192 15.751 12 15.751C11.808 15.751 11.616 15.678 11.47 15.531C11.177 15.238 11.177 14.763 11.47 14.47L17.1899 8.75002H1C0.586 8.75002 0.25 8.41402 0.25 8.00002C0.25 7.58602 0.586 7.25002 1 7.25002H17.189L11.469 1.53005C11.176 1.23705 11.176 0.762018 11.469 0.469018C11.762 0.176018 12.237 0.176018 12.53 0.469018L19.53 7.46902C19.599 7.53802 19.6539 7.62091 19.6919 7.71291C19.7679 7.89691 19.7679 8.10313 19.6919 8.28713Z" fill="currentColor"/>
</svg>
