<svg width="20" height="16" viewBox="0 0 20 16" fill="none" xmlns="http://www.w3.org/2000/svg">
<path d="M19.7479 8.00002C19.7479 8.41402 19.4119 8.75002 18.9979 8.75002H2.80895L8.52892 14.47C8.82192 14.763 8.82192 15.238 8.52892 15.531C8.38292 15.677 8.19089 15.751 7.99889 15.751C7.80689 15.751 7.61487 15.678 7.46887 15.531L0.468865 8.53103C0.399865 8.46203 0.345 8.37913 0.307 8.28713C0.231 8.10413 0.231 7.89713 0.307 7.71413C0.345 7.62213 0.399865 7.53899 0.468865 7.46999L7.46887 0.469994C7.76187 0.176994 8.2369 0.176994 8.5299 0.469994C8.8229 0.762994 8.8229 1.23803 8.5299 1.53103L2.80993 7.251H18.9979C19.4119 7.25 19.7479 7.58602 19.7479 8.00002Z" fill="currentColor"/>
</svg>
