<svg width="24" height="24" viewBox="0 0 24 24" fill="none" xmlns="http://www.w3.org/2000/svg">
<path d="M19.7498 5V15C19.7498 15.414 19.4138 15.75 18.9998 15.75C18.5858 15.75 18.2498 15.414 18.2498 15V6.81104L6.52981 18.531C6.38381 18.677 6.19178 18.751 5.99978 18.751C5.80778 18.751 5.61575 18.678 5.46975 18.531C5.17675 18.238 5.17675 17.763 5.46975 17.47L17.1897 5.75H8.99978C8.58578 5.75 8.24978 5.414 8.24978 5C8.24978 4.586 8.58578 4.25 8.99978 4.25H18.9998C19.0978 4.25 19.1949 4.27011 19.2869 4.30811C19.4699 4.38411 19.6159 4.53011 19.6929 4.71411C19.7299 4.80511 19.7498 4.902 19.7498 5Z" fill="currentColor"/>
</svg>
