<svg width="24" height="24" viewBox="0 0 24 24" fill="none" xmlns="http://www.w3.org/2000/svg">
<path d="M21.6919 12.2869C21.6539 12.3789 21.599 12.4618 21.53 12.5308L14.53 19.5308C14.384 19.6768 14.192 19.7508 14 19.7508C13.808 19.7508 13.616 19.6778 13.47 19.5308C13.177 19.2378 13.177 18.7628 13.47 18.4698L19.1899 12.7498H3C2.586 12.7498 2.25 12.4138 2.25 11.9998C2.25 11.5858 2.586 11.2498 3 11.2498H19.189L13.469 5.52981C13.176 5.23681 13.176 4.76177 13.469 4.46877C13.762 4.17577 14.237 4.17577 14.53 4.46877L21.53 11.4688C21.599 11.5378 21.6539 11.6207 21.6919 11.7127C21.7679 11.8967 21.7679 12.1029 21.6919 12.2869Z" fill="currentColor"/>
</svg>
