<svg width="18" height="18" viewBox="0 0 18 18" fill="none" xmlns="http://www.w3.org/2000/svg">
<path d="M14.8126 3.75V11.25C14.8126 11.5605 14.5606 11.8125 14.2501 11.8125C13.9396 11.8125 13.6876 11.5605 13.6876 11.25V5.10828L4.8976 13.8983C4.7881 14.0078 4.64408 14.0632 4.50008 14.0632C4.35608 14.0632 4.21206 14.0085 4.10256 13.8983C3.88281 13.6785 3.88281 13.3222 4.10256 13.1025L12.8925 4.3125H6.75008C6.43958 4.3125 6.18758 4.0605 6.18758 3.75C6.18758 3.4395 6.43958 3.1875 6.75008 3.1875H14.2501C14.3236 3.1875 14.3964 3.20258 14.4654 3.23108C14.6027 3.28808 14.7122 3.39758 14.7699 3.53558C14.7977 3.60383 14.8126 3.6765 14.8126 3.75Z" fill="currentColor"/>
</svg>
