<svg width="20" height="21" viewBox="0 0 20 21" fill="none" xmlns="http://www.w3.org/2000/svg">
<path d="M16.6682 4.66634V12.9997C16.6682 13.4597 16.2957 13.833 15.8349 13.833C15.374 13.833 15.0015 13.4597 15.0015 12.9997V6.67806L5.59073 16.0889C5.42823 16.2514 5.21487 16.333 5.00154 16.333C4.7882 16.333 4.57484 16.2514 4.41234 16.0889C4.08651 15.763 4.08651 15.2363 4.41234 14.9105L13.8232 5.49967H7.50154C7.0407 5.49967 6.6682 5.12634 6.6682 4.66634C6.6682 4.20634 7.0407 3.83301 7.50154 3.83301H15.8349C15.9432 3.83301 16.0516 3.85543 16.1533 3.89709C16.3574 3.98126 16.5199 4.14377 16.6041 4.34794C16.6466 4.44961 16.6682 4.55801 16.6682 4.66634Z" fill="currentColor"/>
</svg>
