<svg width="24" height="24" viewBox="0 0 24 24" fill="none" xmlns="http://www.w3.org/2000/svg">
<path d="M21.7479 11.9998C21.7479 12.4138 21.4119 12.7498 20.9979 12.7498H4.80895L10.5289 18.4698C10.8219 18.7628 10.8219 19.2378 10.5289 19.5308C10.3829 19.6768 10.1909 19.7508 9.99889 19.7508C9.80689 19.7508 9.61487 19.6778 9.46887 19.5308L2.46887 12.5308C2.39987 12.4618 2.345 12.3789 2.307 12.2869C2.231 12.1039 2.231 11.8969 2.307 11.7139C2.345 11.6219 2.39987 11.5387 2.46887 11.4697L9.46887 4.46975C9.76187 4.17675 10.2369 4.17675 10.5299 4.46975C10.8229 4.76275 10.8229 5.23779 10.5299 5.53079L4.80993 11.2508H20.9979C21.4119 11.2498 21.7479 11.5858 21.7479 11.9998Z" fill="currentColor"/>
</svg>
