<svg width="20" height="21" viewBox="0 0 20 21" fill="none" xmlns="http://www.w3.org/2000/svg">
<path d="M16.4583 4.66663V13C16.4583 13.345 16.1783 13.625 15.8333 13.625C15.4883 13.625 15.2083 13.345 15.2083 13V6.17582L5.44171 15.9425C5.32004 16.0641 5.16001 16.1258 5.00001 16.1258C4.84001 16.1258 4.67999 16.065 4.55832 15.9425C4.31416 15.6983 4.31416 15.3024 4.55832 15.0583L14.325 5.29163H7.50001C7.15501 5.29163 6.87501 5.01163 6.87501 4.66663C6.87501 4.32163 7.15501 4.04163 7.50001 4.04163H15.8333C15.915 4.04163 15.9959 4.05838 16.0726 4.09005C16.2251 4.15338 16.3468 4.27505 16.4109 4.42839C16.4418 4.50422 16.4583 4.58496 16.4583 4.66663Z" fill="currentColor"/>
</svg>
