<svg width="48" height="48" viewBox="0 0 48 48" fill="none" xmlns="http://www.w3.org/2000/svg">
<path d="M39.5 10V30C39.5 30.828 38.828 31.5 38 31.5C37.172 31.5 36.5 30.828 36.5 30V13.6221L13.0601 37.062C12.7681 37.354 12.384 37.5019 12 37.5019C11.616 37.5019 11.232 37.356 10.94 37.062C10.354 36.476 10.354 35.5259 10.94 34.9399L34.3799 11.5H18C17.172 11.5 16.5 10.828 16.5 10C16.5 9.172 17.172 8.5 18 8.5H38C38.196 8.5 38.3903 8.54021 38.5743 8.61621C38.9403 8.76821 39.2323 9.06022 39.3863 9.42822C39.4603 9.61022 39.5 9.804 39.5 10Z" fill="white"/>
</svg>
