<svg width="18" height="18" viewBox="0 0 18 18" fill="none" xmlns="http://www.w3.org/2000/svg">
<path d="M13.5 2.8125H12.5625V2.25C12.5625 1.9395 12.3105 1.6875 12 1.6875C11.6895 1.6875 11.4375 1.9395 11.4375 2.25V2.8125H6.5625V2.25C6.5625 1.9395 6.3105 1.6875 6 1.6875C5.6895 1.6875 5.4375 1.9395 5.4375 2.25V2.8125H4.5C2.6865 2.8125 1.6875 3.8115 1.6875 5.625V13.5C1.6875 15.3135 2.6865 16.3125 4.5 16.3125H13.5C15.3135 16.3125 16.3125 15.3135 16.3125 13.5V5.625C16.3125 3.8115 15.3135 2.8125 13.5 2.8125ZM4.5 3.9375H5.4375V4.5C5.4375 4.8105 5.6895 5.0625 6 5.0625C6.3105 5.0625 6.5625 4.8105 6.5625 4.5V3.9375H11.4375V4.5C11.4375 4.8105 11.6895 5.0625 12 5.0625C12.3105 5.0625 12.5625 4.8105 12.5625 4.5V3.9375H13.5C14.6828 3.9375 15.1875 4.44225 15.1875 5.625V6.1875H2.8125V5.625C2.8125 4.44225 3.31725 3.9375 4.5 3.9375ZM13.5 15.1875H4.5C3.31725 15.1875 2.8125 14.6828 2.8125 13.5V7.3125H15.1875V13.5C15.1875 14.6828 14.6828 15.1875 13.5 15.1875ZM6.76501 9.75C6.76501 10.164 6.42976 10.5 6.01501 10.5C5.60101 10.5 5.26117 10.164 5.26117 9.75C5.26117 9.336 5.59351 9 6.00751 9H6.01501C6.42901 9 6.76501 9.336 6.76501 9.75ZM9.76501 9.75C9.76501 10.164 9.42976 10.5 9.01501 10.5C8.60101 10.5 8.26117 10.164 8.26117 9.75C8.26117 9.336 8.59351 9 9.00751 9H9.01501C9.42901 9 9.76501 9.336 9.76501 9.75ZM12.765 9.75C12.765 10.164 12.4298 10.5 12.015 10.5C11.601 10.5 11.2612 10.164 11.2612 9.75C11.2612 9.336 11.5935 9 12.0075 9H12.015C12.429 9 12.765 9.336 12.765 9.75ZM6.76501 12.75C6.76501 13.164 6.42976 13.5 6.01501 13.5C5.60101 13.5 5.26117 13.164 5.26117 12.75C5.26117 12.336 5.59351 12 6.00751 12H6.01501C6.42901 12 6.76501 12.336 6.76501 12.75ZM9.76501 12.75C9.76501 13.164 9.42976 13.5 9.01501 13.5C8.60101 13.5 8.26117 13.164 8.26117 12.75C8.26117 12.336 8.59351 12 9.00751 12H9.01501C9.42901 12 9.76501 12.336 9.76501 12.75ZM12.765 12.75C12.765 13.164 12.4298 13.5 12.015 13.5C11.601 13.5 11.2612 13.164 11.2612 12.75C11.2612 12.336 11.5935 12 12.0075 12H12.015C12.429 12 12.765 12.336 12.765 12.75Z" fill="currentColor"/>
</svg>
