<svg width="20" height="21" viewBox="0 0 20 21" fill="none" xmlns="http://www.w3.org/2000/svg">
<path d="M15 3.625H13.9583V3C13.9583 2.655 13.6783 2.375 13.3333 2.375C12.9883 2.375 12.7083 2.655 12.7083 3V3.625H7.29167V3C7.29167 2.655 7.01167 2.375 6.66667 2.375C6.32167 2.375 6.04167 2.655 6.04167 3V3.625H5C2.985 3.625 1.875 4.735 1.875 6.75V15.5C1.875 17.515 2.985 18.625 5 18.625H15C17.015 18.625 18.125 17.515 18.125 15.5V6.75C18.125 4.735 17.015 3.625 15 3.625ZM5 4.875H6.04167V5.5C6.04167 5.845 6.32167 6.125 6.66667 6.125C7.01167 6.125 7.29167 5.845 7.29167 5.5V4.875H12.7083V5.5C12.7083 5.845 12.9883 6.125 13.3333 6.125C13.6783 6.125 13.9583 5.845 13.9583 5.5V4.875H15C16.3142 4.875 16.875 5.43583 16.875 6.75V7.375H3.125V6.75C3.125 5.43583 3.68583 4.875 5 4.875ZM15 17.375H5C3.68583 17.375 3.125 16.8142 3.125 15.5V8.625H16.875V15.5C16.875 16.8142 16.3142 17.375 15 17.375ZM7.51668 11.3333C7.51668 11.7933 7.14418 12.1667 6.68335 12.1667C6.22335 12.1667 5.84574 11.7933 5.84574 11.3333C5.84574 10.8733 6.21501 10.5 6.67501 10.5H6.68335C7.14335 10.5 7.51668 10.8733 7.51668 11.3333ZM10.85 11.3333C10.85 11.7933 10.4775 12.1667 10.0167 12.1667C9.55668 12.1667 9.17908 11.7933 9.17908 11.3333C9.17908 10.8733 9.54834 10.5 10.0083 10.5H10.0167C10.4767 10.5 10.85 10.8733 10.85 11.3333ZM14.1833 11.3333C14.1833 11.7933 13.8108 12.1667 13.35 12.1667C12.89 12.1667 12.5124 11.7933 12.5124 11.3333C12.5124 10.8733 12.8817 10.5 13.3417 10.5H13.35C13.81 10.5 14.1833 10.8733 14.1833 11.3333ZM7.51668 14.6667C7.51668 15.1267 7.14418 15.5 6.68335 15.5C6.22335 15.5 5.84574 15.1267 5.84574 14.6667C5.84574 14.2067 6.21501 13.8333 6.67501 13.8333H6.68335C7.14335 13.8333 7.51668 14.2067 7.51668 14.6667ZM10.85 14.6667C10.85 15.1267 10.4775 15.5 10.0167 15.5C9.55668 15.5 9.17908 15.1267 9.17908 14.6667C9.17908 14.2067 9.54834 13.8333 10.0083 13.8333H10.0167C10.4767 13.8333 10.85 14.2067 10.85 14.6667ZM14.1833 14.6667C14.1833 15.1267 13.8108 15.5 13.35 15.5C12.89 15.5 12.5124 15.1267 12.5124 14.6667C12.5124 14.2067 12.8817 13.8333 13.3417 13.8333H13.35C13.81 13.8333 14.1833 14.2067 14.1833 14.6667Z" fill="currentColor"/>
</svg>
