<svg width="20" height="21" viewBox="0 0 20 21" fill="none" xmlns="http://www.w3.org/2000/svg">
<path d="M18.3096 15.7748C18.3096 16.0748 18.243 16.3832 18.1013 16.6832C17.9596 16.9832 17.7763 17.2665 17.5346 17.5332C17.1263 17.9832 16.6763 18.3082 16.168 18.5165C15.668 18.7248 15.1263 18.8332 14.543 18.8332C13.693 18.8332 12.7846 18.6332 11.8263 18.2248C10.868 17.8165 9.90964 17.2665 8.95964 16.5748C8.0013 15.8748 7.09297 15.0998 6.2263 14.2415C5.36797 13.3748 4.59297 12.4665 3.9013 11.5165C3.21797 10.5665 2.66797 9.6165 2.26797 8.67484C1.86797 7.72484 1.66797 6.8165 1.66797 5.94984C1.66797 5.38317 1.76797 4.8415 1.96797 4.3415C2.16797 3.83317 2.48464 3.3665 2.9263 2.94984C3.45964 2.42484 4.04297 2.1665 4.65964 2.1665C4.89297 2.1665 5.1263 2.2165 5.33464 2.3165C5.5513 2.4165 5.74297 2.5665 5.89297 2.78317L7.8263 5.50817C7.9763 5.7165 8.08464 5.90817 8.15964 6.0915C8.23464 6.2665 8.2763 6.4415 8.2763 6.59984C8.2763 6.79984 8.21797 6.99984 8.1013 7.1915C7.99297 7.38317 7.83464 7.58317 7.63464 7.78317L7.0013 8.4415C6.90964 8.53317 6.86797 8.6415 6.86797 8.77484C6.86797 8.8415 6.8763 8.89984 6.89297 8.9665C6.91797 9.03317 6.94297 9.08317 6.95964 9.13317C7.10964 9.40817 7.36797 9.7665 7.73464 10.1998C8.10964 10.6332 8.50964 11.0748 8.94297 11.5165C9.39297 11.9582 9.8263 12.3665 10.268 12.7415C10.7013 13.1082 11.0596 13.3582 11.343 13.5082C11.3846 13.5248 11.4346 13.5498 11.493 13.5748C11.5596 13.5998 11.6263 13.6082 11.7013 13.6082C11.843 13.6082 11.9513 13.5582 12.043 13.4665L12.6763 12.8415C12.8846 12.6332 13.0846 12.4748 13.2763 12.3748C13.468 12.2582 13.6596 12.1998 13.868 12.1998C14.0263 12.1998 14.193 12.2332 14.3763 12.3082C14.5596 12.3832 14.7513 12.4915 14.9596 12.6332L17.718 14.5915C17.9346 14.7415 18.0846 14.9165 18.1763 15.1248C18.2596 15.3332 18.3096 15.5415 18.3096 15.7748Z" stroke="currentColor" stroke-width="1.5" stroke-miterlimit="10"/>
<path d="M15.4167 7.99967C15.4167 7.49967 15.025 6.73301 14.4417 6.10801C13.9083 5.53301 13.2 5.08301 12.5 5.08301" stroke="currentColor" stroke-width="1.5" stroke-linecap="round" stroke-linejoin="round"/>
<path d="M18.3333 7.99984C18.3333 4.77484 15.725 2.1665 12.5 2.1665" stroke="currentColor" stroke-width="1.5" stroke-linecap="round" stroke-linejoin="round"/>
</svg>
