<svg width="20" height="20" viewBox="0 0 20 20" fill="none" xmlns="http://www.w3.org/2000/svg">
<path d="M17.5174 14.8316C17.4782 14.71 17.4475 14.5292 17.5233 14.3642C17.9167 13.5208 18.1241 12.5883 18.1241 11.6667C18.1241 9.1175 16.5783 6.79416 14.26 5.77499C13.2675 3.48333 10.9849 1.875 8.33325 1.875C4.77325 1.875 1.87573 4.77169 1.87573 8.33252C1.87573 9.26002 2.08156 10.1933 2.4749 11.0375C2.53406 11.1633 2.53651 11.3275 2.48568 11.49L1.94084 13.1117C1.7875 13.5717 1.90653 14.0708 2.25069 14.415C2.49569 14.66 2.81909 14.79 3.15076 14.79C3.28576 14.79 3.42249 14.7683 3.55583 14.7242L5.16655 14.1825C5.33821 14.1275 5.50241 14.1308 5.63407 14.1925C5.67574 14.2117 5.72079 14.225 5.76245 14.2442C6.78079 16.5708 9.11075 18.1242 11.6666 18.1242C12.5883 18.1242 13.5215 17.9167 14.3599 17.5258C14.529 17.4483 14.7107 17.4792 14.8266 17.5167L16.4467 18.0592C16.9075 18.21 17.4058 18.0908 17.7491 17.7475C18.0916 17.4042 18.2107 16.9058 18.0582 16.4417L17.5174 14.8316ZM5.40499 12.895C5.19916 12.895 4.98736 12.9283 4.77653 12.9958L3.12573 13.5084L3.67322 11.8784C3.82489 11.4025 3.79903 10.9125 3.60486 10.505C3.29153 9.83001 3.12573 9.07832 3.12573 8.33165C3.12573 5.45999 5.46242 3.12419 8.33325 3.12419C11.2041 3.12419 13.5408 5.45999 13.5408 8.33165C13.5408 11.2033 11.2041 13.5392 8.33325 13.5392C7.58659 13.5392 6.83488 13.3733 6.16488 13.0625C5.93154 12.9517 5.67416 12.895 5.40499 12.895ZM16.3317 15.2233L16.8391 16.8733L15.2174 16.33C14.7457 16.1767 14.2558 16.1983 13.8358 16.3908C13.1574 16.7067 12.4066 16.8742 11.6658 16.8742C9.95577 16.8742 8.41905 16.055 7.45821 14.7217C7.74821 14.7617 8.04075 14.7892 8.33325 14.7892C11.8933 14.7892 14.7908 11.8925 14.7908 8.33165C14.7908 8.03999 14.765 7.75501 14.7267 7.47335C16.0425 8.43835 16.8741 9.99085 16.8741 11.6659C16.8741 12.4067 16.7074 13.1567 16.3891 13.8392C16.1974 14.2575 16.1767 14.7475 16.3317 15.2233Z" fill="white"/>
</svg>
