<svg width="18" height="18" viewBox="0 0 18 18" fill="none" xmlns="http://www.w3.org/2000/svg">
<path d="M9 0.9375C4.554 0.9375 0.9375 4.554 0.9375 9C0.9375 13.446 4.554 17.0625 9 17.0625C13.446 17.0625 17.0625 13.446 17.0625 9C17.0625 4.554 13.446 0.9375 9 0.9375ZM9 15.9375C5.17425 15.9375 2.0625 12.8258 2.0625 9C2.0625 5.17425 5.17425 2.0625 9 2.0625C12.8258 2.0625 15.9375 5.17425 15.9375 9C15.9375 12.8258 12.8258 15.9375 9 15.9375ZM11.6475 10.8525C11.8673 11.0722 11.8673 11.4285 11.6475 11.6483C11.538 11.7578 11.394 11.8132 11.25 11.8132C11.106 11.8132 10.962 11.7585 10.8525 11.6483L8.60248 9.39826C8.49673 9.29251 8.4375 9.14923 8.4375 9.00073V5.25073C8.4375 4.94023 8.6895 4.68823 9 4.68823C9.3105 4.68823 9.5625 4.94023 9.5625 5.25073V8.76746L11.6475 10.8525Z" fill="currentColor"/>
</svg>
