<svg width="28" height="28" viewBox="0 0 28 28" fill="none" xmlns="http://www.w3.org/2000/svg">
<path d="M13.9987 1.45801C7.0827 1.45801 1.45703 7.08367 1.45703 13.9997C1.45703 20.9157 7.0827 26.5413 13.9987 26.5413C20.9147 26.5413 26.5404 20.9157 26.5404 13.9997C26.5404 7.08367 20.9147 1.45801 13.9987 1.45801ZM13.9987 24.7913C8.04753 24.7913 3.20703 19.9508 3.20703 13.9997C3.20703 8.04851 8.04753 3.20801 13.9987 3.20801C19.9499 3.20801 24.7904 8.04851 24.7904 13.9997C24.7904 19.9508 19.9499 24.7913 13.9987 24.7913ZM18.1171 16.8813C18.4589 17.2231 18.4589 17.7773 18.1171 18.1192C17.9467 18.2895 17.7227 18.3758 17.4987 18.3758C17.2747 18.3758 17.0507 18.2907 16.8803 18.1192L13.3803 14.6192C13.2158 14.4547 13.1237 14.2318 13.1237 14.0008V8.16748C13.1237 7.68448 13.5157 7.29248 13.9987 7.29248C14.4817 7.29248 14.8737 7.68448 14.8737 8.16748V13.6379L18.1171 16.8813Z" fill="#FF6600"/>
</svg>
