<svg width="40" height="40" viewBox="0 0 40 40" fill="none" xmlns="http://www.w3.org/2000/svg">
<g clip-path="url(#clip0_0_1738)">
<path d="M13.116 21.2823L16.8339 17.5645" stroke="currentColor" stroke-width="2" stroke-miterlimit="10" stroke-linecap="round" stroke-linejoin="round"/>
<path d="M20.6048 28.8945L16.0968 33.4025C13.4833 36.016 9.24594 36.016 6.6325 33.4025C4.01898 30.789 4.01898 26.5517 6.6325 23.9382L11.1405 19.4302L20.6048 28.8945Z" stroke="currentColor" stroke-width="2" stroke-miterlimit="10" stroke-linecap="round" stroke-linejoin="round"/>
<path d="M9.90771 18.1973L21.8376 30.1273" stroke="currentColor" stroke-width="2" stroke-miterlimit="10" stroke-linecap="round" stroke-linejoin="round"/>
<path d="M18.7429 27.0325L22.5225 23.2529" stroke="currentColor" stroke-width="2" stroke-miterlimit="10" stroke-linecap="round" stroke-linejoin="round"/>
<path d="M6.615 33.385L1.17188 38.8281" stroke="currentColor" stroke-width="2" stroke-miterlimit="10" stroke-linecap="round" stroke-linejoin="round"/>
<path d="M19.3953 11.1056L23.9033 6.59759C26.5168 3.98407 30.7542 3.98407 33.3676 6.59759C35.9811 9.2111 35.9811 13.4484 33.3676 16.0619L28.8596 20.5699L19.3953 11.1056Z" stroke="currentColor" stroke-width="2" stroke-miterlimit="10" stroke-linecap="round" stroke-linejoin="round"/>
<path d="M30.0923 21.8028L18.1624 9.8728" stroke="currentColor" stroke-width="2" stroke-miterlimit="10" stroke-linecap="round" stroke-linejoin="round"/>
<path d="M33.385 6.615L38.8281 1.17188" stroke="currentColor" stroke-width="2" stroke-miterlimit="10" stroke-linecap="round" stroke-linejoin="round"/>
</g>
<defs>
<clipPath id="clip0_0_1738">
<rect width="40" height="40" fill="white"/>
</clipPath>
</defs>
</svg>
