<svg width="40" height="40" viewBox="0 0 40 40" fill="none" xmlns="http://www.w3.org/2000/svg">
<path d="M2.34375 4.67651H22.5027C23.1499 4.67651 23.6746 5.2012 23.6746 5.84839V17.2075C23.6746 17.8546 23.1499 18.3793 22.5027 18.3793H2.34375C1.69656 18.3793 1.17188 17.8546 1.17188 17.2075V5.84839C1.17188 5.2012 1.69656 4.67651 2.34375 4.67651Z" stroke="currentColor" stroke-width="2" stroke-miterlimit="10" stroke-linecap="round" stroke-linejoin="round"/>
<path d="M35.3523 11.5278H38.8282" stroke="currentColor" stroke-width="2" stroke-miterlimit="10" stroke-linecap="round" stroke-linejoin="round"/>
<path d="M10.9155 30.2121H4.09985L6.14884 18.3794H12.9645L10.9155 30.2121Z" stroke="currentColor" stroke-width="2" stroke-miterlimit="10" stroke-linecap="round" stroke-linejoin="round"/>
<path d="M14.2191 30.2119H2.29175V35.3236H14.2191V30.2119Z" stroke="currentColor" stroke-width="2" stroke-miterlimit="10" stroke-linecap="round" stroke-linejoin="round"/>
<path d="M11.8608 24.6941H14.8701C16.2591 24.6941 17.4755 23.7624 17.8374 22.4213L18.928 18.3794" stroke="currentColor" stroke-width="2" stroke-miterlimit="10" stroke-linecap="round" stroke-linejoin="round"/>
<path d="M28.7863 6.771H23.6746V16.2847H28.7863L34.5272 13.6931V9.24506L28.7863 6.771Z" stroke="currentColor" stroke-width="2" stroke-miterlimit="10" stroke-linecap="round" stroke-linejoin="round"/>
<path d="M28.7864 16.1285V6.92725" stroke="currentColor" stroke-width="2" stroke-miterlimit="10" stroke-linecap="round" stroke-linejoin="round"/>
<path d="M7.31152 11.5278H17.535" stroke="currentColor" stroke-width="2" stroke-miterlimit="10" stroke-linecap="round" stroke-linejoin="round"/>
</svg>
