<svg width="20" height="20" viewBox="0 0 20 20" fill="none" xmlns="http://www.w3.org/2000/svg">
<g opacity="0.7">
<path d="M15 18.125H5C2.985 18.125 1.875 17.015 1.875 15V8.11002C1.875 7.20252 2.32585 6.36003 3.08085 5.85669L8.2666 2.40003C9.31993 1.69836 10.6801 1.69836 11.7334 2.40003L16.9191 5.85669C17.6741 6.36003 18.125 7.20252 18.125 8.11002V15C18.125 17.015 17.015 18.125 15 18.125ZM10 3.12419C9.6375 3.12419 9.27579 3.2292 8.95996 3.44003L3.77421 6.89669C3.36754 7.16753 3.125 7.62169 3.125 8.11002V15C3.125 16.3142 3.68583 16.875 5 16.875H15C16.3142 16.875 16.875 16.3142 16.875 15V8.11002C16.875 7.62169 16.6325 7.16753 16.2258 6.89669L11.04 3.44003C10.7242 3.2292 10.3625 3.12419 10 3.12419ZM10.7141 12.45L14.5341 9.67169C14.8133 9.46836 14.875 9.07752 14.6716 8.79836C14.4691 8.52002 14.0801 8.4567 13.7984 8.66086L9.97925 11.4384C9.92425 11.4784 9.85255 11.4784 9.79838 11.4392L5.97839 8.66086C5.69756 8.45753 5.30665 8.52002 5.10498 8.79836C4.90165 9.07752 4.96335 9.46836 5.24251 9.67169L9.0625 12.45C9.30917 12.6292 9.59832 12.7192 9.88749 12.7192C10.1775 12.7192 10.4674 12.63 10.7141 12.45Z" fill="currentColor"/>
</g>
</svg>
