<svg width="18" height="18" viewBox="0 0 18 18" fill="none" xmlns="http://www.w3.org/2000/svg">
<path d="M13.5 15.5625H4.5C2.6865 15.5625 1.6875 14.5635 1.6875 12.75V6C1.6875 4.1865 2.6865 3.1875 4.5 3.1875H13.5C15.3135 3.1875 16.3125 4.1865 16.3125 6V12.75C16.3125 14.5635 15.3135 15.5625 13.5 15.5625ZM4.5 4.3125C3.31725 4.3125 2.8125 4.81725 2.8125 6V12.75C2.8125 13.9327 3.31725 14.4375 4.5 14.4375H13.5C14.6827 14.4375 15.1875 13.9327 15.1875 12.75V6C15.1875 4.81725 14.6827 4.3125 13.5 4.3125H4.5ZM9.77179 9.88425L13.4557 7.20525C13.7069 7.023 13.7625 6.6705 13.5795 6.41925C13.3972 6.16875 13.0463 6.11175 12.7936 6.2955L9.1095 8.9745C9.0435 9.0225 8.95577 9.0225 8.88977 8.9745L5.20569 6.2955C4.95219 6.11175 4.60205 6.1695 4.4198 6.41925C4.2368 6.6705 4.29233 7.02225 4.54358 7.20525L8.22748 9.88499C8.45848 10.053 8.72927 10.1362 8.99927 10.1362C9.26927 10.1362 9.54154 10.0523 9.77179 9.88425Z" fill="currentColor"/>
</svg>
