<svg width="16" height="16" viewBox="0 0 16 16" fill="none" xmlns="http://www.w3.org/2000/svg">
<path d="M13.9623 5.5278C13.9156 4.5678 13.6956 3.71448 12.9956 3.01448C12.2956 2.31448 11.4423 2.09448 10.4823 2.04781C9.48897 1.99448 6.52229 1.99448 5.53563 2.04781C4.57563 2.09448 3.72897 2.31448 3.0223 3.01448C2.31563 3.71448 2.10229 4.5678 2.05562 5.5278C2.00229 6.52114 2.00229 9.48781 2.05562 10.4811C2.10229 11.4411 2.3223 12.2945 3.0223 12.9945C3.72897 13.6945 4.57563 13.9145 5.53563 13.9611C6.52896 14.0145 9.49563 14.0145 10.4823 13.9611C11.4423 13.9145 12.2956 13.6945 12.9956 12.9945C13.6956 12.2945 13.9156 11.4411 13.9623 10.4811C14.0156 9.48781 14.0156 6.52114 13.9623 5.53448V5.5278ZM8.0023 11.1678C6.25563 11.1678 4.83563 9.74781 4.83563 8.00114C4.83563 6.25447 6.25563 4.83447 8.0023 4.83447C9.74897 4.83447 11.169 6.25447 11.169 8.00114C11.169 9.74781 9.74897 11.1678 8.0023 11.1678ZM11.6823 5.00114C11.3156 5.00114 11.0156 4.70114 11.0156 4.33447C11.0156 3.96781 11.309 3.66781 11.6823 3.66781C12.049 3.66781 12.349 3.96781 12.349 4.33447C12.349 4.70114 12.049 5.00114 11.6823 5.00114ZM10.169 8.00114C10.169 9.19447 9.19563 10.1678 8.0023 10.1678C6.80897 10.1678 5.83563 9.19447 5.83563 8.00114C5.83563 6.80781 6.80897 5.83447 8.0023 5.83447C9.19563 5.83447 10.169 6.80781 10.169 8.00114Z" fill="currentColor"/>
</svg>
