<svg width="18" height="18" viewBox="0 0 18 18" fill="none" xmlns="http://www.w3.org/2000/svg">
<path d="M8.99948 5.53275C7.08398 5.53275 5.53223 7.08525 5.53223 9C5.53223 10.9155 7.08398 12.468 8.99948 12.468C10.9135 12.468 12.4667 10.9155 12.4667 9C12.4667 7.08525 10.9135 5.53275 8.99948 5.53275ZM8.99948 11.253C7.75523 11.253 6.74648 10.2442 6.74648 9.00075C6.74648 7.7565 7.75523 6.7485 8.99948 6.7485C10.2437 6.7485 11.251 7.7565 11.251 9.00075C11.251 10.2442 10.2437 11.253 8.99948 11.253Z" fill="#153000"/>
<path d="M12.6044 6.21376C13.0509 6.21376 13.4129 5.85178 13.4129 5.40526C13.4129 4.95873 13.0509 4.59676 12.6044 4.59676C12.1579 4.59676 11.7959 4.95873 11.7959 5.40526C11.7959 5.85178 12.1579 6.21376 12.6044 6.21376Z" fill="#153000"/>
<path d="M15.3997 4.58325C15.048 3.6765 14.3317 2.9595 13.425 2.60925C12.9007 2.412 12.3465 2.30625 11.7855 2.29425C11.0632 2.26275 10.8345 2.25375 9.00296 2.25375C7.17146 2.25375 6.93671 2.25375 6.22046 2.29425C5.66096 2.3055 5.10671 2.41125 4.58246 2.60925C3.67496 2.9595 2.95871 3.6765 2.60771 4.58325C2.41046 5.10825 2.30471 5.66175 2.29346 6.22275C2.26121 6.94425 2.25146 7.173 2.25146 9.00525C2.25146 10.8368 2.25146 11.07 2.29346 11.7878C2.30471 12.3488 2.41046 12.9023 2.60771 13.428C2.95946 14.334 3.67571 15.051 4.58321 15.402C5.10521 15.606 5.65946 15.7215 6.22196 15.7395C6.94421 15.771 7.17296 15.7808 9.00446 15.7808C10.836 15.7808 11.0707 15.7808 11.787 15.7395C12.3472 15.7283 12.9015 15.6218 13.4265 15.4253C14.3332 15.0735 15.0495 14.3573 15.4012 13.4505C15.5985 12.9255 15.7042 12.372 15.7155 11.811C15.7477 11.0895 15.7575 10.8608 15.7575 9.0285C15.7575 7.19625 15.7575 6.96375 15.7155 6.246C15.7057 5.6775 15.6007 5.11425 15.3997 4.58325ZM14.4862 11.7323C14.481 12.1643 14.403 12.5925 14.253 12.9983C14.0242 13.5885 13.5585 14.055 12.969 14.2815C12.5677 14.4308 12.1447 14.5088 11.7165 14.5148C11.004 14.5478 10.803 14.556 8.97597 14.556C7.14747 14.556 6.96071 14.556 6.23471 14.5148C5.80796 14.5095 5.38346 14.4308 4.98296 14.2815C4.39121 14.0558 3.92246 13.5893 3.69371 12.9983C3.54671 12.5978 3.46721 12.174 3.46046 11.7465C3.42821 11.034 3.42071 10.833 3.42071 9.006C3.42071 7.17825 3.42071 6.9915 3.46046 6.26475C3.46571 5.83275 3.54371 5.40525 3.69371 4.9995C3.92246 4.40775 4.39121 3.942 4.98296 3.7155C5.38346 3.567 5.80796 3.48825 6.23471 3.48225C6.94796 3.45 7.14822 3.441 8.97597 3.441C10.8037 3.441 10.9912 3.441 11.7165 3.48225C12.1447 3.4875 12.5677 3.56625 12.969 3.7155C13.5585 3.94275 14.0242 4.40925 14.253 4.9995C14.4 5.4 14.4795 5.82375 14.4862 6.25125C14.5185 6.9645 14.5267 7.16475 14.5267 8.9925C14.5267 10.8195 14.5267 11.016 14.4945 11.733H14.4862V11.7323Z" fill="#153000"/>
</svg>
