<svg width="20" height="21" viewBox="0 0 20 21" fill="none" xmlns="http://www.w3.org/2000/svg">
<path d="M17.9033 14.97C17.7133 15.3083 17.4292 15.57 17.0808 15.7267L11.5967 18.2733C11.0892 18.5092 10.545 18.6275 10 18.6275C9.455 18.6275 8.91001 18.5092 8.40251 18.2733L2.91166 15.7233C2.57082 15.57 2.28585 15.3092 2.09585 14.97C1.92668 14.6692 2.03417 14.2883 2.33584 14.1192C2.63584 13.9517 3.0175 14.0575 3.18667 14.3592C3.24584 14.465 3.32584 14.5392 3.43084 14.5858L8.93 17.1392C9.60084 17.4508 10.4 17.4508 11.07 17.1392L16.5617 14.5892C16.6742 14.5383 16.7542 14.4642 16.8133 14.3583C16.9817 14.0567 17.3625 13.95 17.6642 14.1183C17.965 14.2883 18.0725 14.6692 17.9033 14.97ZM17.6642 10.5167C17.3625 10.3483 16.9817 10.4542 16.8133 10.7567C16.7542 10.8625 16.6742 10.9367 16.5617 10.9875L11.07 13.5375C10.4 13.8492 9.60084 13.8492 8.93 13.5375L3.43084 10.9842C3.32667 10.9375 3.24668 10.8633 3.18751 10.7575C3.01834 10.4558 2.63665 10.35 2.33665 10.5175C2.03582 10.6867 1.92833 11.0675 2.09666 11.3683C2.28666 11.7075 2.57083 11.9683 2.9125 12.1217L8.40335 14.6717C8.91085 14.9075 9.45584 15.0258 10.0008 15.0258C10.5458 15.0258 11.09 14.9075 11.5975 14.6717L17.0817 12.125C17.43 11.9683 17.715 11.7075 17.905 11.3683C18.0725 11.0658 17.965 10.685 17.6642 10.5167ZM1.875 6.89999C1.875 6.19249 2.27332 5.56917 2.91499 5.27167L8.40335 2.7275C9.41751 2.2575 10.5808 2.2575 11.5958 2.7275L17.0842 5.27167C17.7258 5.56917 18.1242 6.19332 18.1242 6.89999C18.1242 7.60666 17.7258 8.23083 17.0842 8.52833L11.5958 11.0725C11.0892 11.3075 10.5442 11.425 9.99916 11.425C9.45416 11.425 8.91001 11.3075 8.40251 11.0725L2.91417 8.52833C2.27334 8.23083 1.875 7.60749 1.875 6.89999ZM3.125 6.89999C3.125 6.98166 3.1475 7.25832 3.44083 7.39499L8.92916 9.93916C9.61 10.255 10.3908 10.2542 11.07 9.93916L16.5583 7.39499C16.8517 7.25915 16.8742 6.98166 16.8742 6.89999C16.8742 6.81832 16.8517 6.54166 16.5583 6.40499L11.07 3.86082C10.73 3.70332 10.3642 3.62416 9.99916 3.62416C9.63416 3.62416 9.26916 3.70332 8.92832 3.86082L3.43999 6.40499C3.14749 6.54166 3.125 6.81832 3.125 6.89999Z" fill="#666768"/>
</svg>
