<svg width="24" height="25" viewBox="0 0 24 25" fill="none" xmlns="http://www.w3.org/2000/svg">
<path d="M15.8167 19.0789C14.4457 20.0649 12.9607 20.3969 11.5827 20.3969C10.0657 20.3969 8.68465 19.9949 7.71865 19.6189C7.21365 20.8359 7.03164 21.634 7.02664 21.655C6.95164 22.008 6.63967 22.249 6.29367 22.249C6.24267 22.249 6.19064 22.2439 6.13864 22.2329C5.73364 22.1479 5.47466 21.7509 5.55966 21.3459C5.61666 21.0749 7.02664 14.6489 13.7086 9.63292C14.0406 9.38392 14.5106 9.45195 14.7586 9.78295C15.0076 10.1139 14.9406 10.5839 14.6096 10.8329C11.3596 13.2729 9.44665 16.0989 8.35165 18.2549C9.92565 18.8539 12.6757 19.49 14.9417 17.8609C19.6907 14.445 18.1856 7.59991 17.3206 4.82091C16.7576 5.40491 15.9017 6.08891 14.7257 6.49791C13.8817 6.78691 13.1107 6.99092 12.3647 7.18792C11.1437 7.51092 10.0897 7.7889 9.04367 8.3499C5.35867 10.3359 5.35167 14.4149 6.24667 16.6729C6.39967 17.0579 6.21065 17.4939 5.82565 17.6469C5.44165 17.7989 5.00465 17.6109 4.85165 17.2259C3.75965 14.4699 3.78467 9.47996 8.33267 7.02996C9.53567 6.38496 10.7237 6.0709 11.9807 5.7379C12.7007 5.5479 13.4456 5.35095 14.2346 5.07995C15.6506 4.58695 16.4656 3.57495 16.7506 3.16295C16.9376 2.87495 17.2826 2.71091 17.6466 2.75591C18.0076 2.80091 18.3036 3.04492 18.4196 3.39092C19.0886 5.19492 22.1397 14.5319 15.8167 19.0789Z" fill="#7BCD46"/>
</svg>
