<svg width="16" height="16" viewBox="0 0 16 16" fill="none" xmlns="http://www.w3.org/2000/svg">
<path d="M3.32195 4.79819C4.12755 4.79819 4.78061 4.14513 4.78061 3.33953C4.78061 2.53393 4.12755 1.88086 3.32195 1.88086C2.51635 1.88086 1.86328 2.53393 1.86328 3.33953C1.86328 4.14513 2.51635 4.79819 3.32195 4.79819Z" fill="currentColor"/>
<path d="M6.15814 5.90312V13.9958H8.67081V9.99379C8.67081 8.93779 8.86948 7.91512 10.1788 7.91512C11.4701 7.91512 11.4861 9.12246 11.4861 10.0605V13.9965H14.0001V9.55846C14.0001 7.37846 13.5308 5.70312 10.9828 5.70312C9.75948 5.70312 8.93948 6.37446 8.60414 7.00979H8.57014V5.90312H6.15814ZM2.06348 5.90312H4.58014V13.9958H2.06348V5.90312Z" fill="currentColor"/>
</svg>
