<svg width="18" height="18" viewBox="0 0 18 18" fill="none" xmlns="http://www.w3.org/2000/svg">
<path d="M9 1.6875C5.38125 1.6875 2.4375 4.63125 2.4375 8.25C2.4375 12.0885 5.96024 14.415 8.29124 15.9547L8.688 16.218C8.7825 16.281 8.89125 16.3125 9 16.3125C9.10875 16.3125 9.2175 16.281 9.312 16.218L9.70876 15.9547C12.0398 14.415 15.5625 12.0885 15.5625 8.25C15.5625 4.63125 12.6187 1.6875 9 1.6875ZM9.08925 15.0157L9 15.0751L8.91075 15.0157C6.65325 13.5247 3.5625 11.4832 3.5625 8.25C3.5625 5.2515 6.0015 2.8125 9 2.8125C11.9985 2.8125 14.4375 5.2515 14.4375 8.25C14.4375 11.4832 11.346 13.5255 9.08925 15.0157ZM9 5.8125C7.656 5.8125 6.5625 6.906 6.5625 8.25C6.5625 9.594 7.656 10.6875 9 10.6875C10.344 10.6875 11.4375 9.594 11.4375 8.25C11.4375 6.906 10.344 5.8125 9 5.8125ZM9 9.5625C8.27625 9.5625 7.6875 8.97375 7.6875 8.25C7.6875 7.52625 8.27625 6.9375 9 6.9375C9.72375 6.9375 10.3125 7.52625 10.3125 8.25C10.3125 8.97375 9.72375 9.5625 9 9.5625Z" fill="currentColor"/>
</svg>
