<svg width="22" height="24" viewBox="0 0 22 24" fill="none" xmlns="http://www.w3.org/2000/svg">
<path d="M11 0.125C5.14125 0.125 0.375 4.89125 0.375 10.75C0.375 16.9788 6.16125 20.8012 9.99 23.33L10.6525 23.77C10.7575 23.84 10.8787 23.875 10.9987 23.875C11.1187 23.875 11.24 23.84 11.345 23.77L12.0075 23.33C15.8362 20.8012 21.6225 16.9788 21.6225 10.75C21.625 4.89125 16.8587 0.125 11 0.125ZM11 13.875C9.27375 13.875 7.875 12.4762 7.875 10.75C7.875 9.02375 9.27375 7.625 11 7.625C12.7262 7.625 14.125 9.02375 14.125 10.75C14.125 12.4762 12.7262 13.875 11 13.875Z" fill="currentColor"/>
</svg>
