<svg width="28" height="28" viewBox="0 0 28 28" fill="none" xmlns="http://www.w3.org/2000/svg">
<path d="M14.0012 12.5428C15.5563 12.5428 16.821 11.2781 16.821 9.72298C16.821 8.16782 15.5563 6.90316 14.0012 6.90316C12.446 6.90316 11.1814 8.16782 11.1814 9.72298C11.1814 11.2781 12.446 12.5428 14.0012 12.5428ZM14.0012 8.65316C14.5903 8.65316 15.071 9.13265 15.071 9.72298C15.071 10.3133 14.5915 10.7928 14.0012 10.7928C13.4108 10.7928 12.9314 10.3133 12.9314 9.72298C12.9314 9.13265 13.412 8.65316 14.0012 8.65316ZM24.4592 8.60531C23.8665 8.23664 23.1035 8.21459 22.4175 8.55176L21.0723 9.22481C20.8145 5.54398 17.745 2.625 14 2.625C10.3542 2.625 7.34533 5.38887 6.94983 8.93087L4.26534 10.2784C3.25384 10.7859 2.625 11.8045 2.625 12.9373V22.75C2.625 23.4652 2.98667 24.116 3.591 24.4929C4.19417 24.8685 4.93852 24.9048 5.58485 24.5863L9.555 22.5891C9.6495 22.5447 9.73583 22.5202 9.84549 22.519C9.96333 22.512 10.0474 22.5236 10.136 22.5586L17.2422 25.2152C17.5222 25.3237 17.8057 25.3773 18.0402 25.3773C18.0973 25.3773 18.151 25.3749 18.2012 25.3679C18.5313 25.3679 18.8557 25.2909 19.2127 25.1229L23.7382 22.848C24.7485 22.3393 25.3762 21.3207 25.3762 20.1902V10.373C25.3762 9.6123 25.0425 8.96814 24.4592 8.60531ZM14.0012 4.375C16.9493 4.375 19.348 6.77482 19.348 9.72298C19.348 9.95515 19.327 10.1792 19.2955 10.3997V10.4009C18.8977 13.1857 16.1128 15.057 14.0012 16.4535C11.7215 14.9474 8.65433 12.8881 8.65433 9.72298C8.65433 6.77482 11.053 4.375 14.0012 4.375ZM4.80666 23.0195C4.67716 23.0836 4.56867 23.0405 4.51617 23.0066C4.46367 22.974 4.37617 22.897 4.37617 22.75V12.9373C4.37617 12.4718 4.63519 12.0515 5.05169 11.8427L7.01168 10.8595C7.26718 12.3271 7.99517 13.5602 8.92617 14.6067V20.9672C8.88067 20.9859 8.83633 20.9941 8.78966 21.0162L4.80666 23.0195ZM10.759 20.9231C10.7322 20.9126 10.703 20.9102 10.6762 20.9009V16.2399C11.5092 16.9026 12.3643 17.4686 13.1052 17.9586L13.5159 18.2303C13.6629 18.3283 13.832 18.3773 14.0012 18.3773C14.1703 18.3773 14.3395 18.3283 14.4865 18.2303L14.8972 17.9586C15.638 17.4697 16.4932 16.9026 17.3262 16.2399V23.3778L10.759 20.9231ZM23.6262 20.1902C23.6262 20.6557 23.3672 21.0757 22.9518 21.2845L19.0762 23.2331V14.6067C19.922 13.657 20.6057 12.5532 20.916 11.2594L23.1957 10.1186C23.345 10.0451 23.4733 10.0519 23.5352 10.0904C23.6168 10.1417 23.6262 10.3053 23.6262 10.373V20.1902Z" fill="#FF6600"/>
</svg>
