<svg width="40" height="40" viewBox="0 0 40 40" fill="none" xmlns="http://www.w3.org/2000/svg">
<path d="M4.6127 31.1984C3.2761 31.1984 1.97029 30.8573 0.786846 30.1927C0.177949 29.8792 -0.0578878 29.0946 0.305867 28.5045C1.51445 26.5732 1.95088 24.2125 1.39753 21.9923C0.823974 19.6907 -0.00590875 17.7522 3.17148e-05 15.3156C0.0206253 6.76722 7.13581 -0.162922 15.6755 0.00291561C23.9239 0.169051 30.7216 7.10276 30.7217 15.3533C30.7218 26.1286 19.4292 33.6937 9.45982 29.5328C8.08569 30.6113 6.3585 31.1984 4.6127 31.1984ZM2.98858 28.5675C4.86656 29.1508 6.97869 28.6849 8.42687 27.2848C8.7837 26.9397 9.31745 26.8529 9.76516 27.0671C18.3003 31.1479 28.3455 24.7516 28.3454 15.3533C28.3454 8.34015 22.6402 2.51979 15.6277 2.37861C8.40094 2.23504 2.39364 8.08798 2.37622 15.3214C2.37057 17.6357 3.27352 19.4853 3.76698 21.6776C4.28687 23.9879 4.01301 26.431 2.98858 28.5675Z" fill="#FF6600"/>
<path d="M35.3859 39.9996C33.6402 39.9996 31.9129 39.4125 30.539 38.3341C25.2372 40.5468 18.9306 39.5391 14.5834 35.7849C14.0868 35.356 14.032 34.6058 14.4608 34.1091C14.8897 33.6126 15.6398 33.5576 16.1365 33.9866C19.992 37.3162 25.6385 38.0652 30.2336 35.8684C30.6812 35.6541 31.2148 35.7411 31.5719 36.0861C33.02 37.4861 35.1322 37.9523 37.0102 37.3688C35.8017 34.8481 35.6343 31.9604 36.5708 29.287C36.5792 29.2629 36.5884 29.2392 36.5983 29.2157C37.2822 27.6033 37.6269 25.8897 37.6226 24.1226C37.6151 21.007 36.5787 18.125 34.6253 15.788C34.2045 15.2844 34.2715 14.5352 34.775 14.1144C35.2783 13.6935 36.0277 13.7607 36.4485 14.2641C38.7292 16.9929 39.9901 20.4919 39.9988 24.1169C40.0039 26.1932 39.601 28.2082 38.8015 30.1067C37.9617 32.5377 38.3479 35.1405 39.6928 37.3055C40.0568 37.8958 39.8208 38.6804 39.2117 38.9942C38.0285 39.6584 36.7223 39.9995 35.3859 39.9996Z" fill="#FF6600"/>
<path d="M15.3604 17.2911C16.3987 17.2911 17.2404 16.4499 17.2404 15.4122C17.2404 14.3744 16.3987 13.5332 15.3604 13.5332C14.3222 13.5332 13.4805 14.3744 13.4805 15.4122C13.4805 16.4499 14.3222 17.2911 15.3604 17.2911Z" fill="#FF6600"/>
<path d="M8.43465 17.2911C9.47292 17.2911 10.3146 16.4499 10.3146 15.4122C10.3146 14.3744 9.47292 13.5332 8.43465 13.5332C7.39637 13.5332 6.55469 14.3744 6.55469 15.4122C6.55469 16.4499 7.39637 17.2911 8.43465 17.2911Z" fill="#FF6600"/>
<path d="M22.2862 17.2911C23.3245 17.2911 24.1662 16.4499 24.1662 15.4122C24.1662 14.3744 23.3245 13.5332 22.2862 13.5332C21.2479 13.5332 20.4062 14.3744 20.4062 15.4122C20.4062 16.4499 21.2479 17.2911 22.2862 17.2911Z" fill="#FF6600"/>
</svg>
