<svg width="32" height="32" viewBox="0 0 32 32" fill="none" xmlns="http://www.w3.org/2000/svg">
<path d="M16.0003 3C9.43366 3 5.66699 6.76667 5.66699 13.3333V18.6667C5.66699 25.2333 9.43366 29 16.0003 29C22.567 29 26.3337 25.2333 26.3337 18.6667V13.3333C26.3337 6.76667 22.567 3 16.0003 3ZM16.0003 9.66667C16.551 9.66667 17.0003 10.1147 17.0003 10.6667V12.6667C17.0003 13.2187 16.551 13.6667 16.0003 13.6667C15.4497 13.6667 15.0003 13.2187 15.0003 12.6667V10.6667C15.0003 10.1147 15.4497 9.66667 16.0003 9.66667ZM24.3337 18.6667C24.3337 25.5547 19.803 27 16.0003 27C12.1977 27 7.66699 25.5547 7.66699 18.6667V13.3333C7.66699 7.04133 11.447 5.29604 15.0003 5.04004V7.85059C13.839 8.26525 13.0003 9.364 13.0003 10.6667V12.6667C13.0003 14.3213 14.347 15.6667 16.0003 15.6667C17.6537 15.6667 19.0003 14.3213 19.0003 12.6667V10.6667C19.0003 9.36533 18.1617 8.26525 17.0003 7.85059V5.04004C20.5537 5.29604 24.3337 7.04133 24.3337 13.3333V18.6667Z" fill="#153000"/>
</svg>
