<svg width="18" height="18" viewBox="0 0 18 18" fill="none" xmlns="http://www.w3.org/2000/svg">
<path d="M12.4144 16.3139C12.0701 16.3139 11.7236 16.2674 11.3816 16.1736C6.75864 14.9046 3.09713 11.2461 1.82738 6.62536C1.53863 5.57461 1.69684 4.4796 2.27434 3.5436C2.85409 2.6031 3.80738 1.9401 4.88963 1.72335C5.60438 1.5801 6.32138 1.89961 6.68663 2.51611L7.85887 4.49534C8.42812 5.45684 8.14527 6.69584 7.21452 7.31459L6.36638 7.8786C7.15913 9.50685 8.49251 10.8434 10.1133 11.6354L10.6849 10.7826C11.3067 9.85336 12.5464 9.5751 13.5071 10.1473L15.4894 11.3293C16.1029 11.6953 16.4209 12.4108 16.2806 13.1106C16.0646 14.1928 15.4009 15.1461 14.4611 15.7258C13.8296 16.1151 13.1269 16.3139 12.4144 16.3139ZM5.23387 2.81235C5.19712 2.81235 5.15964 2.81611 5.12364 2.82361C4.33314 2.98186 3.64914 3.45809 3.23289 4.13384C2.82114 4.80134 2.70787 5.5806 2.91337 6.32685C4.07812 10.5674 7.43737 13.9244 11.6794 15.0884C12.4256 15.2931 13.204 15.1791 13.87 14.7681C14.545 14.3519 15.0222 13.6664 15.1774 12.8894C15.2239 12.6561 15.1181 12.4169 14.9134 12.2954L12.9311 11.1133C12.4826 10.8471 11.9073 10.9776 11.6193 11.4089L10.7831 12.6576C10.6331 12.8811 10.3437 12.9666 10.0992 12.8631C7.87692 11.9346 6.06941 10.1219 5.13866 7.89135C5.03516 7.64235 5.1228 7.35586 5.3463 7.20661L6.59215 6.37785C7.02415 6.0906 7.15536 5.51535 6.89061 5.0691L5.71837 3.08985C5.61562 2.9151 5.42962 2.81235 5.23387 2.81235ZM11.152 11.0954H11.1595H11.152ZM13.3128 7.49985C13.3128 5.94885 12.0506 4.68735 10.5003 4.68735C10.1898 4.68735 9.93785 4.93935 9.93785 5.24985C9.93785 5.56035 10.1898 5.81235 10.5003 5.81235C11.4303 5.81235 12.1878 6.5691 12.1878 7.49985C12.1878 7.81035 12.4398 8.06235 12.7503 8.06235C13.0608 8.06235 13.3128 7.81035 13.3128 7.49985ZM15.5628 7.49985C15.5628 4.70835 13.2918 2.43735 10.5003 2.43735C10.1898 2.43735 9.93785 2.68935 9.93785 2.99985C9.93785 3.31035 10.1898 3.56235 10.5003 3.56235C12.6716 3.56235 14.4378 5.3286 14.4378 7.49985C14.4378 7.81035 14.6898 8.06235 15.0003 8.06235C15.3108 8.06235 15.5628 7.81035 15.5628 7.49985Z" fill="currentColor"/>
</svg>
