<svg width="24" height="25" viewBox="0 0 24 25" fill="none" xmlns="http://www.w3.org/2000/svg">
<path d="M20.6532 15.6061L18.0104 14.0301C16.7304 13.2671 15.0764 13.6381 14.2474 14.8771L13.4852 16.0141C11.3242 14.9581 9.54636 13.1761 8.48936 11.0051L9.62022 10.2531C10.8612 9.42812 11.2384 7.77711 10.4794 6.49411L8.91636 3.85514C8.42936 3.03314 7.47237 2.60713 6.52037 2.79813C5.07737 3.08713 3.80631 3.97213 3.03331 5.22513C2.26331 6.47313 2.05336 7.93314 2.43736 9.33414C4.13036 15.4951 9.01237 20.3731 15.1764 22.0651C15.6324 22.1901 16.0943 22.2521 16.5533 22.2521C17.5033 22.2521 18.4413 21.9871 19.2823 21.4681C20.5353 20.6951 21.4204 19.4241 21.7084 17.9811C21.8964 17.0481 21.4722 16.0941 20.6532 15.6061ZM20.2374 17.6861C20.0304 18.7221 19.3942 19.6351 18.4942 20.1911C17.6062 20.7391 16.5683 20.8911 15.5733 20.6181C9.91735 19.0661 5.43736 14.5891 3.88536 8.93613C3.61136 7.94013 3.76238 6.90212 4.31138 6.01212C4.86738 5.11112 5.77938 4.47614 6.83238 4.26514C6.88138 4.25514 6.93135 4.25013 6.97935 4.25013C7.24135 4.25013 7.48935 4.38711 7.62535 4.61911L9.18834 7.25812C9.54134 7.85312 9.36639 8.62012 8.79039 9.00312L7.12925 10.1081C6.83025 10.3071 6.7144 10.6901 6.8524 11.0211C8.0934 13.9951 10.5034 16.4121 13.4664 17.6501C13.7924 17.7871 14.1783 17.6741 14.3783 17.3761L15.4933 15.7111C15.8783 15.1361 16.6433 14.9621 17.2423 15.3171L19.8854 16.8931C20.1584 17.0571 20.3004 17.3751 20.2374 17.6861ZM14.4723 10.0301C14.1793 9.73712 14.1793 9.26212 14.4723 8.96912L18.1922 5.24912H16.6703C16.2563 5.24912 15.9203 4.91312 15.9203 4.49912C15.9203 4.08512 16.2563 3.74912 16.6703 3.74912H20.0023C20.1003 3.74912 20.1974 3.76913 20.2894 3.80713C20.4724 3.88313 20.6194 4.02914 20.6954 4.21314C20.7334 4.30514 20.7533 4.40213 20.7533 4.50013V7.83313C20.7533 8.24713 20.4173 8.58313 20.0033 8.58313C19.5893 8.58313 19.2533 8.24713 19.2533 7.83313V6.31012L15.5333 10.0301C15.3873 10.1761 15.1953 10.2501 15.0033 10.2501C14.8113 10.2501 14.6183 10.1771 14.4723 10.0301Z" fill="currentColor"/>
</svg>
