<svg width="16" height="16" viewBox="0 0 16 16" fill="none" xmlns="http://www.w3.org/2000/svg">
<path d="M3.38477 6.30477C3.38477 5.7861 3.47543 5.29612 3.6541 4.83879C3.8341 4.38079 4.08277 3.97879 4.40143 3.63745C4.72077 3.29612 5.08343 3.00072 5.49743 2.75138C5.91077 2.50072 6.35477 2.31405 6.8321 2.18872C7.30743 2.06405 7.7921 2.00138 8.28876 2.00138C9.0481 2.00138 9.75477 2.1621 10.4101 2.4821C11.0628 2.80143 11.5941 3.26676 12.0041 3.87809C12.4134 4.48809 12.6168 5.1781 12.6168 5.94743C12.6168 6.40876 12.5714 6.8601 12.4788 7.30143C12.3868 7.74343 12.2441 8.17008 12.0481 8.57674C11.8508 8.98541 11.6121 9.34479 11.3268 9.65479C11.0428 9.96412 10.6954 10.2114 10.2814 10.3974C9.86743 10.582 9.41343 10.6754 8.9181 10.6754C8.5921 10.6754 8.26677 10.5987 7.94543 10.4447C7.6241 10.2914 7.39343 10.0807 7.25477 9.81071C7.2061 9.99804 7.13943 10.2687 7.05077 10.6227C6.96543 10.9761 6.9081 11.2041 6.88277 11.3075C6.8561 11.4101 6.80677 11.5814 6.73477 11.8188C6.66277 12.0561 6.6001 12.228 6.54743 12.3314C6.49477 12.4334 6.41877 12.5834 6.3181 12.7808C6.21677 12.9781 6.10477 13.1648 5.9861 13.3394C5.86543 13.5141 5.7161 13.7227 5.5381 13.9627L5.43877 13.998L5.37277 13.9261C5.30143 13.1708 5.26477 12.7188 5.26477 12.5694C5.26477 12.1274 5.31743 11.6314 5.42143 11.0807C5.52343 10.5307 5.68477 9.83939 5.90143 9.00806C6.1181 8.17739 6.2421 7.68878 6.27543 7.54411C6.12277 7.23278 6.04543 6.82609 6.04543 6.32609C6.04543 5.92676 6.1701 5.55277 6.4201 5.20077C6.67077 4.8501 6.98743 4.67472 7.37143 4.67472C7.66543 4.67472 7.89343 4.77211 8.05677 4.96745C8.22077 5.16212 8.30077 5.40745 8.30077 5.70679C8.30077 6.02412 8.19543 6.4834 7.98343 7.08407C7.77143 7.6854 7.6661 8.13405 7.6661 8.43205C7.6661 8.73405 7.7741 8.98673 7.9901 9.18473C8.2061 9.38407 8.46943 9.48405 8.7761 9.48405C9.0401 9.48405 9.28477 9.42405 9.5121 9.30339C9.73943 9.18405 9.92743 9.02011 10.0781 8.81478C10.2294 8.60745 10.3654 8.37941 10.4821 8.12874C10.6001 7.87808 10.6921 7.61338 10.7561 7.33138C10.8201 7.05005 10.8694 6.78275 10.9001 6.53141C10.9328 6.27875 10.9468 6.04006 10.9468 5.8134C10.9468 4.98206 10.6828 4.33412 10.1581 3.87012C9.63076 3.40612 8.9441 3.17537 8.09943 3.17537C7.13877 3.17537 6.33543 3.48604 5.6921 4.10938C5.0481 4.73071 4.7241 5.52076 4.7241 6.47876C4.7241 6.69009 4.7561 6.89406 4.81677 7.09139C4.8761 7.28806 4.94077 7.44471 5.01077 7.56071C5.0801 7.67471 5.14543 7.78609 5.20477 7.88875C5.26477 7.99142 5.2961 8.06472 5.2961 8.10872C5.2961 8.24339 5.26077 8.41875 5.18943 8.63542C5.11543 8.85208 5.0281 8.96004 4.92277 8.96004C4.91277 8.96004 4.87143 8.95275 4.79943 8.93742C4.5541 8.86542 4.3361 8.73077 4.14677 8.5341C3.95743 8.33677 3.8101 8.10878 3.70743 7.85278C3.60543 7.59545 3.52677 7.33607 3.47277 7.07341C3.40943 6.81074 3.38477 6.55477 3.38477 6.30477Z" fill="currentColor"/>
</svg>
