<svg width="18" height="18" viewBox="0 0 18 18" fill="none" xmlns="http://www.w3.org/2000/svg">
<path d="M3.80762 7.09277C3.80762 6.50927 3.90962 5.95804 4.11062 5.44354C4.31312 4.92829 4.59287 4.47604 4.95137 4.09204C5.31062 3.70804 5.71862 3.37572 6.18437 3.09521C6.64937 2.81322 7.14887 2.60322 7.68587 2.46222C8.22062 2.32197 8.76587 2.25146 9.32462 2.25146C10.1789 2.25146 10.9739 2.43227 11.7111 2.79227C12.4454 3.15152 13.0431 3.67501 13.5044 4.36276C13.9649 5.04901 14.1936 5.82526 14.1936 6.69077C14.1936 7.20977 14.1426 7.71752 14.0384 8.21402C13.9349 8.71127 13.7744 9.19124 13.5539 9.64874C13.3319 10.1085 13.0634 10.5128 12.7424 10.8615C12.4229 11.2095 12.0321 11.4877 11.5664 11.697C11.1006 11.9047 10.5899 12.0097 10.0326 12.0097C9.66587 12.0097 9.29987 11.9235 8.93837 11.7502C8.57687 11.5777 8.31737 11.3407 8.16137 11.037C8.10662 11.2477 8.03162 11.5522 7.93187 11.9505C7.83587 12.348 7.77137 12.6045 7.74287 12.7208C7.71287 12.8363 7.65737 13.029 7.57637 13.296C7.49537 13.563 7.42487 13.7565 7.36562 13.8727C7.30637 13.9875 7.22087 14.1563 7.10762 14.3783C6.99362 14.6003 6.86762 14.8103 6.73412 15.0068C6.59837 15.2033 6.43037 15.438 6.23012 15.708L6.11837 15.7477L6.04412 15.6668C5.96387 14.817 5.92262 14.3085 5.92262 14.1405C5.92262 13.6433 5.98187 13.0852 6.09887 12.4657C6.21362 11.847 6.39512 11.0692 6.63887 10.134C6.88262 9.19947 7.02212 8.64978 7.05962 8.48703C6.88787 8.13678 6.80087 7.67926 6.80087 7.11676C6.80087 6.66751 6.94112 6.24677 7.22237 5.85077C7.50437 5.45627 7.86062 5.25897 8.29262 5.25897C8.62337 5.25897 8.87987 5.36854 9.06362 5.58829C9.24812 5.80729 9.33812 6.08329 9.33812 6.42004C9.33812 6.77704 9.21962 7.29373 8.98112 7.96948C8.74262 8.64598 8.62412 9.15071 8.62412 9.48596C8.62412 9.82571 8.74562 10.11 8.98862 10.3327C9.23162 10.557 9.52787 10.6695 9.87287 10.6695C10.1699 10.6695 10.4451 10.602 10.7009 10.4662C10.9566 10.332 11.1681 10.1475 11.3376 9.91653C11.5079 9.68328 11.6609 9.42674 11.7921 9.14474C11.9249 8.86274 12.0284 8.56496 12.1004 8.24771C12.1724 7.93121 12.2279 7.6305 12.2624 7.34775C12.2991 7.0635 12.3149 6.79498 12.3149 6.53998C12.3149 5.60473 12.0179 4.87579 11.4276 4.35379C10.8344 3.83179 10.0619 3.5722 9.11162 3.5722C8.03087 3.5722 7.12712 3.92171 6.40337 4.62296C5.67887 5.32196 5.31437 6.21076 5.31437 7.28851C5.31437 7.52626 5.35037 7.75572 5.41862 7.97772C5.48537 8.19897 5.55812 8.37521 5.63687 8.50571C5.71487 8.63396 5.78837 8.75926 5.85512 8.87476C5.92262 8.99026 5.95787 9.07272 5.95787 9.12222C5.95787 9.27372 5.91812 9.471 5.83787 9.71475C5.75462 9.9585 5.65637 10.08 5.53787 10.08C5.52662 10.08 5.48012 10.0718 5.39912 10.0545C5.12312 9.9735 4.87787 9.82202 4.66487 9.60077C4.45187 9.37877 4.28612 9.12229 4.17062 8.83429C4.05587 8.54479 3.96737 8.25299 3.90662 7.95749C3.83537 7.66199 3.80762 7.37402 3.80762 7.09277Z" fill="currentColor"/>
</svg>
