<svg width="24" height="24" viewBox="0 0 24 24" fill="none" xmlns="http://www.w3.org/2000/svg">
<path d="M20.9271 3.07293C20.2251 2.37093 19.231 2.09493 18.265 2.33593L5.15221 5.61395C3.40421 6.05095 2.23808 7.55493 2.25108 9.35693C2.26408 11.1589 3.45021 12.6459 5.20421 13.0589L9.85021 14.1519L10.9432 18.7969C11.3562 20.5509 12.8431 21.7369 14.6451 21.7499C14.6541 21.7499 14.6642 21.7499 14.6732 21.7499C16.4622 21.7499 17.9521 20.5869 18.3871 18.8489L21.6651 5.73593C21.9051 4.77093 21.6301 3.77593 20.9271 3.07293ZM20.2091 5.37195L16.931 18.4849C16.602 19.7979 15.5412 20.2579 14.6542 20.2499C13.8092 20.2439 12.7132 19.7699 12.4032 18.4539L11.2992 13.7629L15.5301 9.53094C15.8231 9.23794 15.8231 8.76294 15.5301 8.46994C15.2371 8.17694 14.7621 8.17694 14.4691 8.46994L10.2372 12.7019L5.54601 11.5979C4.22901 11.2879 3.75513 10.1909 3.74913 9.34594C3.74313 8.50094 4.20202 7.39694 5.51402 7.06894L18.6271 3.79092C18.7341 3.76392 18.8421 3.75094 18.9481 3.75094C19.2881 3.75094 19.6161 3.88494 19.8651 4.13394C20.1921 4.45994 20.3211 4.92295 20.2091 5.37195Z" fill="currentColor"/>
</svg>
