<svg width="40" height="40" viewBox="0 0 40 40" fill="none" xmlns="http://www.w3.org/2000/svg">
<path d="M19.9986 14.2284C21.4319 14.2284 22.5969 13.0886 22.5969 11.6864C22.5969 10.2843 21.4319 9.14453 19.9986 9.14453C18.5654 9.14453 17.4004 10.2843 17.4004 11.6864C17.4004 13.0886 18.5654 14.2284 19.9986 14.2284ZM19.9986 10.5971C20.6137 10.5971 21.1122 11.0848 21.1122 11.6864C21.1122 12.2881 20.6137 12.7758 19.9986 12.7758C19.3836 12.7758 18.8851 12.2881 18.8851 11.6864C18.8851 11.0848 19.3836 10.5971 19.9986 10.5971Z" fill="#FF6600"/>
<path d="M35.2576 24.8015H29.839L26.2789 14.7426C26.7476 13.8228 27.0185 12.7864 27.0185 11.6917C27.0185 8.99874 25.4227 6.66888 23.109 5.54503V3.04287C23.109 1.36505 21.7137 0 19.9986 0C18.2836 0 16.8883 1.36505 16.8883 3.04287V5.53973C14.5745 6.66357 12.9787 8.99344 12.9787 11.6891C12.9787 12.7864 13.2497 13.8228 13.7211 14.7426L10.161 24.8015H4.74236C4.33325 24.8015 4 25.1276 4 25.5278C4 25.928 4.33325 26.2541 4.74236 26.2541H9.64626L7.99357 30.9217C7.17264 33.1853 8.20489 35.653 10.3046 36.7557L9.48099 39.0325C9.34282 39.4116 9.54602 39.8251 9.93345 39.9576C10.0147 39.9867 10.0987 40 10.18 40C10.4862 40 10.7733 39.8145 10.879 39.5149L15.6068 26.2514H19.2536V28.0697C19.2536 28.4699 19.5841 28.796 19.9959 28.796C20.4078 28.796 20.7383 28.4699 20.7383 28.0697V26.2514H24.3851L29.1129 39.5149C29.2212 39.8145 29.5057 40 29.8119 40C29.8931 40 29.9771 39.9867 30.0584 39.9576C30.4459 39.8251 30.6463 39.4089 30.5109 39.0325L29.6872 36.7557C31.7897 35.6557 32.8192 33.1853 32.001 30.927L30.3456 26.2541H35.2495C35.6586 26.2541 35.9919 25.928 35.9919 25.5278C35.9919 25.1276 35.6586 24.8015 35.2495 24.8015H35.2576ZM18.373 3.04287C18.373 2.16553 19.1019 1.45252 19.9986 1.45252C20.8954 1.45252 21.6242 2.16553 21.6242 3.04287V5.01491C20.527 4.7578 19.4839 4.75515 18.373 5.01491V3.04287ZM19.9986 6.27394C23.0521 6.27394 25.5338 8.70452 25.5338 11.6891C25.5338 14.6736 23.0521 17.1042 19.9986 17.1042C16.9452 17.1042 14.4635 14.6763 14.4635 11.6891C14.4635 8.70187 16.9479 6.27394 19.9986 6.27394ZM10.8031 35.3668C9.47286 34.5504 8.84701 32.9123 9.39429 31.4015L14.7588 16.2428C15.3846 16.9293 16.146 17.4939 17.0075 17.8915L10.8031 35.3668ZM20.741 24.8015V22.9859C20.741 22.5856 20.4078 22.2596 19.9986 22.2596C19.5895 22.2596 19.2563 22.5856 19.2563 22.9859V24.8015H16.1243L18.4083 18.3712C19.4866 18.6177 20.5107 18.6177 21.589 18.3712L23.873 24.8015H20.741ZM30.6057 31.4068C31.1503 32.9123 30.5244 34.5504 29.1941 35.3668L22.9898 17.8915C23.8486 17.4939 24.6126 16.9293 25.2385 16.2428L30.6057 31.4068Z" fill="#FF6600"/>
</svg>
