<svg width="40" height="40" viewBox="0 0 40 40" fill="none" xmlns="http://www.w3.org/2000/svg">
<g clip-path="url(#clip0_0_879)">
<path fill-rule="evenodd" clip-rule="evenodd" d="M5.07219 1C3.66604 1 2.41055 1.57656 1.48148 2.479C0.552417 3.38144 0 4.65989 0 6.06369V33.6883C0 34.8665 0.477087 35.9444 1.2806 36.7466C2.05901 37.5237 3.13873 38.0251 4.34401 38.0251H35.6811C36.8613 38.0251 37.941 37.5488 38.7445 36.7466C39.5229 35.9695 40.0251 34.8916 40.0251 33.6883V9.64837C40.0251 8.47019 39.548 7.39228 38.7445 6.59011C37.9661 5.81301 36.8864 5.31165 35.6811 5.31165H10.0691C9.89328 4.20867 9.4162 3.23103 8.6629 2.479C7.73384 1.55149 6.47834 1 5.07219 1ZM37.5643 7.74322C38.0414 8.21951 38.3428 8.89634 38.3428 9.64837V33.6883C38.3428 34.4153 38.0414 35.0921 37.5643 35.5935C37.0873 36.0948 36.4093 36.3706 35.656 36.3706H4.3189C3.59071 36.3706 2.91274 36.0698 2.41055 35.5935C1.93346 35.1172 1.60703 34.4404 1.60703 33.6883V32.9363C1.60703 31.9837 1.98368 31.1314 2.61142 30.5047C3.23917 29.878 4.09291 29.502 5.04708 29.502C6.00126 29.502 6.85499 29.878 7.48274 30.5047C8.11048 31.1314 8.48713 31.9837 8.48713 32.9363H10.1193V6.96612H35.6811C36.4093 6.96612 37.0873 7.26694 37.5895 7.74322H37.5643ZM8.51224 6.06369V29.2012C7.60829 28.374 6.40301 27.8726 5.07219 27.8726C4.72065 27.8726 4.39422 27.8977 4.0678 27.9729C3.96736 27.9729 3.86692 28.0481 3.76648 28.0732C3.5656 28.1233 3.33961 28.1734 3.13873 28.2737C3.01318 28.3238 2.91274 28.399 2.78719 28.4492C2.61143 28.5244 2.43566 28.6247 2.285 28.7249C2.15945 28.8001 2.05901 28.9004 1.95857 28.9756C1.83302 29.0759 1.73258 29.1511 1.60703 29.2514V6.06369C1.60703 5.11111 1.98368 4.25881 2.61142 3.63211C3.23917 3.00542 4.09291 2.6294 5.04708 2.6294C6.00126 2.6294 6.85499 3.00542 7.48274 3.63211C8.11048 4.25881 8.48713 5.11111 8.48713 6.06369H8.51224Z" fill="#FF6600"/>
<path fill-rule="evenodd" clip-rule="evenodd" d="M14.8403 20.2772H16.2967V28.4743C16.2967 29.076 16.5478 29.6275 16.9245 30.0536L16.9747 30.1037C17.4016 30.5299 17.9791 30.7806 18.6068 30.7806H29.63C30.2578 30.7806 30.8353 30.5299 31.2622 30.1037C31.6891 29.6776 31.9402 29.101 31.9402 28.4743V20.2772H33.3965C33.3965 20.2772 33.6225 20.2772 33.723 20.202C34.1247 20.0265 34.3256 19.5502 34.1498 19.1241L31.5133 13.0827C31.4128 12.7569 31.0864 12.5312 30.7349 12.5312H17.502C17.1756 12.5312 16.8994 12.7067 16.7487 13.0326L14.1122 19.0739C14.1122 19.0739 14.0117 19.3246 14.0117 19.4499C14.0117 19.9012 14.3884 20.2772 14.8403 20.2772ZM22.1473 29.1512V24.3131C22.1473 24.0624 22.2478 23.8117 22.4235 23.6613C22.5993 23.4859 22.8253 23.3856 23.0764 23.3856H25.1354C25.3865 23.3856 25.6376 23.4859 25.7882 23.6613C25.964 23.8368 26.0645 24.0624 26.0645 24.3131V29.1512H22.1222H22.1473ZM30.308 28.4743C30.308 28.6498 30.2327 28.8253 30.1071 28.9506C30.1071 28.9506 29.8058 29.1512 29.63 29.1512H27.7217V24.3131C27.7217 23.6112 27.4204 22.9594 26.9684 22.5082C26.4913 22.0319 25.8636 21.7562 25.1605 21.7562H23.1015C22.3984 21.7562 21.7456 22.057 21.2936 22.5082C20.8165 22.9845 20.5403 23.6112 20.5403 24.3131V29.1512H18.6319C18.4562 29.1512 18.2804 29.076 18.1548 28.9506H18.1297C18.0293 28.8002 17.954 28.6498 17.954 28.4743V20.2772H30.308V28.4743ZM18.0544 14.1857H30.2076L32.1661 18.6478H16.0958L18.0544 14.1857Z" fill="#FF6600"/>
</g>
<defs>
<clipPath id="clip0_0_879">
<rect width="40" height="40" fill="white"/>
</clipPath>
</defs>
</svg>
