<svg width="137" height="119" viewBox="0 0 137 119" fill="none" xmlns="http://www.w3.org/2000/svg">
<path opacity="0.1" d="M147.303 -10.5182L74.711 -52.8063C74.2702 -53.0646 73.7298 -53.0646 73.289 -52.8063L44.2663 -35.894C44.1526 -35.8366 44.053 -35.7505 43.9677 -35.6644C43.9677 -35.6644 43.8682 -35.5353 43.8255 -35.4636C43.7971 -35.4349 43.7686 -35.4062 43.7544 -35.3632C43.7402 -35.3345 43.726 -35.2915 43.7118 -35.2484C43.6264 -35.062 43.5696 -34.8611 43.5696 -34.646V-20.2152L31.1841 -27.4306C30.7433 -27.6888 30.2029 -27.6888 29.7621 -27.4306L0.710992 -10.5182C0.270177 -10.26 0 -9.78662 0 -9.27021V75.2774C0 75.7938 0.270177 76.2672 0.710992 76.5254L29.7194 93.4234C29.7194 93.4234 29.7337 93.4234 29.7479 93.4378C29.9612 93.5669 30.2171 93.6242 30.4589 93.6242C30.5869 93.6242 30.7006 93.6099 30.8286 93.5812C30.9424 93.5525 31.0703 93.4951 31.1699 93.4378L43.5411 86.2224V100.653C43.5411 101.17 43.8113 101.643 44.2521 101.901L73.289 118.814C73.5023 118.943 73.7583 119 74 119C74.2417 119 74.4977 118.943 74.711 118.814L147.289 76.5254C147.73 76.2672 148 75.7938 148 75.2774V-9.27021C148 -9.78662 147.73 -10.26 147.289 -10.5182H147.303ZM89.1868 6.36551L74.7252 -2.06918C74.7252 -2.06918 74.6541 -2.11221 74.6115 -2.12655L60.2068 -10.5182C60.2068 -10.5182 60.1783 -10.5182 60.1499 -10.5469L46.3851 -18.5799V-32.1643L58.7706 -24.949C58.7706 -24.949 58.799 -24.949 58.8132 -24.9346L73.289 -16.4999C73.289 -16.4999 73.3175 -16.4999 73.3459 -16.4856L87.8075 -8.05091C87.8075 -8.05091 87.8359 -8.05091 87.8501 -8.03657L102.326 0.398109C102.326 0.398109 102.354 0.398113 102.383 0.412457L116.133 8.44548V72.7671L104.473 65.9677V16.0912C104.473 15.5604 104.174 15.1158 103.734 14.8719L89.2294 6.40854C89.2294 6.40854 89.1868 6.40854 89.1726 6.37984L89.1868 6.36551ZM104.473 69.31L114.711 75.2774L109.237 78.4763L104.473 81.2448V69.31ZM74 -49.9087L143.748 -9.28456L117.555 5.9782L103.762 -2.06918C103.762 -2.06918 103.734 -2.06918 103.719 -2.08352L89.2437 -10.5182C89.2437 -10.5182 89.2152 -10.5182 89.1868 -10.5469L74.7252 -18.9816L74 -17.7336V-17.7623L74.711 -18.9959L60.2068 -27.4449L59.4958 -26.1969V-26.2256L60.2068 -27.4593L47.8355 -34.6747L74 -49.9087ZM30.4589 -24.533L44.2521 -16.4999L44.3232 -16.4569L58.7563 -8.03657L59.4816 -9.28456V-9.25587L58.7706 -8.02222L73.2748 0.426804C73.2748 0.426804 73.3601 0.46983 73.3885 0.484173L87.779 8.89017L88.5042 7.64218V7.67087L87.7932 8.90451L100.164 16.1055L73.9858 31.3683L16.623 -2.04049L4.26595 -9.27021L30.4589 -24.5186V-24.533ZM43.5553 82.9088L31.8809 89.7081V27.0362L43.5553 33.8212V82.9088ZM46.3993 99.8212V33.0036C46.3993 32.4872 46.1291 32.0138 45.6883 31.7556L38.8912 27.8108L31.1557 23.3066C30.7148 23.0484 30.1745 23.0484 29.7337 23.3066C29.2929 23.5648 29.0227 24.0382 29.0227 24.5546V89.7081L16.6372 82.5071L2.82975 74.4597V-6.78858L72.578 33.8356V115.084L46.3851 99.8355L46.3993 99.8212ZM75.4362 115.07V33.8356L101.629 18.5728V66.771C101.629 66.771 101.629 66.7997 101.629 66.8284V83.7408C101.629 83.8699 101.643 83.9846 101.672 84.1137C101.7 84.2285 101.743 84.3289 101.8 84.4293C101.8 84.4293 101.8 84.458 101.814 84.458C101.871 84.5728 101.956 84.6732 102.042 84.7592C102.098 84.8166 102.155 84.8596 102.226 84.9027C102.269 84.9314 102.297 84.9601 102.34 84.9887C102.411 85.0318 102.497 85.0605 102.582 85.0892C102.61 85.0892 102.639 85.1178 102.681 85.1322C103.037 85.2326 103.435 85.1896 103.762 84.9887L118.266 76.5397C118.38 76.468 118.48 76.3963 118.565 76.3102C118.608 76.2672 118.65 76.2098 118.693 76.1524C118.721 76.1094 118.764 76.0663 118.792 76.0233C118.821 75.9659 118.849 75.8942 118.864 75.8368C118.878 75.7794 118.906 75.7364 118.92 75.679C118.949 75.5786 118.963 75.4639 118.963 75.3635C118.963 75.3491 118.963 75.3348 118.963 75.3204C118.963 75.3204 118.963 75.2774 118.963 75.263V8.47417L145.156 -6.78858V74.4454L75.422 115.07H75.4362Z" fill="white"/>
</svg>
