<svg width="136" height="119" viewBox="0 0 136 119" fill="none" xmlns="http://www.w3.org/2000/svg">
<path opacity="0.15" d="M181.843 45.6322C181.871 45.5765 181.899 45.5208 181.922 45.4605C181.926 45.4419 181.931 45.428 181.936 45.4094C181.954 45.3491 181.968 45.2934 181.977 45.2284C181.977 45.2052 181.982 45.182 181.986 45.1541C181.986 45.1124 182 45.0752 182 45.0335V22.417C182 22.417 182 22.3984 182 22.3845C182 22.3613 182 22.3335 182 22.3102C182 22.2731 181.991 22.2406 181.986 22.2081C181.986 22.1849 181.977 22.1617 181.972 22.1385C181.968 22.1153 181.963 22.0921 181.954 22.0735C181.945 22.041 181.931 22.0132 181.922 21.9807C181.912 21.9529 181.903 21.9297 181.889 21.9018C181.885 21.8879 181.88 21.8786 181.876 21.8647C181.876 21.8554 181.866 21.8508 181.862 21.8415C181.848 21.8136 181.83 21.7904 181.816 21.7626C181.802 21.7394 181.784 21.7115 181.77 21.6883C181.756 21.6698 181.742 21.6512 181.728 21.6326C181.71 21.6094 181.691 21.5909 181.673 21.5723C181.655 21.5491 181.632 21.5259 181.608 21.5073C181.59 21.4887 181.576 21.4748 181.553 21.4563C181.535 21.4423 181.512 21.4284 181.493 21.4099C181.466 21.3913 181.438 21.3727 181.41 21.3542C181.392 21.3402 181.369 21.331 181.351 21.317C181.341 21.3124 181.337 21.3031 181.328 21.2985L148.349 4.08896V-6.83638L147.824 -40.4989C147.824 -40.4989 147.819 -40.5267 147.819 -40.5407C147.819 -40.6196 147.805 -40.6985 147.787 -40.7774C147.787 -40.7959 147.782 -40.8145 147.773 -40.833C147.745 -40.9259 147.709 -41.0187 147.658 -41.1069C147.658 -41.1115 147.649 -41.1162 147.649 -41.1208C147.603 -41.1997 147.547 -41.2693 147.488 -41.3343C147.469 -41.3529 147.451 -41.3714 147.432 -41.39C147.382 -41.4364 147.326 -41.4828 147.266 -41.5199C147.248 -41.5292 147.239 -41.5478 147.22 -41.5571C147.211 -41.5617 147.197 -41.5664 147.188 -41.571C147.174 -41.5803 147.161 -41.5896 147.147 -41.5988L125.222 -52.863C124.872 -53.0394 124.462 -53.0486 124.103 -52.8723L91 -36.4889L57.8923 -52.8723C57.8647 -52.8862 57.8371 -52.8908 57.8048 -52.9048C57.768 -52.9187 57.7265 -52.9373 57.6897 -52.9465C57.6528 -52.9558 57.616 -52.9651 57.5791 -52.9697C57.5377 -52.979 57.4916 -52.9837 57.4502 -52.9883C57.4133 -52.9883 57.3811 -52.9883 57.3442 -52.9883C57.2982 -52.9883 57.2521 -52.9883 57.2061 -52.9837C57.1738 -52.9837 57.1416 -52.9744 57.1047 -52.9651C57.0587 -52.9558 57.0126 -52.9465 56.9665 -52.9326C56.9343 -52.9233 56.9021 -52.9094 56.8698 -52.8955C56.8376 -52.8816 56.8053 -52.8723 56.7731 -52.8584L34.8533 -41.5849C34.8533 -41.5849 34.8257 -41.5664 34.8119 -41.5571C34.8027 -41.5524 34.7888 -41.5478 34.7796 -41.5431C34.7612 -41.5339 34.752 -41.5153 34.7336 -41.506C34.6737 -41.4642 34.6184 -41.4225 34.5677 -41.3714C34.5493 -41.3529 34.5309 -41.3343 34.5125 -41.3157C34.4526 -41.2508 34.3973 -41.1765 34.3513 -41.1022C34.3513 -41.0976 34.3421 -41.093 34.3421 -41.0883C34.2914 -41.0001 34.2545 -40.9119 34.2269 -40.8145C34.2223 -40.7959 34.2177 -40.7774 34.2131 -40.7588C34.1947 -40.6799 34.1855 -40.6056 34.1808 -40.5221C34.1808 -40.5082 34.1762 -40.4942 34.1762 -40.4803L33.6512 -6.82711V4.10752L0.672471 21.3031C0.672471 21.3031 0.649441 21.3217 0.635623 21.3309C0.557321 21.3727 0.488232 21.4238 0.423749 21.4841C0.409931 21.498 0.396113 21.5073 0.382295 21.5166C0.3086 21.5862 0.244116 21.6651 0.19345 21.7533C0.179633 21.7719 0.170421 21.7951 0.161209 21.8136C0.119755 21.8832 0.0875133 21.9622 0.0644835 22.0411C0.0552715 22.0643 0.0460596 22.0921 0.0414537 22.1153C0.0184239 22.2128 0 22.3149 0 22.417V45.0335C0 45.0613 0.00460596 45.0892 0.00921192 45.117C0.00921192 45.1588 0.0138179 45.2006 0.0230298 45.247C0.0322417 45.2934 0.0414537 45.3351 0.0552715 45.3769C0.0644835 45.4094 0.0736954 45.4465 0.0875133 45.479C0.105937 45.5254 0.124361 45.5672 0.147391 45.609C0.161209 45.6368 0.175027 45.6693 0.19345 45.6972C0.21648 45.7389 0.244116 45.7761 0.276358 45.8132C0.299388 45.841 0.317811 45.8689 0.340841 45.8921C0.373083 45.9246 0.405325 45.9571 0.442172 45.9896C0.469808 46.0128 0.492838 46.036 0.520474 46.0545C0.561927 46.0824 0.603381 46.1056 0.644835 46.1334C0.667865 46.1474 0.686288 46.1613 0.704712 46.1706L33.6604 62.4565V106.427C33.6604 106.455 33.665 106.478 33.6696 106.506C33.6696 106.548 33.6742 106.589 33.6834 106.631C33.6926 106.673 33.7018 106.715 33.711 106.757C33.7202 106.794 33.7295 106.826 33.7433 106.863C33.7571 106.905 33.7755 106.947 33.7986 106.989C33.8124 107.021 33.8308 107.054 33.8492 107.081C33.8722 107.119 33.8999 107.156 33.9229 107.193C33.9459 107.221 33.969 107.249 33.992 107.276C34.0242 107.309 34.0565 107.341 34.0887 107.369C34.1164 107.392 34.144 107.416 34.1716 107.439C34.2085 107.467 34.2499 107.49 34.2914 107.513C34.3144 107.527 34.3282 107.541 34.3513 107.55L56.7961 118.87C56.856 118.898 56.9159 118.916 56.9804 118.935C57.0034 118.944 57.0264 118.954 57.0495 118.958C57.1508 118.986 57.2521 119 57.3534 119C57.464 119 57.5745 118.986 57.6851 118.954C57.7081 118.949 57.7265 118.935 57.7496 118.926C57.8279 118.898 57.9062 118.87 57.9799 118.828L91.0046 99.4328L124.029 118.828C124.223 118.944 124.439 119 124.66 119H124.665C124.766 119 124.872 118.986 124.974 118.958C124.987 118.958 125.001 118.949 125.01 118.944C125.084 118.926 125.153 118.903 125.222 118.865L147.667 107.546C147.699 107.527 147.727 107.508 147.759 107.49C147.782 107.476 147.805 107.462 147.828 107.448C147.879 107.416 147.92 107.374 147.962 107.337C147.976 107.323 147.99 107.309 148.003 107.295C148.049 107.249 148.086 107.202 148.123 107.146C148.132 107.132 148.142 107.119 148.151 107.109C148.188 107.054 148.22 106.993 148.243 106.933C148.247 106.919 148.257 106.91 148.261 106.896C148.289 106.831 148.307 106.761 148.326 106.692C148.326 106.682 148.33 106.673 148.33 106.664C148.344 106.585 148.353 106.506 148.353 106.427V106.404C148.353 106.376 148.353 106.353 148.353 106.325V62.4472L181.309 46.1613C181.309 46.1613 181.341 46.1427 181.355 46.1334C181.406 46.1056 181.456 46.0777 181.503 46.0406C181.521 46.0267 181.539 46.0128 181.558 45.9942C181.604 45.9571 181.645 45.9153 181.687 45.8735C181.701 45.8596 181.714 45.841 181.728 45.8271C181.765 45.7807 181.802 45.7297 181.834 45.6786C181.843 45.6647 181.853 45.6461 181.857 45.6322H181.843ZM146.543 60.535C146.52 60.5443 146.502 60.5629 146.479 60.5768C146.437 60.6 146.396 60.6232 146.359 60.6511C146.331 60.6743 146.304 60.6975 146.276 60.7207C146.239 60.7532 146.207 60.781 146.175 60.8135C146.152 60.8413 146.129 60.8645 146.11 60.8924C146.083 60.9295 146.055 60.9666 146.032 61.0084C146.014 61.0363 146 61.0641 145.986 61.0966C145.963 61.1384 145.945 61.1801 145.926 61.2266C145.912 61.259 145.903 61.2915 145.894 61.3287C145.88 61.3704 145.871 61.4122 145.862 61.4586C145.852 61.5004 145.852 61.5422 145.848 61.5886C145.848 61.6164 145.839 61.6396 145.839 61.6675V105.647L125.89 115.709V72.7878C125.89 72.7878 125.89 72.7692 125.89 72.7553C125.89 72.7088 125.881 72.6624 125.876 72.6114C125.872 72.5742 125.867 72.5371 125.858 72.5046C125.849 72.4629 125.835 72.4257 125.821 72.3886C125.807 72.3468 125.793 72.3051 125.775 72.2633C125.775 72.254 125.77 72.2447 125.766 72.2308C125.752 72.2076 125.738 72.1844 125.724 72.1612C125.701 72.1241 125.683 72.0823 125.655 72.0498C125.632 72.0173 125.605 71.9848 125.577 71.9523C125.549 71.9245 125.526 71.892 125.494 71.8642C125.466 71.8363 125.434 71.8131 125.402 71.7899C125.37 71.762 125.333 71.7388 125.296 71.7156C125.268 71.6971 125.241 71.6831 125.208 71.6692C125.162 71.646 125.121 71.6275 125.075 71.6089C125.047 71.5996 125.02 71.5903 124.992 71.581C124.941 71.5671 124.891 71.5532 124.84 71.5439C124.808 71.5393 124.78 71.5393 124.748 71.5346C124.711 71.5346 124.679 71.5253 124.642 71.5253C124.628 71.5253 124.614 71.5253 124.596 71.5253C124.564 71.5253 124.531 71.53 124.499 71.5346C124.448 71.5393 124.402 71.5439 124.352 71.5578C124.32 71.5671 124.292 71.5764 124.26 71.5857C124.214 71.5996 124.168 71.6182 124.121 71.6367C124.112 71.6367 124.103 71.6414 124.094 71.646L92.239 87.3889V67.5989L125.195 51.2898C125.195 51.2898 125.227 51.2666 125.245 51.2573C125.31 51.2202 125.37 51.1784 125.43 51.132C125.453 51.1134 125.476 51.0949 125.499 51.0763C125.568 51.0113 125.632 50.9371 125.688 50.8535C125.697 50.8349 125.706 50.8164 125.715 50.8025C125.757 50.7328 125.789 50.6586 125.816 50.5843C125.826 50.5565 125.835 50.524 125.844 50.4915C125.863 50.4172 125.876 50.3383 125.881 50.2594C125.881 50.2409 125.89 50.2223 125.89 50.1991C125.89 50.1945 125.89 50.1852 125.89 50.1805C125.89 50.1759 125.89 50.1666 125.89 50.162V5.6484L145.843 -4.21412V39.0788C145.843 39.5151 146.064 39.9142 146.433 40.1463C146.635 40.2716 146.866 40.3366 147.091 40.3366C147.28 40.3366 147.469 40.2948 147.644 40.2066L179.499 24.4405V44.2491L146.539 60.535H146.543ZM57.8877 71.6553C57.8877 71.6553 57.8693 71.6507 57.8601 71.646C57.8186 71.6275 57.7726 71.6135 57.7311 71.5996C57.6989 71.5903 57.662 71.5764 57.6298 71.5671C57.5837 71.5578 57.5377 71.5532 57.4916 71.5439C57.4548 71.5439 57.4225 71.5346 57.3857 71.5346C57.3719 71.5346 57.358 71.5346 57.3396 71.5346C57.3028 71.5346 57.2659 71.5439 57.2337 71.5439C57.2061 71.5439 57.1784 71.5439 57.1462 71.5532C57.0909 71.5625 57.0356 71.5764 56.9804 71.595C56.9573 71.5996 56.9389 71.6089 56.9159 71.6135C56.8606 71.6321 56.8099 71.6553 56.7593 71.6831C56.7362 71.6924 56.7178 71.7064 56.6948 71.7203C56.6487 71.7481 56.6073 71.7806 56.5658 71.8131C56.5428 71.8317 56.5198 71.8502 56.4967 71.8734C56.4599 71.9059 56.4276 71.9431 56.4 71.9755C56.377 72.0034 56.354 72.0266 56.3355 72.0545C56.3079 72.0916 56.2849 72.1333 56.2572 72.1797C56.2434 72.203 56.2296 72.2215 56.2204 72.2401C56.2158 72.2494 56.2158 72.2587 56.2112 72.2679C56.1927 72.3097 56.1789 72.3515 56.1651 72.3979C56.1513 72.435 56.1375 72.4721 56.1283 72.5093C56.119 72.5464 56.1144 72.5835 56.1098 72.6207C56.1052 72.6671 56.096 72.7135 56.096 72.7553C56.096 72.7645 56.096 72.7785 56.096 72.7878V115.709L36.1476 105.647V61.6675C36.1476 61.6396 36.143 61.6118 36.1384 61.5886C36.1384 61.5468 36.1338 61.5004 36.1246 61.4586C36.1154 61.4122 36.1061 61.3704 36.0923 61.3287C36.0831 61.2962 36.0739 61.259 36.0601 61.2266C36.0417 61.1801 36.0232 61.1384 36.0002 61.0966C35.9864 61.0688 35.9726 61.0363 35.9541 61.0084C35.9311 60.9666 35.9035 60.9295 35.8758 60.8924C35.8528 60.8645 35.8344 60.8367 35.8114 60.8135C35.7791 60.781 35.7469 60.7485 35.71 60.7207C35.6824 60.6975 35.6594 60.6743 35.6271 60.6511C35.5903 60.6232 35.5488 60.6 35.5074 60.5768C35.4843 60.5629 35.4659 60.549 35.4429 60.535L2.49183 44.2538V24.4452L34.3467 40.2113C34.3467 40.2113 34.3697 40.2159 34.3789 40.2252C34.4388 40.2531 34.4987 40.2716 34.5631 40.2902C34.5862 40.2948 34.6046 40.3041 34.6276 40.3087C34.7151 40.3273 34.8027 40.3412 34.8948 40.3412C35.0007 40.3412 35.102 40.3227 35.2034 40.2995C35.231 40.2948 35.254 40.2855 35.2817 40.2763C35.36 40.2484 35.4337 40.2159 35.5028 40.1788C35.5258 40.1649 35.5442 40.1556 35.5672 40.1463C35.6502 40.0906 35.7285 40.0303 35.7975 39.956C35.816 39.9375 35.8298 39.9142 35.8482 39.8957C35.9035 39.8307 35.9495 39.7611 35.9864 39.6868C35.9956 39.6683 36.0094 39.659 36.0186 39.6404C36.0232 39.6265 36.0278 39.6172 36.0324 39.6033C36.0463 39.5662 36.0601 39.529 36.0739 39.4965C36.0877 39.4548 36.1015 39.413 36.1154 39.3666C36.1246 39.3341 36.1246 39.297 36.1292 39.2645C36.1384 39.2134 36.143 39.167 36.143 39.116C36.143 39.1067 36.143 39.0974 36.143 39.0881V-4.21876L56.0914 5.64376V50.1666C56.0914 50.1666 56.0914 50.1805 56.0914 50.1852C56.0914 50.1898 56.0914 50.1991 56.0914 50.2037C56.0914 50.2223 56.1006 50.2409 56.1006 50.2594C56.1052 50.3383 56.119 50.4172 56.1421 50.4915C56.1513 50.524 56.1605 50.5518 56.1697 50.5797C56.1973 50.6586 56.2296 50.7328 56.271 50.8025C56.2803 50.821 56.2895 50.8349 56.2987 50.8535C56.354 50.9371 56.4184 51.0067 56.4875 51.0763C56.5106 51.0949 56.5336 51.1134 56.5566 51.132C56.6165 51.1784 56.6764 51.2202 56.7409 51.2573C56.7593 51.2666 56.7731 51.2805 56.7915 51.2898L89.7472 67.5989V87.3889L57.8923 71.646L57.8877 71.6553ZM36.6404 -38.4382L65.7685 -23.4657L36.1798 -8.82281L36.6404 -38.4382ZM123.403 5.62519V47.9992L92.2482 30.0192V-10.3915L123.403 5.62983V5.62519ZM91 65.4175L60.0065 50.0784L91 32.1913L121.994 50.0784L91 65.4175ZM89.7518 30.0146L58.5971 47.9945V5.62983L89.7518 -10.3962V30.0146ZM145.82 -8.82281L116.231 -23.4657L145.36 -38.4382L145.82 -8.82281ZM177.979 22.3891L148.349 37.0553V6.92936L177.979 22.3938V22.3891ZM90.9954 -33.8341C91.1842 -33.8341 91.3731 -33.8759 91.5481 -33.9641L124.642 -50.3382L143.826 -40.4757L112.874 -24.5657C112.455 -24.3476 112.192 -23.9113 112.192 -23.4379C112.192 -22.9599 112.464 -22.5282 112.888 -22.3194L144.821 -6.52078L124.66 3.44384L91.5619 -13.58C91.5619 -13.58 91.5389 -13.5893 91.5297 -13.5939C91.4652 -13.6264 91.3961 -13.6496 91.327 -13.6682C91.3086 -13.6729 91.2902 -13.6821 91.2764 -13.6868C91.1842 -13.7053 91.0921 -13.7193 90.9954 -13.7193C90.8987 -13.7193 90.8066 -13.7053 90.7144 -13.6868C90.696 -13.6868 90.6822 -13.6775 90.6638 -13.6729C90.5947 -13.6543 90.5256 -13.6311 90.4611 -13.5986C90.4519 -13.5939 90.4381 -13.5939 90.4289 -13.5847L57.3304 3.43919L37.1701 -6.52542L69.1033 -22.324C69.527 -22.5375 69.7988 -22.9691 69.7988 -23.4425C69.7988 -23.9206 69.5362 -24.3568 69.1171 -24.5703L38.1696 -40.471L57.3534 -50.3382L90.4473 -33.9595C90.6223 -33.8713 90.8112 -33.8295 91 -33.8295L90.9954 -33.8341ZM33.6466 6.92471V37.0506L4.0164 22.3938L33.6512 6.92936L33.6466 6.92471ZM91.6218 96.8848C91.2303 96.6527 90.7559 96.6527 90.3644 96.8848L58.5878 115.547V74.7974L90.4427 90.5403C90.4841 90.5635 90.5302 90.5728 90.5763 90.5867C90.6085 90.6006 90.6453 90.6145 90.6776 90.6238C90.7789 90.6517 90.8756 90.6656 90.977 90.6656H90.9908C90.9908 90.6656 90.9954 90.6656 91 90.6656C91.1013 90.6656 91.2027 90.6517 91.2994 90.6238C91.3362 90.6145 91.3685 90.6006 91.4053 90.5867C91.4468 90.5728 91.4928 90.5588 91.5343 90.5403L123.389 74.7974V115.547L91.6172 96.8848H91.6218Z" fill="white"/>
</svg>
