<svg width="119" height="119" viewBox="0 0 119 119" fill="none" xmlns="http://www.w3.org/2000/svg">
<path opacity="0.1" d="M150 -9.28091C150 -9.66825 149.842 -10.0269 149.582 -10.2995C149.496 -10.3855 149.395 -10.4716 149.28 -10.529L119.856 -27.4428L90.4323 -44.3566L75.7205 -52.8063C75.2738 -53.0646 74.7262 -53.0646 74.2795 -52.8063L0.720461 -10.529C0.273775 -10.2708 0 -9.79736 0 -9.28091V75.2881C0 75.8045 0.273775 76.278 0.720461 76.5362L30.072 93.3926C30.072 93.3926 30.1153 93.4356 30.1441 93.45L59.4957 110.306C59.4957 110.306 59.5389 110.349 59.5677 110.364L74.2795 118.814C74.5101 118.943 74.755 119 75 119C75.245 119 75.4899 118.943 75.7205 118.814L90.4323 110.364C90.4323 110.364 90.5331 110.292 90.5908 110.263L149.28 76.5362C149.726 76.278 150 75.8045 150 75.2881V-9.28091ZM50.5476 51.1153L48.4582 49.9102L75 34.6462L88.977 42.6942L101.527 49.8959L74.9856 65.1455L50.5331 51.0866L50.5476 51.1153ZM102.983 47.4284L76.4409 32.1644V1.665L102.983 16.9003V47.4284ZM47.0173 16.9147L73.5591 1.65065V32.15L47.0173 47.3997V16.9003V16.9147ZM75 -49.9085L103.703 -33.4107L133.127 -16.4969L145.677 -9.29526L104.424 14.4041L90.4323 6.37046L89.7406 5.96877L75.7349 -2.09362C75.4611 -2.25142 75.1585 -2.30881 74.8703 -2.26577H74.8127C74.6398 -2.23708 74.4525 -2.1797 74.294 -2.09362L45.5908 14.4041L16.8876 -2.09362L4.32277 -9.28091L75 -49.9085ZM61.0086 107.868L60.2882 109.101L61.0086 107.853L31.585 90.9538L30.8646 92.1875L31.585 90.9394L2.88184 74.456V-6.79907L15.4323 0.402565L30.1441 8.86663L44.1354 16.9003V49.8959C44.1354 50.2832 44.294 50.6419 44.5533 50.9144C44.6398 51.0005 44.7406 51.0866 44.8559 51.144L72.0605 66.7953L73.5447 67.6561V115.084L60.9942 107.882L61.0086 107.868ZM147.118 74.456L88.9914 107.853C88.9914 107.853 88.8905 107.925 88.8329 107.954L76.4409 115.069V67.6417L105.144 51.144C105.591 50.8857 105.865 50.4123 105.865 49.8959V16.9003L147.104 -6.81342V74.4417L147.118 74.456Z" fill="#FF6600"/>
</svg>
