<svg width="40" height="40" viewBox="0 0 40 40" fill="none" xmlns="http://www.w3.org/2000/svg">
<g clip-path="url(#clip0_0_893)">
<path d="M7.76198 8.01492H19.9512C20.4599 8.01492 20.8743 7.5979 20.8743 7.08595C20.8743 6.574 20.4599 6.15698 19.9512 6.15698H7.76198C7.25326 6.15698 6.83887 6.574 6.83887 7.08595C6.83887 7.5979 7.25326 8.01492 7.76198 8.01492Z" fill="#FF6600"/>
<path d="M16.8449 13.7007C16.8449 13.1887 16.4305 12.7717 15.9218 12.7717H7.76198C7.25326 12.7717 6.83887 13.1887 6.83887 13.7007C6.83887 14.2127 7.25326 14.6297 7.76198 14.6297H15.9218C16.4305 14.6297 16.8449 14.2127 16.8449 13.7007Z" fill="#FF6600"/>
<path d="M39.528 15.2331C39.2383 15.067 38.8778 15.0771 38.5948 15.2534L30.3238 20.3831V20.2543C30.3238 19.7423 29.9094 19.3253 29.4007 19.3253H25.8531V0.928971C25.8531 0.41702 25.4387 0 24.93 0H3.09184C2.58312 0 2.16873 0.41702 2.16873 0.928971V22.0037C2.16873 24.655 4.08234 26.8622 6.61923 27.3097C6.95276 27.4826 18.5928 27.4216 18.9668 27.4216L1.43765 38.2811C1.08727 38.4981 0.922183 38.9252 1.03336 39.3253C1.14454 39.7254 1.5084 40 1.91942 40H39.0799C39.5886 40 40.003 39.583 40.003 39.071V16.0434C40.003 15.7077 39.8211 15.3958 39.5314 15.2331H39.528ZM9.99837 20.2509V22.5733C9.99837 24.1329 8.8091 25.428 7.27619 25.5433C5.44343 25.4077 4.01159 23.8617 4.01159 22.0003V1.85794H24.0035V19.3219H10.9215C10.4128 19.3219 9.99837 19.7389 9.99837 20.2509ZM10.7968 25.5569C11.4437 24.7296 11.8446 23.7023 11.8446 22.5733V21.1765H28.4776C28.4776 21.6681 28.5045 22.7361 28.4169 23.1768C28.1407 24.533 26.9446 25.5569 25.5128 25.5569H10.7968ZM38.1534 38.1421H35.9063V36.5893C35.9063 36.0773 35.4953 35.6603 34.9832 35.6603C34.4711 35.6603 34.0601 36.0773 34.0601 36.5893V38.1421H31.3716V36.5893C31.3716 36.0773 30.9572 35.6603 30.4484 35.6603C29.9397 35.6603 29.5253 36.0773 29.5253 36.5893V38.1421H26.8368V36.5893C26.8368 36.0773 26.4224 35.6603 25.9137 35.6603C25.405 35.6603 24.9906 36.0773 24.9906 36.5893V38.1421H22.3021V36.5893C22.3021 36.0773 21.8877 35.6603 21.379 35.6603C20.8703 35.6603 20.4559 36.0773 20.4559 36.5893V38.1421H17.7674V36.5893C17.7674 36.0773 17.353 35.6603 16.8443 35.6603C16.3355 35.6603 15.9211 36.0773 15.9211 36.5893V38.1421H13.2327V36.5893C13.2327 36.0773 12.8183 35.6603 12.3095 35.6603C11.8008 35.6603 11.3864 36.0773 11.3864 36.5893V38.1421H5.18065L22.484 27.4182H25.5162C27.8374 27.4182 29.778 25.7569 30.2261 23.5531C30.2901 23.2378 30.3238 22.9124 30.3238 22.5801L38.1568 17.7081V38.1455L38.1534 38.1421Z" fill="#FF6600"/>
<path d="M22.8246 32.9818C22.9358 33.3818 23.2996 33.6633 23.714 33.6633H32.7801C33.2888 33.6633 33.7032 33.2462 33.7032 32.7343V27.2486C33.7032 26.5366 32.9283 26.0789 32.3051 26.4519L23.239 31.9375C22.8852 32.1511 22.7134 32.5783 22.8246 32.9818ZM31.857 28.8896V31.8019H27.0393L31.857 28.8896Z" fill="#FF6600"/>
</g>
<defs>
<clipPath id="clip0_0_893">
<rect width="40" height="40" fill="white"/>
</clipPath>
</defs>
</svg>
