<svg width="20" height="20" viewBox="0 0 20 20" fill="none" xmlns="http://www.w3.org/2000/svg">
<path d="M9.99821 6.87514C8.27487 6.87514 6.87321 8.2768 6.87321 10.0001C6.87321 11.7235 8.27487 13.1251 9.99821 13.1251C11.7215 13.1251 13.1232 11.7235 13.1232 10.0001C13.1232 8.2768 11.7215 6.87514 9.99821 6.87514ZM9.99821 11.8751C8.96404 11.8751 8.12321 11.0343 8.12321 10.0001C8.12321 8.96597 8.96404 8.12514 9.99821 8.12514C11.0324 8.12514 11.8732 8.96597 11.8732 10.0001C11.8732 11.0343 11.0324 11.8751 9.99821 11.8751ZM17.6715 11.6276C17.0932 11.2926 16.7332 10.6693 16.7324 10.0001C16.7315 9.33264 17.089 8.71015 17.6749 8.37098C18.104 8.12182 18.2507 7.56929 18.0024 7.13929L16.6091 4.7343C16.3607 4.30514 15.8082 4.15765 15.3782 4.40515C14.7957 4.74098 14.0716 4.74098 13.4874 4.40181C12.9116 4.06765 12.5532 3.44681 12.5532 2.78098C12.5532 2.28181 12.1465 1.87598 11.6474 1.87598H8.35153C7.85153 1.87598 7.44572 2.28181 7.44572 2.78098C7.44572 3.44681 7.08737 4.06763 6.50987 4.40347C5.92737 4.74097 5.20404 4.74179 4.62154 4.40596C4.19071 4.15763 3.63905 4.30598 3.39072 4.73514L1.99571 7.14265C1.74738 7.57182 1.89487 8.12346 2.3282 8.37513C2.9057 8.70929 3.26571 9.3318 3.26738 9.9993C3.26904 10.6676 2.91071 11.2918 2.32571 11.631C2.11737 11.7518 1.96737 11.946 1.90571 12.1793C1.84404 12.4118 1.87572 12.6543 1.99655 12.8635L3.38904 15.2668C3.63737 15.6968 4.18988 15.846 4.62154 15.5968C5.20404 15.261 5.92655 15.2618 6.50071 15.5943L6.50237 15.5951C6.50487 15.5968 6.50738 15.5985 6.51071 15.6001C7.08654 15.9343 7.44403 16.5551 7.4432 17.2218C7.4432 17.721 7.84903 18.1268 8.3482 18.1268H11.6474C12.1465 18.1268 12.5524 17.721 12.5524 17.2226C12.5524 16.556 12.9107 15.9351 13.489 15.5993C14.0707 15.2618 14.794 15.2601 15.3774 15.5968C15.8074 15.8451 16.359 15.6976 16.6082 15.2685L18.0032 12.861C18.2507 12.4301 18.1032 11.8776 17.6715 11.6276ZM15.6907 14.356C14.7824 13.9601 13.7282 14.0143 12.8599 14.5168C11.999 15.016 11.4307 15.8985 11.3207 16.8751H8.67321C8.56488 15.8985 7.99486 15.0143 7.13403 14.516C6.26736 14.0135 5.21155 13.9601 4.30571 14.356L3.24238 12.5201C4.03821 11.9343 4.51903 10.9943 4.5157 9.99431C4.5132 9.00098 4.03321 8.06763 3.24154 7.4818L4.30571 5.64513C5.21238 6.04013 6.26821 5.98679 7.13655 5.48346C7.99655 4.98513 8.56486 4.10181 8.67486 3.12598H11.3207C11.4299 4.10264 11.999 4.98514 12.8615 5.48514C13.7274 5.98764 14.7832 6.04097 15.6907 5.64597L16.7549 7.4818C15.9607 8.0668 15.4807 9.00514 15.4824 10.0035C15.4832 10.9985 15.9632 11.9335 16.7557 12.521L15.6907 14.356Z" fill="#FF6600"/>
</svg>
