<svg width="24" height="24" viewBox="0 0 24 24" fill="none" xmlns="http://www.w3.org/2000/svg">
<path d="M10.767 14.4997V17.4997C10.767 17.9137 10.431 18.2497 10.017 18.2497C9.60297 18.2497 9.26697 17.9137 9.26697 17.4997V14.4997C9.26697 14.0857 9.60297 13.7497 10.017 13.7497C10.431 13.7497 10.767 14.0857 10.767 14.4997ZM14.017 13.7497C13.603 13.7497 13.267 14.0857 13.267 14.4997V17.4997C13.267 17.9137 13.603 18.2497 14.017 18.2497C14.431 18.2497 14.767 17.9137 14.767 17.4997V14.4997C14.767 14.0857 14.431 13.7497 14.017 13.7497ZM20.2261 11.4477L19.5341 18.3727C19.3071 20.6447 18.087 21.7497 15.803 21.7497H8.23303C5.94903 21.7497 4.72808 20.6457 4.50208 18.3727L3.81201 11.4687C2.89101 11.0237 2.25 10.0887 2.25 8.99971C2.25 7.48271 3.483 6.24971 5 6.24971H7.15698L9.35803 2.61171C9.57203 2.25771 10.0311 2.14371 10.3881 2.35871C10.7421 2.57271 10.856 3.03472 10.641 3.38872L8.91003 6.25072H15.061L13.3561 3.38471C13.1441 3.02871 13.2611 2.56871 13.6171 2.35671C13.9731 2.14371 14.433 2.26271 14.645 2.61771L16.807 6.25171H18.999C20.516 6.25171 21.749 7.48471 21.749 9.00171C21.749 10.0727 21.1251 10.9947 20.2261 11.4477ZM3.74902 8.99971C3.74902 9.68871 4.31002 10.2497 4.99902 10.2497H18.999C19.688 10.2497 20.249 9.68871 20.249 8.99971C20.249 8.31071 19.688 7.74971 18.999 7.74971H4.99902C4.31002 7.74971 3.74902 8.31071 3.74902 8.99971ZM18.689 11.7497H5.34607L5.99304 18.2237C6.12504 19.5377 6.52006 20.2497 8.23206 20.2497H15.802C17.505 20.2497 17.912 19.5067 18.041 18.2237L18.689 11.7497Z" fill="currentColor"/>
</svg>
