<svg width="32" height="32" viewBox="0 0 32 32" fill="none" xmlns="http://www.w3.org/2000/svg">
<path d="M17.2809 6.1285L19.8702 11.3512C20.0649 11.7445 20.4409 12.0165 20.8769 12.0792L26.8541 12.9431C27.9501 13.1018 28.3875 14.4458 27.5942 15.2165L23.2729 19.4098C22.9569 19.7165 22.8128 20.1578 22.8875 20.5911L23.8754 26.3298C24.0754 27.4938 22.8528 28.3818 21.8048 27.8338L16.6209 25.1205C16.2315 24.9165 15.7675 24.9165 15.3795 25.1205L10.1995 27.8311C9.15016 28.3805 7.92345 27.4911 8.12478 26.3245L9.1129 20.5911C9.18757 20.1578 9.04348 19.7165 8.72748 19.4098L4.40619 15.2165C3.61153 14.4458 4.04877 13.1018 5.1461 12.9431L11.1235 12.0792C11.5581 12.0165 11.9342 11.7445 12.1302 11.3512L14.7195 6.1285C15.2408 5.0685 16.7555 5.0685 17.2809 6.1285Z" fill="#FFA800"/>
</svg>
