<svg width="24" height="25" viewBox="0 0 24 25" fill="none" xmlns="http://www.w3.org/2000/svg">
<path d="M12.9607 5.09625L14.9027 9.01324C15.0487 9.30824 15.3307 9.51226 15.6577 9.55926L20.1406 10.2072C20.9626 10.3262 21.2906 11.3342 20.6956 11.9122L17.4547 15.0572C17.2177 15.2872 17.1096 15.6182 17.1656 15.9432L17.9066 20.2473C18.0566 21.1203 17.1396 21.7862 16.3536 21.3752L12.4657 19.3403C12.1737 19.1873 11.8256 19.1873 11.5346 19.3403L7.64962 21.3732C6.86262 21.7852 5.94259 21.1182 6.09359 20.2432L6.83468 15.9432C6.89068 15.6182 6.78261 15.2872 6.54561 15.0572L3.30465 11.9122C2.70865 11.3342 3.03658 10.3262 3.85958 10.2072L8.34261 9.55926C8.66861 9.51226 8.95061 9.30824 9.09761 9.01324L11.0396 5.09625C11.4306 4.30125 12.5667 4.30125 12.9607 5.09625Z" fill="#FF6600"/>
</svg>
