<svg width="24" height="24" viewBox="0 0 24 24" fill="none" xmlns="http://www.w3.org/2000/svg">
<path d="M12.9607 4.59625L14.9027 8.51324C15.0487 8.80824 15.3307 9.01226 15.6577 9.05926L20.1406 9.70721C20.9626 9.82621 21.2906 10.8342 20.6956 11.4122L17.4547 14.5572C17.2177 14.7872 17.1096 15.1182 17.1656 15.4432L17.9066 19.7473C18.0566 20.6203 17.1396 21.2862 16.3536 20.8752L12.4657 18.8403C12.1737 18.6873 11.8256 18.6873 11.5346 18.8403L7.64962 20.8732C6.86262 21.2852 5.94259 20.6182 6.09359 19.7432L6.83468 15.4432C6.89068 15.1182 6.78261 14.7872 6.54561 14.5572L3.30465 11.4122C2.70865 10.8342 3.03658 9.82621 3.85958 9.70721L8.34261 9.05926C8.66861 9.01226 8.95061 8.80824 9.09761 8.51324L11.0396 4.59625C11.4306 3.80125 12.5667 3.80125 12.9607 4.59625Z" fill="#FF6600"/>
</svg>
