<svg width="20" height="20" viewBox="0 0 20 20" fill="none" xmlns="http://www.w3.org/2000/svg">
<path d="M14.6675 6.63584L15.4451 5.85836C15.6893 5.61419 15.6893 5.21833 15.4451 4.97416C15.2009 4.73 14.8051 4.73 14.5609 4.97416L13.7459 5.78918C12.5892 4.90585 11.1501 4.375 9.58594 4.375C5.7951 4.375 2.71094 7.45917 2.71094 11.25C2.71094 15.0408 5.7951 18.125 9.58594 18.125C13.3768 18.125 16.4609 15.0408 16.4609 11.25C16.4609 9.47333 15.7775 7.85751 14.6675 6.63584ZM9.58594 16.875C6.48427 16.875 3.96094 14.3517 3.96094 11.25C3.96094 8.14833 6.48427 5.625 9.58594 5.625C12.6876 5.625 15.2109 8.14833 15.2109 11.25C15.2109 14.3517 12.6876 16.875 9.58594 16.875ZM11.6276 12C11.9034 12.2075 11.9594 12.5991 11.7519 12.875C11.6302 13.0383 11.4418 13.125 11.251 13.125C11.121 13.125 10.9893 13.0841 10.8768 13L9.21016 11.75C9.0535 11.6316 8.96012 11.4467 8.96012 11.25V8.33333C8.96012 7.98833 9.24012 7.70833 9.58512 7.70833C9.93012 7.70833 10.2101 7.98833 10.2101 8.33333V10.9375L11.6276 12ZM6.8776 2.5C6.8776 2.155 7.1576 1.875 7.5026 1.875H11.6693C12.0143 1.875 12.2943 2.155 12.2943 2.5C12.2943 2.845 12.0143 3.125 11.6693 3.125H7.5026C7.1576 3.125 6.8776 2.845 6.8776 2.5Z" fill="white"/>
</svg>
