<svg width="20" height="20" viewBox="0 0 20 20" fill="none" xmlns="http://www.w3.org/2000/svg">
<path d="M18.9557 10.0013C18.9557 5.0613 14.9374 1.04297 9.9974 1.04297C5.0574 1.04297 1.03906 5.0613 1.03906 10.0013C1.03906 12.893 2.42156 15.4613 4.55489 17.1005C4.55822 17.1038 4.56326 17.1055 4.56659 17.1088C6.07576 18.2647 7.95488 18.9596 9.99821 18.9596C12.0415 18.9596 13.9208 18.2647 15.4299 17.1088C15.4333 17.1055 15.4382 17.1038 15.4415 17.1005C17.5732 15.4613 18.9557 12.893 18.9557 10.0013ZM2.28906 10.0013C2.28906 5.75047 5.74656 2.29297 9.9974 2.29297C14.2482 2.29297 17.7057 5.75047 17.7057 10.0013C17.7057 12.1038 16.8574 14.0113 15.4874 15.403C15.1132 13.8188 13.9157 12.3513 11.4224 12.3513H8.57243C6.07909 12.3513 4.88072 13.8188 4.50739 15.403C3.13739 14.0113 2.28906 12.1038 2.28906 10.0013ZM5.62992 16.3463C5.67826 15.4913 6.0691 13.6013 8.57243 13.6013H11.4224C13.9257 13.6013 14.3165 15.4913 14.3649 16.3463C13.1224 17.2046 11.6182 17.7096 9.9974 17.7096C8.37656 17.7096 6.87242 17.2038 5.62992 16.3463ZM10.0041 11.4596C11.7266 11.4596 13.1291 10.058 13.1291 8.33464C13.1291 6.6113 11.7266 5.20964 10.0041 5.20964C8.28161 5.20964 6.87911 6.6113 6.87911 8.33464C6.87911 10.058 8.28078 11.4596 10.0041 11.4596ZM10.0041 6.45964C11.0374 6.45964 11.8791 7.30047 11.8791 8.33464C11.8791 9.3688 11.0374 10.2096 10.0041 10.2096C8.97078 10.2096 8.12911 9.3688 8.12911 8.33464C8.12911 7.30047 8.97078 6.45964 10.0041 6.45964Z" fill="white"/>
</svg>
