<svg width="18" height="18" viewBox="0 0 18 18" fill="none" xmlns="http://www.w3.org/2000/svg">
<path d="M17.0625 9C17.0625 4.554 13.446 0.9375 9 0.9375C4.554 0.9375 0.9375 4.554 0.9375 9C0.9375 11.6025 2.18175 13.914 4.10175 15.3893C4.10475 15.3923 4.10927 15.3938 4.11227 15.3968C5.47052 16.437 7.16173 17.0625 9.00073 17.0625C10.8397 17.0625 12.531 16.437 13.8893 15.3968C13.8923 15.3938 13.8967 15.3923 13.8997 15.3893C15.8182 13.914 17.0625 11.6025 17.0625 9ZM2.0625 9C2.0625 5.17425 5.17425 2.0625 9 2.0625C12.8257 2.0625 15.9375 5.17425 15.9375 9C15.9375 10.8922 15.174 12.609 13.941 13.8615C13.6043 12.4358 12.5265 11.115 10.2825 11.115H7.71753C5.47353 11.115 4.39499 12.4358 4.05899 13.8615C2.82599 12.609 2.0625 10.8922 2.0625 9ZM5.06927 14.7105C5.11277 13.941 5.46453 12.24 7.71753 12.24H10.2825C12.5355 12.24 12.8872 13.941 12.9307 14.7105C11.8125 15.483 10.4587 15.9375 9 15.9375C7.54125 15.9375 6.18752 15.4823 5.06927 14.7105ZM9.00604 10.3125C10.5563 10.3125 11.8185 9.051 11.8185 7.5C11.8185 5.949 10.5563 4.6875 9.00604 4.6875C7.45579 4.6875 6.19354 5.949 6.19354 7.5C6.19354 9.051 7.45504 10.3125 9.00604 10.3125ZM9.00604 5.8125C9.93604 5.8125 10.6935 6.56925 10.6935 7.5C10.6935 8.43075 9.93604 9.1875 9.00604 9.1875C8.07604 9.1875 7.31854 8.43075 7.31854 7.5C7.31854 6.56925 8.07604 5.8125 9.00604 5.8125Z" fill="currentColor"/>
</svg>
