<svg width="20" height="20" viewBox="0 0 20 20" fill="none" xmlns="http://www.w3.org/2000/svg">
<path d="M10.0049 8.95833C8.05159 8.95833 6.46326 7.36917 6.46326 5.41667C6.46326 3.46417 8.05159 1.875 10.0049 1.875C11.9583 1.875 13.5466 3.46417 13.5466 5.41667C13.5466 7.36917 11.9583 8.95833 10.0049 8.95833ZM10.0049 3.125C8.74076 3.125 7.71326 4.1525 7.71326 5.41667C7.71326 6.68083 8.74076 7.70833 10.0049 7.70833C11.2691 7.70833 12.2966 6.68083 12.2966 5.41667C12.2966 4.1525 11.2683 3.125 10.0049 3.125ZM16.4557 17.5V15.0159C16.4557 12.7984 15.2007 10.2083 11.6641 10.2083H8.33073C4.79406 10.2083 3.53906 12.7975 3.53906 15.0159V17.5C3.53906 17.845 3.81906 18.125 4.16406 18.125C4.50906 18.125 4.78906 17.845 4.78906 17.5V15.0159C4.78906 14.1817 5.0449 11.4583 8.33073 11.4583H11.6641C14.9499 11.4583 15.2057 14.1809 15.2057 15.0159V17.5C15.2057 17.845 15.4857 18.125 15.8307 18.125C16.1757 18.125 16.4557 17.845 16.4557 17.5Z" fill="white"/>
</svg>
