<svg width="20" height="21" viewBox="0 0 20 21" fill="none" xmlns="http://www.w3.org/2000/svg">
<path d="M18.9583 10.5001C18.9583 5.56008 14.94 1.54175 9.99999 1.54175C5.05999 1.54175 1.04166 5.56008 1.04166 10.5001C1.04166 13.3917 2.42415 15.9601 4.55748 17.5993C4.56082 17.6026 4.56585 17.6043 4.56918 17.6076C6.07835 18.7635 7.95747 19.4584 10.0008 19.4584C12.0441 19.4584 13.9234 18.7635 15.4325 17.6076C15.4359 17.6043 15.4408 17.6026 15.4441 17.5993C17.5758 15.9601 18.9583 13.3917 18.9583 10.5001ZM2.29166 10.5001C2.29166 6.24925 5.74916 2.79175 9.99999 2.79175C14.2508 2.79175 17.7083 6.24925 17.7083 10.5001C17.7083 12.6026 16.86 14.5101 15.49 15.9018C15.1158 14.3176 13.9183 12.85 11.425 12.85H8.57502C6.08169 12.85 4.88331 14.3176 4.50998 15.9018C3.13998 14.5101 2.29166 12.6026 2.29166 10.5001ZM5.63252 16.8451C5.68085 15.9901 6.07169 14.1 8.57502 14.1H11.425C13.9283 14.1 14.3191 15.9901 14.3675 16.8451C13.125 17.7034 11.6208 18.2084 9.99999 18.2084C8.37916 18.2084 6.87502 17.7026 5.63252 16.8451ZM10.0067 11.9584C11.7292 11.9584 13.1317 10.5567 13.1317 8.83341C13.1317 7.11008 11.7292 5.70841 10.0067 5.70841C8.2842 5.70841 6.8817 7.11008 6.8817 8.83341C6.8817 10.5567 8.28337 11.9584 10.0067 11.9584ZM10.0067 6.95841C11.04 6.95841 11.8817 7.79925 11.8817 8.83341C11.8817 9.86758 11.04 10.7084 10.0067 10.7084C8.97337 10.7084 8.1317 9.86758 8.1317 8.83341C8.1317 7.79925 8.97337 6.95841 10.0067 6.95841Z" fill="currentColor"/>
</svg>
