<svg width="24" height="24" viewBox="0 0 24 24" fill="none" xmlns="http://www.w3.org/2000/svg">
<path d="M19.9816 2.5L13.4657 10.0211L13.2104 10.3158L13.434 10.6352L21.0396 21.5H16.309L10.9617 13.8607L10.594 13.3355L10.1742 13.8201L3.52058 21.5H3.09474L10.1483 13.3585L10.4037 13.0638L10.18 12.7444L3.00899 2.5H7.73967L12.6526 9.51855L13.0203 10.0438L13.4402 9.55921L19.5558 2.5H19.9816ZM4.62057 2.87629H3.66025L4.21096 3.66302L16.2841 20.9104L16.4334 21.1237H16.6937H19.4278H20.3881L19.8374 20.337L7.7642 3.08956L7.61492 2.87629H7.35459H4.62057Z" fill="currentColor" stroke="currentColor"/>
</svg>
