<svg width="18" height="18" viewBox="0 0 18 18" fill="none" xmlns="http://www.w3.org/2000/svg">
<path d="M14.907 1.78572L10.0442 7.39858L9.78891 7.69329L10.0125 8.01272L15.7539 16.2143H12.3835L8.2926 10.3699L7.92492 9.84461L7.50508 10.3292L2.40647 16.2143H2.38039L7.65788 10.1229L7.9132 9.82816L7.68959 9.50873L2.28351 1.78572H5.65389L9.40977 7.15128L9.77746 7.67655L10.1973 7.19194L14.8809 1.78572H14.907ZM3.30723 1.84743H2.3469L2.89761 2.63416L12.2112 15.9393L12.3605 16.1526H12.6208H14.7299H15.6902L15.1395 15.3658L5.82594 2.0607L5.67666 1.84743H5.41633H3.30723Z" fill="#153000" stroke="#153000"/>
</svg>
