<svg width="20" height="20" viewBox="0 0 20 20" fill="none" xmlns="http://www.w3.org/2000/svg">
<path d="M16.4702 2.1665L11.1597 8.29618L10.9044 8.59088L11.128 8.91031L17.3743 17.8332H13.6355L9.20435 11.5027L8.83667 10.9774L8.41682 11.462L2.89706 17.8332H2.76271L8.52123 11.1865L8.77655 10.8918L8.55295 10.5724L2.66885 2.1665H6.40764L10.4769 7.97975L10.8446 8.50502L11.2644 8.02041L16.3358 2.1665H16.4702ZM3.85178 2.31342H2.89145L3.44216 3.10015L13.5031 17.473L13.6524 17.6863H13.9128H16.1911H17.1514L16.6007 16.8995L6.53974 2.52668L6.39045 2.31342H6.13013H3.85178Z" fill="currentColor" stroke="currentColor"/>
</svg>
