<svg width="16" height="16" viewBox="0 0 16 16" fill="none" xmlns="http://www.w3.org/2000/svg">
<mask id="path-1-inside-1_0_1007" fill="currentColor">
<path d="M1.36594 1.3335L6.51378 8.68759L1.3335 14.6668H2.49946L7.0349 9.4318L10.6993 14.6668H14.6668L9.22923 6.89915L14.0511 1.3335H12.8851L8.70833 6.15471L5.3335 1.3335H1.36594ZM3.08055 2.25103H4.90322L12.952 13.7493H11.1293L3.08055 2.25103Z"/>
</mask>
<path d="M1.36594 1.3335L6.51378 8.68759L1.3335 14.6668H2.49946L7.0349 9.4318L10.6993 14.6668H14.6668L9.22923 6.89915L14.0511 1.3335H12.8851L8.70833 6.15471L5.3335 1.3335H1.36594ZM3.08055 2.25103H4.90322L12.952 13.7493H11.1293L3.08055 2.25103Z" fill="currentColor"/>
<path d="M1.36594 1.3335V0.333496H-0.55471L0.546707 1.90696L1.36594 1.3335ZM6.51378 8.68759L7.26958 9.3424L7.78022 8.753L7.33302 8.11413L6.51378 8.68759ZM1.3335 14.6668L0.5777 14.012L-0.855991 15.6668H1.3335V14.6668ZM2.49946 14.6668V15.6668H2.9562L3.25527 15.3216L2.49946 14.6668ZM7.0349 9.4318L7.85414 8.85835L7.11878 7.80779L6.2791 8.777L7.0349 9.4318ZM10.6993 14.6668L9.88003 15.2403L10.1786 15.6668H10.6993V14.6668ZM14.6668 14.6668V15.6668H16.5875L15.486 14.0934L14.6668 14.6668ZM9.22923 6.89915L8.47342 6.24436L7.96278 6.83377L8.41001 7.47263L9.22923 6.89915ZM14.0511 1.3335L14.8069 1.98829L16.2405 0.333496H14.0511V1.3335ZM12.8851 1.3335V0.333496H12.4284L12.1293 0.67871L12.8851 1.3335ZM8.70833 6.15471L7.8891 6.72817L8.62448 7.77871L9.46415 6.80949L8.70833 6.15471ZM5.3335 1.3335L6.15273 0.760035L5.85415 0.333496H5.3335V1.3335ZM3.08055 2.25103V1.25103H1.15989L2.26131 2.82449L3.08055 2.25103ZM4.90322 2.25103L5.72245 1.67756L5.42388 1.25103H4.90322V2.25103ZM12.952 13.7493V14.7493H14.8727L13.7712 13.1758L12.952 13.7493ZM11.1293 13.7493L10.3101 14.3228L10.6087 14.7493H11.1293V13.7493ZM0.546707 1.90696L5.69455 9.26105L7.33302 8.11413L2.18517 0.760035L0.546707 1.90696ZM5.75799 8.03278L0.5777 14.012L2.08929 15.3216L7.26958 9.3424L5.75799 8.03278ZM1.3335 15.6668H2.49946V13.6668H1.3335V15.6668ZM3.25527 15.3216L7.7907 10.0866L6.2791 8.777L1.74366 14.012L3.25527 15.3216ZM6.21566 10.0052L9.88003 15.2403L11.5185 14.0934L7.85414 8.85835L6.21566 10.0052ZM10.6993 15.6668H14.6668V13.6668H10.6993V15.6668ZM15.486 14.0934L10.0484 6.32567L8.41001 7.47263L13.8476 15.2403L15.486 14.0934ZM9.98503 7.55395L14.8069 1.98829L13.2953 0.6787L8.47342 6.24436L9.98503 7.55395ZM14.0511 0.333496H12.8851V2.3335H14.0511V0.333496ZM12.1293 0.67871L7.95252 5.49992L9.46415 6.80949L13.6409 1.98828L12.1293 0.67871ZM9.52757 5.58124L6.15273 0.760035L4.51426 1.90696L7.8891 6.72817L9.52757 5.58124ZM5.3335 0.333496H1.36594V2.3335H5.3335V0.333496ZM3.08055 3.25102H4.90322V1.25103H3.08055V3.25102ZM4.08399 2.82449L12.1328 14.3228L13.7712 13.1758L5.72245 1.67756L4.08399 2.82449ZM12.952 12.7493H11.1293V14.7493H12.952V12.7493ZM11.9486 13.1758L3.89978 1.67756L2.26131 2.82449L10.3101 14.3228L11.9486 13.1758Z" fill="currentColor" mask="url(#path-1-inside-1_0_1007)"/>
</svg>
